solid OpenSCAD_Model
  facet normal 0 0 -1
    outer loop
      vertex -2.99404 2.65249 9
      vertex -1.41842 3.74006 9
      vertex -3.88377 0.957263 9
    endloop
  endfacet
  facet normal 0 0 -1
    outer loop
      vertex -3.88377 0.957263 9
      vertex -1.41842 3.74006 9
      vertex 0.482147 3.97083 9
    endloop
  endfacet
  facet normal 0 0 -1
    outer loop
      vertex -3.88377 0.957263 9
      vertex 0.482147 3.97083 9
      vertex 2.27226 3.29194 9
    endloop
  endfacet
  facet normal 0 0 -1
    outer loop
      vertex -0.445042 1.94986 9
      vertex 2.27226 3.29194 9
      vertex 3.54182 1.85889 9
    endloop
  endfacet
  facet normal 0 0 -1
    outer loop
      vertex 1.24698 1.56366 9
      vertex 3.54182 1.85889 9
      vertex 4 0 9
    endloop
  endfacet
  facet normal 0 0 -1
    outer loop
      vertex 2 0 9
      vertex 4 0 9
      vertex 3.54182 -1.85889 9
    endloop
  endfacet
  facet normal 0 0 -1
    outer loop
      vertex 1.24698 -1.56366 9
      vertex 3.54182 -1.85889 9
      vertex 2.27226 -3.29194 9
    endloop
  endfacet
  facet normal 0 0 -1
    outer loop
      vertex -0.445042 -1.94986 9
      vertex 2.27226 -3.29194 9
      vertex 0.482147 -3.97083 9
    endloop
  endfacet
  facet normal 0 0 -1
    outer loop
      vertex -3.88377 0.957263 9
      vertex 0.482147 -3.97083 9
      vertex -1.41842 -3.74006 9
    endloop
  endfacet
  facet normal 0 0 -1
    outer loop
      vertex -3.88377 0.957263 9
      vertex -1.41842 -3.74006 9
      vertex -2.99404 -2.65249 9
    endloop
  endfacet
  facet normal 0 0 -1
    outer loop
      vertex -3.88377 0.957263 9
      vertex -2.99404 -2.65249 9
      vertex -3.88377 -0.957263 9
    endloop
  endfacet
  facet normal 0 0 -1
    outer loop
      vertex 1.24698 -1.56366 9
      vertex 2.27226 -3.29194 9
      vertex -0.445042 -1.94986 9
    endloop
  endfacet
  facet normal 0 0 -1
    outer loop
      vertex -3.88377 0.957263 9
      vertex -1.80194 -0.867767 9
      vertex 0.482147 -3.97083 9
    endloop
  endfacet
  facet normal 0 0 -1
    outer loop
      vertex -1.80194 -0.867767 9
      vertex -0.445042 -1.94986 9
      vertex 0.482147 -3.97083 9
    endloop
  endfacet
  facet normal 0 0 -1
    outer loop
      vertex -0.445042 1.94986 9
      vertex 3.54182 1.85889 9
      vertex 1.24698 1.56366 9
    endloop
  endfacet
  facet normal 0 0 -1
    outer loop
      vertex -3.88377 0.957263 9
      vertex 2.27226 3.29194 9
      vertex -0.445042 1.94986 9
    endloop
  endfacet
  facet normal 0 0 -1
    outer loop
      vertex -1.80194 0.867767 9
      vertex -3.88377 0.957263 9
      vertex -0.445042 1.94986 9
    endloop
  endfacet
  facet normal 0 0 -1
    outer loop
      vertex -1.80194 -0.867767 9
      vertex -3.88377 0.957263 9
      vertex -1.80194 0.867767 9
    endloop
  endfacet
  facet normal 0 0 -1
    outer loop
      vertex 1.24698 1.56366 9
      vertex 4 0 9
      vertex 2 0 9
    endloop
  endfacet
  facet normal 0 0 -1
    outer loop
      vertex 2 0 9
      vertex 3.54182 -1.85889 9
      vertex 1.24698 -1.56366 9
    endloop
  endfacet
  facet normal -1 0 0
    outer loop
      vertex -3.88377 -0.957263 9
      vertex -3.88377 -0.957263 10
      vertex -3.88377 0.957263 9
    endloop
  endfacet
  facet normal -1 0 0
    outer loop
      vertex -3.88377 0.957263 9
      vertex -3.88377 -0.957263 10
      vertex -3.88377 0.957263 10
    endloop
  endfacet
  facet normal -0.885456 -0.464723 0
    outer loop
      vertex -3.88377 -0.957263 9
      vertex -2.99404 -2.65249 9
      vertex -3.88377 -0.957263 10
    endloop
  endfacet
  facet normal -0.885456 -0.464723 0
    outer loop
      vertex -3.88377 -0.957263 10
      vertex -2.99404 -2.65249 9
      vertex -2.99404 -2.65249 10
    endloop
  endfacet
  facet normal -0.885456 0.464723 0
    outer loop
      vertex -3.88377 0.957263 9
      vertex -3.88377 0.957263 10
      vertex -2.99404 2.65249 9
    endloop
  endfacet
  facet normal -0.885456 0.464723 0
    outer loop
      vertex -2.99404 2.65249 9
      vertex -3.88377 0.957263 10
      vertex -2.99404 2.65249 10
    endloop
  endfacet
  facet normal -0.568065 -0.822984 0
    outer loop
      vertex -2.99404 -2.65249 10
      vertex -2.99404 -2.65249 9
      vertex -1.41842 -3.74006 9
    endloop
  endfacet
  facet normal -0.568065 -0.822984 0
    outer loop
      vertex -1.41842 -3.74006 10
      vertex -2.99404 -2.65249 10
      vertex -1.41842 -3.74006 9
    endloop
  endfacet
  facet normal -0.120536 -0.992709 0
    outer loop
      vertex -1.41842 -3.74006 10
      vertex -1.41842 -3.74006 9
      vertex 0.482147 -3.97083 9
    endloop
  endfacet
  facet normal -0.120536 -0.992709 0
    outer loop
      vertex 0.482147 -3.97083 10
      vertex -1.41842 -3.74006 10
      vertex 0.482147 -3.97083 9
    endloop
  endfacet
  facet normal 0.354605 -0.935016 0
    outer loop
      vertex 0.482147 -3.97083 10
      vertex 0.482147 -3.97083 9
      vertex 2.27226 -3.29194 9
    endloop
  endfacet
  facet normal 0.354605 -0.935016 0
    outer loop
      vertex 2.27226 -3.29194 10
      vertex 0.482147 -3.97083 10
      vertex 2.27226 -3.29194 9
    endloop
  endfacet
  facet normal 0.748511 -0.663123 0
    outer loop
      vertex 2.27226 -3.29194 10
      vertex 2.27226 -3.29194 9
      vertex 3.54182 -1.85889 9
    endloop
  endfacet
  facet normal 0.748511 -0.663123 0
    outer loop
      vertex 3.54182 -1.85889 10
      vertex 2.27226 -3.29194 10
      vertex 3.54182 -1.85889 9
    endloop
  endfacet
  facet normal 0.970942 -0.239316 0
    outer loop
      vertex 3.54182 -1.85889 10
      vertex 3.54182 -1.85889 9
      vertex 4 0 9
    endloop
  endfacet
  facet normal 0.970942 -0.239316 0
    outer loop
      vertex 4 0 10
      vertex 3.54182 -1.85889 10
      vertex 4 0 9
    endloop
  endfacet
  facet normal 0.970942 0.239316 0
    outer loop
      vertex 4 0 9
      vertex 3.54182 1.85889 9
      vertex 3.54182 1.85889 10
    endloop
  endfacet
  facet normal 0.970942 0.239316 0
    outer loop
      vertex 4 0 10
      vertex 4 0 9
      vertex 3.54182 1.85889 10
    endloop
  endfacet
  facet normal 0.748511 0.663123 0
    outer loop
      vertex 3.54182 1.85889 9
      vertex 2.27226 3.29194 9
      vertex 2.27226 3.29194 10
    endloop
  endfacet
  facet normal 0.748511 0.663123 0
    outer loop
      vertex 3.54182 1.85889 10
      vertex 3.54182 1.85889 9
      vertex 2.27226 3.29194 10
    endloop
  endfacet
  facet normal 0.354605 0.935016 0
    outer loop
      vertex 0.482147 3.97083 9
      vertex 0.482147 3.97083 10
      vertex 2.27226 3.29194 9
    endloop
  endfacet
  facet normal 0.354605 0.935016 0
    outer loop
      vertex 2.27226 3.29194 9
      vertex 0.482147 3.97083 10
      vertex 2.27226 3.29194 10
    endloop
  endfacet
  facet normal -0.120536 0.992709 0
    outer loop
      vertex -1.41842 3.74006 9
      vertex -1.41842 3.74006 10
      vertex 0.482147 3.97083 9
    endloop
  endfacet
  facet normal -0.120536 0.992709 0
    outer loop
      vertex 0.482147 3.97083 9
      vertex -1.41842 3.74006 10
      vertex 0.482147 3.97083 10
    endloop
  endfacet
  facet normal -0.568065 0.822984 0
    outer loop
      vertex -2.99404 2.65249 9
      vertex -2.99404 2.65249 10
      vertex -1.41842 3.74006 9
    endloop
  endfacet
  facet normal -0.568065 0.822984 0
    outer loop
      vertex -1.41842 3.74006 9
      vertex -2.99404 2.65249 10
      vertex -1.41842 3.74006 10
    endloop
  endfacet
  facet normal -0.62349 -0.781831 0
    outer loop
      vertex -1.80194 -0.867767 9
      vertex -1.80194 -0.867767 5
      vertex -1.05516 -1.4633 5
    endloop
  endfacet
  facet normal -0.62349 -0.781831 0
    outer loop
      vertex -0.445042 -1.94986 5
      vertex -1.80194 -0.867767 9
      vertex -0.826757 -1.64545 5
    endloop
  endfacet
  facet normal -0.62349 -0.781831 0
    outer loop
      vertex -0.826757 -1.64545 5
      vertex -1.80194 -0.867767 9
      vertex -1.05516 -1.4633 5
    endloop
  endfacet
  facet normal -0.62349 -0.781831 0
    outer loop
      vertex -0.445042 -1.94986 9
      vertex -1.80194 -0.867767 9
      vertex -0.445042 -1.94986 5
    endloop
  endfacet
  facet normal -1 0 0
    outer loop
      vertex -1.80194 -0.867767 5
      vertex -1.80194 -0.867767 9
      vertex -1.80194 -0.169848 5
    endloop
  endfacet
  facet normal -1 0 0
    outer loop
      vertex -1.80194 -0.169848 5
      vertex -1.80194 -0.867767 9
      vertex -1.80194 0.867767 9
    endloop
  endfacet
  facet normal -1 0 0
    outer loop
      vertex -1.80194 0.169848 5
      vertex -1.80194 0.867767 9
      vertex -1.80194 0.867767 5
    endloop
  endfacet
  facet normal -1 0 0
    outer loop
      vertex -1.80194 -0.169848 5
      vertex -1.80194 0.867767 9
      vertex -1.80194 0.169848 5
    endloop
  endfacet
  facet normal -0.62349 0.781831 0
    outer loop
      vertex -1.80194 0.867767 5
      vertex -1.80194 0.867767 9
      vertex -1.05516 1.4633 5
    endloop
  endfacet
  facet normal -0.62349 0.781831 0
    outer loop
      vertex -1.05516 1.4633 5
      vertex -1.80194 0.867767 9
      vertex -0.445042 1.94986 9
    endloop
  endfacet
  facet normal -0.62349 0.781831 0
    outer loop
      vertex -0.826757 1.64545 5
      vertex -0.445042 1.94986 9
      vertex -0.445042 1.94986 5
    endloop
  endfacet
  facet normal -0.62349 0.781831 0
    outer loop
      vertex -1.05516 1.4633 5
      vertex -0.445042 1.94986 9
      vertex -0.826757 1.64545 5
    endloop
  endfacet
  facet normal 0.222521 0.974928 0
    outer loop
      vertex -0.445042 1.94986 5
      vertex -0.445042 1.94986 9
      vertex 0.888657 1.64545 5
    endloop
  endfacet
  facet normal 0.222521 0.974928 0
    outer loop
      vertex 0.888657 1.64545 5
      vertex -0.445042 1.94986 9
      vertex 1.24698 1.56366 9
    endloop
  endfacet
  facet normal 0.222521 0.974928 0
    outer loop
      vertex 0.959311 1.62932 5
      vertex 1.24698 1.56366 9
      vertex 1.24698 1.56366 5
    endloop
  endfacet
  facet normal 0.222521 0.974928 0
    outer loop
      vertex 0.888657 1.64545 5
      vertex 1.24698 1.56366 9
      vertex 0.959311 1.62932 5
    endloop
  endfacet
  facet normal 0.900969 0.433884 0
    outer loop
      vertex 2 0 5
      vertex 1.24698 1.56366 5
      vertex 1.24698 1.56366 9
    endloop
  endfacet
  facet normal 0.900969 0.433884 0
    outer loop
      vertex 2 0 9
      vertex 2 0 5
      vertex 1.24698 1.56366 9
    endloop
  endfacet
  facet normal 0.900969 -0.433884 0
    outer loop
      vertex 1.24698 -1.56366 9
      vertex 1.24698 -1.56366 5
      vertex 2 0 5
    endloop
  endfacet
  facet normal 0.900969 -0.433884 0
    outer loop
      vertex 2 0 9
      vertex 1.24698 -1.56366 9
      vertex 2 0 5
    endloop
  endfacet
  facet normal 0.222521 -0.974928 0
    outer loop
      vertex -0.445042 -1.94986 9
      vertex -0.445042 -1.94986 5
      vertex 0.888657 -1.64545 5
    endloop
  endfacet
  facet normal 0.222521 -0.974928 0
    outer loop
      vertex 1.24698 -1.56366 5
      vertex -0.445042 -1.94986 9
      vertex 0.959311 -1.62932 5
    endloop
  endfacet
  facet normal 0.222521 -0.974928 0
    outer loop
      vertex 0.959311 -1.62932 5
      vertex -0.445042 -1.94986 9
      vertex 0.888657 -1.64545 5
    endloop
  endfacet
  facet normal 0.222521 -0.974928 0
    outer loop
      vertex 1.24698 -1.56366 9
      vertex -0.445042 -1.94986 9
      vertex 1.24698 -1.56366 5
    endloop
  endfacet
  facet normal 0 0 1
    outer loop
      vertex -3.88377 0.957263 10
      vertex -3.88377 -0.957263 10
      vertex -2.99404 -2.65249 10
    endloop
  endfacet
  facet normal 0 0 1
    outer loop
      vertex 0.482147 -3.97083 10
      vertex -3.88377 0.957263 10
      vertex -1.41842 -3.74006 10
    endloop
  endfacet
  facet normal 0 0 1
    outer loop
      vertex -1.41842 -3.74006 10
      vertex -3.88377 0.957263 10
      vertex -2.99404 -2.65249 10
    endloop
  endfacet
  facet normal 0 0 1
    outer loop
      vertex -0.95 -1.64545 10
      vertex -3.88377 0.957263 10
      vertex 0.482147 -3.97083 10
    endloop
  endfacet
  facet normal 0 0 1
    outer loop
      vertex 1.9 0 10
      vertex 0.95 -1.64545 10
      vertex 3.54182 -1.85889 10
    endloop
  endfacet
  facet normal 0 0 1
    outer loop
      vertex 0.95 1.64545 10
      vertex 1.9 0 10
      vertex 4 0 10
    endloop
  endfacet
  facet normal 0 0 1
    outer loop
      vertex 0.482147 3.97083 10
      vertex -3.88377 0.957263 10
      vertex 2.27226 3.29194 10
    endloop
  endfacet
  facet normal 0 0 1
    outer loop
      vertex -1.41842 3.74006 10
      vertex -3.88377 0.957263 10
      vertex 0.482147 3.97083 10
    endloop
  endfacet
  facet normal 0 0 1
    outer loop
      vertex -2.99404 2.65249 10
      vertex -3.88377 0.957263 10
      vertex -1.41842 3.74006 10
    endloop
  endfacet
  facet normal 0 0 1
    outer loop
      vertex 2.27226 -3.29194 10
      vertex -0.95 -1.64545 10
      vertex 0.482147 -3.97083 10
    endloop
  endfacet
  facet normal 0 0 1
    outer loop
      vertex 0.95 1.64545 10
      vertex 4 0 10
      vertex 3.54182 1.85889 10
    endloop
  endfacet
  facet normal 0 0 1
    outer loop
      vertex 2.27226 3.29194 10
      vertex -0.95 1.64545 10
      vertex 3.54182 1.85889 10
    endloop
  endfacet
  facet normal 0 0 1
    outer loop
      vertex 2.27226 3.29194 10
      vertex -3.88377 0.957263 10
      vertex -0.95 1.64545 10
    endloop
  endfacet
  facet normal 0 0 1
    outer loop
      vertex -0.95 1.64545 10
      vertex 0.95 1.64545 10
      vertex 3.54182 1.85889 10
    endloop
  endfacet
  facet normal 0 0 1
    outer loop
      vertex 4 0 10
      vertex 1.9 0 10
      vertex 3.54182 -1.85889 10
    endloop
  endfacet
  facet normal 0 0 1
    outer loop
      vertex 3.54182 -1.85889 10
      vertex 0.95 -1.64545 10
      vertex 2.27226 -3.29194 10
    endloop
  endfacet
  facet normal 0 0 1
    outer loop
      vertex -0.95 -1.64545 10
      vertex -1.9 0 10
      vertex -3.88377 0.957263 10
    endloop
  endfacet
  facet normal 0 0 1
    outer loop
      vertex 0.95 -1.64545 10
      vertex -0.95 -1.64545 10
      vertex 2.27226 -3.29194 10
    endloop
  endfacet
  facet normal 0 0 1
    outer loop
      vertex -1.9 0 10
      vertex -0.95 1.64545 10
      vertex -3.88377 0.957263 10
    endloop
  endfacet
  facet normal 0 0 -1
    outer loop
      vertex 0.888657 -1.64545 5
      vertex -0.445042 -1.94986 5
      vertex -0.826757 -1.64545 5
    endloop
  endfacet
  facet normal 0 0 1
    outer loop
      vertex -0.826757 -1.64545 5
      vertex -1.05516 -1.4633 5
      vertex -0.95 -1.64545 5
    endloop
  endfacet
  facet normal 0 -1 0
    outer loop
      vertex -0.95 -1.64545 5
      vertex -0.95 -1.64545 0
      vertex 0.95 -1.64545 0
    endloop
  endfacet
  facet normal 0 -1 0
    outer loop
      vertex -0.826757 -1.64545 5
      vertex -0.95 -1.64545 5
      vertex 0.95 -1.64545 0
    endloop
  endfacet
  facet normal 0 -1 0
    outer loop
      vertex 0.95 -1.64545 5
      vertex 0.888657 -1.64545 5
      vertex 0.95 -1.64545 0
    endloop
  endfacet
  facet normal 0 -1 0
    outer loop
      vertex 0.888657 -1.64545 5
      vertex -0.826757 -1.64545 5
      vertex 0.95 -1.64545 0
    endloop
  endfacet
  facet normal 0 0 -1
    outer loop
      vertex -1.80194 -0.169848 5
      vertex -1.05516 -1.4633 5
      vertex -1.80194 -0.867767 5
    endloop
  endfacet
  facet normal -0.866025 -0.5 0
    outer loop
      vertex -1.9 0 0
      vertex -0.95 -1.64545 0
      vertex -1.9 0 5
    endloop
  endfacet
  facet normal -0.866025 -0.5 0
    outer loop
      vertex -1.05516 -1.4633 5
      vertex -0.95 -1.64545 0
      vertex -0.95 -1.64545 5
    endloop
  endfacet
  facet normal -0.866025 -0.5 0
    outer loop
      vertex -1.80194 -0.169848 5
      vertex -0.95 -1.64545 0
      vertex -1.05516 -1.4633 5
    endloop
  endfacet
  facet normal -0.866025 -0.5 0
    outer loop
      vertex -1.9 0 5
      vertex -0.95 -1.64545 0
      vertex -1.80194 -0.169848 5
    endloop
  endfacet
  facet normal 0 0 1
    outer loop
      vertex -1.80194 0.169848 5
      vertex -1.9 0 5
      vertex -1.80194 -0.169848 5
    endloop
  endfacet
  facet normal -0.866025 0.5 0
    outer loop
      vertex -1.9 0 0
      vertex -1.9 0 5
      vertex -0.95 1.64545 0
    endloop
  endfacet
  facet normal -0.866025 0.5 0
    outer loop
      vertex -0.95 1.64545 0
      vertex -1.9 0 5
      vertex -1.80194 0.169848 5
    endloop
  endfacet
  facet normal -0.866025 0.5 0
    outer loop
      vertex -0.95 1.64545 0
      vertex -1.80194 0.169848 5
      vertex -1.05516 1.4633 5
    endloop
  endfacet
  facet normal -0.866025 0.5 0
    outer loop
      vertex -0.95 1.64545 0
      vertex -1.05516 1.4633 5
      vertex -0.95 1.64545 5
    endloop
  endfacet
  facet normal 0 0 -1
    outer loop
      vertex -1.80194 0.867767 5
      vertex -1.05516 1.4633 5
      vertex -1.80194 0.169848 5
    endloop
  endfacet
  facet normal 0 0 1
    outer loop
      vertex -0.95 1.64545 5
      vertex -1.05516 1.4633 5
      vertex -0.826757 1.64545 5
    endloop
  endfacet
  facet normal 0 1 0
    outer loop
      vertex -0.95 1.64545 0
      vertex -0.95 1.64545 5
      vertex 0.95 1.64545 0
    endloop
  endfacet
  facet normal 0 1 0
    outer loop
      vertex 0.95 1.64545 0
      vertex -0.95 1.64545 5
      vertex -0.826757 1.64545 5
    endloop
  endfacet
  facet normal 0 1 0
    outer loop
      vertex 0.95 1.64545 0
      vertex -0.826757 1.64545 5
      vertex 0.888657 1.64545 5
    endloop
  endfacet
  facet normal 0 1 0
    outer loop
      vertex 0.95 1.64545 0
      vertex 0.888657 1.64545 5
      vertex 0.95 1.64545 5
    endloop
  endfacet
  facet normal 0 0 -1
    outer loop
      vertex -0.445042 1.94986 5
      vertex 0.888657 1.64545 5
      vertex -0.826757 1.64545 5
    endloop
  endfacet
  facet normal 0 0 1
    outer loop
      vertex 0.95 1.64545 5
      vertex 0.888657 1.64545 5
      vertex 0.959311 1.62932 5
    endloop
  endfacet
  facet normal 0.866025 0.5 0
    outer loop
      vertex 1.9 0 0
      vertex 0.95 1.64545 0
      vertex 0.95 1.64545 5
    endloop
  endfacet
  facet normal 0.866025 0.5 0
    outer loop
      vertex 1.9 0 5
      vertex 1.9 0 0
      vertex 0.959311 1.62932 5
    endloop
  endfacet
  facet normal 0.866025 0.5 0
    outer loop
      vertex 0.959311 1.62932 5
      vertex 1.9 0 0
      vertex 0.95 1.64545 5
    endloop
  endfacet
  facet normal 0 0 -1
    outer loop
      vertex 0.959311 1.62932 5
      vertex 1.24698 1.56366 5
      vertex 1.9 0 5
    endloop
  endfacet
  facet normal 0 0 -1
    outer loop
      vertex 1.9 0 5
      vertex 1.24698 1.56366 5
      vertex 2 0 5
    endloop
  endfacet
  facet normal 0 0 -1
    outer loop
      vertex 1.9 0 5
      vertex 2 0 5
      vertex 1.24698 -1.56366 5
    endloop
  endfacet
  facet normal 0 0 -1
    outer loop
      vertex 1.9 0 5
      vertex 1.24698 -1.56366 5
      vertex 0.959311 -1.62932 5
    endloop
  endfacet
  facet normal 0 0 1
    outer loop
      vertex 0.959311 -1.62932 5
      vertex 0.888657 -1.64545 5
      vertex 0.95 -1.64545 5
    endloop
  endfacet
  facet normal 0.866025 -0.5 0
    outer loop
      vertex 0.95 -1.64545 5
      vertex 0.95 -1.64545 0
      vertex 1.9 0 0
    endloop
  endfacet
  facet normal 0.866025 -0.5 0
    outer loop
      vertex 0.959311 -1.62932 5
      vertex 0.95 -1.64545 5
      vertex 1.9 0 0
    endloop
  endfacet
  facet normal 0.866025 -0.5 0
    outer loop
      vertex 1.9 0 5
      vertex 0.959311 -1.62932 5
      vertex 1.9 0 0
    endloop
  endfacet
  facet normal -0.866025 -0.5 0
    outer loop
      vertex -1.9 0 10
      vertex -0.95 -1.64545 10
      vertex -1.9 0 14
    endloop
  endfacet
  facet normal -0.866025 -0.5 0
    outer loop
      vertex -1.9 0 14
      vertex -0.95 -1.64545 10
      vertex -0.95 -1.64545 14
    endloop
  endfacet
  facet normal 0 -1 0
    outer loop
      vertex -0.95 -1.64545 14
      vertex -0.95 -1.64545 10
      vertex 0.95 -1.64545 10
    endloop
  endfacet
  facet normal 0 -1 0
    outer loop
      vertex 0.95 -1.64545 14
      vertex -0.95 -1.64545 14
      vertex 0.95 -1.64545 10
    endloop
  endfacet
  facet normal 0.866025 -0.5 0
    outer loop
      vertex 0.95 -1.64545 14
      vertex 0.95 -1.64545 10
      vertex 1.9 0 10
    endloop
  endfacet
  facet normal 0.866025 -0.5 0
    outer loop
      vertex 1.9 0 14
      vertex 0.95 -1.64545 14
      vertex 1.9 0 10
    endloop
  endfacet
  facet normal 0.866025 0.5 0
    outer loop
      vertex 1.9 0 10
      vertex 0.95 1.64545 10
      vertex 0.95 1.64545 14
    endloop
  endfacet
  facet normal 0.866025 0.5 0
    outer loop
      vertex 1.9 0 14
      vertex 1.9 0 10
      vertex 0.95 1.64545 14
    endloop
  endfacet
  facet normal 0 1 0
    outer loop
      vertex -0.95 1.64545 10
      vertex -0.95 1.64545 14
      vertex 0.95 1.64545 10
    endloop
  endfacet
  facet normal 0 1 0
    outer loop
      vertex 0.95 1.64545 10
      vertex -0.95 1.64545 14
      vertex 0.95 1.64545 14
    endloop
  endfacet
  facet normal -0.866025 0.5 0
    outer loop
      vertex -1.9 0 10
      vertex -1.9 0 14
      vertex -0.95 1.64545 10
    endloop
  endfacet
  facet normal -0.866025 0.5 0
    outer loop
      vertex -0.95 1.64545 10
      vertex -1.9 0 14
      vertex -0.95 1.64545 14
    endloop
  endfacet
  facet normal 0 0 -1
    outer loop
      vertex -1.9 0 0
      vertex -0.95 1.64545 0
      vertex -0.95 -1.64545 0
    endloop
  endfacet
  facet normal 0 0 -1
    outer loop
      vertex -0.95 -1.64545 0
      vertex -0.95 1.64545 0
      vertex 0.95 1.64545 0
    endloop
  endfacet
  facet normal 0 0 -1
    outer loop
      vertex -0.95 -1.64545 0
      vertex 0.95 1.64545 0
      vertex 1.9 0 0
    endloop
  endfacet
  facet normal 0 0 -1
    outer loop
      vertex -0.95 -1.64545 0
      vertex 1.9 0 0
      vertex 0.95 -1.64545 0
    endloop
  endfacet
  facet normal 0 0 1
    outer loop
      vertex -0.95 1.64545 14
      vertex -1.9 0 14
      vertex -0.95 -1.64545 14
    endloop
  endfacet
  facet normal 0 0 1
    outer loop
      vertex 1.9 0 14
      vertex -0.95 1.64545 14
      vertex 0.95 -1.64545 14
    endloop
  endfacet
  facet normal 0 0 1
    outer loop
      vertex 0.95 -1.64545 14
      vertex -0.95 1.64545 14
      vertex -0.95 -1.64545 14
    endloop
  endfacet
  facet normal 0 0 1
    outer loop
      vertex 0.95 1.64545 14
      vertex -0.95 1.64545 14
      vertex 1.9 0 14
    endloop
  endfacet
endsolid OpenSCAD_Model
