solid OpenSCAD_Model
  facet normal 0 0 -1
    outer loop
      vertex -1.3435 1.3435 0
      vertex 0 1.9 0
      vertex -1.9 0 0
    endloop
  endfacet
  facet normal 0 0 -1
    outer loop
      vertex -1.9 0 0
      vertex 0 1.9 0
      vertex 1.3435 1.3435 0
    endloop
  endfacet
  facet normal 0 0 -1
    outer loop
      vertex -1.9 0 0
      vertex 1.3435 1.3435 0
      vertex 1.9 0 0
    endloop
  endfacet
  facet normal 0 0 -1
    outer loop
      vertex -1.9 0 0
      vertex 1.9 0 0
      vertex 1.3435 -1.3435 0
    endloop
  endfacet
  facet normal 0 0 -1
    outer loop
      vertex -1.9 0 0
      vertex 1.3435 -1.3435 0
      vertex 0 -1.9 0
    endloop
  endfacet
  facet normal 0 0 -1
    outer loop
      vertex -1.9 0 0
      vertex 0 -1.9 0
      vertex -1.3435 -1.3435 0
    endloop
  endfacet
  facet normal 0.92388 0.382683 0
    outer loop
      vertex 1.3435 1.3435 0
      vertex 1.3435 1.3435 8
      vertex 1.9 0 8
    endloop
  endfacet
  facet normal 0.92388 0.382683 0
    outer loop
      vertex 1.9 0 0
      vertex 1.3435 1.3435 0
      vertex 1.9 0 8
    endloop
  endfacet
  facet normal 0.382683 0.92388 0
    outer loop
      vertex 0 1.9 8
      vertex 1.3435 1.3435 8
      vertex 0 1.9 0
    endloop
  endfacet
  facet normal 0.382683 0.92388 0
    outer loop
      vertex 0 1.9 0
      vertex 1.3435 1.3435 8
      vertex 1.3435 1.3435 0
    endloop
  endfacet
  facet normal -0.92388 0.382683 0
    outer loop
      vertex -1.9 0 8
      vertex -1.3435 1.3435 8
      vertex -1.9 0 0
    endloop
  endfacet
  facet normal -0.92388 0.382683 0
    outer loop
      vertex -1.9 0 0
      vertex -1.3435 1.3435 8
      vertex -1.3435 1.3435 0
    endloop
  endfacet
  facet normal -0.92388 -0.382683 0
    outer loop
      vertex -1.3435 -1.3435 0
      vertex -1.3435 -1.3435 8
      vertex -1.9 0 0
    endloop
  endfacet
  facet normal -0.92388 -0.382683 0
    outer loop
      vertex -1.9 0 0
      vertex -1.3435 -1.3435 8
      vertex -1.9 0 8
    endloop
  endfacet
  facet normal -0.382683 -0.92388 0
    outer loop
      vertex -1.3435 -1.3435 0
      vertex 0 -1.9 0
      vertex 0 -1.9 8
    endloop
  endfacet
  facet normal -0.382683 -0.92388 0
    outer loop
      vertex -1.3435 -1.3435 8
      vertex -1.3435 -1.3435 0
      vertex 0 -1.9 8
    endloop
  endfacet
  facet normal 0.382683 -0.92388 0
    outer loop
      vertex 0 -1.9 0
      vertex 1.3435 -1.3435 0
      vertex 1.3435 -1.3435 8
    endloop
  endfacet
  facet normal 0.382683 -0.92388 0
    outer loop
      vertex 0 -1.9 8
      vertex 0 -1.9 0
      vertex 1.3435 -1.3435 8
    endloop
  endfacet
  facet normal 0.92388 -0.382683 0
    outer loop
      vertex 1.3435 -1.3435 0
      vertex 1.9 0 0
      vertex 1.9 0 8
    endloop
  endfacet
  facet normal 0.92388 -0.382683 0
    outer loop
      vertex 1.3435 -1.3435 8
      vertex 1.3435 -1.3435 0
      vertex 1.9 0 8
    endloop
  endfacet
  facet normal -0.382683 0.92388 0
    outer loop
      vertex -1.3435 1.3435 8
      vertex 0 1.9 8
      vertex -1.3435 1.3435 0
    endloop
  endfacet
  facet normal -0.382683 0.92388 0
    outer loop
      vertex -1.3435 1.3435 0
      vertex 0 1.9 8
      vertex 0 1.9 0
    endloop
  endfacet
  facet normal 0 0 1
    outer loop
      vertex -1.9 0 8
      vertex -1.3435 -1.3435 8
      vertex 0 -1.9 8
    endloop
  endfacet
  facet normal 0 0 1
    outer loop
      vertex 1.9 0 8
      vertex -1.9 0 8
      vertex 1.3435 -1.3435 8
    endloop
  endfacet
  facet normal 0 0 1
    outer loop
      vertex 1.3435 -1.3435 8
      vertex -1.9 0 8
      vertex 0 -1.9 8
    endloop
  endfacet
  facet normal 0 0 1
    outer loop
      vertex 1.3435 1.3435 8
      vertex -1.9 0 8
      vertex 1.9 0 8
    endloop
  endfacet
  facet normal 0 0 1
    outer loop
      vertex 0 1.9 8
      vertex -1.9 0 8
      vertex 1.3435 1.3435 8
    endloop
  endfacet
  facet normal 0 0 1
    outer loop
      vertex -1.3435 1.3435 8
      vertex -1.9 0 8
      vertex 0 1.9 8
    endloop
  endfacet
endsolid OpenSCAD_Model
