solid OpenSCAD_Model
  facet normal 0 0 -1
    outer loop
      vertex 0 1.9 0
      vertex 1.9 0 0
      vertex -1.9 0 0
    endloop
  endfacet
  facet normal 0 0 -1
    outer loop
      vertex -1.9 0 0
      vertex 1.9 0 0
      vertex 0 -1.9 0
    endloop
  endfacet
  facet normal 0.707107 0.707107 0
    outer loop
      vertex 0 1.9 8
      vertex 1.9 0 8
      vertex 0 1.9 0
    endloop
  endfacet
  facet normal 0.707107 0.707107 0
    outer loop
      vertex 0 1.9 0
      vertex 1.9 0 8
      vertex 1.9 0 0
    endloop
  endfacet
  facet normal -0.707107 0.707107 0
    outer loop
      vertex -1.9 0 8
      vertex 0 1.9 8
      vertex -1.9 0 0
    endloop
  endfacet
  facet normal -0.707107 0.707107 0
    outer loop
      vertex -1.9 0 0
      vertex 0 1.9 8
      vertex 0 1.9 0
    endloop
  endfacet
  facet normal -0.707107 -0.707107 0
    outer loop
      vertex -1.9 0 0
      vertex 0 -1.9 0
      vertex 0 -1.9 8
    endloop
  endfacet
  facet normal -0.707107 -0.707107 0
    outer loop
      vertex -1.9 0 8
      vertex -1.9 0 0
      vertex 0 -1.9 8
    endloop
  endfacet
  facet normal 0.707107 -0.707107 0
    outer loop
      vertex 0 -1.9 0
      vertex 1.9 0 0
      vertex 1.9 0 8
    endloop
  endfacet
  facet normal 0.707107 -0.707107 0
    outer loop
      vertex 0 -1.9 8
      vertex 0 -1.9 0
      vertex 1.9 0 8
    endloop
  endfacet
  facet normal 0 0 1
    outer loop
      vertex -1.9 0 8
      vertex 0 -1.9 8
      vertex 1.9 0 8
    endloop
  endfacet
  facet normal 0 0 1
    outer loop
      vertex 0 1.9 8
      vertex -1.9 0 8
      vertex 1.9 0 8
    endloop
  endfacet
endsolid OpenSCAD_Model
