solid OpenSCAD_Model
  facet normal 0 0 -1
    outer loop
      vertex -1.8 0 5
      vertex -1.80194 0.867767 5
      vertex -0.9 1.55885 5
    endloop
  endfacet
  facet normal 0 0 -1
    outer loop
      vertex 1.8 0 5
      vertex 2 0 5
      vertex 1.24698 -1.56366 5
    endloop
  endfacet
  facet normal 0 0 -1
    outer loop
      vertex 0.9 -1.55885 5
      vertex 1.24698 -1.56366 5
      vertex -0.445042 -1.94986 5
    endloop
  endfacet
  facet normal 0 0 -1
    outer loop
      vertex -0.9 -1.55885 5
      vertex -0.445042 -1.94986 5
      vertex -1.80194 -0.867767 5
    endloop
  endfacet
  facet normal 0 0 -1
    outer loop
      vertex -1.8 0 5
      vertex -0.9 -1.55885 5
      vertex -1.80194 -0.867767 5
    endloop
  endfacet
  facet normal 0 0 -1
    outer loop
      vertex 0.9 1.55885 5
      vertex 2 0 5
      vertex 1.8 0 5
    endloop
  endfacet
  facet normal 0 0 -1
    outer loop
      vertex 1.8 0 5
      vertex 1.24698 -1.56366 5
      vertex 0.9 -1.55885 5
    endloop
  endfacet
  facet normal 0 0 -1
    outer loop
      vertex 0.9 1.55885 5
      vertex 1.24698 1.56366 5
      vertex 2 0 5
    endloop
  endfacet
  facet normal 0 0 -1
    outer loop
      vertex -0.445042 1.94986 5
      vertex 1.24698 1.56366 5
      vertex 0.9 1.55885 5
    endloop
  endfacet
  facet normal 0 0 -1
    outer loop
      vertex -0.445042 1.94986 5
      vertex 0.9 1.55885 5
      vertex -0.9 1.55885 5
    endloop
  endfacet
  facet normal 0 0 -1
    outer loop
      vertex -0.445042 1.94986 5
      vertex -0.9 1.55885 5
      vertex -1.80194 0.867767 5
    endloop
  endfacet
  facet normal 0 0 -1
    outer loop
      vertex -1.80194 0.867767 5
      vertex -1.8 0 5
      vertex -1.80194 -0.867767 5
    endloop
  endfacet
  facet normal 0 0 -1
    outer loop
      vertex 0.9 -1.55885 5
      vertex -0.445042 -1.94986 5
      vertex -0.9 -1.55885 5
    endloop
  endfacet
  facet normal -1 0 0
    outer loop
      vertex -1.80194 -0.867767 5
      vertex -1.80194 -0.867767 9
      vertex -1.80194 0.867767 5
    endloop
  endfacet
  facet normal -1 0 0
    outer loop
      vertex -1.80194 0.867767 5
      vertex -1.80194 -0.867767 9
      vertex -1.80194 0.867767 9
    endloop
  endfacet
  facet normal -0.62349 -0.781831 0
    outer loop
      vertex -1.80194 -0.867767 9
      vertex -1.80194 -0.867767 5
      vertex -0.445042 -1.94986 5
    endloop
  endfacet
  facet normal -0.62349 -0.781831 0
    outer loop
      vertex -0.445042 -1.94986 9
      vertex -1.80194 -0.867767 9
      vertex -0.445042 -1.94986 5
    endloop
  endfacet
  facet normal -0.62349 0.781831 0
    outer loop
      vertex -1.80194 0.867767 5
      vertex -1.80194 0.867767 9
      vertex -0.445042 1.94986 5
    endloop
  endfacet
  facet normal -0.62349 0.781831 0
    outer loop
      vertex -0.445042 1.94986 5
      vertex -1.80194 0.867767 9
      vertex -0.445042 1.94986 9
    endloop
  endfacet
  facet normal 0.222521 -0.974928 0
    outer loop
      vertex -0.445042 -1.94986 9
      vertex -0.445042 -1.94986 5
      vertex 1.24698 -1.56366 5
    endloop
  endfacet
  facet normal 0.222521 -0.974928 0
    outer loop
      vertex 1.24698 -1.56366 9
      vertex -0.445042 -1.94986 9
      vertex 1.24698 -1.56366 5
    endloop
  endfacet
  facet normal 0.900969 -0.433884 0
    outer loop
      vertex 1.24698 -1.56366 9
      vertex 1.24698 -1.56366 5
      vertex 2 0 5
    endloop
  endfacet
  facet normal 0.900969 -0.433884 0
    outer loop
      vertex 2 0 9
      vertex 1.24698 -1.56366 9
      vertex 2 0 5
    endloop
  endfacet
  facet normal 0.900969 0.433884 0
    outer loop
      vertex 2 0 5
      vertex 1.24698 1.56366 5
      vertex 1.24698 1.56366 9
    endloop
  endfacet
  facet normal 0.900969 0.433884 0
    outer loop
      vertex 2 0 9
      vertex 2 0 5
      vertex 1.24698 1.56366 9
    endloop
  endfacet
  facet normal 0.222521 0.974928 0
    outer loop
      vertex -0.445042 1.94986 5
      vertex -0.445042 1.94986 9
      vertex 1.24698 1.56366 5
    endloop
  endfacet
  facet normal 0.222521 0.974928 0
    outer loop
      vertex 1.24698 1.56366 5
      vertex -0.445042 1.94986 9
      vertex 1.24698 1.56366 9
    endloop
  endfacet
  facet normal 0 -1 0
    outer loop
      vertex -0.9 -1.55885 5
      vertex -0.9 -1.55885 0
      vertex 0.9 -1.55885 0
    endloop
  endfacet
  facet normal 0 -1 0
    outer loop
      vertex 0.9 -1.55885 5
      vertex -0.9 -1.55885 5
      vertex 0.9 -1.55885 0
    endloop
  endfacet
  facet normal -0.866025 -0.5 0
    outer loop
      vertex -1.8 0 0
      vertex -0.9 -1.55885 0
      vertex -1.8 0 5
    endloop
  endfacet
  facet normal -0.866025 -0.5 0
    outer loop
      vertex -1.8 0 5
      vertex -0.9 -1.55885 0
      vertex -0.9 -1.55885 5
    endloop
  endfacet
  facet normal -0.866025 0.5 0
    outer loop
      vertex -1.8 0 0
      vertex -1.8 0 5
      vertex -0.9 1.55885 0
    endloop
  endfacet
  facet normal -0.866025 0.5 0
    outer loop
      vertex -0.9 1.55885 0
      vertex -1.8 0 5
      vertex -0.9 1.55885 5
    endloop
  endfacet
  facet normal 0 1 0
    outer loop
      vertex -0.9 1.55885 0
      vertex -0.9 1.55885 5
      vertex 0.9 1.55885 0
    endloop
  endfacet
  facet normal 0 1 0
    outer loop
      vertex 0.9 1.55885 0
      vertex -0.9 1.55885 5
      vertex 0.9 1.55885 5
    endloop
  endfacet
  facet normal 0.866025 0.5 0
    outer loop
      vertex 1.8 0 0
      vertex 0.9 1.55885 0
      vertex 0.9 1.55885 5
    endloop
  endfacet
  facet normal 0.866025 0.5 0
    outer loop
      vertex 1.8 0 5
      vertex 1.8 0 0
      vertex 0.9 1.55885 5
    endloop
  endfacet
  facet normal 0.866025 -0.5 0
    outer loop
      vertex 0.9 -1.55885 5
      vertex 0.9 -1.55885 0
      vertex 1.8 0 0
    endloop
  endfacet
  facet normal 0.866025 -0.5 0
    outer loop
      vertex 1.8 0 5
      vertex 0.9 -1.55885 5
      vertex 1.8 0 0
    endloop
  endfacet
  facet normal 0 0 1
    outer loop
      vertex -0.9 -1.55885 9
      vertex -1.80194 -0.867767 9
      vertex -0.445042 -1.94986 9
    endloop
  endfacet
  facet normal 0 0 1
    outer loop
      vertex 1.8 0 9
      vertex 0.9 -1.55885 9
      vertex 1.24698 -1.56366 9
    endloop
  endfacet
  facet normal 0 0 1
    outer loop
      vertex 0.9 1.55885 9
      vertex 1.8 0 9
      vertex 2 0 9
    endloop
  endfacet
  facet normal 0 0 1
    outer loop
      vertex 0.9 1.55885 9
      vertex 2 0 9
      vertex 1.24698 1.56366 9
    endloop
  endfacet
  facet normal 0 0 1
    outer loop
      vertex -1.8 0 9
      vertex -1.80194 -0.867767 9
      vertex -0.9 -1.55885 9
    endloop
  endfacet
  facet normal 0 0 1
    outer loop
      vertex -1.80194 0.867767 9
      vertex -1.80194 -0.867767 9
      vertex -1.8 0 9
    endloop
  endfacet
  facet normal 0 0 1
    outer loop
      vertex -0.445042 1.94986 9
      vertex -0.9 1.55885 9
      vertex 1.24698 1.56366 9
    endloop
  endfacet
  facet normal 0 0 1
    outer loop
      vertex -0.445042 1.94986 9
      vertex -1.80194 0.867767 9
      vertex -0.9 1.55885 9
    endloop
  endfacet
  facet normal 0 0 1
    outer loop
      vertex -0.9 1.55885 9
      vertex 0.9 1.55885 9
      vertex 1.24698 1.56366 9
    endloop
  endfacet
  facet normal 0 0 1
    outer loop
      vertex 2 0 9
      vertex 1.8 0 9
      vertex 1.24698 -1.56366 9
    endloop
  endfacet
  facet normal 0 0 1
    outer loop
      vertex 1.24698 -1.56366 9
      vertex 0.9 -1.55885 9
      vertex -0.445042 -1.94986 9
    endloop
  endfacet
  facet normal 0 0 1
    outer loop
      vertex 0.9 -1.55885 9
      vertex -0.9 -1.55885 9
      vertex -0.445042 -1.94986 9
    endloop
  endfacet
  facet normal 0 0 1
    outer loop
      vertex -1.8 0 9
      vertex -0.9 1.55885 9
      vertex -1.80194 0.867767 9
    endloop
  endfacet
  facet normal 0 0 -1
    outer loop
      vertex -1.8 0 0
      vertex -0.9 1.55885 0
      vertex -0.9 -1.55885 0
    endloop
  endfacet
  facet normal 0 0 -1
    outer loop
      vertex -0.9 -1.55885 0
      vertex -0.9 1.55885 0
      vertex 0.9 1.55885 0
    endloop
  endfacet
  facet normal 0 0 -1
    outer loop
      vertex -0.9 -1.55885 0
      vertex 0.9 1.55885 0
      vertex 1.8 0 0
    endloop
  endfacet
  facet normal 0 0 -1
    outer loop
      vertex -0.9 -1.55885 0
      vertex 1.8 0 0
      vertex 0.9 -1.55885 0
    endloop
  endfacet
  facet normal -0.866025 -0.5 0
    outer loop
      vertex -1.8 0 9
      vertex -0.9 -1.55885 9
      vertex -1.8 0 13
    endloop
  endfacet
  facet normal -0.866025 -0.5 0
    outer loop
      vertex -1.8 0 13
      vertex -0.9 -1.55885 9
      vertex -0.9 -1.55885 13
    endloop
  endfacet
  facet normal 0 -1 0
    outer loop
      vertex -0.9 -1.55885 13
      vertex -0.9 -1.55885 9
      vertex 0.9 -1.55885 9
    endloop
  endfacet
  facet normal 0 -1 0
    outer loop
      vertex 0.9 -1.55885 13
      vertex -0.9 -1.55885 13
      vertex 0.9 -1.55885 9
    endloop
  endfacet
  facet normal 0.866025 -0.5 0
    outer loop
      vertex 0.9 -1.55885 13
      vertex 0.9 -1.55885 9
      vertex 1.8 0 9
    endloop
  endfacet
  facet normal 0.866025 -0.5 0
    outer loop
      vertex 1.8 0 13
      vertex 0.9 -1.55885 13
      vertex 1.8 0 9
    endloop
  endfacet
  facet normal 0.866025 0.5 0
    outer loop
      vertex 1.8 0 9
      vertex 0.9 1.55885 9
      vertex 0.9 1.55885 13
    endloop
  endfacet
  facet normal 0.866025 0.5 0
    outer loop
      vertex 1.8 0 13
      vertex 1.8 0 9
      vertex 0.9 1.55885 13
    endloop
  endfacet
  facet normal 0 1 0
    outer loop
      vertex -0.9 1.55885 9
      vertex -0.9 1.55885 13
      vertex 0.9 1.55885 9
    endloop
  endfacet
  facet normal 0 1 0
    outer loop
      vertex 0.9 1.55885 9
      vertex -0.9 1.55885 13
      vertex 0.9 1.55885 13
    endloop
  endfacet
  facet normal -0.866025 0.5 0
    outer loop
      vertex -1.8 0 9
      vertex -1.8 0 13
      vertex -0.9 1.55885 9
    endloop
  endfacet
  facet normal -0.866025 0.5 0
    outer loop
      vertex -0.9 1.55885 9
      vertex -1.8 0 13
      vertex -0.9 1.55885 13
    endloop
  endfacet
  facet normal 0 0 1
    outer loop
      vertex -0.9 1.55885 13
      vertex -1.8 0 13
      vertex -0.9 -1.55885 13
    endloop
  endfacet
  facet normal 0 0 1
    outer loop
      vertex 1.8 0 13
      vertex -0.9 1.55885 13
      vertex 0.9 -1.55885 13
    endloop
  endfacet
  facet normal 0 0 1
    outer loop
      vertex 0.9 -1.55885 13
      vertex -0.9 1.55885 13
      vertex -0.9 -1.55885 13
    endloop
  endfacet
  facet normal 0 0 1
    outer loop
      vertex 0.9 1.55885 13
      vertex -0.9 1.55885 13
      vertex 1.8 0 13
    endloop
  endfacet
endsolid OpenSCAD_Model
