solid OpenSCAD_Model
  facet normal 0 0 -1
    outer loop
      vertex -6 0 -4
      vertex -5.95269 0.751999 -4
      vertex -5.95269 -0.751999 -4
    endloop
  endfacet
  facet normal 0 0 -1
    outer loop
      vertex -5.95269 -0.751999 -4
      vertex -5.95269 0.751999 -4
      vertex -5.8115 1.49214 -4
    endloop
  endfacet
  facet normal 0 0 -1
    outer loop
      vertex -5.95269 -0.751999 -4
      vertex -5.8115 1.49214 -4
      vertex -5.57866 2.20875 -4
    endloop
  endfacet
  facet normal 0 0 -1
    outer loop
      vertex -5.95269 -0.751999 -4
      vertex -5.57866 2.20875 -4
      vertex -5.25784 2.89052 -4
    endloop
  endfacet
  facet normal 0 0 -1
    outer loop
      vertex -5.95269 -0.751999 -4
      vertex -5.25784 2.89052 -4
      vertex -4.8541 3.52671 -4
    endloop
  endfacet
  facet normal 0 0 -1
    outer loop
      vertex -5.95269 -0.751999 -4
      vertex -4.8541 3.52671 -4
      vertex -4.37381 4.10728 -4
    endloop
  endfacet
  facet normal 0 0 -1
    outer loop
      vertex -5.95269 -0.751999 -4
      vertex -4.37381 4.10728 -4
      vertex -3.82454 4.62308 -4
    endloop
  endfacet
  facet normal 0 0 -1
    outer loop
      vertex -5.95269 -0.751999 -4
      vertex -3.82454 4.62308 -4
      vertex -3.21496 5.06597 -4
    endloop
  endfacet
  facet normal 0 0 -1
    outer loop
      vertex -5.95269 -0.751999 -4
      vertex -3.21496 5.06597 -4
      vertex -2.55468 5.42896 -4
    endloop
  endfacet
  facet normal 0 0 -1
    outer loop
      vertex -5.95269 -0.751999 -4
      vertex -2.55468 5.42896 -4
      vertex -1.8541 5.70634 -4
    endloop
  endfacet
  facet normal 0 0 -1
    outer loop
      vertex -5.95269 -0.751999 -4
      vertex -1.8541 5.70634 -4
      vertex -1.12429 5.89372 -4
    endloop
  endfacet
  facet normal 0 0 -1
    outer loop
      vertex -5.95269 -0.751999 -4
      vertex -1.12429 5.89372 -4
      vertex -0.376743 5.98816 -4
    endloop
  endfacet
  facet normal 0 0 -1
    outer loop
      vertex -5.95269 -0.751999 -4
      vertex -0.376743 5.98816 -4
      vertex 0.376743 5.98816 -4
    endloop
  endfacet
  facet normal 0 0 -1
    outer loop
      vertex -5.95269 -0.751999 -4
      vertex 0.376743 5.98816 -4
      vertex 1.12429 5.89372 -4
    endloop
  endfacet
  facet normal 0 0 -1
    outer loop
      vertex -5.95269 -0.751999 -4
      vertex 1.12429 5.89372 -4
      vertex 1.8541 5.70634 -4
    endloop
  endfacet
  facet normal 0 0 -1
    outer loop
      vertex -1.32933 2.91082 -4
      vertex 1.8541 5.70634 -4
      vertex 2.55468 5.42896 -4
    endloop
  endfacet
  facet normal 0 0 -1
    outer loop
      vertex -0.455407 3.16743 -4
      vertex 2.55468 5.42896 -4
      vertex 3.21496 5.06597 -4
    endloop
  endfacet
  facet normal 0 0 -1
    outer loop
      vertex 0.455407 3.16743 -4
      vertex 3.21496 5.06597 -4
      vertex 3.82454 4.62308 -4
    endloop
  endfacet
  facet normal 0 0 -1
    outer loop
      vertex 1.32933 2.91082 -4
      vertex 3.82454 4.62308 -4
      vertex 4.37381 4.10728 -4
    endloop
  endfacet
  facet normal 0 0 -1
    outer loop
      vertex 1.50057 2.21247 -4
      vertex 4.37381 4.10728 -4
      vertex 4.8541 3.52671 -4
    endloop
  endfacet
  facet normal 0 0 -1
    outer loop
      vertex 2.09555 2.4184 -4
      vertex 4.8541 3.52671 -4
      vertex 5.25784 2.89052 -4
    endloop
  endfacet
  facet normal 0 0 -1
    outer loop
      vertex 2.69201 1.73005 -4
      vertex 5.25784 2.89052 -4
      vertex 5.57866 2.20875 -4
    endloop
  endfacet
  facet normal 0 0 -1
    outer loop
      vertex 2.45851 1.04998 -4
      vertex 5.57866 2.20875 -4
      vertex 5.8115 1.49214 -4
    endloop
  endfacet
  facet normal 0 0 -1
    outer loop
      vertex 2.63589 0.44587 -4
      vertex 5.8115 1.49214 -4
      vertex 5.95269 0.751999 -4
    endloop
  endfacet
  facet normal 0 0 -1
    outer loop
      vertex 3.2 -7.83748e-016 -4
      vertex 5.95269 0.751999 -4
      vertex 6 0 -4
    endloop
  endfacet
  facet normal 0 0 -1
    outer loop
      vertex 2.63589 -0.44587 -4
      vertex 6 0 -4
      vertex 5.95269 -0.751999 -4
    endloop
  endfacet
  facet normal 0 0 -1
    outer loop
      vertex 2.40351 -1.17043 -4
      vertex 5.95269 -0.751999 -4
      vertex 5.8115 -1.49214 -4
    endloop
  endfacet
  facet normal 0 0 -1
    outer loop
      vertex 2.69201 -1.73005 -4
      vertex 5.8115 -1.49214 -4
      vertex 5.57866 -2.20875 -4
    endloop
  endfacet
  facet normal 0 0 -1
    outer loop
      vertex 1.9764 -1.80016 -4
      vertex 5.57866 -2.20875 -4
      vertex 5.25784 -2.89052 -4
    endloop
  endfacet
  facet normal 0 0 -1
    outer loop
      vertex 2.09555 -2.4184 -4
      vertex 5.25784 -2.89052 -4
      vertex 4.8541 -3.52671 -4
    endloop
  endfacet
  facet normal 0 0 -1
    outer loop
      vertex 1.38918 -2.28406 -4
      vertex 4.37381 -4.10728 -4
      vertex 1.32933 -2.91082 -4
    endloop
  endfacet
  facet normal 0 0 -1
    outer loop
      vertex -0.455407 -3.16743 -4
      vertex 3.82454 -4.62308 -4
      vertex 3.21496 -5.06597 -4
    endloop
  endfacet
  facet normal 0 0 -1
    outer loop
      vertex -5.95269 -0.751999 -4
      vertex 3.21496 -5.06597 -4
      vertex 2.55468 -5.42896 -4
    endloop
  endfacet
  facet normal 0 0 -1
    outer loop
      vertex -5.95269 -0.751999 -4
      vertex 2.55468 -5.42896 -4
      vertex 1.8541 -5.70634 -4
    endloop
  endfacet
  facet normal 0 0 -1
    outer loop
      vertex -5.95269 -0.751999 -4
      vertex 1.8541 -5.70634 -4
      vertex 1.12429 -5.89372 -4
    endloop
  endfacet
  facet normal 0 0 -1
    outer loop
      vertex -5.95269 -0.751999 -4
      vertex 1.12429 -5.89372 -4
      vertex 0.376743 -5.98816 -4
    endloop
  endfacet
  facet normal 0 0 -1
    outer loop
      vertex -5.95269 -0.751999 -4
      vertex 0.376743 -5.98816 -4
      vertex -0.376743 -5.98816 -4
    endloop
  endfacet
  facet normal 0 0 -1
    outer loop
      vertex -5.95269 -0.751999 -4
      vertex -0.376743 -5.98816 -4
      vertex -1.12429 -5.89372 -4
    endloop
  endfacet
  facet normal 0 0 -1
    outer loop
      vertex -5.95269 -0.751999 -4
      vertex -1.12429 -5.89372 -4
      vertex -1.8541 -5.70634 -4
    endloop
  endfacet
  facet normal 0 0 -1
    outer loop
      vertex -5.95269 -0.751999 -4
      vertex -1.8541 -5.70634 -4
      vertex -2.55468 -5.42896 -4
    endloop
  endfacet
  facet normal 0 0 -1
    outer loop
      vertex -5.95269 -0.751999 -4
      vertex -2.55468 -5.42896 -4
      vertex -3.21496 -5.06597 -4
    endloop
  endfacet
  facet normal 0 0 -1
    outer loop
      vertex -5.95269 -0.751999 -4
      vertex -3.21496 -5.06597 -4
      vertex -3.82454 -4.62308 -4
    endloop
  endfacet
  facet normal 0 0 -1
    outer loop
      vertex -5.95269 -0.751999 -4
      vertex -3.82454 -4.62308 -4
      vertex -4.37381 -4.10728 -4
    endloop
  endfacet
  facet normal 0 0 -1
    outer loop
      vertex -5.95269 -0.751999 -4
      vertex -4.37381 -4.10728 -4
      vertex -4.8541 -3.52671 -4
    endloop
  endfacet
  facet normal 0 0 -1
    outer loop
      vertex -5.95269 -0.751999 -4
      vertex -4.8541 -3.52671 -4
      vertex -5.25784 -2.89052 -4
    endloop
  endfacet
  facet normal 0 0 -1
    outer loop
      vertex -5.95269 -0.751999 -4
      vertex -5.25784 -2.89052 -4
      vertex -5.57866 -2.20875 -4
    endloop
  endfacet
  facet normal 0 0 -1
    outer loop
      vertex -5.95269 -0.751999 -4
      vertex -5.57866 -2.20875 -4
      vertex -5.8115 -1.49214 -4
    endloop
  endfacet
  facet normal 0 0 -1
    outer loop
      vertex 2.09555 2.4184 -4
      vertex 5.25784 2.89052 -4
      vertex 1.9764 1.80016 -4
    endloop
  endfacet
  facet normal 0 0 -1
    outer loop
      vertex -2.63589 -0.44587 -4
      vertex -5.95269 -0.751999 -4
      vertex -2.65474 -0.314808 -4
    endloop
  endfacet
  facet normal 0 0 -1
    outer loop
      vertex 2.63589 0.44587 -4
      vertex 5.95269 0.751999 -4
      vertex 2.65474 0.314808 -4
    endloop
  endfacet
  facet normal 0 0 -1
    outer loop
      vertex -2.45851 -1.04998 -4
      vertex -5.95269 -0.751999 -4
      vertex -3.07038 -0.901544 -4
    endloop
  endfacet
  facet normal 0 0 -1
    outer loop
      vertex -2.69201 -1.73005 -4
      vertex -5.95269 -0.751999 -4
      vertex -2.40351 -1.17043 -4
    endloop
  endfacet
  facet normal 0 0 -1
    outer loop
      vertex -5.95269 -0.751999 -4
      vertex -2.45851 -1.04998 -4
      vertex -2.40351 -1.17043 -4
    endloop
  endfacet
  facet normal 0 0 -1
    outer loop
      vertex 0.689412 -2.58291 -4
      vertex 3.82454 -4.62308 -4
      vertex 0.455407 -3.16743 -4
    endloop
  endfacet
  facet normal 0 0 -1
    outer loop
      vertex 2.09555 -2.4184 -4
      vertex 1.38918 -2.28406 -4
      vertex 1.50057 -2.21247 -4
    endloop
  endfacet
  facet normal 0 0 -1
    outer loop
      vertex -2.09555 -2.4184 -4
      vertex -2.69201 -1.73005 -4
      vertex -1.9764 -1.80016 -4
    endloop
  endfacet
  facet normal 0 0 -1
    outer loop
      vertex -2.09555 -2.4184 -4
      vertex -5.95269 -0.751999 -4
      vertex -2.69201 -1.73005 -4
    endloop
  endfacet
  facet normal 0 0 -1
    outer loop
      vertex -1.32933 -2.91082 -4
      vertex -2.09555 -2.4184 -4
      vertex -1.38918 -2.28406 -4
    endloop
  endfacet
  facet normal 0 0 -1
    outer loop
      vertex 0.689412 -2.58291 -4
      vertex 1.32933 -2.91082 -4
      vertex 3.82454 -4.62308 -4
    endloop
  endfacet
  facet normal 0 0 -1
    outer loop
      vertex 0.455407 -3.16743 -4
      vertex -0.0662052 -2.67252 -4
      vertex 0.0662052 -2.67252 -4
    endloop
  endfacet
  facet normal 0 0 -1
    outer loop
      vertex -5.95269 -0.751999 -4
      vertex -2.09555 -2.4184 -4
      vertex -1.32933 -2.91082 -4
    endloop
  endfacet
  facet normal 0 0 -1
    outer loop
      vertex -5.95269 -0.751999 -4
      vertex -1.32933 -2.91082 -4
      vertex 3.21496 -5.06597 -4
    endloop
  endfacet
  facet normal 0 0 -1
    outer loop
      vertex -0.455407 -3.16743 -4
      vertex 3.21496 -5.06597 -4
      vertex -1.32933 -2.91082 -4
    endloop
  endfacet
  facet normal 0 0 -1
    outer loop
      vertex 1.32933 -2.91082 -4
      vertex 4.37381 -4.10728 -4
      vertex 3.82454 -4.62308 -4
    endloop
  endfacet
  facet normal 0 0 -1
    outer loop
      vertex -0.455407 -3.16743 -4
      vertex -0.816459 -2.54561 -4
      vertex -0.689412 -2.58291 -4
    endloop
  endfacet
  facet normal 0 0 -1
    outer loop
      vertex -0.816459 -2.54561 -4
      vertex -0.455407 -3.16743 -4
      vertex -1.32933 -2.91082 -4
    endloop
  endfacet
  facet normal 0 0 -1
    outer loop
      vertex 0.455407 -3.16743 -4
      vertex 3.82454 -4.62308 -4
      vertex -0.455407 -3.16743 -4
    endloop
  endfacet
  facet normal 0 0 -1
    outer loop
      vertex 1.38918 -2.28406 -4
      vertex 4.8541 -3.52671 -4
      vertex 4.37381 -4.10728 -4
    endloop
  endfacet
  facet normal 0 0 -1
    outer loop
      vertex 1.32933 -2.91082 -4
      vertex 0.689412 -2.58291 -4
      vertex 0.816459 -2.54561 -4
    endloop
  endfacet
  facet normal 0 0 -1
    outer loop
      vertex 1.9764 -1.80016 -4
      vertex 5.25784 -2.89052 -4
      vertex 2.09555 -2.4184 -4
    endloop
  endfacet
  facet normal 0 0 -1
    outer loop
      vertex 1.38918 -2.28406 -4
      vertex 2.09555 -2.4184 -4
      vertex 4.8541 -3.52671 -4
    endloop
  endfacet
  facet normal 0 0 -1
    outer loop
      vertex -3.07038 0.901544 -4
      vertex -2.40351 1.17043 -4
      vertex -2.45851 1.04998 -4
    endloop
  endfacet
  facet normal 0 0 -1
    outer loop
      vertex 2.40351 -1.17043 -4
      vertex 5.8115 -1.49214 -4
      vertex 2.69201 -1.73005 -4
    endloop
  endfacet
  facet normal 0 0 -1
    outer loop
      vertex 2.06311 -1.70009 -4
      vertex 2.69201 -1.73005 -4
      vertex 5.57866 -2.20875 -4
    endloop
  endfacet
  facet normal 0 0 -1
    outer loop
      vertex 2.45851 -1.04998 -4
      vertex 5.95269 -0.751999 -4
      vertex 2.40351 -1.17043 -4
    endloop
  endfacet
  facet normal 0 0 -1
    outer loop
      vertex 2.63589 -0.44587 -4
      vertex 5.95269 -0.751999 -4
      vertex 3.07038 -0.901544 -4
    endloop
  endfacet
  facet normal 0 0 -1
    outer loop
      vertex 3.07038 -0.901544 -4
      vertex 5.95269 -0.751999 -4
      vertex 2.45851 -1.04998 -4
    endloop
  endfacet
  facet normal 0 0 -1
    outer loop
      vertex 2.65474 -0.314808 -4
      vertex 6 0 -4
      vertex 2.63589 -0.44587 -4
    endloop
  endfacet
  facet normal 0 0 -1
    outer loop
      vertex 2.06311 -1.70009 -4
      vertex 5.57866 -2.20875 -4
      vertex 1.9764 -1.80016 -4
    endloop
  endfacet
  facet normal 0 0 -1
    outer loop
      vertex 3.2 -3.91874e-016 -4
      vertex 5.95269 0.751999 -4
      vertex 3.2 -7.83748e-016 -4
    endloop
  endfacet
  facet normal 0 0 -1
    outer loop
      vertex 2.65474 0.314808 -4
      vertex 5.95269 0.751999 -4
      vertex 3.2 0 -4
    endloop
  endfacet
  facet normal 0 0 -1
    outer loop
      vertex 3.2 0 -4
      vertex 5.95269 0.751999 -4
      vertex 3.2 -3.91874e-016 -4
    endloop
  endfacet
  facet normal 0 0 -1
    outer loop
      vertex -3.07038 -0.901544 -4
      vertex -5.95269 -0.751999 -4
      vertex -2.63589 -0.44587 -4
    endloop
  endfacet
  facet normal 0 0 -1
    outer loop
      vertex 3.07038 0.901544 -4
      vertex 5.8115 1.49214 -4
      vertex 2.63589 0.44587 -4
    endloop
  endfacet
  facet normal 0 0 -1
    outer loop
      vertex 2.45851 1.04998 -4
      vertex 5.8115 1.49214 -4
      vertex 3.07038 0.901544 -4
    endloop
  endfacet
  facet normal 0 0 -1
    outer loop
      vertex 2.40351 1.17043 -4
      vertex 5.57866 2.20875 -4
      vertex 2.45851 1.04998 -4
    endloop
  endfacet
  facet normal 0 0 -1
    outer loop
      vertex 3.2 -7.83748e-016 -4
      vertex 6 0 -4
      vertex 2.65474 -0.314808 -4
    endloop
  endfacet
  facet normal 0 0 -1
    outer loop
      vertex 2.06311 1.70009 -4
      vertex 5.25784 2.89052 -4
      vertex 2.69201 1.73005 -4
    endloop
  endfacet
  facet normal 0 0 -1
    outer loop
      vertex 1.9764 1.80016 -4
      vertex 5.25784 2.89052 -4
      vertex 2.06311 1.70009 -4
    endloop
  endfacet
  facet normal 0 0 -1
    outer loop
      vertex -2.65474 0.314808 -4
      vertex -5.95269 -0.751999 -4
      vertex -2.63589 0.44587 -4
    endloop
  endfacet
  facet normal 0 0 -1
    outer loop
      vertex -2.65474 -0.314808 -4
      vertex -5.95269 -0.751999 -4
      vertex -3.2 3.91874e-016 -4
    endloop
  endfacet
  facet normal 0 0 -1
    outer loop
      vertex 1.50057 2.21247 -4
      vertex 4.8541 3.52671 -4
      vertex 2.09555 2.4184 -4
    endloop
  endfacet
  facet normal 0 0 -1
    outer loop
      vertex 1.38918 2.28406 -4
      vertex 4.37381 4.10728 -4
      vertex 1.50057 2.21247 -4
    endloop
  endfacet
  facet normal 0 0 -1
    outer loop
      vertex 1.32933 2.91082 -4
      vertex 4.37381 4.10728 -4
      vertex 1.38918 2.28406 -4
    endloop
  endfacet
  facet normal 0 0 -1
    outer loop
      vertex 0.455407 3.16743 -4
      vertex 3.82454 4.62308 -4
      vertex 1.32933 2.91082 -4
    endloop
  endfacet
  facet normal 0 0 -1
    outer loop
      vertex 0.689412 2.58291 -4
      vertex 1.32933 2.91082 -4
      vertex 0.816459 2.54561 -4
    endloop
  endfacet
  facet normal 0 0 -1
    outer loop
      vertex 0.455407 3.16743 -4
      vertex 1.32933 2.91082 -4
      vertex 0.689412 2.58291 -4
    endloop
  endfacet
  facet normal 0 0 -1
    outer loop
      vertex -0.689412 2.58291 -4
      vertex -0.816459 2.54561 -4
      vertex -0.455407 3.16743 -4
    endloop
  endfacet
  facet normal 0 0 -1
    outer loop
      vertex -2.09555 2.4184 -4
      vertex -1.32933 2.91082 -4
      vertex -1.38918 2.28406 -4
    endloop
  endfacet
  facet normal 0 0 -1
    outer loop
      vertex -0.455407 3.16743 -4
      vertex 3.21496 5.06597 -4
      vertex 0.455407 3.16743 -4
    endloop
  endfacet
  facet normal 0 0 -1
    outer loop
      vertex -0.0662052 2.67252 -4
      vertex 0.455407 3.16743 -4
      vertex 0.0662052 2.67252 -4
    endloop
  endfacet
  facet normal 0 0 -1
    outer loop
      vertex -0.455407 3.16743 -4
      vertex 0.455407 3.16743 -4
      vertex -0.0662052 2.67252 -4
    endloop
  endfacet
  facet normal 0 0 -1
    outer loop
      vertex -2.69201 1.73005 -4
      vertex -5.95269 -0.751999 -4
      vertex -2.09555 2.4184 -4
    endloop
  endfacet
  facet normal 0 0 -1
    outer loop
      vertex -1.32933 2.91082 -4
      vertex 2.55468 5.42896 -4
      vertex -0.455407 3.16743 -4
    endloop
  endfacet
  facet normal 0 0 -1
    outer loop
      vertex -2.09555 2.4184 -4
      vertex -1.38918 2.28406 -4
      vertex -1.50057 2.21247 -4
    endloop
  endfacet
  facet normal 0 0 -1
    outer loop
      vertex -1.32933 2.91082 -4
      vertex -0.455407 3.16743 -4
      vertex -0.816459 2.54561 -4
    endloop
  endfacet
  facet normal 0 0 -1
    outer loop
      vertex -2.09555 2.4184 -4
      vertex 1.8541 5.70634 -4
      vertex -1.32933 2.91082 -4
    endloop
  endfacet
  facet normal 0 0 -1
    outer loop
      vertex -2.40351 1.17043 -4
      vertex -3.07038 0.901544 -4
      vertex -2.69201 1.73005 -4
    endloop
  endfacet
  facet normal 0 0 -1
    outer loop
      vertex -5.95269 -0.751999 -4
      vertex 1.8541 5.70634 -4
      vertex -2.09555 2.4184 -4
    endloop
  endfacet
  facet normal 0 0 -1
    outer loop
      vertex -2.63589 0.44587 -4
      vertex -5.95269 -0.751999 -4
      vertex -3.07038 0.901544 -4
    endloop
  endfacet
  facet normal 0 0 -1
    outer loop
      vertex -3.07038 0.901544 -4
      vertex -5.95269 -0.751999 -4
      vertex -2.69201 1.73005 -4
    endloop
  endfacet
  facet normal 0 0 -1
    outer loop
      vertex -2.69201 1.73005 -4
      vertex -1.9764 1.80016 -4
      vertex -2.06311 1.70009 -4
    endloop
  endfacet
  facet normal 0 0 -1
    outer loop
      vertex -1.9764 1.80016 -4
      vertex -2.69201 1.73005 -4
      vertex -2.09555 2.4184 -4
    endloop
  endfacet
  facet normal 0 0 -1
    outer loop
      vertex -3.2 3.91874e-016 -4
      vertex -5.95269 -0.751999 -4
      vertex -2.65474 0.314808 -4
    endloop
  endfacet
  facet normal 0 0 -1
    outer loop
      vertex 2.69201 1.73005 -4
      vertex 5.57866 2.20875 -4
      vertex 2.40351 1.17043 -4
    endloop
  endfacet
  facet normal 0 0 -1
    outer loop
      vertex -2.06311 -1.70009 -4
      vertex -1.9764 -1.80016 -4
      vertex -2.69201 -1.73005 -4
    endloop
  endfacet
  facet normal 0 0 -1
    outer loop
      vertex -0.0662052 -2.67252 -4
      vertex 0.455407 -3.16743 -4
      vertex -0.455407 -3.16743 -4
    endloop
  endfacet
  facet normal 0 0 -1
    outer loop
      vertex -1.50057 -2.21247 -4
      vertex -1.38918 -2.28406 -4
      vertex -2.09555 -2.4184 -4
    endloop
  endfacet
  facet normal -0.998027 0.0627908 0
    outer loop
      vertex -6 0 -4
      vertex -6 0 5
      vertex -5.95269 0.751999 -4
    endloop
  endfacet
  facet normal -0.998027 0.0627908 0
    outer loop
      vertex -5.95269 0.751999 -4
      vertex -6 0 5
      vertex -5.95269 0.751999 5
    endloop
  endfacet
  facet normal -0.998027 -0.0627908 0
    outer loop
      vertex -6 0 -4
      vertex -5.95269 -0.751999 -4
      vertex -6 0 5
    endloop
  endfacet
  facet normal -0.998027 -0.0627908 0
    outer loop
      vertex -6 0 5
      vertex -5.95269 -0.751999 -4
      vertex -5.95269 -0.751999 5
    endloop
  endfacet
  facet normal -0.982287 -0.187381 0
    outer loop
      vertex -5.95269 -0.751999 -4
      vertex -5.8115 -1.49214 -4
      vertex -5.95269 -0.751999 5
    endloop
  endfacet
  facet normal -0.982287 -0.187381 0
    outer loop
      vertex -5.95269 -0.751999 5
      vertex -5.8115 -1.49214 -4
      vertex -5.8115 -1.49214 5
    endloop
  endfacet
  facet normal -0.951057 -0.309017 0
    outer loop
      vertex -5.8115 -1.49214 -4
      vertex -5.57866 -2.20875 -4
      vertex -5.8115 -1.49214 5
    endloop
  endfacet
  facet normal -0.951057 -0.309017 0
    outer loop
      vertex -5.8115 -1.49214 5
      vertex -5.57866 -2.20875 -4
      vertex -5.57866 -2.20875 5
    endloop
  endfacet
  facet normal -0.904827 -0.425779 0
    outer loop
      vertex -5.57866 -2.20875 -4
      vertex -5.25784 -2.89052 -4
      vertex -5.57866 -2.20875 5
    endloop
  endfacet
  facet normal -0.904827 -0.425779 0
    outer loop
      vertex -5.57866 -2.20875 5
      vertex -5.25784 -2.89052 -4
      vertex -5.25784 -2.89052 5
    endloop
  endfacet
  facet normal -0.844328 -0.535826 0
    outer loop
      vertex -5.25784 -2.89052 -4
      vertex -4.8541 -3.52671 -4
      vertex -5.25784 -2.89052 5
    endloop
  endfacet
  facet normal -0.844328 -0.535826 0
    outer loop
      vertex -5.25784 -2.89052 5
      vertex -4.8541 -3.52671 -4
      vertex -4.8541 -3.52671 5
    endloop
  endfacet
  facet normal -0.770513 -0.637424 0
    outer loop
      vertex -4.8541 -3.52671 -4
      vertex -4.37381 -4.10728 -4
      vertex -4.8541 -3.52671 5
    endloop
  endfacet
  facet normal -0.770513 -0.637424 0
    outer loop
      vertex -4.8541 -3.52671 5
      vertex -4.37381 -4.10728 -4
      vertex -4.37381 -4.10728 5
    endloop
  endfacet
  facet normal -0.684546 -0.728969 0
    outer loop
      vertex -4.37381 -4.10728 5
      vertex -4.37381 -4.10728 -4
      vertex -3.82454 -4.62308 -4
    endloop
  endfacet
  facet normal -0.684546 -0.728969 0
    outer loop
      vertex -3.82454 -4.62308 5
      vertex -4.37381 -4.10728 5
      vertex -3.82454 -4.62308 -4
    endloop
  endfacet
  facet normal -0.587786 -0.809016 0
    outer loop
      vertex -3.82454 -4.62308 5
      vertex -3.82454 -4.62308 -4
      vertex -3.21496 -5.06597 -4
    endloop
  endfacet
  facet normal -0.587786 -0.809016 0
    outer loop
      vertex -3.21496 -5.06597 5
      vertex -3.82454 -4.62308 5
      vertex -3.21496 -5.06597 -4
    endloop
  endfacet
  facet normal -0.481753 -0.876307 0
    outer loop
      vertex -3.21496 -5.06597 5
      vertex -3.21496 -5.06597 -4
      vertex -2.55468 -5.42896 -4
    endloop
  endfacet
  facet normal -0.481753 -0.876307 0
    outer loop
      vertex -2.55468 -5.42896 5
      vertex -3.21496 -5.06597 5
      vertex -2.55468 -5.42896 -4
    endloop
  endfacet
  facet normal -0.368125 -0.929776 0
    outer loop
      vertex -2.55468 -5.42896 5
      vertex -2.55468 -5.42896 -4
      vertex -1.8541 -5.70634 -4
    endloop
  endfacet
  facet normal -0.368125 -0.929776 0
    outer loop
      vertex -1.8541 -5.70634 5
      vertex -2.55468 -5.42896 5
      vertex -1.8541 -5.70634 -4
    endloop
  endfacet
  facet normal -0.248691 -0.968583 0
    outer loop
      vertex -1.8541 -5.70634 5
      vertex -1.8541 -5.70634 -4
      vertex -1.12429 -5.89372 -4
    endloop
  endfacet
  facet normal -0.248691 -0.968583 0
    outer loop
      vertex -1.12429 -5.89372 5
      vertex -1.8541 -5.70634 5
      vertex -1.12429 -5.89372 -4
    endloop
  endfacet
  facet normal -0.125332 -0.992115 0
    outer loop
      vertex -1.12429 -5.89372 5
      vertex -1.12429 -5.89372 -4
      vertex -0.376743 -5.98816 -4
    endloop
  endfacet
  facet normal -0.125332 -0.992115 0
    outer loop
      vertex -0.376743 -5.98816 5
      vertex -1.12429 -5.89372 5
      vertex -0.376743 -5.98816 -4
    endloop
  endfacet
  facet normal 0 -1 0
    outer loop
      vertex -0.376743 -5.98816 5
      vertex -0.376743 -5.98816 -4
      vertex 0.376743 -5.98816 -4
    endloop
  endfacet
  facet normal 0 -1 0
    outer loop
      vertex 0.376743 -5.98816 5
      vertex -0.376743 -5.98816 5
      vertex 0.376743 -5.98816 -4
    endloop
  endfacet
  facet normal 0.125332 -0.992115 0
    outer loop
      vertex 0.376743 -5.98816 5
      vertex 0.376743 -5.98816 -4
      vertex 1.12429 -5.89372 -4
    endloop
  endfacet
  facet normal 0.125332 -0.992115 0
    outer loop
      vertex 1.12429 -5.89372 5
      vertex 0.376743 -5.98816 5
      vertex 1.12429 -5.89372 -4
    endloop
  endfacet
  facet normal 0.248691 -0.968583 0
    outer loop
      vertex 1.12429 -5.89372 5
      vertex 1.12429 -5.89372 -4
      vertex 1.8541 -5.70634 -4
    endloop
  endfacet
  facet normal 0.248691 -0.968583 0
    outer loop
      vertex 1.8541 -5.70634 5
      vertex 1.12429 -5.89372 5
      vertex 1.8541 -5.70634 -4
    endloop
  endfacet
  facet normal 0.368125 -0.929776 0
    outer loop
      vertex 1.8541 -5.70634 5
      vertex 1.8541 -5.70634 -4
      vertex 2.55468 -5.42896 -4
    endloop
  endfacet
  facet normal 0.368125 -0.929776 0
    outer loop
      vertex 2.55468 -5.42896 5
      vertex 1.8541 -5.70634 5
      vertex 2.55468 -5.42896 -4
    endloop
  endfacet
  facet normal 0.481753 -0.876307 0
    outer loop
      vertex 2.55468 -5.42896 5
      vertex 2.55468 -5.42896 -4
      vertex 3.21496 -5.06597 -4
    endloop
  endfacet
  facet normal 0.481753 -0.876307 0
    outer loop
      vertex 3.21496 -5.06597 5
      vertex 2.55468 -5.42896 5
      vertex 3.21496 -5.06597 -4
    endloop
  endfacet
  facet normal 0.587786 -0.809016 0
    outer loop
      vertex 3.21496 -5.06597 5
      vertex 3.21496 -5.06597 -4
      vertex 3.82454 -4.62308 -4
    endloop
  endfacet
  facet normal 0.587786 -0.809016 0
    outer loop
      vertex 3.82454 -4.62308 5
      vertex 3.21496 -5.06597 5
      vertex 3.82454 -4.62308 -4
    endloop
  endfacet
  facet normal 0.684546 -0.728969 0
    outer loop
      vertex 3.82454 -4.62308 5
      vertex 3.82454 -4.62308 -4
      vertex 4.37381 -4.10728 -4
    endloop
  endfacet
  facet normal 0.684546 -0.728969 0
    outer loop
      vertex 4.37381 -4.10728 5
      vertex 3.82454 -4.62308 5
      vertex 4.37381 -4.10728 -4
    endloop
  endfacet
  facet normal 0.770513 -0.637424 0
    outer loop
      vertex 4.37381 -4.10728 5
      vertex 4.37381 -4.10728 -4
      vertex 4.8541 -3.52671 -4
    endloop
  endfacet
  facet normal 0.770513 -0.637424 0
    outer loop
      vertex 4.8541 -3.52671 5
      vertex 4.37381 -4.10728 5
      vertex 4.8541 -3.52671 -4
    endloop
  endfacet
  facet normal 0.844328 -0.535826 0
    outer loop
      vertex 4.8541 -3.52671 5
      vertex 4.8541 -3.52671 -4
      vertex 5.25784 -2.89052 -4
    endloop
  endfacet
  facet normal 0.844328 -0.535826 0
    outer loop
      vertex 5.25784 -2.89052 5
      vertex 4.8541 -3.52671 5
      vertex 5.25784 -2.89052 -4
    endloop
  endfacet
  facet normal 0.904827 -0.425779 0
    outer loop
      vertex 5.25784 -2.89052 5
      vertex 5.25784 -2.89052 -4
      vertex 5.57866 -2.20875 -4
    endloop
  endfacet
  facet normal 0.904827 -0.425779 0
    outer loop
      vertex 5.57866 -2.20875 5
      vertex 5.25784 -2.89052 5
      vertex 5.57866 -2.20875 -4
    endloop
  endfacet
  facet normal 0.951057 -0.309017 0
    outer loop
      vertex 5.57866 -2.20875 5
      vertex 5.57866 -2.20875 -4
      vertex 5.8115 -1.49214 -4
    endloop
  endfacet
  facet normal 0.951057 -0.309017 0
    outer loop
      vertex 5.8115 -1.49214 5
      vertex 5.57866 -2.20875 5
      vertex 5.8115 -1.49214 -4
    endloop
  endfacet
  facet normal 0.982287 -0.187381 0
    outer loop
      vertex 5.8115 -1.49214 5
      vertex 5.8115 -1.49214 -4
      vertex 5.95269 -0.751999 -4
    endloop
  endfacet
  facet normal 0.982287 -0.187381 0
    outer loop
      vertex 5.95269 -0.751999 5
      vertex 5.8115 -1.49214 5
      vertex 5.95269 -0.751999 -4
    endloop
  endfacet
  facet normal 0.998027 -0.0627908 0
    outer loop
      vertex 5.95269 -0.751999 5
      vertex 5.95269 -0.751999 -4
      vertex 6 0 -4
    endloop
  endfacet
  facet normal 0.998027 -0.0627908 0
    outer loop
      vertex 6 0 5
      vertex 5.95269 -0.751999 5
      vertex 6 0 -4
    endloop
  endfacet
  facet normal 0.998027 0.0627908 0
    outer loop
      vertex 6 0 -4
      vertex 5.95269 0.751999 -4
      vertex 5.95269 0.751999 5
    endloop
  endfacet
  facet normal 0.998027 0.0627908 0
    outer loop
      vertex 6 0 5
      vertex 6 0 -4
      vertex 5.95269 0.751999 5
    endloop
  endfacet
  facet normal 0.982287 0.187381 0
    outer loop
      vertex 5.95269 0.751999 -4
      vertex 5.8115 1.49214 -4
      vertex 5.8115 1.49214 5
    endloop
  endfacet
  facet normal 0.982287 0.187381 0
    outer loop
      vertex 5.95269 0.751999 5
      vertex 5.95269 0.751999 -4
      vertex 5.8115 1.49214 5
    endloop
  endfacet
  facet normal 0.951057 0.309017 0
    outer loop
      vertex 5.8115 1.49214 -4
      vertex 5.57866 2.20875 -4
      vertex 5.57866 2.20875 5
    endloop
  endfacet
  facet normal 0.951057 0.309017 0
    outer loop
      vertex 5.8115 1.49214 5
      vertex 5.8115 1.49214 -4
      vertex 5.57866 2.20875 5
    endloop
  endfacet
  facet normal 0.904827 0.425779 0
    outer loop
      vertex 5.57866 2.20875 -4
      vertex 5.25784 2.89052 -4
      vertex 5.25784 2.89052 5
    endloop
  endfacet
  facet normal 0.904827 0.425779 0
    outer loop
      vertex 5.57866 2.20875 5
      vertex 5.57866 2.20875 -4
      vertex 5.25784 2.89052 5
    endloop
  endfacet
  facet normal 0.844328 0.535826 0
    outer loop
      vertex 5.25784 2.89052 -4
      vertex 4.8541 3.52671 -4
      vertex 4.8541 3.52671 5
    endloop
  endfacet
  facet normal 0.844328 0.535826 0
    outer loop
      vertex 5.25784 2.89052 5
      vertex 5.25784 2.89052 -4
      vertex 4.8541 3.52671 5
    endloop
  endfacet
  facet normal 0.770513 0.637424 0
    outer loop
      vertex 4.8541 3.52671 -4
      vertex 4.37381 4.10728 -4
      vertex 4.37381 4.10728 5
    endloop
  endfacet
  facet normal 0.770513 0.637424 0
    outer loop
      vertex 4.8541 3.52671 5
      vertex 4.8541 3.52671 -4
      vertex 4.37381 4.10728 5
    endloop
  endfacet
  facet normal 0.684546 0.728969 0
    outer loop
      vertex 3.82454 4.62308 -4
      vertex 3.82454 4.62308 5
      vertex 4.37381 4.10728 -4
    endloop
  endfacet
  facet normal 0.684546 0.728969 0
    outer loop
      vertex 4.37381 4.10728 -4
      vertex 3.82454 4.62308 5
      vertex 4.37381 4.10728 5
    endloop
  endfacet
  facet normal 0.587786 0.809016 0
    outer loop
      vertex 3.21496 5.06597 -4
      vertex 3.21496 5.06597 5
      vertex 3.82454 4.62308 -4
    endloop
  endfacet
  facet normal 0.587786 0.809016 0
    outer loop
      vertex 3.82454 4.62308 -4
      vertex 3.21496 5.06597 5
      vertex 3.82454 4.62308 5
    endloop
  endfacet
  facet normal 0.481753 0.876307 0
    outer loop
      vertex 2.55468 5.42896 -4
      vertex 2.55468 5.42896 5
      vertex 3.21496 5.06597 -4
    endloop
  endfacet
  facet normal 0.481753 0.876307 0
    outer loop
      vertex 3.21496 5.06597 -4
      vertex 2.55468 5.42896 5
      vertex 3.21496 5.06597 5
    endloop
  endfacet
  facet normal 0.368125 0.929776 0
    outer loop
      vertex 1.8541 5.70634 -4
      vertex 1.8541 5.70634 5
      vertex 2.55468 5.42896 -4
    endloop
  endfacet
  facet normal 0.368125 0.929776 0
    outer loop
      vertex 2.55468 5.42896 -4
      vertex 1.8541 5.70634 5
      vertex 2.55468 5.42896 5
    endloop
  endfacet
  facet normal 0.248691 0.968583 0
    outer loop
      vertex 1.12429 5.89372 -4
      vertex 1.12429 5.89372 5
      vertex 1.8541 5.70634 -4
    endloop
  endfacet
  facet normal 0.248691 0.968583 0
    outer loop
      vertex 1.8541 5.70634 -4
      vertex 1.12429 5.89372 5
      vertex 1.8541 5.70634 5
    endloop
  endfacet
  facet normal 0.125332 0.992115 0
    outer loop
      vertex 0.376743 5.98816 -4
      vertex 0.376743 5.98816 5
      vertex 1.12429 5.89372 -4
    endloop
  endfacet
  facet normal 0.125332 0.992115 0
    outer loop
      vertex 1.12429 5.89372 -4
      vertex 0.376743 5.98816 5
      vertex 1.12429 5.89372 5
    endloop
  endfacet
  facet normal 0 1 0
    outer loop
      vertex -0.376743 5.98816 -4
      vertex -0.376743 5.98816 5
      vertex 0.376743 5.98816 -4
    endloop
  endfacet
  facet normal 0 1 0
    outer loop
      vertex 0.376743 5.98816 -4
      vertex -0.376743 5.98816 5
      vertex 0.376743 5.98816 5
    endloop
  endfacet
  facet normal -0.125332 0.992115 0
    outer loop
      vertex -1.12429 5.89372 -4
      vertex -1.12429 5.89372 5
      vertex -0.376743 5.98816 -4
    endloop
  endfacet
  facet normal -0.125332 0.992115 0
    outer loop
      vertex -0.376743 5.98816 -4
      vertex -1.12429 5.89372 5
      vertex -0.376743 5.98816 5
    endloop
  endfacet
  facet normal -0.248691 0.968583 0
    outer loop
      vertex -1.8541 5.70634 -4
      vertex -1.8541 5.70634 5
      vertex -1.12429 5.89372 -4
    endloop
  endfacet
  facet normal -0.248691 0.968583 0
    outer loop
      vertex -1.12429 5.89372 -4
      vertex -1.8541 5.70634 5
      vertex -1.12429 5.89372 5
    endloop
  endfacet
  facet normal -0.368125 0.929776 0
    outer loop
      vertex -2.55468 5.42896 -4
      vertex -2.55468 5.42896 5
      vertex -1.8541 5.70634 -4
    endloop
  endfacet
  facet normal -0.368125 0.929776 0
    outer loop
      vertex -1.8541 5.70634 -4
      vertex -2.55468 5.42896 5
      vertex -1.8541 5.70634 5
    endloop
  endfacet
  facet normal -0.481753 0.876307 0
    outer loop
      vertex -3.21496 5.06597 -4
      vertex -3.21496 5.06597 5
      vertex -2.55468 5.42896 -4
    endloop
  endfacet
  facet normal -0.481753 0.876307 0
    outer loop
      vertex -2.55468 5.42896 -4
      vertex -3.21496 5.06597 5
      vertex -2.55468 5.42896 5
    endloop
  endfacet
  facet normal -0.587786 0.809016 0
    outer loop
      vertex -3.82454 4.62308 -4
      vertex -3.82454 4.62308 5
      vertex -3.21496 5.06597 -4
    endloop
  endfacet
  facet normal -0.587786 0.809016 0
    outer loop
      vertex -3.21496 5.06597 -4
      vertex -3.82454 4.62308 5
      vertex -3.21496 5.06597 5
    endloop
  endfacet
  facet normal -0.684546 0.728969 0
    outer loop
      vertex -4.37381 4.10728 -4
      vertex -4.37381 4.10728 5
      vertex -3.82454 4.62308 -4
    endloop
  endfacet
  facet normal -0.684546 0.728969 0
    outer loop
      vertex -3.82454 4.62308 -4
      vertex -4.37381 4.10728 5
      vertex -3.82454 4.62308 5
    endloop
  endfacet
  facet normal -0.770513 0.637424 0
    outer loop
      vertex -4.8541 3.52671 -4
      vertex -4.8541 3.52671 5
      vertex -4.37381 4.10728 -4
    endloop
  endfacet
  facet normal -0.770513 0.637424 0
    outer loop
      vertex -4.37381 4.10728 -4
      vertex -4.8541 3.52671 5
      vertex -4.37381 4.10728 5
    endloop
  endfacet
  facet normal -0.844328 0.535826 0
    outer loop
      vertex -5.25784 2.89052 -4
      vertex -5.25784 2.89052 5
      vertex -4.8541 3.52671 -4
    endloop
  endfacet
  facet normal -0.844328 0.535826 0
    outer loop
      vertex -4.8541 3.52671 -4
      vertex -5.25784 2.89052 5
      vertex -4.8541 3.52671 5
    endloop
  endfacet
  facet normal -0.904827 0.425779 0
    outer loop
      vertex -5.57866 2.20875 -4
      vertex -5.57866 2.20875 5
      vertex -5.25784 2.89052 -4
    endloop
  endfacet
  facet normal -0.904827 0.425779 0
    outer loop
      vertex -5.25784 2.89052 -4
      vertex -5.57866 2.20875 5
      vertex -5.25784 2.89052 5
    endloop
  endfacet
  facet normal -0.951057 0.309017 0
    outer loop
      vertex -5.8115 1.49214 -4
      vertex -5.8115 1.49214 5
      vertex -5.57866 2.20875 -4
    endloop
  endfacet
  facet normal -0.951057 0.309017 0
    outer loop
      vertex -5.57866 2.20875 -4
      vertex -5.8115 1.49214 5
      vertex -5.57866 2.20875 5
    endloop
  endfacet
  facet normal -0.982287 0.187381 0
    outer loop
      vertex -5.95269 0.751999 -4
      vertex -5.95269 0.751999 5
      vertex -5.8115 1.49214 -4
    endloop
  endfacet
  facet normal -0.982287 0.187381 0
    outer loop
      vertex -5.8115 1.49214 -4
      vertex -5.95269 0.751999 5
      vertex -5.8115 1.49214 5
    endloop
  endfacet
  facet normal 0.5 -0.866025 0
    outer loop
      vertex -2.65474 0.314808 -4
      vertex -2.65474 0.314808 2.5
      vertex -3.2 3.91874e-016 2.5
    endloop
  endfacet
  facet normal 0.5 -0.866025 0
    outer loop
      vertex -3.2 3.91874e-016 -4
      vertex -2.65474 0.314808 -4
      vertex -3.2 3.91874e-016 2.5
    endloop
  endfacet
  facet normal 0.5 0.866025 0
    outer loop
      vertex -2.65474 -0.314808 2.5
      vertex -2.65474 -0.314808 -4
      vertex -3.2 3.91874e-016 2.5
    endloop
  endfacet
  facet normal 0.5 0.866025 0
    outer loop
      vertex -3.2 3.91874e-016 2.5
      vertex -2.65474 -0.314808 -4
      vertex -3.2 3.91874e-016 -4
    endloop
  endfacet
  facet normal 0.989821 -0.142315 0
    outer loop
      vertex -2.65474 0.314808 2.5
      vertex -2.65474 0.314808 -4
      vertex -2.63589 0.44587 -4
    endloop
  endfacet
  facet normal 0.989821 -0.142315 0
    outer loop
      vertex -2.59063 0.760678 3
      vertex -2.65474 0.314808 2.5
      vertex -2.63589 0.44587 2.5
    endloop
  endfacet
  facet normal 0.989821 -0.142315 0
    outer loop
      vertex -2.63589 0.44587 2.5
      vertex -2.65474 0.314808 2.5
      vertex -2.63589 0.44587 -4
    endloop
  endfacet
  facet normal 0.989821 -0.142315 0
    outer loop
      vertex -2.59063 0.760678 3
      vertex -2.63589 0.44587 2.5
      vertex -2.59063 0.760678 2.5
    endloop
  endfacet
  facet normal 0.989821 -0.142315 0
    outer loop
      vertex -2.7 0 3
      vertex -2.65474 0.314808 2.5
      vertex -2.59063 0.760678 3
    endloop
  endfacet
  facet normal 0.989821 -0.142315 0
    outer loop
      vertex -2.7 0 2.5
      vertex -2.65474 0.314808 2.5
      vertex -2.7 0 3
    endloop
  endfacet
  facet normal 0.723734 0.690079 0
    outer loop
      vertex -3.07038 0.901544 2.5
      vertex -2.63589 0.44587 2.5
      vertex -2.63589 0.44587 -4
    endloop
  endfacet
  facet normal 0.723734 0.690079 0
    outer loop
      vertex -3.07038 0.901544 -4
      vertex -3.07038 0.901544 2.5
      vertex -2.63589 0.44587 -4
    endloop
  endfacet
  facet normal 0.235759 -0.971811 0
    outer loop
      vertex -2.45851 1.04998 -4
      vertex -2.45851 1.04998 2.5
      vertex -3.07038 0.901544 2.5
    endloop
  endfacet
  facet normal 0.235759 -0.971811 0
    outer loop
      vertex -3.07038 0.901544 -4
      vertex -2.45851 1.04998 -4
      vertex -3.07038 0.901544 2.5
    endloop
  endfacet
  facet normal 0.909632 -0.415415 0
    outer loop
      vertex -2.45851 1.04998 2.5
      vertex -2.45851 1.04998 -4
      vertex -2.40351 1.17043 -4
    endloop
  endfacet
  facet normal 0.909632 -0.415415 0
    outer loop
      vertex -2.27138 1.45973 3
      vertex -2.45851 1.04998 2.5
      vertex -2.40351 1.17043 2.5
    endloop
  endfacet
  facet normal 0.909632 -0.415415 0
    outer loop
      vertex -2.40351 1.17043 2.5
      vertex -2.45851 1.04998 2.5
      vertex -2.40351 1.17043 -4
    endloop
  endfacet
  facet normal 0.909632 -0.415415 0
    outer loop
      vertex -2.27138 1.45973 3
      vertex -2.40351 1.17043 2.5
      vertex -2.27138 1.45973 2.5
    endloop
  endfacet
  facet normal 0.909632 -0.415415 0
    outer loop
      vertex -2.59063 0.760678 3
      vertex -2.45851 1.04998 2.5
      vertex -2.27138 1.45973 3
    endloop
  endfacet
  facet normal 0.909632 -0.415415 0
    outer loop
      vertex -2.59063 0.760678 2.5
      vertex -2.45851 1.04998 2.5
      vertex -2.59063 0.760678 3
    endloop
  endfacet
  facet normal 0.888836 0.458226 0
    outer loop
      vertex -2.69201 1.73005 2.5
      vertex -2.40351 1.17043 2.5
      vertex -2.40351 1.17043 -4
    endloop
  endfacet
  facet normal 0.888836 0.458226 0
    outer loop
      vertex -2.69201 1.73005 -4
      vertex -2.69201 1.73005 2.5
      vertex -2.40351 1.17043 -4
    endloop
  endfacet
  facet normal -0.0475816 -0.998867 0
    outer loop
      vertex -2.06311 1.70009 -4
      vertex -2.06311 1.70009 2.5
      vertex -2.69201 1.73005 2.5
    endloop
  endfacet
  facet normal -0.0475816 -0.998867 0
    outer loop
      vertex -2.69201 1.73005 -4
      vertex -2.06311 1.70009 -4
      vertex -2.69201 1.73005 2.5
    endloop
  endfacet
  facet normal 0.755749 -0.654861 0
    outer loop
      vertex -2.06311 1.70009 2.5
      vertex -2.06311 1.70009 -4
      vertex -1.9764 1.80016 -4
    endloop
  endfacet
  facet normal 0.755749 -0.654861 0
    outer loop
      vertex -1.76812 2.04052 3
      vertex -2.06311 1.70009 2.5
      vertex -1.9764 1.80016 2.5
    endloop
  endfacet
  facet normal 0.755749 -0.654861 0
    outer loop
      vertex -1.9764 1.80016 2.5
      vertex -2.06311 1.70009 2.5
      vertex -1.9764 1.80016 -4
    endloop
  endfacet
  facet normal 0.755749 -0.654861 0
    outer loop
      vertex -1.76812 2.04052 3
      vertex -1.9764 1.80016 2.5
      vertex -1.76812 2.04052 2.5
    endloop
  endfacet
  facet normal 0.755749 -0.654861 0
    outer loop
      vertex -2.27138 1.45973 3
      vertex -2.06311 1.70009 2.5
      vertex -1.76812 2.04052 3
    endloop
  endfacet
  facet normal 0.755749 -0.654861 0
    outer loop
      vertex -2.27138 1.45973 2.5
      vertex -2.06311 1.70009 2.5
      vertex -2.27138 1.45973 3
    endloop
  endfacet
  facet normal 0.981929 0.189251 0
    outer loop
      vertex -2.09555 2.4184 2.5
      vertex -1.9764 1.80016 2.5
      vertex -1.9764 1.80016 -4
    endloop
  endfacet
  facet normal 0.981929 0.189251 0
    outer loop
      vertex -2.09555 2.4184 -4
      vertex -2.09555 2.4184 2.5
      vertex -1.9764 1.80016 -4
    endloop
  endfacet
  facet normal -0.327068 -0.945001 0
    outer loop
      vertex -1.50057 2.21247 -4
      vertex -1.50057 2.21247 2.5
      vertex -2.09555 2.4184 2.5
    endloop
  endfacet
  facet normal -0.327068 -0.945001 0
    outer loop
      vertex -2.09555 2.4184 -4
      vertex -1.50057 2.21247 -4
      vertex -2.09555 2.4184 2.5
    endloop
  endfacet
  facet normal 0.540641 -0.841254 0
    outer loop
      vertex -1.50057 2.21247 2.5
      vertex -1.50057 2.21247 -4
      vertex -1.38918 2.28406 -4
    endloop
  endfacet
  facet normal 0.540641 -0.841254 0
    outer loop
      vertex -1.12162 2.45601 3
      vertex -1.50057 2.21247 2.5
      vertex -1.38918 2.28406 2.5
    endloop
  endfacet
  facet normal 0.540641 -0.841254 0
    outer loop
      vertex -1.38918 2.28406 2.5
      vertex -1.50057 2.21247 2.5
      vertex -1.38918 2.28406 -4
    endloop
  endfacet
  facet normal 0.540641 -0.841254 0
    outer loop
      vertex -1.12162 2.45601 3
      vertex -1.38918 2.28406 2.5
      vertex -1.12162 2.45601 2.5
    endloop
  endfacet
  facet normal 0.540641 -0.841254 0
    outer loop
      vertex -1.76812 2.04052 3
      vertex -1.50057 2.21247 2.5
      vertex -1.12162 2.45601 3
    endloop
  endfacet
  facet normal 0.540641 -0.841254 0
    outer loop
      vertex -1.76812 2.04052 2.5
      vertex -1.50057 2.21247 2.5
      vertex -1.76812 2.04052 3
    endloop
  endfacet
  facet normal 0.995472 -0.0950563 0
    outer loop
      vertex -1.32933 2.91082 -4
      vertex -1.32933 2.91082 2.5
      vertex -1.38918 2.28406 2.5
    endloop
  endfacet
  facet normal 0.995472 -0.0950563 0
    outer loop
      vertex -1.38918 2.28406 -4
      vertex -1.32933 2.91082 -4
      vertex -1.38918 2.28406 2.5
    endloop
  endfacet
  facet normal -0.580057 -0.814576 0
    outer loop
      vertex -0.816459 2.54561 -4
      vertex -0.816459 2.54561 2.5
      vertex -1.32933 2.91082 2.5
    endloop
  endfacet
  facet normal -0.580057 -0.814576 0
    outer loop
      vertex -1.32933 2.91082 -4
      vertex -0.816459 2.54561 -4
      vertex -1.32933 2.91082 2.5
    endloop
  endfacet
  facet normal 0.281733 -0.959493 0
    outer loop
      vertex -0.816459 2.54561 2.5
      vertex -0.816459 2.54561 -4
      vertex -0.689412 2.58291 -4
    endloop
  endfacet
  facet normal 0.281733 -0.959493 0
    outer loop
      vertex -0.38425 2.67252 3
      vertex -0.816459 2.54561 2.5
      vertex -0.689412 2.58291 2.5
    endloop
  endfacet
  facet normal 0.281733 -0.959493 0
    outer loop
      vertex -0.689412 2.58291 2.5
      vertex -0.816459 2.54561 2.5
      vertex -0.689412 2.58291 -4
    endloop
  endfacet
  facet normal 0.281733 -0.959493 0
    outer loop
      vertex -0.38425 2.67252 3
      vertex -0.689412 2.58291 2.5
      vertex -0.38425 2.67252 2.5
    endloop
  endfacet
  facet normal 0.281733 -0.959493 0
    outer loop
      vertex -1.12162 2.45601 3
      vertex -0.816459 2.54561 2.5
      vertex -0.38425 2.67252 3
    endloop
  endfacet
  facet normal 0.281733 -0.959493 0
    outer loop
      vertex -1.12162 2.45601 2.5
      vertex -0.816459 2.54561 2.5
      vertex -1.12162 2.45601 3
    endloop
  endfacet
  facet normal 0.928368 -0.371663 0
    outer loop
      vertex -0.455407 3.16743 -4
      vertex -0.455407 3.16743 2.5
      vertex -0.689412 2.58291 2.5
    endloop
  endfacet
  facet normal 0.928368 -0.371663 0
    outer loop
      vertex -0.689412 2.58291 -4
      vertex -0.455407 3.16743 -4
      vertex -0.689412 2.58291 2.5
    endloop
  endfacet
  facet normal -0.786053 -0.618159 0
    outer loop
      vertex -0.0662052 2.67252 2.5
      vertex -0.455407 3.16743 2.5
      vertex -0.0662052 2.67252 -4
    endloop
  endfacet
  facet normal -0.786053 -0.618159 0
    outer loop
      vertex -0.0662052 2.67252 -4
      vertex -0.455407 3.16743 2.5
      vertex -0.455407 3.16743 -4
    endloop
  endfacet
  facet normal 0 -1 0
    outer loop
      vertex -0.0662052 2.67252 2.5
      vertex -0.0662052 2.67252 -4
      vertex 0.0662052 2.67252 -4
    endloop
  endfacet
  facet normal 0 -1 0
    outer loop
      vertex 0.38425 2.67252 3
      vertex -0.0662052 2.67252 2.5
      vertex 0.0662052 2.67252 2.5
    endloop
  endfacet
  facet normal 0 -1 0
    outer loop
      vertex 0.0662052 2.67252 2.5
      vertex -0.0662052 2.67252 2.5
      vertex 0.0662052 2.67252 -4
    endloop
  endfacet
  facet normal 0 -1 0
    outer loop
      vertex 0.38425 2.67252 3
      vertex 0.0662052 2.67252 2.5
      vertex 0.38425 2.67252 2.5
    endloop
  endfacet
  facet normal 0 -1 0
    outer loop
      vertex -0.38425 2.67252 3
      vertex -0.0662052 2.67252 2.5
      vertex 0.38425 2.67252 3
    endloop
  endfacet
  facet normal 0 -1 0
    outer loop
      vertex -0.38425 2.67252 2.5
      vertex -0.0662052 2.67252 2.5
      vertex -0.38425 2.67252 3
    endloop
  endfacet
  facet normal 0.786053 -0.618159 0
    outer loop
      vertex 0.455407 3.16743 -4
      vertex 0.455407 3.16743 2.5
      vertex 0.0662052 2.67252 2.5
    endloop
  endfacet
  facet normal 0.786053 -0.618159 0
    outer loop
      vertex 0.0662052 2.67252 -4
      vertex 0.455407 3.16743 -4
      vertex 0.0662052 2.67252 2.5
    endloop
  endfacet
  facet normal -0.928368 -0.371663 0
    outer loop
      vertex 0.689412 2.58291 2.5
      vertex 0.455407 3.16743 2.5
      vertex 0.689412 2.58291 -4
    endloop
  endfacet
  facet normal -0.928368 -0.371663 0
    outer loop
      vertex 0.689412 2.58291 -4
      vertex 0.455407 3.16743 2.5
      vertex 0.455407 3.16743 -4
    endloop
  endfacet
  facet normal -0.281733 -0.959493 0
    outer loop
      vertex 0.689412 2.58291 2.5
      vertex 0.689412 2.58291 -4
      vertex 0.816459 2.54561 -4
    endloop
  endfacet
  facet normal -0.281733 -0.959493 0
    outer loop
      vertex 1.12162 2.45601 3
      vertex 0.689412 2.58291 2.5
      vertex 0.816459 2.54561 2.5
    endloop
  endfacet
  facet normal -0.281733 -0.959493 0
    outer loop
      vertex 0.816459 2.54561 2.5
      vertex 0.689412 2.58291 2.5
      vertex 0.816459 2.54561 -4
    endloop
  endfacet
  facet normal -0.281733 -0.959493 0
    outer loop
      vertex 1.12162 2.45601 3
      vertex 0.816459 2.54561 2.5
      vertex 1.12162 2.45601 2.5
    endloop
  endfacet
  facet normal -0.281733 -0.959493 0
    outer loop
      vertex 0.38425 2.67252 3
      vertex 0.689412 2.58291 2.5
      vertex 1.12162 2.45601 3
    endloop
  endfacet
  facet normal -0.281733 -0.959493 0
    outer loop
      vertex 0.38425 2.67252 2.5
      vertex 0.689412 2.58291 2.5
      vertex 0.38425 2.67252 3
    endloop
  endfacet
  facet normal 0.580057 -0.814576 0
    outer loop
      vertex 1.32933 2.91082 -4
      vertex 1.32933 2.91082 2.5
      vertex 0.816459 2.54561 2.5
    endloop
  endfacet
  facet normal 0.580057 -0.814576 0
    outer loop
      vertex 0.816459 2.54561 -4
      vertex 1.32933 2.91082 -4
      vertex 0.816459 2.54561 2.5
    endloop
  endfacet
  facet normal -0.995472 -0.0950563 0
    outer loop
      vertex 1.38918 2.28406 2.5
      vertex 1.32933 2.91082 2.5
      vertex 1.38918 2.28406 -4
    endloop
  endfacet
  facet normal -0.995472 -0.0950563 0
    outer loop
      vertex 1.38918 2.28406 -4
      vertex 1.32933 2.91082 2.5
      vertex 1.32933 2.91082 -4
    endloop
  endfacet
  facet normal -0.540641 -0.841254 0
    outer loop
      vertex 1.38918 2.28406 2.5
      vertex 1.38918 2.28406 -4
      vertex 1.50057 2.21247 -4
    endloop
  endfacet
  facet normal -0.540641 -0.841254 0
    outer loop
      vertex 1.76812 2.04052 3
      vertex 1.38918 2.28406 2.5
      vertex 1.50057 2.21247 2.5
    endloop
  endfacet
  facet normal -0.540641 -0.841254 0
    outer loop
      vertex 1.50057 2.21247 2.5
      vertex 1.38918 2.28406 2.5
      vertex 1.50057 2.21247 -4
    endloop
  endfacet
  facet normal -0.540641 -0.841254 0
    outer loop
      vertex 1.76812 2.04052 3
      vertex 1.50057 2.21247 2.5
      vertex 1.76812 2.04052 2.5
    endloop
  endfacet
  facet normal -0.540641 -0.841254 0
    outer loop
      vertex 1.12162 2.45601 3
      vertex 1.38918 2.28406 2.5
      vertex 1.76812 2.04052 3
    endloop
  endfacet
  facet normal -0.540641 -0.841254 0
    outer loop
      vertex 1.12162 2.45601 2.5
      vertex 1.38918 2.28406 2.5
      vertex 1.12162 2.45601 3
    endloop
  endfacet
  facet normal 0.327068 -0.945001 0
    outer loop
      vertex 2.09555 2.4184 -4
      vertex 2.09555 2.4184 2.5
      vertex 1.50057 2.21247 2.5
    endloop
  endfacet
  facet normal 0.327068 -0.945001 0
    outer loop
      vertex 1.50057 2.21247 -4
      vertex 2.09555 2.4184 -4
      vertex 1.50057 2.21247 2.5
    endloop
  endfacet
  facet normal -0.981929 0.189251 0
    outer loop
      vertex 2.09555 2.4184 2.5
      vertex 2.09555 2.4184 -4
      vertex 1.9764 1.80016 2.5
    endloop
  endfacet
  facet normal -0.981929 0.189251 0
    outer loop
      vertex 1.9764 1.80016 2.5
      vertex 2.09555 2.4184 -4
      vertex 1.9764 1.80016 -4
    endloop
  endfacet
  facet normal -0.755749 -0.654861 0
    outer loop
      vertex 1.9764 1.80016 -4
      vertex 2.06311 1.70009 -4
      vertex 1.9764 1.80016 2.5
    endloop
  endfacet
  facet normal -0.755749 -0.654861 0
    outer loop
      vertex 1.9764 1.80016 2.5
      vertex 2.06311 1.70009 -4
      vertex 2.06311 1.70009 2.5
    endloop
  endfacet
  facet normal -0.755749 -0.654861 0
    outer loop
      vertex 2.06311 1.70009 2.5
      vertex 2.27138 1.45973 2.5
      vertex 2.27138 1.45973 3
    endloop
  endfacet
  facet normal -0.755749 -0.654861 0
    outer loop
      vertex 2.06311 1.70009 2.5
      vertex 2.27138 1.45973 3
      vertex 1.9764 1.80016 2.5
    endloop
  endfacet
  facet normal -0.755749 -0.654861 0
    outer loop
      vertex 1.9764 1.80016 2.5
      vertex 2.27138 1.45973 3
      vertex 1.76812 2.04052 3
    endloop
  endfacet
  facet normal -0.755749 -0.654861 0
    outer loop
      vertex 1.9764 1.80016 2.5
      vertex 1.76812 2.04052 3
      vertex 1.76812 2.04052 2.5
    endloop
  endfacet
  facet normal 0.0475816 -0.998867 0
    outer loop
      vertex 2.69201 1.73005 -4
      vertex 2.69201 1.73005 2.5
      vertex 2.06311 1.70009 2.5
    endloop
  endfacet
  facet normal 0.0475816 -0.998867 0
    outer loop
      vertex 2.06311 1.70009 -4
      vertex 2.69201 1.73005 -4
      vertex 2.06311 1.70009 2.5
    endloop
  endfacet
  facet normal -0.888836 0.458226 0
    outer loop
      vertex 2.69201 1.73005 2.5
      vertex 2.69201 1.73005 -4
      vertex 2.40351 1.17043 2.5
    endloop
  endfacet
  facet normal -0.888836 0.458226 0
    outer loop
      vertex 2.40351 1.17043 2.5
      vertex 2.69201 1.73005 -4
      vertex 2.40351 1.17043 -4
    endloop
  endfacet
  facet normal -0.909632 -0.415415 0
    outer loop
      vertex 2.40351 1.17043 -4
      vertex 2.45851 1.04998 -4
      vertex 2.40351 1.17043 2.5
    endloop
  endfacet
  facet normal -0.909632 -0.415415 0
    outer loop
      vertex 2.40351 1.17043 2.5
      vertex 2.45851 1.04998 -4
      vertex 2.45851 1.04998 2.5
    endloop
  endfacet
  facet normal -0.909632 -0.415415 0
    outer loop
      vertex 2.45851 1.04998 2.5
      vertex 2.59063 0.760678 2.5
      vertex 2.59063 0.760678 3
    endloop
  endfacet
  facet normal -0.909632 -0.415415 0
    outer loop
      vertex 2.45851 1.04998 2.5
      vertex 2.59063 0.760678 3
      vertex 2.40351 1.17043 2.5
    endloop
  endfacet
  facet normal -0.909632 -0.415415 0
    outer loop
      vertex 2.40351 1.17043 2.5
      vertex 2.59063 0.760678 3
      vertex 2.27138 1.45973 3
    endloop
  endfacet
  facet normal -0.909632 -0.415415 0
    outer loop
      vertex 2.40351 1.17043 2.5
      vertex 2.27138 1.45973 3
      vertex 2.27138 1.45973 2.5
    endloop
  endfacet
  facet normal -0.235759 -0.971811 0
    outer loop
      vertex 3.07038 0.901544 -4
      vertex 3.07038 0.901544 2.5
      vertex 2.45851 1.04998 2.5
    endloop
  endfacet
  facet normal -0.235759 -0.971811 0
    outer loop
      vertex 2.45851 1.04998 -4
      vertex 3.07038 0.901544 -4
      vertex 2.45851 1.04998 2.5
    endloop
  endfacet
  facet normal -0.723734 0.690079 0
    outer loop
      vertex 3.07038 0.901544 2.5
      vertex 3.07038 0.901544 -4
      vertex 2.63589 0.44587 2.5
    endloop
  endfacet
  facet normal -0.723734 0.690079 0
    outer loop
      vertex 2.63589 0.44587 2.5
      vertex 3.07038 0.901544 -4
      vertex 2.63589 0.44587 -4
    endloop
  endfacet
  facet normal -0.989821 -0.142315 0
    outer loop
      vertex 2.63589 0.44587 -4
      vertex 2.65474 0.314808 -4
      vertex 2.63589 0.44587 2.5
    endloop
  endfacet
  facet normal -0.989821 -0.142315 0
    outer loop
      vertex 2.63589 0.44587 2.5
      vertex 2.65474 0.314808 -4
      vertex 2.65474 0.314808 2.5
    endloop
  endfacet
  facet normal -0.989821 -0.142315 0
    outer loop
      vertex 2.65474 0.314808 2.5
      vertex 2.7 0 2.5
      vertex 2.7 0 3
    endloop
  endfacet
  facet normal -0.989821 -0.142315 0
    outer loop
      vertex 2.65474 0.314808 2.5
      vertex 2.7 0 3
      vertex 2.63589 0.44587 2.5
    endloop
  endfacet
  facet normal -0.989821 -0.142315 0
    outer loop
      vertex 2.63589 0.44587 2.5
      vertex 2.7 0 3
      vertex 2.59063 0.760678 3
    endloop
  endfacet
  facet normal -0.989821 -0.142315 0
    outer loop
      vertex 2.63589 0.44587 2.5
      vertex 2.59063 0.760678 3
      vertex 2.59063 0.760678 2.5
    endloop
  endfacet
  facet normal -0.5 -0.866025 0
    outer loop
      vertex 3.2 0 -4
      vertex 3.2 0 2.5
      vertex 2.65474 0.314808 2.5
    endloop
  endfacet
  facet normal -0.5 -0.866025 0
    outer loop
      vertex 2.65474 0.314808 -4
      vertex 3.2 0 -4
      vertex 2.65474 0.314808 2.5
    endloop
  endfacet
  facet normal -0.5 0.866025 0
    outer loop
      vertex 3.2 0 2.5
      vertex 3.2 0 -4
      vertex 3.2 -3.91874e-016 2.5
    endloop
  endfacet
  facet normal -0.5 0.866025 0
    outer loop
      vertex 3.2 -3.91874e-016 2.5
      vertex 3.2 0 -4
      vertex 3.2 -3.91874e-016 -4
    endloop
  endfacet
  facet normal -0.5 -0.866025 0
    outer loop
      vertex 3.2 -7.83748e-016 -4
      vertex 3.2 -7.83748e-016 2.5
      vertex 3.2 -3.91874e-016 2.5
    endloop
  endfacet
  facet normal -0.5 -0.866025 0
    outer loop
      vertex 3.2 -3.91874e-016 -4
      vertex 3.2 -7.83748e-016 -4
      vertex 3.2 -3.91874e-016 2.5
    endloop
  endfacet
  facet normal -0.5 0.866025 0
    outer loop
      vertex 3.2 -7.83748e-016 2.5
      vertex 3.2 -7.83748e-016 -4
      vertex 2.65474 -0.314808 2.5
    endloop
  endfacet
  facet normal -0.5 0.866025 0
    outer loop
      vertex 2.65474 -0.314808 2.5
      vertex 3.2 -7.83748e-016 -4
      vertex 2.65474 -0.314808 -4
    endloop
  endfacet
  facet normal -0.989821 0.142315 0
    outer loop
      vertex 2.7 0 3
      vertex 2.7 0 2.5
      vertex 2.59063 -0.760678 3
    endloop
  endfacet
  facet normal -0.989821 0.142315 0
    outer loop
      vertex 2.59063 -0.760678 3
      vertex 2.7 0 2.5
      vertex 2.65474 -0.314808 2.5
    endloop
  endfacet
  facet normal -0.989821 0.142315 0
    outer loop
      vertex 2.63589 -0.44587 2.5
      vertex 2.65474 -0.314808 2.5
      vertex 2.65474 -0.314808 -4
    endloop
  endfacet
  facet normal -0.989821 0.142315 0
    outer loop
      vertex 2.59063 -0.760678 3
      vertex 2.65474 -0.314808 2.5
      vertex 2.63589 -0.44587 2.5
    endloop
  endfacet
  facet normal -0.989821 0.142315 0
    outer loop
      vertex 2.59063 -0.760678 2.5
      vertex 2.59063 -0.760678 3
      vertex 2.63589 -0.44587 2.5
    endloop
  endfacet
  facet normal -0.989821 0.142315 0
    outer loop
      vertex 2.63589 -0.44587 2.5
      vertex 2.65474 -0.314808 -4
      vertex 2.63589 -0.44587 -4
    endloop
  endfacet
  facet normal -0.723734 -0.690079 0
    outer loop
      vertex 3.07038 -0.901544 2.5
      vertex 2.63589 -0.44587 2.5
      vertex 3.07038 -0.901544 -4
    endloop
  endfacet
  facet normal -0.723734 -0.690079 0
    outer loop
      vertex 3.07038 -0.901544 -4
      vertex 2.63589 -0.44587 2.5
      vertex 2.63589 -0.44587 -4
    endloop
  endfacet
  facet normal -0.235759 0.971811 0
    outer loop
      vertex 3.07038 -0.901544 2.5
      vertex 3.07038 -0.901544 -4
      vertex 2.45851 -1.04998 2.5
    endloop
  endfacet
  facet normal -0.235759 0.971811 0
    outer loop
      vertex 2.45851 -1.04998 2.5
      vertex 3.07038 -0.901544 -4
      vertex 2.45851 -1.04998 -4
    endloop
  endfacet
  facet normal -0.909632 0.415415 0
    outer loop
      vertex 2.59063 -0.760678 3
      vertex 2.59063 -0.760678 2.5
      vertex 2.27138 -1.45973 3
    endloop
  endfacet
  facet normal -0.909632 0.415415 0
    outer loop
      vertex 2.27138 -1.45973 3
      vertex 2.59063 -0.760678 2.5
      vertex 2.45851 -1.04998 2.5
    endloop
  endfacet
  facet normal -0.909632 0.415415 0
    outer loop
      vertex 2.40351 -1.17043 2.5
      vertex 2.45851 -1.04998 2.5
      vertex 2.45851 -1.04998 -4
    endloop
  endfacet
  facet normal -0.909632 0.415415 0
    outer loop
      vertex 2.27138 -1.45973 3
      vertex 2.45851 -1.04998 2.5
      vertex 2.40351 -1.17043 2.5
    endloop
  endfacet
  facet normal -0.909632 0.415415 0
    outer loop
      vertex 2.27138 -1.45973 2.5
      vertex 2.27138 -1.45973 3
      vertex 2.40351 -1.17043 2.5
    endloop
  endfacet
  facet normal -0.909632 0.415415 0
    outer loop
      vertex 2.40351 -1.17043 2.5
      vertex 2.45851 -1.04998 -4
      vertex 2.40351 -1.17043 -4
    endloop
  endfacet
  facet normal -0.888836 -0.458226 0
    outer loop
      vertex 2.69201 -1.73005 2.5
      vertex 2.40351 -1.17043 2.5
      vertex 2.69201 -1.73005 -4
    endloop
  endfacet
  facet normal -0.888836 -0.458226 0
    outer loop
      vertex 2.69201 -1.73005 -4
      vertex 2.40351 -1.17043 2.5
      vertex 2.40351 -1.17043 -4
    endloop
  endfacet
  facet normal 0.0475816 0.998867 0
    outer loop
      vertex 2.69201 -1.73005 2.5
      vertex 2.69201 -1.73005 -4
      vertex 2.06311 -1.70009 2.5
    endloop
  endfacet
  facet normal 0.0475816 0.998867 0
    outer loop
      vertex 2.06311 -1.70009 2.5
      vertex 2.69201 -1.73005 -4
      vertex 2.06311 -1.70009 -4
    endloop
  endfacet
  facet normal -0.755749 0.654861 0
    outer loop
      vertex 2.27138 -1.45973 3
      vertex 2.27138 -1.45973 2.5
      vertex 1.76812 -2.04052 3
    endloop
  endfacet
  facet normal -0.755749 0.654861 0
    outer loop
      vertex 1.76812 -2.04052 3
      vertex 2.27138 -1.45973 2.5
      vertex 2.06311 -1.70009 2.5
    endloop
  endfacet
  facet normal -0.755749 0.654861 0
    outer loop
      vertex 1.9764 -1.80016 2.5
      vertex 2.06311 -1.70009 2.5
      vertex 2.06311 -1.70009 -4
    endloop
  endfacet
  facet normal -0.755749 0.654861 0
    outer loop
      vertex 1.76812 -2.04052 3
      vertex 2.06311 -1.70009 2.5
      vertex 1.9764 -1.80016 2.5
    endloop
  endfacet
  facet normal -0.755749 0.654861 0
    outer loop
      vertex 1.76812 -2.04052 2.5
      vertex 1.76812 -2.04052 3
      vertex 1.9764 -1.80016 2.5
    endloop
  endfacet
  facet normal -0.755749 0.654861 0
    outer loop
      vertex 1.9764 -1.80016 2.5
      vertex 2.06311 -1.70009 -4
      vertex 1.9764 -1.80016 -4
    endloop
  endfacet
  facet normal -0.981929 -0.189251 0
    outer loop
      vertex 2.09555 -2.4184 2.5
      vertex 1.9764 -1.80016 2.5
      vertex 2.09555 -2.4184 -4
    endloop
  endfacet
  facet normal -0.981929 -0.189251 0
    outer loop
      vertex 2.09555 -2.4184 -4
      vertex 1.9764 -1.80016 2.5
      vertex 1.9764 -1.80016 -4
    endloop
  endfacet
  facet normal 0.327068 0.945001 0
    outer loop
      vertex 2.09555 -2.4184 2.5
      vertex 2.09555 -2.4184 -4
      vertex 1.50057 -2.21247 2.5
    endloop
  endfacet
  facet normal 0.327068 0.945001 0
    outer loop
      vertex 1.50057 -2.21247 2.5
      vertex 2.09555 -2.4184 -4
      vertex 1.50057 -2.21247 -4
    endloop
  endfacet
  facet normal -0.540641 0.841254 0
    outer loop
      vertex 1.76812 -2.04052 3
      vertex 1.76812 -2.04052 2.5
      vertex 1.12162 -2.45601 3
    endloop
  endfacet
  facet normal -0.540641 0.841254 0
    outer loop
      vertex 1.12162 -2.45601 3
      vertex 1.76812 -2.04052 2.5
      vertex 1.50057 -2.21247 2.5
    endloop
  endfacet
  facet normal -0.540641 0.841254 0
    outer loop
      vertex 1.38918 -2.28406 2.5
      vertex 1.50057 -2.21247 2.5
      vertex 1.50057 -2.21247 -4
    endloop
  endfacet
  facet normal -0.540641 0.841254 0
    outer loop
      vertex 1.12162 -2.45601 3
      vertex 1.50057 -2.21247 2.5
      vertex 1.38918 -2.28406 2.5
    endloop
  endfacet
  facet normal -0.540641 0.841254 0
    outer loop
      vertex 1.12162 -2.45601 2.5
      vertex 1.12162 -2.45601 3
      vertex 1.38918 -2.28406 2.5
    endloop
  endfacet
  facet normal -0.540641 0.841254 0
    outer loop
      vertex 1.38918 -2.28406 2.5
      vertex 1.50057 -2.21247 -4
      vertex 1.38918 -2.28406 -4
    endloop
  endfacet
  facet normal -0.995472 0.0950563 0
    outer loop
      vertex 1.38918 -2.28406 2.5
      vertex 1.38918 -2.28406 -4
      vertex 1.32933 -2.91082 2.5
    endloop
  endfacet
  facet normal -0.995472 0.0950563 0
    outer loop
      vertex 1.32933 -2.91082 2.5
      vertex 1.38918 -2.28406 -4
      vertex 1.32933 -2.91082 -4
    endloop
  endfacet
  facet normal 0.580057 0.814576 0
    outer loop
      vertex 1.32933 -2.91082 2.5
      vertex 1.32933 -2.91082 -4
      vertex 0.816459 -2.54561 2.5
    endloop
  endfacet
  facet normal 0.580057 0.814576 0
    outer loop
      vertex 0.816459 -2.54561 2.5
      vertex 1.32933 -2.91082 -4
      vertex 0.816459 -2.54561 -4
    endloop
  endfacet
  facet normal -0.281733 0.959493 0
    outer loop
      vertex 1.12162 -2.45601 3
      vertex 1.12162 -2.45601 2.5
      vertex 0.38425 -2.67252 3
    endloop
  endfacet
  facet normal -0.281733 0.959493 0
    outer loop
      vertex 0.38425 -2.67252 3
      vertex 1.12162 -2.45601 2.5
      vertex 0.816459 -2.54561 2.5
    endloop
  endfacet
  facet normal -0.281733 0.959493 0
    outer loop
      vertex 0.689412 -2.58291 2.5
      vertex 0.816459 -2.54561 2.5
      vertex 0.816459 -2.54561 -4
    endloop
  endfacet
  facet normal -0.281733 0.959493 0
    outer loop
      vertex 0.38425 -2.67252 3
      vertex 0.816459 -2.54561 2.5
      vertex 0.689412 -2.58291 2.5
    endloop
  endfacet
  facet normal -0.281733 0.959493 0
    outer loop
      vertex 0.38425 -2.67252 2.5
      vertex 0.38425 -2.67252 3
      vertex 0.689412 -2.58291 2.5
    endloop
  endfacet
  facet normal -0.281733 0.959493 0
    outer loop
      vertex 0.689412 -2.58291 2.5
      vertex 0.816459 -2.54561 -4
      vertex 0.689412 -2.58291 -4
    endloop
  endfacet
  facet normal -0.928368 0.371663 0
    outer loop
      vertex 0.689412 -2.58291 2.5
      vertex 0.689412 -2.58291 -4
      vertex 0.455407 -3.16743 2.5
    endloop
  endfacet
  facet normal -0.928368 0.371663 0
    outer loop
      vertex 0.455407 -3.16743 2.5
      vertex 0.689412 -2.58291 -4
      vertex 0.455407 -3.16743 -4
    endloop
  endfacet
  facet normal 0.786053 0.618159 0
    outer loop
      vertex 0.0662052 -2.67252 2.5
      vertex 0.455407 -3.16743 2.5
      vertex 0.455407 -3.16743 -4
    endloop
  endfacet
  facet normal 0.786053 0.618159 0
    outer loop
      vertex 0.0662052 -2.67252 -4
      vertex 0.0662052 -2.67252 2.5
      vertex 0.455407 -3.16743 -4
    endloop
  endfacet
  facet normal 0 1 0
    outer loop
      vertex 0.38425 -2.67252 3
      vertex 0.38425 -2.67252 2.5
      vertex -0.38425 -2.67252 3
    endloop
  endfacet
  facet normal 0 1 0
    outer loop
      vertex -0.38425 -2.67252 3
      vertex 0.38425 -2.67252 2.5
      vertex 0.0662052 -2.67252 2.5
    endloop
  endfacet
  facet normal 0 1 0
    outer loop
      vertex -0.0662052 -2.67252 2.5
      vertex 0.0662052 -2.67252 2.5
      vertex 0.0662052 -2.67252 -4
    endloop
  endfacet
  facet normal 0 1 0
    outer loop
      vertex -0.38425 -2.67252 3
      vertex 0.0662052 -2.67252 2.5
      vertex -0.0662052 -2.67252 2.5
    endloop
  endfacet
  facet normal 0 1 0
    outer loop
      vertex -0.38425 -2.67252 2.5
      vertex -0.38425 -2.67252 3
      vertex -0.0662052 -2.67252 2.5
    endloop
  endfacet
  facet normal 0 1 0
    outer loop
      vertex -0.0662052 -2.67252 2.5
      vertex 0.0662052 -2.67252 -4
      vertex -0.0662052 -2.67252 -4
    endloop
  endfacet
  facet normal -0.786053 0.618159 0
    outer loop
      vertex -0.0662052 -2.67252 2.5
      vertex -0.0662052 -2.67252 -4
      vertex -0.455407 -3.16743 2.5
    endloop
  endfacet
  facet normal -0.786053 0.618159 0
    outer loop
      vertex -0.455407 -3.16743 2.5
      vertex -0.0662052 -2.67252 -4
      vertex -0.455407 -3.16743 -4
    endloop
  endfacet
  facet normal 0.928368 0.371663 0
    outer loop
      vertex -0.689412 -2.58291 2.5
      vertex -0.455407 -3.16743 2.5
      vertex -0.455407 -3.16743 -4
    endloop
  endfacet
  facet normal 0.928368 0.371663 0
    outer loop
      vertex -0.689412 -2.58291 -4
      vertex -0.689412 -2.58291 2.5
      vertex -0.455407 -3.16743 -4
    endloop
  endfacet
  facet normal 0.281733 0.959493 0
    outer loop
      vertex -0.38425 -2.67252 3
      vertex -0.38425 -2.67252 2.5
      vertex -1.12162 -2.45601 3
    endloop
  endfacet
  facet normal 0.281733 0.959493 0
    outer loop
      vertex -1.12162 -2.45601 3
      vertex -0.38425 -2.67252 2.5
      vertex -0.689412 -2.58291 2.5
    endloop
  endfacet
  facet normal 0.281733 0.959493 0
    outer loop
      vertex -0.816459 -2.54561 2.5
      vertex -0.689412 -2.58291 2.5
      vertex -0.689412 -2.58291 -4
    endloop
  endfacet
  facet normal 0.281733 0.959493 0
    outer loop
      vertex -1.12162 -2.45601 3
      vertex -0.689412 -2.58291 2.5
      vertex -0.816459 -2.54561 2.5
    endloop
  endfacet
  facet normal 0.281733 0.959493 0
    outer loop
      vertex -1.12162 -2.45601 2.5
      vertex -1.12162 -2.45601 3
      vertex -0.816459 -2.54561 2.5
    endloop
  endfacet
  facet normal 0.281733 0.959493 0
    outer loop
      vertex -0.816459 -2.54561 2.5
      vertex -0.689412 -2.58291 -4
      vertex -0.816459 -2.54561 -4
    endloop
  endfacet
  facet normal -0.580057 0.814576 0
    outer loop
      vertex -0.816459 -2.54561 2.5
      vertex -0.816459 -2.54561 -4
      vertex -1.32933 -2.91082 2.5
    endloop
  endfacet
  facet normal -0.580057 0.814576 0
    outer loop
      vertex -1.32933 -2.91082 2.5
      vertex -0.816459 -2.54561 -4
      vertex -1.32933 -2.91082 -4
    endloop
  endfacet
  facet normal 0.995472 0.0950563 0
    outer loop
      vertex -1.38918 -2.28406 2.5
      vertex -1.32933 -2.91082 2.5
      vertex -1.32933 -2.91082 -4
    endloop
  endfacet
  facet normal 0.995472 0.0950563 0
    outer loop
      vertex -1.38918 -2.28406 -4
      vertex -1.38918 -2.28406 2.5
      vertex -1.32933 -2.91082 -4
    endloop
  endfacet
  facet normal 0.540641 0.841254 0
    outer loop
      vertex -1.12162 -2.45601 3
      vertex -1.12162 -2.45601 2.5
      vertex -1.76812 -2.04052 3
    endloop
  endfacet
  facet normal 0.540641 0.841254 0
    outer loop
      vertex -1.76812 -2.04052 3
      vertex -1.12162 -2.45601 2.5
      vertex -1.38918 -2.28406 2.5
    endloop
  endfacet
  facet normal 0.540641 0.841254 0
    outer loop
      vertex -1.50057 -2.21247 2.5
      vertex -1.38918 -2.28406 2.5
      vertex -1.38918 -2.28406 -4
    endloop
  endfacet
  facet normal 0.540641 0.841254 0
    outer loop
      vertex -1.76812 -2.04052 3
      vertex -1.38918 -2.28406 2.5
      vertex -1.50057 -2.21247 2.5
    endloop
  endfacet
  facet normal 0.540641 0.841254 0
    outer loop
      vertex -1.76812 -2.04052 2.5
      vertex -1.76812 -2.04052 3
      vertex -1.50057 -2.21247 2.5
    endloop
  endfacet
  facet normal 0.540641 0.841254 0
    outer loop
      vertex -1.50057 -2.21247 2.5
      vertex -1.38918 -2.28406 -4
      vertex -1.50057 -2.21247 -4
    endloop
  endfacet
  facet normal -0.327068 0.945001 0
    outer loop
      vertex -1.50057 -2.21247 2.5
      vertex -1.50057 -2.21247 -4
      vertex -2.09555 -2.4184 2.5
    endloop
  endfacet
  facet normal -0.327068 0.945001 0
    outer loop
      vertex -2.09555 -2.4184 2.5
      vertex -1.50057 -2.21247 -4
      vertex -2.09555 -2.4184 -4
    endloop
  endfacet
  facet normal 0.981929 -0.189251 0
    outer loop
      vertex -1.9764 -1.80016 -4
      vertex -1.9764 -1.80016 2.5
      vertex -2.09555 -2.4184 2.5
    endloop
  endfacet
  facet normal 0.981929 -0.189251 0
    outer loop
      vertex -2.09555 -2.4184 -4
      vertex -1.9764 -1.80016 -4
      vertex -2.09555 -2.4184 2.5
    endloop
  endfacet
  facet normal 0.755749 0.654861 0
    outer loop
      vertex -2.27138 -1.45973 3
      vertex -1.76812 -2.04052 3
      vertex -1.76812 -2.04052 2.5
    endloop
  endfacet
  facet normal 0.755749 0.654861 0
    outer loop
      vertex -2.06311 -1.70009 2.5
      vertex -2.27138 -1.45973 3
      vertex -1.9764 -1.80016 2.5
    endloop
  endfacet
  facet normal 0.755749 0.654861 0
    outer loop
      vertex -1.9764 -1.80016 2.5
      vertex -2.27138 -1.45973 3
      vertex -1.76812 -2.04052 2.5
    endloop
  endfacet
  facet normal 0.755749 0.654861 0
    outer loop
      vertex -2.06311 -1.70009 2.5
      vertex -2.27138 -1.45973 2.5
      vertex -2.27138 -1.45973 3
    endloop
  endfacet
  facet normal 0.755749 0.654861 0
    outer loop
      vertex -1.9764 -1.80016 -4
      vertex -2.06311 -1.70009 2.5
      vertex -1.9764 -1.80016 2.5
    endloop
  endfacet
  facet normal 0.755749 0.654861 0
    outer loop
      vertex -2.06311 -1.70009 -4
      vertex -2.06311 -1.70009 2.5
      vertex -1.9764 -1.80016 -4
    endloop
  endfacet
  facet normal -0.0475816 0.998867 0
    outer loop
      vertex -2.06311 -1.70009 2.5
      vertex -2.06311 -1.70009 -4
      vertex -2.69201 -1.73005 2.5
    endloop
  endfacet
  facet normal -0.0475816 0.998867 0
    outer loop
      vertex -2.69201 -1.73005 2.5
      vertex -2.06311 -1.70009 -4
      vertex -2.69201 -1.73005 -4
    endloop
  endfacet
  facet normal 0.888836 -0.458226 0
    outer loop
      vertex -2.40351 -1.17043 -4
      vertex -2.40351 -1.17043 2.5
      vertex -2.69201 -1.73005 2.5
    endloop
  endfacet
  facet normal 0.888836 -0.458226 0
    outer loop
      vertex -2.69201 -1.73005 -4
      vertex -2.40351 -1.17043 -4
      vertex -2.69201 -1.73005 2.5
    endloop
  endfacet
  facet normal 0.909632 0.415415 0
    outer loop
      vertex -2.59063 -0.760678 3
      vertex -2.27138 -1.45973 3
      vertex -2.27138 -1.45973 2.5
    endloop
  endfacet
  facet normal 0.909632 0.415415 0
    outer loop
      vertex -2.45851 -1.04998 2.5
      vertex -2.59063 -0.760678 3
      vertex -2.40351 -1.17043 2.5
    endloop
  endfacet
  facet normal 0.909632 0.415415 0
    outer loop
      vertex -2.40351 -1.17043 2.5
      vertex -2.59063 -0.760678 3
      vertex -2.27138 -1.45973 2.5
    endloop
  endfacet
  facet normal 0.909632 0.415415 0
    outer loop
      vertex -2.45851 -1.04998 2.5
      vertex -2.59063 -0.760678 2.5
      vertex -2.59063 -0.760678 3
    endloop
  endfacet
  facet normal 0.909632 0.415415 0
    outer loop
      vertex -2.40351 -1.17043 -4
      vertex -2.45851 -1.04998 2.5
      vertex -2.40351 -1.17043 2.5
    endloop
  endfacet
  facet normal 0.909632 0.415415 0
    outer loop
      vertex -2.45851 -1.04998 -4
      vertex -2.45851 -1.04998 2.5
      vertex -2.40351 -1.17043 -4
    endloop
  endfacet
  facet normal 0.235759 0.971811 0
    outer loop
      vertex -2.45851 -1.04998 2.5
      vertex -2.45851 -1.04998 -4
      vertex -3.07038 -0.901544 2.5
    endloop
  endfacet
  facet normal 0.235759 0.971811 0
    outer loop
      vertex -3.07038 -0.901544 2.5
      vertex -2.45851 -1.04998 -4
      vertex -3.07038 -0.901544 -4
    endloop
  endfacet
  facet normal 0.723734 -0.690079 0
    outer loop
      vertex -2.63589 -0.44587 -4
      vertex -2.63589 -0.44587 2.5
      vertex -3.07038 -0.901544 2.5
    endloop
  endfacet
  facet normal 0.723734 -0.690079 0
    outer loop
      vertex -3.07038 -0.901544 -4
      vertex -2.63589 -0.44587 -4
      vertex -3.07038 -0.901544 2.5
    endloop
  endfacet
  facet normal 0.989821 0.142315 0
    outer loop
      vertex -2.7 0 3
      vertex -2.59063 -0.760678 3
      vertex -2.59063 -0.760678 2.5
    endloop
  endfacet
  facet normal 0.989821 0.142315 0
    outer loop
      vertex -2.65474 -0.314808 2.5
      vertex -2.7 0 3
      vertex -2.63589 -0.44587 2.5
    endloop
  endfacet
  facet normal 0.989821 0.142315 0
    outer loop
      vertex -2.63589 -0.44587 2.5
      vertex -2.7 0 3
      vertex -2.59063 -0.760678 2.5
    endloop
  endfacet
  facet normal 0.989821 0.142315 0
    outer loop
      vertex -2.65474 -0.314808 2.5
      vertex -2.7 0 2.5
      vertex -2.7 0 3
    endloop
  endfacet
  facet normal 0.989821 0.142315 0
    outer loop
      vertex -2.63589 -0.44587 -4
      vertex -2.65474 -0.314808 2.5
      vertex -2.63589 -0.44587 2.5
    endloop
  endfacet
  facet normal 0.989821 0.142315 0
    outer loop
      vertex -2.65474 -0.314808 -4
      vertex -2.65474 -0.314808 2.5
      vertex -2.63589 -0.44587 -4
    endloop
  endfacet
  facet normal 0 0 1
    outer loop
      vertex -5.95269 0.751999 5
      vertex -6 0 5
      vertex -5.95269 -0.751999 5
    endloop
  endfacet
  facet normal 0 0 1
    outer loop
      vertex -5.57866 -2.20875 5
      vertex -5.95269 0.751999 5
      vertex -5.8115 -1.49214 5
    endloop
  endfacet
  facet normal 0 0 1
    outer loop
      vertex -5.8115 -1.49214 5
      vertex -5.95269 0.751999 5
      vertex -5.95269 -0.751999 5
    endloop
  endfacet
  facet normal 0 0 1
    outer loop
      vertex -5.25784 -2.89052 5
      vertex -5.95269 0.751999 5
      vertex -5.57866 -2.20875 5
    endloop
  endfacet
  facet normal 0 0 1
    outer loop
      vertex -4.8541 -3.52671 5
      vertex -5.95269 0.751999 5
      vertex -5.25784 -2.89052 5
    endloop
  endfacet
  facet normal 0 0 1
    outer loop
      vertex -4.37381 -4.10728 5
      vertex -5.95269 0.751999 5
      vertex -4.8541 -3.52671 5
    endloop
  endfacet
  facet normal 0 0 1
    outer loop
      vertex -3.82454 -4.62308 5
      vertex -5.95269 0.751999 5
      vertex -4.37381 -4.10728 5
    endloop
  endfacet
  facet normal 0 0 1
    outer loop
      vertex -3.21496 -5.06597 5
      vertex -5.95269 0.751999 5
      vertex -3.82454 -4.62308 5
    endloop
  endfacet
  facet normal 0 0 1
    outer loop
      vertex -2.55468 -5.42896 5
      vertex -5.95269 0.751999 5
      vertex -3.21496 -5.06597 5
    endloop
  endfacet
  facet normal 0 0 1
    outer loop
      vertex -1.8541 -5.70634 5
      vertex -5.95269 0.751999 5
      vertex -2.55468 -5.42896 5
    endloop
  endfacet
  facet normal 0 0 1
    outer loop
      vertex -1.12429 -5.89372 5
      vertex -5.95269 0.751999 5
      vertex -1.8541 -5.70634 5
    endloop
  endfacet
  facet normal 0 0 1
    outer loop
      vertex -0.376743 -5.98816 5
      vertex -5.95269 0.751999 5
      vertex -1.12429 -5.89372 5
    endloop
  endfacet
  facet normal 0 0 1
    outer loop
      vertex 0.376743 -5.98816 5
      vertex -5.95269 0.751999 5
      vertex -0.376743 -5.98816 5
    endloop
  endfacet
  facet normal 0 0 1
    outer loop
      vertex -1 -4 5
      vertex -5.95269 0.751999 5
      vertex 0.376743 -5.98816 5
    endloop
  endfacet
  facet normal 0 0 1
    outer loop
      vertex -1 4 5
      vertex 3.21496 5.06597 5
      vertex 2.55468 5.42896 5
    endloop
  endfacet
  facet normal 0 0 1
    outer loop
      vertex -1 4 5
      vertex 1 4 5
      vertex 3.21496 5.06597 5
    endloop
  endfacet
  facet normal 0 0 1
    outer loop
      vertex 1 4 5
      vertex 4.37381 4.10728 5
      vertex 3.82454 4.62308 5
    endloop
  endfacet
  facet normal 0 0 1
    outer loop
      vertex 1 4 5
      vertex 1 -4 5
      vertex 3.21496 -5.06597 5
    endloop
  endfacet
  facet normal 0 0 1
    outer loop
      vertex 1 4 5
      vertex 3.21496 -5.06597 5
      vertex 3.82454 -4.62308 5
    endloop
  endfacet
  facet normal 0 0 1
    outer loop
      vertex 1 4 5
      vertex 3.82454 -4.62308 5
      vertex 4.37381 -4.10728 5
    endloop
  endfacet
  facet normal 0 0 1
    outer loop
      vertex 1 4 5
      vertex 4.37381 -4.10728 5
      vertex 4.8541 -3.52671 5
    endloop
  endfacet
  facet normal 0 0 1
    outer loop
      vertex 1 4 5
      vertex 4.8541 -3.52671 5
      vertex 5.25784 -2.89052 5
    endloop
  endfacet
  facet normal 0 0 1
    outer loop
      vertex 1 4 5
      vertex 5.25784 -2.89052 5
      vertex 5.57866 -2.20875 5
    endloop
  endfacet
  facet normal 0 0 1
    outer loop
      vertex 1 4 5
      vertex 5.57866 -2.20875 5
      vertex 5.8115 -1.49214 5
    endloop
  endfacet
  facet normal 0 0 1
    outer loop
      vertex 1 4 5
      vertex 5.8115 -1.49214 5
      vertex 5.95269 -0.751999 5
    endloop
  endfacet
  facet normal 0 0 1
    outer loop
      vertex 1 4 5
      vertex 5.95269 -0.751999 5
      vertex 6 0 5
    endloop
  endfacet
  facet normal 0 0 1
    outer loop
      vertex 1 4 5
      vertex 6 0 5
      vertex 5.95269 0.751999 5
    endloop
  endfacet
  facet normal 0 0 1
    outer loop
      vertex 1 4 5
      vertex 5.95269 0.751999 5
      vertex 5.8115 1.49214 5
    endloop
  endfacet
  facet normal 0 0 1
    outer loop
      vertex 1 4 5
      vertex 5.57866 2.20875 5
      vertex 5.25784 2.89052 5
    endloop
  endfacet
  facet normal 0 0 1
    outer loop
      vertex 1 4 5
      vertex 5.25784 2.89052 5
      vertex 4.8541 3.52671 5
    endloop
  endfacet
  facet normal 0 0 1
    outer loop
      vertex 0.376743 5.98816 5
      vertex -5.95269 0.751999 5
      vertex 1.12429 5.89372 5
    endloop
  endfacet
  facet normal 0 0 1
    outer loop
      vertex -0.376743 5.98816 5
      vertex -5.95269 0.751999 5
      vertex 0.376743 5.98816 5
    endloop
  endfacet
  facet normal 0 0 1
    outer loop
      vertex -1.12429 5.89372 5
      vertex -5.95269 0.751999 5
      vertex -0.376743 5.98816 5
    endloop
  endfacet
  facet normal 0 0 1
    outer loop
      vertex -1.8541 5.70634 5
      vertex -5.95269 0.751999 5
      vertex -1.12429 5.89372 5
    endloop
  endfacet
  facet normal 0 0 1
    outer loop
      vertex -2.55468 5.42896 5
      vertex -5.95269 0.751999 5
      vertex -1.8541 5.70634 5
    endloop
  endfacet
  facet normal 0 0 1
    outer loop
      vertex -3.21496 5.06597 5
      vertex -5.95269 0.751999 5
      vertex -2.55468 5.42896 5
    endloop
  endfacet
  facet normal 0 0 1
    outer loop
      vertex -3.82454 4.62308 5
      vertex -5.95269 0.751999 5
      vertex -3.21496 5.06597 5
    endloop
  endfacet
  facet normal 0 0 1
    outer loop
      vertex -4.37381 4.10728 5
      vertex -5.95269 0.751999 5
      vertex -3.82454 4.62308 5
    endloop
  endfacet
  facet normal 0 0 1
    outer loop
      vertex -4.8541 3.52671 5
      vertex -5.95269 0.751999 5
      vertex -4.37381 4.10728 5
    endloop
  endfacet
  facet normal 0 0 1
    outer loop
      vertex -5.25784 2.89052 5
      vertex -5.95269 0.751999 5
      vertex -4.8541 3.52671 5
    endloop
  endfacet
  facet normal 0 0 1
    outer loop
      vertex -5.57866 2.20875 5
      vertex -5.95269 0.751999 5
      vertex -5.25784 2.89052 5
    endloop
  endfacet
  facet normal 0 0 1
    outer loop
      vertex -5.8115 1.49214 5
      vertex -5.95269 0.751999 5
      vertex -5.57866 2.20875 5
    endloop
  endfacet
  facet normal 0 0 1
    outer loop
      vertex 1.12429 -5.89372 5
      vertex -1 -4 5
      vertex 0.376743 -5.98816 5
    endloop
  endfacet
  facet normal 0 0 1
    outer loop
      vertex -1 4 5
      vertex 2.55468 5.42896 5
      vertex 1.8541 5.70634 5
    endloop
  endfacet
  facet normal 0 0 1
    outer loop
      vertex 1.12429 5.89372 5
      vertex -1 4 5
      vertex 1.8541 5.70634 5
    endloop
  endfacet
  facet normal 0 0 1
    outer loop
      vertex 1.12429 5.89372 5
      vertex -5.95269 0.751999 5
      vertex -1 4 5
    endloop
  endfacet
  facet normal 0 0 1
    outer loop
      vertex 3.21496 5.06597 5
      vertex 1 4 5
      vertex 3.82454 4.62308 5
    endloop
  endfacet
  facet normal 0 0 1
    outer loop
      vertex 1 4 5
      vertex 5.8115 1.49214 5
      vertex 5.57866 2.20875 5
    endloop
  endfacet
  facet normal 0 0 1
    outer loop
      vertex 3.21496 -5.06597 5
      vertex 1 -4 5
      vertex 2.55468 -5.42896 5
    endloop
  endfacet
  facet normal 0 0 1
    outer loop
      vertex 1 -4 5
      vertex 1.8541 -5.70634 5
      vertex 2.55468 -5.42896 5
    endloop
  endfacet
  facet normal 0 0 1
    outer loop
      vertex 1 -4 5
      vertex 1.12429 -5.89372 5
      vertex 1.8541 -5.70634 5
    endloop
  endfacet
  facet normal 0 0 1
    outer loop
      vertex 1 -4 5
      vertex -1 -4 5
      vertex 1.12429 -5.89372 5
    endloop
  endfacet
  facet normal 0 0 1
    outer loop
      vertex 1 4 5
      vertex 4.8541 3.52671 5
      vertex 4.37381 4.10728 5
    endloop
  endfacet
  facet normal 0 0 1
    outer loop
      vertex -1 -4 5
      vertex -1 4 5
      vertex -5.95269 0.751999 5
    endloop
  endfacet
  facet normal 0 0 -1
    outer loop
      vertex -2.7 0 2.5
      vertex -2.65474 -0.314808 2.5
      vertex -3.2 3.91874e-016 2.5
    endloop
  endfacet
  facet normal 0 0 -1
    outer loop
      vertex -2.7 0 2.5
      vertex -3.2 3.91874e-016 2.5
      vertex -2.65474 0.314808 2.5
    endloop
  endfacet
  facet normal 0 0 -1
    outer loop
      vertex -2.7 0 3
      vertex -2.59063 0.760678 3
      vertex -2.59063 -0.760678 3
    endloop
  endfacet
  facet normal 0 0 -1
    outer loop
      vertex -2.59063 -0.760678 3
      vertex -2.59063 0.760678 3
      vertex -2.27138 1.45973 3
    endloop
  endfacet
  facet normal 0 0 -1
    outer loop
      vertex -2.59063 -0.760678 3
      vertex -2.27138 1.45973 3
      vertex -1.76812 2.04052 3
    endloop
  endfacet
  facet normal 0 0 -1
    outer loop
      vertex -2.59063 -0.760678 3
      vertex -1.76812 2.04052 3
      vertex -1.12162 2.45601 3
    endloop
  endfacet
  facet normal 0 0 -1
    outer loop
      vertex -2.59063 -0.760678 3
      vertex -1.12162 2.45601 3
      vertex -0.38425 2.67252 3
    endloop
  endfacet
  facet normal 0 0 -1
    outer loop
      vertex -2.59063 -0.760678 3
      vertex -0.38425 2.67252 3
      vertex 0.38425 2.67252 3
    endloop
  endfacet
  facet normal 0 0 -1
    outer loop
      vertex -2.59063 -0.760678 3
      vertex 0.38425 2.67252 3
      vertex 1.12162 2.45601 3
    endloop
  endfacet
  facet normal 0 0 -1
    outer loop
      vertex -2.59063 -0.760678 3
      vertex 1.12162 2.45601 3
      vertex 1.76812 2.04052 3
    endloop
  endfacet
  facet normal 0 0 -1
    outer loop
      vertex -2.59063 -0.760678 3
      vertex 1.76812 2.04052 3
      vertex 2.27138 1.45973 3
    endloop
  endfacet
  facet normal 0 0 -1
    outer loop
      vertex -2.59063 -0.760678 3
      vertex 2.27138 1.45973 3
      vertex 2.59063 0.760678 3
    endloop
  endfacet
  facet normal 0 0 -1
    outer loop
      vertex -2.59063 -0.760678 3
      vertex 2.59063 0.760678 3
      vertex 2.7 0 3
    endloop
  endfacet
  facet normal 0 0 -1
    outer loop
      vertex -2.59063 -0.760678 3
      vertex 2.7 0 3
      vertex 2.59063 -0.760678 3
    endloop
  endfacet
  facet normal 0 0 -1
    outer loop
      vertex -2.59063 -0.760678 3
      vertex 2.59063 -0.760678 3
      vertex 2.27138 -1.45973 3
    endloop
  endfacet
  facet normal 0 0 -1
    outer loop
      vertex -2.59063 -0.760678 3
      vertex 2.27138 -1.45973 3
      vertex 1.76812 -2.04052 3
    endloop
  endfacet
  facet normal 0 0 -1
    outer loop
      vertex -2.59063 -0.760678 3
      vertex 1.76812 -2.04052 3
      vertex 1.12162 -2.45601 3
    endloop
  endfacet
  facet normal 0 0 -1
    outer loop
      vertex -2.59063 -0.760678 3
      vertex 1.12162 -2.45601 3
      vertex 0.38425 -2.67252 3
    endloop
  endfacet
  facet normal 0 0 -1
    outer loop
      vertex -2.59063 -0.760678 3
      vertex 0.38425 -2.67252 3
      vertex -0.38425 -2.67252 3
    endloop
  endfacet
  facet normal 0 0 -1
    outer loop
      vertex -2.59063 -0.760678 3
      vertex -0.38425 -2.67252 3
      vertex -1.12162 -2.45601 3
    endloop
  endfacet
  facet normal 0 0 -1
    outer loop
      vertex -2.59063 -0.760678 3
      vertex -1.12162 -2.45601 3
      vertex -1.76812 -2.04052 3
    endloop
  endfacet
  facet normal 0 0 -1
    outer loop
      vertex -2.59063 -0.760678 3
      vertex -1.76812 -2.04052 3
      vertex -2.27138 -1.45973 3
    endloop
  endfacet
  facet normal 0 0 -1
    outer loop
      vertex -2.59063 0.760678 2.5
      vertex -2.63589 0.44587 2.5
      vertex -3.07038 0.901544 2.5
    endloop
  endfacet
  facet normal 0 0 -1
    outer loop
      vertex -2.59063 0.760678 2.5
      vertex -3.07038 0.901544 2.5
      vertex -2.45851 1.04998 2.5
    endloop
  endfacet
  facet normal 0 0 -1
    outer loop
      vertex -2.27138 1.45973 2.5
      vertex -2.40351 1.17043 2.5
      vertex -2.69201 1.73005 2.5
    endloop
  endfacet
  facet normal 0 0 -1
    outer loop
      vertex -2.27138 1.45973 2.5
      vertex -2.69201 1.73005 2.5
      vertex -2.06311 1.70009 2.5
    endloop
  endfacet
  facet normal 0 0 -1
    outer loop
      vertex -1.76812 2.04052 2.5
      vertex -1.9764 1.80016 2.5
      vertex -2.09555 2.4184 2.5
    endloop
  endfacet
  facet normal 0 0 -1
    outer loop
      vertex -1.76812 2.04052 2.5
      vertex -2.09555 2.4184 2.5
      vertex -1.50057 2.21247 2.5
    endloop
  endfacet
  facet normal 0 0 -1
    outer loop
      vertex -0.816459 2.54561 2.5
      vertex -1.12162 2.45601 2.5
      vertex -1.32933 2.91082 2.5
    endloop
  endfacet
  facet normal 0 0 -1
    outer loop
      vertex -1.32933 2.91082 2.5
      vertex -1.12162 2.45601 2.5
      vertex -1.38918 2.28406 2.5
    endloop
  endfacet
  facet normal 0 0 -1
    outer loop
      vertex -0.0662052 2.67252 2.5
      vertex -0.38425 2.67252 2.5
      vertex -0.455407 3.16743 2.5
    endloop
  endfacet
  facet normal 0 0 -1
    outer loop
      vertex -0.455407 3.16743 2.5
      vertex -0.38425 2.67252 2.5
      vertex -0.689412 2.58291 2.5
    endloop
  endfacet
  facet normal 0 0 -1
    outer loop
      vertex 0.689412 2.58291 2.5
      vertex 0.38425 2.67252 2.5
      vertex 0.455407 3.16743 2.5
    endloop
  endfacet
  facet normal 0 0 -1
    outer loop
      vertex 0.455407 3.16743 2.5
      vertex 0.38425 2.67252 2.5
      vertex 0.0662052 2.67252 2.5
    endloop
  endfacet
  facet normal 0 0 -1
    outer loop
      vertex 1.38918 2.28406 2.5
      vertex 1.12162 2.45601 2.5
      vertex 1.32933 2.91082 2.5
    endloop
  endfacet
  facet normal 0 0 -1
    outer loop
      vertex 1.32933 2.91082 2.5
      vertex 1.12162 2.45601 2.5
      vertex 0.816459 2.54561 2.5
    endloop
  endfacet
  facet normal 0 0 -1
    outer loop
      vertex 1.9764 1.80016 2.5
      vertex 1.76812 2.04052 2.5
      vertex 2.09555 2.4184 2.5
    endloop
  endfacet
  facet normal 0 0 -1
    outer loop
      vertex 2.09555 2.4184 2.5
      vertex 1.76812 2.04052 2.5
      vertex 1.50057 2.21247 2.5
    endloop
  endfacet
  facet normal 0 0 -1
    outer loop
      vertex 2.40351 1.17043 2.5
      vertex 2.27138 1.45973 2.5
      vertex 2.69201 1.73005 2.5
    endloop
  endfacet
  facet normal 0 0 -1
    outer loop
      vertex 2.69201 1.73005 2.5
      vertex 2.27138 1.45973 2.5
      vertex 2.06311 1.70009 2.5
    endloop
  endfacet
  facet normal 0 0 -1
    outer loop
      vertex 2.63589 0.44587 2.5
      vertex 2.59063 0.760678 2.5
      vertex 3.07038 0.901544 2.5
    endloop
  endfacet
  facet normal 0 0 -1
    outer loop
      vertex 3.07038 0.901544 2.5
      vertex 2.59063 0.760678 2.5
      vertex 2.45851 1.04998 2.5
    endloop
  endfacet
  facet normal 0 0 -1
    outer loop
      vertex 2.65474 0.314808 2.5
      vertex 3.2 0 2.5
      vertex 2.7 0 2.5
    endloop
  endfacet
  facet normal 0 0 -1
    outer loop
      vertex 2.7 0 2.5
      vertex 3.2 0 2.5
      vertex 3.2 -3.91874e-016 2.5
    endloop
  endfacet
  facet normal 0 0 -1
    outer loop
      vertex 2.7 0 2.5
      vertex 3.2 -3.91874e-016 2.5
      vertex 3.2 -7.83748e-016 2.5
    endloop
  endfacet
  facet normal 0 0 -1
    outer loop
      vertex 2.7 0 2.5
      vertex 3.2 -7.83748e-016 2.5
      vertex 2.65474 -0.314808 2.5
    endloop
  endfacet
  facet normal 0 0 -1
    outer loop
      vertex 2.63589 -0.44587 2.5
      vertex 3.07038 -0.901544 2.5
      vertex 2.59063 -0.760678 2.5
    endloop
  endfacet
  facet normal 0 0 -1
    outer loop
      vertex 2.59063 -0.760678 2.5
      vertex 3.07038 -0.901544 2.5
      vertex 2.45851 -1.04998 2.5
    endloop
  endfacet
  facet normal 0 0 -1
    outer loop
      vertex 2.40351 -1.17043 2.5
      vertex 2.69201 -1.73005 2.5
      vertex 2.27138 -1.45973 2.5
    endloop
  endfacet
  facet normal 0 0 -1
    outer loop
      vertex 2.27138 -1.45973 2.5
      vertex 2.69201 -1.73005 2.5
      vertex 2.06311 -1.70009 2.5
    endloop
  endfacet
  facet normal 0 0 -1
    outer loop
      vertex 1.9764 -1.80016 2.5
      vertex 2.09555 -2.4184 2.5
      vertex 1.76812 -2.04052 2.5
    endloop
  endfacet
  facet normal 0 0 -1
    outer loop
      vertex 1.76812 -2.04052 2.5
      vertex 2.09555 -2.4184 2.5
      vertex 1.50057 -2.21247 2.5
    endloop
  endfacet
  facet normal 0 0 -1
    outer loop
      vertex 1.38918 -2.28406 2.5
      vertex 1.32933 -2.91082 2.5
      vertex 1.12162 -2.45601 2.5
    endloop
  endfacet
  facet normal 0 0 -1
    outer loop
      vertex 1.12162 -2.45601 2.5
      vertex 1.32933 -2.91082 2.5
      vertex 0.816459 -2.54561 2.5
    endloop
  endfacet
  facet normal 0 0 -1
    outer loop
      vertex 0.689412 -2.58291 2.5
      vertex 0.455407 -3.16743 2.5
      vertex 0.38425 -2.67252 2.5
    endloop
  endfacet
  facet normal 0 0 -1
    outer loop
      vertex 0.38425 -2.67252 2.5
      vertex 0.455407 -3.16743 2.5
      vertex 0.0662052 -2.67252 2.5
    endloop
  endfacet
  facet normal 0 0 -1
    outer loop
      vertex -0.0662052 -2.67252 2.5
      vertex -0.455407 -3.16743 2.5
      vertex -0.38425 -2.67252 2.5
    endloop
  endfacet
  facet normal 0 0 -1
    outer loop
      vertex -0.38425 -2.67252 2.5
      vertex -0.455407 -3.16743 2.5
      vertex -0.689412 -2.58291 2.5
    endloop
  endfacet
  facet normal 0 0 -1
    outer loop
      vertex -0.816459 -2.54561 2.5
      vertex -1.32933 -2.91082 2.5
      vertex -1.12162 -2.45601 2.5
    endloop
  endfacet
  facet normal 0 0 -1
    outer loop
      vertex -1.12162 -2.45601 2.5
      vertex -1.32933 -2.91082 2.5
      vertex -1.38918 -2.28406 2.5
    endloop
  endfacet
  facet normal 0 0 -1
    outer loop
      vertex -1.76812 -2.04052 2.5
      vertex -1.50057 -2.21247 2.5
      vertex -2.09555 -2.4184 2.5
    endloop
  endfacet
  facet normal 0 0 -1
    outer loop
      vertex -1.76812 -2.04052 2.5
      vertex -2.09555 -2.4184 2.5
      vertex -1.9764 -1.80016 2.5
    endloop
  endfacet
  facet normal 0 0 -1
    outer loop
      vertex -2.27138 -1.45973 2.5
      vertex -2.06311 -1.70009 2.5
      vertex -2.69201 -1.73005 2.5
    endloop
  endfacet
  facet normal 0 0 -1
    outer loop
      vertex -2.27138 -1.45973 2.5
      vertex -2.69201 -1.73005 2.5
      vertex -2.40351 -1.17043 2.5
    endloop
  endfacet
  facet normal 0 0 -1
    outer loop
      vertex -2.59063 -0.760678 2.5
      vertex -2.45851 -1.04998 2.5
      vertex -3.07038 -0.901544 2.5
    endloop
  endfacet
  facet normal 0 0 -1
    outer loop
      vertex -2.59063 -0.760678 2.5
      vertex -3.07038 -0.901544 2.5
      vertex -2.63589 -0.44587 2.5
    endloop
  endfacet
  facet normal -1 0 0
    outer loop
      vertex -1 -4 5
      vertex -1 -4 13
      vertex -1 4 5
    endloop
  endfacet
  facet normal -1 0 0
    outer loop
      vertex -1 4 5
      vertex -1 -4 13
      vertex -1 4 13
    endloop
  endfacet
  facet normal 0 -1 0
    outer loop
      vertex -1 -4 13
      vertex -1 -4 5
      vertex 1 -4 5
    endloop
  endfacet
  facet normal 0 -1 0
    outer loop
      vertex 1 -4 13
      vertex -1 -4 13
      vertex 1 -4 5
    endloop
  endfacet
  facet normal 1 0 0
    outer loop
      vertex 1 -4 13
      vertex 1 -4 5
      vertex 1 4 5
    endloop
  endfacet
  facet normal 1 0 0
    outer loop
      vertex 1 4 13
      vertex 1 -4 13
      vertex 1 4 5
    endloop
  endfacet
  facet normal 0 1 0
    outer loop
      vertex -1 4 5
      vertex -1 4 13
      vertex 1 4 5
    endloop
  endfacet
  facet normal 0 1 0
    outer loop
      vertex 1 4 5
      vertex -1 4 13
      vertex 1 4 13
    endloop
  endfacet
  facet normal 0 0 1
    outer loop
      vertex -1 4 13
      vertex -1 -4 13
      vertex 1 -4 13
    endloop
  endfacet
  facet normal 0 0 1
    outer loop
      vertex 1 4 13
      vertex -1 4 13
      vertex 1 -4 13
    endloop
  endfacet
endsolid OpenSCAD_Model
