solid OpenSCAD_Model
  facet normal -1 0 0
    outer loop
      vertex -27.5 -10 -1.5
      vertex -27.5 -10 1.5
      vertex -27.5 10 -1.5
    endloop
  endfacet
  facet normal -1 0 0
    outer loop
      vertex -27.5 10 -1.5
      vertex -27.5 -10 1.5
      vertex -27.5 10 1.5
    endloop
  endfacet
  facet normal 0 -1 0
    outer loop
      vertex -27.5 -10 1.5
      vertex -27.5 -10 -1.5
      vertex 13.6 -10 -1.5
    endloop
  endfacet
  facet normal 0 -1 0
    outer loop
      vertex 13.6 -10 1.5
      vertex -27.5 -10 1.5
      vertex 13.6 -10 -1.5
    endloop
  endfacet
  facet normal 0 0 -1
    outer loop
      vertex -18.2002 2.14492 -1.5
      vertex -27.5 10 -1.5
      vertex 13.6 -10 -1.5
    endloop
  endfacet
  facet normal 0 0 -1
    outer loop
      vertex 16.6 3 -1.5
      vertex -27.5 10 -1.5
      vertex 27.5 10 -1.5
    endloop
  endfacet
  facet normal 0 0 -1
    outer loop
      vertex 19.6 -10 -1.5
      vertex 27.5 10 -1.5
      vertex 27.5 -10 -1.5
    endloop
  endfacet
  facet normal 0 0 -1
    outer loop
      vertex 19.4532 0.927051 -1.5
      vertex 19.6 0.5 -1.5
      vertex 19.4532 0.5 -1.5
    endloop
  endfacet
  facet normal 0 0 -1
    outer loop
      vertex 13.6 0.5 -1.5
      vertex 13.7468 0.927051 -1.5
      vertex 13.7468 0.5 -1.5
    endloop
  endfacet
  facet normal 0 0 -1
    outer loop
      vertex 14.8366 2.42705 -1.5
      vertex -27.5 10 -1.5
      vertex 16.6 3 -1.5
    endloop
  endfacet
  facet normal 0 0 -1
    outer loop
      vertex 19.6 0.5 -1.5
      vertex 19.4532 0.927051 -1.5
      vertex 27.5 10 -1.5
    endloop
  endfacet
  facet normal 0 0 -1
    outer loop
      vertex 13.7468 0.927051 -1.5
      vertex -27.5 10 -1.5
      vertex 14.8366 2.42705 -1.5
    endloop
  endfacet
  facet normal 0 0 -1
    outer loop
      vertex 19.4532 0.927051 -1.5
      vertex 18.3634 2.42705 -1.5
      vertex 27.5 10 -1.5
    endloop
  endfacet
  facet normal 0 0 -1
    outer loop
      vertex 18.3634 2.42705 -1.5
      vertex 16.6 3 -1.5
      vertex 27.5 10 -1.5
    endloop
  endfacet
  facet normal 0 0 -1
    outer loop
      vertex 13.6 0.5 -1.5
      vertex -27.5 10 -1.5
      vertex 13.7468 0.927051 -1.5
    endloop
  endfacet
  facet normal 0 0 -1
    outer loop
      vertex 13.6 -10 -1.5
      vertex -27.5 10 -1.5
      vertex 13.6 0.5 -1.5
    endloop
  endfacet
  facet normal 0 0 -1
    outer loop
      vertex -17.5751 -1.4 -1.5
      vertex 13.6 -10 -1.5
      vertex -19.0423 -2.63114 -1.5
    endloop
  endfacet
  facet normal 0 0 -1
    outer loop
      vertex -27.5 -10 -1.5
      vertex -27.5 10 -1.5
      vertex -22.7575 0.486215 -1.5
    endloop
  endfacet
  facet normal 0 0 -1
    outer loop
      vertex -27.5 -10 -1.5
      vertex -22.7575 0.486215 -1.5
      vertex -22.4249 -1.4 -1.5
    endloop
  endfacet
  facet normal 0 0 -1
    outer loop
      vertex -27.5 -10 -1.5
      vertex -22.4249 -1.4 -1.5
      vertex -20.9577 -2.63114 -1.5
    endloop
  endfacet
  facet normal 0 0 -1
    outer loop
      vertex -27.5 -10 -1.5
      vertex -20.9577 -2.63114 -1.5
      vertex 13.6 -10 -1.5
    endloop
  endfacet
  facet normal 0 0 -1
    outer loop
      vertex -20.9577 -2.63114 -1.5
      vertex -19.0423 -2.63114 -1.5
      vertex 13.6 -10 -1.5
    endloop
  endfacet
  facet normal 0 0 -1
    outer loop
      vertex -17.2425 0.486215 -1.5
      vertex 13.6 -10 -1.5
      vertex -17.5751 -1.4 -1.5
    endloop
  endfacet
  facet normal 0 0 -1
    outer loop
      vertex -20 2.8 -1.5
      vertex -27.5 10 -1.5
      vertex -18.2002 2.14492 -1.5
    endloop
  endfacet
  facet normal 0 0 -1
    outer loop
      vertex -17.2425 0.486215 -1.5
      vertex -18.2002 2.14492 -1.5
      vertex 13.6 -10 -1.5
    endloop
  endfacet
  facet normal 0 0 -1
    outer loop
      vertex -21.7998 2.14492 -1.5
      vertex -27.5 10 -1.5
      vertex -20 2.8 -1.5
    endloop
  endfacet
  facet normal 0 0 -1
    outer loop
      vertex -22.7575 0.486215 -1.5
      vertex -27.5 10 -1.5
      vertex -21.7998 2.14492 -1.5
    endloop
  endfacet
  facet normal 0 0 -1
    outer loop
      vertex 19.6 0.5 -1.5
      vertex 27.5 10 -1.5
      vertex 19.6 -10 -1.5
    endloop
  endfacet
  facet normal 0 1 0
    outer loop
      vertex -27.5 10 -1.5
      vertex -27.5 10 1.5
      vertex 27.5 10 -1.5
    endloop
  endfacet
  facet normal 0 1 0
    outer loop
      vertex 27.5 10 -1.5
      vertex -27.5 10 1.5
      vertex 27.5 10 1.5
    endloop
  endfacet
  facet normal 0 0 1
    outer loop
      vertex -19.0423 -2.63114 1.5
      vertex -27.5 -10 1.5
      vertex 13.6 -10 1.5
    endloop
  endfacet
  facet normal 0 0 1
    outer loop
      vertex 13.7468 0.5 1.5
      vertex -27.5 10 1.5
      vertex 13.6 0.5 1.5
    endloop
  endfacet
  facet normal 0 0 1
    outer loop
      vertex 13.6 0.5 1.5
      vertex -27.5 10 1.5
      vertex 13.6 -10 1.5
    endloop
  endfacet
  facet normal 0 0 1
    outer loop
      vertex 13.7468 0.927051 1.5
      vertex -27.5 10 1.5
      vertex 13.7468 0.5 1.5
    endloop
  endfacet
  facet normal 0 0 1
    outer loop
      vertex 14.8366 2.42705 1.5
      vertex -27.5 10 1.5
      vertex 13.7468 0.927051 1.5
    endloop
  endfacet
  facet normal 0 0 1
    outer loop
      vertex 16.6 3 1.5
      vertex -27.5 10 1.5
      vertex 14.8366 2.42705 1.5
    endloop
  endfacet
  facet normal 0 0 1
    outer loop
      vertex 27.5 10 1.5
      vertex -27.5 10 1.5
      vertex 16.6 3 1.5
    endloop
  endfacet
  facet normal 0 0 1
    outer loop
      vertex 27.5 10 1.5
      vertex 16.6 3 1.5
      vertex 18.3634 2.42705 1.5
    endloop
  endfacet
  facet normal 0 0 1
    outer loop
      vertex 27.5 -10 1.5
      vertex 18.3634 2.42705 1.5
      vertex 19.4532 0.927051 1.5
    endloop
  endfacet
  facet normal 0 0 1
    outer loop
      vertex 19.6 0.5 1.5
      vertex 19.4532 0.927051 1.5
      vertex 19.4532 0.5 1.5
    endloop
  endfacet
  facet normal 0 0 1
    outer loop
      vertex 27.5 -10 1.5
      vertex 19.4532 0.927051 1.5
      vertex 19.6 0.5 1.5
    endloop
  endfacet
  facet normal 0 0 1
    outer loop
      vertex 27.5 -10 1.5
      vertex 19.6 0.5 1.5
      vertex 19.6 -10 1.5
    endloop
  endfacet
  facet normal 0 0 1
    outer loop
      vertex 27.5 10 1.5
      vertex 18.3634 2.42705 1.5
      vertex 27.5 -10 1.5
    endloop
  endfacet
  facet normal 0 0 1
    outer loop
      vertex -27.5 10 1.5
      vertex -27.5 -10 1.5
      vertex -22.4249 -1.4 1.5
    endloop
  endfacet
  facet normal 0 0 1
    outer loop
      vertex -17.5751 -1.4 1.5
      vertex -19.0423 -2.63114 1.5
      vertex 13.6 -10 1.5
    endloop
  endfacet
  facet normal 0 0 1
    outer loop
      vertex -27.5 10 1.5
      vertex -22.4249 -1.4 1.5
      vertex -22.7575 0.486215 1.5
    endloop
  endfacet
  facet normal 0 0 1
    outer loop
      vertex -17.2425 0.486215 1.5
      vertex -17.5751 -1.4 1.5
      vertex 13.6 -10 1.5
    endloop
  endfacet
  facet normal 0 0 1
    outer loop
      vertex -27.5 10 1.5
      vertex -22.7575 0.486215 1.5
      vertex -21.7998 2.14492 1.5
    endloop
  endfacet
  facet normal 0 0 1
    outer loop
      vertex -27.5 10 1.5
      vertex -21.7998 2.14492 1.5
      vertex -20 2.8 1.5
    endloop
  endfacet
  facet normal 0 0 1
    outer loop
      vertex -27.5 10 1.5
      vertex -18.2002 2.14492 1.5
      vertex 13.6 -10 1.5
    endloop
  endfacet
  facet normal 0 0 1
    outer loop
      vertex -27.5 10 1.5
      vertex -20 2.8 1.5
      vertex -18.2002 2.14492 1.5
    endloop
  endfacet
  facet normal 0 0 1
    outer loop
      vertex -20.9577 -2.63114 1.5
      vertex -27.5 -10 1.5
      vertex -19.0423 -2.63114 1.5
    endloop
  endfacet
  facet normal 0 0 1
    outer loop
      vertex -22.4249 -1.4 1.5
      vertex -27.5 -10 1.5
      vertex -20.9577 -2.63114 1.5
    endloop
  endfacet
  facet normal 0 0 1
    outer loop
      vertex -18.2002 2.14492 1.5
      vertex -17.2425 0.486215 1.5
      vertex 13.6 -10 1.5
    endloop
  endfacet
  facet normal 1 0 0
    outer loop
      vertex 13.6 0.5 -1.5
      vertex 13.6 0.5 1.5
      vertex 13.6 -10 1.5
    endloop
  endfacet
  facet normal 1 0 0
    outer loop
      vertex 13.6 -10 -1.5
      vertex 13.6 0.5 -1.5
      vertex 13.6 -10 1.5
    endloop
  endfacet
  facet normal 0 -1 0
    outer loop
      vertex 13.7468 0.5 -1.5
      vertex 13.7468 0.5 1.5
      vertex 13.6 0.5 1.5
    endloop
  endfacet
  facet normal 0 -1 0
    outer loop
      vertex 13.6 0.5 -1.5
      vertex 13.7468 0.5 -1.5
      vertex 13.6 0.5 1.5
    endloop
  endfacet
  facet normal 1 -1.77321e-016 0
    outer loop
      vertex 13.7468 0.927051 -1.5
      vertex 13.7468 0.927051 1.5
      vertex 13.7468 0.5 1.5
    endloop
  endfacet
  facet normal 1 -1.77321e-016 0
    outer loop
      vertex 13.7468 0.5 -1.5
      vertex 13.7468 0.927051 -1.5
      vertex 13.7468 0.5 1.5
    endloop
  endfacet
  facet normal 0.809017 -0.587785 0
    outer loop
      vertex 14.8366 2.42705 -1.5
      vertex 14.8366 2.42705 1.5
      vertex 13.7468 0.927051 1.5
    endloop
  endfacet
  facet normal 0.809017 -0.587785 0
    outer loop
      vertex 13.7468 0.927051 -1.5
      vertex 14.8366 2.42705 -1.5
      vertex 13.7468 0.927051 1.5
    endloop
  endfacet
  facet normal 0.309017 -0.951057 0
    outer loop
      vertex 16.6 3 -1.5
      vertex 16.6 3 1.5
      vertex 14.8366 2.42705 1.5
    endloop
  endfacet
  facet normal 0.309017 -0.951057 0
    outer loop
      vertex 14.8366 2.42705 -1.5
      vertex 16.6 3 -1.5
      vertex 14.8366 2.42705 1.5
    endloop
  endfacet
  facet normal -0.309017 -0.951057 0
    outer loop
      vertex 18.3634 2.42705 -1.5
      vertex 18.3634 2.42705 1.5
      vertex 16.6 3 1.5
    endloop
  endfacet
  facet normal -0.309017 -0.951057 0
    outer loop
      vertex 16.6 3 -1.5
      vertex 18.3634 2.42705 -1.5
      vertex 16.6 3 1.5
    endloop
  endfacet
  facet normal -0.809017 -0.587785 0
    outer loop
      vertex 19.4532 0.927051 1.5
      vertex 18.3634 2.42705 1.5
      vertex 19.4532 0.927051 -1.5
    endloop
  endfacet
  facet normal -0.809017 -0.587785 0
    outer loop
      vertex 19.4532 0.927051 -1.5
      vertex 18.3634 2.42705 1.5
      vertex 18.3634 2.42705 -1.5
    endloop
  endfacet
  facet normal -1 1.77321e-016 0
    outer loop
      vertex 19.4532 0.927051 1.5
      vertex 19.4532 0.927051 -1.5
      vertex 19.4532 0.5 1.5
    endloop
  endfacet
  facet normal -1 1.77321e-016 0
    outer loop
      vertex 19.4532 0.5 1.5
      vertex 19.4532 0.927051 -1.5
      vertex 19.4532 0.5 -1.5
    endloop
  endfacet
  facet normal 0 -1 0
    outer loop
      vertex 19.6 0.5 -1.5
      vertex 19.6 0.5 1.5
      vertex 19.4532 0.5 1.5
    endloop
  endfacet
  facet normal 0 -1 0
    outer loop
      vertex 19.4532 0.5 -1.5
      vertex 19.6 0.5 -1.5
      vertex 19.4532 0.5 1.5
    endloop
  endfacet
  facet normal -1 0 0
    outer loop
      vertex 19.6 0.5 1.5
      vertex 19.6 0.5 -1.5
      vertex 19.6 -10 1.5
    endloop
  endfacet
  facet normal -1 0 0
    outer loop
      vertex 19.6 -10 1.5
      vertex 19.6 0.5 -1.5
      vertex 19.6 -10 -1.5
    endloop
  endfacet
  facet normal 0 -1 0
    outer loop
      vertex 19.6 -10 1.5
      vertex 19.6 -10 -1.5
      vertex 27.5 -10 -1.5
    endloop
  endfacet
  facet normal 0 -1 0
    outer loop
      vertex 27.5 -10 1.5
      vertex 19.6 -10 1.5
      vertex 27.5 -10 -1.5
    endloop
  endfacet
  facet normal 1 0 0
    outer loop
      vertex 27.5 -10 1.5
      vertex 27.5 -10 -1.5
      vertex 27.5 10 -1.5
    endloop
  endfacet
  facet normal 1 0 0
    outer loop
      vertex 27.5 10 1.5
      vertex 27.5 -10 1.5
      vertex 27.5 10 -1.5
    endloop
  endfacet
  facet normal 0.866025 -0.5 0
    outer loop
      vertex -21.7998 2.14492 -1.5
      vertex -21.7998 2.14492 1.5
      vertex -22.7575 0.486215 1.5
    endloop
  endfacet
  facet normal 0.866025 -0.5 0
    outer loop
      vertex -22.7575 0.486215 -1.5
      vertex -21.7998 2.14492 -1.5
      vertex -22.7575 0.486215 1.5
    endloop
  endfacet
  facet normal 0.984808 0.173648 0
    outer loop
      vertex -22.7575 0.486215 1.5
      vertex -22.4249 -1.4 1.5
      vertex -22.4249 -1.4 -1.5
    endloop
  endfacet
  facet normal 0.984808 0.173648 0
    outer loop
      vertex -22.7575 0.486215 -1.5
      vertex -22.7575 0.486215 1.5
      vertex -22.4249 -1.4 -1.5
    endloop
  endfacet
  facet normal 0.34202 -0.939693 0
    outer loop
      vertex -20 2.8 -1.5
      vertex -20 2.8 1.5
      vertex -21.7998 2.14492 1.5
    endloop
  endfacet
  facet normal 0.34202 -0.939693 0
    outer loop
      vertex -21.7998 2.14492 -1.5
      vertex -20 2.8 -1.5
      vertex -21.7998 2.14492 1.5
    endloop
  endfacet
  facet normal -0.34202 -0.939693 0
    outer loop
      vertex -18.2002 2.14492 -1.5
      vertex -18.2002 2.14492 1.5
      vertex -20 2.8 1.5
    endloop
  endfacet
  facet normal -0.34202 -0.939693 0
    outer loop
      vertex -20 2.8 -1.5
      vertex -18.2002 2.14492 -1.5
      vertex -20 2.8 1.5
    endloop
  endfacet
  facet normal -0.866025 -0.5 0
    outer loop
      vertex -17.2425 0.486215 1.5
      vertex -18.2002 2.14492 1.5
      vertex -17.2425 0.486215 -1.5
    endloop
  endfacet
  facet normal -0.866025 -0.5 0
    outer loop
      vertex -17.2425 0.486215 -1.5
      vertex -18.2002 2.14492 1.5
      vertex -18.2002 2.14492 -1.5
    endloop
  endfacet
  facet normal -0.984808 0.173648 0
    outer loop
      vertex -17.2425 0.486215 1.5
      vertex -17.2425 0.486215 -1.5
      vertex -17.5751 -1.4 1.5
    endloop
  endfacet
  facet normal -0.984808 0.173648 0
    outer loop
      vertex -17.5751 -1.4 1.5
      vertex -17.2425 0.486215 -1.5
      vertex -17.5751 -1.4 -1.5
    endloop
  endfacet
  facet normal -0.642787 0.766045 0
    outer loop
      vertex -17.5751 -1.4 1.5
      vertex -17.5751 -1.4 -1.5
      vertex -19.0423 -2.63114 1.5
    endloop
  endfacet
  facet normal -0.642787 0.766045 0
    outer loop
      vertex -19.0423 -2.63114 1.5
      vertex -17.5751 -1.4 -1.5
      vertex -19.0423 -2.63114 -1.5
    endloop
  endfacet
  facet normal 1.77321e-016 1 0
    outer loop
      vertex -19.0423 -2.63114 1.5
      vertex -19.0423 -2.63114 -1.5
      vertex -20.9577 -2.63114 1.5
    endloop
  endfacet
  facet normal 1.77321e-016 1 0
    outer loop
      vertex -20.9577 -2.63114 1.5
      vertex -19.0423 -2.63114 -1.5
      vertex -20.9577 -2.63114 -1.5
    endloop
  endfacet
  facet normal 0.642787 0.766045 0
    outer loop
      vertex -20.9577 -2.63114 1.5
      vertex -20.9577 -2.63114 -1.5
      vertex -22.4249 -1.4 1.5
    endloop
  endfacet
  facet normal 0.642787 0.766045 0
    outer loop
      vertex -22.4249 -1.4 1.5
      vertex -20.9577 -2.63114 -1.5
      vertex -22.4249 -1.4 -1.5
    endloop
  endfacet
endsolid OpenSCAD_Model
