solid OpenSCAD_Model
  facet normal -1 0 0
    outer loop
      vertex -20 -10 -1.5
      vertex -20 -10 1.5
      vertex -20 10 -1.5
    endloop
  endfacet
  facet normal -1 0 0
    outer loop
      vertex -20 10 -1.5
      vertex -20 -10 1.5
      vertex -20 10 1.5
    endloop
  endfacet
  facet normal 0 -1 0
    outer loop
      vertex -20 -10 1.5
      vertex -20 -10 -1.5
      vertex 9.4 -10 -1.5
    endloop
  endfacet
  facet normal 0 -1 0
    outer loop
      vertex 9.4 -10 1.5
      vertex -20 -10 1.5
      vertex 9.4 -10 -1.5
    endloop
  endfacet
  facet normal 0 0 -1
    outer loop
      vertex -10.2002 2.14492 -1.5
      vertex -20 10 -1.5
      vertex 9.4 -10 -1.5
    endloop
  endfacet
  facet normal 0 0 -1
    outer loop
      vertex 12 2.6 -1.5
      vertex -20 10 -1.5
      vertex 20 10 -1.5
    endloop
  endfacet
  facet normal 0 0 -1
    outer loop
      vertex 14.6 -10 -1.5
      vertex 20 10 -1.5
      vertex 20 -10 -1.5
    endloop
  endfacet
  facet normal 0 0 -1
    outer loop
      vertex 13.6712 1.99172 -1.5
      vertex 14.6 0.5 -1.5
      vertex 14.5325 0.5 -1.5
    endloop
  endfacet
  facet normal 0 0 -1
    outer loop
      vertex -9.57513 -1.4 -1.5
      vertex 9.4 -10 -1.5
      vertex -11.0423 -2.63114 -1.5
    endloop
  endfacet
  facet normal 0 0 -1
    outer loop
      vertex 9.46751 0.5 -1.5
      vertex -20 10 -1.5
      vertex 10.3288 1.99172 -1.5
    endloop
  endfacet
  facet normal 0 0 -1
    outer loop
      vertex 14.6 0.5 -1.5
      vertex 13.6712 1.99172 -1.5
      vertex 20 10 -1.5
    endloop
  endfacet
  facet normal 0 0 -1
    outer loop
      vertex 13.6712 1.99172 -1.5
      vertex 12 2.6 -1.5
      vertex 20 10 -1.5
    endloop
  endfacet
  facet normal 0 0 -1
    outer loop
      vertex 10.3288 1.99172 -1.5
      vertex -20 10 -1.5
      vertex 12 2.6 -1.5
    endloop
  endfacet
  facet normal 0 0 -1
    outer loop
      vertex 9.4 0.5 -1.5
      vertex -20 10 -1.5
      vertex 9.46751 0.5 -1.5
    endloop
  endfacet
  facet normal 0 0 -1
    outer loop
      vertex 9.4 -10 -1.5
      vertex -20 10 -1.5
      vertex 9.4 0.5 -1.5
    endloop
  endfacet
  facet normal 0 0 -1
    outer loop
      vertex -20 -10 -1.5
      vertex -20 10 -1.5
      vertex -14.7575 0.486215 -1.5
    endloop
  endfacet
  facet normal 0 0 -1
    outer loop
      vertex -20 -10 -1.5
      vertex -14.7575 0.486215 -1.5
      vertex -14.4249 -1.4 -1.5
    endloop
  endfacet
  facet normal 0 0 -1
    outer loop
      vertex -20 -10 -1.5
      vertex -14.4249 -1.4 -1.5
      vertex -12.9577 -2.63114 -1.5
    endloop
  endfacet
  facet normal 0 0 -1
    outer loop
      vertex -20 -10 -1.5
      vertex -12.9577 -2.63114 -1.5
      vertex 9.4 -10 -1.5
    endloop
  endfacet
  facet normal 0 0 -1
    outer loop
      vertex -12.9577 -2.63114 -1.5
      vertex -11.0423 -2.63114 -1.5
      vertex 9.4 -10 -1.5
    endloop
  endfacet
  facet normal 0 0 -1
    outer loop
      vertex -12 2.8 -1.5
      vertex -20 10 -1.5
      vertex -10.2002 2.14492 -1.5
    endloop
  endfacet
  facet normal 0 0 -1
    outer loop
      vertex -13.7998 2.14492 -1.5
      vertex -20 10 -1.5
      vertex -12 2.8 -1.5
    endloop
  endfacet
  facet normal 0 0 -1
    outer loop
      vertex -9.57513 -1.4 -1.5
      vertex -9.24254 0.486215 -1.5
      vertex 9.4 -10 -1.5
    endloop
  endfacet
  facet normal 0 0 -1
    outer loop
      vertex -9.24254 0.486215 -1.5
      vertex -10.2002 2.14492 -1.5
      vertex 9.4 -10 -1.5
    endloop
  endfacet
  facet normal 0 0 -1
    outer loop
      vertex -14.7575 0.486215 -1.5
      vertex -20 10 -1.5
      vertex -13.7998 2.14492 -1.5
    endloop
  endfacet
  facet normal 0 0 -1
    outer loop
      vertex 14.6 0.5 -1.5
      vertex 20 10 -1.5
      vertex 14.6 -10 -1.5
    endloop
  endfacet
  facet normal 0 1 0
    outer loop
      vertex -20 10 -1.5
      vertex -20 10 1.5
      vertex 20 10 -1.5
    endloop
  endfacet
  facet normal 0 1 0
    outer loop
      vertex 20 10 -1.5
      vertex -20 10 1.5
      vertex 20 10 1.5
    endloop
  endfacet
  facet normal 0 0 1
    outer loop
      vertex -11.0423 -2.63114 1.5
      vertex -20 -10 1.5
      vertex 9.4 -10 1.5
    endloop
  endfacet
  facet normal 0 0 1
    outer loop
      vertex 9.46751 0.5 1.5
      vertex -20 10 1.5
      vertex 9.4 0.5 1.5
    endloop
  endfacet
  facet normal 0 0 1
    outer loop
      vertex 9.4 0.5 1.5
      vertex -20 10 1.5
      vertex 9.4 -10 1.5
    endloop
  endfacet
  facet normal 0 0 1
    outer loop
      vertex 10.3288 1.99172 1.5
      vertex -20 10 1.5
      vertex 9.46751 0.5 1.5
    endloop
  endfacet
  facet normal 0 0 1
    outer loop
      vertex 12 2.6 1.5
      vertex -20 10 1.5
      vertex 10.3288 1.99172 1.5
    endloop
  endfacet
  facet normal 0 0 1
    outer loop
      vertex 20 10 1.5
      vertex -20 10 1.5
      vertex 12 2.6 1.5
    endloop
  endfacet
  facet normal 0 0 1
    outer loop
      vertex 20 10 1.5
      vertex 12 2.6 1.5
      vertex 13.6712 1.99172 1.5
    endloop
  endfacet
  facet normal 0 0 1
    outer loop
      vertex 14.6 0.5 1.5
      vertex 13.6712 1.99172 1.5
      vertex 14.5325 0.5 1.5
    endloop
  endfacet
  facet normal 0 0 1
    outer loop
      vertex 20 10 1.5
      vertex 13.6712 1.99172 1.5
      vertex 14.6 0.5 1.5
    endloop
  endfacet
  facet normal 0 0 1
    outer loop
      vertex 20 -10 1.5
      vertex 14.6 0.5 1.5
      vertex 14.6 -10 1.5
    endloop
  endfacet
  facet normal 0 0 1
    outer loop
      vertex 20 10 1.5
      vertex 14.6 0.5 1.5
      vertex 20 -10 1.5
    endloop
  endfacet
  facet normal 0 0 1
    outer loop
      vertex -20 10 1.5
      vertex -20 -10 1.5
      vertex -14.4249 -1.4 1.5
    endloop
  endfacet
  facet normal 0 0 1
    outer loop
      vertex -20 10 1.5
      vertex -14.4249 -1.4 1.5
      vertex -14.7575 0.486215 1.5
    endloop
  endfacet
  facet normal 0 0 1
    outer loop
      vertex -20 10 1.5
      vertex -14.7575 0.486215 1.5
      vertex -13.7998 2.14492 1.5
    endloop
  endfacet
  facet normal 0 0 1
    outer loop
      vertex -9.24254 0.486215 1.5
      vertex -9.57513 -1.4 1.5
      vertex 9.4 -10 1.5
    endloop
  endfacet
  facet normal 0 0 1
    outer loop
      vertex -20 10 1.5
      vertex -13.7998 2.14492 1.5
      vertex -12 2.8 1.5
    endloop
  endfacet
  facet normal 0 0 1
    outer loop
      vertex -20 10 1.5
      vertex -10.2002 2.14492 1.5
      vertex 9.4 -10 1.5
    endloop
  endfacet
  facet normal 0 0 1
    outer loop
      vertex -20 10 1.5
      vertex -12 2.8 1.5
      vertex -10.2002 2.14492 1.5
    endloop
  endfacet
  facet normal 0 0 1
    outer loop
      vertex -12.9577 -2.63114 1.5
      vertex -20 -10 1.5
      vertex -11.0423 -2.63114 1.5
    endloop
  endfacet
  facet normal 0 0 1
    outer loop
      vertex -14.4249 -1.4 1.5
      vertex -20 -10 1.5
      vertex -12.9577 -2.63114 1.5
    endloop
  endfacet
  facet normal 0 0 1
    outer loop
      vertex -10.2002 2.14492 1.5
      vertex -9.24254 0.486215 1.5
      vertex 9.4 -10 1.5
    endloop
  endfacet
  facet normal 0 0 1
    outer loop
      vertex -9.57513 -1.4 1.5
      vertex -11.0423 -2.63114 1.5
      vertex 9.4 -10 1.5
    endloop
  endfacet
  facet normal 1 0 0
    outer loop
      vertex 9.4 0.5 -1.5
      vertex 9.4 0.5 1.5
      vertex 9.4 -10 1.5
    endloop
  endfacet
  facet normal 1 0 0
    outer loop
      vertex 9.4 -10 -1.5
      vertex 9.4 0.5 -1.5
      vertex 9.4 -10 1.5
    endloop
  endfacet
  facet normal 0 -1 0
    outer loop
      vertex 9.46751 0.5 -1.5
      vertex 9.46751 0.5 1.5
      vertex 9.4 0.5 1.5
    endloop
  endfacet
  facet normal 0 -1 0
    outer loop
      vertex 9.4 0.5 -1.5
      vertex 9.46751 0.5 -1.5
      vertex 9.4 0.5 1.5
    endloop
  endfacet
  facet normal 0.866026 -0.5 0
    outer loop
      vertex 10.3288 1.99172 -1.5
      vertex 10.3288 1.99172 1.5
      vertex 9.46751 0.5 1.5
    endloop
  endfacet
  facet normal 0.866026 -0.5 0
    outer loop
      vertex 9.46751 0.5 -1.5
      vertex 10.3288 1.99172 -1.5
      vertex 9.46751 0.5 1.5
    endloop
  endfacet
  facet normal 0.34202 -0.939693 0
    outer loop
      vertex 12 2.6 -1.5
      vertex 12 2.6 1.5
      vertex 10.3288 1.99172 1.5
    endloop
  endfacet
  facet normal 0.34202 -0.939693 0
    outer loop
      vertex 10.3288 1.99172 -1.5
      vertex 12 2.6 -1.5
      vertex 10.3288 1.99172 1.5
    endloop
  endfacet
  facet normal -0.34202 -0.939693 0
    outer loop
      vertex 13.6712 1.99172 -1.5
      vertex 13.6712 1.99172 1.5
      vertex 12 2.6 1.5
    endloop
  endfacet
  facet normal -0.34202 -0.939693 0
    outer loop
      vertex 12 2.6 -1.5
      vertex 13.6712 1.99172 -1.5
      vertex 12 2.6 1.5
    endloop
  endfacet
  facet normal -0.866026 -0.5 0
    outer loop
      vertex 14.5325 0.5 1.5
      vertex 13.6712 1.99172 1.5
      vertex 14.5325 0.5 -1.5
    endloop
  endfacet
  facet normal -0.866026 -0.5 0
    outer loop
      vertex 14.5325 0.5 -1.5
      vertex 13.6712 1.99172 1.5
      vertex 13.6712 1.99172 -1.5
    endloop
  endfacet
  facet normal 0 -1 0
    outer loop
      vertex 14.6 0.5 -1.5
      vertex 14.6 0.5 1.5
      vertex 14.5325 0.5 1.5
    endloop
  endfacet
  facet normal 0 -1 0
    outer loop
      vertex 14.5325 0.5 -1.5
      vertex 14.6 0.5 -1.5
      vertex 14.5325 0.5 1.5
    endloop
  endfacet
  facet normal -1 0 0
    outer loop
      vertex 14.6 0.5 1.5
      vertex 14.6 0.5 -1.5
      vertex 14.6 -10 1.5
    endloop
  endfacet
  facet normal -1 0 0
    outer loop
      vertex 14.6 -10 1.5
      vertex 14.6 0.5 -1.5
      vertex 14.6 -10 -1.5
    endloop
  endfacet
  facet normal 0 -1 0
    outer loop
      vertex 14.6 -10 1.5
      vertex 14.6 -10 -1.5
      vertex 20 -10 -1.5
    endloop
  endfacet
  facet normal 0 -1 0
    outer loop
      vertex 20 -10 1.5
      vertex 14.6 -10 1.5
      vertex 20 -10 -1.5
    endloop
  endfacet
  facet normal 1 0 0
    outer loop
      vertex 20 -10 1.5
      vertex 20 -10 -1.5
      vertex 20 10 -1.5
    endloop
  endfacet
  facet normal 1 0 0
    outer loop
      vertex 20 10 1.5
      vertex 20 -10 1.5
      vertex 20 10 -1.5
    endloop
  endfacet
  facet normal 0.984808 0.173648 0
    outer loop
      vertex -14.7575 0.486215 1.5
      vertex -14.4249 -1.4 1.5
      vertex -14.4249 -1.4 -1.5
    endloop
  endfacet
  facet normal 0.984808 0.173648 0
    outer loop
      vertex -14.7575 0.486215 -1.5
      vertex -14.7575 0.486215 1.5
      vertex -14.4249 -1.4 -1.5
    endloop
  endfacet
  facet normal 0.866025 -0.5 0
    outer loop
      vertex -13.7998 2.14492 -1.5
      vertex -13.7998 2.14492 1.5
      vertex -14.7575 0.486215 1.5
    endloop
  endfacet
  facet normal 0.866025 -0.5 0
    outer loop
      vertex -14.7575 0.486215 -1.5
      vertex -13.7998 2.14492 -1.5
      vertex -14.7575 0.486215 1.5
    endloop
  endfacet
  facet normal 0.34202 -0.939693 0
    outer loop
      vertex -12 2.8 -1.5
      vertex -12 2.8 1.5
      vertex -13.7998 2.14492 1.5
    endloop
  endfacet
  facet normal 0.34202 -0.939693 0
    outer loop
      vertex -13.7998 2.14492 -1.5
      vertex -12 2.8 -1.5
      vertex -13.7998 2.14492 1.5
    endloop
  endfacet
  facet normal -0.34202 -0.939693 0
    outer loop
      vertex -10.2002 2.14492 -1.5
      vertex -10.2002 2.14492 1.5
      vertex -12 2.8 1.5
    endloop
  endfacet
  facet normal -0.34202 -0.939693 0
    outer loop
      vertex -12 2.8 -1.5
      vertex -10.2002 2.14492 -1.5
      vertex -12 2.8 1.5
    endloop
  endfacet
  facet normal -0.866025 -0.5 0
    outer loop
      vertex -9.24254 0.486215 1.5
      vertex -10.2002 2.14492 1.5
      vertex -9.24254 0.486215 -1.5
    endloop
  endfacet
  facet normal -0.866025 -0.5 0
    outer loop
      vertex -9.24254 0.486215 -1.5
      vertex -10.2002 2.14492 1.5
      vertex -10.2002 2.14492 -1.5
    endloop
  endfacet
  facet normal -0.984808 0.173648 0
    outer loop
      vertex -9.24254 0.486215 1.5
      vertex -9.24254 0.486215 -1.5
      vertex -9.57513 -1.4 1.5
    endloop
  endfacet
  facet normal -0.984808 0.173648 0
    outer loop
      vertex -9.57513 -1.4 1.5
      vertex -9.24254 0.486215 -1.5
      vertex -9.57513 -1.4 -1.5
    endloop
  endfacet
  facet normal -0.642787 0.766045 0
    outer loop
      vertex -9.57513 -1.4 1.5
      vertex -9.57513 -1.4 -1.5
      vertex -11.0423 -2.63114 1.5
    endloop
  endfacet
  facet normal -0.642787 0.766045 0
    outer loop
      vertex -11.0423 -2.63114 1.5
      vertex -9.57513 -1.4 -1.5
      vertex -11.0423 -2.63114 -1.5
    endloop
  endfacet
  facet normal 1.77321e-016 1 0
    outer loop
      vertex -11.0423 -2.63114 1.5
      vertex -11.0423 -2.63114 -1.5
      vertex -12.9577 -2.63114 1.5
    endloop
  endfacet
  facet normal 1.77321e-016 1 0
    outer loop
      vertex -12.9577 -2.63114 1.5
      vertex -11.0423 -2.63114 -1.5
      vertex -12.9577 -2.63114 -1.5
    endloop
  endfacet
  facet normal 0.642787 0.766045 0
    outer loop
      vertex -12.9577 -2.63114 1.5
      vertex -12.9577 -2.63114 -1.5
      vertex -14.4249 -1.4 1.5
    endloop
  endfacet
  facet normal 0.642787 0.766045 0
    outer loop
      vertex -14.4249 -1.4 1.5
      vertex -12.9577 -2.63114 -1.5
      vertex -14.4249 -1.4 -1.5
    endloop
  endfacet
endsolid OpenSCAD_Model
