solid OpenSCAD_Model
  facet normal -1 0 0
    outer loop
      vertex -20 -10 -2.5
      vertex -20 -10 2.5
      vertex -20 10 -2.5
    endloop
  endfacet
  facet normal -1 0 0
    outer loop
      vertex -20 10 -2.5
      vertex -20 -10 2.5
      vertex -20 10 2.5
    endloop
  endfacet
  facet normal 0 -1 0
    outer loop
      vertex -20 -10 2.5
      vertex -20 -10 -2.5
      vertex 9.4 -10 -2.5
    endloop
  endfacet
  facet normal 0 -1 0
    outer loop
      vertex 9.4 -10 2.5
      vertex -20 -10 2.5
      vertex 9.4 -10 -2.5
    endloop
  endfacet
  facet normal 0 0 -1
    outer loop
      vertex -10.3288 1.99172 -2.5
      vertex -20 10 -2.5
      vertex 9.4 -10 -2.5
    endloop
  endfacet
  facet normal 0 0 -1
    outer loop
      vertex 12 2.6 -2.5
      vertex -20 10 -2.5
      vertex 20 10 -2.5
    endloop
  endfacet
  facet normal 0 0 -1
    outer loop
      vertex 14.6 -10 -2.5
      vertex 20 10 -2.5
      vertex 20 -10 -2.5
    endloop
  endfacet
  facet normal 0 0 -1
    outer loop
      vertex 13.6712 1.99172 -2.5
      vertex 14.6 0.5 -2.5
      vertex 14.5325 0.5 -2.5
    endloop
  endfacet
  facet normal 0 0 -1
    outer loop
      vertex -11.1107 -2.4432 -2.5
      vertex 9.4 -10 -2.5
      vertex -12.8893 -2.4432 -2.5
    endloop
  endfacet
  facet normal 0 0 -1
    outer loop
      vertex 9.46751 0.5 -2.5
      vertex -20 10 -2.5
      vertex 10.3288 1.99172 -2.5
    endloop
  endfacet
  facet normal 0 0 -1
    outer loop
      vertex 14.6 0.5 -2.5
      vertex 13.6712 1.99172 -2.5
      vertex 20 10 -2.5
    endloop
  endfacet
  facet normal 0 0 -1
    outer loop
      vertex 13.6712 1.99172 -2.5
      vertex 12 2.6 -2.5
      vertex 20 10 -2.5
    endloop
  endfacet
  facet normal 0 0 -1
    outer loop
      vertex 10.3288 1.99172 -2.5
      vertex -20 10 -2.5
      vertex 12 2.6 -2.5
    endloop
  endfacet
  facet normal 0 0 -1
    outer loop
      vertex 9.4 0.5 -2.5
      vertex -20 10 -2.5
      vertex 9.46751 0.5 -2.5
    endloop
  endfacet
  facet normal 0 0 -1
    outer loop
      vertex 9.4 -10 -2.5
      vertex -20 10 -2.5
      vertex 9.4 0.5 -2.5
    endloop
  endfacet
  facet normal 0 0 -1
    outer loop
      vertex -20 -10 -2.5
      vertex -20 10 -2.5
      vertex -14.5605 0.451485 -2.5
    endloop
  endfacet
  facet normal 0 0 -1
    outer loop
      vertex -20 -10 -2.5
      vertex -14.5605 0.451485 -2.5
      vertex -14.2517 -1.3 -2.5
    endloop
  endfacet
  facet normal 0 0 -1
    outer loop
      vertex -20 -10 -2.5
      vertex -14.2517 -1.3 -2.5
      vertex -12.8893 -2.4432 -2.5
    endloop
  endfacet
  facet normal 0 0 -1
    outer loop
      vertex -20 -10 -2.5
      vertex -12.8893 -2.4432 -2.5
      vertex 9.4 -10 -2.5
    endloop
  endfacet
  facet normal 0 0 -1
    outer loop
      vertex -9.74833 -1.3 -2.5
      vertex 9.4 -10 -2.5
      vertex -11.1107 -2.4432 -2.5
    endloop
  endfacet
  facet normal 0 0 -1
    outer loop
      vertex -12 2.6 -2.5
      vertex -20 10 -2.5
      vertex -10.3288 1.99172 -2.5
    endloop
  endfacet
  facet normal 0 0 -1
    outer loop
      vertex -13.6712 1.99172 -2.5
      vertex -20 10 -2.5
      vertex -12 2.6 -2.5
    endloop
  endfacet
  facet normal 0 0 -1
    outer loop
      vertex -9.74833 -1.3 -2.5
      vertex -9.4395 0.451485 -2.5
      vertex 9.4 -10 -2.5
    endloop
  endfacet
  facet normal 0 0 -1
    outer loop
      vertex -9.4395 0.451485 -2.5
      vertex -10.3288 1.99172 -2.5
      vertex 9.4 -10 -2.5
    endloop
  endfacet
  facet normal 0 0 -1
    outer loop
      vertex -14.5605 0.451485 -2.5
      vertex -20 10 -2.5
      vertex -13.6712 1.99172 -2.5
    endloop
  endfacet
  facet normal 0 0 -1
    outer loop
      vertex 14.6 0.5 -2.5
      vertex 20 10 -2.5
      vertex 14.6 -10 -2.5
    endloop
  endfacet
  facet normal 0 1 0
    outer loop
      vertex -20 10 -2.5
      vertex -20 10 2.5
      vertex 20 10 -2.5
    endloop
  endfacet
  facet normal 0 1 0
    outer loop
      vertex 20 10 -2.5
      vertex -20 10 2.5
      vertex 20 10 2.5
    endloop
  endfacet
  facet normal 0 0 1
    outer loop
      vertex -12.8893 -2.4432 2.5
      vertex -20 -10 2.5
      vertex 9.4 -10 2.5
    endloop
  endfacet
  facet normal 0 0 1
    outer loop
      vertex 9.46751 0.5 2.5
      vertex -20 10 2.5
      vertex 9.4 0.5 2.5
    endloop
  endfacet
  facet normal 0 0 1
    outer loop
      vertex 9.4 0.5 2.5
      vertex -20 10 2.5
      vertex 9.4 -10 2.5
    endloop
  endfacet
  facet normal 0 0 1
    outer loop
      vertex 10.3288 1.99172 2.5
      vertex -20 10 2.5
      vertex 9.46751 0.5 2.5
    endloop
  endfacet
  facet normal 0 0 1
    outer loop
      vertex 12 2.6 2.5
      vertex -20 10 2.5
      vertex 10.3288 1.99172 2.5
    endloop
  endfacet
  facet normal 0 0 1
    outer loop
      vertex 20 10 2.5
      vertex -20 10 2.5
      vertex 12 2.6 2.5
    endloop
  endfacet
  facet normal 0 0 1
    outer loop
      vertex 20 10 2.5
      vertex 12 2.6 2.5
      vertex 13.6712 1.99172 2.5
    endloop
  endfacet
  facet normal 0 0 1
    outer loop
      vertex 14.6 0.5 2.5
      vertex 13.6712 1.99172 2.5
      vertex 14.5325 0.5 2.5
    endloop
  endfacet
  facet normal 0 0 1
    outer loop
      vertex 20 10 2.5
      vertex 13.6712 1.99172 2.5
      vertex 14.6 0.5 2.5
    endloop
  endfacet
  facet normal 0 0 1
    outer loop
      vertex 20 -10 2.5
      vertex 14.6 0.5 2.5
      vertex 14.6 -10 2.5
    endloop
  endfacet
  facet normal 0 0 1
    outer loop
      vertex 20 10 2.5
      vertex 14.6 0.5 2.5
      vertex 20 -10 2.5
    endloop
  endfacet
  facet normal 0 0 1
    outer loop
      vertex -20 10 2.5
      vertex -20 -10 2.5
      vertex -14.2517 -1.3 2.5
    endloop
  endfacet
  facet normal 0 0 1
    outer loop
      vertex -11.1107 -2.4432 2.5
      vertex -12.8893 -2.4432 2.5
      vertex 9.4 -10 2.5
    endloop
  endfacet
  facet normal 0 0 1
    outer loop
      vertex -20 10 2.5
      vertex -14.2517 -1.3 2.5
      vertex -14.5605 0.451485 2.5
    endloop
  endfacet
  facet normal 0 0 1
    outer loop
      vertex -9.74833 -1.3 2.5
      vertex -11.1107 -2.4432 2.5
      vertex 9.4 -10 2.5
    endloop
  endfacet
  facet normal 0 0 1
    outer loop
      vertex -20 10 2.5
      vertex -14.5605 0.451485 2.5
      vertex -13.6712 1.99172 2.5
    endloop
  endfacet
  facet normal 0 0 1
    outer loop
      vertex -9.4395 0.451485 2.5
      vertex -9.74833 -1.3 2.5
      vertex 9.4 -10 2.5
    endloop
  endfacet
  facet normal 0 0 1
    outer loop
      vertex -20 10 2.5
      vertex -13.6712 1.99172 2.5
      vertex -12 2.6 2.5
    endloop
  endfacet
  facet normal 0 0 1
    outer loop
      vertex -20 10 2.5
      vertex -10.3288 1.99172 2.5
      vertex 9.4 -10 2.5
    endloop
  endfacet
  facet normal 0 0 1
    outer loop
      vertex -20 10 2.5
      vertex -12 2.6 2.5
      vertex -10.3288 1.99172 2.5
    endloop
  endfacet
  facet normal 0 0 1
    outer loop
      vertex -14.2517 -1.3 2.5
      vertex -20 -10 2.5
      vertex -12.8893 -2.4432 2.5
    endloop
  endfacet
  facet normal 0 0 1
    outer loop
      vertex -10.3288 1.99172 2.5
      vertex -9.4395 0.451485 2.5
      vertex 9.4 -10 2.5
    endloop
  endfacet
  facet normal 1 0 0
    outer loop
      vertex 9.4 0.5 -2.5
      vertex 9.4 0.5 2.5
      vertex 9.4 -10 2.5
    endloop
  endfacet
  facet normal 1 0 0
    outer loop
      vertex 9.4 -10 -2.5
      vertex 9.4 0.5 -2.5
      vertex 9.4 -10 2.5
    endloop
  endfacet
  facet normal 0 -1 0
    outer loop
      vertex 9.46751 0.5 -2.5
      vertex 9.46751 0.5 2.5
      vertex 9.4 0.5 2.5
    endloop
  endfacet
  facet normal 0 -1 0
    outer loop
      vertex 9.4 0.5 -2.5
      vertex 9.46751 0.5 -2.5
      vertex 9.4 0.5 2.5
    endloop
  endfacet
  facet normal 0.866026 -0.5 0
    outer loop
      vertex 10.3288 1.99172 -2.5
      vertex 10.3288 1.99172 2.5
      vertex 9.46751 0.5 2.5
    endloop
  endfacet
  facet normal 0.866026 -0.5 0
    outer loop
      vertex 9.46751 0.5 -2.5
      vertex 10.3288 1.99172 -2.5
      vertex 9.46751 0.5 2.5
    endloop
  endfacet
  facet normal 0.34202 -0.939693 0
    outer loop
      vertex 12 2.6 -2.5
      vertex 12 2.6 2.5
      vertex 10.3288 1.99172 2.5
    endloop
  endfacet
  facet normal 0.34202 -0.939693 0
    outer loop
      vertex 10.3288 1.99172 -2.5
      vertex 12 2.6 -2.5
      vertex 10.3288 1.99172 2.5
    endloop
  endfacet
  facet normal -0.34202 -0.939693 0
    outer loop
      vertex 13.6712 1.99172 -2.5
      vertex 13.6712 1.99172 2.5
      vertex 12 2.6 2.5
    endloop
  endfacet
  facet normal -0.34202 -0.939693 0
    outer loop
      vertex 12 2.6 -2.5
      vertex 13.6712 1.99172 -2.5
      vertex 12 2.6 2.5
    endloop
  endfacet
  facet normal -0.866026 -0.5 0
    outer loop
      vertex 14.5325 0.5 2.5
      vertex 13.6712 1.99172 2.5
      vertex 14.5325 0.5 -2.5
    endloop
  endfacet
  facet normal -0.866026 -0.5 0
    outer loop
      vertex 14.5325 0.5 -2.5
      vertex 13.6712 1.99172 2.5
      vertex 13.6712 1.99172 -2.5
    endloop
  endfacet
  facet normal 0 -1 0
    outer loop
      vertex 14.6 0.5 -2.5
      vertex 14.6 0.5 2.5
      vertex 14.5325 0.5 2.5
    endloop
  endfacet
  facet normal 0 -1 0
    outer loop
      vertex 14.5325 0.5 -2.5
      vertex 14.6 0.5 -2.5
      vertex 14.5325 0.5 2.5
    endloop
  endfacet
  facet normal -1 0 0
    outer loop
      vertex 14.6 0.5 2.5
      vertex 14.6 0.5 -2.5
      vertex 14.6 -10 2.5
    endloop
  endfacet
  facet normal -1 0 0
    outer loop
      vertex 14.6 -10 2.5
      vertex 14.6 0.5 -2.5
      vertex 14.6 -10 -2.5
    endloop
  endfacet
  facet normal 0 -1 0
    outer loop
      vertex 14.6 -10 2.5
      vertex 14.6 -10 -2.5
      vertex 20 -10 -2.5
    endloop
  endfacet
  facet normal 0 -1 0
    outer loop
      vertex 20 -10 2.5
      vertex 14.6 -10 2.5
      vertex 20 -10 -2.5
    endloop
  endfacet
  facet normal 1 0 0
    outer loop
      vertex 20 -10 2.5
      vertex 20 -10 -2.5
      vertex 20 10 -2.5
    endloop
  endfacet
  facet normal 1 0 0
    outer loop
      vertex 20 10 2.5
      vertex 20 -10 2.5
      vertex 20 10 -2.5
    endloop
  endfacet
  facet normal 0.866026 -0.5 0
    outer loop
      vertex -13.6712 1.99172 -2.5
      vertex -13.6712 1.99172 2.5
      vertex -14.5605 0.451485 2.5
    endloop
  endfacet
  facet normal 0.866026 -0.5 0
    outer loop
      vertex -14.5605 0.451485 -2.5
      vertex -13.6712 1.99172 -2.5
      vertex -14.5605 0.451485 2.5
    endloop
  endfacet
  facet normal 0.984808 0.173648 0
    outer loop
      vertex -14.5605 0.451485 2.5
      vertex -14.2517 -1.3 2.5
      vertex -14.2517 -1.3 -2.5
    endloop
  endfacet
  facet normal 0.984808 0.173648 0
    outer loop
      vertex -14.5605 0.451485 -2.5
      vertex -14.5605 0.451485 2.5
      vertex -14.2517 -1.3 -2.5
    endloop
  endfacet
  facet normal 0.34202 -0.939693 0
    outer loop
      vertex -12 2.6 -2.5
      vertex -12 2.6 2.5
      vertex -13.6712 1.99172 2.5
    endloop
  endfacet
  facet normal 0.34202 -0.939693 0
    outer loop
      vertex -13.6712 1.99172 -2.5
      vertex -12 2.6 -2.5
      vertex -13.6712 1.99172 2.5
    endloop
  endfacet
  facet normal -0.34202 -0.939693 0
    outer loop
      vertex -10.3288 1.99172 -2.5
      vertex -10.3288 1.99172 2.5
      vertex -12 2.6 2.5
    endloop
  endfacet
  facet normal -0.34202 -0.939693 0
    outer loop
      vertex -12 2.6 -2.5
      vertex -10.3288 1.99172 -2.5
      vertex -12 2.6 2.5
    endloop
  endfacet
  facet normal -0.866026 -0.5 0
    outer loop
      vertex -9.4395 0.451485 2.5
      vertex -10.3288 1.99172 2.5
      vertex -9.4395 0.451485 -2.5
    endloop
  endfacet
  facet normal -0.866026 -0.5 0
    outer loop
      vertex -9.4395 0.451485 -2.5
      vertex -10.3288 1.99172 2.5
      vertex -10.3288 1.99172 -2.5
    endloop
  endfacet
  facet normal -0.984808 0.173648 0
    outer loop
      vertex -9.4395 0.451485 2.5
      vertex -9.4395 0.451485 -2.5
      vertex -9.74833 -1.3 2.5
    endloop
  endfacet
  facet normal -0.984808 0.173648 0
    outer loop
      vertex -9.74833 -1.3 2.5
      vertex -9.4395 0.451485 -2.5
      vertex -9.74833 -1.3 -2.5
    endloop
  endfacet
  facet normal -0.642788 0.766044 0
    outer loop
      vertex -9.74833 -1.3 2.5
      vertex -9.74833 -1.3 -2.5
      vertex -11.1107 -2.4432 2.5
    endloop
  endfacet
  facet normal -0.642788 0.766044 0
    outer loop
      vertex -11.1107 -2.4432 2.5
      vertex -9.74833 -1.3 -2.5
      vertex -11.1107 -2.4432 -2.5
    endloop
  endfacet
  facet normal 1.77321e-016 1 0
    outer loop
      vertex -11.1107 -2.4432 2.5
      vertex -11.1107 -2.4432 -2.5
      vertex -12.8893 -2.4432 2.5
    endloop
  endfacet
  facet normal 1.77321e-016 1 0
    outer loop
      vertex -12.8893 -2.4432 2.5
      vertex -11.1107 -2.4432 -2.5
      vertex -12.8893 -2.4432 -2.5
    endloop
  endfacet
  facet normal 0.642788 0.766044 0
    outer loop
      vertex -12.8893 -2.4432 2.5
      vertex -12.8893 -2.4432 -2.5
      vertex -14.2517 -1.3 2.5
    endloop
  endfacet
  facet normal 0.642788 0.766044 0
    outer loop
      vertex -14.2517 -1.3 2.5
      vertex -12.8893 -2.4432 -2.5
      vertex -14.2517 -1.3 -2.5
    endloop
  endfacet
endsolid OpenSCAD_Model
