solid OpenSCAD_Model
  facet normal -0.531584 -0.847005 0
    outer loop
      vertex -5.097 -0.175 4.8
      vertex -5.097 -0.175 0
      vertex -4.713 -0.416 0
    endloop
  endfacet
  facet normal -0.531584 -0.847005 0
    outer loop
      vertex -4.713 -0.416 4.8
      vertex -5.097 -0.175 4.8
      vertex -4.713 -0.416 0
    endloop
  endfacet
  facet normal 0 0 -1
    outer loop
      vertex -5.097 -0.175 0
      vertex -5.097 0.175 0
      vertex -4.713 -0.416 0
    endloop
  endfacet
  facet normal 0 0 -1
    outer loop
      vertex -4.713 -0.416 0
      vertex -5.097 0.175 0
      vertex -4.713 0.416 0
    endloop
  endfacet
  facet normal 0 0 -1
    outer loop
      vertex -4.713 -0.416 0
      vertex -4.713 0.416 0
      vertex -4.389 0.554 0
    endloop
  endfacet
  facet normal 0 0 -1
    outer loop
      vertex -4.713 -0.416 0
      vertex -4.389 0.554 0
      vertex -4.145 0.615 0
    endloop
  endfacet
  facet normal 0 0 -1
    outer loop
      vertex -4.713 -0.416 0
      vertex -4.145 0.615 0
      vertex -3.995 0.628 0
    endloop
  endfacet
  facet normal 0 0 -1
    outer loop
      vertex -4.713 -0.416 0
      vertex -3.995 0.628 0
      vertex -3.944 0.626 0
    endloop
  endfacet
  facet normal 0 0 -1
    outer loop
      vertex -4.713 -0.416 0
      vertex -3.944 0.626 0
      vertex -3.154 0.501 0
    endloop
  endfacet
  facet normal 0 0 -1
    outer loop
      vertex -3.154 0.501 0
      vertex -3.153 0.547 0
      vertex -2.846 1.449 0
    endloop
  endfacet
  facet normal 0 0 -1
    outer loop
      vertex -3.559 1.812 0
      vertex -3.601 1.84 0
      vertex -2.846 1.449 0
    endloop
  endfacet
  facet normal 0 0 -1
    outer loop
      vertex -2.846 1.449 0
      vertex -3.601 1.84 0
      vertex -3.715 1.939 0
    endloop
  endfacet
  facet normal 0 0 -1
    outer loop
      vertex -2.846 1.449 0
      vertex -3.715 1.939 0
      vertex -3.876 2.132 0
    endloop
  endfacet
  facet normal 0 0 -1
    outer loop
      vertex -2.846 1.449 0
      vertex -3.876 2.132 0
      vertex -4.057 2.434 0
    endloop
  endfacet
  facet normal 0 0 -1
    outer loop
      vertex -2.846 1.449 0
      vertex -4.057 2.434 0
      vertex -4.226 2.854 0
    endloop
  endfacet
  facet normal 0 0 -1
    outer loop
      vertex -2.846 1.449 0
      vertex -4.226 2.854 0
      vertex -4.021 3.138 0
    endloop
  endfacet
  facet normal 0 0 -1
    outer loop
      vertex -2.846 1.449 0
      vertex -4.021 3.138 0
      vertex -3.568 3.107 0
    endloop
  endfacet
  facet normal 0 0 -1
    outer loop
      vertex -2.846 1.449 0
      vertex -3.568 3.107 0
      vertex -3.225 3.028 0
    endloop
  endfacet
  facet normal 0 0 -1
    outer loop
      vertex -2.846 1.449 0
      vertex -3.225 3.028 0
      vertex -2.992 2.934 0
    endloop
  endfacet
  facet normal 0 0 -1
    outer loop
      vertex -2.846 1.449 0
      vertex -2.992 2.934 0
      vertex -2.863 2.856 0
    endloop
  endfacet
  facet normal 0 0 -1
    outer loop
      vertex -2.846 1.449 0
      vertex -2.863 2.856 0
      vertex -2.823 2.825 0
    endloop
  endfacet
  facet normal 0 0 -1
    outer loop
      vertex -2.846 1.449 0
      vertex -2.823 2.825 0
      vertex -2.257 2.259 0
    endloop
  endfacet
  facet normal 0 0 -1
    outer loop
      vertex -2.846 1.449 0
      vertex -2.257 2.259 0
      vertex -3.154 0.501 0
    endloop
  endfacet
  facet normal 0 0 -1
    outer loop
      vertex -3.154 0.501 0
      vertex -2.257 2.259 0
      vertex -2.229 2.296 0
    endloop
  endfacet
  facet normal 0 0 -1
    outer loop
      vertex -3.154 0.501 0
      vertex -2.229 2.296 0
      vertex -1.45 2.844 0
    endloop
  endfacet
  facet normal 0 0 -1
    outer loop
      vertex -1.814 3.558 0
      vertex -1.832 3.605 0
      vertex -1.45 2.844 0
    endloop
  endfacet
  facet normal 0 0 -1
    outer loop
      vertex -1.45 2.844 0
      vertex -1.832 3.605 0
      vertex -1.866 3.752 0
    endloop
  endfacet
  facet normal 0 0 -1
    outer loop
      vertex -1.45 2.844 0
      vertex -1.866 3.752 0
      vertex -1.883 4.003 0
    endloop
  endfacet
  facet normal 0 0 -1
    outer loop
      vertex -1.45 2.844 0
      vertex -1.883 4.003 0
      vertex -1.852 4.354 0
    endloop
  endfacet
  facet normal 0 0 -1
    outer loop
      vertex -1.45 2.844 0
      vertex -1.852 4.354 0
      vertex -1.741 4.793 0
    endloop
  endfacet
  facet normal 0 0 -1
    outer loop
      vertex -1.45 2.844 0
      vertex -1.741 4.793 0
      vertex -1.409 4.902 0
    endloop
  endfacet
  facet normal 0 0 -1
    outer loop
      vertex -1.45 2.844 0
      vertex -1.409 4.902 0
      vertex -1.061 4.611 0
    endloop
  endfacet
  facet normal 0 0 -1
    outer loop
      vertex -1.45 2.844 0
      vertex -1.061 4.611 0
      vertex -0.829 4.345 0
    endloop
  endfacet
  facet normal 0 0 -1
    outer loop
      vertex -1.45 2.844 0
      vertex -0.829 4.345 0
      vertex -0.696 4.132 0
    endloop
  endfacet
  facet normal 0 0 -1
    outer loop
      vertex -1.45 2.844 0
      vertex -0.696 4.132 0
      vertex -0.637 3.994 0
    endloop
  endfacet
  facet normal 0 0 -1
    outer loop
      vertex -1.45 2.844 0
      vertex -0.637 3.994 0
      vertex -0.623 3.944 0
    endloop
  endfacet
  facet normal 0 0 -1
    outer loop
      vertex -1.45 2.844 0
      vertex -0.623 3.944 0
      vertex -3.154 0.501 0
    endloop
  endfacet
  facet normal 0 0 -1
    outer loop
      vertex -3.154 0.501 0
      vertex -0.623 3.944 0
      vertex -0.498 3.154 0
    endloop
  endfacet
  facet normal 0 0 -1
    outer loop
      vertex -3.154 0.501 0
      vertex -0.498 3.154 0
      vertex -0.454 3.168 0
    endloop
  endfacet
  facet normal 0 0 -1
    outer loop
      vertex -3.154 0.501 0
      vertex -0.454 3.168 0
      vertex 0.498 3.154 0
    endloop
  endfacet
  facet normal 0 0 -1
    outer loop
      vertex 0.623 3.944 0
      vertex 0.637 3.994 0
      vertex 0.498 3.154 0
    endloop
  endfacet
  facet normal 0 0 -1
    outer loop
      vertex 0.498 3.154 0
      vertex 0.637 3.994 0
      vertex 0.696 4.132 0
    endloop
  endfacet
  facet normal 0 0 -1
    outer loop
      vertex 0.498 3.154 0
      vertex 0.696 4.132 0
      vertex 0.829 4.345 0
    endloop
  endfacet
  facet normal 0 0 -1
    outer loop
      vertex 0.498 3.154 0
      vertex 0.829 4.345 0
      vertex 1.061 4.611 0
    endloop
  endfacet
  facet normal 0 0 -1
    outer loop
      vertex 0.498 3.154 0
      vertex 1.061 4.611 0
      vertex 1.409 4.902 0
    endloop
  endfacet
  facet normal 0 0 -1
    outer loop
      vertex 0.498 3.154 0
      vertex 1.409 4.902 0
      vertex 1.741 4.793 0
    endloop
  endfacet
  facet normal 0 0 -1
    outer loop
      vertex 0.498 3.154 0
      vertex 1.741 4.793 0
      vertex 1.852 4.354 0
    endloop
  endfacet
  facet normal 0 0 -1
    outer loop
      vertex 0.498 3.154 0
      vertex 1.852 4.354 0
      vertex 1.883 4.003 0
    endloop
  endfacet
  facet normal 0 0 -1
    outer loop
      vertex 0.498 3.154 0
      vertex 1.883 4.003 0
      vertex -3.154 0.501 0
    endloop
  endfacet
  facet normal 0 0 -1
    outer loop
      vertex -3.154 0.501 0
      vertex 1.883 4.003 0
      vertex 1.866 3.752 0
    endloop
  endfacet
  facet normal 0 0 -1
    outer loop
      vertex -3.154 0.501 0
      vertex 1.866 3.752 0
      vertex 1.832 3.605 0
    endloop
  endfacet
  facet normal 0 0 -1
    outer loop
      vertex -3.154 0.501 0
      vertex 1.832 3.605 0
      vertex 1.814 3.558 0
    endloop
  endfacet
  facet normal 0 0 -1
    outer loop
      vertex -1.41421 1.41421 0
      vertex 1.814 3.558 0
      vertex 1.451 2.845 0
    endloop
  endfacet
  facet normal 0 0 -1
    outer loop
      vertex 1.41421 -1.41421 0
      vertex 3.715 -1.939 0
      vertex 3.876 -2.132 0
    endloop
  endfacet
  facet normal 0 0 -1
    outer loop
      vertex 0 2 0
      vertex 1.495 2.83 0
      vertex 2.257 2.258 0
    endloop
  endfacet
  facet normal 0 0 -1
    outer loop
      vertex 2.823 2.825 0
      vertex 2.863 2.856 0
      vertex 2.257 2.258 0
    endloop
  endfacet
  facet normal 0 0 -1
    outer loop
      vertex 2.257 2.258 0
      vertex 2.863 2.856 0
      vertex 2.992 2.934 0
    endloop
  endfacet
  facet normal 0 0 -1
    outer loop
      vertex 2.257 2.258 0
      vertex 2.992 2.934 0
      vertex 3.225 3.028 0
    endloop
  endfacet
  facet normal 0 0 -1
    outer loop
      vertex 2.257 2.258 0
      vertex 3.225 3.028 0
      vertex 3.568 3.107 0
    endloop
  endfacet
  facet normal 0 0 -1
    outer loop
      vertex 2.257 2.258 0
      vertex 3.568 3.107 0
      vertex 4.021 3.138 0
    endloop
  endfacet
  facet normal 0 0 -1
    outer loop
      vertex 2.257 2.258 0
      vertex 4.021 3.138 0
      vertex 4.226 2.854 0
    endloop
  endfacet
  facet normal 0 0 -1
    outer loop
      vertex 3.154 0.501 0
      vertex 4.713 0.416 0
      vertex 2 0 0
    endloop
  endfacet
  facet normal 0 0 -1
    outer loop
      vertex 3.154 0.501 0
      vertex 4.389 0.554 0
      vertex 4.713 0.416 0
    endloop
  endfacet
  facet normal 0 0 -1
    outer loop
      vertex 1.41421 1.41421 0
      vertex 4.057 2.434 0
      vertex 3.876 2.132 0
    endloop
  endfacet
  facet normal 0 0 -1
    outer loop
      vertex 3.154 0.501 0
      vertex 4.145 0.615 0
      vertex 4.389 0.554 0
    endloop
  endfacet
  facet normal 0 0 -1
    outer loop
      vertex -1.41421 -1.41421 0
      vertex -3.154 -0.501 0
      vertex -2 0 0
    endloop
  endfacet
  facet normal 0 0 -1
    outer loop
      vertex 3.944 0.626 0
      vertex 3.995 0.628 0
      vertex 3.154 0.501 0
    endloop
  endfacet
  facet normal 0 0 -1
    outer loop
      vertex 3.154 0.501 0
      vertex 3.995 0.628 0
      vertex 4.145 0.615 0
    endloop
  endfacet
  facet normal 0 0 -1
    outer loop
      vertex 2 0 0
      vertex 4.713 0.416 0
      vertex 5.097 0.175 0
    endloop
  endfacet
  facet normal 0 0 -1
    outer loop
      vertex 3.154 -0.501 0
      vertex 4.713 -0.416 0
      vertex 4.389 -0.554 0
    endloop
  endfacet
  facet normal 0 0 -1
    outer loop
      vertex 3.944 -0.626 0
      vertex 4.145 -0.615 0
      vertex 3.995 -0.628 0
    endloop
  endfacet
  facet normal 0 0 -1
    outer loop
      vertex -0.623 -3.944 0
      vertex -1.451 -2.845 0
      vertex -0.498 -3.154 0
    endloop
  endfacet
  facet normal 0 0 -1
    outer loop
      vertex 2.863 -2.856 0
      vertex 3.568 -3.107 0
      vertex 2.992 -2.934 0
    endloop
  endfacet
  facet normal 0 0 -1
    outer loop
      vertex -1.41421 1.41421 0
      vertex 1.451 2.845 0
      vertex 1.495 2.83 0
    endloop
  endfacet
  facet normal 0 0 -1
    outer loop
      vertex -1.41421 1.41421 0
      vertex 1.495 2.83 0
      vertex 0 2 0
    endloop
  endfacet
  facet normal 0 0 -1
    outer loop
      vertex 2.257 2.258 0
      vertex 4.226 2.854 0
      vertex 4.057 2.434 0
    endloop
  endfacet
  facet normal 0 0 -1
    outer loop
      vertex 2.257 -2.259 0
      vertex 4.057 -2.434 0
      vertex 4.226 -2.854 0
    endloop
  endfacet
  facet normal 0 0 -1
    outer loop
      vertex 2 0 0
      vertex 3.153 -0.547 0
      vertex 2.846 -1.449 0
    endloop
  endfacet
  facet normal 0 0 -1
    outer loop
      vertex 2.863 -2.856 0
      vertex 4.021 -3.138 0
      vertex 3.568 -3.107 0
    endloop
  endfacet
  facet normal 0 0 -1
    outer loop
      vertex 2.992 -2.934 0
      vertex 3.568 -3.107 0
      vertex 3.225 -3.028 0
    endloop
  endfacet
  facet normal 0 0 -1
    outer loop
      vertex 2.257 -2.259 0
      vertex 4.021 -3.138 0
      vertex 2.823 -2.825 0
    endloop
  endfacet
  facet normal 0 0 -1
    outer loop
      vertex 1.41421 -1.41421 0
      vertex 3.601 -1.84 0
      vertex 3.715 -1.939 0
    endloop
  endfacet
  facet normal 0 0 -1
    outer loop
      vertex 2.823 -2.825 0
      vertex 4.021 -3.138 0
      vertex 2.863 -2.856 0
    endloop
  endfacet
  facet normal 0 0 -1
    outer loop
      vertex 2.257 -2.259 0
      vertex 4.226 -2.854 0
      vertex 4.021 -3.138 0
    endloop
  endfacet
  facet normal 0 0 -1
    outer loop
      vertex 1.41421 -1.41421 0
      vertex 3.559 -1.812 0
      vertex 3.601 -1.84 0
    endloop
  endfacet
  facet normal 0 0 -1
    outer loop
      vertex 0 2 0
      vertex 4.057 2.434 0
      vertex 1.41421 1.41421 0
    endloop
  endfacet
  facet normal 0 0 -1
    outer loop
      vertex 1.41421 1.41421 0
      vertex 3.876 2.132 0
      vertex 3.715 1.939 0
    endloop
  endfacet
  facet normal 0 0 -1
    outer loop
      vertex 0 2 0
      vertex 2.257 2.258 0
      vertex 4.057 2.434 0
    endloop
  endfacet
  facet normal 0 0 -1
    outer loop
      vertex 0.637 -3.994 0
      vertex 1.741 -4.793 0
      vertex 0.696 -4.132 0
    endloop
  endfacet
  facet normal 0 0 -1
    outer loop
      vertex 0.498 -3.154 0
      vertex 1.866 -3.752 0
      vertex 1.883 -4.003 0
    endloop
  endfacet
  facet normal 0 0 -1
    outer loop
      vertex 0.637 -3.994 0
      vertex 1.852 -4.354 0
      vertex 1.741 -4.793 0
    endloop
  endfacet
  facet normal 0 0 -1
    outer loop
      vertex 0.498 -3.154 0
      vertex 1.852 -4.354 0
      vertex 0.623 -3.944 0
    endloop
  endfacet
  facet normal 0 0 -1
    outer loop
      vertex 1.741 -4.793 0
      vertex 1.409 -4.902 0
      vertex 1.061 -4.611 0
    endloop
  endfacet
  facet normal 0 0 -1
    outer loop
      vertex 1.741 -4.793 0
      vertex 1.061 -4.611 0
      vertex 0.829 -4.345 0
    endloop
  endfacet
  facet normal 0 0 -1
    outer loop
      vertex 1.741 -4.793 0
      vertex 0.829 -4.345 0
      vertex 0.696 -4.132 0
    endloop
  endfacet
  facet normal 0 0 -1
    outer loop
      vertex 0.623 -3.944 0
      vertex 1.852 -4.354 0
      vertex 0.637 -3.994 0
    endloop
  endfacet
  facet normal 0 0 -1
    outer loop
      vertex 0.498 -3.154 0
      vertex 1.883 -4.003 0
      vertex 1.852 -4.354 0
    endloop
  endfacet
  facet normal 0 0 -1
    outer loop
      vertex -0.498 -3.154 0
      vertex -2.845 -1.449 0
      vertex -2.872 -1.411 0
    endloop
  endfacet
  facet normal 0 0 -1
    outer loop
      vertex -0.498 -3.154 0
      vertex -2.872 -1.411 0
      vertex 0.454 -3.168 0
    endloop
  endfacet
  facet normal 0 0 -1
    outer loop
      vertex 1.41421 -1.41421 0
      vertex 2.257 -2.259 0
      vertex 2.229 -2.296 0
    endloop
  endfacet
  facet normal 0 0 -1
    outer loop
      vertex -2.823 -2.825 0
      vertex -3.601 -1.84 0
      vertex -3.559 -1.812 0
    endloop
  endfacet
  facet normal 0 0 -1
    outer loop
      vertex 2 0 0
      vertex 2.846 -1.449 0
      vertex 1.41421 -1.41421 0
    endloop
  endfacet
  facet normal 0 0 -1
    outer loop
      vertex -2.823 -2.825 0
      vertex -3.559 -1.812 0
      vertex -2.257 -2.258 0
    endloop
  endfacet
  facet normal 0 0 -1
    outer loop
      vertex -1.451 -2.845 0
      vertex -0.637 -3.994 0
      vertex -0.696 -4.132 0
    endloop
  endfacet
  facet normal 0 0 -1
    outer loop
      vertex -1.409 -4.902 0
      vertex -1.741 -4.793 0
      vertex -1.852 -4.354 0
    endloop
  endfacet
  facet normal 0 0 -1
    outer loop
      vertex -1.451 -2.845 0
      vertex -0.829 -4.345 0
      vertex -1.814 -3.558 0
    endloop
  endfacet
  facet normal 0 0 -1
    outer loop
      vertex -1.061 -4.611 0
      vertex -1.409 -4.902 0
      vertex -1.883 -4.003 0
    endloop
  endfacet
  facet normal 0 0 -1
    outer loop
      vertex -2.992 -2.934 0
      vertex -3.715 -1.939 0
      vertex -2.863 -2.856 0
    endloop
  endfacet
  facet normal 0 0 -1
    outer loop
      vertex -1.061 -4.611 0
      vertex -1.883 -4.003 0
      vertex -1.866 -3.752 0
    endloop
  endfacet
  facet normal 0 0 -1
    outer loop
      vertex -1.451 -2.845 0
      vertex -0.696 -4.132 0
      vertex -0.829 -4.345 0
    endloop
  endfacet
  facet normal 0 0 -1
    outer loop
      vertex -0.829 -4.345 0
      vertex -1.061 -4.611 0
      vertex -1.832 -3.605 0
    endloop
  endfacet
  facet normal 0 0 -1
    outer loop
      vertex -0.829 -4.345 0
      vertex -1.832 -3.605 0
      vertex -1.814 -3.558 0
    endloop
  endfacet
  facet normal 0 0 -1
    outer loop
      vertex -1.883 -4.003 0
      vertex -1.409 -4.902 0
      vertex -1.852 -4.354 0
    endloop
  endfacet
  facet normal 0 0 -1
    outer loop
      vertex 1.41421 -1.41421 0
      vertex 2.229 -2.296 0
      vertex 0 -2 0
    endloop
  endfacet
  facet normal 0 0 -1
    outer loop
      vertex -1.451 -2.845 0
      vertex -1.495 -2.83 0
      vertex -2.257 -2.258 0
    endloop
  endfacet
  facet normal 0 0 -1
    outer loop
      vertex -2.845 -1.449 0
      vertex -0.498 -3.154 0
      vertex -1.451 -2.845 0
    endloop
  endfacet
  facet normal 0 0 -1
    outer loop
      vertex -1.832 -3.605 0
      vertex -1.061 -4.611 0
      vertex -1.866 -3.752 0
    endloop
  endfacet
  facet normal 0 0 -1
    outer loop
      vertex -3.601 -1.84 0
      vertex -2.823 -2.825 0
      vertex -2.863 -2.856 0
    endloop
  endfacet
  facet normal 0 0 -1
    outer loop
      vertex -3.601 -1.84 0
      vertex -2.863 -2.856 0
      vertex -3.715 -1.939 0
    endloop
  endfacet
  facet normal 0 0 -1
    outer loop
      vertex -4.057 -2.434 0
      vertex -4.021 -3.138 0
      vertex -4.226 -2.854 0
    endloop
  endfacet
  facet normal 0 0 -1
    outer loop
      vertex -3.715 -1.939 0
      vertex -2.992 -2.934 0
      vertex -3.225 -3.028 0
    endloop
  endfacet
  facet normal 0 0 -1
    outer loop
      vertex -3.876 -2.132 0
      vertex -3.568 -3.107 0
      vertex -4.057 -2.434 0
    endloop
  endfacet
  facet normal 0 0 -1
    outer loop
      vertex -3.568 -3.107 0
      vertex -4.021 -3.138 0
      vertex -4.057 -2.434 0
    endloop
  endfacet
  facet normal 0 0 -1
    outer loop
      vertex -3.715 -1.939 0
      vertex -3.225 -3.028 0
      vertex -3.876 -2.132 0
    endloop
  endfacet
  facet normal 0 0 -1
    outer loop
      vertex -3.225 -3.028 0
      vertex -3.568 -3.107 0
      vertex -3.876 -2.132 0
    endloop
  endfacet
  facet normal 0 0 -1
    outer loop
      vertex -2.845 -1.449 0
      vertex -2.257 -2.258 0
      vertex -3.559 -1.812 0
    endloop
  endfacet
  facet normal 0 0 -1
    outer loop
      vertex -2.845 -1.449 0
      vertex -1.451 -2.845 0
      vertex -2.257 -2.258 0
    endloop
  endfacet
  facet normal 0 0 -1
    outer loop
      vertex -1.451 -2.845 0
      vertex -0.623 -3.944 0
      vertex -0.637 -3.994 0
    endloop
  endfacet
  facet normal 0 0 -1
    outer loop
      vertex -2 0 0
      vertex -4.713 -0.416 0
      vertex -3.154 0.501 0
    endloop
  endfacet
  facet normal 0 0 -1
    outer loop
      vertex 1.41421 1.41421 0
      vertex 2.845 1.449 0
      vertex 2.872 1.411 0
    endloop
  endfacet
  facet normal 0 0 -1
    outer loop
      vertex -4.713 -0.416 0
      vertex -3.944 -0.626 0
      vertex -3.995 -0.628 0
    endloop
  endfacet
  facet normal 0 0 -1
    outer loop
      vertex 2 0 0
      vertex 5.097 -0.175 0
      vertex 4.713 -0.416 0
    endloop
  endfacet
  facet normal 0 0 -1
    outer loop
      vertex 2 0 0
      vertex 3.154 -0.501 0
      vertex 3.153 -0.547 0
    endloop
  endfacet
  facet normal 0 0 -1
    outer loop
      vertex 2 0 0
      vertex 4.713 -0.416 0
      vertex 3.154 -0.501 0
    endloop
  endfacet
  facet normal 0 0 -1
    outer loop
      vertex -3.154 -0.501 0
      vertex -4.713 -0.416 0
      vertex -2 0 0
    endloop
  endfacet
  facet normal 0 0 -1
    outer loop
      vertex 1.41421 1.41421 0
      vertex 3.559 1.812 0
      vertex 2.845 1.449 0
    endloop
  endfacet
  facet normal 0 0 -1
    outer loop
      vertex 1.45 -2.844 0
      vertex 0 -2 0
      vertex 2.229 -2.296 0
    endloop
  endfacet
  facet normal 0 0 -1
    outer loop
      vertex 1.41421 -1.41421 0
      vertex 4.057 -2.434 0
      vertex 2.257 -2.259 0
    endloop
  endfacet
  facet normal 0 0 -1
    outer loop
      vertex 2.846 -1.449 0
      vertex 3.559 -1.812 0
      vertex 1.41421 -1.41421 0
    endloop
  endfacet
  facet normal 0 0 -1
    outer loop
      vertex -2 0 0
      vertex -3.154 0.501 0
      vertex -1.41421 1.41421 0
    endloop
  endfacet
  facet normal 0 0 -1
    outer loop
      vertex 1.41421 1.41421 0
      vertex 2.872 1.411 0
      vertex 3.154 0.501 0
    endloop
  endfacet
  facet normal 0 0 -1
    outer loop
      vertex 2 0 0
      vertex 5.097 0.175 0
      vertex 5.097 -0.175 0
    endloop
  endfacet
  facet normal 0 0 -1
    outer loop
      vertex 1.41421 1.41421 0
      vertex 3.154 0.501 0
      vertex 2 0 0
    endloop
  endfacet
  facet normal 0 0 -1
    outer loop
      vertex -3.154 0.501 0
      vertex 1.814 3.558 0
      vertex -1.41421 1.41421 0
    endloop
  endfacet
  facet normal 0 0 -1
    outer loop
      vertex 1.41421 -1.41421 0
      vertex 3.876 -2.132 0
      vertex 4.057 -2.434 0
    endloop
  endfacet
  facet normal 0 0 -1
    outer loop
      vertex 3.154 -0.501 0
      vertex 4.389 -0.554 0
      vertex 4.145 -0.615 0
    endloop
  endfacet
  facet normal 0 0 -1
    outer loop
      vertex 3.154 -0.501 0
      vertex 4.145 -0.615 0
      vertex 3.944 -0.626 0
    endloop
  endfacet
  facet normal 0 0 -1
    outer loop
      vertex 1.41421 1.41421 0
      vertex 3.715 1.939 0
      vertex 3.601 1.84 0
    endloop
  endfacet
  facet normal 0 0 -1
    outer loop
      vertex 1.41421 1.41421 0
      vertex 3.601 1.84 0
      vertex 3.559 1.812 0
    endloop
  endfacet
  facet normal 0 0 -1
    outer loop
      vertex -1.41421 -1.41421 0
      vertex 0 -2 0
      vertex 1.45 -2.844 0
    endloop
  endfacet
  facet normal 0 0 -1
    outer loop
      vertex -1.41421 -1.41421 0
      vertex 1.45 -2.844 0
      vertex 1.814 -3.558 0
    endloop
  endfacet
  facet normal 0 0 -1
    outer loop
      vertex -3.154 -0.501 0
      vertex -1.41421 -1.41421 0
      vertex 1.814 -3.558 0
    endloop
  endfacet
  facet normal 0 0 -1
    outer loop
      vertex -3.154 -0.501 0
      vertex 1.814 -3.558 0
      vertex 1.832 -3.605 0
    endloop
  endfacet
  facet normal 0 0 -1
    outer loop
      vertex -3.154 -0.501 0
      vertex 1.832 -3.605 0
      vertex 1.866 -3.752 0
    endloop
  endfacet
  facet normal 0 0 -1
    outer loop
      vertex -3.154 -0.501 0
      vertex 1.866 -3.752 0
      vertex 0.498 -3.154 0
    endloop
  endfacet
  facet normal 0 0 -1
    outer loop
      vertex -3.154 -0.501 0
      vertex 0.498 -3.154 0
      vertex 0.454 -3.168 0
    endloop
  endfacet
  facet normal 0 0 -1
    outer loop
      vertex -3.154 -0.501 0
      vertex 0.454 -3.168 0
      vertex -2.872 -1.411 0
    endloop
  endfacet
  facet normal 0 0 -1
    outer loop
      vertex -4.389 -0.554 0
      vertex -4.713 -0.416 0
      vertex -4.145 -0.615 0
    endloop
  endfacet
  facet normal 0 0 -1
    outer loop
      vertex -4.145 -0.615 0
      vertex -4.713 -0.416 0
      vertex -3.995 -0.628 0
    endloop
  endfacet
  facet normal 0 0 -1
    outer loop
      vertex -3.944 -0.626 0
      vertex -4.713 -0.416 0
      vertex -3.154 -0.501 0
    endloop
  endfacet
  facet normal -1 0 0
    outer loop
      vertex -5.097 -0.175 0
      vertex -5.097 -0.175 4.8
      vertex -5.097 0.175 0
    endloop
  endfacet
  facet normal -1 0 0
    outer loop
      vertex -5.097 0.175 0
      vertex -5.097 -0.175 4.8
      vertex -5.097 0.175 4.8
    endloop
  endfacet
  facet normal 0 0 1
    outer loop
      vertex -1.451 -2.845 4.8
      vertex -0.623 -3.944 4.8
      vertex -3.154 -0.501 4.8
    endloop
  endfacet
  facet normal 0 0 1
    outer loop
      vertex -5.097 0.175 4.8
      vertex -5.097 -0.175 4.8
      vertex -4.713 -0.416 4.8
    endloop
  endfacet
  facet normal 0 0 1
    outer loop
      vertex -4.145 -0.615 4.8
      vertex -5.097 0.175 4.8
      vertex -4.389 -0.554 4.8
    endloop
  endfacet
  facet normal 0 0 1
    outer loop
      vertex -4.389 -0.554 4.8
      vertex -5.097 0.175 4.8
      vertex -4.713 -0.416 4.8
    endloop
  endfacet
  facet normal 0 0 1
    outer loop
      vertex -3.995 -0.628 4.8
      vertex -5.097 0.175 4.8
      vertex -4.145 -0.615 4.8
    endloop
  endfacet
  facet normal 0 0 1
    outer loop
      vertex -3.944 -0.626 4.8
      vertex -5.097 0.175 4.8
      vertex -3.995 -0.628 4.8
    endloop
  endfacet
  facet normal 0 0 1
    outer loop
      vertex -3.154 -0.501 4.8
      vertex -5.097 0.175 4.8
      vertex -3.944 -0.626 4.8
    endloop
  endfacet
  facet normal 0 0 1
    outer loop
      vertex -2.845 -1.449 4.8
      vertex -3.154 -0.501 4.8
      vertex -2.872 -1.411 4.8
    endloop
  endfacet
  facet normal 0 0 1
    outer loop
      vertex -2.257 -2.258 4.8
      vertex -3.154 -0.501 4.8
      vertex -2.845 -1.449 4.8
    endloop
  endfacet
  facet normal 0 0 1
    outer loop
      vertex -3.601 -1.84 4.8
      vertex -2.845 -1.449 4.8
      vertex -3.559 -1.812 4.8
    endloop
  endfacet
  facet normal 0 0 1
    outer loop
      vertex -3.601 -1.84 4.8
      vertex -3.715 -1.939 4.8
      vertex -2.845 -1.449 4.8
    endloop
  endfacet
  facet normal 0 0 1
    outer loop
      vertex -3.715 -1.939 4.8
      vertex -3.876 -2.132 4.8
      vertex -2.845 -1.449 4.8
    endloop
  endfacet
  facet normal 0 0 1
    outer loop
      vertex -3.876 -2.132 4.8
      vertex -4.057 -2.434 4.8
      vertex -2.845 -1.449 4.8
    endloop
  endfacet
  facet normal 0 0 1
    outer loop
      vertex -4.057 -2.434 4.8
      vertex -4.226 -2.854 4.8
      vertex -2.845 -1.449 4.8
    endloop
  endfacet
  facet normal 0 0 1
    outer loop
      vertex -4.226 -2.854 4.8
      vertex -4.021 -3.138 4.8
      vertex -2.845 -1.449 4.8
    endloop
  endfacet
  facet normal 0 0 1
    outer loop
      vertex -4.021 -3.138 4.8
      vertex -3.568 -3.107 4.8
      vertex -2.845 -1.449 4.8
    endloop
  endfacet
  facet normal 0 0 1
    outer loop
      vertex -0.498 -3.154 4.8
      vertex 0.454 -3.168 4.8
      vertex -3.154 -0.501 4.8
    endloop
  endfacet
  facet normal 0 0 1
    outer loop
      vertex -3.568 -3.107 4.8
      vertex -3.225 -3.028 4.8
      vertex -2.845 -1.449 4.8
    endloop
  endfacet
  facet normal 0 0 1
    outer loop
      vertex -1.814 -3.558 4.8
      vertex -1.832 -3.605 4.8
      vertex -1.451 -2.845 4.8
    endloop
  endfacet
  facet normal 0 0 1
    outer loop
      vertex -3.225 -3.028 4.8
      vertex -2.992 -2.934 4.8
      vertex -2.845 -1.449 4.8
    endloop
  endfacet
  facet normal 0 0 1
    outer loop
      vertex -2.992 -2.934 4.8
      vertex -2.863 -2.856 4.8
      vertex -2.845 -1.449 4.8
    endloop
  endfacet
  facet normal 0 0 1
    outer loop
      vertex -2.863 -2.856 4.8
      vertex -2.823 -2.825 4.8
      vertex -2.845 -1.449 4.8
    endloop
  endfacet
  facet normal 0 0 1
    outer loop
      vertex -2.823 -2.825 4.8
      vertex -2.257 -2.258 4.8
      vertex -2.845 -1.449 4.8
    endloop
  endfacet
  facet normal 0 0 1
    outer loop
      vertex -2.257 -2.258 4.8
      vertex -1.495 -2.83 4.8
      vertex -3.154 -0.501 4.8
    endloop
  endfacet
  facet normal 0 0 1
    outer loop
      vertex -1.495 -2.83 4.8
      vertex -1.451 -2.845 4.8
      vertex -3.154 -0.501 4.8
    endloop
  endfacet
  facet normal 0 0 1
    outer loop
      vertex -1.832 -3.605 4.8
      vertex -1.866 -3.752 4.8
      vertex -1.451 -2.845 4.8
    endloop
  endfacet
  facet normal 0 0 1
    outer loop
      vertex -1.866 -3.752 4.8
      vertex -1.883 -4.003 4.8
      vertex -1.451 -2.845 4.8
    endloop
  endfacet
  facet normal 0 0 1
    outer loop
      vertex -1.883 -4.003 4.8
      vertex -1.852 -4.354 4.8
      vertex -1.451 -2.845 4.8
    endloop
  endfacet
  facet normal 0 0 1
    outer loop
      vertex -1.852 -4.354 4.8
      vertex -1.741 -4.793 4.8
      vertex -1.451 -2.845 4.8
    endloop
  endfacet
  facet normal 0 0 1
    outer loop
      vertex -1.741 -4.793 4.8
      vertex -1.409 -4.902 4.8
      vertex -1.451 -2.845 4.8
    endloop
  endfacet
  facet normal 0 0 1
    outer loop
      vertex -1.409 -4.902 4.8
      vertex -1.061 -4.611 4.8
      vertex -1.451 -2.845 4.8
    endloop
  endfacet
  facet normal 0 0 1
    outer loop
      vertex -1.061 -4.611 4.8
      vertex -0.829 -4.345 4.8
      vertex -1.451 -2.845 4.8
    endloop
  endfacet
  facet normal 0 0 1
    outer loop
      vertex 0.623 -3.944 4.8
      vertex 0.637 -3.994 4.8
      vertex 0.498 -3.154 4.8
    endloop
  endfacet
  facet normal 0 0 1
    outer loop
      vertex -0.829 -4.345 4.8
      vertex -0.696 -4.132 4.8
      vertex -1.451 -2.845 4.8
    endloop
  endfacet
  facet normal 0 0 1
    outer loop
      vertex -0.696 -4.132 4.8
      vertex -0.637 -3.994 4.8
      vertex -1.451 -2.845 4.8
    endloop
  endfacet
  facet normal 0 0 1
    outer loop
      vertex -0.637 -3.994 4.8
      vertex -0.623 -3.944 4.8
      vertex -1.451 -2.845 4.8
    endloop
  endfacet
  facet normal 0 0 1
    outer loop
      vertex -0.623 -3.944 4.8
      vertex -0.498 -3.154 4.8
      vertex -3.154 -0.501 4.8
    endloop
  endfacet
  facet normal 0 0 1
    outer loop
      vertex 0.498 -3.154 4.8
      vertex 1.883 -4.003 4.8
      vertex -3.154 -0.501 4.8
    endloop
  endfacet
  facet normal 0 0 1
    outer loop
      vertex 0.454 -3.168 4.8
      vertex 0.498 -3.154 4.8
      vertex -3.154 -0.501 4.8
    endloop
  endfacet
  facet normal 0 0 1
    outer loop
      vertex 0.637 -3.994 4.8
      vertex 0.696 -4.132 4.8
      vertex 0.498 -3.154 4.8
    endloop
  endfacet
  facet normal 0 0 1
    outer loop
      vertex 0.696 -4.132 4.8
      vertex 0.829 -4.345 4.8
      vertex 0.498 -3.154 4.8
    endloop
  endfacet
  facet normal 0 0 1
    outer loop
      vertex 0.829 -4.345 4.8
      vertex 1.061 -4.611 4.8
      vertex 0.498 -3.154 4.8
    endloop
  endfacet
  facet normal 0 0 1
    outer loop
      vertex 1.061 -4.611 4.8
      vertex 1.409 -4.902 4.8
      vertex 0.498 -3.154 4.8
    endloop
  endfacet
  facet normal 0 0 1
    outer loop
      vertex 1.409 -4.902 4.8
      vertex 1.741 -4.793 4.8
      vertex 0.498 -3.154 4.8
    endloop
  endfacet
  facet normal 0 0 1
    outer loop
      vertex 1.741 -4.793 4.8
      vertex 1.852 -4.354 4.8
      vertex 0.498 -3.154 4.8
    endloop
  endfacet
  facet normal 0 0 1
    outer loop
      vertex 2 0 4.8
      vertex 4.713 -0.416 4.8
      vertex 5.097 -0.175 4.8
    endloop
  endfacet
  facet normal 0 0 1
    outer loop
      vertex 1.852 -4.354 4.8
      vertex 1.883 -4.003 4.8
      vertex 0.498 -3.154 4.8
    endloop
  endfacet
  facet normal 0 0 1
    outer loop
      vertex 2.823 -2.825 4.8
      vertex 2.863 -2.856 4.8
      vertex 2.257 -2.259 4.8
    endloop
  endfacet
  facet normal 0 0 1
    outer loop
      vertex 1.883 -4.003 4.8
      vertex 1.866 -3.752 4.8
      vertex -3.154 -0.501 4.8
    endloop
  endfacet
  facet normal 0 0 1
    outer loop
      vertex 1.866 -3.752 4.8
      vertex 1.832 -3.605 4.8
      vertex -3.154 -0.501 4.8
    endloop
  endfacet
  facet normal 0 0 1
    outer loop
      vertex 1.832 -3.605 4.8
      vertex 1.814 -3.558 4.8
      vertex -3.154 -0.501 4.8
    endloop
  endfacet
  facet normal 0 0 1
    outer loop
      vertex -2 0 4.8
      vertex -1.41421 1.41421 4.8
      vertex -3.153 0.547 4.8
    endloop
  endfacet
  facet normal 0 0 1
    outer loop
      vertex 2.863 -2.856 4.8
      vertex 2.992 -2.934 4.8
      vertex 2.257 -2.259 4.8
    endloop
  endfacet
  facet normal 0 0 1
    outer loop
      vertex 2.992 -2.934 4.8
      vertex 3.225 -3.028 4.8
      vertex 2.257 -2.259 4.8
    endloop
  endfacet
  facet normal 0 0 1
    outer loop
      vertex 3.225 -3.028 4.8
      vertex 3.568 -3.107 4.8
      vertex 2.257 -2.259 4.8
    endloop
  endfacet
  facet normal 0 0 1
    outer loop
      vertex 3.568 -3.107 4.8
      vertex 4.021 -3.138 4.8
      vertex 2.257 -2.259 4.8
    endloop
  endfacet
  facet normal 0 0 1
    outer loop
      vertex 4.021 -3.138 4.8
      vertex 4.226 -2.854 4.8
      vertex 2.257 -2.259 4.8
    endloop
  endfacet
  facet normal 0 0 1
    outer loop
      vertex -2 0 4.8
      vertex -3.153 0.547 4.8
      vertex -3.154 0.501 4.8
    endloop
  endfacet
  facet normal 0 0 1
    outer loop
      vertex 0.498 3.154 4.8
      vertex -0.454 3.168 4.8
      vertex -2.846 1.449 4.8
    endloop
  endfacet
  facet normal 0 0 1
    outer loop
      vertex -2 0 4.8
      vertex -3.154 0.501 4.8
      vertex -5.097 0.175 4.8
    endloop
  endfacet
  facet normal 0 0 1
    outer loop
      vertex 3.944 -0.626 4.8
      vertex 3.995 -0.628 4.8
      vertex 3.154 -0.501 4.8
    endloop
  endfacet
  facet normal 0 0 1
    outer loop
      vertex 3.154 0.501 4.8
      vertex 2 0 4.8
      vertex 5.097 0.175 4.8
    endloop
  endfacet
  facet normal 0 0 1
    outer loop
      vertex 3.154 0.501 4.8
      vertex 5.097 0.175 4.8
      vertex 4.713 0.416 4.8
    endloop
  endfacet
  facet normal 0 0 1
    outer loop
      vertex 1.41421 1.41421 4.8
      vertex 2.872 1.411 4.8
      vertex 2.845 1.449 4.8
    endloop
  endfacet
  facet normal 0 0 1
    outer loop
      vertex 2 0 4.8
      vertex 4.389 -0.554 4.8
      vertex 4.713 -0.416 4.8
    endloop
  endfacet
  facet normal 0 0 1
    outer loop
      vertex 3.995 -0.628 4.8
      vertex 4.145 -0.615 4.8
      vertex 3.154 -0.501 4.8
    endloop
  endfacet
  facet normal 0 0 1
    outer loop
      vertex 4.145 -0.615 4.8
      vertex 4.389 -0.554 4.8
      vertex 3.154 -0.501 4.8
    endloop
  endfacet
  facet normal 0 0 1
    outer loop
      vertex 1.41421 1.41421 4.8
      vertex 2.845 1.449 4.8
      vertex 3.559 1.812 4.8
    endloop
  endfacet
  facet normal 0 0 1
    outer loop
      vertex 2 0 4.8
      vertex 1.41421 -1.41421 4.8
      vertex 2.846 -1.449 4.8
    endloop
  endfacet
  facet normal 0 0 1
    outer loop
      vertex 2.846 -1.449 4.8
      vertex 3.715 -1.939 4.8
      vertex 3.601 -1.84 4.8
    endloop
  endfacet
  facet normal 0 0 1
    outer loop
      vertex 2.823 2.825 4.8
      vertex 2.257 2.258 4.8
      vertex 4.226 2.854 4.8
    endloop
  endfacet
  facet normal 0 0 1
    outer loop
      vertex 2.846 -1.449 4.8
      vertex 3.601 -1.84 4.8
      vertex 3.559 -1.812 4.8
    endloop
  endfacet
  facet normal 0 0 1
    outer loop
      vertex 2.846 -1.449 4.8
      vertex 1.41421 -1.41421 4.8
      vertex 3.715 -1.939 4.8
    endloop
  endfacet
  facet normal 0 0 1
    outer loop
      vertex 4.713 0.416 4.8
      vertex 4.389 0.554 4.8
      vertex 3.154 0.501 4.8
    endloop
  endfacet
  facet normal 0 0 1
    outer loop
      vertex -4.389 0.554 4.8
      vertex -4.713 0.416 4.8
      vertex -5.097 0.175 4.8
    endloop
  endfacet
  facet normal 0 0 1
    outer loop
      vertex 0 2 4.8
      vertex 3.715 1.939 4.8
      vertex 3.876 2.132 4.8
    endloop
  endfacet
  facet normal 0 0 1
    outer loop
      vertex -2.846 1.449 4.8
      vertex 1.832 3.605 4.8
      vertex 1.866 3.752 4.8
    endloop
  endfacet
  facet normal 0 0 1
    outer loop
      vertex 2.823 2.825 4.8
      vertex 4.226 2.854 4.8
      vertex 4.021 3.138 4.8
    endloop
  endfacet
  facet normal 0 0 1
    outer loop
      vertex 3.568 3.107 4.8
      vertex 3.225 3.028 4.8
      vertex 2.992 2.934 4.8
    endloop
  endfacet
  facet normal 0 0 1
    outer loop
      vertex 4.021 3.138 4.8
      vertex 3.568 3.107 4.8
      vertex 2.863 2.856 4.8
    endloop
  endfacet
  facet normal 0 0 1
    outer loop
      vertex 4.021 3.138 4.8
      vertex 2.863 2.856 4.8
      vertex 2.823 2.825 4.8
    endloop
  endfacet
  facet normal 0 0 1
    outer loop
      vertex 1.41421 -1.41421 4.8
      vertex 0 -2 4.8
      vertex 2.229 -2.296 4.8
    endloop
  endfacet
  facet normal 0 0 1
    outer loop
      vertex 4.057 2.434 4.8
      vertex 4.226 2.854 4.8
      vertex 2.257 2.258 4.8
    endloop
  endfacet
  facet normal 0 0 1
    outer loop
      vertex 1.41421 -1.41421 4.8
      vertex 4.226 -2.854 4.8
      vertex 4.057 -2.434 4.8
    endloop
  endfacet
  facet normal 0 0 1
    outer loop
      vertex -3.154 -0.501 4.8
      vertex -2 0 4.8
      vertex -5.097 0.175 4.8
    endloop
  endfacet
  facet normal 0 0 1
    outer loop
      vertex -1.41421 -1.41421 4.8
      vertex -2 0 4.8
      vertex -3.154 -0.501 4.8
    endloop
  endfacet
  facet normal 0 0 1
    outer loop
      vertex 0 -2 4.8
      vertex -1.41421 -1.41421 4.8
      vertex 1.45 -2.844 4.8
    endloop
  endfacet
  facet normal 0 0 1
    outer loop
      vertex -3.876 2.132 4.8
      vertex -3.715 1.939 4.8
      vertex -2.992 2.934 4.8
    endloop
  endfacet
  facet normal 0 0 1
    outer loop
      vertex -1.852 4.354 4.8
      vertex -1.883 4.003 4.8
      vertex -1.409 4.902 4.8
    endloop
  endfacet
  facet normal 0 0 1
    outer loop
      vertex 1.741 4.793 4.8
      vertex 1.409 4.902 4.8
      vertex 1.061 4.611 4.8
    endloop
  endfacet
  facet normal 0 0 1
    outer loop
      vertex -1.814 3.558 4.8
      vertex -0.623 3.944 4.8
      vertex -0.637 3.994 4.8
    endloop
  endfacet
  facet normal 0 0 1
    outer loop
      vertex 1.741 4.793 4.8
      vertex 1.061 4.611 4.8
      vertex 0.829 4.345 4.8
    endloop
  endfacet
  facet normal 0 0 1
    outer loop
      vertex 1.741 4.793 4.8
      vertex 0.829 4.345 4.8
      vertex 0.696 4.132 4.8
    endloop
  endfacet
  facet normal 0 0 1
    outer loop
      vertex -2.257 2.259 4.8
      vertex -3.601 1.84 4.8
      vertex -3.559 1.812 4.8
    endloop
  endfacet
  facet normal 0 0 1
    outer loop
      vertex 1.852 4.354 4.8
      vertex 1.741 4.793 4.8
      vertex 0.637 3.994 4.8
    endloop
  endfacet
  facet normal 0 0 1
    outer loop
      vertex -2.257 2.259 4.8
      vertex -2.823 2.825 4.8
      vertex -3.601 1.84 4.8
    endloop
  endfacet
  facet normal 0 0 1
    outer loop
      vertex 1.852 4.354 4.8
      vertex 0.637 3.994 4.8
      vertex 0.623 3.944 4.8
    endloop
  endfacet
  facet normal 0 0 1
    outer loop
      vertex 1.866 3.752 4.8
      vertex 1.883 4.003 4.8
      vertex 0.498 3.154 4.8
    endloop
  endfacet
  facet normal 0 0 1
    outer loop
      vertex -3.944 0.626 4.8
      vertex -3.995 0.628 4.8
      vertex -5.097 0.175 4.8
    endloop
  endfacet
  facet normal 0 0 1
    outer loop
      vertex -0.498 3.154 4.8
      vertex -0.623 3.944 4.8
      vertex -1.45 2.844 4.8
    endloop
  endfacet
  facet normal 0 0 1
    outer loop
      vertex -4.145 0.615 4.8
      vertex -4.389 0.554 4.8
      vertex -5.097 0.175 4.8
    endloop
  endfacet
  facet normal 0 0 1
    outer loop
      vertex -1.866 3.752 4.8
      vertex -1.832 3.605 4.8
      vertex -1.061 4.611 4.8
    endloop
  endfacet
  facet normal 0 0 1
    outer loop
      vertex -4.226 2.854 4.8
      vertex -4.057 2.434 4.8
      vertex -4.021 3.138 4.8
    endloop
  endfacet
  facet normal 0 0 1
    outer loop
      vertex -1.814 3.558 4.8
      vertex -0.637 3.994 4.8
      vertex -0.696 4.132 4.8
    endloop
  endfacet
  facet normal 0 0 1
    outer loop
      vertex -1.409 4.902 4.8
      vertex -1.741 4.793 4.8
      vertex -1.852 4.354 4.8
    endloop
  endfacet
  facet normal 0 0 1
    outer loop
      vertex -1.061 4.611 4.8
      vertex -1.409 4.902 4.8
      vertex -1.883 4.003 4.8
    endloop
  endfacet
  facet normal 0 0 1
    outer loop
      vertex -1.814 3.558 4.8
      vertex -0.696 4.132 4.8
      vertex -0.829 4.345 4.8
    endloop
  endfacet
  facet normal 0 0 1
    outer loop
      vertex -1.061 4.611 4.8
      vertex -1.883 4.003 4.8
      vertex -1.866 3.752 4.8
    endloop
  endfacet
  facet normal 0 0 1
    outer loop
      vertex -3.559 1.812 4.8
      vertex -2.846 1.449 4.8
      vertex -2.257 2.259 4.8
    endloop
  endfacet
  facet normal 0 0 1
    outer loop
      vertex -0.829 4.345 4.8
      vertex -1.061 4.611 4.8
      vertex -1.832 3.605 4.8
    endloop
  endfacet
  facet normal 0 0 1
    outer loop
      vertex -0.829 4.345 4.8
      vertex -1.832 3.605 4.8
      vertex -1.814 3.558 4.8
    endloop
  endfacet
  facet normal 0 0 1
    outer loop
      vertex -3.715 1.939 4.8
      vertex -2.823 2.825 4.8
      vertex -2.863 2.856 4.8
    endloop
  endfacet
  facet normal 0 0 1
    outer loop
      vertex -2.257 2.259 4.8
      vertex -0.454 3.168 4.8
      vertex -0.498 3.154 4.8
    endloop
  endfacet
  facet normal 0 0 1
    outer loop
      vertex -2.846 1.449 4.8
      vertex 1.866 3.752 4.8
      vertex 0.498 3.154 4.8
    endloop
  endfacet
  facet normal 0 0 1
    outer loop
      vertex -1.45 2.844 4.8
      vertex -2.229 2.296 4.8
      vertex -2.257 2.259 4.8
    endloop
  endfacet
  facet normal 0 0 1
    outer loop
      vertex -4.057 2.434 4.8
      vertex -3.876 2.132 4.8
      vertex -3.568 3.107 4.8
    endloop
  endfacet
  facet normal 0 0 1
    outer loop
      vertex -3.876 2.132 4.8
      vertex -2.992 2.934 4.8
      vertex -3.225 3.028 4.8
    endloop
  endfacet
  facet normal 0 0 1
    outer loop
      vertex -3.568 3.107 4.8
      vertex -4.021 3.138 4.8
      vertex -4.057 2.434 4.8
    endloop
  endfacet
  facet normal 0 0 1
    outer loop
      vertex -3.715 1.939 4.8
      vertex -3.601 1.84 4.8
      vertex -2.823 2.825 4.8
    endloop
  endfacet
  facet normal 0 0 1
    outer loop
      vertex -3.225 3.028 4.8
      vertex -3.568 3.107 4.8
      vertex -3.876 2.132 4.8
    endloop
  endfacet
  facet normal 0 0 1
    outer loop
      vertex -2.257 2.259 4.8
      vertex -0.498 3.154 4.8
      vertex -1.45 2.844 4.8
    endloop
  endfacet
  facet normal 0 0 1
    outer loop
      vertex -2.863 2.856 4.8
      vertex -2.992 2.934 4.8
      vertex -3.715 1.939 4.8
    endloop
  endfacet
  facet normal 0 0 1
    outer loop
      vertex -2.257 2.259 4.8
      vertex -2.846 1.449 4.8
      vertex -0.454 3.168 4.8
    endloop
  endfacet
  facet normal 0 0 1
    outer loop
      vertex -3.154 0.501 4.8
      vertex -3.944 0.626 4.8
      vertex -5.097 0.175 4.8
    endloop
  endfacet
  facet normal 0 0 1
    outer loop
      vertex 0 2 4.8
      vertex 4.057 2.434 4.8
      vertex 2.257 2.258 4.8
    endloop
  endfacet
  facet normal 0 0 1
    outer loop
      vertex 0 2 4.8
      vertex 1.41421 1.41421 4.8
      vertex 3.601 1.84 4.8
    endloop
  endfacet
  facet normal 0 0 1
    outer loop
      vertex 0 2 4.8
      vertex 3.601 1.84 4.8
      vertex 3.715 1.939 4.8
    endloop
  endfacet
  facet normal 0 0 1
    outer loop
      vertex 1.41421 -1.41421 4.8
      vertex 4.057 -2.434 4.8
      vertex 3.876 -2.132 4.8
    endloop
  endfacet
  facet normal 0 0 1
    outer loop
      vertex -3.995 0.628 4.8
      vertex -4.145 0.615 4.8
      vertex -5.097 0.175 4.8
    endloop
  endfacet
  facet normal 0 0 1
    outer loop
      vertex 1.814 -3.558 4.8
      vertex -1.41421 -1.41421 4.8
      vertex -3.154 -0.501 4.8
    endloop
  endfacet
  facet normal 0 0 1
    outer loop
      vertex 1.814 -3.558 4.8
      vertex 1.45 -2.844 4.8
      vertex -1.41421 -1.41421 4.8
    endloop
  endfacet
  facet normal 0 0 1
    outer loop
      vertex 0.623 3.944 4.8
      vertex 0.498 3.154 4.8
      vertex 1.883 4.003 4.8
    endloop
  endfacet
  facet normal 0 0 1
    outer loop
      vertex 0.623 3.944 4.8
      vertex 1.883 4.003 4.8
      vertex 1.852 4.354 4.8
    endloop
  endfacet
  facet normal 0 0 1
    outer loop
      vertex 0.696 4.132 4.8
      vertex 0.637 3.994 4.8
      vertex 1.741 4.793 4.8
    endloop
  endfacet
  facet normal 0 0 1
    outer loop
      vertex -1.814 3.558 4.8
      vertex -1.45 2.844 4.8
      vertex -0.623 3.944 4.8
    endloop
  endfacet
  facet normal 0 0 1
    outer loop
      vertex 0 2 4.8
      vertex 3.876 2.132 4.8
      vertex 4.057 2.434 4.8
    endloop
  endfacet
  facet normal 0 0 1
    outer loop
      vertex 3.559 1.812 4.8
      vertex 3.601 1.84 4.8
      vertex 1.41421 1.41421 4.8
    endloop
  endfacet
  facet normal 0 0 1
    outer loop
      vertex 5.097 -0.175 4.8
      vertex 5.097 0.175 4.8
      vertex 2 0 4.8
    endloop
  endfacet
  facet normal 0 0 1
    outer loop
      vertex 3.876 -2.132 4.8
      vertex 3.715 -1.939 4.8
      vertex 1.41421 -1.41421 4.8
    endloop
  endfacet
  facet normal 0 0 1
    outer loop
      vertex 1.45 -2.844 4.8
      vertex 2.229 -2.296 4.8
      vertex 0 -2 4.8
    endloop
  endfacet
  facet normal 0 0 1
    outer loop
      vertex 2.992 2.934 4.8
      vertex 2.863 2.856 4.8
      vertex 3.568 3.107 4.8
    endloop
  endfacet
  facet normal 0 0 1
    outer loop
      vertex 3.944 0.626 4.8
      vertex 4.145 0.615 4.8
      vertex 3.995 0.628 4.8
    endloop
  endfacet
  facet normal 0 0 1
    outer loop
      vertex 3.944 0.626 4.8
      vertex 4.389 0.554 4.8
      vertex 4.145 0.615 4.8
    endloop
  endfacet
  facet normal 0 0 1
    outer loop
      vertex 3.944 0.626 4.8
      vertex 3.154 0.501 4.8
      vertex 4.389 0.554 4.8
    endloop
  endfacet
  facet normal 0 0 1
    outer loop
      vertex 1.41421 -1.41421 4.8
      vertex 2.229 -2.296 4.8
      vertex 2.257 -2.259 4.8
    endloop
  endfacet
  facet normal 0 0 1
    outer loop
      vertex 1.41421 -1.41421 4.8
      vertex 2.257 -2.259 4.8
      vertex 4.226 -2.854 4.8
    endloop
  endfacet
  facet normal 0 0 1
    outer loop
      vertex 2 0 4.8
      vertex 2.846 -1.449 4.8
      vertex 3.153 -0.547 4.8
    endloop
  endfacet
  facet normal 0 0 1
    outer loop
      vertex 2.257 2.258 4.8
      vertex 1.495 2.83 4.8
      vertex 0 2 4.8
    endloop
  endfacet
  facet normal 0 0 1
    outer loop
      vertex -2.846 1.449 4.8
      vertex 1.814 3.558 4.8
      vertex 1.832 3.605 4.8
    endloop
  endfacet
  facet normal 0 0 1
    outer loop
      vertex -2.846 1.449 4.8
      vertex 1.451 2.845 4.8
      vertex 1.814 3.558 4.8
    endloop
  endfacet
  facet normal 0 0 1
    outer loop
      vertex -2.846 1.449 4.8
      vertex 1.495 2.83 4.8
      vertex 1.451 2.845 4.8
    endloop
  endfacet
  facet normal 0 0 1
    outer loop
      vertex -2.846 1.449 4.8
      vertex 0 2 4.8
      vertex 1.495 2.83 4.8
    endloop
  endfacet
  facet normal 0 0 1
    outer loop
      vertex -2.846 1.449 4.8
      vertex -1.41421 1.41421 4.8
      vertex 0 2 4.8
    endloop
  endfacet
  facet normal 0 0 1
    outer loop
      vertex 2 0 4.8
      vertex 3.153 -0.547 4.8
      vertex 3.154 -0.501 4.8
    endloop
  endfacet
  facet normal 0 0 1
    outer loop
      vertex 2 0 4.8
      vertex 3.154 -0.501 4.8
      vertex 4.389 -0.554 4.8
    endloop
  endfacet
  facet normal 0 0 1
    outer loop
      vertex 1.41421 1.41421 4.8
      vertex 2 0 4.8
      vertex 3.154 0.501 4.8
    endloop
  endfacet
  facet normal 0 0 1
    outer loop
      vertex 1.41421 1.41421 4.8
      vertex 3.154 0.501 4.8
      vertex 2.872 1.411 4.8
    endloop
  endfacet
  facet normal 0 0 1
    outer loop
      vertex -2.846 1.449 4.8
      vertex -3.153 0.547 4.8
      vertex -1.41421 1.41421 4.8
    endloop
  endfacet
  facet normal -0.391862 -0.920024 0
    outer loop
      vertex -4.713 -0.416 4.8
      vertex -4.713 -0.416 0
      vertex -4.389 -0.554 0
    endloop
  endfacet
  facet normal -0.391862 -0.920024 0
    outer loop
      vertex -4.389 -0.554 4.8
      vertex -4.713 -0.416 4.8
      vertex -4.389 -0.554 0
    endloop
  endfacet
  facet normal -0.242536 -0.970143 0
    outer loop
      vertex -4.389 -0.554 4.8
      vertex -4.389 -0.554 0
      vertex -4.145 -0.615 0
    endloop
  endfacet
  facet normal -0.242536 -0.970143 0
    outer loop
      vertex -4.145 -0.615 4.8
      vertex -4.389 -0.554 4.8
      vertex -4.145 -0.615 0
    endloop
  endfacet
  facet normal -0.086343 -0.996265 0
    outer loop
      vertex -4.145 -0.615 4.8
      vertex -4.145 -0.615 0
      vertex -3.995 -0.628 0
    endloop
  endfacet
  facet normal -0.086343 -0.996265 0
    outer loop
      vertex -3.995 -0.628 4.8
      vertex -4.145 -0.615 4.8
      vertex -3.995 -0.628 0
    endloop
  endfacet
  facet normal 0.0391856 -0.999232 0
    outer loop
      vertex -3.995 -0.628 4.8
      vertex -3.995 -0.628 0
      vertex -3.944 -0.626 0
    endloop
  endfacet
  facet normal 0.0391856 -0.999232 0
    outer loop
      vertex -3.944 -0.626 4.8
      vertex -3.995 -0.628 4.8
      vertex -3.944 -0.626 0
    endloop
  endfacet
  facet normal 0.156284 -0.987712 0
    outer loop
      vertex -3.944 -0.626 4.8
      vertex -3.944 -0.626 0
      vertex -3.154 -0.501 0
    endloop
  endfacet
  facet normal 0.156284 -0.987712 0
    outer loop
      vertex -3.154 -0.501 4.8
      vertex -3.944 -0.626 4.8
      vertex -3.154 -0.501 0
    endloop
  endfacet
  facet normal -0.955187 -0.296003 0
    outer loop
      vertex -3.154 -0.501 0
      vertex -2.872 -1.411 0
      vertex -3.154 -0.501 4.8
    endloop
  endfacet
  facet normal -0.955187 -0.296003 0
    outer loop
      vertex -3.154 -0.501 4.8
      vertex -2.872 -1.411 0
      vertex -2.872 -1.411 4.8
    endloop
  endfacet
  facet normal -0.81518 -0.579207 0
    outer loop
      vertex -2.872 -1.411 0
      vertex -2.845 -1.449 0
      vertex -2.872 -1.411 4.8
    endloop
  endfacet
  facet normal -0.81518 -0.579207 0
    outer loop
      vertex -2.872 -1.411 4.8
      vertex -2.845 -1.449 0
      vertex -2.845 -1.449 4.8
    endloop
  endfacet
  facet normal -0.453196 0.891411 0
    outer loop
      vertex -3.559 -1.812 0
      vertex -3.559 -1.812 4.8
      vertex -2.845 -1.449 0
    endloop
  endfacet
  facet normal -0.453196 0.891411 0
    outer loop
      vertex -2.845 -1.449 0
      vertex -3.559 -1.812 4.8
      vertex -2.845 -1.449 4.8
    endloop
  endfacet
  facet normal -0.5547 0.83205 0
    outer loop
      vertex -3.601 -1.84 0
      vertex -3.601 -1.84 4.8
      vertex -3.559 -1.812 0
    endloop
  endfacet
  facet normal -0.5547 0.83205 0
    outer loop
      vertex -3.559 -1.812 0
      vertex -3.601 -1.84 4.8
      vertex -3.559 -1.812 4.8
    endloop
  endfacet
  facet normal -0.655687 0.755033 0
    outer loop
      vertex -3.715 -1.939 0
      vertex -3.715 -1.939 4.8
      vertex -3.601 -1.84 0
    endloop
  endfacet
  facet normal -0.655687 0.755033 0
    outer loop
      vertex -3.601 -1.84 0
      vertex -3.715 -1.939 4.8
      vertex -3.601 -1.84 4.8
    endloop
  endfacet
  facet normal -0.767895 0.640576 0
    outer loop
      vertex -3.876 -2.132 0
      vertex -3.876 -2.132 4.8
      vertex -3.715 -1.939 0
    endloop
  endfacet
  facet normal -0.767895 0.640576 0
    outer loop
      vertex -3.715 -1.939 0
      vertex -3.876 -2.132 4.8
      vertex -3.715 -1.939 4.8
    endloop
  endfacet
  facet normal -0.857743 0.514078 0
    outer loop
      vertex -4.057 -2.434 0
      vertex -4.057 -2.434 4.8
      vertex -3.876 -2.132 0
    endloop
  endfacet
  facet normal -0.857743 0.514078 0
    outer loop
      vertex -3.876 -2.132 0
      vertex -4.057 -2.434 4.8
      vertex -3.876 -2.132 4.8
    endloop
  endfacet
  facet normal -0.927713 0.373294 0
    outer loop
      vertex -4.226 -2.854 0
      vertex -4.226 -2.854 4.8
      vertex -4.057 -2.434 0
    endloop
  endfacet
  facet normal -0.927713 0.373294 0
    outer loop
      vertex -4.057 -2.434 0
      vertex -4.226 -2.854 4.8
      vertex -4.057 -2.434 4.8
    endloop
  endfacet
  facet normal -0.81083 -0.585282 0
    outer loop
      vertex -4.226 -2.854 0
      vertex -4.021 -3.138 0
      vertex -4.226 -2.854 4.8
    endloop
  endfacet
  facet normal -0.81083 -0.585282 0
    outer loop
      vertex -4.226 -2.854 4.8
      vertex -4.021 -3.138 0
      vertex -4.021 -3.138 4.8
    endloop
  endfacet
  facet normal 0.068273 -0.997667 0
    outer loop
      vertex -4.021 -3.138 4.8
      vertex -4.021 -3.138 0
      vertex -3.568 -3.107 0
    endloop
  endfacet
  facet normal 0.068273 -0.997667 0
    outer loop
      vertex -3.568 -3.107 4.8
      vertex -4.021 -3.138 4.8
      vertex -3.568 -3.107 0
    endloop
  endfacet
  facet normal 0.224444 -0.974487 0
    outer loop
      vertex -3.568 -3.107 4.8
      vertex -3.568 -3.107 0
      vertex -3.225 -3.028 0
    endloop
  endfacet
  facet normal 0.224444 -0.974487 0
    outer loop
      vertex -3.225 -3.028 4.8
      vertex -3.568 -3.107 4.8
      vertex -3.225 -3.028 0
    endloop
  endfacet
  facet normal 0.374134 -0.927375 0
    outer loop
      vertex -3.225 -3.028 4.8
      vertex -3.225 -3.028 0
      vertex -2.992 -2.934 0
    endloop
  endfacet
  facet normal 0.374134 -0.927375 0
    outer loop
      vertex -2.992 -2.934 4.8
      vertex -3.225 -3.028 4.8
      vertex -2.992 -2.934 0
    endloop
  endfacet
  facet normal 0.517419 -0.855732 0
    outer loop
      vertex -2.992 -2.934 4.8
      vertex -2.992 -2.934 0
      vertex -2.863 -2.856 0
    endloop
  endfacet
  facet normal 0.517419 -0.855732 0
    outer loop
      vertex -2.863 -2.856 4.8
      vertex -2.992 -2.934 4.8
      vertex -2.863 -2.856 0
    endloop
  endfacet
  facet normal 0.612572 -0.790415 0
    outer loop
      vertex -2.863 -2.856 4.8
      vertex -2.863 -2.856 0
      vertex -2.823 -2.825 0
    endloop
  endfacet
  facet normal 0.612572 -0.790415 0
    outer loop
      vertex -2.823 -2.825 4.8
      vertex -2.863 -2.856 4.8
      vertex -2.823 -2.825 0
    endloop
  endfacet
  facet normal 0.707731 -0.706482 0
    outer loop
      vertex -2.823 -2.825 4.8
      vertex -2.823 -2.825 0
      vertex -2.257 -2.258 0
    endloop
  endfacet
  facet normal 0.707731 -0.706482 0
    outer loop
      vertex -2.257 -2.258 4.8
      vertex -2.823 -2.825 4.8
      vertex -2.257 -2.258 0
    endloop
  endfacet
  facet normal -0.600336 -0.799748 0
    outer loop
      vertex -2.257 -2.258 4.8
      vertex -2.257 -2.258 0
      vertex -1.495 -2.83 0
    endloop
  endfacet
  facet normal -0.600336 -0.799748 0
    outer loop
      vertex -1.495 -2.83 4.8
      vertex -2.257 -2.258 4.8
      vertex -1.495 -2.83 0
    endloop
  endfacet
  facet normal -0.322674 -0.94651 0
    outer loop
      vertex -1.495 -2.83 4.8
      vertex -1.495 -2.83 0
      vertex -1.451 -2.845 0
    endloop
  endfacet
  facet normal -0.322674 -0.94651 0
    outer loop
      vertex -1.451 -2.845 4.8
      vertex -1.495 -2.83 4.8
      vertex -1.451 -2.845 0
    endloop
  endfacet
  facet normal -0.891154 0.453701 0
    outer loop
      vertex -1.814 -3.558 0
      vertex -1.814 -3.558 4.8
      vertex -1.451 -2.845 0
    endloop
  endfacet
  facet normal -0.891154 0.453701 0
    outer loop
      vertex -1.451 -2.845 0
      vertex -1.814 -3.558 4.8
      vertex -1.451 -2.845 4.8
    endloop
  endfacet
  facet normal -0.933857 0.357647 0
    outer loop
      vertex -1.832 -3.605 0
      vertex -1.832 -3.605 4.8
      vertex -1.814 -3.558 0
    endloop
  endfacet
  facet normal -0.933857 0.357647 0
    outer loop
      vertex -1.814 -3.558 0
      vertex -1.832 -3.605 4.8
      vertex -1.814 -3.558 4.8
    endloop
  endfacet
  facet normal -0.974279 0.225344 0
    outer loop
      vertex -1.866 -3.752 0
      vertex -1.866 -3.752 4.8
      vertex -1.832 -3.605 0
    endloop
  endfacet
  facet normal -0.974279 0.225344 0
    outer loop
      vertex -1.832 -3.605 0
      vertex -1.866 -3.752 4.8
      vertex -1.832 -3.605 4.8
    endloop
  endfacet
  facet normal -0.997714 0.0675743 0
    outer loop
      vertex -1.883 -4.003 0
      vertex -1.883 -4.003 4.8
      vertex -1.866 -3.752 0
    endloop
  endfacet
  facet normal -0.997714 0.0675743 0
    outer loop
      vertex -1.866 -3.752 0
      vertex -1.883 -4.003 4.8
      vertex -1.866 -3.752 4.8
    endloop
  endfacet
  facet normal -0.996123 -0.0879766 0
    outer loop
      vertex -1.883 -4.003 0
      vertex -1.852 -4.354 0
      vertex -1.883 -4.003 4.8
    endloop
  endfacet
  facet normal -0.996123 -0.0879766 0
    outer loop
      vertex -1.883 -4.003 4.8
      vertex -1.852 -4.354 0
      vertex -1.852 -4.354 4.8
    endloop
  endfacet
  facet normal -0.969489 -0.245133 0
    outer loop
      vertex -1.852 -4.354 0
      vertex -1.741 -4.793 0
      vertex -1.852 -4.354 4.8
    endloop
  endfacet
  facet normal -0.969489 -0.245133 0
    outer loop
      vertex -1.852 -4.354 4.8
      vertex -1.741 -4.793 0
      vertex -1.741 -4.793 4.8
    endloop
  endfacet
  facet normal -0.311932 -0.950104 0
    outer loop
      vertex -1.741 -4.793 4.8
      vertex -1.741 -4.793 0
      vertex -1.409 -4.902 0
    endloop
  endfacet
  facet normal -0.311932 -0.950104 0
    outer loop
      vertex -1.409 -4.902 4.8
      vertex -1.741 -4.793 4.8
      vertex -1.409 -4.902 0
    endloop
  endfacet
  facet normal 0.641484 -0.767136 0
    outer loop
      vertex -1.409 -4.902 4.8
      vertex -1.409 -4.902 0
      vertex -1.061 -4.611 0
    endloop
  endfacet
  facet normal 0.641484 -0.767136 0
    outer loop
      vertex -1.061 -4.611 4.8
      vertex -1.409 -4.902 4.8
      vertex -1.061 -4.611 0
    endloop
  endfacet
  facet normal 0.753629 -0.6573 0
    outer loop
      vertex -1.061 -4.611 4.8
      vertex -1.061 -4.611 0
      vertex -0.829 -4.345 0
    endloop
  endfacet
  facet normal 0.753629 -0.6573 0
    outer loop
      vertex -0.829 -4.345 4.8
      vertex -1.061 -4.611 4.8
      vertex -0.829 -4.345 0
    endloop
  endfacet
  facet normal 0.848222 -0.529641 0
    outer loop
      vertex -0.829 -4.345 4.8
      vertex -0.829 -4.345 0
      vertex -0.696 -4.132 0
    endloop
  endfacet
  facet normal 0.848222 -0.529641 0
    outer loop
      vertex -0.696 -4.132 4.8
      vertex -0.829 -4.345 4.8
      vertex -0.696 -4.132 0
    endloop
  endfacet
  facet normal 0.919489 -0.393115 0
    outer loop
      vertex -0.696 -4.132 4.8
      vertex -0.696 -4.132 0
      vertex -0.637 -3.994 0
    endloop
  endfacet
  facet normal 0.919489 -0.393115 0
    outer loop
      vertex -0.637 -3.994 4.8
      vertex -0.696 -4.132 4.8
      vertex -0.637 -3.994 0
    endloop
  endfacet
  facet normal 0.962964 -0.26963 0
    outer loop
      vertex -0.637 -3.994 4.8
      vertex -0.637 -3.994 0
      vertex -0.623 -3.944 0
    endloop
  endfacet
  facet normal 0.962964 -0.26963 0
    outer loop
      vertex -0.623 -3.944 4.8
      vertex -0.637 -3.994 4.8
      vertex -0.623 -3.944 0
    endloop
  endfacet
  facet normal 0.987712 -0.156284 0
    outer loop
      vertex -0.623 -3.944 4.8
      vertex -0.623 -3.944 0
      vertex -0.498 -3.154 0
    endloop
  endfacet
  facet normal 0.987712 -0.156284 0
    outer loop
      vertex -0.498 -3.154 4.8
      vertex -0.623 -3.944 4.8
      vertex -0.498 -3.154 0
    endloop
  endfacet
  facet normal -0.0147043 -0.999892 0
    outer loop
      vertex -0.498 -3.154 4.8
      vertex -0.498 -3.154 0
      vertex 0.454 -3.168 0
    endloop
  endfacet
  facet normal -0.0147043 -0.999892 0
    outer loop
      vertex 0.454 -3.168 4.8
      vertex -0.498 -3.154 4.8
      vertex 0.454 -3.168 0
    endloop
  endfacet
  facet normal 0.303204 -0.952926 0
    outer loop
      vertex 0.454 -3.168 4.8
      vertex 0.454 -3.168 0
      vertex 0.498 -3.154 0
    endloop
  endfacet
  facet normal 0.303204 -0.952926 0
    outer loop
      vertex 0.498 -3.154 4.8
      vertex 0.454 -3.168 4.8
      vertex 0.498 -3.154 0
    endloop
  endfacet
  facet normal -0.987712 -0.156284 0
    outer loop
      vertex 0.498 -3.154 0
      vertex 0.623 -3.944 0
      vertex 0.498 -3.154 4.8
    endloop
  endfacet
  facet normal -0.987712 -0.156284 0
    outer loop
      vertex 0.498 -3.154 4.8
      vertex 0.623 -3.944 0
      vertex 0.623 -3.944 4.8
    endloop
  endfacet
  facet normal -0.962964 -0.26963 0
    outer loop
      vertex 0.623 -3.944 0
      vertex 0.637 -3.994 0
      vertex 0.623 -3.944 4.8
    endloop
  endfacet
  facet normal -0.962964 -0.26963 0
    outer loop
      vertex 0.623 -3.944 4.8
      vertex 0.637 -3.994 0
      vertex 0.637 -3.994 4.8
    endloop
  endfacet
  facet normal -0.919489 -0.393115 0
    outer loop
      vertex 0.637 -3.994 0
      vertex 0.696 -4.132 0
      vertex 0.637 -3.994 4.8
    endloop
  endfacet
  facet normal -0.919489 -0.393115 0
    outer loop
      vertex 0.637 -3.994 4.8
      vertex 0.696 -4.132 0
      vertex 0.696 -4.132 4.8
    endloop
  endfacet
  facet normal -0.848222 -0.529641 0
    outer loop
      vertex 0.696 -4.132 0
      vertex 0.829 -4.345 0
      vertex 0.696 -4.132 4.8
    endloop
  endfacet
  facet normal -0.848222 -0.529641 0
    outer loop
      vertex 0.696 -4.132 4.8
      vertex 0.829 -4.345 0
      vertex 0.829 -4.345 4.8
    endloop
  endfacet
  facet normal -0.753629 -0.6573 0
    outer loop
      vertex 0.829 -4.345 0
      vertex 1.061 -4.611 0
      vertex 0.829 -4.345 4.8
    endloop
  endfacet
  facet normal -0.753629 -0.6573 0
    outer loop
      vertex 0.829 -4.345 4.8
      vertex 1.061 -4.611 0
      vertex 1.061 -4.611 4.8
    endloop
  endfacet
  facet normal -0.641484 -0.767136 0
    outer loop
      vertex 1.061 -4.611 4.8
      vertex 1.061 -4.611 0
      vertex 1.409 -4.902 0
    endloop
  endfacet
  facet normal -0.641484 -0.767136 0
    outer loop
      vertex 1.409 -4.902 4.8
      vertex 1.061 -4.611 4.8
      vertex 1.409 -4.902 0
    endloop
  endfacet
  facet normal 0.311932 -0.950104 0
    outer loop
      vertex 1.409 -4.902 4.8
      vertex 1.409 -4.902 0
      vertex 1.741 -4.793 0
    endloop
  endfacet
  facet normal 0.311932 -0.950104 0
    outer loop
      vertex 1.741 -4.793 4.8
      vertex 1.409 -4.902 4.8
      vertex 1.741 -4.793 0
    endloop
  endfacet
  facet normal 0.969489 -0.245133 0
    outer loop
      vertex 1.741 -4.793 4.8
      vertex 1.741 -4.793 0
      vertex 1.852 -4.354 0
    endloop
  endfacet
  facet normal 0.969489 -0.245133 0
    outer loop
      vertex 1.852 -4.354 4.8
      vertex 1.741 -4.793 4.8
      vertex 1.852 -4.354 0
    endloop
  endfacet
  facet normal 0.996123 -0.0879766 0
    outer loop
      vertex 1.852 -4.354 4.8
      vertex 1.852 -4.354 0
      vertex 1.883 -4.003 0
    endloop
  endfacet
  facet normal 0.996123 -0.0879766 0
    outer loop
      vertex 1.883 -4.003 4.8
      vertex 1.852 -4.354 4.8
      vertex 1.883 -4.003 0
    endloop
  endfacet
  facet normal 0.997714 0.0675743 0
    outer loop
      vertex 1.883 -4.003 0
      vertex 1.866 -3.752 0
      vertex 1.866 -3.752 4.8
    endloop
  endfacet
  facet normal 0.997714 0.0675743 0
    outer loop
      vertex 1.883 -4.003 4.8
      vertex 1.883 -4.003 0
      vertex 1.866 -3.752 4.8
    endloop
  endfacet
  facet normal 0.974279 0.225344 0
    outer loop
      vertex 1.866 -3.752 0
      vertex 1.832 -3.605 0
      vertex 1.832 -3.605 4.8
    endloop
  endfacet
  facet normal 0.974279 0.225344 0
    outer loop
      vertex 1.866 -3.752 4.8
      vertex 1.866 -3.752 0
      vertex 1.832 -3.605 4.8
    endloop
  endfacet
  facet normal 0.933857 0.357647 0
    outer loop
      vertex 1.832 -3.605 0
      vertex 1.814 -3.558 0
      vertex 1.814 -3.558 4.8
    endloop
  endfacet
  facet normal 0.933857 0.357647 0
    outer loop
      vertex 1.832 -3.605 4.8
      vertex 1.832 -3.605 0
      vertex 1.814 -3.558 4.8
    endloop
  endfacet
  facet normal 0.890906 0.454187 0
    outer loop
      vertex 1.814 -3.558 0
      vertex 1.45 -2.844 0
      vertex 1.45 -2.844 4.8
    endloop
  endfacet
  facet normal 0.890906 0.454187 0
    outer loop
      vertex 1.814 -3.558 4.8
      vertex 1.814 -3.558 0
      vertex 1.45 -2.844 4.8
    endloop
  endfacet
  facet normal 0.575363 -0.817898 0
    outer loop
      vertex 1.45 -2.844 4.8
      vertex 1.45 -2.844 0
      vertex 2.229 -2.296 0
    endloop
  endfacet
  facet normal 0.575363 -0.817898 0
    outer loop
      vertex 2.229 -2.296 4.8
      vertex 1.45 -2.844 4.8
      vertex 2.229 -2.296 0
    endloop
  endfacet
  facet normal 0.797406 -0.603443 0
    outer loop
      vertex 2.229 -2.296 4.8
      vertex 2.229 -2.296 0
      vertex 2.257 -2.259 0
    endloop
  endfacet
  facet normal 0.797406 -0.603443 0
    outer loop
      vertex 2.257 -2.259 4.8
      vertex 2.229 -2.296 4.8
      vertex 2.257 -2.259 0
    endloop
  endfacet
  facet normal -0.707107 -0.707107 0
    outer loop
      vertex 2.257 -2.259 4.8
      vertex 2.257 -2.259 0
      vertex 2.823 -2.825 0
    endloop
  endfacet
  facet normal -0.707107 -0.707107 0
    outer loop
      vertex 2.823 -2.825 4.8
      vertex 2.257 -2.259 4.8
      vertex 2.823 -2.825 0
    endloop
  endfacet
  facet normal -0.612572 -0.790415 0
    outer loop
      vertex 2.823 -2.825 4.8
      vertex 2.823 -2.825 0
      vertex 2.863 -2.856 0
    endloop
  endfacet
  facet normal -0.612572 -0.790415 0
    outer loop
      vertex 2.863 -2.856 4.8
      vertex 2.823 -2.825 4.8
      vertex 2.863 -2.856 0
    endloop
  endfacet
  facet normal -0.517419 -0.855732 0
    outer loop
      vertex 2.863 -2.856 4.8
      vertex 2.863 -2.856 0
      vertex 2.992 -2.934 0
    endloop
  endfacet
  facet normal -0.517419 -0.855732 0
    outer loop
      vertex 2.992 -2.934 4.8
      vertex 2.863 -2.856 4.8
      vertex 2.992 -2.934 0
    endloop
  endfacet
  facet normal -0.374134 -0.927375 0
    outer loop
      vertex 2.992 -2.934 4.8
      vertex 2.992 -2.934 0
      vertex 3.225 -3.028 0
    endloop
  endfacet
  facet normal -0.374134 -0.927375 0
    outer loop
      vertex 3.225 -3.028 4.8
      vertex 2.992 -2.934 4.8
      vertex 3.225 -3.028 0
    endloop
  endfacet
  facet normal -0.224444 -0.974487 0
    outer loop
      vertex 3.225 -3.028 4.8
      vertex 3.225 -3.028 0
      vertex 3.568 -3.107 0
    endloop
  endfacet
  facet normal -0.224444 -0.974487 0
    outer loop
      vertex 3.568 -3.107 4.8
      vertex 3.225 -3.028 4.8
      vertex 3.568 -3.107 0
    endloop
  endfacet
  facet normal -0.068273 -0.997667 0
    outer loop
      vertex 3.568 -3.107 4.8
      vertex 3.568 -3.107 0
      vertex 4.021 -3.138 0
    endloop
  endfacet
  facet normal -0.068273 -0.997667 0
    outer loop
      vertex 4.021 -3.138 4.8
      vertex 3.568 -3.107 4.8
      vertex 4.021 -3.138 0
    endloop
  endfacet
  facet normal 0.81083 -0.585282 0
    outer loop
      vertex 4.021 -3.138 4.8
      vertex 4.021 -3.138 0
      vertex 4.226 -2.854 0
    endloop
  endfacet
  facet normal 0.81083 -0.585282 0
    outer loop
      vertex 4.226 -2.854 4.8
      vertex 4.021 -3.138 4.8
      vertex 4.226 -2.854 0
    endloop
  endfacet
  facet normal 0.927713 0.373294 0
    outer loop
      vertex 4.226 -2.854 0
      vertex 4.057 -2.434 0
      vertex 4.057 -2.434 4.8
    endloop
  endfacet
  facet normal 0.927713 0.373294 0
    outer loop
      vertex 4.226 -2.854 4.8
      vertex 4.226 -2.854 0
      vertex 4.057 -2.434 4.8
    endloop
  endfacet
  facet normal 0.857743 0.514078 0
    outer loop
      vertex 4.057 -2.434 0
      vertex 3.876 -2.132 0
      vertex 3.876 -2.132 4.8
    endloop
  endfacet
  facet normal 0.857743 0.514078 0
    outer loop
      vertex 4.057 -2.434 4.8
      vertex 4.057 -2.434 0
      vertex 3.876 -2.132 4.8
    endloop
  endfacet
  facet normal 0.767895 0.640576 0
    outer loop
      vertex 3.876 -2.132 0
      vertex 3.715 -1.939 0
      vertex 3.715 -1.939 4.8
    endloop
  endfacet
  facet normal 0.767895 0.640576 0
    outer loop
      vertex 3.876 -2.132 4.8
      vertex 3.876 -2.132 0
      vertex 3.715 -1.939 4.8
    endloop
  endfacet
  facet normal 0.655687 0.755033 0
    outer loop
      vertex 3.601 -1.84 0
      vertex 3.601 -1.84 4.8
      vertex 3.715 -1.939 0
    endloop
  endfacet
  facet normal 0.655687 0.755033 0
    outer loop
      vertex 3.715 -1.939 0
      vertex 3.601 -1.84 4.8
      vertex 3.715 -1.939 4.8
    endloop
  endfacet
  facet normal 0.5547 0.83205 0
    outer loop
      vertex 3.559 -1.812 0
      vertex 3.559 -1.812 4.8
      vertex 3.601 -1.84 0
    endloop
  endfacet
  facet normal 0.5547 0.83205 0
    outer loop
      vertex 3.601 -1.84 0
      vertex 3.559 -1.812 4.8
      vertex 3.601 -1.84 4.8
    endloop
  endfacet
  facet normal 0.453701 0.891154 0
    outer loop
      vertex 2.846 -1.449 0
      vertex 2.846 -1.449 4.8
      vertex 3.559 -1.812 0
    endloop
  endfacet
  facet normal 0.453701 0.891154 0
    outer loop
      vertex 3.559 -1.812 0
      vertex 2.846 -1.449 4.8
      vertex 3.559 -1.812 4.8
    endloop
  endfacet
  facet normal 0.94667 -0.322204 0
    outer loop
      vertex 2.846 -1.449 4.8
      vertex 2.846 -1.449 0
      vertex 3.153 -0.547 0
    endloop
  endfacet
  facet normal 0.94667 -0.322204 0
    outer loop
      vertex 3.153 -0.547 4.8
      vertex 2.846 -1.449 4.8
      vertex 3.153 -0.547 0
    endloop
  endfacet
  facet normal 0.999764 -0.021734 0
    outer loop
      vertex 3.153 -0.547 4.8
      vertex 3.153 -0.547 0
      vertex 3.154 -0.501 0
    endloop
  endfacet
  facet normal 0.999764 -0.021734 0
    outer loop
      vertex 3.154 -0.501 4.8
      vertex 3.153 -0.547 4.8
      vertex 3.154 -0.501 0
    endloop
  endfacet
  facet normal -0.156284 -0.987712 0
    outer loop
      vertex 3.154 -0.501 4.8
      vertex 3.154 -0.501 0
      vertex 3.944 -0.626 0
    endloop
  endfacet
  facet normal -0.156284 -0.987712 0
    outer loop
      vertex 3.944 -0.626 4.8
      vertex 3.154 -0.501 4.8
      vertex 3.944 -0.626 0
    endloop
  endfacet
  facet normal -0.0391856 -0.999232 0
    outer loop
      vertex 3.944 -0.626 4.8
      vertex 3.944 -0.626 0
      vertex 3.995 -0.628 0
    endloop
  endfacet
  facet normal -0.0391856 -0.999232 0
    outer loop
      vertex 3.995 -0.628 4.8
      vertex 3.944 -0.626 4.8
      vertex 3.995 -0.628 0
    endloop
  endfacet
  facet normal 0.086343 -0.996265 0
    outer loop
      vertex 3.995 -0.628 4.8
      vertex 3.995 -0.628 0
      vertex 4.145 -0.615 0
    endloop
  endfacet
  facet normal 0.086343 -0.996265 0
    outer loop
      vertex 4.145 -0.615 4.8
      vertex 3.995 -0.628 4.8
      vertex 4.145 -0.615 0
    endloop
  endfacet
  facet normal 0.242536 -0.970143 0
    outer loop
      vertex 4.145 -0.615 4.8
      vertex 4.145 -0.615 0
      vertex 4.389 -0.554 0
    endloop
  endfacet
  facet normal 0.242536 -0.970143 0
    outer loop
      vertex 4.389 -0.554 4.8
      vertex 4.145 -0.615 4.8
      vertex 4.389 -0.554 0
    endloop
  endfacet
  facet normal 0.391862 -0.920024 0
    outer loop
      vertex 4.389 -0.554 4.8
      vertex 4.389 -0.554 0
      vertex 4.713 -0.416 0
    endloop
  endfacet
  facet normal 0.391862 -0.920024 0
    outer loop
      vertex 4.713 -0.416 4.8
      vertex 4.389 -0.554 4.8
      vertex 4.713 -0.416 0
    endloop
  endfacet
  facet normal 0.531584 -0.847005 0
    outer loop
      vertex 4.713 -0.416 4.8
      vertex 4.713 -0.416 0
      vertex 5.097 -0.175 0
    endloop
  endfacet
  facet normal 0.531584 -0.847005 0
    outer loop
      vertex 5.097 -0.175 4.8
      vertex 4.713 -0.416 4.8
      vertex 5.097 -0.175 0
    endloop
  endfacet
  facet normal 1 0 0
    outer loop
      vertex 5.097 -0.175 4.8
      vertex 5.097 -0.175 0
      vertex 5.097 0.175 0
    endloop
  endfacet
  facet normal 1 0 0
    outer loop
      vertex 5.097 0.175 4.8
      vertex 5.097 -0.175 4.8
      vertex 5.097 0.175 0
    endloop
  endfacet
  facet normal 0.531584 0.847005 0
    outer loop
      vertex 4.713 0.416 0
      vertex 4.713 0.416 4.8
      vertex 5.097 0.175 0
    endloop
  endfacet
  facet normal 0.531584 0.847005 0
    outer loop
      vertex 5.097 0.175 0
      vertex 4.713 0.416 4.8
      vertex 5.097 0.175 4.8
    endloop
  endfacet
  facet normal 0.391862 0.920024 0
    outer loop
      vertex 4.389 0.554 0
      vertex 4.389 0.554 4.8
      vertex 4.713 0.416 0
    endloop
  endfacet
  facet normal 0.391862 0.920024 0
    outer loop
      vertex 4.713 0.416 0
      vertex 4.389 0.554 4.8
      vertex 4.713 0.416 4.8
    endloop
  endfacet
  facet normal 0.242536 0.970143 0
    outer loop
      vertex 4.145 0.615 0
      vertex 4.145 0.615 4.8
      vertex 4.389 0.554 0
    endloop
  endfacet
  facet normal 0.242536 0.970143 0
    outer loop
      vertex 4.389 0.554 0
      vertex 4.145 0.615 4.8
      vertex 4.389 0.554 4.8
    endloop
  endfacet
  facet normal 0.086343 0.996265 0
    outer loop
      vertex 3.995 0.628 0
      vertex 3.995 0.628 4.8
      vertex 4.145 0.615 0
    endloop
  endfacet
  facet normal 0.086343 0.996265 0
    outer loop
      vertex 4.145 0.615 0
      vertex 3.995 0.628 4.8
      vertex 4.145 0.615 4.8
    endloop
  endfacet
  facet normal -0.0391856 0.999232 0
    outer loop
      vertex 3.944 0.626 0
      vertex 3.944 0.626 4.8
      vertex 3.995 0.628 0
    endloop
  endfacet
  facet normal -0.0391856 0.999232 0
    outer loop
      vertex 3.995 0.628 0
      vertex 3.944 0.626 4.8
      vertex 3.995 0.628 4.8
    endloop
  endfacet
  facet normal -0.156284 0.987712 0
    outer loop
      vertex 3.154 0.501 0
      vertex 3.154 0.501 4.8
      vertex 3.944 0.626 0
    endloop
  endfacet
  facet normal -0.156284 0.987712 0
    outer loop
      vertex 3.944 0.626 0
      vertex 3.154 0.501 4.8
      vertex 3.944 0.626 4.8
    endloop
  endfacet
  facet normal 0.955187 0.296003 0
    outer loop
      vertex 3.154 0.501 0
      vertex 2.872 1.411 0
      vertex 2.872 1.411 4.8
    endloop
  endfacet
  facet normal 0.955187 0.296003 0
    outer loop
      vertex 3.154 0.501 4.8
      vertex 3.154 0.501 0
      vertex 2.872 1.411 4.8
    endloop
  endfacet
  facet normal 0.81518 0.579207 0
    outer loop
      vertex 2.872 1.411 0
      vertex 2.845 1.449 0
      vertex 2.845 1.449 4.8
    endloop
  endfacet
  facet normal 0.81518 0.579207 0
    outer loop
      vertex 2.872 1.411 4.8
      vertex 2.872 1.411 0
      vertex 2.845 1.449 4.8
    endloop
  endfacet
  facet normal 0.453196 -0.891411 0
    outer loop
      vertex 2.845 1.449 4.8
      vertex 2.845 1.449 0
      vertex 3.559 1.812 0
    endloop
  endfacet
  facet normal 0.453196 -0.891411 0
    outer loop
      vertex 3.559 1.812 4.8
      vertex 2.845 1.449 4.8
      vertex 3.559 1.812 0
    endloop
  endfacet
  facet normal 0.5547 -0.83205 0
    outer loop
      vertex 3.559 1.812 4.8
      vertex 3.559 1.812 0
      vertex 3.601 1.84 0
    endloop
  endfacet
  facet normal 0.5547 -0.83205 0
    outer loop
      vertex 3.601 1.84 4.8
      vertex 3.559 1.812 4.8
      vertex 3.601 1.84 0
    endloop
  endfacet
  facet normal 0.655687 -0.755033 0
    outer loop
      vertex 3.601 1.84 4.8
      vertex 3.601 1.84 0
      vertex 3.715 1.939 0
    endloop
  endfacet
  facet normal 0.655687 -0.755033 0
    outer loop
      vertex 3.715 1.939 4.8
      vertex 3.601 1.84 4.8
      vertex 3.715 1.939 0
    endloop
  endfacet
  facet normal 0.767895 -0.640576 0
    outer loop
      vertex 3.715 1.939 4.8
      vertex 3.715 1.939 0
      vertex 3.876 2.132 0
    endloop
  endfacet
  facet normal 0.767895 -0.640576 0
    outer loop
      vertex 3.876 2.132 4.8
      vertex 3.715 1.939 4.8
      vertex 3.876 2.132 0
    endloop
  endfacet
  facet normal 0.857743 -0.514078 0
    outer loop
      vertex 3.876 2.132 4.8
      vertex 3.876 2.132 0
      vertex 4.057 2.434 0
    endloop
  endfacet
  facet normal 0.857743 -0.514078 0
    outer loop
      vertex 4.057 2.434 4.8
      vertex 3.876 2.132 4.8
      vertex 4.057 2.434 0
    endloop
  endfacet
  facet normal 0.927713 -0.373294 0
    outer loop
      vertex 4.057 2.434 4.8
      vertex 4.057 2.434 0
      vertex 4.226 2.854 0
    endloop
  endfacet
  facet normal 0.927713 -0.373294 0
    outer loop
      vertex 4.226 2.854 4.8
      vertex 4.057 2.434 4.8
      vertex 4.226 2.854 0
    endloop
  endfacet
  facet normal 0.81083 0.585282 0
    outer loop
      vertex 4.226 2.854 0
      vertex 4.021 3.138 0
      vertex 4.021 3.138 4.8
    endloop
  endfacet
  facet normal 0.81083 0.585282 0
    outer loop
      vertex 4.226 2.854 4.8
      vertex 4.226 2.854 0
      vertex 4.021 3.138 4.8
    endloop
  endfacet
  facet normal -0.068273 0.997667 0
    outer loop
      vertex 3.568 3.107 0
      vertex 3.568 3.107 4.8
      vertex 4.021 3.138 0
    endloop
  endfacet
  facet normal -0.068273 0.997667 0
    outer loop
      vertex 4.021 3.138 0
      vertex 3.568 3.107 4.8
      vertex 4.021 3.138 4.8
    endloop
  endfacet
  facet normal -0.224444 0.974487 0
    outer loop
      vertex 3.225 3.028 0
      vertex 3.225 3.028 4.8
      vertex 3.568 3.107 0
    endloop
  endfacet
  facet normal -0.224444 0.974487 0
    outer loop
      vertex 3.568 3.107 0
      vertex 3.225 3.028 4.8
      vertex 3.568 3.107 4.8
    endloop
  endfacet
  facet normal -0.374134 0.927375 0
    outer loop
      vertex 2.992 2.934 0
      vertex 2.992 2.934 4.8
      vertex 3.225 3.028 0
    endloop
  endfacet
  facet normal -0.374134 0.927375 0
    outer loop
      vertex 3.225 3.028 0
      vertex 2.992 2.934 4.8
      vertex 3.225 3.028 4.8
    endloop
  endfacet
  facet normal -0.517419 0.855732 0
    outer loop
      vertex 2.863 2.856 0
      vertex 2.863 2.856 4.8
      vertex 2.992 2.934 0
    endloop
  endfacet
  facet normal -0.517419 0.855732 0
    outer loop
      vertex 2.992 2.934 0
      vertex 2.863 2.856 4.8
      vertex 2.992 2.934 4.8
    endloop
  endfacet
  facet normal -0.612572 0.790415 0
    outer loop
      vertex 2.823 2.825 0
      vertex 2.823 2.825 4.8
      vertex 2.863 2.856 0
    endloop
  endfacet
  facet normal -0.612572 0.790415 0
    outer loop
      vertex 2.863 2.856 0
      vertex 2.823 2.825 4.8
      vertex 2.863 2.856 4.8
    endloop
  endfacet
  facet normal -0.707731 0.706482 0
    outer loop
      vertex 2.257 2.258 0
      vertex 2.257 2.258 4.8
      vertex 2.823 2.825 0
    endloop
  endfacet
  facet normal -0.707731 0.706482 0
    outer loop
      vertex 2.823 2.825 0
      vertex 2.257 2.258 4.8
      vertex 2.823 2.825 4.8
    endloop
  endfacet
  facet normal 0.600336 0.799748 0
    outer loop
      vertex 1.495 2.83 0
      vertex 1.495 2.83 4.8
      vertex 2.257 2.258 0
    endloop
  endfacet
  facet normal 0.600336 0.799748 0
    outer loop
      vertex 2.257 2.258 0
      vertex 1.495 2.83 4.8
      vertex 2.257 2.258 4.8
    endloop
  endfacet
  facet normal 0.322674 0.94651 0
    outer loop
      vertex 1.451 2.845 0
      vertex 1.451 2.845 4.8
      vertex 1.495 2.83 0
    endloop
  endfacet
  facet normal 0.322674 0.94651 0
    outer loop
      vertex 1.495 2.83 0
      vertex 1.451 2.845 4.8
      vertex 1.495 2.83 4.8
    endloop
  endfacet
  facet normal 0.891154 -0.453701 0
    outer loop
      vertex 1.451 2.845 4.8
      vertex 1.451 2.845 0
      vertex 1.814 3.558 0
    endloop
  endfacet
  facet normal 0.891154 -0.453701 0
    outer loop
      vertex 1.814 3.558 4.8
      vertex 1.451 2.845 4.8
      vertex 1.814 3.558 0
    endloop
  endfacet
  facet normal 0.933857 -0.357647 0
    outer loop
      vertex 1.814 3.558 4.8
      vertex 1.814 3.558 0
      vertex 1.832 3.605 0
    endloop
  endfacet
  facet normal 0.933857 -0.357647 0
    outer loop
      vertex 1.832 3.605 4.8
      vertex 1.814 3.558 4.8
      vertex 1.832 3.605 0
    endloop
  endfacet
  facet normal 0.974279 -0.225344 0
    outer loop
      vertex 1.832 3.605 4.8
      vertex 1.832 3.605 0
      vertex 1.866 3.752 0
    endloop
  endfacet
  facet normal 0.974279 -0.225344 0
    outer loop
      vertex 1.866 3.752 4.8
      vertex 1.832 3.605 4.8
      vertex 1.866 3.752 0
    endloop
  endfacet
  facet normal 0.997714 -0.0675743 0
    outer loop
      vertex 1.866 3.752 4.8
      vertex 1.866 3.752 0
      vertex 1.883 4.003 0
    endloop
  endfacet
  facet normal 0.997714 -0.0675743 0
    outer loop
      vertex 1.883 4.003 4.8
      vertex 1.866 3.752 4.8
      vertex 1.883 4.003 0
    endloop
  endfacet
  facet normal 0.996123 0.0879766 0
    outer loop
      vertex 1.883 4.003 0
      vertex 1.852 4.354 0
      vertex 1.852 4.354 4.8
    endloop
  endfacet
  facet normal 0.996123 0.0879766 0
    outer loop
      vertex 1.883 4.003 4.8
      vertex 1.883 4.003 0
      vertex 1.852 4.354 4.8
    endloop
  endfacet
  facet normal 0.969489 0.245133 0
    outer loop
      vertex 1.852 4.354 0
      vertex 1.741 4.793 0
      vertex 1.741 4.793 4.8
    endloop
  endfacet
  facet normal 0.969489 0.245133 0
    outer loop
      vertex 1.852 4.354 4.8
      vertex 1.852 4.354 0
      vertex 1.741 4.793 4.8
    endloop
  endfacet
  facet normal 0.311932 0.950104 0
    outer loop
      vertex 1.409 4.902 0
      vertex 1.409 4.902 4.8
      vertex 1.741 4.793 0
    endloop
  endfacet
  facet normal 0.311932 0.950104 0
    outer loop
      vertex 1.741 4.793 0
      vertex 1.409 4.902 4.8
      vertex 1.741 4.793 4.8
    endloop
  endfacet
  facet normal -0.641484 0.767136 0
    outer loop
      vertex 1.061 4.611 0
      vertex 1.061 4.611 4.8
      vertex 1.409 4.902 0
    endloop
  endfacet
  facet normal -0.641484 0.767136 0
    outer loop
      vertex 1.409 4.902 0
      vertex 1.061 4.611 4.8
      vertex 1.409 4.902 4.8
    endloop
  endfacet
  facet normal -0.753629 0.6573 0
    outer loop
      vertex 0.829 4.345 0
      vertex 0.829 4.345 4.8
      vertex 1.061 4.611 0
    endloop
  endfacet
  facet normal -0.753629 0.6573 0
    outer loop
      vertex 1.061 4.611 0
      vertex 0.829 4.345 4.8
      vertex 1.061 4.611 4.8
    endloop
  endfacet
  facet normal -0.848222 0.529641 0
    outer loop
      vertex 0.696 4.132 0
      vertex 0.696 4.132 4.8
      vertex 0.829 4.345 0
    endloop
  endfacet
  facet normal -0.848222 0.529641 0
    outer loop
      vertex 0.829 4.345 0
      vertex 0.696 4.132 4.8
      vertex 0.829 4.345 4.8
    endloop
  endfacet
  facet normal -0.919489 0.393115 0
    outer loop
      vertex 0.637 3.994 0
      vertex 0.637 3.994 4.8
      vertex 0.696 4.132 0
    endloop
  endfacet
  facet normal -0.919489 0.393115 0
    outer loop
      vertex 0.696 4.132 0
      vertex 0.637 3.994 4.8
      vertex 0.696 4.132 4.8
    endloop
  endfacet
  facet normal -0.962964 0.26963 0
    outer loop
      vertex 0.623 3.944 0
      vertex 0.623 3.944 4.8
      vertex 0.637 3.994 0
    endloop
  endfacet
  facet normal -0.962964 0.26963 0
    outer loop
      vertex 0.637 3.994 0
      vertex 0.623 3.944 4.8
      vertex 0.637 3.994 4.8
    endloop
  endfacet
  facet normal -0.987712 0.156284 0
    outer loop
      vertex 0.498 3.154 0
      vertex 0.498 3.154 4.8
      vertex 0.623 3.944 0
    endloop
  endfacet
  facet normal -0.987712 0.156284 0
    outer loop
      vertex 0.623 3.944 0
      vertex 0.498 3.154 4.8
      vertex 0.623 3.944 4.8
    endloop
  endfacet
  facet normal 0.0147043 0.999892 0
    outer loop
      vertex -0.454 3.168 0
      vertex -0.454 3.168 4.8
      vertex 0.498 3.154 0
    endloop
  endfacet
  facet normal 0.0147043 0.999892 0
    outer loop
      vertex 0.498 3.154 0
      vertex -0.454 3.168 4.8
      vertex 0.498 3.154 4.8
    endloop
  endfacet
  facet normal -0.303204 0.952926 0
    outer loop
      vertex -0.498 3.154 0
      vertex -0.498 3.154 4.8
      vertex -0.454 3.168 0
    endloop
  endfacet
  facet normal -0.303204 0.952926 0
    outer loop
      vertex -0.454 3.168 0
      vertex -0.498 3.154 4.8
      vertex -0.454 3.168 4.8
    endloop
  endfacet
  facet normal 0.987712 0.156284 0
    outer loop
      vertex -0.498 3.154 0
      vertex -0.623 3.944 0
      vertex -0.623 3.944 4.8
    endloop
  endfacet
  facet normal 0.987712 0.156284 0
    outer loop
      vertex -0.498 3.154 4.8
      vertex -0.498 3.154 0
      vertex -0.623 3.944 4.8
    endloop
  endfacet
  facet normal 0.962964 0.26963 0
    outer loop
      vertex -0.623 3.944 0
      vertex -0.637 3.994 0
      vertex -0.637 3.994 4.8
    endloop
  endfacet
  facet normal 0.962964 0.26963 0
    outer loop
      vertex -0.623 3.944 4.8
      vertex -0.623 3.944 0
      vertex -0.637 3.994 4.8
    endloop
  endfacet
  facet normal 0.919489 0.393115 0
    outer loop
      vertex -0.637 3.994 0
      vertex -0.696 4.132 0
      vertex -0.696 4.132 4.8
    endloop
  endfacet
  facet normal 0.919489 0.393115 0
    outer loop
      vertex -0.637 3.994 4.8
      vertex -0.637 3.994 0
      vertex -0.696 4.132 4.8
    endloop
  endfacet
  facet normal 0.848222 0.529641 0
    outer loop
      vertex -0.696 4.132 0
      vertex -0.829 4.345 0
      vertex -0.829 4.345 4.8
    endloop
  endfacet
  facet normal 0.848222 0.529641 0
    outer loop
      vertex -0.696 4.132 4.8
      vertex -0.696 4.132 0
      vertex -0.829 4.345 4.8
    endloop
  endfacet
  facet normal 0.753629 0.6573 0
    outer loop
      vertex -0.829 4.345 0
      vertex -1.061 4.611 0
      vertex -1.061 4.611 4.8
    endloop
  endfacet
  facet normal 0.753629 0.6573 0
    outer loop
      vertex -0.829 4.345 4.8
      vertex -0.829 4.345 0
      vertex -1.061 4.611 4.8
    endloop
  endfacet
  facet normal 0.641484 0.767136 0
    outer loop
      vertex -1.409 4.902 0
      vertex -1.409 4.902 4.8
      vertex -1.061 4.611 0
    endloop
  endfacet
  facet normal 0.641484 0.767136 0
    outer loop
      vertex -1.061 4.611 0
      vertex -1.409 4.902 4.8
      vertex -1.061 4.611 4.8
    endloop
  endfacet
  facet normal -0.311932 0.950104 0
    outer loop
      vertex -1.741 4.793 0
      vertex -1.741 4.793 4.8
      vertex -1.409 4.902 0
    endloop
  endfacet
  facet normal -0.311932 0.950104 0
    outer loop
      vertex -1.409 4.902 0
      vertex -1.741 4.793 4.8
      vertex -1.409 4.902 4.8
    endloop
  endfacet
  facet normal -0.969489 0.245133 0
    outer loop
      vertex -1.852 4.354 0
      vertex -1.852 4.354 4.8
      vertex -1.741 4.793 0
    endloop
  endfacet
  facet normal -0.969489 0.245133 0
    outer loop
      vertex -1.741 4.793 0
      vertex -1.852 4.354 4.8
      vertex -1.741 4.793 4.8
    endloop
  endfacet
  facet normal -0.996123 0.0879766 0
    outer loop
      vertex -1.883 4.003 0
      vertex -1.883 4.003 4.8
      vertex -1.852 4.354 0
    endloop
  endfacet
  facet normal -0.996123 0.0879766 0
    outer loop
      vertex -1.852 4.354 0
      vertex -1.883 4.003 4.8
      vertex -1.852 4.354 4.8
    endloop
  endfacet
  facet normal -0.997714 -0.0675743 0
    outer loop
      vertex -1.883 4.003 0
      vertex -1.866 3.752 0
      vertex -1.883 4.003 4.8
    endloop
  endfacet
  facet normal -0.997714 -0.0675743 0
    outer loop
      vertex -1.883 4.003 4.8
      vertex -1.866 3.752 0
      vertex -1.866 3.752 4.8
    endloop
  endfacet
  facet normal -0.974279 -0.225344 0
    outer loop
      vertex -1.866 3.752 0
      vertex -1.832 3.605 0
      vertex -1.866 3.752 4.8
    endloop
  endfacet
  facet normal -0.974279 -0.225344 0
    outer loop
      vertex -1.866 3.752 4.8
      vertex -1.832 3.605 0
      vertex -1.832 3.605 4.8
    endloop
  endfacet
  facet normal -0.933857 -0.357647 0
    outer loop
      vertex -1.832 3.605 0
      vertex -1.814 3.558 0
      vertex -1.832 3.605 4.8
    endloop
  endfacet
  facet normal -0.933857 -0.357647 0
    outer loop
      vertex -1.832 3.605 4.8
      vertex -1.814 3.558 0
      vertex -1.814 3.558 4.8
    endloop
  endfacet
  facet normal -0.890906 -0.454187 0
    outer loop
      vertex -1.814 3.558 0
      vertex -1.45 2.844 0
      vertex -1.814 3.558 4.8
    endloop
  endfacet
  facet normal -0.890906 -0.454187 0
    outer loop
      vertex -1.814 3.558 4.8
      vertex -1.45 2.844 0
      vertex -1.45 2.844 4.8
    endloop
  endfacet
  facet normal -0.575363 0.817898 0
    outer loop
      vertex -2.229 2.296 0
      vertex -2.229 2.296 4.8
      vertex -1.45 2.844 0
    endloop
  endfacet
  facet normal -0.575363 0.817898 0
    outer loop
      vertex -1.45 2.844 0
      vertex -2.229 2.296 4.8
      vertex -1.45 2.844 4.8
    endloop
  endfacet
  facet normal -0.797406 0.603443 0
    outer loop
      vertex -2.257 2.259 0
      vertex -2.257 2.259 4.8
      vertex -2.229 2.296 0
    endloop
  endfacet
  facet normal -0.797406 0.603443 0
    outer loop
      vertex -2.229 2.296 0
      vertex -2.257 2.259 4.8
      vertex -2.229 2.296 4.8
    endloop
  endfacet
  facet normal 0.707107 0.707107 0
    outer loop
      vertex -2.823 2.825 0
      vertex -2.823 2.825 4.8
      vertex -2.257 2.259 0
    endloop
  endfacet
  facet normal 0.707107 0.707107 0
    outer loop
      vertex -2.257 2.259 0
      vertex -2.823 2.825 4.8
      vertex -2.257 2.259 4.8
    endloop
  endfacet
  facet normal 0.612572 0.790415 0
    outer loop
      vertex -2.863 2.856 0
      vertex -2.863 2.856 4.8
      vertex -2.823 2.825 0
    endloop
  endfacet
  facet normal 0.612572 0.790415 0
    outer loop
      vertex -2.823 2.825 0
      vertex -2.863 2.856 4.8
      vertex -2.823 2.825 4.8
    endloop
  endfacet
  facet normal 0.517419 0.855732 0
    outer loop
      vertex -2.992 2.934 0
      vertex -2.992 2.934 4.8
      vertex -2.863 2.856 0
    endloop
  endfacet
  facet normal 0.517419 0.855732 0
    outer loop
      vertex -2.863 2.856 0
      vertex -2.992 2.934 4.8
      vertex -2.863 2.856 4.8
    endloop
  endfacet
  facet normal 0.374134 0.927375 0
    outer loop
      vertex -3.225 3.028 0
      vertex -3.225 3.028 4.8
      vertex -2.992 2.934 0
    endloop
  endfacet
  facet normal 0.374134 0.927375 0
    outer loop
      vertex -2.992 2.934 0
      vertex -3.225 3.028 4.8
      vertex -2.992 2.934 4.8
    endloop
  endfacet
  facet normal 0.224444 0.974487 0
    outer loop
      vertex -3.568 3.107 0
      vertex -3.568 3.107 4.8
      vertex -3.225 3.028 0
    endloop
  endfacet
  facet normal 0.224444 0.974487 0
    outer loop
      vertex -3.225 3.028 0
      vertex -3.568 3.107 4.8
      vertex -3.225 3.028 4.8
    endloop
  endfacet
  facet normal 0.068273 0.997667 0
    outer loop
      vertex -4.021 3.138 0
      vertex -4.021 3.138 4.8
      vertex -3.568 3.107 0
    endloop
  endfacet
  facet normal 0.068273 0.997667 0
    outer loop
      vertex -3.568 3.107 0
      vertex -4.021 3.138 4.8
      vertex -3.568 3.107 4.8
    endloop
  endfacet
  facet normal -0.81083 0.585282 0
    outer loop
      vertex -4.226 2.854 0
      vertex -4.226 2.854 4.8
      vertex -4.021 3.138 0
    endloop
  endfacet
  facet normal -0.81083 0.585282 0
    outer loop
      vertex -4.021 3.138 0
      vertex -4.226 2.854 4.8
      vertex -4.021 3.138 4.8
    endloop
  endfacet
  facet normal -0.927713 -0.373294 0
    outer loop
      vertex -4.226 2.854 0
      vertex -4.057 2.434 0
      vertex -4.226 2.854 4.8
    endloop
  endfacet
  facet normal -0.927713 -0.373294 0
    outer loop
      vertex -4.226 2.854 4.8
      vertex -4.057 2.434 0
      vertex -4.057 2.434 4.8
    endloop
  endfacet
  facet normal -0.857743 -0.514078 0
    outer loop
      vertex -4.057 2.434 0
      vertex -3.876 2.132 0
      vertex -4.057 2.434 4.8
    endloop
  endfacet
  facet normal -0.857743 -0.514078 0
    outer loop
      vertex -4.057 2.434 4.8
      vertex -3.876 2.132 0
      vertex -3.876 2.132 4.8
    endloop
  endfacet
  facet normal -0.767895 -0.640576 0
    outer loop
      vertex -3.876 2.132 0
      vertex -3.715 1.939 0
      vertex -3.876 2.132 4.8
    endloop
  endfacet
  facet normal -0.767895 -0.640576 0
    outer loop
      vertex -3.876 2.132 4.8
      vertex -3.715 1.939 0
      vertex -3.715 1.939 4.8
    endloop
  endfacet
  facet normal -0.655687 -0.755033 0
    outer loop
      vertex -3.715 1.939 4.8
      vertex -3.715 1.939 0
      vertex -3.601 1.84 0
    endloop
  endfacet
  facet normal -0.655687 -0.755033 0
    outer loop
      vertex -3.601 1.84 4.8
      vertex -3.715 1.939 4.8
      vertex -3.601 1.84 0
    endloop
  endfacet
  facet normal -0.5547 -0.83205 0
    outer loop
      vertex -3.601 1.84 4.8
      vertex -3.601 1.84 0
      vertex -3.559 1.812 0
    endloop
  endfacet
  facet normal -0.5547 -0.83205 0
    outer loop
      vertex -3.559 1.812 4.8
      vertex -3.601 1.84 4.8
      vertex -3.559 1.812 0
    endloop
  endfacet
  facet normal -0.453701 -0.891154 0
    outer loop
      vertex -3.559 1.812 4.8
      vertex -3.559 1.812 0
      vertex -2.846 1.449 0
    endloop
  endfacet
  facet normal -0.453701 -0.891154 0
    outer loop
      vertex -2.846 1.449 4.8
      vertex -3.559 1.812 4.8
      vertex -2.846 1.449 0
    endloop
  endfacet
  facet normal -0.94667 0.322204 0
    outer loop
      vertex -3.153 0.547 0
      vertex -3.153 0.547 4.8
      vertex -2.846 1.449 0
    endloop
  endfacet
  facet normal -0.94667 0.322204 0
    outer loop
      vertex -2.846 1.449 0
      vertex -3.153 0.547 4.8
      vertex -2.846 1.449 4.8
    endloop
  endfacet
  facet normal -0.999764 0.021734 0
    outer loop
      vertex -3.154 0.501 0
      vertex -3.154 0.501 4.8
      vertex -3.153 0.547 0
    endloop
  endfacet
  facet normal -0.999764 0.021734 0
    outer loop
      vertex -3.153 0.547 0
      vertex -3.154 0.501 4.8
      vertex -3.153 0.547 4.8
    endloop
  endfacet
  facet normal 0.156284 0.987712 0
    outer loop
      vertex -3.944 0.626 0
      vertex -3.944 0.626 4.8
      vertex -3.154 0.501 0
    endloop
  endfacet
  facet normal 0.156284 0.987712 0
    outer loop
      vertex -3.154 0.501 0
      vertex -3.944 0.626 4.8
      vertex -3.154 0.501 4.8
    endloop
  endfacet
  facet normal 0.0391856 0.999232 0
    outer loop
      vertex -3.995 0.628 0
      vertex -3.995 0.628 4.8
      vertex -3.944 0.626 0
    endloop
  endfacet
  facet normal 0.0391856 0.999232 0
    outer loop
      vertex -3.944 0.626 0
      vertex -3.995 0.628 4.8
      vertex -3.944 0.626 4.8
    endloop
  endfacet
  facet normal -0.086343 0.996265 0
    outer loop
      vertex -4.145 0.615 0
      vertex -4.145 0.615 4.8
      vertex -3.995 0.628 0
    endloop
  endfacet
  facet normal -0.086343 0.996265 0
    outer loop
      vertex -3.995 0.628 0
      vertex -4.145 0.615 4.8
      vertex -3.995 0.628 4.8
    endloop
  endfacet
  facet normal -0.242536 0.970143 0
    outer loop
      vertex -4.389 0.554 0
      vertex -4.389 0.554 4.8
      vertex -4.145 0.615 0
    endloop
  endfacet
  facet normal -0.242536 0.970143 0
    outer loop
      vertex -4.145 0.615 0
      vertex -4.389 0.554 4.8
      vertex -4.145 0.615 4.8
    endloop
  endfacet
  facet normal -0.391862 0.920024 0
    outer loop
      vertex -4.713 0.416 0
      vertex -4.713 0.416 4.8
      vertex -4.389 0.554 0
    endloop
  endfacet
  facet normal -0.391862 0.920024 0
    outer loop
      vertex -4.389 0.554 0
      vertex -4.713 0.416 4.8
      vertex -4.389 0.554 4.8
    endloop
  endfacet
  facet normal -0.531584 0.847005 0
    outer loop
      vertex -5.097 0.175 0
      vertex -5.097 0.175 4.8
      vertex -4.713 0.416 0
    endloop
  endfacet
  facet normal -0.531584 0.847005 0
    outer loop
      vertex -4.713 0.416 0
      vertex -5.097 0.175 4.8
      vertex -4.713 0.416 4.8
    endloop
  endfacet
  facet normal 0.92388 0.382683 0
    outer loop
      vertex -2 0 4.8
      vertex -1.41421 -1.41421 4.8
      vertex -1.41421 -1.41421 0
    endloop
  endfacet
  facet normal 0.92388 0.382683 0
    outer loop
      vertex -2 0 0
      vertex -2 0 4.8
      vertex -1.41421 -1.41421 0
    endloop
  endfacet
  facet normal 0.92388 -0.382683 0
    outer loop
      vertex -1.41421 1.41421 0
      vertex -1.41421 1.41421 4.8
      vertex -2 0 4.8
    endloop
  endfacet
  facet normal 0.92388 -0.382683 0
    outer loop
      vertex -2 0 0
      vertex -1.41421 1.41421 0
      vertex -2 0 4.8
    endloop
  endfacet
  facet normal 0.382683 -0.92388 0
    outer loop
      vertex 0 2 0
      vertex 0 2 4.8
      vertex -1.41421 1.41421 4.8
    endloop
  endfacet
  facet normal 0.382683 -0.92388 0
    outer loop
      vertex -1.41421 1.41421 0
      vertex 0 2 0
      vertex -1.41421 1.41421 4.8
    endloop
  endfacet
  facet normal -0.382683 -0.92388 0
    outer loop
      vertex 1.41421 1.41421 0
      vertex 1.41421 1.41421 4.8
      vertex 0 2 4.8
    endloop
  endfacet
  facet normal -0.382683 -0.92388 0
    outer loop
      vertex 0 2 0
      vertex 1.41421 1.41421 0
      vertex 0 2 4.8
    endloop
  endfacet
  facet normal -0.92388 -0.382683 0
    outer loop
      vertex 2 0 4.8
      vertex 1.41421 1.41421 4.8
      vertex 2 0 0
    endloop
  endfacet
  facet normal -0.92388 -0.382683 0
    outer loop
      vertex 2 0 0
      vertex 1.41421 1.41421 4.8
      vertex 1.41421 1.41421 0
    endloop
  endfacet
  facet normal -0.92388 0.382683 0
    outer loop
      vertex 2 0 4.8
      vertex 2 0 0
      vertex 1.41421 -1.41421 4.8
    endloop
  endfacet
  facet normal -0.92388 0.382683 0
    outer loop
      vertex 1.41421 -1.41421 4.8
      vertex 2 0 0
      vertex 1.41421 -1.41421 0
    endloop
  endfacet
  facet normal -0.382683 0.92388 0
    outer loop
      vertex 1.41421 -1.41421 4.8
      vertex 1.41421 -1.41421 0
      vertex 0 -2 4.8
    endloop
  endfacet
  facet normal -0.382683 0.92388 0
    outer loop
      vertex 0 -2 4.8
      vertex 1.41421 -1.41421 0
      vertex 0 -2 0
    endloop
  endfacet
  facet normal 0.382683 0.92388 0
    outer loop
      vertex 0 -2 4.8
      vertex 0 -2 0
      vertex -1.41421 -1.41421 4.8
    endloop
  endfacet
  facet normal 0.382683 0.92388 0
    outer loop
      vertex -1.41421 -1.41421 4.8
      vertex 0 -2 0
      vertex -1.41421 -1.41421 0
    endloop
  endfacet
endsolid OpenSCAD_Model
