solid OpenSCAD_Model
  facet normal -0 -0 -1
    outer loop
      vertex -8.94724 -0.973071 0
      vertex -8.94724 0.973071 0
      vertex -8.52888 -2.87371 0
    endloop
  endfacet
  facet normal 0 0 -1
    outer loop
      vertex -8.52888 -2.87371 0
      vertex -8.94724 0.973071 0
      vertex -8.52888 2.87371 0
    endloop
  endfacet
  facet normal 0 -0 -1
    outer loop
      vertex -8.52888 -2.87371 0
      vertex -8.52888 2.87371 0
      vertex -7.71171 4.63998 0
    endloop
  endfacet
  facet normal 0 0 -1
    outer loop
      vertex -8.52888 -2.87371 0
      vertex -7.71171 4.63998 0
      vertex -6.53396 6.18929 0
    endloop
  endfacet
  facet normal 0 0 -1
    outer loop
      vertex -8.52888 -2.87371 0
      vertex -6.53396 6.18929 0
      vertex -5.05068 7.4492 0
    endloop
  endfacet
  facet normal 0 0 -1
    outer loop
      vertex -8.52888 -2.87371 0
      vertex -5.05068 7.4492 0
      vertex -3.33124 8.36079 0
    endloop
  endfacet
  facet normal 0 0 -1
    outer loop
      vertex -8.52888 -2.87371 0
      vertex -3.33124 8.36079 0
      vertex -1.45604 8.88144 0
    endloop
  endfacet
  facet normal 0 0 -1
    outer loop
      vertex -8.52888 -2.87371 0
      vertex -1.45604 8.88144 0
      vertex 0.48725 8.9868 0
    endloop
  endfacet
  facet normal 0 0 -1
    outer loop
      vertex -1.93255 4.66559 0
      vertex 0.48725 8.9868 0
      vertex 2.40775 8.67195 0
    endloop
  endfacet
  facet normal 0 0 -1
    outer loop
      vertex 0 5.05 0
      vertex 2.40775 8.67195 0
      vertex 4.21568 7.95161 0
    endloop
  endfacet
  facet normal 0 0 -1
    outer loop
      vertex 1.93255 4.66559 0
      vertex 4.21568 7.95161 0
      vertex 5.82648 6.85946 0
    endloop
  endfacet
  facet normal 0 0 -1
    outer loop
      vertex 3.57089 3.57089 0
      vertex 5.82648 6.85946 0
      vertex 7.16484 5.44657 0
    endloop
  endfacet
  facet normal 0 0 -1
    outer loop
      vertex 4.66559 1.93255 0
      vertex 8.16818 3.779 0
      vertex 8.78958 1.93473 0
    endloop
  endfacet
  facet normal -0 0 -1
    outer loop
      vertex 5.05 0 0
      vertex 8.78958 1.93473 0
      vertex 9 0 0
    endloop
  endfacet
  facet normal -0 0 -1
    outer loop
      vertex 4.66559 -1.93255 0
      vertex 9 0 0
      vertex 8.78958 -1.93473 0
    endloop
  endfacet
  facet normal 0 0 -1
    outer loop
      vertex 4.66559 -1.93255 0
      vertex 8.16818 -3.779 0
      vertex 3.57089 -3.57089 0
    endloop
  endfacet
  facet normal 0 0 -1
    outer loop
      vertex 0 -5.05 0
      vertex 7.16484 -5.44657 0
      vertex 5.82648 -6.85946 0
    endloop
  endfacet
  facet normal 0 0 -1
    outer loop
      vertex -8.52888 -2.87371 0
      vertex 5.82648 -6.85946 0
      vertex 4.21568 -7.95161 0
    endloop
  endfacet
  facet normal 0 0 -1
    outer loop
      vertex -8.52888 -2.87371 0
      vertex 4.21568 -7.95161 0
      vertex 2.40775 -8.67195 0
    endloop
  endfacet
  facet normal 0 0 -1
    outer loop
      vertex -8.52888 -2.87371 0
      vertex 2.40775 -8.67195 0
      vertex 0.48725 -8.9868 0
    endloop
  endfacet
  facet normal 0 0 -1
    outer loop
      vertex -8.52888 -2.87371 0
      vertex 0.48725 -8.9868 0
      vertex -1.45604 -8.88144 0
    endloop
  endfacet
  facet normal 0 0 -1
    outer loop
      vertex -8.52888 -2.87371 0
      vertex -1.45604 -8.88144 0
      vertex -3.33124 -8.36079 0
    endloop
  endfacet
  facet normal 0 0 -1
    outer loop
      vertex -8.52888 -2.87371 0
      vertex -3.33124 -8.36079 0
      vertex -5.05068 -7.4492 0
    endloop
  endfacet
  facet normal 0 0 -1
    outer loop
      vertex -8.52888 -2.87371 0
      vertex -5.05068 -7.4492 0
      vertex -6.53396 -6.18929 0
    endloop
  endfacet
  facet normal 0 0 -1
    outer loop
      vertex -8.52888 -2.87371 0
      vertex -6.53396 -6.18929 0
      vertex -7.71171 -4.63998 0
    endloop
  endfacet
  facet normal 0 0 -1
    outer loop
      vertex -4.66559 -1.93255 0
      vertex -8.52888 -2.87371 0
      vertex -5.05 0 0
    endloop
  endfacet
  facet normal 0 0 -1
    outer loop
      vertex -3.57089 -3.57089 0
      vertex -8.52888 -2.87371 0
      vertex -4.66559 -1.93255 0
    endloop
  endfacet
  facet normal 0 0 -1
    outer loop
      vertex 4.66559 -1.93255 0
      vertex 8.78958 -1.93473 0
      vertex 8.16818 -3.779 0
    endloop
  endfacet
  facet normal 0 0 -1
    outer loop
      vertex 3.57089 -3.57089 0
      vertex 8.16818 -3.779 0
      vertex 7.16484 -5.44657 0
    endloop
  endfacet
  facet normal 0 0 -1
    outer loop
      vertex -8.52888 -2.87371 0
      vertex -1.93255 -4.66559 0
      vertex 5.82648 -6.85946 0
    endloop
  endfacet
  facet normal 0 0 -1
    outer loop
      vertex 3.57089 -3.57089 0
      vertex 7.16484 -5.44657 0
      vertex 1.93255 -4.66559 0
    endloop
  endfacet
  facet normal 0 0 -1
    outer loop
      vertex -1.93255 -4.66559 0
      vertex 0 -5.05 0
      vertex 5.82648 -6.85946 0
    endloop
  endfacet
  facet normal 0 0 -1
    outer loop
      vertex 1.93255 -4.66559 0
      vertex 7.16484 -5.44657 0
      vertex 0 -5.05 0
    endloop
  endfacet
  facet normal 0 0 -1
    outer loop
      vertex -1.93255 -4.66559 0
      vertex -8.52888 -2.87371 0
      vertex -3.57089 -3.57089 0
    endloop
  endfacet
  facet normal -0 0 -1
    outer loop
      vertex 4.66559 1.93255 0
      vertex 8.78958 1.93473 0
      vertex 5.05 0 0
    endloop
  endfacet
  facet normal 0 0 -1
    outer loop
      vertex 5.05 0 0
      vertex 9 0 0
      vertex 4.66559 -1.93255 0
    endloop
  endfacet
  facet normal -0 0 -1
    outer loop
      vertex 0 5.05 0
      vertex 4.21568 7.95161 0
      vertex 1.93255 4.66559 0
    endloop
  endfacet
  facet normal 0 0 -1
    outer loop
      vertex 3.57089 3.57089 0
      vertex 7.16484 5.44657 0
      vertex 8.16818 3.779 0
    endloop
  endfacet
  facet normal 0 0 -1
    outer loop
      vertex -3.57089 3.57089 0
      vertex 0.48725 8.9868 0
      vertex -1.93255 4.66559 0
    endloop
  endfacet
  facet normal -0 0 -1
    outer loop
      vertex 1.93255 4.66559 0
      vertex 5.82648 6.85946 0
      vertex 3.57089 3.57089 0
    endloop
  endfacet
  facet normal 0 0 -1
    outer loop
      vertex -8.52888 -2.87371 0
      vertex 0.48725 8.9868 0
      vertex -3.57089 3.57089 0
    endloop
  endfacet
  facet normal 0 0 -1
    outer loop
      vertex -8.52888 -2.87371 0
      vertex -3.57089 3.57089 0
      vertex -4.66559 1.93255 0
    endloop
  endfacet
  facet normal 0 -0 -1
    outer loop
      vertex -5.05 0 0
      vertex -8.52888 -2.87371 0
      vertex -4.66559 1.93255 0
    endloop
  endfacet
  facet normal 0 0 -1
    outer loop
      vertex -1.93255 4.66559 0
      vertex 2.40775 8.67195 0
      vertex 0 5.05 0
    endloop
  endfacet
  facet normal -0 0 -1
    outer loop
      vertex 3.57089 3.57089 0
      vertex 8.16818 3.779 0
      vertex 4.66559 1.93255 0
    endloop
  endfacet
  facet normal -0.801689 0 0.597742
    outer loop
      vertex -8.94724 -0.973071 0
      vertex -7.45603 -0.810893 2
      vertex -8.94724 0.973071 0
    endloop
  endfacet
  facet normal -0.801689 0 0.597742
    outer loop
      vertex -8.94724 0.973071 0
      vertex -7.45603 -0.810893 2
      vertex -7.45603 0.810893 2
    endloop
  endfacet
  facet normal -0.782946 -0.172339 0.597742
    outer loop
      vertex -7.45603 -0.810893 2
      vertex -8.94724 -0.973071 0
      vertex -8.52888 -2.87371 0
    endloop
  endfacet
  facet normal -0.782946 -0.172339 0.597742
    outer loop
      vertex -7.45603 -0.810893 2
      vertex -8.52888 -2.87371 0
      vertex -7.1074 -2.39476 2
    endloop
  endfacet
  facet normal -0.727593 -0.33662 0.597742
    outer loop
      vertex -7.1074 -2.39476 2
      vertex -8.52888 -2.87371 0
      vertex -7.71171 -4.63998 0
    endloop
  endfacet
  facet normal -0.727593 -0.33662 0.597742
    outer loop
      vertex -7.1074 -2.39476 2
      vertex -7.71171 -4.63998 0
      vertex -6.42643 -3.86665 2
    endloop
  endfacet
  facet normal -0.638219 -0.485162 0.597742
    outer loop
      vertex -6.42643 -3.86665 2
      vertex -7.71171 -4.63998 0
      vertex -6.53396 -6.18929 0
    endloop
  endfacet
  facet normal -0.638219 -0.485161 0.597742
    outer loop
      vertex -6.42643 -3.86665 2
      vertex -6.53396 -6.18929 0
      vertex -5.44497 -5.15775 2
    endloop
  endfacet
  facet normal -0.519002 -0.611017 0.597742
    outer loop
      vertex -5.44497 -5.15775 2
      vertex -6.53396 -6.18929 0
      vertex -5.05068 -7.4492 0
    endloop
  endfacet
  facet normal -0.519002 -0.611017 0.597742
    outer loop
      vertex -4.2089 -6.20767 2
      vertex -5.44497 -5.15775 2
      vertex -5.05068 -7.4492 0
    endloop
  endfacet
  facet normal -0.375517 -0.708302 0.597742
    outer loop
      vertex -4.2089 -6.20767 2
      vertex -5.05068 -7.4492 0
      vertex -3.33124 -8.36079 0
    endloop
  endfacet
  facet normal -0.375518 -0.708302 0.597742
    outer loop
      vertex -2.77604 -6.96732 2
      vertex -4.2089 -6.20767 2
      vertex -3.33124 -8.36079 0
    endloop
  endfacet
  facet normal -0.214475 -0.772467 0.597742
    outer loop
      vertex -2.77604 -6.96732 2
      vertex -3.33124 -8.36079 0
      vertex -1.45604 -8.88144 0
    endloop
  endfacet
  facet normal -0.214475 -0.772467 0.597742
    outer loop
      vertex -1.21337 -7.4012 2
      vertex -2.77604 -6.96732 2
      vertex -1.45604 -8.88144 0
    endloop
  endfacet
  facet normal -0.0434025 -0.800513 0.597742
    outer loop
      vertex -1.21337 -7.4012 2
      vertex -1.45604 -8.88144 0
      vertex 0.48725 -8.9868 0
    endloop
  endfacet
  facet normal -0.0434027 -0.800513 0.597742
    outer loop
      vertex 0.406042 -7.489 2
      vertex -1.21337 -7.4012 2
      vertex 0.48725 -8.9868 0
    endloop
  endfacet
  facet normal 0.129699 -0.791128 0.597742
    outer loop
      vertex 2.40775 -8.67195 0
      vertex 0.406042 -7.489 2
      vertex 0.48725 -8.9868 0
    endloop
  endfacet
  facet normal 0.129699 -0.791128 0.597742
    outer loop
      vertex 2.00646 -7.22662 2
      vertex 0.406042 -7.489 2
      vertex 2.40775 -8.67195 0
    endloop
  endfacet
  facet normal 0.296736 -0.74475 0.597742
    outer loop
      vertex 4.21568 -7.95161 0
      vertex 2.00646 -7.22662 2
      vertex 2.40775 -8.67195 0
    endloop
  endfacet
  facet normal 0.296736 -0.74475 0.597742
    outer loop
      vertex 3.51306 -6.62634 2
      vertex 2.00646 -7.22662 2
      vertex 4.21568 -7.95161 0
    endloop
  endfacet
  facet normal 0.449897 -0.663549 0.597742
    outer loop
      vertex 5.82648 -6.85946 0
      vertex 3.51306 -6.62634 2
      vertex 4.21568 -7.95161 0
    endloop
  endfacet
  facet normal 0.449897 -0.663549 0.597742
    outer loop
      vertex 4.8554 -5.71622 2
      vertex 3.51306 -6.62634 2
      vertex 5.82648 -6.85946 0
    endloop
  endfacet
  facet normal 0.582022 -0.551321 0.597742
    outer loop
      vertex 7.16484 -5.44657 0
      vertex 4.8554 -5.71622 2
      vertex 5.82648 -6.85946 0
    endloop
  endfacet
  facet normal 0.582022 -0.551321 0.597742
    outer loop
      vertex 5.9707 -4.53881 2
      vertex 4.8554 -5.71622 2
      vertex 7.16484 -5.44657 0
    endloop
  endfacet
  facet normal 0.686933 -0.413314 0.597742
    outer loop
      vertex 8.16818 -3.779 0
      vertex 5.9707 -4.53881 2
      vertex 7.16484 -5.44657 0
    endloop
  endfacet
  facet normal 0.686933 -0.413314 0.597742
    outer loop
      vertex 6.80682 -3.14917 2
      vertex 5.9707 -4.53881 2
      vertex 8.16818 -3.779 0
    endloop
  endfacet
  facet normal 0.759723 -0.25598 0.597742
    outer loop
      vertex 8.78958 -1.93473 0
      vertex 6.80682 -3.14917 2
      vertex 8.16818 -3.779 0
    endloop
  endfacet
  facet normal 0.759723 -0.25598 0.597742
    outer loop
      vertex 7.32465 -1.61228 2
      vertex 6.80682 -3.14917 2
      vertex 8.78958 -1.93473 0
    endloop
  endfacet
  facet normal 0.796989 -0.0866778 0.597742
    outer loop
      vertex 9 0 0
      vertex 7.32465 -1.61228 2
      vertex 8.78958 -1.93473 0
    endloop
  endfacet
  facet normal 0.796989 -0.0866779 0.597742
    outer loop
      vertex 7.5 0 2
      vertex 7.32465 -1.61228 2
      vertex 9 0 0
    endloop
  endfacet
  facet normal 0.796989 0.0866778 0.597742
    outer loop
      vertex 8.78958 1.93473 0
      vertex 7.5 0 2
      vertex 9 0 0
    endloop
  endfacet
  facet normal 0.796989 0.0866779 0.597742
    outer loop
      vertex 8.78958 1.93473 0
      vertex 7.32465 1.61228 2
      vertex 7.5 0 2
    endloop
  endfacet
  facet normal 0.759723 0.25598 0.597742
    outer loop
      vertex 8.16818 3.779 0
      vertex 7.32465 1.61228 2
      vertex 8.78958 1.93473 0
    endloop
  endfacet
  facet normal 0.759723 0.25598 0.597742
    outer loop
      vertex 8.16818 3.779 0
      vertex 6.80682 3.14917 2
      vertex 7.32465 1.61228 2
    endloop
  endfacet
  facet normal 0.686933 0.413314 0.597742
    outer loop
      vertex 7.16484 5.44657 0
      vertex 6.80682 3.14917 2
      vertex 8.16818 3.779 0
    endloop
  endfacet
  facet normal 0.686933 0.413314 0.597742
    outer loop
      vertex 7.16484 5.44657 0
      vertex 5.9707 4.53881 2
      vertex 6.80682 3.14917 2
    endloop
  endfacet
  facet normal 0.582022 0.551321 0.597742
    outer loop
      vertex 7.16484 5.44657 0
      vertex 5.82648 6.85946 0
      vertex 5.9707 4.53881 2
    endloop
  endfacet
  facet normal 0.582022 0.551321 0.597742
    outer loop
      vertex 5.82648 6.85946 0
      vertex 4.8554 5.71622 2
      vertex 5.9707 4.53881 2
    endloop
  endfacet
  facet normal 0.449897 0.663549 0.597742
    outer loop
      vertex 5.82648 6.85946 0
      vertex 4.21568 7.95161 0
      vertex 4.8554 5.71622 2
    endloop
  endfacet
  facet normal 0.449897 0.663549 0.597742
    outer loop
      vertex 4.21568 7.95161 0
      vertex 3.51306 6.62634 2
      vertex 4.8554 5.71622 2
    endloop
  endfacet
  facet normal 0.296736 0.74475 0.597742
    outer loop
      vertex 4.21568 7.95161 0
      vertex 2.40775 8.67195 0
      vertex 3.51306 6.62634 2
    endloop
  endfacet
  facet normal 0.296736 0.74475 0.597742
    outer loop
      vertex 2.40775 8.67195 0
      vertex 2.00646 7.22662 2
      vertex 3.51306 6.62634 2
    endloop
  endfacet
  facet normal 0.129699 0.791128 0.597742
    outer loop
      vertex 2.40775 8.67195 0
      vertex 0.48725 8.9868 0
      vertex 2.00646 7.22662 2
    endloop
  endfacet
  facet normal 0.129699 0.791128 0.597742
    outer loop
      vertex 0.48725 8.9868 0
      vertex 0.406042 7.489 2
      vertex 2.00646 7.22662 2
    endloop
  endfacet
  facet normal -0.0434025 0.800513 0.597742
    outer loop
      vertex 0.48725 8.9868 0
      vertex -1.45604 8.88144 0
      vertex 0.406042 7.489 2
    endloop
  endfacet
  facet normal -0.0434027 0.800513 0.597742
    outer loop
      vertex 0.406042 7.489 2
      vertex -1.45604 8.88144 0
      vertex -1.21337 7.4012 2
    endloop
  endfacet
  facet normal -0.214475 0.772467 0.597742
    outer loop
      vertex -1.45604 8.88144 0
      vertex -3.33124 8.36079 0
      vertex -1.21337 7.4012 2
    endloop
  endfacet
  facet normal -0.214475 0.772467 0.597742
    outer loop
      vertex -1.21337 7.4012 2
      vertex -3.33124 8.36079 0
      vertex -2.77604 6.96732 2
    endloop
  endfacet
  facet normal -0.375517 0.708302 0.597742
    outer loop
      vertex -3.33124 8.36079 0
      vertex -5.05068 7.4492 0
      vertex -2.77604 6.96732 2
    endloop
  endfacet
  facet normal -0.375518 0.708301 0.597742
    outer loop
      vertex -2.77604 6.96732 2
      vertex -5.05068 7.4492 0
      vertex -4.2089 6.20767 2
    endloop
  endfacet
  facet normal -0.519002 0.611016 0.597742
    outer loop
      vertex -5.05068 7.4492 0
      vertex -6.53396 6.18929 0
      vertex -4.2089 6.20767 2
    endloop
  endfacet
  facet normal -0.519002 0.611017 0.597742
    outer loop
      vertex -4.2089 6.20767 2
      vertex -6.53396 6.18929 0
      vertex -5.44497 5.15775 2
    endloop
  endfacet
  facet normal -0.638219 0.485162 0.597742
    outer loop
      vertex -6.53396 6.18929 0
      vertex -7.71171 4.63998 0
      vertex -5.44497 5.15775 2
    endloop
  endfacet
  facet normal -0.638219 0.485161 0.597742
    outer loop
      vertex -5.44497 5.15775 2
      vertex -7.71171 4.63998 0
      vertex -6.42643 3.86665 2
    endloop
  endfacet
  facet normal -0.727593 0.33662 0.597742
    outer loop
      vertex -7.71171 4.63998 0
      vertex -8.52888 2.87371 0
      vertex -6.42643 3.86665 2
    endloop
  endfacet
  facet normal -0.727593 0.33662 0.597742
    outer loop
      vertex -6.42643 3.86665 2
      vertex -8.52888 2.87371 0
      vertex -7.1074 2.39476 2
    endloop
  endfacet
  facet normal -0.782946 0.172339 0.597742
    outer loop
      vertex -8.52888 2.87371 0
      vertex -8.94724 0.973071 0
      vertex -7.1074 2.39476 2
    endloop
  endfacet
  facet normal -0.782946 0.17234 0.597742
    outer loop
      vertex -7.1074 2.39476 2
      vertex -8.94724 0.973071 0
      vertex -7.45603 0.810893 2
    endloop
  endfacet
  facet normal 0.980785 0.19509 0
    outer loop
      vertex -5.05 0 4
      vertex -4.66559 -1.93255 4
      vertex -4.66559 -1.93255 0
    endloop
  endfacet
  facet normal 0.980785 0.19509 0
    outer loop
      vertex -5.05 0 0
      vertex -5.05 0 4
      vertex -4.66559 -1.93255 0
    endloop
  endfacet
  facet normal 0.980785 -0.19509 0
    outer loop
      vertex -4.66559 1.93255 0
      vertex -4.66559 1.93255 4
      vertex -5.05 0 4
    endloop
  endfacet
  facet normal 0.980785 -0.19509 0
    outer loop
      vertex -5.05 0 0
      vertex -4.66559 1.93255 0
      vertex -5.05 0 4
    endloop
  endfacet
  facet normal 0.831469 -0.55557 0
    outer loop
      vertex -3.57089 3.57089 0
      vertex -3.57089 3.57089 4
      vertex -4.66559 1.93255 4
    endloop
  endfacet
  facet normal 0.831469 -0.55557 0
    outer loop
      vertex -4.66559 1.93255 0
      vertex -3.57089 3.57089 0
      vertex -4.66559 1.93255 4
    endloop
  endfacet
  facet normal 0.55557 -0.831469 0
    outer loop
      vertex -1.93255 4.66559 0
      vertex -1.93255 4.66559 4
      vertex -3.57089 3.57089 4
    endloop
  endfacet
  facet normal 0.55557 -0.831469 0
    outer loop
      vertex -3.57089 3.57089 0
      vertex -1.93255 4.66559 0
      vertex -3.57089 3.57089 4
    endloop
  endfacet
  facet normal 0.19509 -0.980785 0
    outer loop
      vertex 0 5.05 0
      vertex 0 5.05 4
      vertex -1.93255 4.66559 4
    endloop
  endfacet
  facet normal 0.19509 -0.980785 0
    outer loop
      vertex -1.93255 4.66559 0
      vertex 0 5.05 0
      vertex -1.93255 4.66559 4
    endloop
  endfacet
  facet normal -0.19509 -0.980785 -0
    outer loop
      vertex 1.93255 4.66559 0
      vertex 1.93255 4.66559 4
      vertex 0 5.05 4
    endloop
  endfacet
  facet normal -0.19509 -0.980785 -0
    outer loop
      vertex 0 5.05 0
      vertex 1.93255 4.66559 0
      vertex 0 5.05 4
    endloop
  endfacet
  facet normal -0.55557 -0.831469 -0
    outer loop
      vertex 3.57089 3.57089 0
      vertex 3.57089 3.57089 4
      vertex 1.93255 4.66559 4
    endloop
  endfacet
  facet normal -0.55557 -0.831469 -0
    outer loop
      vertex 1.93255 4.66559 0
      vertex 3.57089 3.57089 0
      vertex 1.93255 4.66559 4
    endloop
  endfacet
  facet normal -0.831469 -0.55557 0
    outer loop
      vertex 4.66559 1.93255 4
      vertex 3.57089 3.57089 4
      vertex 4.66559 1.93255 0
    endloop
  endfacet
  facet normal -0.831469 -0.55557 0
    outer loop
      vertex 4.66559 1.93255 0
      vertex 3.57089 3.57089 4
      vertex 3.57089 3.57089 0
    endloop
  endfacet
  facet normal -0.980785 -0.19509 0
    outer loop
      vertex 5.05 0 4
      vertex 4.66559 1.93255 4
      vertex 5.05 0 0
    endloop
  endfacet
  facet normal -0.980785 -0.19509 0
    outer loop
      vertex 5.05 0 0
      vertex 4.66559 1.93255 4
      vertex 4.66559 1.93255 0
    endloop
  endfacet
  facet normal -0.980785 0.19509 0
    outer loop
      vertex 5.05 0 4
      vertex 5.05 0 0
      vertex 4.66559 -1.93255 4
    endloop
  endfacet
  facet normal -0.980785 0.19509 0
    outer loop
      vertex 4.66559 -1.93255 4
      vertex 5.05 0 0
      vertex 4.66559 -1.93255 0
    endloop
  endfacet
  facet normal -0.831469 0.55557 0
    outer loop
      vertex 4.66559 -1.93255 4
      vertex 4.66559 -1.93255 0
      vertex 3.57089 -3.57089 4
    endloop
  endfacet
  facet normal -0.831469 0.55557 0
    outer loop
      vertex 3.57089 -3.57089 4
      vertex 4.66559 -1.93255 0
      vertex 3.57089 -3.57089 0
    endloop
  endfacet
  facet normal -0.55557 0.831469 0
    outer loop
      vertex 3.57089 -3.57089 4
      vertex 3.57089 -3.57089 0
      vertex 1.93255 -4.66559 4
    endloop
  endfacet
  facet normal -0.55557 0.831469 0
    outer loop
      vertex 1.93255 -4.66559 4
      vertex 3.57089 -3.57089 0
      vertex 1.93255 -4.66559 0
    endloop
  endfacet
  facet normal -0.19509 0.980785 0
    outer loop
      vertex 1.93255 -4.66559 4
      vertex 1.93255 -4.66559 0
      vertex 0 -5.05 4
    endloop
  endfacet
  facet normal -0.19509 0.980785 0
    outer loop
      vertex 0 -5.05 4
      vertex 1.93255 -4.66559 0
      vertex 0 -5.05 0
    endloop
  endfacet
  facet normal 0.19509 0.980785 -0
    outer loop
      vertex 0 -5.05 4
      vertex 0 -5.05 0
      vertex -1.93255 -4.66559 4
    endloop
  endfacet
  facet normal 0.19509 0.980785 -0
    outer loop
      vertex -1.93255 -4.66559 4
      vertex 0 -5.05 0
      vertex -1.93255 -4.66559 0
    endloop
  endfacet
  facet normal 0.55557 0.831469 -0
    outer loop
      vertex -1.93255 -4.66559 4
      vertex -1.93255 -4.66559 0
      vertex -3.57089 -3.57089 4
    endloop
  endfacet
  facet normal 0.55557 0.831469 -0
    outer loop
      vertex -3.57089 -3.57089 4
      vertex -1.93255 -4.66559 0
      vertex -3.57089 -3.57089 0
    endloop
  endfacet
  facet normal 0.831469 0.55557 0
    outer loop
      vertex -4.66559 -1.93255 4
      vertex -3.57089 -3.57089 4
      vertex -3.57089 -3.57089 0
    endloop
  endfacet
  facet normal 0.831469 0.55557 0
    outer loop
      vertex -4.66559 -1.93255 0
      vertex -4.66559 -1.93255 4
      vertex -3.57089 -3.57089 0
    endloop
  endfacet
  facet normal -0.801689 -0 -0.597742
    outer loop
      vertex -8.94724 -0.973071 4
      vertex -8.94724 0.973071 4
      vertex -7.45603 -0.810893 2
    endloop
  endfacet
  facet normal -0.801689 -0 -0.597742
    outer loop
      vertex -7.45603 -0.810893 2
      vertex -8.94724 0.973071 4
      vertex -7.45603 0.810893 2
    endloop
  endfacet
  facet normal -0.782946 0.172339 -0.597742
    outer loop
      vertex -7.45603 0.810893 2
      vertex -8.52888 2.87371 4
      vertex -7.1074 2.39476 2
    endloop
  endfacet
  facet normal -0.782946 0.172339 -0.597742
    outer loop
      vertex -7.45603 0.810893 2
      vertex -8.94724 0.973071 4
      vertex -8.52888 2.87371 4
    endloop
  endfacet
  facet normal -0.782946 -0.17234 -0.597742
    outer loop
      vertex -7.1074 -2.39476 2
      vertex -8.94724 -0.973071 4
      vertex -7.45603 -0.810893 2
    endloop
  endfacet
  facet normal -0.782946 -0.172339 -0.597742
    outer loop
      vertex -8.52888 -2.87371 4
      vertex -8.94724 -0.973071 4
      vertex -7.1074 -2.39476 2
    endloop
  endfacet
  facet normal -0.727593 -0.33662 -0.597742
    outer loop
      vertex -6.42643 -3.86665 2
      vertex -8.52888 -2.87371 4
      vertex -7.1074 -2.39476 2
    endloop
  endfacet
  facet normal -0.727593 -0.33662 -0.597742
    outer loop
      vertex -7.71171 -4.63998 4
      vertex -8.52888 -2.87371 4
      vertex -6.42643 -3.86665 2
    endloop
  endfacet
  facet normal -0.638219 -0.485161 -0.597742
    outer loop
      vertex -5.44497 -5.15775 2
      vertex -7.71171 -4.63998 4
      vertex -6.42643 -3.86665 2
    endloop
  endfacet
  facet normal -0.638219 -0.485162 -0.597742
    outer loop
      vertex -6.53396 -6.18929 4
      vertex -7.71171 -4.63998 4
      vertex -5.44497 -5.15775 2
    endloop
  endfacet
  facet normal -0.519002 -0.611017 -0.597742
    outer loop
      vertex -4.2089 -6.20767 2
      vertex -6.53396 -6.18929 4
      vertex -5.44497 -5.15775 2
    endloop
  endfacet
  facet normal -0.519002 -0.611016 -0.597742
    outer loop
      vertex -5.05068 -7.4492 4
      vertex -6.53396 -6.18929 4
      vertex -4.2089 -6.20767 2
    endloop
  endfacet
  facet normal -0.375518 -0.708301 -0.597742
    outer loop
      vertex -2.77604 -6.96732 2
      vertex -5.05068 -7.4492 4
      vertex -4.2089 -6.20767 2
    endloop
  endfacet
  facet normal -0.375517 -0.708302 -0.597742
    outer loop
      vertex -3.33124 -8.36079 4
      vertex -5.05068 -7.4492 4
      vertex -2.77604 -6.96732 2
    endloop
  endfacet
  facet normal -0.214475 -0.772467 -0.597742
    outer loop
      vertex -1.21337 -7.4012 2
      vertex -3.33124 -8.36079 4
      vertex -2.77604 -6.96732 2
    endloop
  endfacet
  facet normal -0.214475 -0.772467 -0.597742
    outer loop
      vertex -1.45604 -8.88144 4
      vertex -3.33124 -8.36079 4
      vertex -1.21337 -7.4012 2
    endloop
  endfacet
  facet normal -0.0434027 -0.800513 -0.597742
    outer loop
      vertex 0.406042 -7.489 2
      vertex -1.45604 -8.88144 4
      vertex -1.21337 -7.4012 2
    endloop
  endfacet
  facet normal -0.0434025 -0.800513 -0.597742
    outer loop
      vertex 0.48725 -8.9868 4
      vertex -1.45604 -8.88144 4
      vertex 0.406042 -7.489 2
    endloop
  endfacet
  facet normal 0.129699 -0.791128 -0.597742
    outer loop
      vertex 0.48725 -8.9868 4
      vertex 0.406042 -7.489 2
      vertex 2.00646 -7.22662 2
    endloop
  endfacet
  facet normal 0.129699 -0.791128 -0.597742
    outer loop
      vertex 2.40775 -8.67195 4
      vertex 0.48725 -8.9868 4
      vertex 2.00646 -7.22662 2
    endloop
  endfacet
  facet normal 0.296736 -0.74475 -0.597742
    outer loop
      vertex 2.40775 -8.67195 4
      vertex 2.00646 -7.22662 2
      vertex 3.51306 -6.62634 2
    endloop
  endfacet
  facet normal 0.296736 -0.74475 -0.597742
    outer loop
      vertex 4.21568 -7.95161 4
      vertex 2.40775 -8.67195 4
      vertex 3.51306 -6.62634 2
    endloop
  endfacet
  facet normal 0.449897 -0.663549 -0.597742
    outer loop
      vertex 4.21568 -7.95161 4
      vertex 3.51306 -6.62634 2
      vertex 4.8554 -5.71622 2
    endloop
  endfacet
  facet normal 0.449897 -0.663549 -0.597742
    outer loop
      vertex 5.82648 -6.85946 4
      vertex 4.21568 -7.95161 4
      vertex 4.8554 -5.71622 2
    endloop
  endfacet
  facet normal 0.582022 -0.551321 -0.597742
    outer loop
      vertex 5.82648 -6.85946 4
      vertex 4.8554 -5.71622 2
      vertex 5.9707 -4.53881 2
    endloop
  endfacet
  facet normal 0.582022 -0.551321 -0.597742
    outer loop
      vertex 7.16484 -5.44657 4
      vertex 5.82648 -6.85946 4
      vertex 5.9707 -4.53881 2
    endloop
  endfacet
  facet normal 0.686933 -0.413314 -0.597742
    outer loop
      vertex 7.16484 -5.44657 4
      vertex 5.9707 -4.53881 2
      vertex 6.80682 -3.14917 2
    endloop
  endfacet
  facet normal 0.686933 -0.413314 -0.597742
    outer loop
      vertex 7.16484 -5.44657 4
      vertex 6.80682 -3.14917 2
      vertex 8.16818 -3.779 4
    endloop
  endfacet
  facet normal 0.759723 -0.25598 -0.597742
    outer loop
      vertex 8.16818 -3.779 4
      vertex 6.80682 -3.14917 2
      vertex 7.32465 -1.61228 2
    endloop
  endfacet
  facet normal 0.759723 -0.25598 -0.597742
    outer loop
      vertex 8.16818 -3.779 4
      vertex 7.32465 -1.61228 2
      vertex 8.78958 -1.93473 4
    endloop
  endfacet
  facet normal 0.796989 -0.0866779 -0.597742
    outer loop
      vertex 8.78958 -1.93473 4
      vertex 7.32465 -1.61228 2
      vertex 7.5 0 2
    endloop
  endfacet
  facet normal 0.796989 -0.0866778 -0.597742
    outer loop
      vertex 8.78958 -1.93473 4
      vertex 7.5 0 2
      vertex 9 0 4
    endloop
  endfacet
  facet normal 0.796989 0.0866779 -0.597742
    outer loop
      vertex 7.5 0 2
      vertex 7.32465 1.61228 2
      vertex 9 0 4
    endloop
  endfacet
  facet normal 0.759723 0.25598 -0.597742
    outer loop
      vertex 7.32465 1.61228 2
      vertex 6.80682 3.14917 2
      vertex 8.78958 1.93473 4
    endloop
  endfacet
  facet normal 0.796989 0.0866778 -0.597742
    outer loop
      vertex 9 0 4
      vertex 7.32465 1.61228 2
      vertex 8.78958 1.93473 4
    endloop
  endfacet
  facet normal 0.686933 0.413314 -0.597742
    outer loop
      vertex 6.80682 3.14917 2
      vertex 5.9707 4.53881 2
      vertex 8.16818 3.779 4
    endloop
  endfacet
  facet normal 0.759723 0.25598 -0.597742
    outer loop
      vertex 8.78958 1.93473 4
      vertex 6.80682 3.14917 2
      vertex 8.16818 3.779 4
    endloop
  endfacet
  facet normal 0.582022 0.551321 -0.597742
    outer loop
      vertex 5.9707 4.53881 2
      vertex 4.8554 5.71622 2
      vertex 7.16484 5.44657 4
    endloop
  endfacet
  facet normal 0.686933 0.413314 -0.597742
    outer loop
      vertex 8.16818 3.779 4
      vertex 5.9707 4.53881 2
      vertex 7.16484 5.44657 4
    endloop
  endfacet
  facet normal 0.449897 0.663549 -0.597742
    outer loop
      vertex 4.8554 5.71622 2
      vertex 3.51306 6.62634 2
      vertex 5.82648 6.85946 4
    endloop
  endfacet
  facet normal 0.582022 0.551321 -0.597742
    outer loop
      vertex 7.16484 5.44657 4
      vertex 4.8554 5.71622 2
      vertex 5.82648 6.85946 4
    endloop
  endfacet
  facet normal 0.296736 0.74475 -0.597742
    outer loop
      vertex 3.51306 6.62634 2
      vertex 2.00646 7.22662 2
      vertex 4.21568 7.95161 4
    endloop
  endfacet
  facet normal 0.449897 0.663549 -0.597742
    outer loop
      vertex 5.82648 6.85946 4
      vertex 3.51306 6.62634 2
      vertex 4.21568 7.95161 4
    endloop
  endfacet
  facet normal 0.129699 0.791128 -0.597742
    outer loop
      vertex 2.00646 7.22662 2
      vertex 0.406042 7.489 2
      vertex 2.40775 8.67195 4
    endloop
  endfacet
  facet normal 0.296736 0.74475 -0.597742
    outer loop
      vertex 4.21568 7.95161 4
      vertex 2.00646 7.22662 2
      vertex 2.40775 8.67195 4
    endloop
  endfacet
  facet normal -0.0434027 0.800513 -0.597742
    outer loop
      vertex 0.406042 7.489 2
      vertex -1.21337 7.4012 2
      vertex 0.48725 8.9868 4
    endloop
  endfacet
  facet normal 0.129699 0.791128 -0.597742
    outer loop
      vertex 2.40775 8.67195 4
      vertex 0.406042 7.489 2
      vertex 0.48725 8.9868 4
    endloop
  endfacet
  facet normal -0.214475 0.772467 -0.597742
    outer loop
      vertex -1.21337 7.4012 2
      vertex -2.77604 6.96732 2
      vertex -1.45604 8.88144 4
    endloop
  endfacet
  facet normal -0.0434025 0.800513 -0.597742
    outer loop
      vertex -1.21337 7.4012 2
      vertex -1.45604 8.88144 4
      vertex 0.48725 8.9868 4
    endloop
  endfacet
  facet normal -0.375518 0.708302 -0.597742
    outer loop
      vertex -2.77604 6.96732 2
      vertex -4.2089 6.20767 2
      vertex -3.33124 8.36079 4
    endloop
  endfacet
  facet normal -0.214475 0.772467 -0.597742
    outer loop
      vertex -2.77604 6.96732 2
      vertex -3.33124 8.36079 4
      vertex -1.45604 8.88144 4
    endloop
  endfacet
  facet normal -0.519002 0.611017 -0.597742
    outer loop
      vertex -4.2089 6.20767 2
      vertex -5.44497 5.15775 2
      vertex -5.05068 7.4492 4
    endloop
  endfacet
  facet normal -0.375517 0.708302 -0.597742
    outer loop
      vertex -4.2089 6.20767 2
      vertex -5.05068 7.4492 4
      vertex -3.33124 8.36079 4
    endloop
  endfacet
  facet normal -0.638219 0.485161 -0.597742
    outer loop
      vertex -6.42643 3.86665 2
      vertex -6.53396 6.18929 4
      vertex -5.44497 5.15775 2
    endloop
  endfacet
  facet normal -0.519002 0.611017 -0.597742
    outer loop
      vertex -5.44497 5.15775 2
      vertex -6.53396 6.18929 4
      vertex -5.05068 7.4492 4
    endloop
  endfacet
  facet normal -0.727593 0.33662 -0.597742
    outer loop
      vertex -7.1074 2.39476 2
      vertex -7.71171 4.63998 4
      vertex -6.42643 3.86665 2
    endloop
  endfacet
  facet normal -0.638219 0.485162 -0.597742
    outer loop
      vertex -6.42643 3.86665 2
      vertex -7.71171 4.63998 4
      vertex -6.53396 6.18929 4
    endloop
  endfacet
  facet normal -0.727593 0.33662 -0.597742
    outer loop
      vertex -7.1074 2.39476 2
      vertex -8.52888 2.87371 4
      vertex -7.71171 4.63998 4
    endloop
  endfacet
  facet normal 0 -0 1
    outer loop
      vertex -8.94724 0.973071 4
      vertex -8.94724 -0.973071 4
      vertex -8.52888 -2.87371 4
    endloop
  endfacet
  facet normal 0 0 1
    outer loop
      vertex -6.53396 -6.18929 4
      vertex -8.94724 0.973071 4
      vertex -7.71171 -4.63998 4
    endloop
  endfacet
  facet normal 0 0 1
    outer loop
      vertex -7.71171 -4.63998 4
      vertex -8.94724 0.973071 4
      vertex -8.52888 -2.87371 4
    endloop
  endfacet
  facet normal 0 0 1
    outer loop
      vertex -5.05068 -7.4492 4
      vertex -8.94724 0.973071 4
      vertex -6.53396 -6.18929 4
    endloop
  endfacet
  facet normal 0 0 1
    outer loop
      vertex -3.33124 -8.36079 4
      vertex -8.94724 0.973071 4
      vertex -5.05068 -7.4492 4
    endloop
  endfacet
  facet normal 0 0 1
    outer loop
      vertex -1.45604 -8.88144 4
      vertex -8.94724 0.973071 4
      vertex -3.33124 -8.36079 4
    endloop
  endfacet
  facet normal 0 0 1
    outer loop
      vertex 0.48725 -8.9868 4
      vertex -8.94724 0.973071 4
      vertex -1.45604 -8.88144 4
    endloop
  endfacet
  facet normal -0 0 1
    outer loop
      vertex 2.40775 -8.67195 4
      vertex -8.94724 0.973071 4
      vertex 0.48725 -8.9868 4
    endloop
  endfacet
  facet normal -0 -0 1
    outer loop
      vertex -3.57089 -3.57089 4
      vertex -8.94724 0.973071 4
      vertex 2.40775 -8.67195 4
    endloop
  endfacet
  facet normal 0 0 1
    outer loop
      vertex -5.05 0 4
      vertex -4.66559 1.93255 4
      vertex -8.94724 0.973071 4
    endloop
  endfacet
  facet normal -0 -0 1
    outer loop
      vertex 0 -5.05 4
      vertex -1.93255 -4.66559 4
      vertex 2.40775 -8.67195 4
    endloop
  endfacet
  facet normal -0 0 1
    outer loop
      vertex -4.66559 1.93255 4
      vertex -3.57089 3.57089 4
      vertex -8.94724 0.973071 4
    endloop
  endfacet
  facet normal 0 0 1
    outer loop
      vertex 3.57089 3.57089 4
      vertex 4.66559 1.93255 4
      vertex 8.16818 3.779 4
    endloop
  endfacet
  facet normal 0 0 1
    outer loop
      vertex 1.93255 4.66559 4
      vertex 3.57089 3.57089 4
      vertex 7.16484 5.44657 4
    endloop
  endfacet
  facet normal 0 -0 1
    outer loop
      vertex 2.40775 8.67195 4
      vertex -8.94724 0.973071 4
      vertex 4.21568 7.95161 4
    endloop
  endfacet
  facet normal 0 -0 1
    outer loop
      vertex 0.48725 8.9868 4
      vertex -8.94724 0.973071 4
      vertex 2.40775 8.67195 4
    endloop
  endfacet
  facet normal 0 -0 1
    outer loop
      vertex -1.45604 8.88144 4
      vertex -8.94724 0.973071 4
      vertex 0.48725 8.9868 4
    endloop
  endfacet
  facet normal 0 -0 1
    outer loop
      vertex -3.33124 8.36079 4
      vertex -8.94724 0.973071 4
      vertex -1.45604 8.88144 4
    endloop
  endfacet
  facet normal 0 -0 1
    outer loop
      vertex -5.05068 7.4492 4
      vertex -8.94724 0.973071 4
      vertex -3.33124 8.36079 4
    endloop
  endfacet
  facet normal 0 -0 1
    outer loop
      vertex -6.53396 6.18929 4
      vertex -8.94724 0.973071 4
      vertex -5.05068 7.4492 4
    endloop
  endfacet
  facet normal 0 -0 1
    outer loop
      vertex -7.71171 4.63998 4
      vertex -8.94724 0.973071 4
      vertex -6.53396 6.18929 4
    endloop
  endfacet
  facet normal 0 -0 1
    outer loop
      vertex -8.52888 2.87371 4
      vertex -8.94724 0.973071 4
      vertex -7.71171 4.63998 4
    endloop
  endfacet
  facet normal 0 -0 1
    outer loop
      vertex 3.57089 -3.57089 4
      vertex 1.93255 -4.66559 4
      vertex 7.16484 -5.44657 4
    endloop
  endfacet
  facet normal 0 0 1
    outer loop
      vertex 4.66559 1.93255 4
      vertex 5.05 0 4
      vertex 9 0 4
    endloop
  endfacet
  facet normal 0 0 1
    outer loop
      vertex -1.93255 4.66559 4
      vertex -8.94724 0.973071 4
      vertex -3.57089 3.57089 4
    endloop
  endfacet
  facet normal 0 0 1
    outer loop
      vertex 0 5.05 4
      vertex 1.93255 4.66559 4
      vertex 5.82648 6.85946 4
    endloop
  endfacet
  facet normal 0 0 1
    outer loop
      vertex 4.21568 7.95161 4
      vertex -8.94724 0.973071 4
      vertex -1.93255 4.66559 4
    endloop
  endfacet
  facet normal 0 -0 1
    outer loop
      vertex 4.21568 7.95161 4
      vertex 0 5.05 4
      vertex 5.82648 6.85946 4
    endloop
  endfacet
  facet normal 0 -0 1
    outer loop
      vertex 5.82648 6.85946 4
      vertex 1.93255 4.66559 4
      vertex 7.16484 5.44657 4
    endloop
  endfacet
  facet normal 0 0 1
    outer loop
      vertex -1.93255 4.66559 4
      vertex 0 5.05 4
      vertex 4.21568 7.95161 4
    endloop
  endfacet
  facet normal 0 -0 1
    outer loop
      vertex 7.16484 5.44657 4
      vertex 3.57089 3.57089 4
      vertex 8.16818 3.779 4
    endloop
  endfacet
  facet normal 0 -0 1
    outer loop
      vertex 8.16818 3.779 4
      vertex 4.66559 1.93255 4
      vertex 8.78958 1.93473 4
    endloop
  endfacet
  facet normal 0 -0 1
    outer loop
      vertex 5.05 0 4
      vertex 4.66559 -1.93255 4
      vertex 8.78958 -1.93473 4
    endloop
  endfacet
  facet normal 0 0 1
    outer loop
      vertex 9 0 4
      vertex 5.05 0 4
      vertex 8.78958 -1.93473 4
    endloop
  endfacet
  facet normal -0 0 1
    outer loop
      vertex 8.78958 -1.93473 4
      vertex 4.66559 -1.93255 4
      vertex 8.16818 -3.779 4
    endloop
  endfacet
  facet normal -0 0 1
    outer loop
      vertex 8.16818 -3.779 4
      vertex 3.57089 -3.57089 4
      vertex 7.16484 -5.44657 4
    endloop
  endfacet
  facet normal 0 0 1
    outer loop
      vertex 4.66559 1.93255 4
      vertex 9 0 4
      vertex 8.78958 1.93473 4
    endloop
  endfacet
  facet normal -0 0 1
    outer loop
      vertex 7.16484 -5.44657 4
      vertex 1.93255 -4.66559 4
      vertex 5.82648 -6.85946 4
    endloop
  endfacet
  facet normal -0 0 1
    outer loop
      vertex 5.82648 -6.85946 4
      vertex 0 -5.05 4
      vertex 4.21568 -7.95161 4
    endloop
  endfacet
  facet normal 0 -0 1
    outer loop
      vertex 4.66559 -1.93255 4
      vertex 3.57089 -3.57089 4
      vertex 8.16818 -3.779 4
    endloop
  endfacet
  facet normal -0 -0 1
    outer loop
      vertex -1.93255 -4.66559 4
      vertex -3.57089 -3.57089 4
      vertex 2.40775 -8.67195 4
    endloop
  endfacet
  facet normal 0 0 1
    outer loop
      vertex 0 -5.05 4
      vertex 2.40775 -8.67195 4
      vertex 4.21568 -7.95161 4
    endloop
  endfacet
  facet normal 0 0 1
    outer loop
      vertex -3.57089 -3.57089 4
      vertex -4.66559 -1.93255 4
      vertex -8.94724 0.973071 4
    endloop
  endfacet
  facet normal 0 -0 1
    outer loop
      vertex 1.93255 -4.66559 4
      vertex 0 -5.05 4
      vertex 5.82648 -6.85946 4
    endloop
  endfacet
  facet normal 0 0 1
    outer loop
      vertex -4.66559 -1.93255 4
      vertex -5.05 0 4
      vertex -8.94724 0.973071 4
    endloop
  endfacet
endsolid OpenSCAD_Model
