solid OpenSCAD_Model
  facet normal 0 0 -1
    outer loop
      vertex -35 32.5 15
      vertex -34.2678 34.2678 15
      vertex -32.5 35 15
    endloop
  endfacet
  facet normal 0 0 -1
    outer loop
      vertex -35 32.5 15
      vertex -32.5 35 15
      vertex -15 35 15
    endloop
  endfacet
  facet normal 0 0 -1
    outer loop
      vertex -35 32.5 15
      vertex -15 35 15
      vertex -15 30 15
    endloop
  endfacet
  facet normal 0 0 -1
    outer loop
      vertex -35 32.5 15
      vertex -15 30 15
      vertex -30 30 15
    endloop
  endfacet
  facet normal 0 0 -1
    outer loop
      vertex -35 32.5 15
      vertex -30 30 15
      vertex -30 15 15
    endloop
  endfacet
  facet normal 0 0 -1
    outer loop
      vertex -35 32.5 15
      vertex -30 15 15
      vertex -35 15 15
    endloop
  endfacet
  facet normal -0.92388 0.382683 0
    outer loop
      vertex -35 32.5 15
      vertex -35 32.5 50
      vertex -34.2678 34.2678 15
    endloop
  endfacet
  facet normal -0.92388 0.382683 0
    outer loop
      vertex -34.2678 34.2678 15
      vertex -35 32.5 50
      vertex -34.2678 34.2678 50
    endloop
  endfacet
  facet normal -1 1.77321e-016 0
    outer loop
      vertex -35 15 15
      vertex -35 15 50
      vertex -35 32.5 15
    endloop
  endfacet
  facet normal -1 1.77321e-016 0
    outer loop
      vertex -35 32.5 15
      vertex -35 15 50
      vertex -35 32.5 50
    endloop
  endfacet
  facet normal 0 -1 0
    outer loop
      vertex -30 15 15
      vertex -30 15 47.75
      vertex -31.25 15 47.75
    endloop
  endfacet
  facet normal 0 -1 0
    outer loop
      vertex -33.75 15 18
      vertex -30 15 15
      vertex -31.25 15 18
    endloop
  endfacet
  facet normal 0 -1 0
    outer loop
      vertex -31.25 15 18
      vertex -30 15 15
      vertex -31.25 15 47.75
    endloop
  endfacet
  facet normal 0 -1 0
    outer loop
      vertex -35 15 15
      vertex -30 15 15
      vertex -33.75 15 18
    endloop
  endfacet
  facet normal 0 -1 0
    outer loop
      vertex -35 15 50
      vertex -33.75 15 18
      vertex -33.75 15 50
    endloop
  endfacet
  facet normal 0 -1 0
    outer loop
      vertex -35 15 15
      vertex -33.75 15 18
      vertex -35 15 50
    endloop
  endfacet
  facet normal 1 -1.77321e-016 0
    outer loop
      vertex -30 15 47.75
      vertex -30 15 15
      vertex -30 30 15
    endloop
  endfacet
  facet normal 1 -1.77321e-016 0
    outer loop
      vertex -30 30 47.75
      vertex -30 15 47.75
      vertex -30 30 15
    endloop
  endfacet
  facet normal 0 -1 0
    outer loop
      vertex -30 30 47.75
      vertex -30 30 15
      vertex -15 30 15
    endloop
  endfacet
  facet normal 0 -1 0
    outer loop
      vertex -15 30 47.75
      vertex -30 30 47.75
      vertex -15 30 15
    endloop
  endfacet
  facet normal 1 0 0
    outer loop
      vertex -15 35 15
      vertex -15 35 50
      vertex -15 33.75 50
    endloop
  endfacet
  facet normal 1 0 0
    outer loop
      vertex -15 31.25 18
      vertex -15 35 15
      vertex -15 33.75 18
    endloop
  endfacet
  facet normal 1 0 0
    outer loop
      vertex -15 33.75 18
      vertex -15 35 15
      vertex -15 33.75 50
    endloop
  endfacet
  facet normal 1 0 0
    outer loop
      vertex -15 30 15
      vertex -15 35 15
      vertex -15 31.25 18
    endloop
  endfacet
  facet normal 1 0 0
    outer loop
      vertex -15 30 47.75
      vertex -15 31.25 18
      vertex -15 31.25 47.75
    endloop
  endfacet
  facet normal 1 0 0
    outer loop
      vertex -15 30 15
      vertex -15 31.25 18
      vertex -15 30 47.75
    endloop
  endfacet
  facet normal 0 1 0
    outer loop
      vertex -32.5 35 15
      vertex -32.5 35 50
      vertex -15 35 15
    endloop
  endfacet
  facet normal 0 1 0
    outer loop
      vertex -15 35 15
      vertex -32.5 35 50
      vertex -15 35 50
    endloop
  endfacet
  facet normal -0.382683 0.92388 0
    outer loop
      vertex -34.2678 34.2678 15
      vertex -34.2678 34.2678 50
      vertex -32.5 35 15
    endloop
  endfacet
  facet normal -0.382683 0.92388 0
    outer loop
      vertex -32.5 35 15
      vertex -34.2678 34.2678 50
      vertex -32.5 35 50
    endloop
  endfacet
  facet normal 0 0 1
    outer loop
      vertex -33.75 33.5 50
      vertex -31.5 33.5 50
      vertex -34.2678 34.2678 50
    endloop
  endfacet
  facet normal 0 0 1
    outer loop
      vertex -35 15 50
      vertex -34.2678 34.2678 50
      vertex -35 32.5 50
    endloop
  endfacet
  facet normal 0 0 1
    outer loop
      vertex -35 15 50
      vertex -33.75 15 50
      vertex -34.2678 34.2678 50
    endloop
  endfacet
  facet normal 0 0 1
    outer loop
      vertex -33.75 15 50
      vertex -33.75 33.5 50
      vertex -34.2678 34.2678 50
    endloop
  endfacet
  facet normal 0 0 1
    outer loop
      vertex -31.5 33.75 50
      vertex -15 33.75 50
      vertex -34.2678 34.2678 50
    endloop
  endfacet
  facet normal 0 0 1
    outer loop
      vertex -31.5 33.5 50
      vertex -31.5 33.75 50
      vertex -34.2678 34.2678 50
    endloop
  endfacet
  facet normal 0 0 1
    outer loop
      vertex -15 33.75 50
      vertex -15 35 50
      vertex -34.2678 34.2678 50
    endloop
  endfacet
  facet normal 0 0 1
    outer loop
      vertex -15 35 50
      vertex -32.5 35 50
      vertex -34.2678 34.2678 50
    endloop
  endfacet
  facet normal 1 -1.77321e-016 0
    outer loop
      vertex -33.75 33.5 18
      vertex -33.75 33.5 50
      vertex -33.75 15 50
    endloop
  endfacet
  facet normal 1 -1.77321e-016 0
    outer loop
      vertex -33.75 15 18
      vertex -33.75 33.5 18
      vertex -33.75 15 50
    endloop
  endfacet
  facet normal 0 0 1
    outer loop
      vertex -15 33.75 18
      vertex -31.25 31.25 18
      vertex -15 31.25 18
    endloop
  endfacet
  facet normal 0 0 1
    outer loop
      vertex -31.5 33.75 18
      vertex -31.25 31.25 18
      vertex -15 33.75 18
    endloop
  endfacet
  facet normal 0 0 1
    outer loop
      vertex -31.25 15 18
      vertex -31.25 31.25 18
      vertex -31.5 33.75 18
    endloop
  endfacet
  facet normal 0 0 1
    outer loop
      vertex -31.5 33.5 18
      vertex -31.25 15 18
      vertex -31.5 33.75 18
    endloop
  endfacet
  facet normal 0 0 1
    outer loop
      vertex -33.75 33.5 18
      vertex -31.25 15 18
      vertex -31.5 33.5 18
    endloop
  endfacet
  facet normal 0 0 1
    outer loop
      vertex -33.75 15 18
      vertex -31.25 15 18
      vertex -33.75 33.5 18
    endloop
  endfacet
  facet normal -1 1.77321e-016 0
    outer loop
      vertex -31.25 31.25 47.75
      vertex -31.25 31.25 18
      vertex -31.25 15 47.75
    endloop
  endfacet
  facet normal -1 1.77321e-016 0
    outer loop
      vertex -31.25 15 47.75
      vertex -31.25 31.25 18
      vertex -31.25 15 18
    endloop
  endfacet
  facet normal 0 0 1
    outer loop
      vertex -15 31.25 47.75
      vertex -30 30 47.75
      vertex -15 30 47.75
    endloop
  endfacet
  facet normal 0 0 1
    outer loop
      vertex -31.25 31.25 47.75
      vertex -30 30 47.75
      vertex -15 31.25 47.75
    endloop
  endfacet
  facet normal 0 0 1
    outer loop
      vertex -30 15 47.75
      vertex -30 30 47.75
      vertex -31.25 31.25 47.75
    endloop
  endfacet
  facet normal 0 0 1
    outer loop
      vertex -31.25 15 47.75
      vertex -30 15 47.75
      vertex -31.25 31.25 47.75
    endloop
  endfacet
  facet normal 0 1 0
    outer loop
      vertex -15 31.25 47.75
      vertex -15 31.25 18
      vertex -31.25 31.25 47.75
    endloop
  endfacet
  facet normal 0 1 0
    outer loop
      vertex -31.25 31.25 47.75
      vertex -15 31.25 18
      vertex -31.25 31.25 18
    endloop
  endfacet
  facet normal 0 -1 0
    outer loop
      vertex -15 33.75 18
      vertex -15 33.75 50
      vertex -31.5 33.75 50
    endloop
  endfacet
  facet normal 0 -1 0
    outer loop
      vertex -31.5 33.75 18
      vertex -15 33.75 18
      vertex -31.5 33.75 50
    endloop
  endfacet
  facet normal 1 0 0
    outer loop
      vertex -31.5 33.75 18
      vertex -31.5 33.75 50
      vertex -31.5 33.5 50
    endloop
  endfacet
  facet normal 1 0 0
    outer loop
      vertex -31.5 33.5 18
      vertex -31.5 33.75 18
      vertex -31.5 33.5 50
    endloop
  endfacet
  facet normal -1.77321e-016 -1 0
    outer loop
      vertex -31.5 33.5 18
      vertex -31.5 33.5 50
      vertex -33.75 33.5 50
    endloop
  endfacet
  facet normal -1.77321e-016 -1 0
    outer loop
      vertex -33.75 33.5 18
      vertex -31.5 33.5 18
      vertex -33.75 33.5 50
    endloop
  endfacet
endsolid OpenSCAD_Model
