solid OpenSCAD_Model
  facet normal -1.77321e-016 -1 0
    outer loop
      vertex -32.5 -32.5 -1.5
      vertex -64 -32.5 0.5
      vertex -64 -32.5 -1.5
    endloop
  endfacet
  facet normal -1.77321e-016 -1 0
    outer loop
      vertex -64 -32.5 -1.5
      vertex -64 -32.5 0.5
      vertex -64 -32.5 -2.5
    endloop
  endfacet
  facet normal -1.77321e-016 -1 0
    outer loop
      vertex -32.5 -32.5 0.5
      vertex -64 -32.5 0.5
      vertex -32.5 -32.5 -1.5
    endloop
  endfacet
  facet normal 0 0 -1
    outer loop
      vertex -48 3.5 -2.5
      vertex -64 7.5 -2.5
      vertex -32.5 7.5 -2.5
    endloop
  endfacet
  facet normal 0 0 -1
    outer loop
      vertex -64 -32.5 -2.5
      vertex -64 7.5 -2.5
      vertex -64 -7.5 -2.5
    endloop
  endfacet
  facet normal 0 0 -1
    outer loop
      vertex -44.5356 -0.498102 -2.5
      vertex -32.5 7.5 -2.5
      vertex -45.3549 -2.29201 -2.5
    endloop
  endfacet
  facet normal 0 0 -1
    outer loop
      vertex -64 -7.5 -2.5
      vertex -64 -12.5 -2.5
      vertex -64 -32.5 -2.5
    endloop
  endfacet
  facet normal 0 0 -1
    outer loop
      vertex -64 -27.5 -2.5
      vertex -32.5 -12.5 -2.5
      vertex -32.5 -27.5 -2.5
    endloop
  endfacet
  facet normal 0 0 -1
    outer loop
      vertex -32.5 -12.5 -2.5
      vertex -64 -27.5 -2.5
      vertex -64 -12.5 -2.5
    endloop
  endfacet
  facet normal 0 0 -1
    outer loop
      vertex -64 -12.5 -2.5
      vertex -64 -27.5 -2.5
      vertex -64 -32.5 -2.5
    endloop
  endfacet
  facet normal 0 0 -1
    outer loop
      vertex -44.8163 1.45395 -2.5
      vertex -32.5 7.5 -2.5
      vertex -44.5356 -0.498102 -2.5
    endloop
  endfacet
  facet normal 0 0 -1
    outer loop
      vertex -46.1078 2.94439 -2.5
      vertex -32.5 7.5 -2.5
      vertex -44.8163 1.45395 -2.5
    endloop
  endfacet
  facet normal 0 0 -1
    outer loop
      vertex -48 3.5 -2.5
      vertex -32.5 7.5 -2.5
      vertex -46.1078 2.94439 -2.5
    endloop
  endfacet
  facet normal 0 0 -1
    outer loop
      vertex -49.8922 2.94439 -2.5
      vertex -64 7.5 -2.5
      vertex -48 3.5 -2.5
    endloop
  endfacet
  facet normal 0 0 -1
    outer loop
      vertex -51.1837 1.45395 -2.5
      vertex -64 7.5 -2.5
      vertex -49.8922 2.94439 -2.5
    endloop
  endfacet
  facet normal 0 0 -1
    outer loop
      vertex -64 -7.5 -2.5
      vertex -64 7.5 -2.5
      vertex -51.1837 1.45395 -2.5
    endloop
  endfacet
  facet normal 0 0 -1
    outer loop
      vertex -64 -7.5 -2.5
      vertex -51.1837 1.45395 -2.5
      vertex -51.4644 -0.498102 -2.5
    endloop
  endfacet
  facet normal 0 0 -1
    outer loop
      vertex -64 -7.5 -2.5
      vertex -51.4644 -0.498102 -2.5
      vertex -50.6451 -2.29201 -2.5
    endloop
  endfacet
  facet normal 0 0 -1
    outer loop
      vertex -64 -7.5 -2.5
      vertex -50.6451 -2.29201 -2.5
      vertex -48.9861 -3.35822 -2.5
    endloop
  endfacet
  facet normal 0 0 -1
    outer loop
      vertex -64 -7.5 -2.5
      vertex -48.9861 -3.35822 -2.5
      vertex -47.0139 -3.35822 -2.5
    endloop
  endfacet
  facet normal 0 0 -1
    outer loop
      vertex -45.3549 -2.29201 -2.5
      vertex -32.5 7.5 -2.5
      vertex -32.5 -7.5 -2.5
    endloop
  endfacet
  facet normal 0 0 -1
    outer loop
      vertex -47.0139 -3.35822 -2.5
      vertex -45.3549 -2.29201 -2.5
      vertex -32.5 -7.5 -2.5
    endloop
  endfacet
  facet normal 0 0 -1
    outer loop
      vertex -64 -7.5 -2.5
      vertex -47.0139 -3.35822 -2.5
      vertex -32.5 -7.5 -2.5
    endloop
  endfacet
  facet normal -1 1.77321e-016 0
    outer loop
      vertex -64 -32.5 -2.5
      vertex -64 -32.5 0.5
      vertex -64 7.5 -2.5
    endloop
  endfacet
  facet normal -1 1.77321e-016 0
    outer loop
      vertex -64 12.5 -1.5
      vertex -64 -32.5 0.5
      vertex -64 32.5 0.5
    endloop
  endfacet
  facet normal -1 1.77321e-016 0
    outer loop
      vertex -64 32.5 -1.5
      vertex -64 32.5 0.5
      vertex -64 32.5 -2.5
    endloop
  endfacet
  facet normal -1 1.77321e-016 0
    outer loop
      vertex -64 27.5 -1.5
      vertex -64 32.5 0.5
      vertex -64 32.5 -1.5
    endloop
  endfacet
  facet normal -1 1.77321e-016 0
    outer loop
      vertex -64 12.5 -1.5
      vertex -64 32.5 0.5
      vertex -64 27.5 -1.5
    endloop
  endfacet
  facet normal -1 1.77321e-016 0
    outer loop
      vertex -64 12.5 -1.5
      vertex -64 27.5 -1.5
      vertex -64 12.5 -2.5
    endloop
  endfacet
  facet normal -1 1.77321e-016 0
    outer loop
      vertex -64 7.5 -1.5
      vertex -64 -32.5 0.5
      vertex -64 12.5 -1.5
    endloop
  endfacet
  facet normal -1 1.77321e-016 0
    outer loop
      vertex -64 7.5 -2.5
      vertex -64 -32.5 0.5
      vertex -64 7.5 -1.5
    endloop
  endfacet
  facet normal -1 1.77321e-016 0
    outer loop
      vertex -64 27.5 -2.5
      vertex -64 12.5 -2.5
      vertex -64 27.5 -1.5
    endloop
  endfacet
  facet normal 0 0 1
    outer loop
      vertex -3.5 -48 0.5
      vertex -2.94439 -46.1078 0.5
      vertex -32.5 -32.5 0.5
    endloop
  endfacet
  facet normal 0 0 1
    outer loop
      vertex -50.6451 -2.29201 0.5
      vertex -64 -32.5 0.5
      vertex -32.5 -32.5 0.5
    endloop
  endfacet
  facet normal 0 0 1
    outer loop
      vertex 2.29201 -50.6451 0.5
      vertex 0.498102 -51.4644 0.5
      vertex 32.5 -64 0.5
    endloop
  endfacet
  facet normal 0 0 1
    outer loop
      vertex -32.5 64 0.5
      vertex 32.5 64 0.5
      vertex 1.5675e-014 64 0.5
    endloop
  endfacet
  facet normal 0 0 1
    outer loop
      vertex -47.0139 -3.35822 0.5
      vertex -48.9861 -3.35822 0.5
      vertex -32.5 -32.5 0.5
    endloop
  endfacet
  facet normal 0 0 1
    outer loop
      vertex 47.0139 3.35822 0.5
      vertex 64 32.5 0.5
      vertex 32.5 32.5 0.5
    endloop
  endfacet
  facet normal 0 0 1
    outer loop
      vertex 32.5 -32.5 0.5
      vertex -32.5 -32.5 0.5
      vertex -1.45395 -44.8163 0.5
    endloop
  endfacet
  facet normal 0 0 1
    outer loop
      vertex 32.5 32.5 0.5
      vertex 32.5 -32.5 0.5
      vertex 44.8163 -1.45395 0.5
    endloop
  endfacet
  facet normal 0 0 1
    outer loop
      vertex -32.5 -32.5 0.5
      vertex -44.8163 1.45395 0.5
      vertex -44.5356 -0.498102 0.5
    endloop
  endfacet
  facet normal 0 0 1
    outer loop
      vertex -64 32.5 0.5
      vertex -64 -32.5 0.5
      vertex -51.4644 -0.498102 0.5
    endloop
  endfacet
  facet normal 0 0 1
    outer loop
      vertex -48.9861 -3.35822 0.5
      vertex -50.6451 -2.29201 0.5
      vertex -32.5 -32.5 0.5
    endloop
  endfacet
  facet normal 0 0 1
    outer loop
      vertex -64 32.5 0.5
      vertex -51.4644 -0.498102 0.5
      vertex -51.1837 1.45395 0.5
    endloop
  endfacet
  facet normal 0 0 1
    outer loop
      vertex -64 32.5 0.5
      vertex -51.1837 1.45395 0.5
      vertex -49.8922 2.94439 0.5
    endloop
  endfacet
  facet normal 0 0 1
    outer loop
      vertex -44.8163 1.45395 0.5
      vertex -64 32.5 0.5
      vertex -46.1078 2.94439 0.5
    endloop
  endfacet
  facet normal 0 0 1
    outer loop
      vertex -46.1078 2.94439 0.5
      vertex -64 32.5 0.5
      vertex -48 3.5 0.5
    endloop
  endfacet
  facet normal 0 0 1
    outer loop
      vertex -44.8163 1.45395 0.5
      vertex -32.5 32.5 0.5
      vertex -64 32.5 0.5
    endloop
  endfacet
  facet normal 0 0 1
    outer loop
      vertex -44.5356 -0.498102 0.5
      vertex -45.3549 -2.29201 0.5
      vertex -32.5 -32.5 0.5
    endloop
  endfacet
  facet normal 0 0 1
    outer loop
      vertex -51.4644 -0.498102 0.5
      vertex -64 -32.5 0.5
      vertex -50.6451 -2.29201 0.5
    endloop
  endfacet
  facet normal 0 0 1
    outer loop
      vertex 2.29201 -45.3549 0.5
      vertex 3.35822 -47.0139 0.5
      vertex 32.5 -64 0.5
    endloop
  endfacet
  facet normal 0 0 1
    outer loop
      vertex -32.5 -64 0.5
      vertex -2.94439 -49.8922 0.5
      vertex -32.5 -32.5 0.5
    endloop
  endfacet
  facet normal 0 0 1
    outer loop
      vertex -2.94439 -49.8922 0.5
      vertex -3.5 -48 0.5
      vertex -32.5 -32.5 0.5
    endloop
  endfacet
  facet normal 0 0 1
    outer loop
      vertex -32.5 -32.5 0.5
      vertex -32.5 32.5 0.5
      vertex -44.8163 1.45395 0.5
    endloop
  endfacet
  facet normal 0 0 1
    outer loop
      vertex -32.5 32.5 0.5
      vertex 32.5 32.5 0.5
      vertex -0.498102 44.5356 0.5
    endloop
  endfacet
  facet normal 0 0 1
    outer loop
      vertex 3.35822 -47.0139 0.5
      vertex 3.35822 -48.9861 0.5
      vertex 32.5 -64 0.5
    endloop
  endfacet
  facet normal 0 0 1
    outer loop
      vertex -0.498102 51.4644 0.5
      vertex 1.45395 51.1837 0.5
      vertex 32.5 64 0.5
    endloop
  endfacet
  facet normal 0 0 1
    outer loop
      vertex -32.5 -64 0.5
      vertex 32.5 -64 0.5
      vertex 0.498102 -51.4644 0.5
    endloop
  endfacet
  facet normal 0 0 1
    outer loop
      vertex -32.5 -64 0.5
      vertex -1.45395 -51.1837 0.5
      vertex -2.94439 -49.8922 0.5
    endloop
  endfacet
  facet normal 0 0 1
    outer loop
      vertex -32.5 -64 0.5
      vertex 0.498102 -51.4644 0.5
      vertex -1.45395 -51.1837 0.5
    endloop
  endfacet
  facet normal 0 0 1
    outer loop
      vertex 32.5 -32.5 0.5
      vertex 0.498102 -44.5356 0.5
      vertex 2.29201 -45.3549 0.5
    endloop
  endfacet
  facet normal 0 0 1
    outer loop
      vertex 32.5 -32.5 0.5
      vertex -1.45395 -44.8163 0.5
      vertex 0.498102 -44.5356 0.5
    endloop
  endfacet
  facet normal 0 0 1
    outer loop
      vertex 2.94439 46.1078 0.5
      vertex 1.45395 44.8163 0.5
      vertex 32.5 32.5 0.5
    endloop
  endfacet
  facet normal 0 0 1
    outer loop
      vertex -1.45395 -44.8163 0.5
      vertex -32.5 -32.5 0.5
      vertex -2.94439 -46.1078 0.5
    endloop
  endfacet
  facet normal 0 0 1
    outer loop
      vertex 1.45395 51.1837 0.5
      vertex 2.94439 49.8922 0.5
      vertex 32.5 64 0.5
    endloop
  endfacet
  facet normal 0 0 1
    outer loop
      vertex 45.3549 2.29201 0.5
      vertex 47.0139 3.35822 0.5
      vertex 32.5 32.5 0.5
    endloop
  endfacet
  facet normal 0 0 1
    outer loop
      vertex 32.5 32.5 0.5
      vertex 32.5 64 0.5
      vertex 2.94439 49.8922 0.5
    endloop
  endfacet
  facet normal 0 0 1
    outer loop
      vertex 32.5 32.5 0.5
      vertex 2.94439 49.8922 0.5
      vertex 3.5 48 0.5
    endloop
  endfacet
  facet normal 0 0 1
    outer loop
      vertex 32.5 32.5 0.5
      vertex 3.5 48 0.5
      vertex 2.94439 46.1078 0.5
    endloop
  endfacet
  facet normal 0 0 1
    outer loop
      vertex -45.3549 -2.29201 0.5
      vertex -47.0139 -3.35822 0.5
      vertex -32.5 -32.5 0.5
    endloop
  endfacet
  facet normal 0 0 1
    outer loop
      vertex 48 -3.5 0.5
      vertex 46.1078 -2.94439 0.5
      vertex 64 -32.5 0.5
    endloop
  endfacet
  facet normal 0 0 1
    outer loop
      vertex 3.35822 -48.9861 0.5
      vertex 2.29201 -50.6451 0.5
      vertex 32.5 -64 0.5
    endloop
  endfacet
  facet normal 0 0 1
    outer loop
      vertex 32.5 -32.5 0.5
      vertex 2.29201 -45.3549 0.5
      vertex 32.5 -64 0.5
    endloop
  endfacet
  facet normal 0 0 1
    outer loop
      vertex 44.5356 0.498102 0.5
      vertex 32.5 32.5 0.5
      vertex 44.8163 -1.45395 0.5
    endloop
  endfacet
  facet normal 0 0 1
    outer loop
      vertex 45.3549 2.29201 0.5
      vertex 32.5 32.5 0.5
      vertex 44.5356 0.498102 0.5
    endloop
  endfacet
  facet normal 0 0 1
    outer loop
      vertex 51.1837 -1.45395 0.5
      vertex 49.8922 -2.94439 0.5
      vertex 64 -32.5 0.5
    endloop
  endfacet
  facet normal 0 0 1
    outer loop
      vertex 48.9861 3.35822 0.5
      vertex 64 32.5 0.5
      vertex 47.0139 3.35822 0.5
    endloop
  endfacet
  facet normal 0 0 1
    outer loop
      vertex 49.8922 -2.94439 0.5
      vertex 48 -3.5 0.5
      vertex 64 -32.5 0.5
    endloop
  endfacet
  facet normal 0 0 1
    outer loop
      vertex 50.6451 2.29201 0.5
      vertex 64 32.5 0.5
      vertex 48.9861 3.35822 0.5
    endloop
  endfacet
  facet normal 0 0 1
    outer loop
      vertex 51.4644 0.498102 0.5
      vertex 64 32.5 0.5
      vertex 50.6451 2.29201 0.5
    endloop
  endfacet
  facet normal 0 0 1
    outer loop
      vertex 64 -32.5 0.5
      vertex 64 32.5 0.5
      vertex 51.4644 0.498102 0.5
    endloop
  endfacet
  facet normal 0 0 1
    outer loop
      vertex 51.4644 0.498102 0.5
      vertex 51.1837 -1.45395 0.5
      vertex 64 -32.5 0.5
    endloop
  endfacet
  facet normal 0 0 1
    outer loop
      vertex 64 -32.5 0.5
      vertex 46.1078 -2.94439 0.5
      vertex 44.8163 -1.45395 0.5
    endloop
  endfacet
  facet normal 0 0 1
    outer loop
      vertex -49.8922 2.94439 0.5
      vertex -48 3.5 0.5
      vertex -64 32.5 0.5
    endloop
  endfacet
  facet normal 0 0 1
    outer loop
      vertex -32.5 64 0.5
      vertex -0.498102 51.4644 0.5
      vertex 32.5 64 0.5
    endloop
  endfacet
  facet normal 0 0 1
    outer loop
      vertex -32.5 64 0.5
      vertex -2.29201 50.6451 0.5
      vertex -0.498102 51.4644 0.5
    endloop
  endfacet
  facet normal 0 0 1
    outer loop
      vertex -32.5 64 0.5
      vertex -3.35823 48.9861 0.5
      vertex -2.29201 50.6451 0.5
    endloop
  endfacet
  facet normal 0 0 1
    outer loop
      vertex -32.5 64 0.5
      vertex -3.35823 47.0139 0.5
      vertex -3.35823 48.9861 0.5
    endloop
  endfacet
  facet normal 0 0 1
    outer loop
      vertex -32.5 64 0.5
      vertex -2.29201 45.3549 0.5
      vertex -3.35823 47.0139 0.5
    endloop
  endfacet
  facet normal 0 0 1
    outer loop
      vertex -0.498102 44.5356 0.5
      vertex 32.5 32.5 0.5
      vertex 1.45395 44.8163 0.5
    endloop
  endfacet
  facet normal 0 0 1
    outer loop
      vertex 44.8163 -1.45395 0.5
      vertex 32.5 -32.5 0.5
      vertex 64 -32.5 0.5
    endloop
  endfacet
  facet normal 0 0 1
    outer loop
      vertex -2.29201 45.3549 0.5
      vertex -32.5 32.5 0.5
      vertex -0.498102 44.5356 0.5
    endloop
  endfacet
  facet normal 0 0 1
    outer loop
      vertex -32.5 64 0.5
      vertex -32.5 32.5 0.5
      vertex -2.29201 45.3549 0.5
    endloop
  endfacet
  facet normal -1 1.22461e-016 0
    outer loop
      vertex -32.5 -64 -2.5
      vertex -32.5 -64 0.5
      vertex -32.5 -32.5 -2.5
    endloop
  endfacet
  facet normal -1 1.22461e-016 0
    outer loop
      vertex -32.5 -32.5 -1.5
      vertex -32.5 -64 0.5
      vertex -32.5 -32.5 0.5
    endloop
  endfacet
  facet normal -1 1.22461e-016 0
    outer loop
      vertex -32.5 -32.5 -2.5
      vertex -32.5 -64 0.5
      vertex -32.5 -32.5 -1.5
    endloop
  endfacet
  facet normal -1 0 0
    outer loop
      vertex -64 -27.5 -2.5
      vertex -64 -27.5 -6.5
      vertex -64 -32.5 -2.5
    endloop
  endfacet
  facet normal -1 0 0
    outer loop
      vertex -64 -32.5 -6.5
      vertex -64 -32.5 -1.5
      vertex -64 -32.5 -2.5
    endloop
  endfacet
  facet normal -1 0 0
    outer loop
      vertex -64 -32.5 -6.5
      vertex -64 -32.5 -2.5
      vertex -64 -27.5 -6.5
    endloop
  endfacet
  facet normal 0 1 0
    outer loop
      vertex -64 -27.5 -6.5
      vertex -64 -27.5 -2.5
      vertex -32.5 -27.5 -6.5
    endloop
  endfacet
  facet normal 0 1 0
    outer loop
      vertex -32.5 -27.5 -6.5
      vertex -64 -27.5 -2.5
      vertex -32.5 -27.5 -2.5
    endloop
  endfacet
  facet normal -1 0 0
    outer loop
      vertex -32.5 -27.5 -6.5
      vertex -32.5 -27.5 -2.5
      vertex -32.5 -12.5 -6.5
    endloop
  endfacet
  facet normal -1 0 0
    outer loop
      vertex -32.5 -12.5 -6.5
      vertex -32.5 -27.5 -2.5
      vertex -32.5 -12.5 -2.5
    endloop
  endfacet
  facet normal 0 -1 0
    outer loop
      vertex -64 -12.5 -2.5
      vertex -64 -12.5 -6.5
      vertex -32.5 -12.5 -6.5
    endloop
  endfacet
  facet normal 0 -1 0
    outer loop
      vertex -32.5 -12.5 -2.5
      vertex -64 -12.5 -2.5
      vertex -32.5 -12.5 -6.5
    endloop
  endfacet
  facet normal -1 0 0
    outer loop
      vertex -64 -12.5 -6.5
      vertex -64 -12.5 -2.5
      vertex -64 -7.5 -6.5
    endloop
  endfacet
  facet normal -1 0 0
    outer loop
      vertex -64 -7.5 -6.5
      vertex -64 -12.5 -2.5
      vertex -64 -7.5 -2.5
    endloop
  endfacet
  facet normal 0 1 0
    outer loop
      vertex -64 -7.5 -6.5
      vertex -64 -7.5 -2.5
      vertex -32.5 -7.5 -6.5
    endloop
  endfacet
  facet normal 0 1 0
    outer loop
      vertex -32.5 -7.5 -6.5
      vertex -64 -7.5 -2.5
      vertex -32.5 -7.5 -2.5
    endloop
  endfacet
  facet normal -1 0 0
    outer loop
      vertex -32.5 -7.5 -6.5
      vertex -32.5 -7.5 -2.5
      vertex -32.5 7.5 -6.5
    endloop
  endfacet
  facet normal -1 0 0
    outer loop
      vertex -32.5 7.5 -6.5
      vertex -32.5 -7.5 -2.5
      vertex -32.5 7.5 -2.5
    endloop
  endfacet
  facet normal 0 -1 0
    outer loop
      vertex -64 7.5 -2.5
      vertex -64 7.5 -6.5
      vertex -32.5 7.5 -6.5
    endloop
  endfacet
  facet normal 0 -1 0
    outer loop
      vertex -64 7.5 -1.5
      vertex -64 7.5 -6.5
      vertex -64 7.5 -2.5
    endloop
  endfacet
  facet normal 0 -1 0
    outer loop
      vertex -32.5 7.5 -2.5
      vertex -64 7.5 -2.5
      vertex -32.5 7.5 -6.5
    endloop
  endfacet
  facet normal 0.989821 -0.142315 0
    outer loop
      vertex -51.1837 1.45395 -2.5
      vertex -51.1837 1.45395 0.5
      vertex -51.4644 -0.498102 0.5
    endloop
  endfacet
  facet normal 0.989821 -0.142315 0
    outer loop
      vertex -51.4644 -0.498102 -2.5
      vertex -51.1837 1.45395 -2.5
      vertex -51.4644 -0.498102 0.5
    endloop
  endfacet
  facet normal 0.755749 -0.654861 0
    outer loop
      vertex -49.8922 2.94439 -2.5
      vertex -49.8922 2.94439 0.5
      vertex -51.1837 1.45395 0.5
    endloop
  endfacet
  facet normal 0.755749 -0.654861 0
    outer loop
      vertex -51.1837 1.45395 -2.5
      vertex -49.8922 2.94439 -2.5
      vertex -51.1837 1.45395 0.5
    endloop
  endfacet
  facet normal 0.281733 -0.959493 0
    outer loop
      vertex -48 3.5 -2.5
      vertex -48 3.5 0.5
      vertex -49.8922 2.94439 0.5
    endloop
  endfacet
  facet normal 0.281733 -0.959493 0
    outer loop
      vertex -49.8922 2.94439 -2.5
      vertex -48 3.5 -2.5
      vertex -49.8922 2.94439 0.5
    endloop
  endfacet
  facet normal -0.281733 -0.959493 0
    outer loop
      vertex -46.1078 2.94439 -2.5
      vertex -46.1078 2.94439 0.5
      vertex -48 3.5 0.5
    endloop
  endfacet
  facet normal -0.281733 -0.959493 0
    outer loop
      vertex -48 3.5 -2.5
      vertex -46.1078 2.94439 -2.5
      vertex -48 3.5 0.5
    endloop
  endfacet
  facet normal -0.755749 -0.654861 0
    outer loop
      vertex -44.8163 1.45395 0.5
      vertex -46.1078 2.94439 0.5
      vertex -44.8163 1.45395 -2.5
    endloop
  endfacet
  facet normal -0.755749 -0.654861 0
    outer loop
      vertex -44.8163 1.45395 -2.5
      vertex -46.1078 2.94439 0.5
      vertex -46.1078 2.94439 -2.5
    endloop
  endfacet
  facet normal -0.989821 -0.142315 0
    outer loop
      vertex -44.5356 -0.498102 0.5
      vertex -44.8163 1.45395 0.5
      vertex -44.5356 -0.498102 -2.5
    endloop
  endfacet
  facet normal -0.989821 -0.142315 0
    outer loop
      vertex -44.5356 -0.498102 -2.5
      vertex -44.8163 1.45395 0.5
      vertex -44.8163 1.45395 -2.5
    endloop
  endfacet
  facet normal -0.909632 0.415415 0
    outer loop
      vertex -44.5356 -0.498102 0.5
      vertex -44.5356 -0.498102 -2.5
      vertex -45.3549 -2.29201 0.5
    endloop
  endfacet
  facet normal -0.909632 0.415415 0
    outer loop
      vertex -45.3549 -2.29201 0.5
      vertex -44.5356 -0.498102 -2.5
      vertex -45.3549 -2.29201 -2.5
    endloop
  endfacet
  facet normal -0.54064 0.841254 0
    outer loop
      vertex -45.3549 -2.29201 0.5
      vertex -45.3549 -2.29201 -2.5
      vertex -47.0139 -3.35822 0.5
    endloop
  endfacet
  facet normal -0.54064 0.841254 0
    outer loop
      vertex -47.0139 -3.35822 0.5
      vertex -45.3549 -2.29201 -2.5
      vertex -47.0139 -3.35822 -2.5
    endloop
  endfacet
  facet normal 1.77321e-016 1 0
    outer loop
      vertex -47.0139 -3.35822 0.5
      vertex -47.0139 -3.35822 -2.5
      vertex -48.9861 -3.35822 0.5
    endloop
  endfacet
  facet normal 1.77321e-016 1 0
    outer loop
      vertex -48.9861 -3.35822 0.5
      vertex -47.0139 -3.35822 -2.5
      vertex -48.9861 -3.35822 -2.5
    endloop
  endfacet
  facet normal 0.54064 0.841254 0
    outer loop
      vertex -48.9861 -3.35822 0.5
      vertex -48.9861 -3.35822 -2.5
      vertex -50.6451 -2.29201 0.5
    endloop
  endfacet
  facet normal 0.54064 0.841254 0
    outer loop
      vertex -50.6451 -2.29201 0.5
      vertex -48.9861 -3.35822 -2.5
      vertex -50.6451 -2.29201 -2.5
    endloop
  endfacet
  facet normal 0.909632 0.415415 0
    outer loop
      vertex -51.4644 -0.498102 0.5
      vertex -50.6451 -2.29201 0.5
      vertex -50.6451 -2.29201 -2.5
    endloop
  endfacet
  facet normal 0.909632 0.415415 0
    outer loop
      vertex -51.4644 -0.498102 -2.5
      vertex -51.4644 -0.498102 0.5
      vertex -50.6451 -2.29201 -2.5
    endloop
  endfacet
  facet normal 0 1 0
    outer loop
      vertex -32.5 12.5 -2.5
      vertex -32.5 12.5 -6.5
      vertex -64 12.5 -2.5
    endloop
  endfacet
  facet normal 0 1 0
    outer loop
      vertex -64 12.5 -6.5
      vertex -64 12.5 -1.5
      vertex -64 12.5 -2.5
    endloop
  endfacet
  facet normal 0 1 0
    outer loop
      vertex -64 12.5 -6.5
      vertex -64 12.5 -2.5
      vertex -32.5 12.5 -6.5
    endloop
  endfacet
  facet normal 0 0 -1
    outer loop
      vertex -64 12.5 -2.5
      vertex -64 27.5 -2.5
      vertex -32.5 12.5 -2.5
    endloop
  endfacet
  facet normal 0 0 -1
    outer loop
      vertex -32.5 12.5 -2.5
      vertex -64 27.5 -2.5
      vertex -32.5 27.5 -2.5
    endloop
  endfacet
  facet normal 0 -1 0
    outer loop
      vertex -64 27.5 -2.5
      vertex -64 27.5 -6.5
      vertex -32.5 27.5 -6.5
    endloop
  endfacet
  facet normal 0 -1 0
    outer loop
      vertex -64 27.5 -1.5
      vertex -64 27.5 -6.5
      vertex -64 27.5 -2.5
    endloop
  endfacet
  facet normal 0 -1 0
    outer loop
      vertex -32.5 27.5 -2.5
      vertex -64 27.5 -2.5
      vertex -32.5 27.5 -6.5
    endloop
  endfacet
  facet normal 0 1 0
    outer loop
      vertex -32.5 32.5 -2.5
      vertex -32.5 32.5 -6.5
      vertex -64 32.5 -2.5
    endloop
  endfacet
  facet normal 0 1 0
    outer loop
      vertex -64 32.5 -6.5
      vertex -64 32.5 -1.5
      vertex -64 32.5 -2.5
    endloop
  endfacet
  facet normal 0 1 0
    outer loop
      vertex -64 32.5 -6.5
      vertex -64 32.5 -2.5
      vertex -32.5 32.5 -6.5
    endloop
  endfacet
  facet normal 1.77321e-016 1 0
    outer loop
      vertex -64 32.5 -2.5
      vertex -64 32.5 0.5
      vertex -32.5 32.5 -2.5
    endloop
  endfacet
  facet normal 1.77321e-016 1 0
    outer loop
      vertex -32.5 32.5 -2.5
      vertex -64 32.5 0.5
      vertex -32.5 32.5 0.5
    endloop
  endfacet
  facet normal -1 0 0
    outer loop
      vertex -32.5 32.5 -6.5
      vertex -32.5 32.5 -2.5
      vertex -32.5 64 -6.5
    endloop
  endfacet
  facet normal -1 0 0
    outer loop
      vertex -32.5 64 -6.5
      vertex -32.5 32.5 -2.5
      vertex -32.5 32.5 0.5
    endloop
  endfacet
  facet normal -1 0 0
    outer loop
      vertex -32.5 64 -6.5
      vertex -32.5 32.5 0.5
      vertex -32.5 64 0.5
    endloop
  endfacet
  facet normal 0 1 0
    outer loop
      vertex -27.5 64 -2.5
      vertex -27.5 64 -6.5
      vertex -32.5 64 -2.5
    endloop
  endfacet
  facet normal 0 1 0
    outer loop
      vertex -32.5 64 -6.5
      vertex -32.5 64 0.5
      vertex -32.5 64 -2.5
    endloop
  endfacet
  facet normal 0 1 0
    outer loop
      vertex -32.5 64 -6.5
      vertex -32.5 64 -2.5
      vertex -27.5 64 -6.5
    endloop
  endfacet
  facet normal 2.44921e-016 1 0
    outer loop
      vertex -32.5 64 -2.5
      vertex -32.5 64 0.5
      vertex 1.5675e-014 64 -2.5
    endloop
  endfacet
  facet normal 2.44921e-016 1 0
    outer loop
      vertex 1.5675e-014 64 -2.5
      vertex -32.5 64 0.5
      vertex 1.5675e-014 64 0.5
    endloop
  endfacet
  facet normal 0 1 0
    outer loop
      vertex 1.5675e-014 64 -2.5
      vertex 1.5675e-014 64 0.5
      vertex 7.5 64 -2.5
    endloop
  endfacet
  facet normal 0 1 0
    outer loop
      vertex 7.5 64 -2.5
      vertex 1.5675e-014 64 0.5
      vertex 32.5 64 0.5
    endloop
  endfacet
  facet normal 0 1 0
    outer loop
      vertex 27.5 64 -2.5
      vertex 32.5 64 0.5
      vertex 32.5 64 -6.5
    endloop
  endfacet
  facet normal 0 1 0
    outer loop
      vertex 27.5 64 -2.5
      vertex 32.5 64 -6.5
      vertex 27.5 64 -6.5
    endloop
  endfacet
  facet normal 0 1 0
    outer loop
      vertex 7.5 64 -2.5
      vertex 32.5 64 0.5
      vertex 12.5 64 -2.5
    endloop
  endfacet
  facet normal 0 1 0
    outer loop
      vertex 12.5 64 -6.5
      vertex 7.5 64 -2.5
      vertex 12.5 64 -2.5
    endloop
  endfacet
  facet normal 0 1 0
    outer loop
      vertex 32.5 64 0.5
      vertex 27.5 64 -2.5
      vertex 12.5 64 -2.5
    endloop
  endfacet
  facet normal 0 1 0
    outer loop
      vertex 7.5 64 -2.5
      vertex 12.5 64 -6.5
      vertex 7.5 64 -6.5
    endloop
  endfacet
  facet normal 1 0 0
    outer loop
      vertex 32.5 32.5 -2.5
      vertex 32.5 32.5 -6.5
      vertex 32.5 64 -6.5
    endloop
  endfacet
  facet normal 1 0 0
    outer loop
      vertex 32.5 64 -2.5
      vertex 32.5 32.5 -2.5
      vertex 32.5 64 -6.5
    endloop
  endfacet
  facet normal 1 0 0
    outer loop
      vertex 32.5 64 0.5
      vertex 32.5 64 -2.5
      vertex 32.5 64 -6.5
    endloop
  endfacet
  facet normal 1 -2.44921e-016 0
    outer loop
      vertex 32.5 64 -2.5
      vertex 32.5 32.5 0.5
      vertex 32.5 32.5 -1.5
    endloop
  endfacet
  facet normal 1 -2.44921e-016 0
    outer loop
      vertex 32.5 32.5 -2.5
      vertex 32.5 64 -2.5
      vertex 32.5 32.5 -1.5
    endloop
  endfacet
  facet normal 1 -2.44921e-016 0
    outer loop
      vertex 32.5 64 -2.5
      vertex 32.5 64 0.5
      vertex 32.5 32.5 0.5
    endloop
  endfacet
  facet normal 1.36718e-016 1 0
    outer loop
      vertex 32.5 32.5 -1.5
      vertex 32.5 32.5 0.5
      vertex 64 32.5 -1.5
    endloop
  endfacet
  facet normal 1.36718e-016 1 0
    outer loop
      vertex 64 32.5 -1.5
      vertex 32.5 32.5 0.5
      vertex 64 32.5 0.5
    endloop
  endfacet
  facet normal 1.36718e-016 1 0
    outer loop
      vertex 64 32.5 -1.5
      vertex 64 32.5 0.5
      vertex 64 32.5 -2.5
    endloop
  endfacet
  facet normal 1 -1.36718e-016 0
    outer loop
      vertex 64 -27.5 -1.5
      vertex 64 -32.5 0.5
      vertex 64 -32.5 -1.5
    endloop
  endfacet
  facet normal 1 -1.36718e-016 0
    outer loop
      vertex 64 -32.5 -1.5
      vertex 64 -32.5 0.5
      vertex 64 -32.5 -2.5
    endloop
  endfacet
  facet normal 1 -1.36718e-016 0
    outer loop
      vertex 64 -12.5 -2.5
      vertex 64 -32.5 0.5
      vertex 64 -27.5 -1.5
    endloop
  endfacet
  facet normal 1 -1.36718e-016 0
    outer loop
      vertex 64 -12.5 -2.5
      vertex 64 -27.5 -1.5
      vertex 64 -27.5 -2.5
    endloop
  endfacet
  facet normal 1 -1.36718e-016 0
    outer loop
      vertex 64 -12.5 -1.5
      vertex 64 -32.5 0.5
      vertex 64 -12.5 -2.5
    endloop
  endfacet
  facet normal 1 -1.36718e-016 0
    outer loop
      vertex 64 -7.5 -1.5
      vertex 64 -32.5 0.5
      vertex 64 -12.5 -1.5
    endloop
  endfacet
  facet normal 1 -1.36718e-016 0
    outer loop
      vertex 64 32.5 -2.5
      vertex 64 -32.5 0.5
      vertex 64 -7.5 -1.5
    endloop
  endfacet
  facet normal 1 -1.36718e-016 0
    outer loop
      vertex 64 32.5 -2.5
      vertex 64 -7.5 -1.5
      vertex 64 -7.5 -2.5
    endloop
  endfacet
  facet normal 1 -1.36718e-016 0
    outer loop
      vertex 64 32.5 0.5
      vertex 64 -32.5 0.5
      vertex 64 32.5 -2.5
    endloop
  endfacet
  facet normal -1.36718e-016 -1 0
    outer loop
      vertex 64 -32.5 -2.5
      vertex 32.5 -32.5 0.5
      vertex 32.5 -32.5 -1.5
    endloop
  endfacet
  facet normal -1.36718e-016 -1 0
    outer loop
      vertex 32.5 -32.5 -2.5
      vertex 64 -32.5 -2.5
      vertex 32.5 -32.5 -1.5
    endloop
  endfacet
  facet normal -1.36718e-016 -1 0
    outer loop
      vertex 64 -32.5 -2.5
      vertex 64 -32.5 0.5
      vertex 32.5 -32.5 0.5
    endloop
  endfacet
  facet normal 1 -1.22461e-016 0
    outer loop
      vertex 32.5 -32.5 -1.5
      vertex 32.5 -64 0.5
      vertex 32.5 -64 -1.5
    endloop
  endfacet
  facet normal 1 -1.22461e-016 0
    outer loop
      vertex 32.5 -64 -1.5
      vertex 32.5 -64 0.5
      vertex 32.5 -64 -2.5
    endloop
  endfacet
  facet normal 1 -1.22461e-016 0
    outer loop
      vertex 32.5 -32.5 0.5
      vertex 32.5 -64 0.5
      vertex 32.5 -32.5 -1.5
    endloop
  endfacet
  facet normal -1.22461e-016 -1 0
    outer loop
      vertex -27.5 -64 -1.5
      vertex -32.5 -64 0.5
      vertex -32.5 -64 -1.5
    endloop
  endfacet
  facet normal -1.22461e-016 -1 0
    outer loop
      vertex -32.5 -64 -1.5
      vertex -32.5 -64 0.5
      vertex -32.5 -64 -2.5
    endloop
  endfacet
  facet normal -1.22461e-016 -1 0
    outer loop
      vertex -12.5 -64 -2.5
      vertex -32.5 -64 0.5
      vertex -27.5 -64 -1.5
    endloop
  endfacet
  facet normal -1.22461e-016 -1 0
    outer loop
      vertex -12.5 -64 -2.5
      vertex -27.5 -64 -1.5
      vertex -27.5 -64 -2.5
    endloop
  endfacet
  facet normal -1.22461e-016 -1 0
    outer loop
      vertex -12.5 -64 -1.5
      vertex -32.5 -64 0.5
      vertex -12.5 -64 -2.5
    endloop
  endfacet
  facet normal -1.22461e-016 -1 0
    outer loop
      vertex -7.5 -64 -1.5
      vertex -32.5 -64 0.5
      vertex -12.5 -64 -1.5
    endloop
  endfacet
  facet normal -1.22461e-016 -1 0
    outer loop
      vertex 32.5 -64 -2.5
      vertex -32.5 -64 0.5
      vertex -7.5 -64 -1.5
    endloop
  endfacet
  facet normal -1.22461e-016 -1 0
    outer loop
      vertex 32.5 -64 -2.5
      vertex -7.5 -64 -1.5
      vertex -7.5 -64 -2.5
    endloop
  endfacet
  facet normal -1.22461e-016 -1 0
    outer loop
      vertex 32.5 -64 0.5
      vertex -32.5 -64 0.5
      vertex 32.5 -64 -2.5
    endloop
  endfacet
  facet normal -1 0 0
    outer loop
      vertex -32.5 -32.5 0.5
      vertex -32.5 -32.5 2.5
      vertex -32.5 32.5 0.5
    endloop
  endfacet
  facet normal -1 0 0
    outer loop
      vertex -32.5 32.5 0.5
      vertex -32.5 -32.5 2.5
      vertex -32.5 32.5 2.5
    endloop
  endfacet
  facet normal 0 -1 0
    outer loop
      vertex -32.5 -32.5 2.5
      vertex -32.5 -32.5 0.5
      vertex 32.5 -32.5 0.5
    endloop
  endfacet
  facet normal 0 -1 0
    outer loop
      vertex 32.5 -32.5 2.5
      vertex -32.5 -32.5 2.5
      vertex 32.5 -32.5 0.5
    endloop
  endfacet
  facet normal 1 0 0
    outer loop
      vertex 32.5 -32.5 2.5
      vertex 32.5 -32.5 0.5
      vertex 32.5 32.5 0.5
    endloop
  endfacet
  facet normal 1 0 0
    outer loop
      vertex 32.5 32.5 2.5
      vertex 32.5 -32.5 2.5
      vertex 32.5 32.5 0.5
    endloop
  endfacet
  facet normal 0 1 0
    outer loop
      vertex -32.5 32.5 0.5
      vertex -32.5 32.5 2.5
      vertex 32.5 32.5 0.5
    endloop
  endfacet
  facet normal 0 1 0
    outer loop
      vertex 32.5 32.5 0.5
      vertex -32.5 32.5 2.5
      vertex 32.5 32.5 2.5
    endloop
  endfacet
  facet normal 0.654861 0.755749 0
    outer loop
      vertex -1.45395 -51.1837 0.5
      vertex -1.45395 -51.1837 -2.5
      vertex -2.94439 -49.8922 0.5
    endloop
  endfacet
  facet normal 0.654861 0.755749 0
    outer loop
      vertex -2.94439 -49.8922 0.5
      vertex -1.45395 -51.1837 -2.5
      vertex -2.94439 -49.8922 -2.5
    endloop
  endfacet
  facet normal 0.959493 0.281733 0
    outer loop
      vertex -3.5 -48 0.5
      vertex -2.94439 -49.8922 0.5
      vertex -2.94439 -49.8922 -2.5
    endloop
  endfacet
  facet normal 0.959493 0.281733 0
    outer loop
      vertex -3.5 -48 -2.5
      vertex -3.5 -48 0.5
      vertex -2.94439 -49.8922 -2.5
    endloop
  endfacet
  facet normal 0.142315 0.989821 0
    outer loop
      vertex 0.498102 -51.4644 0.5
      vertex 0.498102 -51.4644 -2.5
      vertex -1.45395 -51.1837 0.5
    endloop
  endfacet
  facet normal 0.142315 0.989821 0
    outer loop
      vertex -1.45395 -51.1837 0.5
      vertex 0.498102 -51.4644 -2.5
      vertex -1.45395 -51.1837 -2.5
    endloop
  endfacet
  facet normal -0.415415 0.909632 0
    outer loop
      vertex 2.29201 -50.6451 0.5
      vertex 2.29201 -50.6451 -2.5
      vertex 0.498102 -51.4644 0.5
    endloop
  endfacet
  facet normal -0.415415 0.909632 0
    outer loop
      vertex 0.498102 -51.4644 0.5
      vertex 2.29201 -50.6451 -2.5
      vertex 0.498102 -51.4644 -2.5
    endloop
  endfacet
  facet normal -0.841254 0.54064 0
    outer loop
      vertex 3.35822 -48.9861 0.5
      vertex 3.35822 -48.9861 -2.5
      vertex 2.29201 -50.6451 0.5
    endloop
  endfacet
  facet normal -0.841254 0.54064 0
    outer loop
      vertex 2.29201 -50.6451 0.5
      vertex 3.35822 -48.9861 -2.5
      vertex 2.29201 -50.6451 -2.5
    endloop
  endfacet
  facet normal -1 1.22461e-016 0
    outer loop
      vertex 3.35822 -47.0139 0.5
      vertex 3.35822 -47.0139 -2.5
      vertex 3.35822 -48.9861 0.5
    endloop
  endfacet
  facet normal -1 1.22461e-016 0
    outer loop
      vertex 3.35822 -48.9861 0.5
      vertex 3.35822 -47.0139 -2.5
      vertex 3.35822 -48.9861 -2.5
    endloop
  endfacet
  facet normal -0.841254 -0.54064 0
    outer loop
      vertex 3.35822 -47.0139 0.5
      vertex 2.29201 -45.3549 0.5
      vertex 3.35822 -47.0139 -2.5
    endloop
  endfacet
  facet normal -0.841254 -0.54064 0
    outer loop
      vertex 3.35822 -47.0139 -2.5
      vertex 2.29201 -45.3549 0.5
      vertex 2.29201 -45.3549 -2.5
    endloop
  endfacet
  facet normal -0.415415 -0.909632 0
    outer loop
      vertex 2.29201 -45.3549 -2.5
      vertex 2.29201 -45.3549 0.5
      vertex 0.498102 -44.5356 0.5
    endloop
  endfacet
  facet normal -0.415415 -0.909632 0
    outer loop
      vertex 0.498102 -44.5356 -2.5
      vertex 2.29201 -45.3549 -2.5
      vertex 0.498102 -44.5356 0.5
    endloop
  endfacet
  facet normal 0.142315 -0.989821 0
    outer loop
      vertex 0.498102 -44.5356 -2.5
      vertex 0.498102 -44.5356 0.5
      vertex -1.45395 -44.8163 0.5
    endloop
  endfacet
  facet normal 0.142315 -0.989821 0
    outer loop
      vertex -1.45395 -44.8163 -2.5
      vertex 0.498102 -44.5356 -2.5
      vertex -1.45395 -44.8163 0.5
    endloop
  endfacet
  facet normal 0.654861 -0.755749 0
    outer loop
      vertex -1.45395 -44.8163 -2.5
      vertex -1.45395 -44.8163 0.5
      vertex -2.94439 -46.1078 0.5
    endloop
  endfacet
  facet normal 0.654861 -0.755749 0
    outer loop
      vertex -2.94439 -46.1078 -2.5
      vertex -1.45395 -44.8163 -2.5
      vertex -2.94439 -46.1078 0.5
    endloop
  endfacet
  facet normal 0.959493 -0.281733 0
    outer loop
      vertex -2.94439 -46.1078 -2.5
      vertex -2.94439 -46.1078 0.5
      vertex -3.5 -48 0.5
    endloop
  endfacet
  facet normal 0.959493 -0.281733 0
    outer loop
      vertex -3.5 -48 -2.5
      vertex -2.94439 -46.1078 -2.5
      vertex -3.5 -48 0.5
    endloop
  endfacet
  facet normal 0.841254 0.54064 0
    outer loop
      vertex -3.35823 47.0139 0.5
      vertex -2.29201 45.3549 0.5
      vertex -2.29201 45.3549 -2.5
    endloop
  endfacet
  facet normal 0.841254 0.54064 0
    outer loop
      vertex -3.35823 47.0139 -2.5
      vertex -3.35823 47.0139 0.5
      vertex -2.29201 45.3549 -2.5
    endloop
  endfacet
  facet normal 1 0 0
    outer loop
      vertex -3.35823 48.9861 -2.5
      vertex -3.35823 48.9861 0.5
      vertex -3.35823 47.0139 0.5
    endloop
  endfacet
  facet normal 1 0 0
    outer loop
      vertex -3.35823 47.0139 -2.5
      vertex -3.35823 48.9861 -2.5
      vertex -3.35823 47.0139 0.5
    endloop
  endfacet
  facet normal 0.415415 0.909632 0
    outer loop
      vertex -0.498102 44.5356 0.5
      vertex -0.498102 44.5356 -2.5
      vertex -2.29201 45.3549 0.5
    endloop
  endfacet
  facet normal 0.415415 0.909632 0
    outer loop
      vertex -2.29201 45.3549 0.5
      vertex -0.498102 44.5356 -2.5
      vertex -2.29201 45.3549 -2.5
    endloop
  endfacet
  facet normal -0.142315 0.989821 0
    outer loop
      vertex 1.45395 44.8163 0.5
      vertex 1.45395 44.8163 -2.5
      vertex -0.498102 44.5356 0.5
    endloop
  endfacet
  facet normal -0.142315 0.989821 0
    outer loop
      vertex -0.498102 44.5356 0.5
      vertex 1.45395 44.8163 -2.5
      vertex -0.498102 44.5356 -2.5
    endloop
  endfacet
  facet normal -0.654861 0.755749 0
    outer loop
      vertex 2.94439 46.1078 0.5
      vertex 2.94439 46.1078 -2.5
      vertex 1.45395 44.8163 0.5
    endloop
  endfacet
  facet normal -0.654861 0.755749 0
    outer loop
      vertex 1.45395 44.8163 0.5
      vertex 2.94439 46.1078 -2.5
      vertex 1.45395 44.8163 -2.5
    endloop
  endfacet
  facet normal -0.959493 0.281733 0
    outer loop
      vertex 3.5 48 0.5
      vertex 3.5 48 -2.5
      vertex 2.94439 46.1078 0.5
    endloop
  endfacet
  facet normal -0.959493 0.281733 0
    outer loop
      vertex 2.94439 46.1078 0.5
      vertex 3.5 48 -2.5
      vertex 2.94439 46.1078 -2.5
    endloop
  endfacet
  facet normal -0.959493 -0.281733 0
    outer loop
      vertex 3.5 48 0.5
      vertex 2.94439 49.8922 0.5
      vertex 3.5 48 -2.5
    endloop
  endfacet
  facet normal -0.959493 -0.281733 0
    outer loop
      vertex 3.5 48 -2.5
      vertex 2.94439 49.8922 0.5
      vertex 2.94439 49.8922 -2.5
    endloop
  endfacet
  facet normal -0.654861 -0.755749 0
    outer loop
      vertex 2.94439 49.8922 -2.5
      vertex 2.94439 49.8922 0.5
      vertex 1.45395 51.1837 0.5
    endloop
  endfacet
  facet normal -0.654861 -0.755749 0
    outer loop
      vertex 1.45395 51.1837 -2.5
      vertex 2.94439 49.8922 -2.5
      vertex 1.45395 51.1837 0.5
    endloop
  endfacet
  facet normal -0.142315 -0.989821 0
    outer loop
      vertex 1.45395 51.1837 -2.5
      vertex 1.45395 51.1837 0.5
      vertex -0.498102 51.4644 0.5
    endloop
  endfacet
  facet normal -0.142315 -0.989821 0
    outer loop
      vertex -0.498102 51.4644 -2.5
      vertex 1.45395 51.1837 -2.5
      vertex -0.498102 51.4644 0.5
    endloop
  endfacet
  facet normal 0.415415 -0.909632 0
    outer loop
      vertex -0.498102 51.4644 -2.5
      vertex -0.498102 51.4644 0.5
      vertex -2.29201 50.6451 0.5
    endloop
  endfacet
  facet normal 0.415415 -0.909632 0
    outer loop
      vertex -2.29201 50.6451 -2.5
      vertex -0.498102 51.4644 -2.5
      vertex -2.29201 50.6451 0.5
    endloop
  endfacet
  facet normal 0.841254 -0.54064 0
    outer loop
      vertex -2.29201 50.6451 -2.5
      vertex -2.29201 50.6451 0.5
      vertex -3.35823 48.9861 0.5
    endloop
  endfacet
  facet normal 0.841254 -0.54064 0
    outer loop
      vertex -3.35823 48.9861 -2.5
      vertex -2.29201 50.6451 -2.5
      vertex -3.35823 48.9861 0.5
    endloop
  endfacet
  facet normal 0.755749 0.654861 0
    outer loop
      vertex 44.8163 -1.45395 0.5
      vertex 46.1078 -2.94439 0.5
      vertex 46.1078 -2.94439 -2.5
    endloop
  endfacet
  facet normal 0.755749 0.654861 0
    outer loop
      vertex 44.8163 -1.45395 -2.5
      vertex 44.8163 -1.45395 0.5
      vertex 46.1078 -2.94439 -2.5
    endloop
  endfacet
  facet normal 0.989821 0.142315 0
    outer loop
      vertex 44.5356 0.498102 0.5
      vertex 44.8163 -1.45395 0.5
      vertex 44.8163 -1.45395 -2.5
    endloop
  endfacet
  facet normal 0.989821 0.142315 0
    outer loop
      vertex 44.5356 0.498102 -2.5
      vertex 44.5356 0.498102 0.5
      vertex 44.8163 -1.45395 -2.5
    endloop
  endfacet
  facet normal 0.281733 0.959493 0
    outer loop
      vertex 48 -3.5 0.5
      vertex 48 -3.5 -2.5
      vertex 46.1078 -2.94439 0.5
    endloop
  endfacet
  facet normal 0.281733 0.959493 0
    outer loop
      vertex 46.1078 -2.94439 0.5
      vertex 48 -3.5 -2.5
      vertex 46.1078 -2.94439 -2.5
    endloop
  endfacet
  facet normal -0.281733 0.959493 0
    outer loop
      vertex 49.8922 -2.94439 0.5
      vertex 49.8922 -2.94439 -2.5
      vertex 48 -3.5 0.5
    endloop
  endfacet
  facet normal -0.281733 0.959493 0
    outer loop
      vertex 48 -3.5 0.5
      vertex 49.8922 -2.94439 -2.5
      vertex 48 -3.5 -2.5
    endloop
  endfacet
  facet normal -0.755749 0.654861 0
    outer loop
      vertex 51.1837 -1.45395 0.5
      vertex 51.1837 -1.45395 -2.5
      vertex 49.8922 -2.94439 0.5
    endloop
  endfacet
  facet normal -0.755749 0.654861 0
    outer loop
      vertex 49.8922 -2.94439 0.5
      vertex 51.1837 -1.45395 -2.5
      vertex 49.8922 -2.94439 -2.5
    endloop
  endfacet
  facet normal -0.989821 0.142315 0
    outer loop
      vertex 51.4644 0.498102 0.5
      vertex 51.4644 0.498102 -2.5
      vertex 51.1837 -1.45395 0.5
    endloop
  endfacet
  facet normal -0.989821 0.142315 0
    outer loop
      vertex 51.1837 -1.45395 0.5
      vertex 51.4644 0.498102 -2.5
      vertex 51.1837 -1.45395 -2.5
    endloop
  endfacet
  facet normal -0.909632 -0.415415 0
    outer loop
      vertex 51.4644 0.498102 0.5
      vertex 50.6451 2.29201 0.5
      vertex 51.4644 0.498102 -2.5
    endloop
  endfacet
  facet normal -0.909632 -0.415415 0
    outer loop
      vertex 51.4644 0.498102 -2.5
      vertex 50.6451 2.29201 0.5
      vertex 50.6451 2.29201 -2.5
    endloop
  endfacet
  facet normal -0.54064 -0.841254 0
    outer loop
      vertex 50.6451 2.29201 -2.5
      vertex 50.6451 2.29201 0.5
      vertex 48.9861 3.35822 0.5
    endloop
  endfacet
  facet normal -0.54064 -0.841254 0
    outer loop
      vertex 48.9861 3.35822 -2.5
      vertex 50.6451 2.29201 -2.5
      vertex 48.9861 3.35822 0.5
    endloop
  endfacet
  facet normal -1.36718e-016 -1 0
    outer loop
      vertex 48.9861 3.35822 -2.5
      vertex 48.9861 3.35822 0.5
      vertex 47.0139 3.35822 0.5
    endloop
  endfacet
  facet normal -1.36718e-016 -1 0
    outer loop
      vertex 47.0139 3.35822 -2.5
      vertex 48.9861 3.35822 -2.5
      vertex 47.0139 3.35822 0.5
    endloop
  endfacet
  facet normal 0.54064 -0.841254 0
    outer loop
      vertex 47.0139 3.35822 -2.5
      vertex 47.0139 3.35822 0.5
      vertex 45.3549 2.29201 0.5
    endloop
  endfacet
  facet normal 0.54064 -0.841254 0
    outer loop
      vertex 45.3549 2.29201 -2.5
      vertex 47.0139 3.35822 -2.5
      vertex 45.3549 2.29201 0.5
    endloop
  endfacet
  facet normal 0.909632 -0.415415 0
    outer loop
      vertex 45.3549 2.29201 -2.5
      vertex 45.3549 2.29201 0.5
      vertex 44.5356 0.498102 0.5
    endloop
  endfacet
  facet normal 0.909632 -0.415415 0
    outer loop
      vertex 44.5356 0.498102 -2.5
      vertex 45.3549 2.29201 -2.5
      vertex 44.5356 0.498102 0.5
    endloop
  endfacet
  facet normal 0 -1 0
    outer loop
      vertex -64 -32.5 -1.5
      vertex -64 -32.5 -6.5
      vertex -32.5 -32.5 -6.5
    endloop
  endfacet
  facet normal 0 -1 0
    outer loop
      vertex -32.5 -32.5 -2.5
      vertex -64 -32.5 -1.5
      vertex -32.5 -32.5 -6.5
    endloop
  endfacet
  facet normal 0 -1 0
    outer loop
      vertex -32.5 -32.5 -2.5
      vertex -32.5 -32.5 -1.5
      vertex -64 -32.5 -1.5
    endloop
  endfacet
  facet normal 0 0 -1
    outer loop
      vertex -64 -32.5 -6.5
      vertex -64 -27.5 -6.5
      vertex -32.5 -32.5 -6.5
    endloop
  endfacet
  facet normal 0 0 -1
    outer loop
      vertex -32.5 -32.5 -6.5
      vertex -64 -27.5 -6.5
      vertex -32.5 -27.5 -6.5
    endloop
  endfacet
  facet normal 0 0 -1
    outer loop
      vertex -32.5 -27.5 -6.5
      vertex -27.5 64 -6.5
      vertex -32.5 -32.5 -6.5
    endloop
  endfacet
  facet normal 0 0 -1
    outer loop
      vertex -32.5 -12.5 -6.5
      vertex -64 -12.5 -6.5
      vertex -64 -7.5 -6.5
    endloop
  endfacet
  facet normal 0 0 -1
    outer loop
      vertex -32.5 -12.5 -6.5
      vertex -64 -7.5 -6.5
      vertex -32.5 -7.5 -6.5
    endloop
  endfacet
  facet normal 0 0 -1
    outer loop
      vertex -32.5 -12.5 -6.5
      vertex -27.5 64 -6.5
      vertex -32.5 -27.5 -6.5
    endloop
  endfacet
  facet normal 0 0 -1
    outer loop
      vertex -32.5 -7.5 -6.5
      vertex -27.5 64 -6.5
      vertex -32.5 -12.5 -6.5
    endloop
  endfacet
  facet normal 0 0 -1
    outer loop
      vertex -32.5 7.5 -6.5
      vertex -64 7.5 -6.5
      vertex -64 12.5 -6.5
    endloop
  endfacet
  facet normal 0 0 -1
    outer loop
      vertex -32.5 7.5 -6.5
      vertex -64 12.5 -6.5
      vertex -32.5 12.5 -6.5
    endloop
  endfacet
  facet normal 0 0 -1
    outer loop
      vertex -32.5 7.5 -6.5
      vertex -27.5 64 -6.5
      vertex -32.5 -7.5 -6.5
    endloop
  endfacet
  facet normal 0 0 -1
    outer loop
      vertex -32.5 12.5 -6.5
      vertex -27.5 64 -6.5
      vertex -32.5 7.5 -6.5
    endloop
  endfacet
  facet normal 0 0 -1
    outer loop
      vertex -32.5 27.5 -6.5
      vertex -64 27.5 -6.5
      vertex -64 32.5 -6.5
    endloop
  endfacet
  facet normal 0 0 -1
    outer loop
      vertex -32.5 27.5 -6.5
      vertex -64 32.5 -6.5
      vertex -32.5 32.5 -6.5
    endloop
  endfacet
  facet normal 0 0 -1
    outer loop
      vertex -32.5 27.5 -6.5
      vertex -27.5 64 -6.5
      vertex -32.5 12.5 -6.5
    endloop
  endfacet
  facet normal 0 0 -1
    outer loop
      vertex -32.5 32.5 -6.5
      vertex -32.5 64 -6.5
      vertex -27.5 64 -6.5
    endloop
  endfacet
  facet normal 0 0 -1
    outer loop
      vertex -32.5 32.5 -6.5
      vertex -27.5 64 -6.5
      vertex -32.5 27.5 -6.5
    endloop
  endfacet
  facet normal 0 0 -1
    outer loop
      vertex -32.5 -32.5 -6.5
      vertex -27.5 64 -6.5
      vertex -27.5 32.5 -6.5
    endloop
  endfacet
  facet normal 0 0 -1
    outer loop
      vertex -27.5 27.5 -6.5
      vertex -27.5 32.5 -6.5
      vertex -12.5 32.5 -6.5
    endloop
  endfacet
  facet normal 0 0 -1
    outer loop
      vertex -12.5 32.5 -6.5
      vertex -12.5 64 -6.5
      vertex -7.5 64 -6.5
    endloop
  endfacet
  facet normal 0 0 -1
    outer loop
      vertex -12.5 32.5 -6.5
      vertex -7.5 64 -6.5
      vertex -7.5 32.5 -6.5
    endloop
  endfacet
  facet normal 0 0 -1
    outer loop
      vertex -7.5 -27.5 -6.5
      vertex -12.5 -27.5 -6.5
      vertex -7.5 -12.5 -6.5
    endloop
  endfacet
  facet normal 0 0 -1
    outer loop
      vertex 27.5 -7.5 -6.5
      vertex 7.5 -12.5 -6.5
      vertex 12.5 -7.5 -6.5
    endloop
  endfacet
  facet normal 0 0 -1
    outer loop
      vertex 7.5 32.5 -6.5
      vertex 7.5 64 -6.5
      vertex 12.5 64 -6.5
    endloop
  endfacet
  facet normal 0 0 -1
    outer loop
      vertex 7.5 32.5 -6.5
      vertex 12.5 64 -6.5
      vertex 12.5 32.5 -6.5
    endloop
  endfacet
  facet normal 0 0 -1
    outer loop
      vertex 27.5 32.5 -6.5
      vertex 27.5 64 -6.5
      vertex 32.5 64 -6.5
    endloop
  endfacet
  facet normal 0 0 -1
    outer loop
      vertex 27.5 32.5 -6.5
      vertex 32.5 64 -6.5
      vertex 32.5 32.5 -6.5
    endloop
  endfacet
  facet normal 0 0 -1
    outer loop
      vertex 12.5 12.5 -6.5
      vertex 7.5 7.5 -6.5
      vertex 7.5 12.5 -6.5
    endloop
  endfacet
  facet normal 0 0 -1
    outer loop
      vertex 32.5 32.5 -6.5
      vertex 64 32.5 -6.5
      vertex 32.5 27.5 -6.5
    endloop
  endfacet
  facet normal 0 0 -1
    outer loop
      vertex 32.5 32.5 -6.5
      vertex 32.5 27.5 -6.5
      vertex 27.5 27.5 -6.5
    endloop
  endfacet
  facet normal 0 0 -1
    outer loop
      vertex 7.5 -7.5 -6.5
      vertex -7.5 -12.5 -6.5
      vertex -12.5 -12.5 -6.5
    endloop
  endfacet
  facet normal 0 0 -1
    outer loop
      vertex 32.5 7.5 -6.5
      vertex 64 12.5 -6.5
      vertex 64 7.5 -6.5
    endloop
  endfacet
  facet normal 0 0 -1
    outer loop
      vertex 32.5 -7.5 -6.5
      vertex 27.5 -7.5 -6.5
      vertex 32.5 7.5 -6.5
    endloop
  endfacet
  facet normal 0 0 -1
    outer loop
      vertex -7.5 -12.5 -6.5
      vertex 12.5 -7.5 -6.5
      vertex 7.5 -12.5 -6.5
    endloop
  endfacet
  facet normal 0 0 -1
    outer loop
      vertex 32.5 -12.5 -6.5
      vertex 64 -7.5 -6.5
      vertex 64 -12.5 -6.5
    endloop
  endfacet
  facet normal 0 0 -1
    outer loop
      vertex 32.5 -12.5 -6.5
      vertex 32.5 -7.5 -6.5
      vertex 64 -7.5 -6.5
    endloop
  endfacet
  facet normal 0 0 -1
    outer loop
      vertex -7.5 -7.5 -6.5
      vertex -12.5 -12.5 -6.5
      vertex -12.5 -7.5 -6.5
    endloop
  endfacet
  facet normal 0 0 -1
    outer loop
      vertex 27.5 -12.5 -6.5
      vertex 32.5 -7.5 -6.5
      vertex 32.5 -12.5 -6.5
    endloop
  endfacet
  facet normal 0 0 -1
    outer loop
      vertex -7.5 -27.5 -6.5
      vertex -32.5 -32.5 -6.5
      vertex -12.5 -27.5 -6.5
    endloop
  endfacet
  facet normal 0 0 -1
    outer loop
      vertex -32.5 -32.5 -6.5
      vertex 32.5 -27.5 -6.5
      vertex 64 -27.5 -6.5
    endloop
  endfacet
  facet normal 0 0 -1
    outer loop
      vertex 32.5 -32.5 -6.5
      vertex 64 -27.5 -6.5
      vertex 64 -32.5 -6.5
    endloop
  endfacet
  facet normal 0 0 -1
    outer loop
      vertex -32.5 -32.5 -6.5
      vertex 64 -27.5 -6.5
      vertex -27.5 -32.5 -6.5
    endloop
  endfacet
  facet normal 0 0 -1
    outer loop
      vertex 32.5 27.5 -6.5
      vertex 64 32.5 -6.5
      vertex 64 27.5 -6.5
    endloop
  endfacet
  facet normal 0 0 -1
    outer loop
      vertex 12.5 27.5 -6.5
      vertex 27.5 32.5 -6.5
      vertex 27.5 27.5 -6.5
    endloop
  endfacet
  facet normal 0 0 -1
    outer loop
      vertex 32.5 -32.5 -6.5
      vertex 32.5 -64 -6.5
      vertex 27.5 -32.5 -6.5
    endloop
  endfacet
  facet normal 0 0 -1
    outer loop
      vertex 32.5 -32.5 -6.5
      vertex 27.5 -32.5 -6.5
      vertex 64 -27.5 -6.5
    endloop
  endfacet
  facet normal 0 0 -1
    outer loop
      vertex 27.5 -32.5 -6.5
      vertex 12.5 -32.5 -6.5
      vertex 64 -27.5 -6.5
    endloop
  endfacet
  facet normal 0 0 -1
    outer loop
      vertex -7.5 -64 -6.5
      vertex -12.5 -32.5 -6.5
      vertex -7.5 -32.5 -6.5
    endloop
  endfacet
  facet normal 0 0 -1
    outer loop
      vertex 12.5 -32.5 -6.5
      vertex 7.5 -32.5 -6.5
      vertex 64 -27.5 -6.5
    endloop
  endfacet
  facet normal 0 0 -1
    outer loop
      vertex -27.5 -64 -6.5
      vertex -32.5 -32.5 -6.5
      vertex -27.5 -32.5 -6.5
    endloop
  endfacet
  facet normal 0 0 -1
    outer loop
      vertex 7.5 -32.5 -6.5
      vertex -7.5 -32.5 -6.5
      vertex 64 -27.5 -6.5
    endloop
  endfacet
  facet normal 0 0 -1
    outer loop
      vertex 32.5 -27.5 -6.5
      vertex 27.5 -27.5 -6.5
      vertex 32.5 -12.5 -6.5
    endloop
  endfacet
  facet normal 0 0 -1
    outer loop
      vertex -7.5 -32.5 -6.5
      vertex -12.5 -32.5 -6.5
      vertex 64 -27.5 -6.5
    endloop
  endfacet
  facet normal 0 0 -1
    outer loop
      vertex 12.5 -64 -6.5
      vertex 7.5 -32.5 -6.5
      vertex 12.5 -32.5 -6.5
    endloop
  endfacet
  facet normal 0 0 -1
    outer loop
      vertex -12.5 -32.5 -6.5
      vertex -27.5 -32.5 -6.5
      vertex 64 -27.5 -6.5
    endloop
  endfacet
  facet normal 0 0 -1
    outer loop
      vertex -7.5 -7.5 -6.5
      vertex -12.5 -7.5 -6.5
      vertex -7.5 7.5 -6.5
    endloop
  endfacet
  facet normal 0 0 -1
    outer loop
      vertex -12.5 -7.5 -6.5
      vertex -27.5 -12.5 -6.5
      vertex -27.5 -7.5 -6.5
    endloop
  endfacet
  facet normal 0 0 -1
    outer loop
      vertex -12.5 -27.5 -6.5
      vertex -32.5 -32.5 -6.5
      vertex -27.5 -27.5 -6.5
    endloop
  endfacet
  facet normal 0 0 -1
    outer loop
      vertex -12.5 12.5 -6.5
      vertex -27.5 7.5 -6.5
      vertex -27.5 12.5 -6.5
    endloop
  endfacet
  facet normal 0 0 -1
    outer loop
      vertex -12.5 7.5 -6.5
      vertex -7.5 12.5 -6.5
      vertex -7.5 7.5 -6.5
    endloop
  endfacet
  facet normal 0 0 -1
    outer loop
      vertex -32.5 -32.5 -6.5
      vertex -27.5 7.5 -6.5
      vertex -27.5 -7.5 -6.5
    endloop
  endfacet
  facet normal 0 0 -1
    outer loop
      vertex -32.5 -32.5 -6.5
      vertex -27.5 -7.5 -6.5
      vertex -27.5 -12.5 -6.5
    endloop
  endfacet
  facet normal 0 0 -1
    outer loop
      vertex 7.5 12.5 -6.5
      vertex -7.5 7.5 -6.5
      vertex -7.5 12.5 -6.5
    endloop
  endfacet
  facet normal 0 0 -1
    outer loop
      vertex 12.5 -27.5 -6.5
      vertex 7.5 -27.5 -6.5
      vertex 12.5 -12.5 -6.5
    endloop
  endfacet
  facet normal 0 0 -1
    outer loop
      vertex -32.5 -32.5 -6.5
      vertex -27.5 32.5 -6.5
      vertex -27.5 27.5 -6.5
    endloop
  endfacet
  facet normal 0 0 -1
    outer loop
      vertex -12.5 27.5 -6.5
      vertex -7.5 32.5 -6.5
      vertex -12.5 12.5 -6.5
    endloop
  endfacet
  facet normal 0 0 -1
    outer loop
      vertex -32.5 -32.5 -6.5
      vertex -27.5 27.5 -6.5
      vertex -27.5 12.5 -6.5
    endloop
  endfacet
  facet normal 0 0 -1
    outer loop
      vertex -32.5 -32.5 -6.5
      vertex -27.5 12.5 -6.5
      vertex -27.5 7.5 -6.5
    endloop
  endfacet
  facet normal 0 0 -1
    outer loop
      vertex -7.5 32.5 -6.5
      vertex -12.5 7.5 -6.5
      vertex -12.5 12.5 -6.5
    endloop
  endfacet
  facet normal 0 0 -1
    outer loop
      vertex -27.5 7.5 -6.5
      vertex -12.5 12.5 -6.5
      vertex -12.5 7.5 -6.5
    endloop
  endfacet
  facet normal 0 0 -1
    outer loop
      vertex -12.5 32.5 -6.5
      vertex -7.5 32.5 -6.5
      vertex -12.5 27.5 -6.5
    endloop
  endfacet
  facet normal 0 0 -1
    outer loop
      vertex -7.5 7.5 -6.5
      vertex 7.5 12.5 -6.5
      vertex 7.5 7.5 -6.5
    endloop
  endfacet
  facet normal 0 0 -1
    outer loop
      vertex 27.5 12.5 -6.5
      vertex 32.5 12.5 -6.5
      vertex 12.5 7.5 -6.5
    endloop
  endfacet
  facet normal 0 0 -1
    outer loop
      vertex -12.5 -12.5 -6.5
      vertex -7.5 -12.5 -6.5
      vertex -12.5 -27.5 -6.5
    endloop
  endfacet
  facet normal 0 0 -1
    outer loop
      vertex 7.5 -7.5 -6.5
      vertex -12.5 -12.5 -6.5
      vertex -7.5 -7.5 -6.5
    endloop
  endfacet
  facet normal 0 0 -1
    outer loop
      vertex -7.5 -27.5 -6.5
      vertex 7.5 -27.5 -6.5
      vertex -32.5 -32.5 -6.5
    endloop
  endfacet
  facet normal 0 0 -1
    outer loop
      vertex 27.5 -7.5 -6.5
      vertex 12.5 -12.5 -6.5
      vertex 7.5 -12.5 -6.5
    endloop
  endfacet
  facet normal 0 0 -1
    outer loop
      vertex 12.5 -7.5 -6.5
      vertex 7.5 -7.5 -6.5
      vertex 12.5 7.5 -6.5
    endloop
  endfacet
  facet normal 0 0 -1
    outer loop
      vertex -7.5 27.5 -6.5
      vertex 7.5 32.5 -6.5
      vertex 7.5 27.5 -6.5
    endloop
  endfacet
  facet normal 0 0 -1
    outer loop
      vertex 64 12.5 -6.5
      vertex 27.5 7.5 -6.5
      vertex 32.5 12.5 -6.5
    endloop
  endfacet
  facet normal 0 0 -1
    outer loop
      vertex 27.5 -12.5 -6.5
      vertex 32.5 -12.5 -6.5
      vertex 27.5 -27.5 -6.5
    endloop
  endfacet
  facet normal 0 0 -1
    outer loop
      vertex -7.5 32.5 -6.5
      vertex 7.5 32.5 -6.5
      vertex -7.5 27.5 -6.5
    endloop
  endfacet
  facet normal 0 0 -1
    outer loop
      vertex -7.5 32.5 -6.5
      vertex -7.5 27.5 -6.5
      vertex -12.5 7.5 -6.5
    endloop
  endfacet
  facet normal 0 0 -1
    outer loop
      vertex 7.5 27.5 -6.5
      vertex 12.5 32.5 -6.5
      vertex 7.5 12.5 -6.5
    endloop
  endfacet
  facet normal 0 0 -1
    outer loop
      vertex 12.5 12.5 -6.5
      vertex 7.5 12.5 -6.5
      vertex 12.5 27.5 -6.5
    endloop
  endfacet
  facet normal 0 0 -1
    outer loop
      vertex 7.5 32.5 -6.5
      vertex 12.5 32.5 -6.5
      vertex 7.5 27.5 -6.5
    endloop
  endfacet
  facet normal 0 0 -1
    outer loop
      vertex 27.5 12.5 -6.5
      vertex 7.5 7.5 -6.5
      vertex 12.5 12.5 -6.5
    endloop
  endfacet
  facet normal 0 0 -1
    outer loop
      vertex 27.5 7.5 -6.5
      vertex 32.5 7.5 -6.5
      vertex 27.5 -7.5 -6.5
    endloop
  endfacet
  facet normal 0 0 -1
    outer loop
      vertex -32.5 -32.5 -6.5
      vertex 7.5 -27.5 -6.5
      vertex 12.5 -27.5 -6.5
    endloop
  endfacet
  facet normal 0 0 -1
    outer loop
      vertex 27.5 -32.5 -6.5
      vertex 32.5 -64 -6.5
      vertex 27.5 -64 -6.5
    endloop
  endfacet
  facet normal 0 0 -1
    outer loop
      vertex -32.5 -32.5 -6.5
      vertex 12.5 -27.5 -6.5
      vertex 27.5 -27.5 -6.5
    endloop
  endfacet
  facet normal 0 0 -1
    outer loop
      vertex -32.5 -32.5 -6.5
      vertex 27.5 -27.5 -6.5
      vertex 32.5 -27.5 -6.5
    endloop
  endfacet
  facet normal 0 0 -1
    outer loop
      vertex 12.5 7.5 -6.5
      vertex 32.5 12.5 -6.5
      vertex 27.5 7.5 -6.5
    endloop
  endfacet
  facet normal 0 0 -1
    outer loop
      vertex 7.5 7.5 -6.5
      vertex 12.5 7.5 -6.5
      vertex 7.5 -7.5 -6.5
    endloop
  endfacet
  facet normal 0 0 -1
    outer loop
      vertex 27.5 12.5 -6.5
      vertex 12.5 7.5 -6.5
      vertex 7.5 7.5 -6.5
    endloop
  endfacet
  facet normal 0 0 -1
    outer loop
      vertex 12.5 -12.5 -6.5
      vertex 32.5 -7.5 -6.5
      vertex 27.5 -12.5 -6.5
    endloop
  endfacet
  facet normal 0 0 -1
    outer loop
      vertex 12.5 -12.5 -6.5
      vertex 27.5 -7.5 -6.5
      vertex 32.5 -7.5 -6.5
    endloop
  endfacet
  facet normal 0 0 -1
    outer loop
      vertex -7.5 -12.5 -6.5
      vertex 7.5 -7.5 -6.5
      vertex 12.5 -7.5 -6.5
    endloop
  endfacet
  facet normal 0 0 -1
    outer loop
      vertex 64 12.5 -6.5
      vertex 32.5 7.5 -6.5
      vertex 27.5 7.5 -6.5
    endloop
  endfacet
  facet normal 0 0 -1
    outer loop
      vertex 7.5 -12.5 -6.5
      vertex 12.5 -12.5 -6.5
      vertex 7.5 -27.5 -6.5
    endloop
  endfacet
  facet normal 0 0 -1
    outer loop
      vertex 12.5 32.5 -6.5
      vertex 27.5 32.5 -6.5
      vertex 12.5 27.5 -6.5
    endloop
  endfacet
  facet normal 0 0 -1
    outer loop
      vertex 12.5 32.5 -6.5
      vertex 12.5 27.5 -6.5
      vertex 7.5 12.5 -6.5
    endloop
  endfacet
  facet normal 0 0 -1
    outer loop
      vertex 32.5 27.5 -6.5
      vertex 32.5 12.5 -6.5
      vertex 27.5 12.5 -6.5
    endloop
  endfacet
  facet normal 0 0 -1
    outer loop
      vertex 27.5 27.5 -6.5
      vertex 32.5 27.5 -6.5
      vertex 27.5 12.5 -6.5
    endloop
  endfacet
  facet normal 0 0 -1
    outer loop
      vertex 27.5 32.5 -6.5
      vertex 32.5 32.5 -6.5
      vertex 27.5 27.5 -6.5
    endloop
  endfacet
  facet normal 0 0 -1
    outer loop
      vertex 7.5 -32.5 -6.5
      vertex 12.5 -64 -6.5
      vertex 7.5 -64 -6.5
    endloop
  endfacet
  facet normal 0 0 -1
    outer loop
      vertex -12.5 -32.5 -6.5
      vertex -7.5 -64 -6.5
      vertex -12.5 -64 -6.5
    endloop
  endfacet
  facet normal 0 0 -1
    outer loop
      vertex -27.5 27.5 -6.5
      vertex -12.5 32.5 -6.5
      vertex -12.5 27.5 -6.5
    endloop
  endfacet
  facet normal 0 0 -1
    outer loop
      vertex -32.5 -32.5 -6.5
      vertex -27.5 -64 -6.5
      vertex -32.5 -64 -6.5
    endloop
  endfacet
  facet normal 0 0 -1
    outer loop
      vertex -12.5 7.5 -6.5
      vertex -7.5 7.5 -6.5
      vertex -12.5 -7.5 -6.5
    endloop
  endfacet
  facet normal 0 0 -1
    outer loop
      vertex -7.5 12.5 -6.5
      vertex -12.5 7.5 -6.5
      vertex -7.5 27.5 -6.5
    endloop
  endfacet
  facet normal 0 0 -1
    outer loop
      vertex -27.5 -12.5 -6.5
      vertex -12.5 -7.5 -6.5
      vertex -12.5 -12.5 -6.5
    endloop
  endfacet
  facet normal 0 0 -1
    outer loop
      vertex -27.5 -27.5 -6.5
      vertex -32.5 -32.5 -6.5
      vertex -27.5 -12.5 -6.5
    endloop
  endfacet
  facet normal -1 0 0
    outer loop
      vertex -64 7.5 -6.5
      vertex -64 7.5 -1.5
      vertex -64 12.5 -6.5
    endloop
  endfacet
  facet normal -1 0 0
    outer loop
      vertex -64 12.5 -6.5
      vertex -64 7.5 -1.5
      vertex -64 12.5 -1.5
    endloop
  endfacet
  facet normal -1 0 0
    outer loop
      vertex -32.5 12.5 -6.5
      vertex -32.5 12.5 -2.5
      vertex -32.5 27.5 -6.5
    endloop
  endfacet
  facet normal -1 0 0
    outer loop
      vertex -32.5 27.5 -6.5
      vertex -32.5 12.5 -2.5
      vertex -32.5 27.5 -2.5
    endloop
  endfacet
  facet normal -1 0 0
    outer loop
      vertex -64 27.5 -6.5
      vertex -64 27.5 -1.5
      vertex -64 32.5 -6.5
    endloop
  endfacet
  facet normal -1 0 0
    outer loop
      vertex -64 32.5 -6.5
      vertex -64 27.5 -1.5
      vertex -64 32.5 -1.5
    endloop
  endfacet
  facet normal 1 0 0
    outer loop
      vertex -27.5 32.5 -2.5
      vertex -27.5 32.5 -6.5
      vertex -27.5 64 -6.5
    endloop
  endfacet
  facet normal 1 0 0
    outer loop
      vertex -27.5 64 -2.5
      vertex -27.5 32.5 -2.5
      vertex -27.5 64 -6.5
    endloop
  endfacet
  facet normal 0 0 -1
    outer loop
      vertex 2.94439 46.1078 -2.5
      vertex 7.5 32.5 -2.5
      vertex 1.45395 44.8163 -2.5
    endloop
  endfacet
  facet normal 0 0 -1
    outer loop
      vertex -27.5 64 -2.5
      vertex -32.5 64 -2.5
      vertex -12.5 64 -2.5
    endloop
  endfacet
  facet normal 0 0 -1
    outer loop
      vertex 1.5675e-014 64 -2.5
      vertex 7.5 64 -2.5
      vertex 7.5 32.5 -2.5
    endloop
  endfacet
  facet normal 0 0 -1
    outer loop
      vertex 1.5675e-014 64 -2.5
      vertex -7.5 64 -2.5
      vertex -32.5 64 -2.5
    endloop
  endfacet
  facet normal 0 0 -1
    outer loop
      vertex -7.5 64 -2.5
      vertex -12.5 64 -2.5
      vertex -32.5 64 -2.5
    endloop
  endfacet
  facet normal 0 0 -1
    outer loop
      vertex -7.5 64 -2.5
      vertex -2.29201 50.6451 -2.5
      vertex -3.35823 48.9861 -2.5
    endloop
  endfacet
  facet normal 0 0 -1
    outer loop
      vertex -7.5 64 -2.5
      vertex -3.35823 48.9861 -2.5
      vertex -3.35823 47.0139 -2.5
    endloop
  endfacet
  facet normal 0 0 -1
    outer loop
      vertex 1.45395 44.8163 -2.5
      vertex 7.5 32.5 -2.5
      vertex -0.498102 44.5356 -2.5
    endloop
  endfacet
  facet normal 0 0 -1
    outer loop
      vertex 3.5 48 -2.5
      vertex 7.5 32.5 -2.5
      vertex 2.94439 46.1078 -2.5
    endloop
  endfacet
  facet normal 0 0 -1
    outer loop
      vertex 1.5675e-014 64 -2.5
      vertex 7.5 32.5 -2.5
      vertex 3.5 48 -2.5
    endloop
  endfacet
  facet normal 0 0 -1
    outer loop
      vertex 1.5675e-014 64 -2.5
      vertex 3.5 48 -2.5
      vertex 2.94439 49.8922 -2.5
    endloop
  endfacet
  facet normal 0 0 -1
    outer loop
      vertex -0.498102 51.4644 -2.5
      vertex -7.5 64 -2.5
      vertex 1.45395 51.1837 -2.5
    endloop
  endfacet
  facet normal 0 0 -1
    outer loop
      vertex 1.5675e-014 64 -2.5
      vertex 1.45395 51.1837 -2.5
      vertex -7.5 64 -2.5
    endloop
  endfacet
  facet normal 0 0 -1
    outer loop
      vertex 1.45395 51.1837 -2.5
      vertex 1.5675e-014 64 -2.5
      vertex 2.94439 49.8922 -2.5
    endloop
  endfacet
  facet normal 0 0 -1
    outer loop
      vertex -2.29201 50.6451 -2.5
      vertex -7.5 64 -2.5
      vertex -0.498102 51.4644 -2.5
    endloop
  endfacet
  facet normal 0 0 -1
    outer loop
      vertex -12.5 32.5 -2.5
      vertex -27.5 64 -2.5
      vertex -12.5 64 -2.5
    endloop
  endfacet
  facet normal 0 0 -1
    outer loop
      vertex -0.498102 44.5356 -2.5
      vertex 7.5 32.5 -2.5
      vertex -2.29201 45.3549 -2.5
    endloop
  endfacet
  facet normal 0 0 -1
    outer loop
      vertex -27.5 64 -2.5
      vertex -12.5 32.5 -2.5
      vertex -27.5 32.5 -2.5
    endloop
  endfacet
  facet normal 0 0 -1
    outer loop
      vertex -2.29201 45.3549 -2.5
      vertex 7.5 32.5 -2.5
      vertex -7.5 32.5 -2.5
    endloop
  endfacet
  facet normal 0 0 -1
    outer loop
      vertex -3.35823 47.0139 -2.5
      vertex -2.29201 45.3549 -2.5
      vertex -7.5 32.5 -2.5
    endloop
  endfacet
  facet normal 0 0 -1
    outer loop
      vertex -7.5 64 -2.5
      vertex -3.35823 47.0139 -2.5
      vertex -7.5 32.5 -2.5
    endloop
  endfacet
  facet normal -1 0 0
    outer loop
      vertex 7.5 32.5 -6.5
      vertex 7.5 32.5 -2.5
      vertex 7.5 64 -6.5
    endloop
  endfacet
  facet normal -1 0 0
    outer loop
      vertex 7.5 64 -6.5
      vertex 7.5 32.5 -2.5
      vertex 7.5 64 -2.5
    endloop
  endfacet
  facet normal 1 0 0
    outer loop
      vertex 12.5 32.5 -2.5
      vertex 12.5 32.5 -6.5
      vertex 12.5 64 -6.5
    endloop
  endfacet
  facet normal 1 0 0
    outer loop
      vertex 12.5 64 -2.5
      vertex 12.5 32.5 -2.5
      vertex 12.5 64 -6.5
    endloop
  endfacet
  facet normal 0 0 -1
    outer loop
      vertex 12.5 32.5 -2.5
      vertex 12.5 64 -2.5
      vertex 27.5 32.5 -2.5
    endloop
  endfacet
  facet normal 0 0 -1
    outer loop
      vertex 27.5 32.5 -2.5
      vertex 12.5 64 -2.5
      vertex 27.5 64 -2.5
    endloop
  endfacet
  facet normal -1 0 0
    outer loop
      vertex 27.5 32.5 -6.5
      vertex 27.5 32.5 -2.5
      vertex 27.5 64 -6.5
    endloop
  endfacet
  facet normal -1 0 0
    outer loop
      vertex 27.5 64 -6.5
      vertex 27.5 32.5 -2.5
      vertex 27.5 64 -2.5
    endloop
  endfacet
  facet normal 0 1 0
    outer loop
      vertex 32.5 32.5 -6.5
      vertex 32.5 32.5 -2.5
      vertex 64 32.5 -6.5
    endloop
  endfacet
  facet normal 0 1 0
    outer loop
      vertex 64 32.5 -6.5
      vertex 32.5 32.5 -2.5
      vertex 32.5 32.5 -1.5
    endloop
  endfacet
  facet normal 0 1 0
    outer loop
      vertex 64 32.5 -6.5
      vertex 32.5 32.5 -1.5
      vertex 64 32.5 -1.5
    endloop
  endfacet
  facet normal 1 0 0
    outer loop
      vertex 64 27.5 -2.5
      vertex 64 27.5 -6.5
      vertex 64 32.5 -6.5
    endloop
  endfacet
  facet normal 1 0 0
    outer loop
      vertex 64 32.5 -2.5
      vertex 64 27.5 -2.5
      vertex 64 32.5 -6.5
    endloop
  endfacet
  facet normal 1 0 0
    outer loop
      vertex 64 32.5 -1.5
      vertex 64 32.5 -2.5
      vertex 64 32.5 -6.5
    endloop
  endfacet
  facet normal 0 0 -1
    outer loop
      vertex 48.9861 3.35822 -2.5
      vertex 32.5 7.5 -2.5
      vertex 64 7.5 -2.5
    endloop
  endfacet
  facet normal 0 0 -1
    outer loop
      vertex 64 7.5 -2.5
      vertex 64 32.5 -2.5
      vertex 64 -7.5 -2.5
    endloop
  endfacet
  facet normal 0 0 -1
    outer loop
      vertex 64 12.5 -2.5
      vertex 32.5 12.5 -2.5
      vertex 32.5 27.5 -2.5
    endloop
  endfacet
  facet normal 0 0 -1
    outer loop
      vertex 64 12.5 -2.5
      vertex 32.5 27.5 -2.5
      vertex 64 27.5 -2.5
    endloop
  endfacet
  facet normal 0 0 -1
    outer loop
      vertex 64 12.5 -2.5
      vertex 64 32.5 -2.5
      vertex 64 7.5 -2.5
    endloop
  endfacet
  facet normal 0 0 -1
    outer loop
      vertex 64 27.5 -2.5
      vertex 64 32.5 -2.5
      vertex 64 12.5 -2.5
    endloop
  endfacet
  facet normal 0 0 -1
    outer loop
      vertex 32.5 -7.5 -2.5
      vertex 32.5 7.5 -2.5
      vertex 44.5356 0.498102 -2.5
    endloop
  endfacet
  facet normal 0 0 -1
    outer loop
      vertex 32.5 -7.5 -2.5
      vertex 44.5356 0.498102 -2.5
      vertex 44.8163 -1.45395 -2.5
    endloop
  endfacet
  facet normal 0 0 -1
    outer loop
      vertex 32.5 -7.5 -2.5
      vertex 44.8163 -1.45395 -2.5
      vertex 46.1078 -2.94439 -2.5
    endloop
  endfacet
  facet normal 0 0 -1
    outer loop
      vertex 32.5 -7.5 -2.5
      vertex 46.1078 -2.94439 -2.5
      vertex 48 -3.5 -2.5
    endloop
  endfacet
  facet normal 0 0 -1
    outer loop
      vertex 32.5 -7.5 -2.5
      vertex 48 -3.5 -2.5
      vertex 64 -7.5 -2.5
    endloop
  endfacet
  facet normal 0 0 -1
    outer loop
      vertex 51.1837 -1.45395 -2.5
      vertex 64 -7.5 -2.5
      vertex 49.8922 -2.94439 -2.5
    endloop
  endfacet
  facet normal 0 0 -1
    outer loop
      vertex 49.8922 -2.94439 -2.5
      vertex 64 -7.5 -2.5
      vertex 48 -3.5 -2.5
    endloop
  endfacet
  facet normal 0 0 -1
    outer loop
      vertex 51.4644 0.498102 -2.5
      vertex 64 -7.5 -2.5
      vertex 51.1837 -1.45395 -2.5
    endloop
  endfacet
  facet normal 0 0 -1
    outer loop
      vertex 64 -7.5 -2.5
      vertex 51.4644 0.498102 -2.5
      vertex 64 7.5 -2.5
    endloop
  endfacet
  facet normal 0 0 -1
    outer loop
      vertex 51.4644 0.498102 -2.5
      vertex 50.6451 2.29201 -2.5
      vertex 64 7.5 -2.5
    endloop
  endfacet
  facet normal 0 0 -1
    outer loop
      vertex 47.0139 3.35822 -2.5
      vertex 32.5 7.5 -2.5
      vertex 48.9861 3.35822 -2.5
    endloop
  endfacet
  facet normal 0 0 -1
    outer loop
      vertex 50.6451 2.29201 -2.5
      vertex 48.9861 3.35822 -2.5
      vertex 64 7.5 -2.5
    endloop
  endfacet
  facet normal 0 0 -1
    outer loop
      vertex 45.3549 2.29201 -2.5
      vertex 32.5 7.5 -2.5
      vertex 47.0139 3.35822 -2.5
    endloop
  endfacet
  facet normal 0 0 -1
    outer loop
      vertex 44.5356 0.498102 -2.5
      vertex 32.5 7.5 -2.5
      vertex 45.3549 2.29201 -2.5
    endloop
  endfacet
  facet normal 0 1 0
    outer loop
      vertex 32.5 -7.5 -6.5
      vertex 32.5 -7.5 -2.5
      vertex 64 -7.5 -6.5
    endloop
  endfacet
  facet normal 0 1 0
    outer loop
      vertex 64 -7.5 -6.5
      vertex 32.5 -7.5 -2.5
      vertex 64 -7.5 -2.5
    endloop
  endfacet
  facet normal 0 1 0
    outer loop
      vertex 64 -7.5 -6.5
      vertex 64 -7.5 -2.5
      vertex 64 -7.5 -1.5
    endloop
  endfacet
  facet normal 0 -1 0
    outer loop
      vertex 32.5 -12.5 -2.5
      vertex 32.5 -12.5 -6.5
      vertex 64 -12.5 -6.5
    endloop
  endfacet
  facet normal 0 -1 0
    outer loop
      vertex 64 -12.5 -2.5
      vertex 32.5 -12.5 -2.5
      vertex 64 -12.5 -6.5
    endloop
  endfacet
  facet normal 0 -1 0
    outer loop
      vertex 64 -12.5 -1.5
      vertex 64 -12.5 -2.5
      vertex 64 -12.5 -6.5
    endloop
  endfacet
  facet normal 0 0 -1
    outer loop
      vertex 32.5 -27.5 -2.5
      vertex 32.5 -12.5 -2.5
      vertex 64 -27.5 -2.5
    endloop
  endfacet
  facet normal 0 0 -1
    outer loop
      vertex 64 -27.5 -2.5
      vertex 32.5 -12.5 -2.5
      vertex 64 -12.5 -2.5
    endloop
  endfacet
  facet normal 0 1 0
    outer loop
      vertex 32.5 -27.5 -6.5
      vertex 32.5 -27.5 -2.5
      vertex 64 -27.5 -6.5
    endloop
  endfacet
  facet normal 0 1 0
    outer loop
      vertex 64 -27.5 -6.5
      vertex 32.5 -27.5 -2.5
      vertex 64 -27.5 -2.5
    endloop
  endfacet
  facet normal 0 1 0
    outer loop
      vertex 64 -27.5 -6.5
      vertex 64 -27.5 -2.5
      vertex 64 -27.5 -1.5
    endloop
  endfacet
  facet normal 0 -1 0
    outer loop
      vertex 32.5 -32.5 -2.5
      vertex 32.5 -32.5 -6.5
      vertex 64 -32.5 -6.5
    endloop
  endfacet
  facet normal 0 -1 0
    outer loop
      vertex 64 -32.5 -2.5
      vertex 32.5 -32.5 -2.5
      vertex 64 -32.5 -6.5
    endloop
  endfacet
  facet normal 0 -1 0
    outer loop
      vertex 64 -32.5 -1.5
      vertex 64 -32.5 -2.5
      vertex 64 -32.5 -6.5
    endloop
  endfacet
  facet normal 1 0 0
    outer loop
      vertex 32.5 -64 -1.5
      vertex 32.5 -64 -6.5
      vertex 32.5 -32.5 -6.5
    endloop
  endfacet
  facet normal 1 0 0
    outer loop
      vertex 32.5 -32.5 -2.5
      vertex 32.5 -64 -1.5
      vertex 32.5 -32.5 -6.5
    endloop
  endfacet
  facet normal 1 0 0
    outer loop
      vertex 32.5 -32.5 -2.5
      vertex 32.5 -32.5 -1.5
      vertex 32.5 -64 -1.5
    endloop
  endfacet
  facet normal 0 -1 0
    outer loop
      vertex 27.5 -64 -2.5
      vertex 27.5 -64 -6.5
      vertex 32.5 -64 -6.5
    endloop
  endfacet
  facet normal 0 -1 0
    outer loop
      vertex 32.5 -64 -2.5
      vertex 27.5 -64 -2.5
      vertex 32.5 -64 -6.5
    endloop
  endfacet
  facet normal 0 -1 0
    outer loop
      vertex 32.5 -64 -1.5
      vertex 32.5 -64 -2.5
      vertex 32.5 -64 -6.5
    endloop
  endfacet
  facet normal 0 0 -1
    outer loop
      vertex -7.5 -64 -2.5
      vertex 7.5 -64 -2.5
      vertex 32.5 -64 -2.5
    endloop
  endfacet
  facet normal 0 0 -1
    outer loop
      vertex 12.5 -32.5 -2.5
      vertex 27.5 -64 -2.5
      vertex 12.5 -64 -2.5
    endloop
  endfacet
  facet normal 0 0 -1
    outer loop
      vertex 7.5 -64 -2.5
      vertex 12.5 -64 -2.5
      vertex 32.5 -64 -2.5
    endloop
  endfacet
  facet normal 0 0 -1
    outer loop
      vertex 27.5 -64 -2.5
      vertex 12.5 -32.5 -2.5
      vertex 27.5 -32.5 -2.5
    endloop
  endfacet
  facet normal 0 0 -1
    outer loop
      vertex 12.5 -64 -2.5
      vertex 27.5 -64 -2.5
      vertex 32.5 -64 -2.5
    endloop
  endfacet
  facet normal 0 0 -1
    outer loop
      vertex 0.498102 -51.4644 -2.5
      vertex 7.5 -64 -2.5
      vertex -1.45395 -51.1837 -2.5
    endloop
  endfacet
  facet normal 0 0 -1
    outer loop
      vertex -7.5 -64 -2.5
      vertex -7.5 -32.5 -2.5
      vertex -3.5 -48 -2.5
    endloop
  endfacet
  facet normal 0 0 -1
    outer loop
      vertex -7.5 -64 -2.5
      vertex -3.5 -48 -2.5
      vertex -2.94439 -49.8922 -2.5
    endloop
  endfacet
  facet normal 0 0 -1
    outer loop
      vertex -7.5 -64 -2.5
      vertex -2.94439 -49.8922 -2.5
      vertex 7.5 -64 -2.5
    endloop
  endfacet
  facet normal 0 0 -1
    outer loop
      vertex -2.94439 -49.8922 -2.5
      vertex -1.45395 -51.1837 -2.5
      vertex 7.5 -64 -2.5
    endloop
  endfacet
  facet normal 0 0 -1
    outer loop
      vertex 2.29201 -50.6451 -2.5
      vertex 7.5 -64 -2.5
      vertex 0.498102 -51.4644 -2.5
    endloop
  endfacet
  facet normal 0 0 -1
    outer loop
      vertex -2.94439 -46.1078 -2.5
      vertex -7.5 -32.5 -2.5
      vertex -1.45395 -44.8163 -2.5
    endloop
  endfacet
  facet normal 0 0 -1
    outer loop
      vertex -1.45395 -44.8163 -2.5
      vertex -7.5 -32.5 -2.5
      vertex 0.498102 -44.5356 -2.5
    endloop
  endfacet
  facet normal 0 0 -1
    outer loop
      vertex 0.498102 -44.5356 -2.5
      vertex -7.5 -32.5 -2.5
      vertex 2.29201 -45.3549 -2.5
    endloop
  endfacet
  facet normal 0 0 -1
    outer loop
      vertex -3.5 -48 -2.5
      vertex -7.5 -32.5 -2.5
      vertex -2.94439 -46.1078 -2.5
    endloop
  endfacet
  facet normal 0 0 -1
    outer loop
      vertex 7.5 -64 -2.5
      vertex 2.29201 -50.6451 -2.5
      vertex 3.35822 -48.9861 -2.5
    endloop
  endfacet
  facet normal 0 0 -1
    outer loop
      vertex 7.5 -64 -2.5
      vertex 3.35822 -48.9861 -2.5
      vertex 3.35822 -47.0139 -2.5
    endloop
  endfacet
  facet normal 0 0 -1
    outer loop
      vertex 2.29201 -45.3549 -2.5
      vertex -7.5 -32.5 -2.5
      vertex 7.5 -32.5 -2.5
    endloop
  endfacet
  facet normal 0 0 -1
    outer loop
      vertex 3.35822 -47.0139 -2.5
      vertex 2.29201 -45.3549 -2.5
      vertex 7.5 -32.5 -2.5
    endloop
  endfacet
  facet normal 0 0 -1
    outer loop
      vertex 7.5 -64 -2.5
      vertex 3.35822 -47.0139 -2.5
      vertex 7.5 -32.5 -2.5
    endloop
  endfacet
  facet normal 1 0 0
    outer loop
      vertex -7.5 -64 -2.5
      vertex -7.5 -64 -6.5
      vertex -7.5 -32.5 -6.5
    endloop
  endfacet
  facet normal 1 0 0
    outer loop
      vertex -7.5 -64 -1.5
      vertex -7.5 -64 -6.5
      vertex -7.5 -64 -2.5
    endloop
  endfacet
  facet normal 1 0 0
    outer loop
      vertex -7.5 -32.5 -2.5
      vertex -7.5 -64 -2.5
      vertex -7.5 -32.5 -6.5
    endloop
  endfacet
  facet normal -1 0 0
    outer loop
      vertex -12.5 -32.5 -2.5
      vertex -12.5 -32.5 -6.5
      vertex -12.5 -64 -2.5
    endloop
  endfacet
  facet normal -1 0 0
    outer loop
      vertex -12.5 -64 -6.5
      vertex -12.5 -64 -1.5
      vertex -12.5 -64 -2.5
    endloop
  endfacet
  facet normal -1 0 0
    outer loop
      vertex -12.5 -64 -6.5
      vertex -12.5 -64 -2.5
      vertex -12.5 -32.5 -6.5
    endloop
  endfacet
  facet normal 0 0 -1
    outer loop
      vertex -27.5 -64 -2.5
      vertex -27.5 -32.5 -2.5
      vertex -12.5 -64 -2.5
    endloop
  endfacet
  facet normal 0 0 -1
    outer loop
      vertex -12.5 -64 -2.5
      vertex -27.5 -32.5 -2.5
      vertex -12.5 -32.5 -2.5
    endloop
  endfacet
  facet normal 1 0 0
    outer loop
      vertex -27.5 -64 -2.5
      vertex -27.5 -64 -6.5
      vertex -27.5 -32.5 -6.5
    endloop
  endfacet
  facet normal 1 0 0
    outer loop
      vertex -27.5 -64 -1.5
      vertex -27.5 -64 -6.5
      vertex -27.5 -64 -2.5
    endloop
  endfacet
  facet normal 1 0 0
    outer loop
      vertex -27.5 -32.5 -2.5
      vertex -27.5 -64 -2.5
      vertex -27.5 -32.5 -6.5
    endloop
  endfacet
  facet normal -1 0 0
    outer loop
      vertex -32.5 -32.5 -2.5
      vertex -32.5 -32.5 -6.5
      vertex -32.5 -64 -2.5
    endloop
  endfacet
  facet normal -1 0 0
    outer loop
      vertex -32.5 -64 -6.5
      vertex -32.5 -64 -1.5
      vertex -32.5 -64 -2.5
    endloop
  endfacet
  facet normal -1 0 0
    outer loop
      vertex -32.5 -64 -6.5
      vertex -32.5 -64 -2.5
      vertex -32.5 -32.5 -6.5
    endloop
  endfacet
  facet normal 0 0 1
    outer loop
      vertex -32.5 32.5 2.5
      vertex -32.5 -32.5 2.5
      vertex 32.5 -32.5 2.5
    endloop
  endfacet
  facet normal 0 0 1
    outer loop
      vertex 32.5 32.5 2.5
      vertex -32.5 32.5 2.5
      vertex 32.5 -32.5 2.5
    endloop
  endfacet
  facet normal 0 -1 0
    outer loop
      vertex -32.5 -64 -1.5
      vertex -32.5 -64 -6.5
      vertex -27.5 -64 -6.5
    endloop
  endfacet
  facet normal 0 -1 0
    outer loop
      vertex -27.5 -64 -1.5
      vertex -32.5 -64 -1.5
      vertex -27.5 -64 -6.5
    endloop
  endfacet
  facet normal 0 -1 0
    outer loop
      vertex -27.5 -32.5 -2.5
      vertex -27.5 -32.5 -6.5
      vertex -12.5 -32.5 -6.5
    endloop
  endfacet
  facet normal 0 -1 0
    outer loop
      vertex -12.5 -32.5 -2.5
      vertex -27.5 -32.5 -2.5
      vertex -12.5 -32.5 -6.5
    endloop
  endfacet
  facet normal 0 -1 0
    outer loop
      vertex -12.5 -64 -1.5
      vertex -12.5 -64 -6.5
      vertex -7.5 -64 -6.5
    endloop
  endfacet
  facet normal 0 -1 0
    outer loop
      vertex -7.5 -64 -1.5
      vertex -12.5 -64 -1.5
      vertex -7.5 -64 -6.5
    endloop
  endfacet
  facet normal 0 -1 0
    outer loop
      vertex -7.5 -32.5 -2.5
      vertex -7.5 -32.5 -6.5
      vertex 7.5 -32.5 -6.5
    endloop
  endfacet
  facet normal 0 -1 0
    outer loop
      vertex 7.5 -32.5 -2.5
      vertex -7.5 -32.5 -2.5
      vertex 7.5 -32.5 -6.5
    endloop
  endfacet
  facet normal -1 0 0
    outer loop
      vertex 7.5 -64 -6.5
      vertex 7.5 -64 -2.5
      vertex 7.5 -32.5 -6.5
    endloop
  endfacet
  facet normal -1 0 0
    outer loop
      vertex 7.5 -32.5 -6.5
      vertex 7.5 -64 -2.5
      vertex 7.5 -32.5 -2.5
    endloop
  endfacet
  facet normal 0 -1 0
    outer loop
      vertex 7.5 -64 -2.5
      vertex 7.5 -64 -6.5
      vertex 12.5 -64 -6.5
    endloop
  endfacet
  facet normal 0 -1 0
    outer loop
      vertex 12.5 -64 -2.5
      vertex 7.5 -64 -2.5
      vertex 12.5 -64 -6.5
    endloop
  endfacet
  facet normal 1 0 0
    outer loop
      vertex 12.5 -64 -2.5
      vertex 12.5 -64 -6.5
      vertex 12.5 -32.5 -6.5
    endloop
  endfacet
  facet normal 1 0 0
    outer loop
      vertex 12.5 -32.5 -2.5
      vertex 12.5 -64 -2.5
      vertex 12.5 -32.5 -6.5
    endloop
  endfacet
  facet normal 0 -1 0
    outer loop
      vertex 12.5 -32.5 -2.5
      vertex 12.5 -32.5 -6.5
      vertex 27.5 -32.5 -6.5
    endloop
  endfacet
  facet normal 0 -1 0
    outer loop
      vertex 27.5 -32.5 -2.5
      vertex 12.5 -32.5 -2.5
      vertex 27.5 -32.5 -6.5
    endloop
  endfacet
  facet normal -1 0 0
    outer loop
      vertex 27.5 -64 -6.5
      vertex 27.5 -64 -2.5
      vertex 27.5 -32.5 -6.5
    endloop
  endfacet
  facet normal -1 0 0
    outer loop
      vertex 27.5 -32.5 -6.5
      vertex 27.5 -64 -2.5
      vertex 27.5 -32.5 -2.5
    endloop
  endfacet
  facet normal 1 0 0
    outer loop
      vertex 64 -32.5 -1.5
      vertex 64 -32.5 -6.5
      vertex 64 -27.5 -6.5
    endloop
  endfacet
  facet normal 1 0 0
    outer loop
      vertex 64 -27.5 -1.5
      vertex 64 -32.5 -1.5
      vertex 64 -27.5 -6.5
    endloop
  endfacet
  facet normal 1 0 0
    outer loop
      vertex 32.5 -27.5 -2.5
      vertex 32.5 -27.5 -6.5
      vertex 32.5 -12.5 -6.5
    endloop
  endfacet
  facet normal 1 0 0
    outer loop
      vertex 32.5 -12.5 -2.5
      vertex 32.5 -27.5 -2.5
      vertex 32.5 -12.5 -6.5
    endloop
  endfacet
  facet normal 1 0 0
    outer loop
      vertex 64 -12.5 -1.5
      vertex 64 -12.5 -6.5
      vertex 64 -7.5 -6.5
    endloop
  endfacet
  facet normal 1 0 0
    outer loop
      vertex 64 -7.5 -1.5
      vertex 64 -12.5 -1.5
      vertex 64 -7.5 -6.5
    endloop
  endfacet
  facet normal 1 0 0
    outer loop
      vertex 32.5 -7.5 -2.5
      vertex 32.5 -7.5 -6.5
      vertex 32.5 7.5 -6.5
    endloop
  endfacet
  facet normal 1 0 0
    outer loop
      vertex 32.5 7.5 -2.5
      vertex 32.5 -7.5 -2.5
      vertex 32.5 7.5 -6.5
    endloop
  endfacet
  facet normal 0 -1 0
    outer loop
      vertex 32.5 7.5 -2.5
      vertex 32.5 7.5 -6.5
      vertex 64 7.5 -6.5
    endloop
  endfacet
  facet normal 0 -1 0
    outer loop
      vertex 64 7.5 -2.5
      vertex 32.5 7.5 -2.5
      vertex 64 7.5 -6.5
    endloop
  endfacet
  facet normal 1 0 0
    outer loop
      vertex 64 7.5 -2.5
      vertex 64 7.5 -6.5
      vertex 64 12.5 -6.5
    endloop
  endfacet
  facet normal 1 0 0
    outer loop
      vertex 64 12.5 -2.5
      vertex 64 7.5 -2.5
      vertex 64 12.5 -6.5
    endloop
  endfacet
  facet normal 0 1 0
    outer loop
      vertex 32.5 12.5 -6.5
      vertex 32.5 12.5 -2.5
      vertex 64 12.5 -6.5
    endloop
  endfacet
  facet normal 0 1 0
    outer loop
      vertex 64 12.5 -6.5
      vertex 32.5 12.5 -2.5
      vertex 64 12.5 -2.5
    endloop
  endfacet
  facet normal 1 0 0
    outer loop
      vertex 32.5 12.5 -2.5
      vertex 32.5 12.5 -6.5
      vertex 32.5 27.5 -6.5
    endloop
  endfacet
  facet normal 1 0 0
    outer loop
      vertex 32.5 27.5 -2.5
      vertex 32.5 12.5 -2.5
      vertex 32.5 27.5 -6.5
    endloop
  endfacet
  facet normal 0 -1 0
    outer loop
      vertex 32.5 27.5 -2.5
      vertex 32.5 27.5 -6.5
      vertex 64 27.5 -6.5
    endloop
  endfacet
  facet normal 0 -1 0
    outer loop
      vertex 64 27.5 -2.5
      vertex 32.5 27.5 -2.5
      vertex 64 27.5 -6.5
    endloop
  endfacet
  facet normal 0 1 0
    outer loop
      vertex 12.5 32.5 -6.5
      vertex 12.5 32.5 -2.5
      vertex 27.5 32.5 -6.5
    endloop
  endfacet
  facet normal 0 1 0
    outer loop
      vertex 27.5 32.5 -6.5
      vertex 12.5 32.5 -2.5
      vertex 27.5 32.5 -2.5
    endloop
  endfacet
  facet normal 0 1 0
    outer loop
      vertex -7.5 32.5 -6.5
      vertex -7.5 32.5 -2.5
      vertex 7.5 32.5 -6.5
    endloop
  endfacet
  facet normal 0 1 0
    outer loop
      vertex 7.5 32.5 -6.5
      vertex -7.5 32.5 -2.5
      vertex 7.5 32.5 -2.5
    endloop
  endfacet
  facet normal 1 0 0
    outer loop
      vertex -7.5 32.5 -2.5
      vertex -7.5 32.5 -6.5
      vertex -7.5 64 -6.5
    endloop
  endfacet
  facet normal 1 0 0
    outer loop
      vertex -7.5 64 -2.5
      vertex -7.5 32.5 -2.5
      vertex -7.5 64 -6.5
    endloop
  endfacet
  facet normal 0 1 0
    outer loop
      vertex -12.5 64 -6.5
      vertex -12.5 64 -2.5
      vertex -7.5 64 -6.5
    endloop
  endfacet
  facet normal 0 1 0
    outer loop
      vertex -7.5 64 -6.5
      vertex -12.5 64 -2.5
      vertex -7.5 64 -2.5
    endloop
  endfacet
  facet normal -1 0 0
    outer loop
      vertex -12.5 32.5 -6.5
      vertex -12.5 32.5 -2.5
      vertex -12.5 64 -6.5
    endloop
  endfacet
  facet normal -1 0 0
    outer loop
      vertex -12.5 64 -6.5
      vertex -12.5 32.5 -2.5
      vertex -12.5 64 -2.5
    endloop
  endfacet
  facet normal 0 1 0
    outer loop
      vertex -27.5 32.5 -6.5
      vertex -27.5 32.5 -2.5
      vertex -12.5 32.5 -6.5
    endloop
  endfacet
  facet normal 0 1 0
    outer loop
      vertex -12.5 32.5 -6.5
      vertex -27.5 32.5 -2.5
      vertex -12.5 32.5 -2.5
    endloop
  endfacet
  facet normal 1 0 0
    outer loop
      vertex -27.5 -27.5 -2.5
      vertex -27.5 -27.5 -6.5
      vertex -27.5 -12.5 -6.5
    endloop
  endfacet
  facet normal 1 0 0
    outer loop
      vertex -27.5 -12.5 -2.5
      vertex -27.5 -27.5 -2.5
      vertex -27.5 -12.5 -6.5
    endloop
  endfacet
  facet normal 0 -1 0
    outer loop
      vertex -27.5 -12.5 -2.5
      vertex -27.5 -12.5 -6.5
      vertex -12.5 -12.5 -6.5
    endloop
  endfacet
  facet normal 0 -1 0
    outer loop
      vertex -12.5 -12.5 -2.5
      vertex -27.5 -12.5 -2.5
      vertex -12.5 -12.5 -6.5
    endloop
  endfacet
  facet normal -1 0 0
    outer loop
      vertex -12.5 -27.5 -6.5
      vertex -12.5 -27.5 -2.5
      vertex -12.5 -12.5 -6.5
    endloop
  endfacet
  facet normal -1 0 0
    outer loop
      vertex -12.5 -12.5 -6.5
      vertex -12.5 -27.5 -2.5
      vertex -12.5 -12.5 -2.5
    endloop
  endfacet
  facet normal 0 1 0
    outer loop
      vertex -27.5 -27.5 -6.5
      vertex -27.5 -27.5 -2.5
      vertex -12.5 -27.5 -6.5
    endloop
  endfacet
  facet normal 0 1 0
    outer loop
      vertex -12.5 -27.5 -6.5
      vertex -27.5 -27.5 -2.5
      vertex -12.5 -27.5 -2.5
    endloop
  endfacet
  facet normal 1 0 0
    outer loop
      vertex -27.5 -7.5 -2.5
      vertex -27.5 -7.5 -6.5
      vertex -27.5 7.5 -6.5
    endloop
  endfacet
  facet normal 1 0 0
    outer loop
      vertex -27.5 7.5 -2.5
      vertex -27.5 -7.5 -2.5
      vertex -27.5 7.5 -6.5
    endloop
  endfacet
  facet normal 0 -1 0
    outer loop
      vertex -27.5 7.5 -2.5
      vertex -27.5 7.5 -6.5
      vertex -12.5 7.5 -6.5
    endloop
  endfacet
  facet normal 0 -1 0
    outer loop
      vertex -12.5 7.5 -2.5
      vertex -27.5 7.5 -2.5
      vertex -12.5 7.5 -6.5
    endloop
  endfacet
  facet normal -1 0 0
    outer loop
      vertex -12.5 -7.5 -6.5
      vertex -12.5 -7.5 -2.5
      vertex -12.5 7.5 -6.5
    endloop
  endfacet
  facet normal -1 0 0
    outer loop
      vertex -12.5 7.5 -6.5
      vertex -12.5 -7.5 -2.5
      vertex -12.5 7.5 -2.5
    endloop
  endfacet
  facet normal 0 1 0
    outer loop
      vertex -27.5 -7.5 -6.5
      vertex -27.5 -7.5 -2.5
      vertex -12.5 -7.5 -6.5
    endloop
  endfacet
  facet normal 0 1 0
    outer loop
      vertex -12.5 -7.5 -6.5
      vertex -27.5 -7.5 -2.5
      vertex -12.5 -7.5 -2.5
    endloop
  endfacet
  facet normal 1 0 0
    outer loop
      vertex -27.5 12.5 -2.5
      vertex -27.5 12.5 -6.5
      vertex -27.5 27.5 -6.5
    endloop
  endfacet
  facet normal 1 0 0
    outer loop
      vertex -27.5 27.5 -2.5
      vertex -27.5 12.5 -2.5
      vertex -27.5 27.5 -6.5
    endloop
  endfacet
  facet normal 0 -1 0
    outer loop
      vertex -27.5 27.5 -2.5
      vertex -27.5 27.5 -6.5
      vertex -12.5 27.5 -6.5
    endloop
  endfacet
  facet normal 0 -1 0
    outer loop
      vertex -12.5 27.5 -2.5
      vertex -27.5 27.5 -2.5
      vertex -12.5 27.5 -6.5
    endloop
  endfacet
  facet normal -1 0 0
    outer loop
      vertex -12.5 12.5 -6.5
      vertex -12.5 12.5 -2.5
      vertex -12.5 27.5 -6.5
    endloop
  endfacet
  facet normal -1 0 0
    outer loop
      vertex -12.5 27.5 -6.5
      vertex -12.5 12.5 -2.5
      vertex -12.5 27.5 -2.5
    endloop
  endfacet
  facet normal 0 1 0
    outer loop
      vertex -27.5 12.5 -6.5
      vertex -27.5 12.5 -2.5
      vertex -12.5 12.5 -6.5
    endloop
  endfacet
  facet normal 0 1 0
    outer loop
      vertex -12.5 12.5 -6.5
      vertex -27.5 12.5 -2.5
      vertex -12.5 12.5 -2.5
    endloop
  endfacet
  facet normal 1 0 0
    outer loop
      vertex -7.5 -27.5 -2.5
      vertex -7.5 -27.5 -6.5
      vertex -7.5 -12.5 -6.5
    endloop
  endfacet
  facet normal 1 0 0
    outer loop
      vertex -7.5 -12.5 -2.5
      vertex -7.5 -27.5 -2.5
      vertex -7.5 -12.5 -6.5
    endloop
  endfacet
  facet normal 0 -1 0
    outer loop
      vertex -7.5 -12.5 -2.5
      vertex -7.5 -12.5 -6.5
      vertex 7.5 -12.5 -6.5
    endloop
  endfacet
  facet normal 0 -1 0
    outer loop
      vertex 7.5 -12.5 -2.5
      vertex -7.5 -12.5 -2.5
      vertex 7.5 -12.5 -6.5
    endloop
  endfacet
  facet normal -1 0 0
    outer loop
      vertex 7.5 -27.5 -6.5
      vertex 7.5 -27.5 -2.5
      vertex 7.5 -12.5 -6.5
    endloop
  endfacet
  facet normal -1 0 0
    outer loop
      vertex 7.5 -12.5 -6.5
      vertex 7.5 -27.5 -2.5
      vertex 7.5 -12.5 -2.5
    endloop
  endfacet
  facet normal 0 1 0
    outer loop
      vertex -7.5 -27.5 -6.5
      vertex -7.5 -27.5 -2.5
      vertex 7.5 -27.5 -6.5
    endloop
  endfacet
  facet normal 0 1 0
    outer loop
      vertex 7.5 -27.5 -6.5
      vertex -7.5 -27.5 -2.5
      vertex 7.5 -27.5 -2.5
    endloop
  endfacet
  facet normal 1 0 0
    outer loop
      vertex -7.5 -7.5 -2.5
      vertex -7.5 -7.5 -6.5
      vertex -7.5 7.5 -6.5
    endloop
  endfacet
  facet normal 1 0 0
    outer loop
      vertex -7.5 7.5 -2.5
      vertex -7.5 -7.5 -2.5
      vertex -7.5 7.5 -6.5
    endloop
  endfacet
  facet normal 0 -1 0
    outer loop
      vertex -7.5 7.5 -2.5
      vertex -7.5 7.5 -6.5
      vertex 7.5 7.5 -6.5
    endloop
  endfacet
  facet normal 0 -1 0
    outer loop
      vertex 7.5 7.5 -2.5
      vertex -7.5 7.5 -2.5
      vertex 7.5 7.5 -6.5
    endloop
  endfacet
  facet normal -1 0 0
    outer loop
      vertex 7.5 -7.5 -6.5
      vertex 7.5 -7.5 -2.5
      vertex 7.5 7.5 -6.5
    endloop
  endfacet
  facet normal -1 0 0
    outer loop
      vertex 7.5 7.5 -6.5
      vertex 7.5 -7.5 -2.5
      vertex 7.5 7.5 -2.5
    endloop
  endfacet
  facet normal 0 1 0
    outer loop
      vertex -7.5 -7.5 -6.5
      vertex -7.5 -7.5 -2.5
      vertex 7.5 -7.5 -6.5
    endloop
  endfacet
  facet normal 0 1 0
    outer loop
      vertex 7.5 -7.5 -6.5
      vertex -7.5 -7.5 -2.5
      vertex 7.5 -7.5 -2.5
    endloop
  endfacet
  facet normal 1 0 0
    outer loop
      vertex -7.5 12.5 -2.5
      vertex -7.5 12.5 -6.5
      vertex -7.5 27.5 -6.5
    endloop
  endfacet
  facet normal 1 0 0
    outer loop
      vertex -7.5 27.5 -2.5
      vertex -7.5 12.5 -2.5
      vertex -7.5 27.5 -6.5
    endloop
  endfacet
  facet normal 0 -1 0
    outer loop
      vertex -7.5 27.5 -2.5
      vertex -7.5 27.5 -6.5
      vertex 7.5 27.5 -6.5
    endloop
  endfacet
  facet normal 0 -1 0
    outer loop
      vertex 7.5 27.5 -2.5
      vertex -7.5 27.5 -2.5
      vertex 7.5 27.5 -6.5
    endloop
  endfacet
  facet normal -1 0 0
    outer loop
      vertex 7.5 12.5 -6.5
      vertex 7.5 12.5 -2.5
      vertex 7.5 27.5 -6.5
    endloop
  endfacet
  facet normal -1 0 0
    outer loop
      vertex 7.5 27.5 -6.5
      vertex 7.5 12.5 -2.5
      vertex 7.5 27.5 -2.5
    endloop
  endfacet
  facet normal 0 1 0
    outer loop
      vertex -7.5 12.5 -6.5
      vertex -7.5 12.5 -2.5
      vertex 7.5 12.5 -6.5
    endloop
  endfacet
  facet normal 0 1 0
    outer loop
      vertex 7.5 12.5 -6.5
      vertex -7.5 12.5 -2.5
      vertex 7.5 12.5 -2.5
    endloop
  endfacet
  facet normal 1 0 0
    outer loop
      vertex 12.5 -27.5 -2.5
      vertex 12.5 -27.5 -6.5
      vertex 12.5 -12.5 -6.5
    endloop
  endfacet
  facet normal 1 0 0
    outer loop
      vertex 12.5 -12.5 -2.5
      vertex 12.5 -27.5 -2.5
      vertex 12.5 -12.5 -6.5
    endloop
  endfacet
  facet normal 0 -1 0
    outer loop
      vertex 12.5 -12.5 -2.5
      vertex 12.5 -12.5 -6.5
      vertex 27.5 -12.5 -6.5
    endloop
  endfacet
  facet normal 0 -1 0
    outer loop
      vertex 27.5 -12.5 -2.5
      vertex 12.5 -12.5 -2.5
      vertex 27.5 -12.5 -6.5
    endloop
  endfacet
  facet normal -1 0 0
    outer loop
      vertex 27.5 -27.5 -6.5
      vertex 27.5 -27.5 -2.5
      vertex 27.5 -12.5 -6.5
    endloop
  endfacet
  facet normal -1 0 0
    outer loop
      vertex 27.5 -12.5 -6.5
      vertex 27.5 -27.5 -2.5
      vertex 27.5 -12.5 -2.5
    endloop
  endfacet
  facet normal 0 1 0
    outer loop
      vertex 12.5 -27.5 -6.5
      vertex 12.5 -27.5 -2.5
      vertex 27.5 -27.5 -6.5
    endloop
  endfacet
  facet normal 0 1 0
    outer loop
      vertex 27.5 -27.5 -6.5
      vertex 12.5 -27.5 -2.5
      vertex 27.5 -27.5 -2.5
    endloop
  endfacet
  facet normal 1 0 0
    outer loop
      vertex 12.5 -7.5 -2.5
      vertex 12.5 -7.5 -6.5
      vertex 12.5 7.5 -6.5
    endloop
  endfacet
  facet normal 1 0 0
    outer loop
      vertex 12.5 7.5 -2.5
      vertex 12.5 -7.5 -2.5
      vertex 12.5 7.5 -6.5
    endloop
  endfacet
  facet normal 0 -1 0
    outer loop
      vertex 12.5 7.5 -2.5
      vertex 12.5 7.5 -6.5
      vertex 27.5 7.5 -6.5
    endloop
  endfacet
  facet normal 0 -1 0
    outer loop
      vertex 27.5 7.5 -2.5
      vertex 12.5 7.5 -2.5
      vertex 27.5 7.5 -6.5
    endloop
  endfacet
  facet normal -1 0 0
    outer loop
      vertex 27.5 -7.5 -6.5
      vertex 27.5 -7.5 -2.5
      vertex 27.5 7.5 -6.5
    endloop
  endfacet
  facet normal -1 0 0
    outer loop
      vertex 27.5 7.5 -6.5
      vertex 27.5 -7.5 -2.5
      vertex 27.5 7.5 -2.5
    endloop
  endfacet
  facet normal 0 1 0
    outer loop
      vertex 12.5 -7.5 -6.5
      vertex 12.5 -7.5 -2.5
      vertex 27.5 -7.5 -6.5
    endloop
  endfacet
  facet normal 0 1 0
    outer loop
      vertex 27.5 -7.5 -6.5
      vertex 12.5 -7.5 -2.5
      vertex 27.5 -7.5 -2.5
    endloop
  endfacet
  facet normal 1 0 0
    outer loop
      vertex 12.5 12.5 -2.5
      vertex 12.5 12.5 -6.5
      vertex 12.5 27.5 -6.5
    endloop
  endfacet
  facet normal 1 0 0
    outer loop
      vertex 12.5 27.5 -2.5
      vertex 12.5 12.5 -2.5
      vertex 12.5 27.5 -6.5
    endloop
  endfacet
  facet normal 0 -1 0
    outer loop
      vertex 12.5 27.5 -2.5
      vertex 12.5 27.5 -6.5
      vertex 27.5 27.5 -6.5
    endloop
  endfacet
  facet normal 0 -1 0
    outer loop
      vertex 27.5 27.5 -2.5
      vertex 12.5 27.5 -2.5
      vertex 27.5 27.5 -6.5
    endloop
  endfacet
  facet normal -1 0 0
    outer loop
      vertex 27.5 12.5 -6.5
      vertex 27.5 12.5 -2.5
      vertex 27.5 27.5 -6.5
    endloop
  endfacet
  facet normal -1 0 0
    outer loop
      vertex 27.5 27.5 -6.5
      vertex 27.5 12.5 -2.5
      vertex 27.5 27.5 -2.5
    endloop
  endfacet
  facet normal 0 1 0
    outer loop
      vertex 12.5 12.5 -6.5
      vertex 12.5 12.5 -2.5
      vertex 27.5 12.5 -6.5
    endloop
  endfacet
  facet normal 0 1 0
    outer loop
      vertex 27.5 12.5 -6.5
      vertex 12.5 12.5 -2.5
      vertex 27.5 12.5 -2.5
    endloop
  endfacet
  facet normal 0 0 -1
    outer loop
      vertex -27.5 -27.5 -2.5
      vertex -27.5 -12.5 -2.5
      vertex -12.5 -27.5 -2.5
    endloop
  endfacet
  facet normal 0 0 -1
    outer loop
      vertex -12.5 -27.5 -2.5
      vertex -27.5 -12.5 -2.5
      vertex -12.5 -12.5 -2.5
    endloop
  endfacet
  facet normal 0 0 -1
    outer loop
      vertex -27.5 -7.5 -2.5
      vertex -27.5 7.5 -2.5
      vertex -12.5 -7.5 -2.5
    endloop
  endfacet
  facet normal 0 0 -1
    outer loop
      vertex -12.5 -7.5 -2.5
      vertex -27.5 7.5 -2.5
      vertex -12.5 7.5 -2.5
    endloop
  endfacet
  facet normal 0 0 -1
    outer loop
      vertex -27.5 12.5 -2.5
      vertex -27.5 27.5 -2.5
      vertex -12.5 12.5 -2.5
    endloop
  endfacet
  facet normal 0 0 -1
    outer loop
      vertex -12.5 12.5 -2.5
      vertex -27.5 27.5 -2.5
      vertex -12.5 27.5 -2.5
    endloop
  endfacet
  facet normal 0 0 -1
    outer loop
      vertex -7.5 -27.5 -2.5
      vertex -7.5 -12.5 -2.5
      vertex 7.5 -27.5 -2.5
    endloop
  endfacet
  facet normal 0 0 -1
    outer loop
      vertex 7.5 -27.5 -2.5
      vertex -7.5 -12.5 -2.5
      vertex 7.5 -12.5 -2.5
    endloop
  endfacet
  facet normal 0 0 -1
    outer loop
      vertex -7.5 -7.5 -2.5
      vertex -7.5 7.5 -2.5
      vertex 7.5 -7.5 -2.5
    endloop
  endfacet
  facet normal 0 0 -1
    outer loop
      vertex 7.5 -7.5 -2.5
      vertex -7.5 7.5 -2.5
      vertex 7.5 7.5 -2.5
    endloop
  endfacet
  facet normal 0 0 -1
    outer loop
      vertex -7.5 12.5 -2.5
      vertex -7.5 27.5 -2.5
      vertex 7.5 12.5 -2.5
    endloop
  endfacet
  facet normal 0 0 -1
    outer loop
      vertex 7.5 12.5 -2.5
      vertex -7.5 27.5 -2.5
      vertex 7.5 27.5 -2.5
    endloop
  endfacet
  facet normal 0 0 -1
    outer loop
      vertex 12.5 -27.5 -2.5
      vertex 12.5 -12.5 -2.5
      vertex 27.5 -27.5 -2.5
    endloop
  endfacet
  facet normal 0 0 -1
    outer loop
      vertex 27.5 -27.5 -2.5
      vertex 12.5 -12.5 -2.5
      vertex 27.5 -12.5 -2.5
    endloop
  endfacet
  facet normal 0 0 -1
    outer loop
      vertex 12.5 -7.5 -2.5
      vertex 12.5 7.5 -2.5
      vertex 27.5 -7.5 -2.5
    endloop
  endfacet
  facet normal 0 0 -1
    outer loop
      vertex 27.5 -7.5 -2.5
      vertex 12.5 7.5 -2.5
      vertex 27.5 7.5 -2.5
    endloop
  endfacet
  facet normal 0 0 -1
    outer loop
      vertex 12.5 12.5 -2.5
      vertex 12.5 27.5 -2.5
      vertex 27.5 12.5 -2.5
    endloop
  endfacet
  facet normal 0 0 -1
    outer loop
      vertex 27.5 12.5 -2.5
      vertex 12.5 27.5 -2.5
      vertex 27.5 27.5 -2.5
    endloop
  endfacet
endsolid OpenSCAD_Model
