solid OpenSCAD_Model
  facet normal 0 0 -1
    outer loop
      vertex -20 -10 -1.5
      vertex -20 8.5 -1.5
      vertex -20 11.5 -1.5
    endloop
  endfacet
  facet normal 0 0 -1
    outer loop
      vertex -20 -10 -1.5
      vertex -20 11.5 -1.5
      vertex -11.5 11.5 -1.5
    endloop
  endfacet
  facet normal 0 0 -1
    outer loop
      vertex -11.5 11.5 -1.5
      vertex -11.5 20 -1.5
      vertex -10 20 -1.5
    endloop
  endfacet
  facet normal 0 0 -1
    outer loop
      vertex -11.5 11.5 -1.5
      vertex 4.89843e-015 20 -1.5
      vertex -20 -10 -1.5
    endloop
  endfacet
  facet normal 0 0 -1
    outer loop
      vertex -10 20 -1.5
      vertex 4.89843e-015 20 -1.5
      vertex -11.5 11.5 -1.5
    endloop
  endfacet
  facet normal 0 0 -1
    outer loop
      vertex 4.89843e-015 20 -1.5
      vertex 10 20 -1.5
      vertex -20 -10 -1.5
    endloop
  endfacet
  facet normal 0 0 -1
    outer loop
      vertex -10 1.77321e-015 -1.5
      vertex 10 20 -1.5
      vertex 11.5 20 -1.5
    endloop
  endfacet
  facet normal 0 0 -1
    outer loop
      vertex 10 8.5 -1.5
      vertex 11.5 11.5 -1.5
      vertex 20 11.5 -1.5
    endloop
  endfacet
  facet normal 0 0 -1
    outer loop
      vertex -10 1.77321e-015 -1.5
      vertex -2.42705 1.76336 -1.5
      vertex -3 0 -1.5
    endloop
  endfacet
  facet normal 0 0 -1
    outer loop
      vertex -0.927051 -2.85317 -1.5
      vertex 0.927051 -2.85317 -1.5
      vertex 20 -8.5 -1.5
    endloop
  endfacet
  facet normal 0 0 -1
    outer loop
      vertex 10 -10 -1.5
      vertex 20 -8.5 -1.5
      vertex 20 -11.5 -1.5
    endloop
  endfacet
  facet normal 0 0 -1
    outer loop
      vertex 10 -1.36718e-015 -1.5
      vertex 0.927051 -2.85317 -1.5
      vertex 2.42705 -1.76336 -1.5
    endloop
  endfacet
  facet normal 0 0 -1
    outer loop
      vertex 10 8.5 -1.5
      vertex 20 11.5 -1.5
      vertex 20 8.5 -1.5
    endloop
  endfacet
  facet normal 0 0 -1
    outer loop
      vertex 10 -1.36718e-015 -1.5
      vertex 2.42705 -1.76336 -1.5
      vertex 3 0 -1.5
    endloop
  endfacet
  facet normal 0 0 -1
    outer loop
      vertex 20 -8.5 -1.5
      vertex 10 -1.36718e-015 -1.5
      vertex 20 8.5 -1.5
    endloop
  endfacet
  facet normal 0 0 -1
    outer loop
      vertex -10 1.77321e-015 -1.5
      vertex -0.927051 2.85317 -1.5
      vertex -2.42705 1.76336 -1.5
    endloop
  endfacet
  facet normal 0 0 -1
    outer loop
      vertex 10 8.5 -1.5
      vertex 20 8.5 -1.5
      vertex 10 -1.36718e-015 -1.5
    endloop
  endfacet
  facet normal 0 0 -1
    outer loop
      vertex 11.5 -11.5 -1.5
      vertex 11.5 -20 -1.5
      vertex -11.5 -11.5 -1.5
    endloop
  endfacet
  facet normal 0 0 -1
    outer loop
      vertex -10 1.77321e-015 -1.5
      vertex -3 0 -1.5
      vertex -2.42705 -1.76336 -1.5
    endloop
  endfacet
  facet normal 0 0 -1
    outer loop
      vertex -10 1.77321e-015 -1.5
      vertex 11.5 11.5 -1.5
      vertex -0.927051 2.85317 -1.5
    endloop
  endfacet
  facet normal 0 0 -1
    outer loop
      vertex -20 -10 -1.5
      vertex -10 -10 -1.5
      vertex 20 -11.5 -1.5
    endloop
  endfacet
  facet normal 0 0 -1
    outer loop
      vertex -20 -10 -1.5
      vertex 10 20 -1.5
      vertex -10 1.77321e-015 -1.5
    endloop
  endfacet
  facet normal 0 0 -1
    outer loop
      vertex 10 -1.36718e-015 -1.5
      vertex 3 0 -1.5
      vertex 2.42705 1.76336 -1.5
    endloop
  endfacet
  facet normal 0 0 -1
    outer loop
      vertex -0.927051 -2.85317 -1.5
      vertex 20 -8.5 -1.5
      vertex -10 -10 -1.5
    endloop
  endfacet
  facet normal 0 0 -1
    outer loop
      vertex 10 -1.36718e-015 -1.5
      vertex 0.927051 2.85317 -1.5
      vertex 10 8.5 -1.5
    endloop
  endfacet
  facet normal 0 0 -1
    outer loop
      vertex -10 -10 -1.5
      vertex -20 -10 -1.5
      vertex -10 -8.5 -1.5
    endloop
  endfacet
  facet normal 0 0 -1
    outer loop
      vertex -10 1.77321e-015 -1.5
      vertex 11.5 20 -1.5
      vertex 11.5 11.5 -1.5
    endloop
  endfacet
  facet normal 0 0 -1
    outer loop
      vertex -10 1.77321e-015 -1.5
      vertex -0.927051 -2.85317 -1.5
      vertex -10 -10 -1.5
    endloop
  endfacet
  facet normal 0 0 -1
    outer loop
      vertex 10 -1.36718e-015 -1.5
      vertex 2.42705 1.76336 -1.5
      vertex 0.927051 2.85317 -1.5
    endloop
  endfacet
  facet normal 0 0 -1
    outer loop
      vertex -0.927051 2.85317 -1.5
      vertex 11.5 11.5 -1.5
      vertex 0.927051 2.85317 -1.5
    endloop
  endfacet
  facet normal 0 0 -1
    outer loop
      vertex -10 -10 -1.5
      vertex 20 -8.5 -1.5
      vertex -1.22461e-015 -10 -1.5
    endloop
  endfacet
  facet normal 0 0 -1
    outer loop
      vertex -10 -10 -1.5
      vertex -1.22461e-015 -10 -1.5
      vertex 20 -11.5 -1.5
    endloop
  endfacet
  facet normal 0 0 -1
    outer loop
      vertex -1.22461e-015 -10 -1.5
      vertex 10 -10 -1.5
      vertex 20 -11.5 -1.5
    endloop
  endfacet
  facet normal 0 0 -1
    outer loop
      vertex -1.22461e-015 -10 -1.5
      vertex 20 -8.5 -1.5
      vertex 10 -10 -1.5
    endloop
  endfacet
  facet normal 0 0 -1
    outer loop
      vertex 0.927051 2.85317 -1.5
      vertex 11.5 11.5 -1.5
      vertex 10 8.5 -1.5
    endloop
  endfacet
  facet normal 0 0 -1
    outer loop
      vertex 0.927051 -2.85317 -1.5
      vertex 10 -1.36718e-015 -1.5
      vertex 20 -8.5 -1.5
    endloop
  endfacet
  facet normal 0 0 -1
    outer loop
      vertex -20 -10 -1.5
      vertex 20 -11.5 -1.5
      vertex 11.5 -11.5 -1.5
    endloop
  endfacet
  facet normal 0 0 -1
    outer loop
      vertex -20 -10 -1.5
      vertex 11.5 -11.5 -1.5
      vertex -11.5 -11.5 -1.5
    endloop
  endfacet
  facet normal 0 0 -1
    outer loop
      vertex -20 -11.5 -1.5
      vertex -20 -10 -1.5
      vertex -11.5 -11.5 -1.5
    endloop
  endfacet
  facet normal 0 0 -1
    outer loop
      vertex -11.5 -11.5 -1.5
      vertex -10 -20 -1.5
      vertex -11.5 -20 -1.5
    endloop
  endfacet
  facet normal 0 0 -1
    outer loop
      vertex -11.5 -11.5 -1.5
      vertex 8.5 -20 -1.5
      vertex -10 -20 -1.5
    endloop
  endfacet
  facet normal 0 0 -1
    outer loop
      vertex -11.5 -11.5 -1.5
      vertex 11.5 -20 -1.5
      vertex 8.5 -20 -1.5
    endloop
  endfacet
  facet normal 0 0 -1
    outer loop
      vertex -10 -8.5 -1.5
      vertex -20 -10 -1.5
      vertex -10 1.77321e-015 -1.5
    endloop
  endfacet
  facet normal 0 0 -1
    outer loop
      vertex -10 1.77321e-015 -1.5
      vertex -2.42705 -1.76336 -1.5
      vertex -0.927051 -2.85317 -1.5
    endloop
  endfacet
  facet normal -1 1.77321e-016 0
    outer loop
      vertex -20 8.5 0.5
      vertex -20 8.5 -1.5
      vertex -20 -9.5 0.5
    endloop
  endfacet
  facet normal -1 1.77321e-016 0
    outer loop
      vertex -20 -10 -1.5
      vertex -20 -10 1.5
      vertex -20 -9.5 0.5
    endloop
  endfacet
  facet normal -1 1.77321e-016 0
    outer loop
      vertex -20 -10 -1.5
      vertex -20 -9.5 0.5
      vertex -20 8.5 -1.5
    endloop
  endfacet
  facet normal -1 1.77321e-016 0
    outer loop
      vertex -20 -9.5 0.5
      vertex -20 -10 1.5
      vertex -20 -9.5 1.5
    endloop
  endfacet
  facet normal -1 1.22461e-016 0
    outer loop
      vertex -20 -11.5 -1.5
      vertex -20 -11.5 11.5
      vertex -20 -10 -1.5
    endloop
  endfacet
  facet normal -1 1.22461e-016 0
    outer loop
      vertex -20 -10 1.5
      vertex -20 -11.5 11.5
      vertex -20 -9.5 11.5
    endloop
  endfacet
  facet normal -1 1.22461e-016 0
    outer loop
      vertex -20 -10 -1.5
      vertex -20 -11.5 11.5
      vertex -20 -10 1.5
    endloop
  endfacet
  facet normal -1 1.22461e-016 0
    outer loop
      vertex -20 -10 1.5
      vertex -20 -9.5 11.5
      vertex -20 -9.5 1.5
    endloop
  endfacet
  facet normal -1.22461e-016 -1 0
    outer loop
      vertex -20 -11.5 11.5
      vertex -20 -11.5 -1.5
      vertex -11.5 -11.5 -1.5
    endloop
  endfacet
  facet normal -1.22461e-016 -1 0
    outer loop
      vertex -11.5 -11.5 11.5
      vertex -20 -11.5 11.5
      vertex -11.5 -11.5 -1.5
    endloop
  endfacet
  facet normal -1 1.77321e-016 0
    outer loop
      vertex -11.5 -20 -1.5
      vertex -11.5 -20 11.5
      vertex -11.5 -11.5 -1.5
    endloop
  endfacet
  facet normal -1 1.77321e-016 0
    outer loop
      vertex -11.5 -11.5 -1.5
      vertex -11.5 -20 11.5
      vertex -11.5 -11.5 11.5
    endloop
  endfacet
  facet normal -1.77321e-016 -1 0
    outer loop
      vertex -11.5 -20 11.5
      vertex -11.5 -20 -1.5
      vertex -10 -20 -1.5
    endloop
  endfacet
  facet normal -1.77321e-016 -1 0
    outer loop
      vertex -9.5 -20 1.5
      vertex -11.5 -20 11.5
      vertex -10 -20 1.5
    endloop
  endfacet
  facet normal -1.77321e-016 -1 0
    outer loop
      vertex -10 -20 1.5
      vertex -11.5 -20 11.5
      vertex -10 -20 -1.5
    endloop
  endfacet
  facet normal -1.77321e-016 -1 0
    outer loop
      vertex -9.5 -20 11.5
      vertex -11.5 -20 11.5
      vertex -9.5 -20 1.5
    endloop
  endfacet
  facet normal -1.22461e-016 -1 0
    outer loop
      vertex -9.5 -20 0.5
      vertex -10 -20 -1.5
      vertex 8.5 -20 -1.5
    endloop
  endfacet
  facet normal -1.22461e-016 -1 0
    outer loop
      vertex -9.5 -20 0.5
      vertex -9.5 -20 1.5
      vertex -10 -20 1.5
    endloop
  endfacet
  facet normal -1.22461e-016 -1 0
    outer loop
      vertex -10 -20 1.5
      vertex -10 -20 -1.5
      vertex -9.5 -20 0.5
    endloop
  endfacet
  facet normal -1.22461e-016 -1 0
    outer loop
      vertex 8.5 -20 0.5
      vertex -9.5 -20 0.5
      vertex 8.5 -20 -1.5
    endloop
  endfacet
  facet normal -1.36718e-016 -1 0
    outer loop
      vertex 8.5 -20 0.5
      vertex 8.5 -20 -1.5
      vertex 11.5 -20 -1.5
    endloop
  endfacet
  facet normal -1.36718e-016 -1 0
    outer loop
      vertex 9.5 -20 1.5
      vertex 9.5 -20 0.5
      vertex 11.5 -20 -1.5
    endloop
  endfacet
  facet normal -1.36718e-016 -1 0
    outer loop
      vertex 9.5 -20 0.5
      vertex 8.5 -20 0.5
      vertex 11.5 -20 -1.5
    endloop
  endfacet
  facet normal -1.36718e-016 -1 0
    outer loop
      vertex 11.5 -20 11.5
      vertex 9.5 -20 1.5
      vertex 11.5 -20 -1.5
    endloop
  endfacet
  facet normal -1.36718e-016 -1 0
    outer loop
      vertex 9.5 -20 11.5
      vertex 9.5 -20 1.5
      vertex 11.5 -20 11.5
    endloop
  endfacet
  facet normal 1 -1.36718e-016 0
    outer loop
      vertex 11.5 -20 11.5
      vertex 11.5 -20 -1.5
      vertex 11.5 -11.5 -1.5
    endloop
  endfacet
  facet normal 1 -1.36718e-016 0
    outer loop
      vertex 11.5 -11.5 11.5
      vertex 11.5 -20 11.5
      vertex 11.5 -11.5 -1.5
    endloop
  endfacet
  facet normal -1.22461e-016 -1 0
    outer loop
      vertex 11.5 -11.5 11.5
      vertex 11.5 -11.5 -1.5
      vertex 20 -11.5 -1.5
    endloop
  endfacet
  facet normal -1.22461e-016 -1 0
    outer loop
      vertex 20 -11.5 11.5
      vertex 11.5 -11.5 11.5
      vertex 20 -11.5 -1.5
    endloop
  endfacet
  facet normal 1 -1.22461e-016 0
    outer loop
      vertex 20 -9.5 0.5
      vertex 20 -11.5 -1.5
      vertex 20 -8.5 -1.5
    endloop
  endfacet
  facet normal 1 -1.22461e-016 0
    outer loop
      vertex 20 -11.5 11.5
      vertex 20 -11.5 -1.5
      vertex 20 -9.5 0.5
    endloop
  endfacet
  facet normal 1 -1.22461e-016 0
    outer loop
      vertex 20 -9.5 1.5
      vertex 20 -9.5 11.5
      vertex 20 -11.5 11.5
    endloop
  endfacet
  facet normal 1 -1.22461e-016 0
    outer loop
      vertex 20 -11.5 11.5
      vertex 20 -9.5 0.5
      vertex 20 -9.5 1.5
    endloop
  endfacet
  facet normal 1 -1.22461e-016 0
    outer loop
      vertex 20 -8.5 0.5
      vertex 20 -9.5 0.5
      vertex 20 -8.5 -1.5
    endloop
  endfacet
  facet normal 1 -1.36718e-016 0
    outer loop
      vertex 20 -8.5 0.5
      vertex 20 -8.5 -1.5
      vertex 20 8.5 -1.5
    endloop
  endfacet
  facet normal 1 -1.36718e-016 0
    outer loop
      vertex 20 8.5 0.5
      vertex 20 -8.5 0.5
      vertex 20 8.5 -1.5
    endloop
  endfacet
  facet normal 1 -2.44921e-016 0
    outer loop
      vertex 20 8.5 0.5
      vertex 20 8.5 -1.5
      vertex 20 11.5 -1.5
    endloop
  endfacet
  facet normal 1 -2.44921e-016 0
    outer loop
      vertex 20 9.5 0.5
      vertex 20 8.5 0.5
      vertex 20 11.5 -1.5
    endloop
  endfacet
  facet normal 1 -2.44921e-016 0
    outer loop
      vertex 20 11.5 11.5
      vertex 20 9.5 0.5
      vertex 20 11.5 -1.5
    endloop
  endfacet
  facet normal 1 -2.44921e-016 0
    outer loop
      vertex 20 9.5 11.5
      vertex 20 9.5 0.5
      vertex 20 11.5 11.5
    endloop
  endfacet
  facet normal 0 1 0
    outer loop
      vertex 11.5 11.5 -1.5
      vertex 11.5 11.5 11.5
      vertex 20 11.5 -1.5
    endloop
  endfacet
  facet normal 0 1 0
    outer loop
      vertex 20 11.5 -1.5
      vertex 11.5 11.5 11.5
      vertex 20 11.5 11.5
    endloop
  endfacet
  facet normal 1 -1.36718e-016 0
    outer loop
      vertex 11.5 11.5 11.5
      vertex 11.5 11.5 -1.5
      vertex 11.5 20 -1.5
    endloop
  endfacet
  facet normal 1 -1.36718e-016 0
    outer loop
      vertex 11.5 20 11.5
      vertex 11.5 11.5 11.5
      vertex 11.5 20 -1.5
    endloop
  endfacet
  facet normal 1.36718e-016 1 0
    outer loop
      vertex 9.5 20 1.5
      vertex 9.5 20 11.5
      vertex 11.5 20 11.5
    endloop
  endfacet
  facet normal 1.36718e-016 1 0
    outer loop
      vertex 10 20 1.5
      vertex 11.5 20 11.5
      vertex 11.5 20 -1.5
    endloop
  endfacet
  facet normal 1.36718e-016 1 0
    outer loop
      vertex 9.5 20 1.5
      vertex 11.5 20 11.5
      vertex 10 20 1.5
    endloop
  endfacet
  facet normal 1.36718e-016 1 0
    outer loop
      vertex 10 20 1.5
      vertex 11.5 20 -1.5
      vertex 10 20 -1.5
    endloop
  endfacet
  facet normal 0 1 0
    outer loop
      vertex 4.89843e-015 20 -1.5
      vertex 4.89843e-015 20 0.5
      vertex 10 20 -1.5
    endloop
  endfacet
  facet normal 0 1 0
    outer loop
      vertex 10 20 -1.5
      vertex 4.89843e-015 20 0.5
      vertex 9.5 20 0.5
    endloop
  endfacet
  facet normal 0 1 0
    outer loop
      vertex 10 20 -1.5
      vertex 9.5 20 0.5
      vertex 9.5 20 1.5
    endloop
  endfacet
  facet normal 0 1 0
    outer loop
      vertex 10 20 -1.5
      vertex 9.5 20 1.5
      vertex 10 20 1.5
    endloop
  endfacet
  facet normal 2.44921e-016 1 0
    outer loop
      vertex 4.89843e-015 20 0.5
      vertex 4.89843e-015 20 -1.5
      vertex -9.5 20 0.5
    endloop
  endfacet
  facet normal 2.44921e-016 1 0
    outer loop
      vertex -10 20 -1.5
      vertex -10 20 1.5
      vertex -9.5 20 0.5
    endloop
  endfacet
  facet normal 2.44921e-016 1 0
    outer loop
      vertex -10 20 -1.5
      vertex -9.5 20 0.5
      vertex 4.89843e-015 20 -1.5
    endloop
  endfacet
  facet normal 2.44921e-016 1 0
    outer loop
      vertex -9.5 20 0.5
      vertex -10 20 1.5
      vertex -9.5 20 1.5
    endloop
  endfacet
  facet normal 1.77321e-016 1 0
    outer loop
      vertex -11.5 20 -1.5
      vertex -11.5 20 11.5
      vertex -10 20 -1.5
    endloop
  endfacet
  facet normal 1.77321e-016 1 0
    outer loop
      vertex -10 20 1.5
      vertex -11.5 20 11.5
      vertex -9.5 20 11.5
    endloop
  endfacet
  facet normal 1.77321e-016 1 0
    outer loop
      vertex -10 20 -1.5
      vertex -11.5 20 11.5
      vertex -10 20 1.5
    endloop
  endfacet
  facet normal 1.77321e-016 1 0
    outer loop
      vertex -10 20 1.5
      vertex -9.5 20 11.5
      vertex -9.5 20 1.5
    endloop
  endfacet
  facet normal -1 1.77321e-016 0
    outer loop
      vertex -11.5 11.5 -1.5
      vertex -11.5 11.5 11.5
      vertex -11.5 20 -1.5
    endloop
  endfacet
  facet normal -1 1.77321e-016 0
    outer loop
      vertex -11.5 20 -1.5
      vertex -11.5 11.5 11.5
      vertex -11.5 20 11.5
    endloop
  endfacet
  facet normal 2.44921e-016 1 0
    outer loop
      vertex -20 11.5 -1.5
      vertex -20 11.5 11.5
      vertex -11.5 11.5 -1.5
    endloop
  endfacet
  facet normal 2.44921e-016 1 0
    outer loop
      vertex -11.5 11.5 -1.5
      vertex -20 11.5 11.5
      vertex -11.5 11.5 11.5
    endloop
  endfacet
  facet normal -1 0 0
    outer loop
      vertex -20 8.5 -1.5
      vertex -20 8.5 0.5
      vertex -20 11.5 -1.5
    endloop
  endfacet
  facet normal -1 0 0
    outer loop
      vertex -20 11.5 -1.5
      vertex -20 8.5 0.5
      vertex -20 9.5 0.5
    endloop
  endfacet
  facet normal -1 0 0
    outer loop
      vertex -20 11.5 -1.5
      vertex -20 9.5 0.5
      vertex -20 9.5 11.5
    endloop
  endfacet
  facet normal -1 0 0
    outer loop
      vertex -20 11.5 -1.5
      vertex -20 9.5 11.5
      vertex -20 11.5 11.5
    endloop
  endfacet
  facet normal 1 -1.77321e-016 0
    outer loop
      vertex -10 -8.5 1.5
      vertex -10 -8.5 -1.5
      vertex -10 1.77321e-015 -1.5
    endloop
  endfacet
  facet normal 1 -1.77321e-016 0
    outer loop
      vertex -10 1.77321e-015 1.5
      vertex -10 -8.5 1.5
      vertex -10 1.77321e-015 -1.5
    endloop
  endfacet
  facet normal 1.22461e-016 1 0
    outer loop
      vertex -10.2539 -8.5 1.5
      vertex -10.2539 -8.5 11.5
      vertex -10 -8.5 1.5
    endloop
  endfacet
  facet normal 1.22461e-016 1 0
    outer loop
      vertex -10 -8.5 1.5
      vertex -10.2539 -8.5 11.5
      vertex -10 -8.5 11.5
    endloop
  endfacet
  facet normal 1.22461e-016 1 0
    outer loop
      vertex -10 -8.5 1.5
      vertex -10 -8.5 11.5
      vertex -10 -8.5 -1.5
    endloop
  endfacet
  facet normal -1 0 0
    outer loop
      vertex -10 -10 -1.5
      vertex -10 -10 1.5
      vertex -10 1.77321e-015 -1.5
    endloop
  endfacet
  facet normal -1 0 0
    outer loop
      vertex -10 1.77321e-015 -1.5
      vertex -10 -10 1.5
      vertex -10 -8.58248 1.5
    endloop
  endfacet
  facet normal -1 0 0
    outer loop
      vertex -10 1.77321e-015 -1.5
      vertex -10 -8.58248 1.5
      vertex -10 1.77321e-015 1.5
    endloop
  endfacet
  facet normal 1 -1.22461e-016 0
    outer loop
      vertex -10 -10 1.5
      vertex -10 -10 -1.5
      vertex -10 -8.5 -1.5
    endloop
  endfacet
  facet normal 1 -1.22461e-016 0
    outer loop
      vertex -10 -8.58248 1.5
      vertex -10 -10 1.5
      vertex -10 -8.5 -1.5
    endloop
  endfacet
  facet normal 1 -1.22461e-016 0
    outer loop
      vertex -10 -8.5 11.5
      vertex -10 -8.58248 1.5
      vertex -10 -8.5 -1.5
    endloop
  endfacet
  facet normal 1 -1.22461e-016 0
    outer loop
      vertex -10 -8.58248 11.5
      vertex -10 -8.58248 1.5
      vertex -10 -8.5 11.5
    endloop
  endfacet
  facet normal 0.951057 -0.309017 0
    outer loop
      vertex -2.42705 1.76336 -1.5
      vertex -2.42705 1.76336 0
      vertex -3 0 0
    endloop
  endfacet
  facet normal 0.951057 -0.309017 0
    outer loop
      vertex -3 0 -1.5
      vertex -2.42705 1.76336 -1.5
      vertex -3 0 0
    endloop
  endfacet
  facet normal 0.951057 0.309017 0
    outer loop
      vertex -3 0 0
      vertex -2.42705 -1.76336 0
      vertex -2.42705 -1.76336 -1.5
    endloop
  endfacet
  facet normal 0.951057 0.309017 0
    outer loop
      vertex -3 0 -1.5
      vertex -3 0 0
      vertex -2.42705 -1.76336 -1.5
    endloop
  endfacet
  facet normal 0.587785 -0.809017 0
    outer loop
      vertex -0.927051 2.85317 -1.5
      vertex -0.927051 2.85317 0
      vertex -2.42705 1.76336 0
    endloop
  endfacet
  facet normal 0.587785 -0.809017 0
    outer loop
      vertex -2.42705 1.76336 -1.5
      vertex -0.927051 2.85317 -1.5
      vertex -2.42705 1.76336 0
    endloop
  endfacet
  facet normal 0 -1 0
    outer loop
      vertex 0.927051 2.85317 -1.5
      vertex 0.927051 2.85317 0
      vertex -0.927051 2.85317 0
    endloop
  endfacet
  facet normal 0 -1 0
    outer loop
      vertex -0.927051 2.85317 -1.5
      vertex 0.927051 2.85317 -1.5
      vertex -0.927051 2.85317 0
    endloop
  endfacet
  facet normal -0.587785 -0.809017 0
    outer loop
      vertex 2.42705 1.76336 -1.5
      vertex 2.42705 1.76336 0
      vertex 0.927051 2.85317 0
    endloop
  endfacet
  facet normal -0.587785 -0.809017 0
    outer loop
      vertex 0.927051 2.85317 -1.5
      vertex 2.42705 1.76336 -1.5
      vertex 0.927051 2.85317 0
    endloop
  endfacet
  facet normal -0.951057 -0.309017 0
    outer loop
      vertex 3 0 0
      vertex 2.42705 1.76336 0
      vertex 3 0 -1.5
    endloop
  endfacet
  facet normal -0.951057 -0.309017 0
    outer loop
      vertex 3 0 -1.5
      vertex 2.42705 1.76336 0
      vertex 2.42705 1.76336 -1.5
    endloop
  endfacet
  facet normal -0.951057 0.309017 0
    outer loop
      vertex 3 0 0
      vertex 3 0 -1.5
      vertex 2.42705 -1.76336 0
    endloop
  endfacet
  facet normal -0.951057 0.309017 0
    outer loop
      vertex 2.42705 -1.76336 0
      vertex 3 0 -1.5
      vertex 2.42705 -1.76336 -1.5
    endloop
  endfacet
  facet normal -0.587785 0.809017 0
    outer loop
      vertex 2.42705 -1.76336 0
      vertex 2.42705 -1.76336 -1.5
      vertex 0.927051 -2.85317 0
    endloop
  endfacet
  facet normal -0.587785 0.809017 0
    outer loop
      vertex 0.927051 -2.85317 0
      vertex 2.42705 -1.76336 -1.5
      vertex 0.927051 -2.85317 -1.5
    endloop
  endfacet
  facet normal 0 1 0
    outer loop
      vertex 0.927051 -2.85317 0
      vertex 0.927051 -2.85317 -1.5
      vertex -0.927051 -2.85317 0
    endloop
  endfacet
  facet normal 0 1 0
    outer loop
      vertex -0.927051 -2.85317 0
      vertex 0.927051 -2.85317 -1.5
      vertex -0.927051 -2.85317 -1.5
    endloop
  endfacet
  facet normal 0.587785 0.809017 0
    outer loop
      vertex -0.927051 -2.85317 0
      vertex -0.927051 -2.85317 -1.5
      vertex -2.42705 -1.76336 0
    endloop
  endfacet
  facet normal 0.587785 0.809017 0
    outer loop
      vertex -2.42705 -1.76336 0
      vertex -0.927051 -2.85317 -1.5
      vertex -2.42705 -1.76336 -1.5
    endloop
  endfacet
  facet normal 0 -1 0
    outer loop
      vertex -1.22461e-015 -10 1.5
      vertex -1.22461e-015 -10 -1.5
      vertex 10 -10 -1.5
    endloop
  endfacet
  facet normal 0 -1 0
    outer loop
      vertex 8.58248 -10 1.5
      vertex -1.22461e-015 -10 1.5
      vertex 10 -10 -1.5
    endloop
  endfacet
  facet normal 0 -1 0
    outer loop
      vertex 10 -10 1.5
      vertex 8.58248 -10 1.5
      vertex 10 -10 -1.5
    endloop
  endfacet
  facet normal 1.22461e-016 1 0
    outer loop
      vertex -1.22461e-015 -10 -1.5
      vertex -1.22461e-015 -10 1.5
      vertex 10 -10 -1.5
    endloop
  endfacet
  facet normal 1.22461e-016 1 0
    outer loop
      vertex 10 -10 -1.5
      vertex -1.22461e-015 -10 1.5
      vertex 8.58248 -10 1.5
    endloop
  endfacet
  facet normal 1.22461e-016 1 0
    outer loop
      vertex 10 -10 -1.5
      vertex 8.58248 -10 1.5
      vertex 10 -10 1.5
    endloop
  endfacet
  facet normal 1 0 0
    outer loop
      vertex 10 -1.36718e-015 1.5
      vertex 10 -1.36718e-015 -1.5
      vertex 10 8.5 -1.5
    endloop
  endfacet
  facet normal 1 0 0
    outer loop
      vertex 10 8.5 1.5
      vertex 10 -1.36718e-015 1.5
      vertex 10 8.5 -1.5
    endloop
  endfacet
  facet normal -1 1.36718e-016 0
    outer loop
      vertex 10 -1.36718e-015 -1.5
      vertex 10 -1.36718e-015 1.5
      vertex 10 8.5 -1.5
    endloop
  endfacet
  facet normal -1 1.36718e-016 0
    outer loop
      vertex 10 8.5 -1.5
      vertex 10 -1.36718e-015 1.5
      vertex 10 8.5 1.5
    endloop
  endfacet
  facet normal 0 0 1
    outer loop
      vertex -20 9.5 0.5
      vertex -11.5 -9.5 0.5
      vertex -11.5 -8.5 0.5
    endloop
  endfacet
  facet normal 0 0 1
    outer loop
      vertex -20 9.5 0.5
      vertex -11.5 8.5 0.5
      vertex -11.5 9.5 0.5
    endloop
  endfacet
  facet normal 0 0 1
    outer loop
      vertex -11.5 8.5 0.5
      vertex -20 9.5 0.5
      vertex -11.5 -8.5 0.5
    endloop
  endfacet
  facet normal 0 0 1
    outer loop
      vertex -20 8.5 0.5
      vertex -11.5 -9.5 0.5
      vertex -20 9.5 0.5
    endloop
  endfacet
  facet normal 0 0 1
    outer loop
      vertex -20 8.5 0.5
      vertex -20 -9.5 0.5
      vertex -11.5 -9.5 0.5
    endloop
  endfacet
  facet normal 1.22461e-016 1 0
    outer loop
      vertex -20 -9.5 1.5
      vertex -20 -9.5 11.5
      vertex -11.5 -9.5 11.5
    endloop
  endfacet
  facet normal 1.22461e-016 1 0
    outer loop
      vertex -20 -9.5 1.5
      vertex -11.5 -9.5 11.5
      vertex -11.5 -9.5 0.5
    endloop
  endfacet
  facet normal 1.22461e-016 1 0
    outer loop
      vertex -11.5 -9.5 0.5
      vertex -20 -9.5 0.5
      vertex -20 -9.5 1.5
    endloop
  endfacet
  facet normal 0 0 1
    outer loop
      vertex -20 -9.5 11.5
      vertex -20 -11.5 11.5
      vertex -11.5 -11.5 11.5
    endloop
  endfacet
  facet normal 0 0 1
    outer loop
      vertex -9.5 -11.5 11.5
      vertex -20 -9.5 11.5
      vertex -11.5 -11.5 11.5
    endloop
  endfacet
  facet normal 0 0 1
    outer loop
      vertex -11.5 -20 11.5
      vertex -9.5 -20 11.5
      vertex -11.5 -11.5 11.5
    endloop
  endfacet
  facet normal 0 0 1
    outer loop
      vertex -9.5 -20 11.5
      vertex -9.5 -11.5 11.5
      vertex -11.5 -11.5 11.5
    endloop
  endfacet
  facet normal 0 0 1
    outer loop
      vertex -9.5 -11.5 11.5
      vertex -8.5 -11.5 11.5
      vertex -20 -9.5 11.5
    endloop
  endfacet
  facet normal 0 0 1
    outer loop
      vertex -10.3002 -8.5 11.5
      vertex -10 -8.58248 11.5
      vertex -10.2539 -8.5 11.5
    endloop
  endfacet
  facet normal 0 0 1
    outer loop
      vertex -8.5 -11.5 11.5
      vertex -8.51366 -10 11.5
      vertex -20 -9.5 11.5
    endloop
  endfacet
  facet normal 0 0 1
    outer loop
      vertex -8.5 -11.5 11.5
      vertex -8.5 -10 11.5
      vertex -8.51366 -10 11.5
    endloop
  endfacet
  facet normal 0 0 1
    outer loop
      vertex -10.2539 -8.5 11.5
      vertex -10 -8.58248 11.5
      vertex -10 -8.5 11.5
    endloop
  endfacet
  facet normal 0 0 1
    outer loop
      vertex -10.2539 -8.5 11.5
      vertex -10.2913 -8.48782 11.5
      vertex -10.3002 -8.5 11.5
    endloop
  endfacet
  facet normal 0 0 1
    outer loop
      vertex -8.51366 -10 11.5
      vertex -11.5 -9.5 11.5
      vertex -20 -9.5 11.5
    endloop
  endfacet
  facet normal 0 0 1
    outer loop
      vertex -8.51366 -10 11.5
      vertex -8.51366 -9.06542 11.5
      vertex -11.5 -9.5 11.5
    endloop
  endfacet
  facet normal 0 0 1
    outer loop
      vertex -11.5 -8.5 11.5
      vertex -10 -8.58248 11.5
      vertex -10.3002 -8.5 11.5
    endloop
  endfacet
  facet normal 0 0 1
    outer loop
      vertex -11.5 -8.5 11.5
      vertex -8.51366 -9.06542 11.5
      vertex -10 -8.58248 11.5
    endloop
  endfacet
  facet normal 0 0 1
    outer loop
      vertex -11.5 -8.5 11.5
      vertex -11.5 -9.5 11.5
      vertex -8.51366 -9.06542 11.5
    endloop
  endfacet
  facet normal 1 -1.77321e-016 0
    outer loop
      vertex -9.5 -11.5 0.5
      vertex -9.5 -11.5 11.5
      vertex -9.5 -20 11.5
    endloop
  endfacet
  facet normal 1 -1.77321e-016 0
    outer loop
      vertex -9.5 -20 1.5
      vertex -9.5 -11.5 0.5
      vertex -9.5 -20 11.5
    endloop
  endfacet
  facet normal 1 -1.77321e-016 0
    outer loop
      vertex -9.5 -20 0.5
      vertex -9.5 -11.5 0.5
      vertex -9.5 -20 1.5
    endloop
  endfacet
  facet normal 0 0 1
    outer loop
      vertex -8.5 -11.5 0.5
      vertex 8.5 -20 0.5
      vertex 9.5 -11.5 0.5
    endloop
  endfacet
  facet normal 0 0 1
    outer loop
      vertex 9.5 -11.5 0.5
      vertex 8.5 -20 0.5
      vertex 9.5 -20 0.5
    endloop
  endfacet
  facet normal 0 0 1
    outer loop
      vertex -9.5 -20 0.5
      vertex -8.5 -11.5 0.5
      vertex -9.5 -11.5 0.5
    endloop
  endfacet
  facet normal 0 0 1
    outer loop
      vertex -9.5 -20 0.5
      vertex 8.5 -20 0.5
      vertex -8.5 -11.5 0.5
    endloop
  endfacet
  facet normal -1 1.22461e-016 0
    outer loop
      vertex 9.5 -11.5 1.5
      vertex 9.5 -11.5 0.5
      vertex 9.5 -20 1.5
    endloop
  endfacet
  facet normal -1 1.22461e-016 0
    outer loop
      vertex 9.5 -20 1.5
      vertex 9.5 -11.5 0.5
      vertex 9.5 -20 0.5
    endloop
  endfacet
  facet normal -1 1.36718e-016 0
    outer loop
      vertex 9.5 -11.5 11.5
      vertex 9.5 -11.5 1.5
      vertex 9.5 -20 11.5
    endloop
  endfacet
  facet normal -1 1.36718e-016 0
    outer loop
      vertex 9.5 -20 11.5
      vertex 9.5 -11.5 1.5
      vertex 9.5 -20 1.5
    endloop
  endfacet
  facet normal 0 0 1
    outer loop
      vertex 9.5 -11.5 11.5
      vertex 11.5 -11.5 11.5
      vertex 8.5 -10.2539 11.5
    endloop
  endfacet
  facet normal 0 0 1
    outer loop
      vertex 8.5 -10.2539 11.5
      vertex 8.48782 -10.2913 11.5
      vertex 8.5 -10.3002 11.5
    endloop
  endfacet
  facet normal 0 0 1
    outer loop
      vertex 9.5 -11.5 11.5
      vertex 8.5 -10.2539 11.5
      vertex 8.5 -10.3002 11.5
    endloop
  endfacet
  facet normal 0 0 1
    outer loop
      vertex 8.5 -11.5 11.5
      vertex 9.5 -11.5 11.5
      vertex 8.5 -10.3002 11.5
    endloop
  endfacet
  facet normal 0 0 1
    outer loop
      vertex 11.5 -11.5 11.5
      vertex 20 -11.5 11.5
      vertex 8.5 -10.2539 11.5
    endloop
  endfacet
  facet normal 0 0 1
    outer loop
      vertex 9.5 -20 11.5
      vertex 11.5 -20 11.5
      vertex 9.5 -11.5 11.5
    endloop
  endfacet
  facet normal 0 0 1
    outer loop
      vertex 11.5 -20 11.5
      vertex 11.5 -11.5 11.5
      vertex 9.5 -11.5 11.5
    endloop
  endfacet
  facet normal 0 0 1
    outer loop
      vertex 11.5 -9.5 11.5
      vertex 11.5 -8.5 11.5
      vertex 8.5 -10.2539 11.5
    endloop
  endfacet
  facet normal 0 0 1
    outer loop
      vertex 20 -11.5 11.5
      vertex 20 -9.5 11.5
      vertex 8.5 -10.2539 11.5
    endloop
  endfacet
  facet normal 0 0 1
    outer loop
      vertex 20 -9.5 11.5
      vertex 11.5 -9.5 11.5
      vertex 8.5 -10.2539 11.5
    endloop
  endfacet
  facet normal 0 0 1
    outer loop
      vertex 8.58248 -10 11.5
      vertex 8.5 -10 11.5
      vertex 8.5 -10.2539 11.5
    endloop
  endfacet
  facet normal 0 0 1
    outer loop
      vertex 11.5 -8.5 11.5
      vertex 10 -8.51366 11.5
      vertex 8.5 -10.2539 11.5
    endloop
  endfacet
  facet normal 0 0 1
    outer loop
      vertex 11.5 -8.5 11.5
      vertex 10 -8.5 11.5
      vertex 10 -8.51366 11.5
    endloop
  endfacet
  facet normal 0 0 1
    outer loop
      vertex 10 -8.51366 11.5
      vertex 8.58248 -10 11.5
      vertex 8.5 -10.2539 11.5
    endloop
  endfacet
  facet normal 0 0 1
    outer loop
      vertex 10 -8.51366 11.5
      vertex 9.06542 -8.51366 11.5
      vertex 8.58248 -10 11.5
    endloop
  endfacet
  facet normal 1.22461e-016 1 0
    outer loop
      vertex 20 -9.5 11.5
      vertex 20 -9.5 1.5
      vertex 11.5 -9.5 11.5
    endloop
  endfacet
  facet normal 1.22461e-016 1 0
    outer loop
      vertex 11.5 -9.5 11.5
      vertex 20 -9.5 1.5
      vertex 11.5 -9.5 1.5
    endloop
  endfacet
  facet normal 1.36718e-016 1 0
    outer loop
      vertex 20 -9.5 1.5
      vertex 20 -9.5 0.5
      vertex 11.5 -9.5 1.5
    endloop
  endfacet
  facet normal 1.36718e-016 1 0
    outer loop
      vertex 11.5 -9.5 1.5
      vertex 20 -9.5 0.5
      vertex 11.5 -9.5 0.5
    endloop
  endfacet
  facet normal 0 0 1
    outer loop
      vertex 11.5 9.5 0.5
      vertex 20 -9.5 0.5
      vertex 20 -8.5 0.5
    endloop
  endfacet
  facet normal 0 0 1
    outer loop
      vertex 11.5 9.5 0.5
      vertex 20 8.5 0.5
      vertex 20 9.5 0.5
    endloop
  endfacet
  facet normal 0 0 1
    outer loop
      vertex 20 8.5 0.5
      vertex 11.5 9.5 0.5
      vertex 20 -8.5 0.5
    endloop
  endfacet
  facet normal 0 0 1
    outer loop
      vertex 11.5 8.5 0.5
      vertex 20 -9.5 0.5
      vertex 11.5 9.5 0.5
    endloop
  endfacet
  facet normal 0 0 1
    outer loop
      vertex 11.5 8.5 0.5
      vertex 11.5 -9.5 0.5
      vertex 20 -9.5 0.5
    endloop
  endfacet
  facet normal 0 -1 0
    outer loop
      vertex 20 9.5 0.5
      vertex 20 9.5 11.5
      vertex 11.5 9.5 11.5
    endloop
  endfacet
  facet normal 0 -1 0
    outer loop
      vertex 11.5 9.5 0.5
      vertex 20 9.5 0.5
      vertex 11.5 9.5 11.5
    endloop
  endfacet
  facet normal 0 0 1
    outer loop
      vertex 8.51366 9.06542 11.5
      vertex 10 8.58248 11.5
      vertex 8.51366 10 11.5
    endloop
  endfacet
  facet normal 0 0 1
    outer loop
      vertex 8.5 11.5 11.5
      vertex 8.5 10 11.5
      vertex 8.51366 10 11.5
    endloop
  endfacet
  facet normal 0 0 1
    outer loop
      vertex 10 8.58248 11.5
      vertex 8.5 11.5 11.5
      vertex 8.51366 10 11.5
    endloop
  endfacet
  facet normal 0 0 1
    outer loop
      vertex 10 8.58248 11.5
      vertex 10.2539 8.5 11.5
      vertex 8.5 11.5 11.5
    endloop
  endfacet
  facet normal 0 0 1
    outer loop
      vertex 10 8.5 11.5
      vertex 10.2539 8.5 11.5
      vertex 10 8.58248 11.5
    endloop
  endfacet
  facet normal 0 0 1
    outer loop
      vertex 10.3002 8.5 11.5
      vertex 11.5 8.5 11.5
      vertex 8.5 11.5 11.5
    endloop
  endfacet
  facet normal 0 0 1
    outer loop
      vertex 10.2539 8.5 11.5
      vertex 10.2913 8.48782 11.5
      vertex 8.5 11.5 11.5
    endloop
  endfacet
  facet normal 0 0 1
    outer loop
      vertex 10.2913 8.48782 11.5
      vertex 10.3002 8.5 11.5
      vertex 8.5 11.5 11.5
    endloop
  endfacet
  facet normal 0 0 1
    outer loop
      vertex 11.5 9.5 11.5
      vertex 20 9.5 11.5
      vertex 8.5 11.5 11.5
    endloop
  endfacet
  facet normal 0 0 1
    outer loop
      vertex 20 11.5 11.5
      vertex 9.5 11.5 11.5
      vertex 8.5 11.5 11.5
    endloop
  endfacet
  facet normal 0 0 1
    outer loop
      vertex 11.5 11.5 11.5
      vertex 9.5 11.5 11.5
      vertex 20 11.5 11.5
    endloop
  endfacet
  facet normal 0 0 1
    outer loop
      vertex 20 9.5 11.5
      vertex 20 11.5 11.5
      vertex 8.5 11.5 11.5
    endloop
  endfacet
  facet normal 0 0 1
    outer loop
      vertex 9.5 20 11.5
      vertex 11.5 11.5 11.5
      vertex 11.5 20 11.5
    endloop
  endfacet
  facet normal 0 0 1
    outer loop
      vertex 11.5 8.5 11.5
      vertex 11.5 9.5 11.5
      vertex 8.5 11.5 11.5
    endloop
  endfacet
  facet normal 0 0 1
    outer loop
      vertex 9.5 20 11.5
      vertex 9.5 11.5 11.5
      vertex 11.5 11.5 11.5
    endloop
  endfacet
  facet normal -1 2.44921e-016 0
    outer loop
      vertex 9.5 20 1.5
      vertex 9.5 20 0.5
      vertex 9.5 11.5 1.5
    endloop
  endfacet
  facet normal -1 2.44921e-016 0
    outer loop
      vertex 9.5 11.5 1.5
      vertex 9.5 20 0.5
      vertex 9.5 11.5 0.5
    endloop
  endfacet
  facet normal -1 1.36718e-016 0
    outer loop
      vertex 9.5 20 11.5
      vertex 9.5 20 1.5
      vertex 9.5 11.5 11.5
    endloop
  endfacet
  facet normal -1 1.36718e-016 0
    outer loop
      vertex 9.5 11.5 11.5
      vertex 9.5 20 1.5
      vertex 9.5 11.5 1.5
    endloop
  endfacet
  facet normal 0 0 1
    outer loop
      vertex 2.81659e-015 11.5 0.5
      vertex 9.5 11.5 0.5
      vertex 9.5 20 0.5
    endloop
  endfacet
  facet normal 0 0 1
    outer loop
      vertex -9.5 20 0.5
      vertex 2.81659e-015 11.5 0.5
      vertex 4.89843e-015 20 0.5
    endloop
  endfacet
  facet normal 0 0 1
    outer loop
      vertex 4.89843e-015 20 0.5
      vertex 2.81659e-015 11.5 0.5
      vertex 9.5 20 0.5
    endloop
  endfacet
  facet normal 0 0 1
    outer loop
      vertex -9.5 11.5 0.5
      vertex 2.81659e-015 11.5 0.5
      vertex -9.5 20 0.5
    endloop
  endfacet
  facet normal 1 0 0
    outer loop
      vertex -9.5 11.5 0.5
      vertex -9.5 20 0.5
      vertex -9.5 11.5 1.5
    endloop
  endfacet
  facet normal 1 0 0
    outer loop
      vertex -9.5 11.5 1.5
      vertex -9.5 20 0.5
      vertex -9.5 20 1.5
    endloop
  endfacet
  facet normal 1 -1.77321e-016 0
    outer loop
      vertex -9.5 20 1.5
      vertex -9.5 20 11.5
      vertex -9.5 11.5 11.5
    endloop
  endfacet
  facet normal 1 -1.77321e-016 0
    outer loop
      vertex -9.5 11.5 1.5
      vertex -9.5 20 1.5
      vertex -9.5 11.5 11.5
    endloop
  endfacet
  facet normal 0 0 1
    outer loop
      vertex -11.5 8.5 11.5
      vertex -10 8.5 11.5
      vertex -11.5 9.5 11.5
    endloop
  endfacet
  facet normal 0 0 1
    outer loop
      vertex -20 11.5 11.5
      vertex -20 9.5 11.5
      vertex -11.5 9.5 11.5
    endloop
  endfacet
  facet normal 0 0 1
    outer loop
      vertex -8.58248 10 11.5
      vertex -20 11.5 11.5
      vertex -11.5 9.5 11.5
    endloop
  endfacet
  facet normal 0 0 1
    outer loop
      vertex -10 8.51366 11.5
      vertex -9.06542 8.51366 11.5
      vertex -11.5 9.5 11.5
    endloop
  endfacet
  facet normal 0 0 1
    outer loop
      vertex -10 8.5 11.5
      vertex -10 8.51366 11.5
      vertex -11.5 9.5 11.5
    endloop
  endfacet
  facet normal 0 0 1
    outer loop
      vertex -8.5 10.2539 11.5
      vertex -8.48782 10.2913 11.5
      vertex -20 11.5 11.5
    endloop
  endfacet
  facet normal 0 0 1
    outer loop
      vertex -9.06542 8.51366 11.5
      vertex -8.58248 10 11.5
      vertex -11.5 9.5 11.5
    endloop
  endfacet
  facet normal 0 0 1
    outer loop
      vertex -8.58248 10 11.5
      vertex -8.5 10 11.5
      vertex -20 11.5 11.5
    endloop
  endfacet
  facet normal 0 0 1
    outer loop
      vertex -8.5 10 11.5
      vertex -8.5 10.2539 11.5
      vertex -20 11.5 11.5
    endloop
  endfacet
  facet normal 0 0 1
    outer loop
      vertex -8.48782 10.2913 11.5
      vertex -8.5 10.3002 11.5
      vertex -20 11.5 11.5
    endloop
  endfacet
  facet normal 0 0 1
    outer loop
      vertex -9.5 11.5 11.5
      vertex -9.5 20 11.5
      vertex -11.5 11.5 11.5
    endloop
  endfacet
  facet normal 0 0 1
    outer loop
      vertex -8.5 10.3002 11.5
      vertex -8.5 11.5 11.5
      vertex -20 11.5 11.5
    endloop
  endfacet
  facet normal 0 0 1
    outer loop
      vertex -20 11.5 11.5
      vertex -9.5 11.5 11.5
      vertex -11.5 11.5 11.5
    endloop
  endfacet
  facet normal 0 0 1
    outer loop
      vertex -11.5 20 11.5
      vertex -11.5 11.5 11.5
      vertex -9.5 20 11.5
    endloop
  endfacet
  facet normal 0 0 1
    outer loop
      vertex -9.5 11.5 11.5
      vertex -20 11.5 11.5
      vertex -8.5 11.5 11.5
    endloop
  endfacet
  facet normal -2.44921e-016 -1 0
    outer loop
      vertex -11.5 9.5 0.5
      vertex -11.5 9.5 11.5
      vertex -20 9.5 11.5
    endloop
  endfacet
  facet normal -2.44921e-016 -1 0
    outer loop
      vertex -20 9.5 0.5
      vertex -11.5 9.5 0.5
      vertex -20 9.5 11.5
    endloop
  endfacet
  facet normal 0 0 1
    outer loop
      vertex 4.73484 -3.68528 1.5
      vertex 10 -8.51366 1.5
      vertex 10 -8.5 1.5
    endloop
  endfacet
  facet normal 0 0 1
    outer loop
      vertex -10.2913 -8.48782 1.5
      vertex -11.5 8.5 1.5
      vertex -10.3002 -8.5 1.5
    endloop
  endfacet
  facet normal 0 0 1
    outer loop
      vertex -10.3002 -8.5 1.5
      vertex -11.5 8.5 1.5
      vertex -11.5 -8.5 1.5
    endloop
  endfacet
  facet normal 0 0 1
    outer loop
      vertex -10.2539 -8.5 1.5
      vertex -11.5 8.5 1.5
      vertex -10.2913 -8.48782 1.5
    endloop
  endfacet
  facet normal 0 0 1
    outer loop
      vertex -10 -8.5 1.5
      vertex -11.5 8.5 1.5
      vertex -10.2539 -8.5 1.5
    endloop
  endfacet
  facet normal 0 0 1
    outer loop
      vertex -10 1.77321e-015 1.5
      vertex -11.5 8.5 1.5
      vertex -10 -8.5 1.5
    endloop
  endfacet
  facet normal 0 0 1
    outer loop
      vertex -5.91817 -0.987568 1.5
      vertex -11.5 8.5 1.5
      vertex -10 1.77321e-015 1.5
    endloop
  endfacet
  facet normal 0 0 1
    outer loop
      vertex -8.51366 -9.06542 1.5
      vertex -10 1.77321e-015 1.5
      vertex -10 -8.58248 1.5
    endloop
  endfacet
  facet normal 0 0 1
    outer loop
      vertex -8.5 -10 1.5
      vertex 8.5 -11.5 1.5
      vertex -8.51366 -9.06542 1.5
    endloop
  endfacet
  facet normal 0 0 1
    outer loop
      vertex -8.51366 -10 1.5
      vertex -8.5 -10 1.5
      vertex -8.51366 -9.06542 1.5
    endloop
  endfacet
  facet normal 0 0 1
    outer loop
      vertex -8.5 -11.5 1.5
      vertex 8.5 -11.5 1.5
      vertex -8.5 -10 1.5
    endloop
  endfacet
  facet normal 0 0 1
    outer loop
      vertex -4.06369 4.41434 1.5
      vertex -2.41017 5.49464 1.5
      vertex -11.5 8.5 1.5
    endloop
  endfacet
  facet normal 0 0 1
    outer loop
      vertex 10 8.5 1.5
      vertex 10.2913 8.48782 1.5
      vertex 10.2539 8.5 1.5
    endloop
  endfacet
  facet normal 0 0 1
    outer loop
      vertex 8.5 -11.5 1.5
      vertex 8.5 -10.3002 1.5
      vertex 8.48782 -10.2913 1.5
    endloop
  endfacet
  facet normal 0 0 1
    outer loop
      vertex -8.51366 -9.06542 1.5
      vertex -1.22461e-015 -10 1.5
      vertex -10 1.77321e-015 1.5
    endloop
  endfacet
  facet normal 0 0 1
    outer loop
      vertex -8.51366 -9.06542 1.5
      vertex 8.5 -11.5 1.5
      vertex -1.22461e-015 -10 1.5
    endloop
  endfacet
  facet normal 0 0 1
    outer loop
      vertex 1.47291 5.8164 1.5
      vertex -11.5 8.5 1.5
      vertex -0.495476 5.97951 1.5
    endloop
  endfacet
  facet normal 0 0 1
    outer loop
      vertex -8.5 10 1.5
      vertex 8.51366 9.06542 1.5
      vertex 8.5 10 1.5
    endloop
  endfacet
  facet normal 0 0 1
    outer loop
      vertex 3.28169 -5.023 1.5
      vertex 1.47291 -5.8164 1.5
      vertex 8.58248 -10 1.5
    endloop
  endfacet
  facet normal 0 0 1
    outer loop
      vertex 8.5 10 1.5
      vertex 8.51366 9.06542 1.5
      vertex 8.51366 10 1.5
    endloop
  endfacet
  facet normal 0 0 1
    outer loop
      vertex 11.5 -8.5 1.5
      vertex 11.5 8.5 1.5
      vertex 10.2913 8.48782 1.5
    endloop
  endfacet
  facet normal 0 0 1
    outer loop
      vertex -8.58248 10 1.5
      vertex 8.51366 9.06542 1.5
      vertex -8.5 10 1.5
    endloop
  endfacet
  facet normal 0 0 1
    outer loop
      vertex 4.73484 3.68528 1.5
      vertex 5.6749 1.9482 1.5
      vertex 10 -1.36718e-015 1.5
    endloop
  endfacet
  facet normal 0 0 1
    outer loop
      vertex 11.5 -8.5 1.5
      vertex 10.2913 8.48782 1.5
      vertex 10 -1.36718e-015 1.5
    endloop
  endfacet
  facet normal 0 0 1
    outer loop
      vertex -8.58248 10 1.5
      vertex -9.06542 8.51366 1.5
      vertex 8.51366 9.06542 1.5
    endloop
  endfacet
  facet normal 0 0 1
    outer loop
      vertex -9.06542 8.51366 1.5
      vertex -10 8.5 1.5
      vertex 10 8.58248 1.5
    endloop
  endfacet
  facet normal 0 0 1
    outer loop
      vertex -9.06542 8.51366 1.5
      vertex 10 8.58248 1.5
      vertex 8.51366 9.06542 1.5
    endloop
  endfacet
  facet normal 0 0 1
    outer loop
      vertex -10 8.51366 1.5
      vertex -10 8.5 1.5
      vertex -9.06542 8.51366 1.5
    endloop
  endfacet
  facet normal 0 0 1
    outer loop
      vertex -5.27684 2.85568 1.5
      vertex -4.06369 4.41434 1.5
      vertex -11.5 8.5 1.5
    endloop
  endfacet
  facet normal 0 0 1
    outer loop
      vertex 2.81659e-015 11.5 1.5
      vertex -8.5 11.5 1.5
      vertex -8.5 10.3002 1.5
    endloop
  endfacet
  facet normal 0 0 1
    outer loop
      vertex 2.81659e-015 11.5 1.5
      vertex -8.5 10.3002 1.5
      vertex -8.48782 10.2913 1.5
    endloop
  endfacet
  facet normal 0 0 1
    outer loop
      vertex 2.81659e-015 11.5 1.5
      vertex -8.48782 10.2913 1.5
      vertex -8.5 10.2539 1.5
    endloop
  endfacet
  facet normal 0 0 1
    outer loop
      vertex 2.81659e-015 11.5 1.5
      vertex -8.5 10.2539 1.5
      vertex -8.5 10 1.5
    endloop
  endfacet
  facet normal 0 0 1
    outer loop
      vertex -5.91817 0.987568 1.5
      vertex -5.27684 2.85568 1.5
      vertex -11.5 8.5 1.5
    endloop
  endfacet
  facet normal 0 0 1
    outer loop
      vertex -4.06369 -4.41434 1.5
      vertex -5.27684 -2.85568 1.5
      vertex -10 1.77321e-015 1.5
    endloop
  endfacet
  facet normal 0 0 1
    outer loop
      vertex 10 8.5 1.5
      vertex 10 8.58248 1.5
      vertex -10 8.5 1.5
    endloop
  endfacet
  facet normal 0 0 1
    outer loop
      vertex -5.27684 -2.85568 1.5
      vertex -5.91817 -0.987568 1.5
      vertex -10 1.77321e-015 1.5
    endloop
  endfacet
  facet normal 0 0 1
    outer loop
      vertex -5.91817 0.987568 1.5
      vertex -11.5 8.5 1.5
      vertex -5.91817 -0.987568 1.5
    endloop
  endfacet
  facet normal 0 0 1
    outer loop
      vertex 5.6749 -1.9482 1.5
      vertex 4.73484 -3.68528 1.5
      vertex 11.5 -8.5 1.5
    endloop
  endfacet
  facet normal 0 0 1
    outer loop
      vertex -8.5 10 1.5
      vertex 8.5 11.5 1.5
      vertex 2.81659e-015 11.5 1.5
    endloop
  endfacet
  facet normal 0 0 1
    outer loop
      vertex -2.41017 5.49464 1.5
      vertex -0.495476 5.97951 1.5
      vertex -11.5 8.5 1.5
    endloop
  endfacet
  facet normal 0 0 1
    outer loop
      vertex -8.5 10 1.5
      vertex 8.5 10 1.5
      vertex 8.5 11.5 1.5
    endloop
  endfacet
  facet normal 0 0 1
    outer loop
      vertex 10 -1.36718e-015 1.5
      vertex 3.28169 5.023 1.5
      vertex 4.73484 3.68528 1.5
    endloop
  endfacet
  facet normal 0 0 1
    outer loop
      vertex 4.73484 -3.68528 1.5
      vertex 3.28169 -5.023 1.5
      vertex 9.06542 -8.51366 1.5
    endloop
  endfacet
  facet normal 0 0 1
    outer loop
      vertex 11.5 -8.5 1.5
      vertex 10 -1.36718e-015 1.5
      vertex 6 0 1.5
    endloop
  endfacet
  facet normal 0 0 1
    outer loop
      vertex 11.5 -8.5 1.5
      vertex 6 0 1.5
      vertex 5.6749 -1.9482 1.5
    endloop
  endfacet
  facet normal 0 0 1
    outer loop
      vertex 5.6749 1.9482 1.5
      vertex 6 0 1.5
      vertex 10 -1.36718e-015 1.5
    endloop
  endfacet
  facet normal 0 0 1
    outer loop
      vertex 10 -8.5 1.5
      vertex 11.5 -8.5 1.5
      vertex 4.73484 -3.68528 1.5
    endloop
  endfacet
  facet normal 0 0 1
    outer loop
      vertex 8.58248 -10 1.5
      vertex 9.06542 -8.51366 1.5
      vertex 3.28169 -5.023 1.5
    endloop
  endfacet
  facet normal 0 0 1
    outer loop
      vertex 3.28169 5.023 1.5
      vertex 10 8.5 1.5
      vertex 1.47291 5.8164 1.5
    endloop
  endfacet
  facet normal 0 0 1
    outer loop
      vertex 10 -1.36718e-015 1.5
      vertex 10 8.5 1.5
      vertex 3.28169 5.023 1.5
    endloop
  endfacet
  facet normal 0 0 1
    outer loop
      vertex -1.22461e-015 -10 1.5
      vertex -0.495476 -5.97951 1.5
      vertex -2.41017 -5.49464 1.5
    endloop
  endfacet
  facet normal 0 0 1
    outer loop
      vertex -1.22461e-015 -10 1.5
      vertex -4.06369 -4.41434 1.5
      vertex -10 1.77321e-015 1.5
    endloop
  endfacet
  facet normal 0 0 1
    outer loop
      vertex -1.22461e-015 -10 1.5
      vertex -2.41017 -5.49464 1.5
      vertex -4.06369 -4.41434 1.5
    endloop
  endfacet
  facet normal 0 0 1
    outer loop
      vertex -1.22461e-015 -10 1.5
      vertex 8.58248 -10 1.5
      vertex 1.47291 -5.8164 1.5
    endloop
  endfacet
  facet normal 0 0 1
    outer loop
      vertex 1.47291 5.8164 1.5
      vertex 10 8.5 1.5
      vertex -10 8.5 1.5
    endloop
  endfacet
  facet normal 0 0 1
    outer loop
      vertex 10 8.5 1.5
      vertex 10 -1.36718e-015 1.5
      vertex 10.2913 8.48782 1.5
    endloop
  endfacet
  facet normal 0 0 1
    outer loop
      vertex -1.22461e-015 -10 1.5
      vertex 1.47291 -5.8164 1.5
      vertex -0.495476 -5.97951 1.5
    endloop
  endfacet
  facet normal 0 0 1
    outer loop
      vertex 4.73484 -3.68528 1.5
      vertex 9.06542 -8.51366 1.5
      vertex 10 -8.51366 1.5
    endloop
  endfacet
  facet normal 0 0 1
    outer loop
      vertex 10.3002 8.5 1.5
      vertex 10.2913 8.48782 1.5
      vertex 11.5 8.5 1.5
    endloop
  endfacet
  facet normal 0 0 1
    outer loop
      vertex 1.47291 5.8164 1.5
      vertex -10 8.5 1.5
      vertex -11.5 8.5 1.5
    endloop
  endfacet
  facet normal 0 0 1
    outer loop
      vertex 8.5 -10 1.5
      vertex 8.48782 -10.2913 1.5
      vertex 8.5 -10.2539 1.5
    endloop
  endfacet
  facet normal 0 0 1
    outer loop
      vertex 8.48782 -10.2913 1.5
      vertex -1.22461e-015 -10 1.5
      vertex 8.5 -11.5 1.5
    endloop
  endfacet
  facet normal 0 0 1
    outer loop
      vertex 8.5 -10 1.5
      vertex -1.22461e-015 -10 1.5
      vertex 8.48782 -10.2913 1.5
    endloop
  endfacet
  facet normal 0 0 1
    outer loop
      vertex 8.58248 -10 1.5
      vertex -1.22461e-015 -10 1.5
      vertex 8.5 -10 1.5
    endloop
  endfacet
  facet normal 0.309017 0.951057 0
    outer loop
      vertex -10.2913 -8.48782 1.5
      vertex -10.2913 -8.48782 11.5
      vertex -10.2539 -8.5 1.5
    endloop
  endfacet
  facet normal 0.309017 0.951057 0
    outer loop
      vertex -10.2539 -8.5 1.5
      vertex -10.2913 -8.48782 11.5
      vertex -10.2539 -8.5 11.5
    endloop
  endfacet
  facet normal 0.309017 0.951057 0
    outer loop
      vertex -10 -8.58248 1.5
      vertex -10 -8.58248 11.5
      vertex -8.51366 -9.06542 11.5
    endloop
  endfacet
  facet normal 0.309017 0.951057 0
    outer loop
      vertex -10 -8.58248 1.5
      vertex -8.51366 -9.06542 11.5
      vertex -8.51366 -9.06542 1.5
    endloop
  endfacet
  facet normal 0 0 1
    outer loop
      vertex -5.27684 -2.85568 0
      vertex -4.06369 -4.41434 0
      vertex -2.41017 -5.49464 0
    endloop
  endfacet
  facet normal 0 0 1
    outer loop
      vertex 1.47291 -5.8164 0
      vertex -5.27684 -2.85568 0
      vertex -0.495476 -5.97951 0
    endloop
  endfacet
  facet normal 0 0 1
    outer loop
      vertex -0.495476 -5.97951 0
      vertex -5.27684 -2.85568 0
      vertex -2.41017 -5.49464 0
    endloop
  endfacet
  facet normal 0 0 1
    outer loop
      vertex 3.28169 -5.023 0
      vertex -5.27684 -2.85568 0
      vertex 1.47291 -5.8164 0
    endloop
  endfacet
  facet normal 0 0 1
    outer loop
      vertex 4.73484 -3.68528 0
      vertex -5.27684 -2.85568 0
      vertex 3.28169 -5.023 0
    endloop
  endfacet
  facet normal 0 0 1
    outer loop
      vertex 0.927051 -2.85317 0
      vertex -5.27684 -2.85568 0
      vertex 4.73484 -3.68528 0
    endloop
  endfacet
  facet normal 0 0 1
    outer loop
      vertex -0.927051 -2.85317 0
      vertex -2.42705 -1.76336 0
      vertex -5.27684 -2.85568 0
    endloop
  endfacet
  facet normal 0 0 1
    outer loop
      vertex -3 0 0
      vertex -2.42705 1.76336 0
      vertex -5.27684 -2.85568 0
    endloop
  endfacet
  facet normal 0 0 1
    outer loop
      vertex 2.42705 1.76336 0
      vertex 3 0 0
      vertex 5.6749 1.9482 0
    endloop
  endfacet
  facet normal 0 0 1
    outer loop
      vertex -0.927051 2.85317 0
      vertex 3.28169 5.023 0
      vertex 1.47291 5.8164 0
    endloop
  endfacet
  facet normal 0 0 1
    outer loop
      vertex -2.41017 5.49464 0
      vertex -5.27684 -2.85568 0
      vertex -0.495476 5.97951 0
    endloop
  endfacet
  facet normal 0 0 1
    outer loop
      vertex -4.06369 4.41434 0
      vertex -5.27684 -2.85568 0
      vertex -2.41017 5.49464 0
    endloop
  endfacet
  facet normal 0 0 1
    outer loop
      vertex -5.27684 2.85568 0
      vertex -5.27684 -2.85568 0
      vertex -4.06369 4.41434 0
    endloop
  endfacet
  facet normal 0 0 1
    outer loop
      vertex -5.91817 0.987568 0
      vertex -5.27684 -2.85568 0
      vertex -5.27684 2.85568 0
    endloop
  endfacet
  facet normal 0 0 1
    outer loop
      vertex -5.91817 -0.987568 0
      vertex -5.27684 -2.85568 0
      vertex -5.91817 0.987568 0
    endloop
  endfacet
  facet normal 0 0 1
    outer loop
      vertex 0.927051 2.85317 0
      vertex 2.42705 1.76336 0
      vertex 4.73484 3.68528 0
    endloop
  endfacet
  facet normal 0 0 1
    outer loop
      vertex -0.927051 2.85317 0
      vertex 0.927051 2.85317 0
      vertex 3.28169 5.023 0
    endloop
  endfacet
  facet normal 0 0 1
    outer loop
      vertex -0.495476 5.97951 0
      vertex -2.42705 1.76336 0
      vertex 1.47291 5.8164 0
    endloop
  endfacet
  facet normal 0 0 1
    outer loop
      vertex -0.495476 5.97951 0
      vertex -5.27684 -2.85568 0
      vertex -2.42705 1.76336 0
    endloop
  endfacet
  facet normal 0 0 1
    outer loop
      vertex -2.42705 1.76336 0
      vertex -0.927051 2.85317 0
      vertex 1.47291 5.8164 0
    endloop
  endfacet
  facet normal 0 0 1
    outer loop
      vertex 3.28169 5.023 0
      vertex 0.927051 2.85317 0
      vertex 4.73484 3.68528 0
    endloop
  endfacet
  facet normal 0 0 1
    outer loop
      vertex 4.73484 3.68528 0
      vertex 2.42705 1.76336 0
      vertex 5.6749 1.9482 0
    endloop
  endfacet
  facet normal 0 0 1
    outer loop
      vertex 5.6749 1.9482 0
      vertex 3 0 0
      vertex 6 0 0
    endloop
  endfacet
  facet normal 0 0 1
    outer loop
      vertex 6 0 0
      vertex 2.42705 -1.76336 0
      vertex 5.6749 -1.9482 0
    endloop
  endfacet
  facet normal 0 0 1
    outer loop
      vertex 5.6749 -1.9482 0
      vertex 0.927051 -2.85317 0
      vertex 4.73484 -3.68528 0
    endloop
  endfacet
  facet normal 0 0 1
    outer loop
      vertex -0.927051 -2.85317 0
      vertex -5.27684 -2.85568 0
      vertex 0.927051 -2.85317 0
    endloop
  endfacet
  facet normal 0 0 1
    outer loop
      vertex 2.42705 -1.76336 0
      vertex 0.927051 -2.85317 0
      vertex 5.6749 -1.9482 0
    endloop
  endfacet
  facet normal 0 0 1
    outer loop
      vertex 3 0 0
      vertex 2.42705 -1.76336 0
      vertex 6 0 0
    endloop
  endfacet
  facet normal 0 0 1
    outer loop
      vertex -2.42705 -1.76336 0
      vertex -3 0 0
      vertex -5.27684 -2.85568 0
    endloop
  endfacet
  facet normal -0.951057 0.309017 0
    outer loop
      vertex 8.58248 -10 1.5
      vertex 8.58248 -10 11.5
      vertex 9.06542 -8.51366 11.5
    endloop
  endfacet
  facet normal -0.951057 0.309017 0
    outer loop
      vertex 8.58248 -10 1.5
      vertex 9.06542 -8.51366 11.5
      vertex 9.06542 -8.51366 1.5
    endloop
  endfacet
  facet normal -1 0 0
    outer loop
      vertex 10 8.58248 11.5
      vertex 10 8.58248 1.5
      vertex 10 8.5 11.5
    endloop
  endfacet
  facet normal -1 0 0
    outer loop
      vertex 10 8.5 11.5
      vertex 10 8.58248 1.5
      vertex 10 8.5 1.5
    endloop
  endfacet
  facet normal -1 1.22461e-016 0
    outer loop
      vertex -11.5 -8.5 11.5
      vertex -11.5 -8.5 1.5
      vertex -11.5 -9.5 11.5
    endloop
  endfacet
  facet normal -1 1.22461e-016 0
    outer loop
      vertex -11.5 -9.5 11.5
      vertex -11.5 -8.5 1.5
      vertex -11.5 -8.5 0.5
    endloop
  endfacet
  facet normal -1 1.22461e-016 0
    outer loop
      vertex -11.5 -9.5 11.5
      vertex -11.5 -8.5 0.5
      vertex -11.5 -9.5 0.5
    endloop
  endfacet
  facet normal -1 2.44921e-016 0
    outer loop
      vertex -11.5 9.5 11.5
      vertex -11.5 9.5 0.5
      vertex -11.5 8.5 11.5
    endloop
  endfacet
  facet normal -1 2.44921e-016 0
    outer loop
      vertex -11.5 8.5 11.5
      vertex -11.5 9.5 0.5
      vertex -11.5 8.5 0.5
    endloop
  endfacet
  facet normal 2.44921e-016 1 0
    outer loop
      vertex -11.5 8.5 11.5
      vertex -11.5 8.5 0.5
      vertex -11.5 8.5 1.5
    endloop
  endfacet
  facet normal -1 1.77321e-016 0
    outer loop
      vertex -11.5 8.5 1.5
      vertex -11.5 8.5 0.5
      vertex -11.5 -8.5 1.5
    endloop
  endfacet
  facet normal -1 1.77321e-016 0
    outer loop
      vertex -11.5 -8.5 1.5
      vertex -11.5 8.5 0.5
      vertex -11.5 -8.5 0.5
    endloop
  endfacet
  facet normal 1.22461e-016 1 0
    outer loop
      vertex -11.5 -8.5 1.5
      vertex -11.5 -8.5 11.5
      vertex -10.3002 -8.5 1.5
    endloop
  endfacet
  facet normal 1.22461e-016 1 0
    outer loop
      vertex -10.3002 -8.5 1.5
      vertex -11.5 -8.5 11.5
      vertex -10.3002 -8.5 11.5
    endloop
  endfacet
  facet normal -0.809017 0.587785 0
    outer loop
      vertex -10.3002 -8.5 1.5
      vertex -10.3002 -8.5 11.5
      vertex -10.2913 -8.48782 1.5
    endloop
  endfacet
  facet normal -0.809017 0.587785 0
    outer loop
      vertex -10.2913 -8.48782 1.5
      vertex -10.3002 -8.5 11.5
      vertex -10.2913 -8.48782 11.5
    endloop
  endfacet
  facet normal 1 -1.22461e-016 0
    outer loop
      vertex -8.51366 -10 11.5
      vertex -8.51366 -10 1.5
      vertex -8.51366 -9.06542 1.5
    endloop
  endfacet
  facet normal 1 -1.22461e-016 0
    outer loop
      vertex -8.51366 -9.06542 11.5
      vertex -8.51366 -10 11.5
      vertex -8.51366 -9.06542 1.5
    endloop
  endfacet
  facet normal 1.77321e-016 1 0
    outer loop
      vertex -8.51366 -10 1.5
      vertex -8.51366 -10 11.5
      vertex -8.5 -10 1.5
    endloop
  endfacet
  facet normal 1.77321e-016 1 0
    outer loop
      vertex -8.5 -10 1.5
      vertex -8.51366 -10 11.5
      vertex -8.5 -10 11.5
    endloop
  endfacet
  facet normal 1 -1.77321e-016 0
    outer loop
      vertex -8.5 -11.5 11.5
      vertex -8.5 -11.5 1.5
      vertex -8.5 -10 1.5
    endloop
  endfacet
  facet normal 1 -1.77321e-016 0
    outer loop
      vertex -8.5 -10 11.5
      vertex -8.5 -11.5 11.5
      vertex -8.5 -10 1.5
    endloop
  endfacet
  facet normal -1.77321e-016 -1 0
    outer loop
      vertex -8.5 -11.5 1.5
      vertex -8.5 -11.5 11.5
      vertex -9.5 -11.5 11.5
    endloop
  endfacet
  facet normal -1.77321e-016 -1 0
    outer loop
      vertex -8.5 -11.5 0.5
      vertex -8.5 -11.5 1.5
      vertex -9.5 -11.5 11.5
    endloop
  endfacet
  facet normal -1.77321e-016 -1 0
    outer loop
      vertex -9.5 -11.5 0.5
      vertex -8.5 -11.5 0.5
      vertex -9.5 -11.5 11.5
    endloop
  endfacet
  facet normal -1.22461e-016 -1 0
    outer loop
      vertex 9.5 -11.5 0.5
      vertex 9.5 -11.5 1.5
      vertex 8.5 -11.5 1.5
    endloop
  endfacet
  facet normal -1.22461e-016 -1 0
    outer loop
      vertex -8.5 -11.5 0.5
      vertex 9.5 -11.5 0.5
      vertex -8.5 -11.5 1.5
    endloop
  endfacet
  facet normal -1.22461e-016 -1 0
    outer loop
      vertex -8.5 -11.5 1.5
      vertex 9.5 -11.5 0.5
      vertex 8.5 -11.5 1.5
    endloop
  endfacet
  facet normal -1 1.36718e-016 0
    outer loop
      vertex 8.5 -11.5 1.5
      vertex 8.5 -11.5 11.5
      vertex 8.5 -10.3002 11.5
    endloop
  endfacet
  facet normal -1 1.36718e-016 0
    outer loop
      vertex 8.5 -11.5 1.5
      vertex 8.5 -10.3002 11.5
      vertex 8.5 -10.3002 1.5
    endloop
  endfacet
  facet normal -1.36718e-016 -1 0
    outer loop
      vertex 9.5 -11.5 1.5
      vertex 9.5 -11.5 11.5
      vertex 8.5 -11.5 11.5
    endloop
  endfacet
  facet normal -1.36718e-016 -1 0
    outer loop
      vertex 8.5 -11.5 1.5
      vertex 9.5 -11.5 1.5
      vertex 8.5 -11.5 11.5
    endloop
  endfacet
  facet normal -0.951057 0.309017 0
    outer loop
      vertex 8.48782 -10.2913 1.5
      vertex 8.48782 -10.2913 11.5
      vertex 8.5 -10.2539 1.5
    endloop
  endfacet
  facet normal -0.951057 0.309017 0
    outer loop
      vertex 8.5 -10.2539 1.5
      vertex 8.48782 -10.2913 11.5
      vertex 8.5 -10.2539 11.5
    endloop
  endfacet
  facet normal -1 1.36718e-016 0
    outer loop
      vertex 8.5 -10.2539 1.5
      vertex 8.5 -10.2539 11.5
      vertex 8.5 -10 1.5
    endloop
  endfacet
  facet normal -1 1.36718e-016 0
    outer loop
      vertex 8.5 -10 1.5
      vertex 8.5 -10.2539 11.5
      vertex 8.5 -10 11.5
    endloop
  endfacet
  facet normal 1.36718e-016 1 0
    outer loop
      vertex 8.5 -10 1.5
      vertex 8.5 -10 11.5
      vertex 8.58248 -10 1.5
    endloop
  endfacet
  facet normal 1.36718e-016 1 0
    outer loop
      vertex 8.58248 -10 1.5
      vertex 8.5 -10 11.5
      vertex 8.58248 -10 11.5
    endloop
  endfacet
  facet normal 1.36718e-016 1 0
    outer loop
      vertex 9.06542 -8.51366 1.5
      vertex 9.06542 -8.51366 11.5
      vertex 10 -8.51366 1.5
    endloop
  endfacet
  facet normal 1.36718e-016 1 0
    outer loop
      vertex 10 -8.51366 1.5
      vertex 9.06542 -8.51366 11.5
      vertex 10 -8.51366 11.5
    endloop
  endfacet
  facet normal -1 1.22461e-016 0
    outer loop
      vertex 10 -8.51366 1.5
      vertex 10 -8.51366 11.5
      vertex 10 -8.5 1.5
    endloop
  endfacet
  facet normal -1 1.22461e-016 0
    outer loop
      vertex 10 -8.5 1.5
      vertex 10 -8.51366 11.5
      vertex 10 -8.5 11.5
    endloop
  endfacet
  facet normal 1.22461e-016 1 0
    outer loop
      vertex 10 -8.5 1.5
      vertex 10 -8.5 11.5
      vertex 11.5 -8.5 1.5
    endloop
  endfacet
  facet normal 1.22461e-016 1 0
    outer loop
      vertex 11.5 -8.5 1.5
      vertex 10 -8.5 11.5
      vertex 11.5 -8.5 11.5
    endloop
  endfacet
  facet normal 1 -1.22461e-016 0
    outer loop
      vertex 11.5 -8.5 1.5
      vertex 11.5 -8.5 11.5
      vertex 11.5 -9.5 11.5
    endloop
  endfacet
  facet normal 1 -1.22461e-016 0
    outer loop
      vertex 11.5 -9.5 1.5
      vertex 11.5 -8.5 1.5
      vertex 11.5 -9.5 11.5
    endloop
  endfacet
  facet normal -0.587785 -0.809017 0
    outer loop
      vertex 8.48782 -10.2913 11.5
      vertex 8.48782 -10.2913 1.5
      vertex 8.5 -10.3002 1.5
    endloop
  endfacet
  facet normal -0.587785 -0.809017 0
    outer loop
      vertex 8.5 -10.3002 11.5
      vertex 8.48782 -10.2913 11.5
      vertex 8.5 -10.3002 1.5
    endloop
  endfacet
  facet normal 1 -1.36718e-016 0
    outer loop
      vertex 11.5 -9.5 1.5
      vertex 11.5 8.5 0.5
      vertex 11.5 -8.5 1.5
    endloop
  endfacet
  facet normal 1 -1.36718e-016 0
    outer loop
      vertex 11.5 -8.5 1.5
      vertex 11.5 8.5 0.5
      vertex 11.5 8.5 1.5
    endloop
  endfacet
  facet normal 1 -1.36718e-016 0
    outer loop
      vertex 11.5 -9.5 0.5
      vertex 11.5 8.5 0.5
      vertex 11.5 -9.5 1.5
    endloop
  endfacet
  facet normal 0 1 0
    outer loop
      vertex 11.5 8.5 11.5
      vertex 11.5 8.5 1.5
      vertex 11.5 8.5 0.5
    endloop
  endfacet
  facet normal 1 0 0
    outer loop
      vertex 11.5 9.5 0.5
      vertex 11.5 9.5 11.5
      vertex 11.5 8.5 11.5
    endloop
  endfacet
  facet normal 1 0 0
    outer loop
      vertex 11.5 8.5 0.5
      vertex 11.5 9.5 0.5
      vertex 11.5 8.5 11.5
    endloop
  endfacet
  facet normal -1 1.36718e-016 0
    outer loop
      vertex 8.5 10 1.5
      vertex 8.5 10 11.5
      vertex 8.5 11.5 1.5
    endloop
  endfacet
  facet normal -1 1.36718e-016 0
    outer loop
      vertex 8.5 11.5 1.5
      vertex 8.5 10 11.5
      vertex 8.5 11.5 11.5
    endloop
  endfacet
  facet normal 1.36718e-016 1 0
    outer loop
      vertex 9.5 11.5 11.5
      vertex 9.5 11.5 1.5
      vertex 8.5 11.5 11.5
    endloop
  endfacet
  facet normal 1.36718e-016 1 0
    outer loop
      vertex 8.5 11.5 11.5
      vertex 9.5 11.5 1.5
      vertex 8.5 11.5 1.5
    endloop
  endfacet
  facet normal -2.44921e-016 -1 0
    outer loop
      vertex 10.3002 8.5 11.5
      vertex 10.3002 8.5 1.5
      vertex 11.5 8.5 1.5
    endloop
  endfacet
  facet normal -2.44921e-016 -1 0
    outer loop
      vertex 11.5 8.5 11.5
      vertex 10.3002 8.5 11.5
      vertex 11.5 8.5 1.5
    endloop
  endfacet
  facet normal 0.809017 -0.587785 0
    outer loop
      vertex 10.2913 8.48782 11.5
      vertex 10.2913 8.48782 1.5
      vertex 10.3002 8.5 1.5
    endloop
  endfacet
  facet normal 0.809017 -0.587785 0
    outer loop
      vertex 10.3002 8.5 11.5
      vertex 10.2913 8.48782 11.5
      vertex 10.3002 8.5 1.5
    endloop
  endfacet
  facet normal -0.309017 -0.951057 0
    outer loop
      vertex 10.2539 8.5 11.5
      vertex 10.2539 8.5 1.5
      vertex 10.2913 8.48782 1.5
    endloop
  endfacet
  facet normal -0.309017 -0.951057 0
    outer loop
      vertex 10.2913 8.48782 11.5
      vertex 10.2539 8.5 11.5
      vertex 10.2913 8.48782 1.5
    endloop
  endfacet
  facet normal -2.44921e-016 -1 0
    outer loop
      vertex 10 8.5 11.5
      vertex 10 8.5 1.5
      vertex 10.2539 8.5 1.5
    endloop
  endfacet
  facet normal -2.44921e-016 -1 0
    outer loop
      vertex 10.2539 8.5 11.5
      vertex 10 8.5 11.5
      vertex 10.2539 8.5 1.5
    endloop
  endfacet
  facet normal -0.309017 -0.951057 0
    outer loop
      vertex 8.51366 9.06542 11.5
      vertex 8.51366 9.06542 1.5
      vertex 10 8.58248 1.5
    endloop
  endfacet
  facet normal -0.309017 -0.951057 0
    outer loop
      vertex 10 8.58248 11.5
      vertex 8.51366 9.06542 11.5
      vertex 10 8.58248 1.5
    endloop
  endfacet
  facet normal -1 0 0
    outer loop
      vertex 8.51366 9.06542 1.5
      vertex 8.51366 9.06542 11.5
      vertex 8.51366 10 1.5
    endloop
  endfacet
  facet normal -1 0 0
    outer loop
      vertex 8.51366 10 1.5
      vertex 8.51366 9.06542 11.5
      vertex 8.51366 10 11.5
    endloop
  endfacet
  facet normal -1.36718e-016 -1 0
    outer loop
      vertex 8.5 10 11.5
      vertex 8.5 10 1.5
      vertex 8.51366 10 1.5
    endloop
  endfacet
  facet normal -1.36718e-016 -1 0
    outer loop
      vertex 8.51366 10 11.5
      vertex 8.5 10 11.5
      vertex 8.51366 10 1.5
    endloop
  endfacet
  facet normal 2.44921e-016 1 0
    outer loop
      vertex 9.5 11.5 1.5
      vertex 9.5 11.5 0.5
      vertex 8.5 11.5 1.5
    endloop
  endfacet
  facet normal 2.44921e-016 1 0
    outer loop
      vertex 8.5 11.5 1.5
      vertex 9.5 11.5 0.5
      vertex 2.81659e-015 11.5 1.5
    endloop
  endfacet
  facet normal 2.44921e-016 1 0
    outer loop
      vertex 2.81659e-015 11.5 1.5
      vertex 9.5 11.5 0.5
      vertex 2.81659e-015 11.5 0.5
    endloop
  endfacet
  facet normal 0 1 0
    outer loop
      vertex 2.81659e-015 11.5 1.5
      vertex 2.81659e-015 11.5 0.5
      vertex -8.5 11.5 1.5
    endloop
  endfacet
  facet normal 0 1 0
    outer loop
      vertex -8.5 11.5 1.5
      vertex 2.81659e-015 11.5 0.5
      vertex -9.5 11.5 1.5
    endloop
  endfacet
  facet normal 0 1 0
    outer loop
      vertex -9.5 11.5 1.5
      vertex 2.81659e-015 11.5 0.5
      vertex -9.5 11.5 0.5
    endloop
  endfacet
  facet normal 1 -1.77321e-016 0
    outer loop
      vertex -8.5 10.3002 11.5
      vertex -8.5 10.3002 1.5
      vertex -8.5 11.5 1.5
    endloop
  endfacet
  facet normal 1 -1.77321e-016 0
    outer loop
      vertex -8.5 11.5 11.5
      vertex -8.5 10.3002 11.5
      vertex -8.5 11.5 1.5
    endloop
  endfacet
  facet normal 1.77321e-016 1 0
    outer loop
      vertex -8.5 11.5 11.5
      vertex -8.5 11.5 1.5
      vertex -9.5 11.5 11.5
    endloop
  endfacet
  facet normal 1.77321e-016 1 0
    outer loop
      vertex -9.5 11.5 11.5
      vertex -8.5 11.5 1.5
      vertex -9.5 11.5 1.5
    endloop
  endfacet
  facet normal 0.587785 0.809017 0
    outer loop
      vertex -8.5 10.3002 1.5
      vertex -8.5 10.3002 11.5
      vertex -8.48782 10.2913 1.5
    endloop
  endfacet
  facet normal 0.587785 0.809017 0
    outer loop
      vertex -8.48782 10.2913 1.5
      vertex -8.5 10.3002 11.5
      vertex -8.48782 10.2913 11.5
    endloop
  endfacet
  facet normal 0.951057 -0.309017 0
    outer loop
      vertex -8.5 10.2539 11.5
      vertex -8.5 10.2539 1.5
      vertex -8.48782 10.2913 1.5
    endloop
  endfacet
  facet normal 0.951057 -0.309017 0
    outer loop
      vertex -8.48782 10.2913 11.5
      vertex -8.5 10.2539 11.5
      vertex -8.48782 10.2913 1.5
    endloop
  endfacet
  facet normal 1 -1.77321e-016 0
    outer loop
      vertex -8.5 10 11.5
      vertex -8.5 10 1.5
      vertex -8.5 10.2539 1.5
    endloop
  endfacet
  facet normal 1 -1.77321e-016 0
    outer loop
      vertex -8.5 10.2539 11.5
      vertex -8.5 10 11.5
      vertex -8.5 10.2539 1.5
    endloop
  endfacet
  facet normal -1.77321e-016 -1 0
    outer loop
      vertex -8.58248 10 11.5
      vertex -8.58248 10 1.5
      vertex -8.5 10 1.5
    endloop
  endfacet
  facet normal -1.77321e-016 -1 0
    outer loop
      vertex -8.5 10 11.5
      vertex -8.58248 10 11.5
      vertex -8.5 10 1.5
    endloop
  endfacet
  facet normal 0.951057 -0.309017 0
    outer loop
      vertex -9.06542 8.51366 11.5
      vertex -9.06542 8.51366 1.5
      vertex -8.58248 10 1.5
    endloop
  endfacet
  facet normal 0.951057 -0.309017 0
    outer loop
      vertex -8.58248 10 11.5
      vertex -9.06542 8.51366 11.5
      vertex -8.58248 10 1.5
    endloop
  endfacet
  facet normal -1.77321e-016 -1 0
    outer loop
      vertex -10 8.51366 11.5
      vertex -10 8.51366 1.5
      vertex -9.06542 8.51366 1.5
    endloop
  endfacet
  facet normal -1.77321e-016 -1 0
    outer loop
      vertex -9.06542 8.51366 11.5
      vertex -10 8.51366 11.5
      vertex -9.06542 8.51366 1.5
    endloop
  endfacet
  facet normal 1 -2.44921e-016 0
    outer loop
      vertex -10 8.5 11.5
      vertex -10 8.5 1.5
      vertex -10 8.51366 1.5
    endloop
  endfacet
  facet normal 1 -2.44921e-016 0
    outer loop
      vertex -10 8.51366 11.5
      vertex -10 8.5 11.5
      vertex -10 8.51366 1.5
    endloop
  endfacet
  facet normal 0 -1 0
    outer loop
      vertex -10 8.5 11.5
      vertex -11.5 8.5 11.5
      vertex -10 8.5 1.5
    endloop
  endfacet
  facet normal 0 -1 0
    outer loop
      vertex -10 8.5 1.5
      vertex -11.5 8.5 11.5
      vertex -11.5 8.5 1.5
    endloop
  endfacet
  facet normal 1 0 0
    outer loop
      vertex -5.91817 0.987568 0
      vertex -5.91817 0.987568 1.5
      vertex -5.91817 -0.987568 1.5
    endloop
  endfacet
  facet normal 1 0 0
    outer loop
      vertex -5.91817 -0.987568 0
      vertex -5.91817 0.987568 0
      vertex -5.91817 -0.987568 1.5
    endloop
  endfacet
  facet normal 0.945817 0.324699 0
    outer loop
      vertex -5.91817 -0.987568 1.5
      vertex -5.27684 -2.85568 1.5
      vertex -5.27684 -2.85568 0
    endloop
  endfacet
  facet normal 0.945817 0.324699 0
    outer loop
      vertex -5.91817 -0.987568 0
      vertex -5.91817 -0.987568 1.5
      vertex -5.27684 -2.85568 0
    endloop
  endfacet
  facet normal 0.78914 0.614213 0
    outer loop
      vertex -5.27684 -2.85568 1.5
      vertex -4.06369 -4.41434 1.5
      vertex -4.06369 -4.41434 0
    endloop
  endfacet
  facet normal 0.78914 0.614213 0
    outer loop
      vertex -5.27684 -2.85568 0
      vertex -5.27684 -2.85568 1.5
      vertex -4.06369 -4.41434 0
    endloop
  endfacet
  facet normal 0.546949 0.837166 0
    outer loop
      vertex -2.41017 -5.49464 1.5
      vertex -2.41017 -5.49464 0
      vertex -4.06369 -4.41434 1.5
    endloop
  endfacet
  facet normal 0.546949 0.837166 0
    outer loop
      vertex -4.06369 -4.41434 1.5
      vertex -2.41017 -5.49464 0
      vertex -4.06369 -4.41434 0
    endloop
  endfacet
  facet normal 0.245485 0.9694 0
    outer loop
      vertex -0.495476 -5.97951 1.5
      vertex -0.495476 -5.97951 0
      vertex -2.41017 -5.49464 1.5
    endloop
  endfacet
  facet normal 0.245485 0.9694 0
    outer loop
      vertex -2.41017 -5.49464 1.5
      vertex -0.495476 -5.97951 0
      vertex -2.41017 -5.49464 0
    endloop
  endfacet
  facet normal -0.0825792 0.996585 0
    outer loop
      vertex 1.47291 -5.8164 1.5
      vertex 1.47291 -5.8164 0
      vertex -0.495476 -5.97951 1.5
    endloop
  endfacet
  facet normal -0.0825792 0.996585 0
    outer loop
      vertex -0.495476 -5.97951 1.5
      vertex 1.47291 -5.8164 0
      vertex -0.495476 -5.97951 0
    endloop
  endfacet
  facet normal -0.401696 0.915773 0
    outer loop
      vertex 3.28169 -5.023 1.5
      vertex 3.28169 -5.023 0
      vertex 1.47291 -5.8164 1.5
    endloop
  endfacet
  facet normal -0.401696 0.915773 0
    outer loop
      vertex 1.47291 -5.8164 1.5
      vertex 3.28169 -5.023 0
      vertex 1.47291 -5.8164 0
    endloop
  endfacet
  facet normal -0.677282 0.735724 0
    outer loop
      vertex 4.73484 -3.68528 1.5
      vertex 4.73484 -3.68528 0
      vertex 3.28169 -5.023 1.5
    endloop
  endfacet
  facet normal -0.677282 0.735724 0
    outer loop
      vertex 3.28169 -5.023 1.5
      vertex 4.73484 -3.68528 0
      vertex 3.28169 -5.023 0
    endloop
  endfacet
  facet normal -0.879474 0.475947 0
    outer loop
      vertex 5.6749 -1.9482 1.5
      vertex 5.6749 -1.9482 0
      vertex 4.73484 -3.68528 1.5
    endloop
  endfacet
  facet normal -0.879474 0.475947 0
    outer loop
      vertex 4.73484 -3.68528 1.5
      vertex 5.6749 -1.9482 0
      vertex 4.73484 -3.68528 0
    endloop
  endfacet
  facet normal -0.986361 0.164595 0
    outer loop
      vertex 6 0 1.5
      vertex 6 0 0
      vertex 5.6749 -1.9482 1.5
    endloop
  endfacet
  facet normal -0.986361 0.164595 0
    outer loop
      vertex 5.6749 -1.9482 1.5
      vertex 6 0 0
      vertex 5.6749 -1.9482 0
    endloop
  endfacet
  facet normal -0.986361 -0.164595 0
    outer loop
      vertex 6 0 1.5
      vertex 5.6749 1.9482 1.5
      vertex 6 0 0
    endloop
  endfacet
  facet normal -0.986361 -0.164595 0
    outer loop
      vertex 6 0 0
      vertex 5.6749 1.9482 1.5
      vertex 5.6749 1.9482 0
    endloop
  endfacet
  facet normal -0.879474 -0.475947 0
    outer loop
      vertex 5.6749 1.9482 1.5
      vertex 4.73484 3.68528 1.5
      vertex 5.6749 1.9482 0
    endloop
  endfacet
  facet normal -0.879474 -0.475947 0
    outer loop
      vertex 5.6749 1.9482 0
      vertex 4.73484 3.68528 1.5
      vertex 4.73484 3.68528 0
    endloop
  endfacet
  facet normal -0.677282 -0.735724 0
    outer loop
      vertex 4.73484 3.68528 0
      vertex 4.73484 3.68528 1.5
      vertex 3.28169 5.023 1.5
    endloop
  endfacet
  facet normal -0.677282 -0.735724 0
    outer loop
      vertex 3.28169 5.023 0
      vertex 4.73484 3.68528 0
      vertex 3.28169 5.023 1.5
    endloop
  endfacet
  facet normal -0.401696 -0.915773 0
    outer loop
      vertex 3.28169 5.023 0
      vertex 3.28169 5.023 1.5
      vertex 1.47291 5.8164 1.5
    endloop
  endfacet
  facet normal -0.401696 -0.915773 0
    outer loop
      vertex 1.47291 5.8164 0
      vertex 3.28169 5.023 0
      vertex 1.47291 5.8164 1.5
    endloop
  endfacet
  facet normal -0.0825792 -0.996585 0
    outer loop
      vertex 1.47291 5.8164 0
      vertex 1.47291 5.8164 1.5
      vertex -0.495476 5.97951 1.5
    endloop
  endfacet
  facet normal -0.0825792 -0.996585 0
    outer loop
      vertex -0.495476 5.97951 0
      vertex 1.47291 5.8164 0
      vertex -0.495476 5.97951 1.5
    endloop
  endfacet
  facet normal 0.245485 -0.9694 0
    outer loop
      vertex -0.495476 5.97951 0
      vertex -0.495476 5.97951 1.5
      vertex -2.41017 5.49464 1.5
    endloop
  endfacet
  facet normal 0.245485 -0.9694 0
    outer loop
      vertex -2.41017 5.49464 0
      vertex -0.495476 5.97951 0
      vertex -2.41017 5.49464 1.5
    endloop
  endfacet
  facet normal 0.546949 -0.837166 0
    outer loop
      vertex -2.41017 5.49464 0
      vertex -2.41017 5.49464 1.5
      vertex -4.06369 4.41434 1.5
    endloop
  endfacet
  facet normal 0.546949 -0.837166 0
    outer loop
      vertex -4.06369 4.41434 0
      vertex -2.41017 5.49464 0
      vertex -4.06369 4.41434 1.5
    endloop
  endfacet
  facet normal 0.78914 -0.614213 0
    outer loop
      vertex -4.06369 4.41434 0
      vertex -4.06369 4.41434 1.5
      vertex -5.27684 2.85568 1.5
    endloop
  endfacet
  facet normal 0.78914 -0.614213 0
    outer loop
      vertex -5.27684 2.85568 0
      vertex -4.06369 4.41434 0
      vertex -5.27684 2.85568 1.5
    endloop
  endfacet
  facet normal 0.945817 -0.324699 0
    outer loop
      vertex -5.27684 2.85568 0
      vertex -5.27684 2.85568 1.5
      vertex -5.91817 0.987568 1.5
    endloop
  endfacet
  facet normal 0.945817 -0.324699 0
    outer loop
      vertex -5.91817 0.987568 0
      vertex -5.27684 2.85568 0
      vertex -5.91817 0.987568 1.5
    endloop
  endfacet
endsolid OpenSCAD_Model
