solid OpenSCAD_Model
  facet normal 0 0 -1
    outer loop
      vertex -7 0 -10
      vertex -6.71645 1.97213 -10
      vertex -6.71645 -1.97213 -10
    endloop
  endfacet
  facet normal 0 0 -1
    outer loop
      vertex -6.71645 -1.97213 -10
      vertex -6.71645 1.97213 -10
      vertex -5.88877 3.78449 -10
    endloop
  endfacet
  facet normal 0 0 -1
    outer loop
      vertex -6.71645 -1.97213 -10
      vertex -5.88877 3.78449 -10
      vertex -4.58402 5.29025 -10
    endloop
  endfacet
  facet normal 0 0 -1
    outer loop
      vertex -6.71645 -1.97213 -10
      vertex -4.58402 5.29025 -10
      vertex -2.9079 6.36742 -10
    endloop
  endfacet
  facet normal 0 0 -1
    outer loop
      vertex -6.71645 -1.97213 -10
      vertex -2.9079 6.36742 -10
      vertex -0.996204 6.92875 -10
    endloop
  endfacet
  facet normal 0 0 -1
    outer loop
      vertex -6.71645 -1.97213 -10
      vertex -0.996204 6.92875 -10
      vertex 0.996204 6.92875 -10
    endloop
  endfacet
  facet normal 0 0 -1
    outer loop
      vertex -6.71645 -1.97213 -10
      vertex 0.996204 6.92875 -10
      vertex 2.9079 6.36742 -10
    endloop
  endfacet
  facet normal 0 0 -1
    outer loop
      vertex -6.71645 -1.97213 -10
      vertex 2.9079 6.36742 -10
      vertex 4.58402 5.29025 -10
    endloop
  endfacet
  facet normal 0 0 -1
    outer loop
      vertex -6.71645 -1.97213 -10
      vertex 4.58402 5.29025 -10
      vertex 5.88877 3.78449 -10
    endloop
  endfacet
  facet normal 0 0 -1
    outer loop
      vertex 0.309017 0.951057 -10
      vertex 5.88877 3.78449 -10
      vertex 6.71645 1.97213 -10
    endloop
  endfacet
  facet normal 0 0 -1
    outer loop
      vertex 1 0 -10
      vertex 6.71645 1.97213 -10
      vertex 7 0 -10
    endloop
  endfacet
  facet normal 0 0 -1
    outer loop
      vertex -6.71645 -1.97213 -10
      vertex 7 0 -10
      vertex 6.71645 -1.97213 -10
    endloop
  endfacet
  facet normal 0 0 -1
    outer loop
      vertex -6.71645 -1.97213 -10
      vertex 6.71645 -1.97213 -10
      vertex 5.88877 -3.78449 -10
    endloop
  endfacet
  facet normal 0 0 -1
    outer loop
      vertex -6.71645 -1.97213 -10
      vertex 5.88877 -3.78449 -10
      vertex 4.58402 -5.29025 -10
    endloop
  endfacet
  facet normal 0 0 -1
    outer loop
      vertex -6.71645 -1.97213 -10
      vertex 4.58402 -5.29025 -10
      vertex 2.9079 -6.36742 -10
    endloop
  endfacet
  facet normal 0 0 -1
    outer loop
      vertex -6.71645 -1.97213 -10
      vertex 2.9079 -6.36742 -10
      vertex 0.996204 -6.92875 -10
    endloop
  endfacet
  facet normal 0 0 -1
    outer loop
      vertex -6.71645 -1.97213 -10
      vertex 0.996204 -6.92875 -10
      vertex -0.996204 -6.92875 -10
    endloop
  endfacet
  facet normal 0 0 -1
    outer loop
      vertex -6.71645 -1.97213 -10
      vertex -0.996204 -6.92875 -10
      vertex -2.9079 -6.36742 -10
    endloop
  endfacet
  facet normal 0 0 -1
    outer loop
      vertex -6.71645 -1.97213 -10
      vertex -2.9079 -6.36742 -10
      vertex -4.58402 -5.29025 -10
    endloop
  endfacet
  facet normal 0 0 -1
    outer loop
      vertex -6.71645 -1.97213 -10
      vertex -4.58402 -5.29025 -10
      vertex -5.88877 -3.78449 -10
    endloop
  endfacet
  facet normal 0 0 -1
    outer loop
      vertex -6.71645 -1.97213 -10
      vertex 5.88877 3.78449 -10
      vertex -0.809017 0.587785 -10
    endloop
  endfacet
  facet normal 0 0 -1
    outer loop
      vertex 1 0 -10
      vertex 7 0 -10
      vertex 0.309017 -0.951057 -10
    endloop
  endfacet
  facet normal 0 0 -1
    outer loop
      vertex -6.71645 -1.97213 -10
      vertex -0.809017 -0.587785 -10
      vertex 0.309017 -0.951057 -10
    endloop
  endfacet
  facet normal 0 0 -1
    outer loop
      vertex -6.71645 -1.97213 -10
      vertex 0.309017 -0.951057 -10
      vertex 7 0 -10
    endloop
  endfacet
  facet normal 0 0 -1
    outer loop
      vertex 0.309017 0.951057 -10
      vertex 6.71645 1.97213 -10
      vertex 1 0 -10
    endloop
  endfacet
  facet normal 0 0 -1
    outer loop
      vertex -0.809017 0.587785 -10
      vertex 5.88877 3.78449 -10
      vertex 0.309017 0.951057 -10
    endloop
  endfacet
  facet normal 0 0 -1
    outer loop
      vertex -0.809017 -0.587785 -10
      vertex -6.71645 -1.97213 -10
      vertex -0.809017 0.587785 -10
    endloop
  endfacet
  facet normal -0.989821 0.142315 0
    outer loop
      vertex -7 0 -10
      vertex -7 0 -8
      vertex -6.71645 1.97213 -10
    endloop
  endfacet
  facet normal -0.989821 0.142315 0
    outer loop
      vertex -6.71645 1.97213 -10
      vertex -7 0 -8
      vertex -6.71645 1.97213 -8
    endloop
  endfacet
  facet normal -0.989821 -0.142315 0
    outer loop
      vertex -7 0 -10
      vertex -6.71645 -1.97213 -10
      vertex -7 0 -8
    endloop
  endfacet
  facet normal -0.989821 -0.142315 0
    outer loop
      vertex -7 0 -8
      vertex -6.71645 -1.97213 -10
      vertex -6.71645 -1.97213 -8
    endloop
  endfacet
  facet normal -0.909632 -0.415415 0
    outer loop
      vertex -6.71645 -1.97213 -10
      vertex -5.88877 -3.78449 -10
      vertex -6.71645 -1.97213 -8
    endloop
  endfacet
  facet normal -0.909632 -0.415415 0
    outer loop
      vertex -6.71645 -1.97213 -8
      vertex -5.88877 -3.78449 -10
      vertex -5.88877 -3.78449 -8
    endloop
  endfacet
  facet normal -0.755749 -0.654861 0
    outer loop
      vertex -5.88877 -3.78449 -10
      vertex -4.58402 -5.29025 -10
      vertex -5.88877 -3.78449 -8
    endloop
  endfacet
  facet normal -0.755749 -0.654861 0
    outer loop
      vertex -5.88877 -3.78449 -8
      vertex -4.58402 -5.29025 -10
      vertex -4.58402 -5.29025 -8
    endloop
  endfacet
  facet normal -0.540641 -0.841254 0
    outer loop
      vertex -4.58402 -5.29025 -8
      vertex -4.58402 -5.29025 -10
      vertex -2.9079 -6.36742 -10
    endloop
  endfacet
  facet normal -0.540641 -0.841254 0
    outer loop
      vertex -2.9079 -6.36742 -8
      vertex -4.58402 -5.29025 -8
      vertex -2.9079 -6.36742 -10
    endloop
  endfacet
  facet normal -0.281733 -0.959493 0
    outer loop
      vertex -2.9079 -6.36742 -8
      vertex -2.9079 -6.36742 -10
      vertex -0.996204 -6.92875 -10
    endloop
  endfacet
  facet normal -0.281733 -0.959493 0
    outer loop
      vertex -0.996204 -6.92875 -8
      vertex -2.9079 -6.36742 -8
      vertex -0.996204 -6.92875 -10
    endloop
  endfacet
  facet normal 0 -1 0
    outer loop
      vertex -0.996204 -6.92875 -8
      vertex -0.996204 -6.92875 -10
      vertex 0.996204 -6.92875 -10
    endloop
  endfacet
  facet normal 0 -1 0
    outer loop
      vertex 0.996204 -6.92875 -8
      vertex -0.996204 -6.92875 -8
      vertex 0.996204 -6.92875 -10
    endloop
  endfacet
  facet normal 0.281733 -0.959493 0
    outer loop
      vertex 0.996204 -6.92875 -8
      vertex 0.996204 -6.92875 -10
      vertex 2.9079 -6.36742 -10
    endloop
  endfacet
  facet normal 0.281733 -0.959493 0
    outer loop
      vertex 2.9079 -6.36742 -8
      vertex 0.996204 -6.92875 -8
      vertex 2.9079 -6.36742 -10
    endloop
  endfacet
  facet normal 0.540641 -0.841254 0
    outer loop
      vertex 2.9079 -6.36742 -8
      vertex 2.9079 -6.36742 -10
      vertex 4.58402 -5.29025 -10
    endloop
  endfacet
  facet normal 0.540641 -0.841254 0
    outer loop
      vertex 4.58402 -5.29025 -8
      vertex 2.9079 -6.36742 -8
      vertex 4.58402 -5.29025 -10
    endloop
  endfacet
  facet normal 0.755749 -0.654861 0
    outer loop
      vertex 4.58402 -5.29025 -8
      vertex 4.58402 -5.29025 -10
      vertex 5.88877 -3.78449 -10
    endloop
  endfacet
  facet normal 0.755749 -0.654861 0
    outer loop
      vertex 5.88877 -3.78449 -8
      vertex 4.58402 -5.29025 -8
      vertex 5.88877 -3.78449 -10
    endloop
  endfacet
  facet normal 0.909632 -0.415415 0
    outer loop
      vertex 5.88877 -3.78449 -8
      vertex 5.88877 -3.78449 -10
      vertex 6.71645 -1.97213 -10
    endloop
  endfacet
  facet normal 0.909632 -0.415415 0
    outer loop
      vertex 6.71645 -1.97213 -8
      vertex 5.88877 -3.78449 -8
      vertex 6.71645 -1.97213 -10
    endloop
  endfacet
  facet normal 0.989821 -0.142315 0
    outer loop
      vertex 6.71645 -1.97213 -8
      vertex 6.71645 -1.97213 -10
      vertex 7 0 -10
    endloop
  endfacet
  facet normal 0.989821 -0.142315 0
    outer loop
      vertex 7 0 -8
      vertex 6.71645 -1.97213 -8
      vertex 7 0 -10
    endloop
  endfacet
  facet normal 0.989821 0.142315 0
    outer loop
      vertex 7 0 -10
      vertex 6.71645 1.97213 -10
      vertex 6.71645 1.97213 -8
    endloop
  endfacet
  facet normal 0.989821 0.142315 0
    outer loop
      vertex 7 0 -8
      vertex 7 0 -10
      vertex 6.71645 1.97213 -8
    endloop
  endfacet
  facet normal 0.909632 0.415415 0
    outer loop
      vertex 6.71645 1.97213 -10
      vertex 5.88877 3.78449 -10
      vertex 5.88877 3.78449 -8
    endloop
  endfacet
  facet normal 0.909632 0.415415 0
    outer loop
      vertex 6.71645 1.97213 -8
      vertex 6.71645 1.97213 -10
      vertex 5.88877 3.78449 -8
    endloop
  endfacet
  facet normal 0.755749 0.654861 0
    outer loop
      vertex 5.88877 3.78449 -10
      vertex 4.58402 5.29025 -10
      vertex 4.58402 5.29025 -8
    endloop
  endfacet
  facet normal 0.755749 0.654861 0
    outer loop
      vertex 5.88877 3.78449 -8
      vertex 5.88877 3.78449 -10
      vertex 4.58402 5.29025 -8
    endloop
  endfacet
  facet normal 0.540641 0.841254 0
    outer loop
      vertex 2.9079 6.36742 -10
      vertex 2.9079 6.36742 -8
      vertex 4.58402 5.29025 -10
    endloop
  endfacet
  facet normal 0.540641 0.841254 0
    outer loop
      vertex 4.58402 5.29025 -10
      vertex 2.9079 6.36742 -8
      vertex 4.58402 5.29025 -8
    endloop
  endfacet
  facet normal 0.281733 0.959493 0
    outer loop
      vertex 0.996204 6.92875 -10
      vertex 0.996204 6.92875 -8
      vertex 2.9079 6.36742 -10
    endloop
  endfacet
  facet normal 0.281733 0.959493 0
    outer loop
      vertex 2.9079 6.36742 -10
      vertex 0.996204 6.92875 -8
      vertex 2.9079 6.36742 -8
    endloop
  endfacet
  facet normal 0 1 0
    outer loop
      vertex -0.996204 6.92875 -10
      vertex -0.996204 6.92875 -8
      vertex 0.996204 6.92875 -10
    endloop
  endfacet
  facet normal 0 1 0
    outer loop
      vertex 0.996204 6.92875 -10
      vertex -0.996204 6.92875 -8
      vertex 0.996204 6.92875 -8
    endloop
  endfacet
  facet normal -0.281733 0.959493 0
    outer loop
      vertex -2.9079 6.36742 -10
      vertex -2.9079 6.36742 -8
      vertex -0.996204 6.92875 -10
    endloop
  endfacet
  facet normal -0.281733 0.959493 0
    outer loop
      vertex -0.996204 6.92875 -10
      vertex -2.9079 6.36742 -8
      vertex -0.996204 6.92875 -8
    endloop
  endfacet
  facet normal -0.540641 0.841254 0
    outer loop
      vertex -4.58402 5.29025 -10
      vertex -4.58402 5.29025 -8
      vertex -2.9079 6.36742 -10
    endloop
  endfacet
  facet normal -0.540641 0.841254 0
    outer loop
      vertex -2.9079 6.36742 -10
      vertex -4.58402 5.29025 -8
      vertex -2.9079 6.36742 -8
    endloop
  endfacet
  facet normal -0.755749 0.654861 0
    outer loop
      vertex -5.88877 3.78449 -10
      vertex -5.88877 3.78449 -8
      vertex -4.58402 5.29025 -10
    endloop
  endfacet
  facet normal -0.755749 0.654861 0
    outer loop
      vertex -4.58402 5.29025 -10
      vertex -5.88877 3.78449 -8
      vertex -4.58402 5.29025 -8
    endloop
  endfacet
  facet normal -0.909632 0.415415 0
    outer loop
      vertex -6.71645 1.97213 -10
      vertex -6.71645 1.97213 -8
      vertex -5.88877 3.78449 -10
    endloop
  endfacet
  facet normal -0.909632 0.415415 0
    outer loop
      vertex -5.88877 3.78449 -10
      vertex -6.71645 1.97213 -8
      vertex -5.88877 3.78449 -8
    endloop
  endfacet
  facet normal 1 0 0
    outer loop
      vertex -0.809017 0.587785 -10
      vertex -0.809017 0.587785 -8
      vertex -0.809017 -0.587785 -8
    endloop
  endfacet
  facet normal 1 0 0
    outer loop
      vertex -0.809017 -0.587785 -10
      vertex -0.809017 0.587785 -10
      vertex -0.809017 -0.587785 -8
    endloop
  endfacet
  facet normal 0.309018 -0.951056 0
    outer loop
      vertex 0.309017 0.951057 -10
      vertex 0.309017 0.951057 -8
      vertex -0.809017 0.587785 -8
    endloop
  endfacet
  facet normal 0.309018 -0.951056 0
    outer loop
      vertex -0.809017 0.587785 -10
      vertex 0.309017 0.951057 -10
      vertex -0.809017 0.587785 -8
    endloop
  endfacet
  facet normal -0.809017 -0.587785 0
    outer loop
      vertex 1 0 -8
      vertex 0.309017 0.951057 -8
      vertex 1 0 -10
    endloop
  endfacet
  facet normal -0.809017 -0.587785 0
    outer loop
      vertex 1 0 -10
      vertex 0.309017 0.951057 -8
      vertex 0.309017 0.951057 -10
    endloop
  endfacet
  facet normal -0.809017 0.587785 0
    outer loop
      vertex 1 0 -8
      vertex 1 0 -10
      vertex 0.309017 -0.951057 -8
    endloop
  endfacet
  facet normal -0.809017 0.587785 0
    outer loop
      vertex 0.309017 -0.951057 -8
      vertex 1 0 -10
      vertex 0.309017 -0.951057 -10
    endloop
  endfacet
  facet normal 0.309018 0.951056 0
    outer loop
      vertex 0.309017 -0.951057 -8
      vertex 0.309017 -0.951057 -10
      vertex -0.809017 -0.587785 -8
    endloop
  endfacet
  facet normal 0.309018 0.951056 0
    outer loop
      vertex -0.809017 -0.587785 -8
      vertex 0.309017 -0.951057 -10
      vertex -0.809017 -0.587785 -10
    endloop
  endfacet
  facet normal 0 0 1
    outer loop
      vertex -6.71645 1.97213 -8
      vertex -7 0 -8
      vertex -6.71645 -1.97213 -8
    endloop
  endfacet
  facet normal 0 0 1
    outer loop
      vertex -5.91817 -0.987568 -8
      vertex -6.71645 1.97213 -8
      vertex -5.88877 -3.78449 -8
    endloop
  endfacet
  facet normal 0 0 1
    outer loop
      vertex -5.88877 -3.78449 -8
      vertex -6.71645 1.97213 -8
      vertex -6.71645 -1.97213 -8
    endloop
  endfacet
  facet normal 0 0 1
    outer loop
      vertex -5.27684 2.85568 -8
      vertex -4.06369 4.41434 -8
      vertex -6.71645 1.97213 -8
    endloop
  endfacet
  facet normal 0 0 1
    outer loop
      vertex 1.47291 5.8164 -8
      vertex 3.28169 5.023 -8
      vertex 2.9079 6.36742 -8
    endloop
  endfacet
  facet normal 0 0 1
    outer loop
      vertex -4.06369 4.41434 -8
      vertex -2.41017 5.49464 -8
      vertex -0.996204 6.92875 -8
    endloop
  endfacet
  facet normal 0 0 1
    outer loop
      vertex -4.58402 5.29025 -8
      vertex -6.71645 1.97213 -8
      vertex -2.9079 6.36742 -8
    endloop
  endfacet
  facet normal 0 0 1
    outer loop
      vertex -5.88877 3.78449 -8
      vertex -6.71645 1.97213 -8
      vertex -4.58402 5.29025 -8
    endloop
  endfacet
  facet normal 0 0 1
    outer loop
      vertex -4.58402 -5.29025 -8
      vertex -5.91817 -0.987568 -8
      vertex -5.88877 -3.78449 -8
    endloop
  endfacet
  facet normal 0 0 1
    outer loop
      vertex -2.41017 -5.49464 -8
      vertex -4.06369 -4.41434 -8
      vertex -2.9079 -6.36742 -8
    endloop
  endfacet
  facet normal 0 0 1
    outer loop
      vertex 3.28169 5.023 -8
      vertex 4.73484 3.68528 -8
      vertex 4.58402 5.29025 -8
    endloop
  endfacet
  facet normal 0 0 1
    outer loop
      vertex -2.9079 6.36742 -8
      vertex -4.06369 4.41434 -8
      vertex -0.996204 6.92875 -8
    endloop
  endfacet
  facet normal 0 0 1
    outer loop
      vertex -2.9079 6.36742 -8
      vertex -6.71645 1.97213 -8
      vertex -4.06369 4.41434 -8
    endloop
  endfacet
  facet normal 0 0 1
    outer loop
      vertex -0.996204 6.92875 -8
      vertex -2.41017 5.49464 -8
      vertex 0.996204 6.92875 -8
    endloop
  endfacet
  facet normal 0 0 1
    outer loop
      vertex -0.495476 5.97951 -8
      vertex 1.47291 5.8164 -8
      vertex 0.996204 6.92875 -8
    endloop
  endfacet
  facet normal 0 0 1
    outer loop
      vertex -2.41017 5.49464 -8
      vertex -0.495476 5.97951 -8
      vertex 0.996204 6.92875 -8
    endloop
  endfacet
  facet normal 0 0 1
    outer loop
      vertex 1.47291 -5.8164 -8
      vertex -0.495476 -5.97951 -8
      vertex 0.996204 -6.92875 -8
    endloop
  endfacet
  facet normal 0 0 1
    outer loop
      vertex 0.996204 6.92875 -8
      vertex 1.47291 5.8164 -8
      vertex 2.9079 6.36742 -8
    endloop
  endfacet
  facet normal 0 0 1
    outer loop
      vertex 2.9079 6.36742 -8
      vertex 3.28169 5.023 -8
      vertex 4.58402 5.29025 -8
    endloop
  endfacet
  facet normal 0 0 1
    outer loop
      vertex 4.58402 5.29025 -8
      vertex 4.73484 3.68528 -8
      vertex 5.88877 3.78449 -8
    endloop
  endfacet
  facet normal 0 0 1
    outer loop
      vertex 6.71645 1.97213 -8
      vertex 5.6749 1.9482 -8
      vertex 7 0 -8
    endloop
  endfacet
  facet normal 0 0 1
    outer loop
      vertex 7 0 -8
      vertex 6 0 -8
      vertex 6.71645 -1.97213 -8
    endloop
  endfacet
  facet normal 0 0 1
    outer loop
      vertex 6.71645 -1.97213 -8
      vertex 5.6749 -1.9482 -8
      vertex 5.88877 -3.78449 -8
    endloop
  endfacet
  facet normal 0 0 1
    outer loop
      vertex 5.88877 -3.78449 -8
      vertex 4.73484 -3.68528 -8
      vertex 4.58402 -5.29025 -8
    endloop
  endfacet
  facet normal 0 0 1
    outer loop
      vertex 4.58402 -5.29025 -8
      vertex 3.28169 -5.023 -8
      vertex 2.9079 -6.36742 -8
    endloop
  endfacet
  facet normal 0 0 1
    outer loop
      vertex 2.9079 -6.36742 -8
      vertex 1.47291 -5.8164 -8
      vertex 0.996204 -6.92875 -8
    endloop
  endfacet
  facet normal 0 0 1
    outer loop
      vertex 0.996204 -6.92875 -8
      vertex -0.495476 -5.97951 -8
      vertex -0.996204 -6.92875 -8
    endloop
  endfacet
  facet normal 0 0 1
    outer loop
      vertex -0.996204 -6.92875 -8
      vertex -2.41017 -5.49464 -8
      vertex -2.9079 -6.36742 -8
    endloop
  endfacet
  facet normal 0 0 1
    outer loop
      vertex 4.73484 3.68528 -8
      vertex 5.6749 1.9482 -8
      vertex 6.71645 1.97213 -8
    endloop
  endfacet
  facet normal 0 0 1
    outer loop
      vertex -2.9079 -6.36742 -8
      vertex -4.06369 -4.41434 -8
      vertex -4.58402 -5.29025 -8
    endloop
  endfacet
  facet normal 0 0 1
    outer loop
      vertex 4.73484 3.68528 -8
      vertex 6.71645 1.97213 -8
      vertex 5.88877 3.78449 -8
    endloop
  endfacet
  facet normal 0 0 1
    outer loop
      vertex -4.06369 -4.41434 -8
      vertex -5.27684 -2.85568 -8
      vertex -4.58402 -5.29025 -8
    endloop
  endfacet
  facet normal 0 0 1
    outer loop
      vertex 5.6749 1.9482 -8
      vertex 6 0 -8
      vertex 7 0 -8
    endloop
  endfacet
  facet normal 0 0 1
    outer loop
      vertex -5.27684 -2.85568 -8
      vertex -5.91817 -0.987568 -8
      vertex -4.58402 -5.29025 -8
    endloop
  endfacet
  facet normal 0 0 1
    outer loop
      vertex -5.91817 -0.987568 -8
      vertex -5.91817 0.987568 -8
      vertex -6.71645 1.97213 -8
    endloop
  endfacet
  facet normal 0 0 1
    outer loop
      vertex 6 0 -8
      vertex 5.6749 -1.9482 -8
      vertex 6.71645 -1.97213 -8
    endloop
  endfacet
  facet normal 0 0 1
    outer loop
      vertex 5.6749 -1.9482 -8
      vertex 4.73484 -3.68528 -8
      vertex 5.88877 -3.78449 -8
    endloop
  endfacet
  facet normal 0 0 1
    outer loop
      vertex 4.73484 -3.68528 -8
      vertex 3.28169 -5.023 -8
      vertex 4.58402 -5.29025 -8
    endloop
  endfacet
  facet normal 0 0 1
    outer loop
      vertex 3.28169 -5.023 -8
      vertex 1.47291 -5.8164 -8
      vertex 2.9079 -6.36742 -8
    endloop
  endfacet
  facet normal 0 0 1
    outer loop
      vertex -0.495476 -5.97951 -8
      vertex -2.41017 -5.49464 -8
      vertex -0.996204 -6.92875 -8
    endloop
  endfacet
  facet normal 0 0 1
    outer loop
      vertex -5.91817 0.987568 -8
      vertex -5.27684 2.85568 -8
      vertex -6.71645 1.97213 -8
    endloop
  endfacet
  facet normal 0 0 1
    outer loop
      vertex -3.35823 0.986064 -8
      vertex -3.35823 -0.986064 -8
      vertex -2.29201 -2.64512 -8
    endloop
  endfacet
  facet normal 0 0 1
    outer loop
      vertex 1.45395 -3.18371 -8
      vertex -3.35823 0.986064 -8
      vertex -0.498102 -3.46437 -8
    endloop
  endfacet
  facet normal 0 0 1
    outer loop
      vertex -0.498102 -3.46437 -8
      vertex -3.35823 0.986064 -8
      vertex -2.29201 -2.64512 -8
    endloop
  endfacet
  facet normal 0 0 1
    outer loop
      vertex -0.809017 -0.587785 -8
      vertex -3.35823 0.986064 -8
      vertex 1.45395 -3.18371 -8
    endloop
  endfacet
  facet normal 0 0 1
    outer loop
      vertex 1 0 -8
      vertex 0.309017 -0.951057 -8
      vertex 2.94439 -1.89224 -8
    endloop
  endfacet
  facet normal 0 0 1
    outer loop
      vertex 1.45395 3.18371 -8
      vertex -3.35823 0.986064 -8
      vertex 2.94439 1.89224 -8
    endloop
  endfacet
  facet normal 0 0 1
    outer loop
      vertex -0.498102 3.46437 -8
      vertex -3.35823 0.986064 -8
      vertex 1.45395 3.18371 -8
    endloop
  endfacet
  facet normal 0 0 1
    outer loop
      vertex -2.29201 2.64512 -8
      vertex -3.35823 0.986064 -8
      vertex -0.498102 3.46437 -8
    endloop
  endfacet
  facet normal 0 0 1
    outer loop
      vertex 2.94439 -1.89224 -8
      vertex -0.809017 -0.587785 -8
      vertex 1.45395 -3.18371 -8
    endloop
  endfacet
  facet normal 0 0 1
    outer loop
      vertex 0.309017 0.951057 -8
      vertex 1 0 -8
      vertex 3.5 0 -8
    endloop
  endfacet
  facet normal 0 0 1
    outer loop
      vertex 2.94439 1.89224 -8
      vertex 0.309017 0.951057 -8
      vertex 3.5 0 -8
    endloop
  endfacet
  facet normal 0 0 1
    outer loop
      vertex 2.94439 1.89224 -8
      vertex -3.35823 0.986064 -8
      vertex 0.309017 0.951057 -8
    endloop
  endfacet
  facet normal 0 0 1
    outer loop
      vertex 3.5 0 -8
      vertex 1 0 -8
      vertex 2.94439 -1.89224 -8
    endloop
  endfacet
  facet normal 0 0 1
    outer loop
      vertex 2.94439 -1.89224 -8
      vertex 0.309017 -0.951057 -8
      vertex -0.809017 -0.587785 -8
    endloop
  endfacet
  facet normal 0 0 1
    outer loop
      vertex -0.809017 0.587785 -8
      vertex 0.309017 0.951057 -8
      vertex -3.35823 0.986064 -8
    endloop
  endfacet
  facet normal 0 0 1
    outer loop
      vertex -0.809017 -0.587785 -8
      vertex -0.809017 0.587785 -8
      vertex -3.35823 0.986064 -8
    endloop
  endfacet
  facet normal -1 0 0
    outer loop
      vertex -5.91817 -0.987568 -8
      vertex -5.91817 -0.987568 -6
      vertex -5.91817 0.987568 -8
    endloop
  endfacet
  facet normal -1 0 0
    outer loop
      vertex -5.91817 0.987568 -8
      vertex -5.91817 -0.987568 -6
      vertex -5.91817 0.987568 -6
    endloop
  endfacet
  facet normal -0.945817 -0.324699 0
    outer loop
      vertex -5.91817 -0.987568 -8
      vertex -5.27684 -2.85568 -8
      vertex -5.91817 -0.987568 -6
    endloop
  endfacet
  facet normal -0.945817 -0.324699 0
    outer loop
      vertex -5.91817 -0.987568 -6
      vertex -5.27684 -2.85568 -8
      vertex -5.27684 -2.85568 -6
    endloop
  endfacet
  facet normal -0.78914 -0.614213 0
    outer loop
      vertex -5.27684 -2.85568 -8
      vertex -4.06369 -4.41434 -8
      vertex -5.27684 -2.85568 -6
    endloop
  endfacet
  facet normal -0.78914 -0.614213 0
    outer loop
      vertex -5.27684 -2.85568 -6
      vertex -4.06369 -4.41434 -8
      vertex -4.06369 -4.41434 -6
    endloop
  endfacet
  facet normal -0.546949 -0.837166 0
    outer loop
      vertex -4.06369 -4.41434 -6
      vertex -4.06369 -4.41434 -8
      vertex -2.41017 -5.49464 -8
    endloop
  endfacet
  facet normal -0.546949 -0.837166 0
    outer loop
      vertex -2.41017 -5.49464 -6
      vertex -4.06369 -4.41434 -6
      vertex -2.41017 -5.49464 -8
    endloop
  endfacet
  facet normal -0.245485 -0.9694 0
    outer loop
      vertex -2.41017 -5.49464 -6
      vertex -2.41017 -5.49464 -8
      vertex -0.495476 -5.97951 -8
    endloop
  endfacet
  facet normal -0.245485 -0.9694 0
    outer loop
      vertex -0.495476 -5.97951 -6
      vertex -2.41017 -5.49464 -6
      vertex -0.495476 -5.97951 -8
    endloop
  endfacet
  facet normal 0.0825792 -0.996585 0
    outer loop
      vertex -0.495476 -5.97951 -6
      vertex -0.495476 -5.97951 -8
      vertex 1.47291 -5.8164 -8
    endloop
  endfacet
  facet normal 0.0825792 -0.996585 0
    outer loop
      vertex 1.47291 -5.8164 -6
      vertex -0.495476 -5.97951 -6
      vertex 1.47291 -5.8164 -8
    endloop
  endfacet
  facet normal 0.401696 -0.915773 0
    outer loop
      vertex 1.47291 -5.8164 -6
      vertex 1.47291 -5.8164 -8
      vertex 3.28169 -5.023 -8
    endloop
  endfacet
  facet normal 0.401696 -0.915773 0
    outer loop
      vertex 3.28169 -5.023 -6
      vertex 1.47291 -5.8164 -6
      vertex 3.28169 -5.023 -8
    endloop
  endfacet
  facet normal 0.677282 -0.735724 0
    outer loop
      vertex 3.28169 -5.023 -6
      vertex 3.28169 -5.023 -8
      vertex 4.73484 -3.68528 -8
    endloop
  endfacet
  facet normal 0.677282 -0.735724 0
    outer loop
      vertex 4.73484 -3.68528 -6
      vertex 3.28169 -5.023 -6
      vertex 4.73484 -3.68528 -8
    endloop
  endfacet
  facet normal 0.879474 -0.475947 0
    outer loop
      vertex 4.73484 -3.68528 -6
      vertex 4.73484 -3.68528 -8
      vertex 5.6749 -1.9482 -8
    endloop
  endfacet
  facet normal 0.879474 -0.475947 0
    outer loop
      vertex 5.6749 -1.9482 -6
      vertex 4.73484 -3.68528 -6
      vertex 5.6749 -1.9482 -8
    endloop
  endfacet
  facet normal 0.986361 -0.164595 0
    outer loop
      vertex 5.6749 -1.9482 -6
      vertex 5.6749 -1.9482 -8
      vertex 6 0 -8
    endloop
  endfacet
  facet normal 0.986361 -0.164595 0
    outer loop
      vertex 6 0 -6
      vertex 5.6749 -1.9482 -6
      vertex 6 0 -8
    endloop
  endfacet
  facet normal 0.986361 0.164595 0
    outer loop
      vertex 6 0 -8
      vertex 5.6749 1.9482 -8
      vertex 5.6749 1.9482 -6
    endloop
  endfacet
  facet normal 0.986361 0.164595 0
    outer loop
      vertex 6 0 -6
      vertex 6 0 -8
      vertex 5.6749 1.9482 -6
    endloop
  endfacet
  facet normal 0.879474 0.475947 0
    outer loop
      vertex 5.6749 1.9482 -8
      vertex 4.73484 3.68528 -8
      vertex 4.73484 3.68528 -6
    endloop
  endfacet
  facet normal 0.879474 0.475947 0
    outer loop
      vertex 5.6749 1.9482 -6
      vertex 5.6749 1.9482 -8
      vertex 4.73484 3.68528 -6
    endloop
  endfacet
  facet normal 0.677282 0.735724 0
    outer loop
      vertex 3.28169 5.023 -8
      vertex 3.28169 5.023 -6
      vertex 4.73484 3.68528 -8
    endloop
  endfacet
  facet normal 0.677282 0.735724 0
    outer loop
      vertex 4.73484 3.68528 -8
      vertex 3.28169 5.023 -6
      vertex 4.73484 3.68528 -6
    endloop
  endfacet
  facet normal 0.401696 0.915773 0
    outer loop
      vertex 1.47291 5.8164 -8
      vertex 1.47291 5.8164 -6
      vertex 3.28169 5.023 -8
    endloop
  endfacet
  facet normal 0.401696 0.915773 0
    outer loop
      vertex 3.28169 5.023 -8
      vertex 1.47291 5.8164 -6
      vertex 3.28169 5.023 -6
    endloop
  endfacet
  facet normal 0.0825792 0.996585 0
    outer loop
      vertex -0.495476 5.97951 -8
      vertex -0.495476 5.97951 -6
      vertex 1.47291 5.8164 -8
    endloop
  endfacet
  facet normal 0.0825792 0.996585 0
    outer loop
      vertex 1.47291 5.8164 -8
      vertex -0.495476 5.97951 -6
      vertex 1.47291 5.8164 -6
    endloop
  endfacet
  facet normal -0.245485 0.9694 0
    outer loop
      vertex -2.41017 5.49464 -8
      vertex -2.41017 5.49464 -6
      vertex -0.495476 5.97951 -8
    endloop
  endfacet
  facet normal -0.245485 0.9694 0
    outer loop
      vertex -0.495476 5.97951 -8
      vertex -2.41017 5.49464 -6
      vertex -0.495476 5.97951 -6
    endloop
  endfacet
  facet normal -0.546949 0.837166 0
    outer loop
      vertex -4.06369 4.41434 -8
      vertex -4.06369 4.41434 -6
      vertex -2.41017 5.49464 -8
    endloop
  endfacet
  facet normal -0.546949 0.837166 0
    outer loop
      vertex -2.41017 5.49464 -8
      vertex -4.06369 4.41434 -6
      vertex -2.41017 5.49464 -6
    endloop
  endfacet
  facet normal -0.78914 0.614213 0
    outer loop
      vertex -5.27684 2.85568 -8
      vertex -5.27684 2.85568 -6
      vertex -4.06369 4.41434 -8
    endloop
  endfacet
  facet normal -0.78914 0.614213 0
    outer loop
      vertex -4.06369 4.41434 -8
      vertex -5.27684 2.85568 -6
      vertex -4.06369 4.41434 -6
    endloop
  endfacet
  facet normal -0.945817 0.324699 0
    outer loop
      vertex -5.91817 0.987568 -8
      vertex -5.91817 0.987568 -6
      vertex -5.27684 2.85568 -8
    endloop
  endfacet
  facet normal -0.945817 0.324699 0
    outer loop
      vertex -5.27684 2.85568 -8
      vertex -5.91817 0.987568 -6
      vertex -5.27684 2.85568 -6
    endloop
  endfacet
  facet normal 1 0 0
    outer loop
      vertex -3.35823 0.986064 -8
      vertex -3.35823 0.986064 -6
      vertex -3.35823 -0.986064 -6
    endloop
  endfacet
  facet normal 1 0 0
    outer loop
      vertex -3.35823 -0.986064 -8
      vertex -3.35823 0.986064 -8
      vertex -3.35823 -0.986064 -6
    endloop
  endfacet
  facet normal 0.841254 -0.54064 0
    outer loop
      vertex -2.29201 2.64512 -8
      vertex -2.29201 2.64512 -6
      vertex -3.35823 0.986064 -6
    endloop
  endfacet
  facet normal 0.841254 -0.54064 0
    outer loop
      vertex -3.35823 0.986064 -8
      vertex -2.29201 2.64512 -8
      vertex -3.35823 0.986064 -6
    endloop
  endfacet
  facet normal 0.415415 -0.909632 0
    outer loop
      vertex -0.498102 3.46437 -8
      vertex -0.498102 3.46437 -6
      vertex -2.29201 2.64512 -6
    endloop
  endfacet
  facet normal 0.415415 -0.909632 0
    outer loop
      vertex -2.29201 2.64512 -8
      vertex -0.498102 3.46437 -8
      vertex -2.29201 2.64512 -6
    endloop
  endfacet
  facet normal -0.142315 -0.989821 0
    outer loop
      vertex 1.45395 3.18371 -8
      vertex 1.45395 3.18371 -6
      vertex -0.498102 3.46437 -6
    endloop
  endfacet
  facet normal -0.142315 -0.989821 0
    outer loop
      vertex -0.498102 3.46437 -8
      vertex 1.45395 3.18371 -8
      vertex -0.498102 3.46437 -6
    endloop
  endfacet
  facet normal -0.654861 -0.755749 0
    outer loop
      vertex 2.94439 1.89224 -8
      vertex 2.94439 1.89224 -6
      vertex 1.45395 3.18371 -6
    endloop
  endfacet
  facet normal -0.654861 -0.755749 0
    outer loop
      vertex 1.45395 3.18371 -8
      vertex 2.94439 1.89224 -8
      vertex 1.45395 3.18371 -6
    endloop
  endfacet
  facet normal -0.959493 -0.281733 0
    outer loop
      vertex 3.5 0 -6
      vertex 2.94439 1.89224 -6
      vertex 3.5 0 -8
    endloop
  endfacet
  facet normal -0.959493 -0.281733 0
    outer loop
      vertex 3.5 0 -8
      vertex 2.94439 1.89224 -6
      vertex 2.94439 1.89224 -8
    endloop
  endfacet
  facet normal -0.959493 0.281733 0
    outer loop
      vertex 3.5 0 -6
      vertex 3.5 0 -8
      vertex 2.94439 -1.89224 -6
    endloop
  endfacet
  facet normal -0.959493 0.281733 0
    outer loop
      vertex 2.94439 -1.89224 -6
      vertex 3.5 0 -8
      vertex 2.94439 -1.89224 -8
    endloop
  endfacet
  facet normal -0.654861 0.755749 0
    outer loop
      vertex 2.94439 -1.89224 -6
      vertex 2.94439 -1.89224 -8
      vertex 1.45395 -3.18371 -6
    endloop
  endfacet
  facet normal -0.654861 0.755749 0
    outer loop
      vertex 1.45395 -3.18371 -6
      vertex 2.94439 -1.89224 -8
      vertex 1.45395 -3.18371 -8
    endloop
  endfacet
  facet normal -0.142315 0.989821 0
    outer loop
      vertex 1.45395 -3.18371 -6
      vertex 1.45395 -3.18371 -8
      vertex -0.498102 -3.46437 -6
    endloop
  endfacet
  facet normal -0.142315 0.989821 0
    outer loop
      vertex -0.498102 -3.46437 -6
      vertex 1.45395 -3.18371 -8
      vertex -0.498102 -3.46437 -8
    endloop
  endfacet
  facet normal 0.415415 0.909632 0
    outer loop
      vertex -0.498102 -3.46437 -6
      vertex -0.498102 -3.46437 -8
      vertex -2.29201 -2.64512 -6
    endloop
  endfacet
  facet normal 0.415415 0.909632 0
    outer loop
      vertex -2.29201 -2.64512 -6
      vertex -0.498102 -3.46437 -8
      vertex -2.29201 -2.64512 -8
    endloop
  endfacet
  facet normal 0.841254 0.54064 0
    outer loop
      vertex -3.35823 -0.986064 -6
      vertex -2.29201 -2.64512 -6
      vertex -2.29201 -2.64512 -8
    endloop
  endfacet
  facet normal 0.841254 0.54064 0
    outer loop
      vertex -3.35823 -0.986064 -8
      vertex -3.35823 -0.986064 -6
      vertex -2.29201 -2.64512 -8
    endloop
  endfacet
  facet normal 0 0 1
    outer loop
      vertex -5.91817 0.987568 -6
      vertex -5.91817 -0.987568 -6
      vertex -5.27684 -2.85568 -6
    endloop
  endfacet
  facet normal 0 0 1
    outer loop
      vertex -2.41017 -5.49464 -6
      vertex -5.91817 0.987568 -6
      vertex -4.06369 -4.41434 -6
    endloop
  endfacet
  facet normal 0 0 1
    outer loop
      vertex -4.06369 -4.41434 -6
      vertex -5.91817 0.987568 -6
      vertex -5.27684 -2.85568 -6
    endloop
  endfacet
  facet normal 0 0 1
    outer loop
      vertex -0.495476 -5.97951 -6
      vertex -5.91817 0.987568 -6
      vertex -2.41017 -5.49464 -6
    endloop
  endfacet
  facet normal 0 0 1
    outer loop
      vertex -2.29201 -2.64512 -6
      vertex -5.91817 0.987568 -6
      vertex -0.495476 -5.97951 -6
    endloop
  endfacet
  facet normal 0 0 1
    outer loop
      vertex 2.94439 1.89224 -6
      vertex 3.5 0 -6
      vertex 6 0 -6
    endloop
  endfacet
  facet normal 0 0 1
    outer loop
      vertex -0.495476 5.97951 -6
      vertex -5.91817 0.987568 -6
      vertex 1.47291 5.8164 -6
    endloop
  endfacet
  facet normal 0 0 1
    outer loop
      vertex -2.41017 5.49464 -6
      vertex -5.91817 0.987568 -6
      vertex -0.495476 5.97951 -6
    endloop
  endfacet
  facet normal 0 0 1
    outer loop
      vertex -4.06369 4.41434 -6
      vertex -5.91817 0.987568 -6
      vertex -2.41017 5.49464 -6
    endloop
  endfacet
  facet normal 0 0 1
    outer loop
      vertex -5.27684 2.85568 -6
      vertex -5.91817 0.987568 -6
      vertex -4.06369 4.41434 -6
    endloop
  endfacet
  facet normal 0 0 1
    outer loop
      vertex 3.5 0 -6
      vertex 2.94439 -1.89224 -6
      vertex 5.6749 -1.9482 -6
    endloop
  endfacet
  facet normal 0 0 1
    outer loop
      vertex 2.94439 1.89224 -6
      vertex 6 0 -6
      vertex 5.6749 1.9482 -6
    endloop
  endfacet
  facet normal 0 0 1
    outer loop
      vertex 1.47291 5.8164 -6
      vertex -5.91817 0.987568 -6
      vertex -2.29201 2.64512 -6
    endloop
  endfacet
  facet normal 0 0 1
    outer loop
      vertex 1.47291 5.8164 -6
      vertex -0.498102 3.46437 -6
      vertex 3.28169 5.023 -6
    endloop
  endfacet
  facet normal 0 0 1
    outer loop
      vertex 1.47291 5.8164 -6
      vertex -2.29201 2.64512 -6
      vertex -0.498102 3.46437 -6
    endloop
  endfacet
  facet normal 0 0 1
    outer loop
      vertex 3.28169 5.023 -6
      vertex 1.45395 3.18371 -6
      vertex 4.73484 3.68528 -6
    endloop
  endfacet
  facet normal 0 0 1
    outer loop
      vertex -0.498102 3.46437 -6
      vertex 1.45395 3.18371 -6
      vertex 3.28169 5.023 -6
    endloop
  endfacet
  facet normal 0 0 1
    outer loop
      vertex 4.73484 3.68528 -6
      vertex 2.94439 1.89224 -6
      vertex 5.6749 1.9482 -6
    endloop
  endfacet
  facet normal 0 0 1
    outer loop
      vertex 6 0 -6
      vertex 3.5 0 -6
      vertex 5.6749 -1.9482 -6
    endloop
  endfacet
  facet normal 0 0 1
    outer loop
      vertex 1.45395 3.18371 -6
      vertex 2.94439 1.89224 -6
      vertex 4.73484 3.68528 -6
    endloop
  endfacet
  facet normal 0 0 1
    outer loop
      vertex 5.6749 -1.9482 -6
      vertex 2.94439 -1.89224 -6
      vertex 4.73484 -3.68528 -6
    endloop
  endfacet
  facet normal 0 0 1
    outer loop
      vertex 1.45395 -3.18371 -6
      vertex -0.498102 -3.46437 -6
      vertex 3.28169 -5.023 -6
    endloop
  endfacet
  facet normal 0 0 1
    outer loop
      vertex 4.73484 -3.68528 -6
      vertex 1.45395 -3.18371 -6
      vertex 3.28169 -5.023 -6
    endloop
  endfacet
  facet normal 0 0 1
    outer loop
      vertex -3.35823 0.986064 -6
      vertex -2.29201 2.64512 -6
      vertex -5.91817 0.987568 -6
    endloop
  endfacet
  facet normal 0 0 1
    outer loop
      vertex 3.28169 -5.023 -6
      vertex -0.498102 -3.46437 -6
      vertex 1.47291 -5.8164 -6
    endloop
  endfacet
  facet normal 0 0 1
    outer loop
      vertex 1.47291 -5.8164 -6
      vertex -2.29201 -2.64512 -6
      vertex -0.495476 -5.97951 -6
    endloop
  endfacet
  facet normal 0 0 1
    outer loop
      vertex 2.94439 -1.89224 -6
      vertex 1.45395 -3.18371 -6
      vertex 4.73484 -3.68528 -6
    endloop
  endfacet
  facet normal 0 0 1
    outer loop
      vertex -2.29201 -2.64512 -6
      vertex -3.35823 -0.986064 -6
      vertex -5.91817 0.987568 -6
    endloop
  endfacet
  facet normal 0 0 1
    outer loop
      vertex -0.498102 -3.46437 -6
      vertex -2.29201 -2.64512 -6
      vertex 1.47291 -5.8164 -6
    endloop
  endfacet
  facet normal 0 0 1
    outer loop
      vertex -3.35823 -0.986064 -6
      vertex -3.35823 0.986064 -6
      vertex -5.91817 0.987568 -6
    endloop
  endfacet
endsolid OpenSCAD_Model
