solid OpenSCAD_Model
  facet normal 0 0 -1
    outer loop
      vertex -35 32.5 15
      vertex -34.2678 34.2678 15
      vertex -34.2678 30.7322 15
    endloop
  endfacet
  facet normal 0 0 -1
    outer loop
      vertex -34.2678 30.7322 15
      vertex -34.2678 34.2678 15
      vertex -32.5 35 15
    endloop
  endfacet
  facet normal 0 0 -1
    outer loop
      vertex -34.2678 30.7322 15
      vertex -32.5 35 15
      vertex -2.5 35 15
    endloop
  endfacet
  facet normal 0 0 -1
    outer loop
      vertex -34.2678 30.7322 15
      vertex -2.5 35 15
      vertex -2.5 30 15
    endloop
  endfacet
  facet normal 0 0 -1
    outer loop
      vertex -34.2678 30.7322 15
      vertex -2.5 30 15
      vertex -32.5 30 15
    endloop
  endfacet
  facet normal -0.92388 0.382683 0
    outer loop
      vertex -35 32.5 15
      vertex -35 32.5 50
      vertex -34.2678 34.2678 15
    endloop
  endfacet
  facet normal -0.92388 0.382683 0
    outer loop
      vertex -34.2678 34.2678 15
      vertex -35 32.5 50
      vertex -34.2678 34.2678 50
    endloop
  endfacet
  facet normal -0.92388 -0.382683 0
    outer loop
      vertex -35 32.5 15
      vertex -34.2678 30.7322 15
      vertex -35 32.5 50
    endloop
  endfacet
  facet normal -0.92388 -0.382683 0
    outer loop
      vertex -35 32.5 50
      vertex -34.2678 30.7322 15
      vertex -34.2678 30.7322 50
    endloop
  endfacet
  facet normal -0.382683 -0.92388 0
    outer loop
      vertex -34.2678 30.7322 50
      vertex -34.2678 30.7322 15
      vertex -32.5 30 15
    endloop
  endfacet
  facet normal -0.382683 -0.92388 0
    outer loop
      vertex -32.5 30 50
      vertex -34.2678 30.7322 50
      vertex -32.5 30 15
    endloop
  endfacet
  facet normal 0 -1 0
    outer loop
      vertex -31.5 30 47.75
      vertex -32.5 30 15
      vertex -2.5 30 15
    endloop
  endfacet
  facet normal 0 -1 0
    outer loop
      vertex -31.5 30 47.75
      vertex -31.5 30 50
      vertex -32.5 30 50
    endloop
  endfacet
  facet normal 0 -1 0
    outer loop
      vertex -32.5 30 50
      vertex -32.5 30 15
      vertex -31.5 30 47.75
    endloop
  endfacet
  facet normal 0 -1 0
    outer loop
      vertex -2.5 30 47.75
      vertex -31.5 30 47.75
      vertex -2.5 30 15
    endloop
  endfacet
  facet normal 1 0 0
    outer loop
      vertex -2.5 35 15
      vertex -2.5 35 50
      vertex -2.5 33.75 50
    endloop
  endfacet
  facet normal 1 0 0
    outer loop
      vertex -2.5 31.25 18
      vertex -2.5 35 15
      vertex -2.5 33.75 18
    endloop
  endfacet
  facet normal 1 0 0
    outer loop
      vertex -2.5 33.75 18
      vertex -2.5 35 15
      vertex -2.5 33.75 50
    endloop
  endfacet
  facet normal 1 0 0
    outer loop
      vertex -2.5 30 15
      vertex -2.5 35 15
      vertex -2.5 31.25 18
    endloop
  endfacet
  facet normal 1 0 0
    outer loop
      vertex -2.5 30 47.75
      vertex -2.5 31.25 18
      vertex -2.5 31.25 47.75
    endloop
  endfacet
  facet normal 1 0 0
    outer loop
      vertex -2.5 30 15
      vertex -2.5 31.25 18
      vertex -2.5 30 47.75
    endloop
  endfacet
  facet normal 0 1 0
    outer loop
      vertex -32.5 35 15
      vertex -32.5 35 50
      vertex -2.5 35 15
    endloop
  endfacet
  facet normal 0 1 0
    outer loop
      vertex -2.5 35 15
      vertex -32.5 35 50
      vertex -2.5 35 50
    endloop
  endfacet
  facet normal -0.382683 0.92388 0
    outer loop
      vertex -34.2678 34.2678 15
      vertex -34.2678 34.2678 50
      vertex -32.5 35 15
    endloop
  endfacet
  facet normal -0.382683 0.92388 0
    outer loop
      vertex -32.5 35 15
      vertex -34.2678 34.2678 50
      vertex -32.5 35 50
    endloop
  endfacet
  facet normal 0 0 1
    outer loop
      vertex -34.2678 34.2678 50
      vertex -35 32.5 50
      vertex -34.2678 30.7322 50
    endloop
  endfacet
  facet normal 0 0 1
    outer loop
      vertex -31.5 30 50
      vertex -34.2678 34.2678 50
      vertex -32.5 30 50
    endloop
  endfacet
  facet normal 0 0 1
    outer loop
      vertex -32.5 30 50
      vertex -34.2678 34.2678 50
      vertex -34.2678 30.7322 50
    endloop
  endfacet
  facet normal 0 0 1
    outer loop
      vertex -31.5 33.75 50
      vertex -34.2678 34.2678 50
      vertex -31.5 30 50
    endloop
  endfacet
  facet normal 0 0 1
    outer loop
      vertex -2.5 33.75 50
      vertex -34.2678 34.2678 50
      vertex -31.5 33.75 50
    endloop
  endfacet
  facet normal 0 0 1
    outer loop
      vertex -2.5 35 50
      vertex -34.2678 34.2678 50
      vertex -2.5 33.75 50
    endloop
  endfacet
  facet normal 0 0 1
    outer loop
      vertex -32.5 35 50
      vertex -34.2678 34.2678 50
      vertex -2.5 35 50
    endloop
  endfacet
  facet normal 1 0 0
    outer loop
      vertex -31.5 31.25 47.75
      vertex -31.5 31.25 18
      vertex -31.5 33.75 18
    endloop
  endfacet
  facet normal 1 0 0
    outer loop
      vertex -31.5 30 50
      vertex -31.5 31.25 47.75
      vertex -31.5 33.75 50
    endloop
  endfacet
  facet normal 1 0 0
    outer loop
      vertex -31.5 33.75 50
      vertex -31.5 31.25 47.75
      vertex -31.5 33.75 18
    endloop
  endfacet
  facet normal 1 0 0
    outer loop
      vertex -31.5 30 47.75
      vertex -31.5 31.25 47.75
      vertex -31.5 30 50
    endloop
  endfacet
  facet normal 0 0 1
    outer loop
      vertex -2.5 30 47.75
      vertex -2.5 31.25 47.75
      vertex -31.5 31.25 47.75
    endloop
  endfacet
  facet normal 0 0 1
    outer loop
      vertex -31.5 30 47.75
      vertex -2.5 30 47.75
      vertex -31.5 31.25 47.75
    endloop
  endfacet
  facet normal 0 1 0
    outer loop
      vertex -2.5 31.25 47.75
      vertex -2.5 31.25 18
      vertex -31.5 31.25 47.75
    endloop
  endfacet
  facet normal 0 1 0
    outer loop
      vertex -31.5 31.25 47.75
      vertex -2.5 31.25 18
      vertex -31.5 31.25 18
    endloop
  endfacet
  facet normal 0 0 1
    outer loop
      vertex -2.5 31.25 18
      vertex -2.5 33.75 18
      vertex -31.5 33.75 18
    endloop
  endfacet
  facet normal 0 0 1
    outer loop
      vertex -31.5 31.25 18
      vertex -2.5 31.25 18
      vertex -31.5 33.75 18
    endloop
  endfacet
  facet normal 0 -1 0
    outer loop
      vertex -2.5 33.75 18
      vertex -2.5 33.75 50
      vertex -31.5 33.75 50
    endloop
  endfacet
  facet normal 0 -1 0
    outer loop
      vertex -31.5 33.75 18
      vertex -2.5 33.75 18
      vertex -31.5 33.75 50
    endloop
  endfacet
  facet normal 0 0 -1
    outer loop
      vertex -35 -32.5 15
      vertex -34.2678 -30.7322 15
      vertex -34.2678 -34.2678 15
    endloop
  endfacet
  facet normal 0 0 -1
    outer loop
      vertex -34.2678 -34.2678 15
      vertex -34.2678 -30.7322 15
      vertex -32.5 -30 15
    endloop
  endfacet
  facet normal 0 0 -1
    outer loop
      vertex -34.2678 -34.2678 15
      vertex -32.5 -30 15
      vertex -2.5 -30 15
    endloop
  endfacet
  facet normal 0 0 -1
    outer loop
      vertex -34.2678 -34.2678 15
      vertex -2.5 -30 15
      vertex -2.5 -35 15
    endloop
  endfacet
  facet normal 0 0 -1
    outer loop
      vertex -34.2678 -34.2678 15
      vertex -2.5 -35 15
      vertex -32.5 -35 15
    endloop
  endfacet
  facet normal -0.92388 0.382683 0
    outer loop
      vertex -35 -32.5 15
      vertex -35 -32.5 50
      vertex -34.2678 -30.7322 15
    endloop
  endfacet
  facet normal -0.92388 0.382683 0
    outer loop
      vertex -34.2678 -30.7322 15
      vertex -35 -32.5 50
      vertex -34.2678 -30.7322 50
    endloop
  endfacet
  facet normal -0.92388 -0.382683 0
    outer loop
      vertex -35 -32.5 15
      vertex -34.2678 -34.2678 15
      vertex -35 -32.5 50
    endloop
  endfacet
  facet normal -0.92388 -0.382683 0
    outer loop
      vertex -35 -32.5 50
      vertex -34.2678 -34.2678 15
      vertex -34.2678 -34.2678 50
    endloop
  endfacet
  facet normal -0.382683 -0.92388 0
    outer loop
      vertex -34.2678 -34.2678 50
      vertex -34.2678 -34.2678 15
      vertex -32.5 -35 15
    endloop
  endfacet
  facet normal -0.382683 -0.92388 0
    outer loop
      vertex -32.5 -35 50
      vertex -34.2678 -34.2678 50
      vertex -32.5 -35 15
    endloop
  endfacet
  facet normal -1.22461e-016 -1 0
    outer loop
      vertex -32.5 -35 50
      vertex -32.5 -35 15
      vertex -2.5 -35 15
    endloop
  endfacet
  facet normal -1.22461e-016 -1 0
    outer loop
      vertex -2.5 -35 50
      vertex -32.5 -35 50
      vertex -2.5 -35 15
    endloop
  endfacet
  facet normal 1 0 0
    outer loop
      vertex -2.5 -30 15
      vertex -2.5 -30 47.75
      vertex -2.5 -31.25 47.75
    endloop
  endfacet
  facet normal 1 0 0
    outer loop
      vertex -2.5 -33.75 18
      vertex -2.5 -30 15
      vertex -2.5 -31.25 18
    endloop
  endfacet
  facet normal 1 0 0
    outer loop
      vertex -2.5 -31.25 18
      vertex -2.5 -30 15
      vertex -2.5 -31.25 47.75
    endloop
  endfacet
  facet normal 1 0 0
    outer loop
      vertex -2.5 -35 15
      vertex -2.5 -30 15
      vertex -2.5 -33.75 18
    endloop
  endfacet
  facet normal 1 0 0
    outer loop
      vertex -2.5 -35 50
      vertex -2.5 -33.75 18
      vertex -2.5 -33.75 50
    endloop
  endfacet
  facet normal 1 0 0
    outer loop
      vertex -2.5 -35 15
      vertex -2.5 -33.75 18
      vertex -2.5 -35 50
    endloop
  endfacet
  facet normal 1.22461e-016 1 0
    outer loop
      vertex -2.5 -30 47.75
      vertex -2.5 -30 15
      vertex -31.5 -30 47.75
    endloop
  endfacet
  facet normal 1.22461e-016 1 0
    outer loop
      vertex -32.5 -30 15
      vertex -32.5 -30 50
      vertex -31.5 -30 47.75
    endloop
  endfacet
  facet normal 1.22461e-016 1 0
    outer loop
      vertex -32.5 -30 15
      vertex -31.5 -30 47.75
      vertex -2.5 -30 15
    endloop
  endfacet
  facet normal 1.22461e-016 1 0
    outer loop
      vertex -31.5 -30 47.75
      vertex -32.5 -30 50
      vertex -31.5 -30 50
    endloop
  endfacet
  facet normal -0.382683 0.92388 0
    outer loop
      vertex -34.2678 -30.7322 15
      vertex -34.2678 -30.7322 50
      vertex -32.5 -30 15
    endloop
  endfacet
  facet normal -0.382683 0.92388 0
    outer loop
      vertex -32.5 -30 15
      vertex -34.2678 -30.7322 50
      vertex -32.5 -30 50
    endloop
  endfacet
  facet normal 0 0 1
    outer loop
      vertex -34.2678 -30.7322 50
      vertex -35 -32.5 50
      vertex -34.2678 -34.2678 50
    endloop
  endfacet
  facet normal 0 0 1
    outer loop
      vertex -32.5 -35 50
      vertex -34.2678 -30.7322 50
      vertex -34.2678 -34.2678 50
    endloop
  endfacet
  facet normal 0 0 1
    outer loop
      vertex -31.5 -33.75 50
      vertex -34.2678 -30.7322 50
      vertex -32.5 -35 50
    endloop
  endfacet
  facet normal 0 0 1
    outer loop
      vertex -31.5 -33.75 50
      vertex -31.5 -30 50
      vertex -34.2678 -30.7322 50
    endloop
  endfacet
  facet normal 0 0 1
    outer loop
      vertex -2.5 -35 50
      vertex -31.5 -33.75 50
      vertex -32.5 -35 50
    endloop
  endfacet
  facet normal 0 0 1
    outer loop
      vertex -32.5 -30 50
      vertex -34.2678 -30.7322 50
      vertex -31.5 -30 50
    endloop
  endfacet
  facet normal 0 0 1
    outer loop
      vertex -2.5 -33.75 50
      vertex -31.5 -33.75 50
      vertex -2.5 -35 50
    endloop
  endfacet
  facet normal 0 1 0
    outer loop
      vertex -2.5 -33.75 50
      vertex -2.5 -33.75 18
      vertex -31.5 -33.75 50
    endloop
  endfacet
  facet normal 0 1 0
    outer loop
      vertex -31.5 -33.75 50
      vertex -2.5 -33.75 18
      vertex -31.5 -33.75 18
    endloop
  endfacet
  facet normal 0 0 1
    outer loop
      vertex -2.5 -33.75 18
      vertex -2.5 -31.25 18
      vertex -31.5 -31.25 18
    endloop
  endfacet
  facet normal 0 0 1
    outer loop
      vertex -31.5 -33.75 18
      vertex -2.5 -33.75 18
      vertex -31.5 -31.25 18
    endloop
  endfacet
  facet normal 0 -1 0
    outer loop
      vertex -2.5 -31.25 18
      vertex -2.5 -31.25 47.75
      vertex -31.5 -31.25 47.75
    endloop
  endfacet
  facet normal 0 -1 0
    outer loop
      vertex -31.5 -31.25 18
      vertex -2.5 -31.25 18
      vertex -31.5 -31.25 47.75
    endloop
  endfacet
  facet normal 0 0 1
    outer loop
      vertex -2.5 -31.25 47.75
      vertex -2.5 -30 47.75
      vertex -31.5 -30 47.75
    endloop
  endfacet
  facet normal 0 0 1
    outer loop
      vertex -31.5 -31.25 47.75
      vertex -2.5 -31.25 47.75
      vertex -31.5 -30 47.75
    endloop
  endfacet
  facet normal 1 0 0
    outer loop
      vertex -31.5 -30 50
      vertex -31.5 -31.25 47.75
      vertex -31.5 -30 47.75
    endloop
  endfacet
  facet normal 1 0 0
    outer loop
      vertex -31.5 -33.75 50
      vertex -31.5 -31.25 47.75
      vertex -31.5 -30 50
    endloop
  endfacet
  facet normal 1 0 0
    outer loop
      vertex -31.5 -31.25 18
      vertex -31.5 -31.25 47.75
      vertex -31.5 -33.75 50
    endloop
  endfacet
  facet normal 1 0 0
    outer loop
      vertex -31.5 -33.75 18
      vertex -31.5 -31.25 18
      vertex -31.5 -33.75 50
    endloop
  endfacet
endsolid OpenSCAD_Model
