solid OpenSCAD_Model
  facet normal 0 0 -1
    outer loop
      vertex -1.27279 1.27279 0
      vertex 0 1.8 0
      vertex -1.8 0 0
    endloop
  endfacet
  facet normal 0 0 -1
    outer loop
      vertex -1.8 0 0
      vertex 0 1.8 0
      vertex 1.27279 1.27279 0
    endloop
  endfacet
  facet normal 0 0 -1
    outer loop
      vertex -1.8 0 0
      vertex 1.27279 1.27279 0
      vertex 1.8 0 0
    endloop
  endfacet
  facet normal 0 0 -1
    outer loop
      vertex -1.8 0 0
      vertex 1.8 0 0
      vertex 1.27279 -1.27279 0
    endloop
  endfacet
  facet normal 0 0 -1
    outer loop
      vertex -1.8 0 0
      vertex 1.27279 -1.27279 0
      vertex 0 -1.8 0
    endloop
  endfacet
  facet normal 0 0 -1
    outer loop
      vertex -1.8 0 0
      vertex 0 -1.8 0
      vertex -1.27279 -1.27279 0
    endloop
  endfacet
  facet normal 0.923879 0.382684 0
    outer loop
      vertex 1.27279 1.27279 0
      vertex 1.27279 1.27279 8
      vertex 1.8 0 8
    endloop
  endfacet
  facet normal 0.923879 0.382684 0
    outer loop
      vertex 1.8 0 0
      vertex 1.27279 1.27279 0
      vertex 1.8 0 8
    endloop
  endfacet
  facet normal 0.382684 0.923879 0
    outer loop
      vertex 0 1.8 8
      vertex 1.27279 1.27279 8
      vertex 0 1.8 0
    endloop
  endfacet
  facet normal 0.382684 0.923879 0
    outer loop
      vertex 0 1.8 0
      vertex 1.27279 1.27279 8
      vertex 1.27279 1.27279 0
    endloop
  endfacet
  facet normal -0.923879 0.382684 0
    outer loop
      vertex -1.8 0 8
      vertex -1.27279 1.27279 8
      vertex -1.8 0 0
    endloop
  endfacet
  facet normal -0.923879 0.382684 0
    outer loop
      vertex -1.8 0 0
      vertex -1.27279 1.27279 8
      vertex -1.27279 1.27279 0
    endloop
  endfacet
  facet normal -0.923879 -0.382684 0
    outer loop
      vertex -1.27279 -1.27279 0
      vertex -1.27279 -1.27279 8
      vertex -1.8 0 0
    endloop
  endfacet
  facet normal -0.923879 -0.382684 0
    outer loop
      vertex -1.8 0 0
      vertex -1.27279 -1.27279 8
      vertex -1.8 0 8
    endloop
  endfacet
  facet normal -0.382684 -0.923879 0
    outer loop
      vertex -1.27279 -1.27279 0
      vertex 0 -1.8 0
      vertex 0 -1.8 8
    endloop
  endfacet
  facet normal -0.382684 -0.923879 0
    outer loop
      vertex -1.27279 -1.27279 8
      vertex -1.27279 -1.27279 0
      vertex 0 -1.8 8
    endloop
  endfacet
  facet normal 0.382684 -0.923879 0
    outer loop
      vertex 0 -1.8 0
      vertex 1.27279 -1.27279 0
      vertex 1.27279 -1.27279 8
    endloop
  endfacet
  facet normal 0.382684 -0.923879 0
    outer loop
      vertex 0 -1.8 8
      vertex 0 -1.8 0
      vertex 1.27279 -1.27279 8
    endloop
  endfacet
  facet normal 0.923879 -0.382684 0
    outer loop
      vertex 1.27279 -1.27279 0
      vertex 1.8 0 0
      vertex 1.8 0 8
    endloop
  endfacet
  facet normal 0.923879 -0.382684 0
    outer loop
      vertex 1.27279 -1.27279 8
      vertex 1.27279 -1.27279 0
      vertex 1.8 0 8
    endloop
  endfacet
  facet normal -0.382684 0.923879 0
    outer loop
      vertex -1.27279 1.27279 8
      vertex 0 1.8 8
      vertex -1.27279 1.27279 0
    endloop
  endfacet
  facet normal -0.382684 0.923879 0
    outer loop
      vertex -1.27279 1.27279 0
      vertex 0 1.8 8
      vertex 0 1.8 0
    endloop
  endfacet
  facet normal 0 0 1
    outer loop
      vertex -1.8 0 8
      vertex -1.27279 -1.27279 8
      vertex 0 -1.8 8
    endloop
  endfacet
  facet normal 0 0 1
    outer loop
      vertex 1.8 0 8
      vertex -1.8 0 8
      vertex 1.27279 -1.27279 8
    endloop
  endfacet
  facet normal 0 0 1
    outer loop
      vertex 1.27279 -1.27279 8
      vertex -1.8 0 8
      vertex 0 -1.8 8
    endloop
  endfacet
  facet normal 0 0 1
    outer loop
      vertex 1.27279 1.27279 8
      vertex -1.8 0 8
      vertex 1.8 0 8
    endloop
  endfacet
  facet normal 0 0 1
    outer loop
      vertex 0 1.8 8
      vertex -1.8 0 8
      vertex 1.27279 1.27279 8
    endloop
  endfacet
  facet normal 0 0 1
    outer loop
      vertex -1.27279 1.27279 8
      vertex -1.8 0 8
      vertex 0 1.8 8
    endloop
  endfacet
endsolid OpenSCAD_Model
