solid OpenSCAD_Model
  facet normal 0 0 -1
    outer loop
      vertex -3.88377 -0.957263 0
      vertex -3.88377 0.957263 0
      vertex -2.99404 -2.65249 0
    endloop
  endfacet
  facet normal 0 0 -1
    outer loop
      vertex -2.99404 -2.65249 0
      vertex -3.88377 0.957263 0
      vertex -2.99404 2.65249 0
    endloop
  endfacet
  facet normal 0 0 -1
    outer loop
      vertex -2.99404 -2.65249 0
      vertex -2.99404 2.65249 0
      vertex -1.41842 3.74006 0
    endloop
  endfacet
  facet normal 0 0 -1
    outer loop
      vertex -0.95 1.64545 0
      vertex -1.41842 3.74006 0
      vertex 0.482147 3.97083 0
    endloop
  endfacet
  facet normal 0 0 -1
    outer loop
      vertex 0.95 1.64545 0
      vertex 2.27226 3.29194 0
      vertex 3.54182 1.85889 0
    endloop
  endfacet
  facet normal 0 0 -1
    outer loop
      vertex 1.9 0 0
      vertex 3.54182 1.85889 0
      vertex 4 0 0
    endloop
  endfacet
  facet normal 0 0 -1
    outer loop
      vertex 0.95 -1.64545 0
      vertex 4 0 0
      vertex 3.54182 -1.85889 0
    endloop
  endfacet
  facet normal 0 0 -1
    outer loop
      vertex -2.99404 -2.65249 0
      vertex 3.54182 -1.85889 0
      vertex 2.27226 -3.29194 0
    endloop
  endfacet
  facet normal 0 0 -1
    outer loop
      vertex -2.99404 -2.65249 0
      vertex 2.27226 -3.29194 0
      vertex 0.482147 -3.97083 0
    endloop
  endfacet
  facet normal 0 0 -1
    outer loop
      vertex -2.99404 -2.65249 0
      vertex 0.482147 -3.97083 0
      vertex -1.41842 -3.74006 0
    endloop
  endfacet
  facet normal 0 0 -1
    outer loop
      vertex -2.99404 -2.65249 0
      vertex -1.41842 3.74006 0
      vertex -1.9 0 0
    endloop
  endfacet
  facet normal 0 0 -1
    outer loop
      vertex 0.95 -1.64545 0
      vertex -2.99404 -2.65249 0
      vertex -0.95 -1.64545 0
    endloop
  endfacet
  facet normal 0 0 -1
    outer loop
      vertex 1.9 0 0
      vertex 4 0 0
      vertex 0.95 -1.64545 0
    endloop
  endfacet
  facet normal 0 0 -1
    outer loop
      vertex -2.99404 -2.65249 0
      vertex 0.95 -1.64545 0
      vertex 3.54182 -1.85889 0
    endloop
  endfacet
  facet normal 0 0 -1
    outer loop
      vertex 0.95 1.64545 0
      vertex 3.54182 1.85889 0
      vertex 1.9 0 0
    endloop
  endfacet
  facet normal 0 0 -1
    outer loop
      vertex -1.9 0 0
      vertex -1.41842 3.74006 0
      vertex -0.95 1.64545 0
    endloop
  endfacet
  facet normal 0 0 -1
    outer loop
      vertex -0.95 -1.64545 0
      vertex -2.99404 -2.65249 0
      vertex -1.9 0 0
    endloop
  endfacet
  facet normal 0 0 -1
    outer loop
      vertex -0.95 1.64545 0
      vertex 0.482147 3.97083 0
      vertex 2.27226 3.29194 0
    endloop
  endfacet
  facet normal 0 0 -1
    outer loop
      vertex -0.95 1.64545 0
      vertex 2.27226 3.29194 0
      vertex 0.95 1.64545 0
    endloop
  endfacet
  facet normal -1 0 0
    outer loop
      vertex -3.88377 -0.957263 0
      vertex -3.88377 -0.957263 1
      vertex -3.88377 0.957263 0
    endloop
  endfacet
  facet normal -1 0 0
    outer loop
      vertex -3.88377 0.957263 0
      vertex -3.88377 -0.957263 1
      vertex -3.88377 0.957263 1
    endloop
  endfacet
  facet normal -0.885456 -0.464723 0
    outer loop
      vertex -3.88377 -0.957263 0
      vertex -2.99404 -2.65249 0
      vertex -3.88377 -0.957263 1
    endloop
  endfacet
  facet normal -0.885456 -0.464723 0
    outer loop
      vertex -3.88377 -0.957263 1
      vertex -2.99404 -2.65249 0
      vertex -2.99404 -2.65249 1
    endloop
  endfacet
  facet normal -0.568065 -0.822984 0
    outer loop
      vertex -2.99404 -2.65249 1
      vertex -2.99404 -2.65249 0
      vertex -1.41842 -3.74006 0
    endloop
  endfacet
  facet normal -0.568065 -0.822984 0
    outer loop
      vertex -1.41842 -3.74006 1
      vertex -2.99404 -2.65249 1
      vertex -1.41842 -3.74006 0
    endloop
  endfacet
  facet normal -0.120536 -0.992709 0
    outer loop
      vertex -1.41842 -3.74006 1
      vertex -1.41842 -3.74006 0
      vertex 0.482147 -3.97083 0
    endloop
  endfacet
  facet normal -0.120536 -0.992709 0
    outer loop
      vertex 0.482147 -3.97083 1
      vertex -1.41842 -3.74006 1
      vertex 0.482147 -3.97083 0
    endloop
  endfacet
  facet normal 0.354605 -0.935016 0
    outer loop
      vertex 0.482147 -3.97083 1
      vertex 0.482147 -3.97083 0
      vertex 2.27226 -3.29194 0
    endloop
  endfacet
  facet normal 0.354605 -0.935016 0
    outer loop
      vertex 2.27226 -3.29194 1
      vertex 0.482147 -3.97083 1
      vertex 2.27226 -3.29194 0
    endloop
  endfacet
  facet normal 0.748511 -0.663123 0
    outer loop
      vertex 2.27226 -3.29194 1
      vertex 2.27226 -3.29194 0
      vertex 3.54182 -1.85889 0
    endloop
  endfacet
  facet normal 0.748511 -0.663123 0
    outer loop
      vertex 3.54182 -1.85889 1
      vertex 2.27226 -3.29194 1
      vertex 3.54182 -1.85889 0
    endloop
  endfacet
  facet normal 0.970942 -0.239316 0
    outer loop
      vertex 3.54182 -1.85889 1
      vertex 3.54182 -1.85889 0
      vertex 4 0 0
    endloop
  endfacet
  facet normal 0.970942 -0.239316 0
    outer loop
      vertex 4 0 1
      vertex 3.54182 -1.85889 1
      vertex 4 0 0
    endloop
  endfacet
  facet normal 0.970942 0.239316 0
    outer loop
      vertex 4 0 0
      vertex 3.54182 1.85889 0
      vertex 3.54182 1.85889 1
    endloop
  endfacet
  facet normal 0.970942 0.239316 0
    outer loop
      vertex 4 0 1
      vertex 4 0 0
      vertex 3.54182 1.85889 1
    endloop
  endfacet
  facet normal 0.748511 0.663123 0
    outer loop
      vertex 3.54182 1.85889 0
      vertex 2.27226 3.29194 0
      vertex 2.27226 3.29194 1
    endloop
  endfacet
  facet normal 0.748511 0.663123 0
    outer loop
      vertex 3.54182 1.85889 1
      vertex 3.54182 1.85889 0
      vertex 2.27226 3.29194 1
    endloop
  endfacet
  facet normal 0.354605 0.935016 0
    outer loop
      vertex 0.482147 3.97083 0
      vertex 0.482147 3.97083 1
      vertex 2.27226 3.29194 0
    endloop
  endfacet
  facet normal 0.354605 0.935016 0
    outer loop
      vertex 2.27226 3.29194 0
      vertex 0.482147 3.97083 1
      vertex 2.27226 3.29194 1
    endloop
  endfacet
  facet normal -0.120536 0.992709 0
    outer loop
      vertex -1.41842 3.74006 0
      vertex -1.41842 3.74006 1
      vertex 0.482147 3.97083 0
    endloop
  endfacet
  facet normal -0.120536 0.992709 0
    outer loop
      vertex 0.482147 3.97083 0
      vertex -1.41842 3.74006 1
      vertex 0.482147 3.97083 1
    endloop
  endfacet
  facet normal -0.568065 0.822984 0
    outer loop
      vertex -2.99404 2.65249 0
      vertex -2.99404 2.65249 1
      vertex -1.41842 3.74006 0
    endloop
  endfacet
  facet normal -0.568065 0.822984 0
    outer loop
      vertex -1.41842 3.74006 0
      vertex -2.99404 2.65249 1
      vertex -1.41842 3.74006 1
    endloop
  endfacet
  facet normal -0.885456 0.464723 0
    outer loop
      vertex -3.88377 0.957263 0
      vertex -3.88377 0.957263 1
      vertex -2.99404 2.65249 0
    endloop
  endfacet
  facet normal -0.885456 0.464723 0
    outer loop
      vertex -2.99404 2.65249 0
      vertex -3.88377 0.957263 1
      vertex -2.99404 2.65249 1
    endloop
  endfacet
  facet normal 0.866025 0.5 0
    outer loop
      vertex -1.9 0 1
      vertex -0.95 -1.64545 1
      vertex -0.95 -1.64545 0
    endloop
  endfacet
  facet normal 0.866025 0.5 0
    outer loop
      vertex -1.9 0 0
      vertex -1.9 0 1
      vertex -0.95 -1.64545 0
    endloop
  endfacet
  facet normal 0.866025 -0.5 0
    outer loop
      vertex -0.95 1.64545 0
      vertex -0.95 1.64545 1
      vertex -1.9 0 1
    endloop
  endfacet
  facet normal 0.866025 -0.5 0
    outer loop
      vertex -1.9 0 0
      vertex -0.95 1.64545 0
      vertex -1.9 0 1
    endloop
  endfacet
  facet normal 0 -1 0
    outer loop
      vertex 0.95 1.64545 0
      vertex 0.95 1.64545 1
      vertex -0.95 1.64545 1
    endloop
  endfacet
  facet normal 0 -1 0
    outer loop
      vertex -0.95 1.64545 0
      vertex 0.95 1.64545 0
      vertex -0.95 1.64545 1
    endloop
  endfacet
  facet normal -0.866025 -0.5 0
    outer loop
      vertex 1.9 0 1
      vertex 0.95 1.64545 1
      vertex 1.9 0 0
    endloop
  endfacet
  facet normal -0.866025 -0.5 0
    outer loop
      vertex 1.9 0 0
      vertex 0.95 1.64545 1
      vertex 0.95 1.64545 0
    endloop
  endfacet
  facet normal -0.866025 0.5 0
    outer loop
      vertex 1.9 0 1
      vertex 1.9 0 0
      vertex 0.95 -1.64545 1
    endloop
  endfacet
  facet normal -0.866025 0.5 0
    outer loop
      vertex 0.95 -1.64545 1
      vertex 1.9 0 0
      vertex 0.95 -1.64545 0
    endloop
  endfacet
  facet normal 0 1 0
    outer loop
      vertex 0.95 -1.64545 1
      vertex 0.95 -1.64545 0
      vertex -0.95 -1.64545 1
    endloop
  endfacet
  facet normal 0 1 0
    outer loop
      vertex -0.95 -1.64545 1
      vertex 0.95 -1.64545 0
      vertex -0.95 -1.64545 0
    endloop
  endfacet
  facet normal 0 0 1
    outer loop
      vertex -3.88377 0.957263 1
      vertex -3.88377 -0.957263 1
      vertex -2.99404 -2.65249 1
    endloop
  endfacet
  facet normal 0 0 1
    outer loop
      vertex 0.482147 -3.97083 1
      vertex -3.88377 0.957263 1
      vertex -1.41842 -3.74006 1
    endloop
  endfacet
  facet normal 0 0 1
    outer loop
      vertex -1.41842 -3.74006 1
      vertex -3.88377 0.957263 1
      vertex -2.99404 -2.65249 1
    endloop
  endfacet
  facet normal 0 0 1
    outer loop
      vertex -0.95 -1.64545 1
      vertex -3.88377 0.957263 1
      vertex 0.482147 -3.97083 1
    endloop
  endfacet
  facet normal 0 0 1
    outer loop
      vertex 1.9 0 1
      vertex 0.95 -1.64545 1
      vertex 3.54182 -1.85889 1
    endloop
  endfacet
  facet normal 0 0 1
    outer loop
      vertex 0.95 1.64545 1
      vertex 1.9 0 1
      vertex 4 0 1
    endloop
  endfacet
  facet normal 0 0 1
    outer loop
      vertex 0.482147 3.97083 1
      vertex -3.88377 0.957263 1
      vertex 2.27226 3.29194 1
    endloop
  endfacet
  facet normal 0 0 1
    outer loop
      vertex -1.41842 3.74006 1
      vertex -3.88377 0.957263 1
      vertex 0.482147 3.97083 1
    endloop
  endfacet
  facet normal 0 0 1
    outer loop
      vertex -2.99404 2.65249 1
      vertex -3.88377 0.957263 1
      vertex -1.41842 3.74006 1
    endloop
  endfacet
  facet normal 0 0 1
    outer loop
      vertex 2.27226 -3.29194 1
      vertex -0.95 -1.64545 1
      vertex 0.482147 -3.97083 1
    endloop
  endfacet
  facet normal 0 0 1
    outer loop
      vertex 0.95 1.64545 1
      vertex 4 0 1
      vertex 3.54182 1.85889 1
    endloop
  endfacet
  facet normal 0 0 1
    outer loop
      vertex 2.27226 3.29194 1
      vertex -0.95 1.64545 1
      vertex 3.54182 1.85889 1
    endloop
  endfacet
  facet normal 0 0 1
    outer loop
      vertex 2.27226 3.29194 1
      vertex -3.88377 0.957263 1
      vertex -0.95 1.64545 1
    endloop
  endfacet
  facet normal 0 0 1
    outer loop
      vertex -0.95 1.64545 1
      vertex 0.95 1.64545 1
      vertex 3.54182 1.85889 1
    endloop
  endfacet
  facet normal 0 0 1
    outer loop
      vertex 4 0 1
      vertex 1.9 0 1
      vertex 3.54182 -1.85889 1
    endloop
  endfacet
  facet normal 0 0 1
    outer loop
      vertex 3.54182 -1.85889 1
      vertex 0.95 -1.64545 1
      vertex 2.27226 -3.29194 1
    endloop
  endfacet
  facet normal 0 0 1
    outer loop
      vertex -0.95 -1.64545 1
      vertex -1.9 0 1
      vertex -3.88377 0.957263 1
    endloop
  endfacet
  facet normal 0 0 1
    outer loop
      vertex 0.95 -1.64545 1
      vertex -0.95 -1.64545 1
      vertex 2.27226 -3.29194 1
    endloop
  endfacet
  facet normal 0 0 1
    outer loop
      vertex -1.9 0 1
      vertex -0.95 1.64545 1
      vertex -3.88377 0.957263 1
    endloop
  endfacet
endsolid OpenSCAD_Model
