solid OpenSCAD_Model
  facet normal 0 0 -1
    outer loop
      vertex -30 0 0
      vertex -29.9408 1.88372 0
      vertex -29.9408 -1.88372 0
    endloop
  endfacet
  facet normal 0 0 -1
    outer loop
      vertex -29.9408 -1.88372 0
      vertex -29.9408 1.88372 0
      vertex -29.7634 3.76 0
    endloop
  endfacet
  facet normal 0 0 -1
    outer loop
      vertex -29.9408 -1.88372 0
      vertex -29.7634 3.76 0
      vertex -29.4686 5.62144 0
    endloop
  endfacet
  facet normal 0 0 -1
    outer loop
      vertex -29.9408 -1.88372 0
      vertex -29.4686 5.62144 0
      vertex -29.0575 7.4607 0
    endloop
  endfacet
  facet normal 0 0 -1
    outer loop
      vertex -29.9408 -1.88372 0
      vertex -29.0575 7.4607 0
      vertex -28.5317 9.27051 0
    endloop
  endfacet
  facet normal 0 0 -1
    outer loop
      vertex -29.9408 -1.88372 0
      vertex -28.5317 9.27051 0
      vertex -27.8933 11.0437 0
    endloop
  endfacet
  facet normal 0 0 -1
    outer loop
      vertex -29.9408 -1.88372 0
      vertex -27.8933 11.0437 0
      vertex -27.1448 12.7734 0
    endloop
  endfacet
  facet normal 0 0 -1
    outer loop
      vertex -29.9408 -1.88372 0
      vertex -27.1448 12.7734 0
      vertex -26.2892 14.4526 0
    endloop
  endfacet
  facet normal 0 0 -1
    outer loop
      vertex -29.9408 -1.88372 0
      vertex -26.2892 14.4526 0
      vertex -25.3298 16.0748 0
    endloop
  endfacet
  facet normal 0 0 -1
    outer loop
      vertex -29.9408 -1.88372 0
      vertex -25.3298 16.0748 0
      vertex -24.2705 17.6336 0
    endloop
  endfacet
  facet normal 0 0 -1
    outer loop
      vertex -29.9408 -1.88372 0
      vertex -24.2705 17.6336 0
      vertex -23.1154 19.1227 0
    endloop
  endfacet
  facet normal 0 0 -1
    outer loop
      vertex -29.9408 -1.88372 0
      vertex -23.1154 19.1227 0
      vertex -21.8691 20.5364 0
    endloop
  endfacet
  facet normal 0 0 -1
    outer loop
      vertex -29.9408 -1.88372 0
      vertex -21.8691 20.5364 0
      vertex -20.5364 21.8691 0
    endloop
  endfacet
  facet normal 0 0 -1
    outer loop
      vertex -29.9408 -1.88372 0
      vertex -20.5364 21.8691 0
      vertex -19.1227 23.1154 0
    endloop
  endfacet
  facet normal 0 0 -1
    outer loop
      vertex -29.9408 -1.88372 0
      vertex -19.1227 23.1154 0
      vertex -17.6336 24.2705 0
    endloop
  endfacet
  facet normal 0 0 -1
    outer loop
      vertex -29.9408 -1.88372 0
      vertex -17.6336 24.2705 0
      vertex -16.0748 25.3298 0
    endloop
  endfacet
  facet normal 0 0 -1
    outer loop
      vertex -29.9408 -1.88372 0
      vertex -16.0748 25.3298 0
      vertex -14.4526 26.2892 0
    endloop
  endfacet
  facet normal 0 0 -1
    outer loop
      vertex -29.9408 -1.88372 0
      vertex -14.4526 26.2892 0
      vertex -12.7734 27.1448 0
    endloop
  endfacet
  facet normal 0 0 -1
    outer loop
      vertex -29.9408 -1.88372 0
      vertex -12.7734 27.1448 0
      vertex -11.0437 27.8933 0
    endloop
  endfacet
  facet normal 0 0 -1
    outer loop
      vertex -29.9408 -1.88372 0
      vertex -11.0437 27.8933 0
      vertex -9.27051 28.5317 0
    endloop
  endfacet
  facet normal 0 0 -1
    outer loop
      vertex -29.9408 -1.88372 0
      vertex -9.27051 28.5317 0
      vertex -7.4607 29.0575 0
    endloop
  endfacet
  facet normal 0 0 -1
    outer loop
      vertex -29.9408 -1.88372 0
      vertex -7.4607 29.0575 0
      vertex -5.62144 29.4686 0
    endloop
  endfacet
  facet normal 0 0 -1
    outer loop
      vertex -29.9408 -1.88372 0
      vertex -5.62144 29.4686 0
      vertex -3.76 29.7634 0
    endloop
  endfacet
  facet normal 0 0 -1
    outer loop
      vertex -29.9408 -1.88372 0
      vertex -3.76 29.7634 0
      vertex -1.88372 29.9408 0
    endloop
  endfacet
  facet normal 0 0 -1
    outer loop
      vertex -29.9408 -1.88372 0
      vertex -1.88372 29.9408 0
      vertex 0 30 0
    endloop
  endfacet
  facet normal 0 0 -1
    outer loop
      vertex -29.9408 -1.88372 0
      vertex 0 30 0
      vertex 1.88372 29.9408 0
    endloop
  endfacet
  facet normal 0 0 -1
    outer loop
      vertex -29.9408 -1.88372 0
      vertex 1.88372 29.9408 0
      vertex 3.76 29.7634 0
    endloop
  endfacet
  facet normal 0 0 -1
    outer loop
      vertex -29.9408 -1.88372 0
      vertex 3.76 29.7634 0
      vertex 5.62144 29.4686 0
    endloop
  endfacet
  facet normal 0 0 -1
    outer loop
      vertex -29.9408 -1.88372 0
      vertex 5.62144 29.4686 0
      vertex 7.4607 29.0575 0
    endloop
  endfacet
  facet normal 0 0 -1
    outer loop
      vertex -29.9408 -1.88372 0
      vertex 7.4607 29.0575 0
      vertex 9.27051 28.5317 0
    endloop
  endfacet
  facet normal 0 0 -1
    outer loop
      vertex -29.9408 -1.88372 0
      vertex 9.27051 28.5317 0
      vertex 11.0437 27.8933 0
    endloop
  endfacet
  facet normal 0 0 -1
    outer loop
      vertex -29.9408 -1.88372 0
      vertex 11.0437 27.8933 0
      vertex 12.7734 27.1448 0
    endloop
  endfacet
  facet normal 0 0 -1
    outer loop
      vertex -29.9408 -1.88372 0
      vertex 12.7734 27.1448 0
      vertex 14.4526 26.2892 0
    endloop
  endfacet
  facet normal 0 0 -1
    outer loop
      vertex -29.9408 -1.88372 0
      vertex 14.4526 26.2892 0
      vertex 16.0748 25.3298 0
    endloop
  endfacet
  facet normal 0 0 -1
    outer loop
      vertex -29.9408 -1.88372 0
      vertex 16.0748 25.3298 0
      vertex 17.6336 24.2705 0
    endloop
  endfacet
  facet normal 0 0 -1
    outer loop
      vertex -29.9408 -1.88372 0
      vertex 17.6336 24.2705 0
      vertex 19.1227 23.1154 0
    endloop
  endfacet
  facet normal 0 0 -1
    outer loop
      vertex -29.9408 -1.88372 0
      vertex 19.1227 23.1154 0
      vertex 20.5364 21.8691 0
    endloop
  endfacet
  facet normal 0 0 -1
    outer loop
      vertex -29.9408 -1.88372 0
      vertex 20.5364 21.8691 0
      vertex 21.8691 20.5364 0
    endloop
  endfacet
  facet normal 0 0 -1
    outer loop
      vertex -29.9408 -1.88372 0
      vertex 21.8691 20.5364 0
      vertex 23.1154 19.1227 0
    endloop
  endfacet
  facet normal 0 0 -1
    outer loop
      vertex -29.9408 -1.88372 0
      vertex 23.1154 19.1227 0
      vertex 24.2705 17.6336 0
    endloop
  endfacet
  facet normal 0 0 -1
    outer loop
      vertex -0.964293 7.94167 0
      vertex 24.2705 17.6336 0
      vertex 25.3298 16.0748 0
    endloop
  endfacet
  facet normal 0 0 -1
    outer loop
      vertex 0.964293 7.94167 0
      vertex 25.3298 16.0748 0
      vertex 26.2892 14.4526 0
    endloop
  endfacet
  facet normal 0 0 -1
    outer loop
      vertex 2.83684 7.48013 0
      vertex 26.2892 14.4526 0
      vertex 27.1448 12.7734 0
    endloop
  endfacet
  facet normal 0 0 -1
    outer loop
      vertex 4.54452 6.58387 0
      vertex 27.1448 12.7734 0
      vertex 27.8933 11.0437 0
    endloop
  endfacet
  facet normal 0 0 -1
    outer loop
      vertex 5.98809 5.30498 0
      vertex 27.8933 11.0437 0
      vertex 28.5317 9.27051 0
    endloop
  endfacet
  facet normal 0 0 -1
    outer loop
      vertex 7.08365 3.71778 0
      vertex 29.0575 7.4607 0
      vertex 29.4686 5.62144 0
    endloop
  endfacet
  facet normal 0 0 -1
    outer loop
      vertex 7.76753 1.91452 0
      vertex 29.4686 5.62144 0
      vertex 29.7634 3.76 0
    endloop
  endfacet
  facet normal 0 0 -1
    outer loop
      vertex 8 0 0
      vertex 29.9408 1.88372 0
      vertex 30 0 0
    endloop
  endfacet
  facet normal 0 0 -1
    outer loop
      vertex 7.76753 -1.91452 0
      vertex 29.9408 -1.88372 0
      vertex 29.7634 -3.76 0
    endloop
  endfacet
  facet normal 0 0 -1
    outer loop
      vertex 7.08365 -3.71778 0
      vertex 29.7634 -3.76 0
      vertex 29.4686 -5.62144 0
    endloop
  endfacet
  facet normal 0 0 -1
    outer loop
      vertex 5.98809 -5.30498 0
      vertex 29.0575 -7.4607 0
      vertex 28.5317 -9.27051 0
    endloop
  endfacet
  facet normal 0 0 -1
    outer loop
      vertex 4.54452 -6.58387 0
      vertex 28.5317 -9.27051 0
      vertex 27.8933 -11.0437 0
    endloop
  endfacet
  facet normal 0 0 -1
    outer loop
      vertex 2.83684 -7.48013 0
      vertex 27.1448 -12.7734 0
      vertex 0.964293 -7.94167 0
    endloop
  endfacet
  facet normal 0 0 -1
    outer loop
      vertex -29.9408 -1.88372 0
      vertex 26.2892 -14.4526 0
      vertex 25.3298 -16.0748 0
    endloop
  endfacet
  facet normal 0 0 -1
    outer loop
      vertex -29.9408 -1.88372 0
      vertex 25.3298 -16.0748 0
      vertex 24.2705 -17.6336 0
    endloop
  endfacet
  facet normal 0 0 -1
    outer loop
      vertex -29.9408 -1.88372 0
      vertex 24.2705 -17.6336 0
      vertex 23.1154 -19.1227 0
    endloop
  endfacet
  facet normal 0 0 -1
    outer loop
      vertex -29.9408 -1.88372 0
      vertex 23.1154 -19.1227 0
      vertex 21.8691 -20.5364 0
    endloop
  endfacet
  facet normal 0 0 -1
    outer loop
      vertex -29.9408 -1.88372 0
      vertex 21.8691 -20.5364 0
      vertex 20.5364 -21.8691 0
    endloop
  endfacet
  facet normal 0 0 -1
    outer loop
      vertex -29.9408 -1.88372 0
      vertex 20.5364 -21.8691 0
      vertex 19.1227 -23.1154 0
    endloop
  endfacet
  facet normal 0 0 -1
    outer loop
      vertex -29.9408 -1.88372 0
      vertex 19.1227 -23.1154 0
      vertex 17.6336 -24.2705 0
    endloop
  endfacet
  facet normal 0 0 -1
    outer loop
      vertex -29.9408 -1.88372 0
      vertex 17.6336 -24.2705 0
      vertex 16.0748 -25.3298 0
    endloop
  endfacet
  facet normal 0 0 -1
    outer loop
      vertex -29.9408 -1.88372 0
      vertex 16.0748 -25.3298 0
      vertex 14.4526 -26.2892 0
    endloop
  endfacet
  facet normal 0 0 -1
    outer loop
      vertex -29.9408 -1.88372 0
      vertex 14.4526 -26.2892 0
      vertex 12.7734 -27.1448 0
    endloop
  endfacet
  facet normal 0 0 -1
    outer loop
      vertex -29.9408 -1.88372 0
      vertex 12.7734 -27.1448 0
      vertex 11.0437 -27.8933 0
    endloop
  endfacet
  facet normal 0 0 -1
    outer loop
      vertex -29.9408 -1.88372 0
      vertex 11.0437 -27.8933 0
      vertex 9.27051 -28.5317 0
    endloop
  endfacet
  facet normal 0 0 -1
    outer loop
      vertex -29.9408 -1.88372 0
      vertex 9.27051 -28.5317 0
      vertex 7.4607 -29.0575 0
    endloop
  endfacet
  facet normal 0 0 -1
    outer loop
      vertex -29.9408 -1.88372 0
      vertex 7.4607 -29.0575 0
      vertex 5.62144 -29.4686 0
    endloop
  endfacet
  facet normal 0 0 -1
    outer loop
      vertex -29.9408 -1.88372 0
      vertex 5.62144 -29.4686 0
      vertex 3.76 -29.7634 0
    endloop
  endfacet
  facet normal 0 0 -1
    outer loop
      vertex -29.9408 -1.88372 0
      vertex 3.76 -29.7634 0
      vertex 1.88372 -29.9408 0
    endloop
  endfacet
  facet normal 0 0 -1
    outer loop
      vertex -29.9408 -1.88372 0
      vertex 1.88372 -29.9408 0
      vertex 0 -30 0
    endloop
  endfacet
  facet normal 0 0 -1
    outer loop
      vertex -29.9408 -1.88372 0
      vertex 0 -30 0
      vertex -1.88372 -29.9408 0
    endloop
  endfacet
  facet normal 0 0 -1
    outer loop
      vertex -29.9408 -1.88372 0
      vertex -1.88372 -29.9408 0
      vertex -3.76 -29.7634 0
    endloop
  endfacet
  facet normal 0 0 -1
    outer loop
      vertex -29.9408 -1.88372 0
      vertex -3.76 -29.7634 0
      vertex -5.62144 -29.4686 0
    endloop
  endfacet
  facet normal 0 0 -1
    outer loop
      vertex -29.9408 -1.88372 0
      vertex -5.62144 -29.4686 0
      vertex -7.4607 -29.0575 0
    endloop
  endfacet
  facet normal 0 0 -1
    outer loop
      vertex -29.9408 -1.88372 0
      vertex -7.4607 -29.0575 0
      vertex -9.27051 -28.5317 0
    endloop
  endfacet
  facet normal 0 0 -1
    outer loop
      vertex -29.9408 -1.88372 0
      vertex -9.27051 -28.5317 0
      vertex -11.0437 -27.8933 0
    endloop
  endfacet
  facet normal 0 0 -1
    outer loop
      vertex -29.9408 -1.88372 0
      vertex -11.0437 -27.8933 0
      vertex -12.7734 -27.1448 0
    endloop
  endfacet
  facet normal 0 0 -1
    outer loop
      vertex -29.9408 -1.88372 0
      vertex -12.7734 -27.1448 0
      vertex -14.4526 -26.2892 0
    endloop
  endfacet
  facet normal 0 0 -1
    outer loop
      vertex -29.9408 -1.88372 0
      vertex -14.4526 -26.2892 0
      vertex -16.0748 -25.3298 0
    endloop
  endfacet
  facet normal 0 0 -1
    outer loop
      vertex -29.9408 -1.88372 0
      vertex -16.0748 -25.3298 0
      vertex -17.6336 -24.2705 0
    endloop
  endfacet
  facet normal 0 0 -1
    outer loop
      vertex -29.9408 -1.88372 0
      vertex -17.6336 -24.2705 0
      vertex -19.1227 -23.1154 0
    endloop
  endfacet
  facet normal 0 0 -1
    outer loop
      vertex -29.9408 -1.88372 0
      vertex -19.1227 -23.1154 0
      vertex -20.5364 -21.8691 0
    endloop
  endfacet
  facet normal 0 0 -1
    outer loop
      vertex -29.9408 -1.88372 0
      vertex -20.5364 -21.8691 0
      vertex -21.8691 -20.5364 0
    endloop
  endfacet
  facet normal 0 0 -1
    outer loop
      vertex -29.9408 -1.88372 0
      vertex -21.8691 -20.5364 0
      vertex -23.1154 -19.1227 0
    endloop
  endfacet
  facet normal 0 0 -1
    outer loop
      vertex -29.9408 -1.88372 0
      vertex -23.1154 -19.1227 0
      vertex -24.2705 -17.6336 0
    endloop
  endfacet
  facet normal 0 0 -1
    outer loop
      vertex -29.9408 -1.88372 0
      vertex -24.2705 -17.6336 0
      vertex -25.3298 -16.0748 0
    endloop
  endfacet
  facet normal 0 0 -1
    outer loop
      vertex -29.9408 -1.88372 0
      vertex -25.3298 -16.0748 0
      vertex -26.2892 -14.4526 0
    endloop
  endfacet
  facet normal 0 0 -1
    outer loop
      vertex -29.9408 -1.88372 0
      vertex -26.2892 -14.4526 0
      vertex -27.1448 -12.7734 0
    endloop
  endfacet
  facet normal 0 0 -1
    outer loop
      vertex -29.9408 -1.88372 0
      vertex -27.1448 -12.7734 0
      vertex -27.8933 -11.0437 0
    endloop
  endfacet
  facet normal 0 0 -1
    outer loop
      vertex -29.9408 -1.88372 0
      vertex -27.8933 -11.0437 0
      vertex -28.5317 -9.27051 0
    endloop
  endfacet
  facet normal 0 0 -1
    outer loop
      vertex -29.9408 -1.88372 0
      vertex -28.5317 -9.27051 0
      vertex -29.0575 -7.4607 0
    endloop
  endfacet
  facet normal 0 0 -1
    outer loop
      vertex -29.9408 -1.88372 0
      vertex -29.0575 -7.4607 0
      vertex -29.4686 -5.62144 0
    endloop
  endfacet
  facet normal 0 0 -1
    outer loop
      vertex -29.9408 -1.88372 0
      vertex -29.4686 -5.62144 0
      vertex -29.7634 -3.76 0
    endloop
  endfacet
  facet normal 0 0 -1
    outer loop
      vertex -7.76753 -1.91452 0
      vertex -29.9408 -1.88372 0
      vertex -8 0 0
    endloop
  endfacet
  facet normal 0 0 -1
    outer loop
      vertex -7.08365 -3.71778 0
      vertex -29.9408 -1.88372 0
      vertex -7.76753 -1.91452 0
    endloop
  endfacet
  facet normal 0 0 -1
    outer loop
      vertex 7.08365 -3.71778 0
      vertex 29.0575 -7.4607 0
      vertex 5.98809 -5.30498 0
    endloop
  endfacet
  facet normal 0 0 -1
    outer loop
      vertex -5.98809 -5.30498 0
      vertex -29.9408 -1.88372 0
      vertex -7.08365 -3.71778 0
    endloop
  endfacet
  facet normal 0 0 -1
    outer loop
      vertex -4.54452 -6.58387 0
      vertex -29.9408 -1.88372 0
      vertex -5.98809 -5.30498 0
    endloop
  endfacet
  facet normal 0 0 -1
    outer loop
      vertex 4.54452 -6.58387 0
      vertex 27.8933 -11.0437 0
      vertex 2.83684 -7.48013 0
    endloop
  endfacet
  facet normal 0 0 -1
    outer loop
      vertex 2.83684 -7.48013 0
      vertex 27.8933 -11.0437 0
      vertex 27.1448 -12.7734 0
    endloop
  endfacet
  facet normal 0 0 -1
    outer loop
      vertex -29.9408 -1.88372 0
      vertex -2.83684 -7.48013 0
      vertex -0.964293 -7.94167 0
    endloop
  endfacet
  facet normal 0 0 -1
    outer loop
      vertex -29.9408 -1.88372 0
      vertex -0.964293 -7.94167 0
      vertex 26.2892 -14.4526 0
    endloop
  endfacet
  facet normal 0 0 -1
    outer loop
      vertex 0.964293 -7.94167 0
      vertex 26.2892 -14.4526 0
      vertex -0.964293 -7.94167 0
    endloop
  endfacet
  facet normal 0 0 -1
    outer loop
      vertex 0.964293 -7.94167 0
      vertex 27.1448 -12.7734 0
      vertex 26.2892 -14.4526 0
    endloop
  endfacet
  facet normal 0 0 -1
    outer loop
      vertex -2.83684 -7.48013 0
      vertex -29.9408 -1.88372 0
      vertex -4.54452 -6.58387 0
    endloop
  endfacet
  facet normal 0 0 -1
    outer loop
      vertex 5.98809 -5.30498 0
      vertex 28.5317 -9.27051 0
      vertex 4.54452 -6.58387 0
    endloop
  endfacet
  facet normal 0 0 -1
    outer loop
      vertex 7.08365 -3.71778 0
      vertex 29.4686 -5.62144 0
      vertex 29.0575 -7.4607 0
    endloop
  endfacet
  facet normal 0 0 -1
    outer loop
      vertex 8 0 0
      vertex 29.9408 -1.88372 0
      vertex 7.76753 -1.91452 0
    endloop
  endfacet
  facet normal 0 0 -1
    outer loop
      vertex 7.76753 -1.91452 0
      vertex 29.7634 -3.76 0
      vertex 7.08365 -3.71778 0
    endloop
  endfacet
  facet normal 0 0 -1
    outer loop
      vertex 8 0 0
      vertex 30 0 0
      vertex 29.9408 -1.88372 0
    endloop
  endfacet
  facet normal 0 0 -1
    outer loop
      vertex 7.76753 1.91452 0
      vertex 29.9408 1.88372 0
      vertex 8 0 0
    endloop
  endfacet
  facet normal 0 0 -1
    outer loop
      vertex 7.76753 1.91452 0
      vertex 29.7634 3.76 0
      vertex 29.9408 1.88372 0
    endloop
  endfacet
  facet normal 0 0 -1
    outer loop
      vertex 4.54452 6.58387 0
      vertex 27.8933 11.0437 0
      vertex 5.98809 5.30498 0
    endloop
  endfacet
  facet normal 0 0 -1
    outer loop
      vertex 2.83684 7.48013 0
      vertex 27.1448 12.7734 0
      vertex 4.54452 6.58387 0
    endloop
  endfacet
  facet normal 0 0 -1
    outer loop
      vertex 0.964293 7.94167 0
      vertex 26.2892 14.4526 0
      vertex 2.83684 7.48013 0
    endloop
  endfacet
  facet normal 0 0 -1
    outer loop
      vertex -0.964293 7.94167 0
      vertex 25.3298 16.0748 0
      vertex 0.964293 7.94167 0
    endloop
  endfacet
  facet normal 0 0 -1
    outer loop
      vertex -2.83684 7.48013 0
      vertex 24.2705 17.6336 0
      vertex -0.964293 7.94167 0
    endloop
  endfacet
  facet normal 0 0 -1
    outer loop
      vertex -4.54452 6.58387 0
      vertex -29.9408 -1.88372 0
      vertex -2.83684 7.48013 0
    endloop
  endfacet
  facet normal 0 0 -1
    outer loop
      vertex -29.9408 -1.88372 0
      vertex 24.2705 17.6336 0
      vertex -2.83684 7.48013 0
    endloop
  endfacet
  facet normal 0 0 -1
    outer loop
      vertex -5.98809 5.30498 0
      vertex -29.9408 -1.88372 0
      vertex -4.54452 6.58387 0
    endloop
  endfacet
  facet normal 0 0 -1
    outer loop
      vertex -7.08365 3.71778 0
      vertex -29.9408 -1.88372 0
      vertex -5.98809 5.30498 0
    endloop
  endfacet
  facet normal 0 0 -1
    outer loop
      vertex -7.76753 1.91452 0
      vertex -29.9408 -1.88372 0
      vertex -7.08365 3.71778 0
    endloop
  endfacet
  facet normal 0 0 -1
    outer loop
      vertex -8 0 0
      vertex -29.9408 -1.88372 0
      vertex -7.76753 1.91452 0
    endloop
  endfacet
  facet normal 0 0 -1
    outer loop
      vertex 5.98809 5.30498 0
      vertex 28.5317 9.27051 0
      vertex 29.0575 7.4607 0
    endloop
  endfacet
  facet normal 0 0 -1
    outer loop
      vertex 5.98809 5.30498 0
      vertex 29.0575 7.4607 0
      vertex 7.08365 3.71778 0
    endloop
  endfacet
  facet normal 0 0 -1
    outer loop
      vertex 7.08365 3.71778 0
      vertex 29.4686 5.62144 0
      vertex 7.76753 1.91452 0
    endloop
  endfacet
  facet normal -0.999507 0.0314107 0
    outer loop
      vertex -30 0 0
      vertex -30 0 4
      vertex -29.9408 1.88372 0
    endloop
  endfacet
  facet normal -0.999507 0.0314107 0
    outer loop
      vertex -29.9408 1.88372 0
      vertex -30 0 4
      vertex -29.9408 1.88372 4
    endloop
  endfacet
  facet normal -0.999507 -0.0314107 0
    outer loop
      vertex -30 0 0
      vertex -29.9408 -1.88372 0
      vertex -30 0 4
    endloop
  endfacet
  facet normal -0.999507 -0.0314107 0
    outer loop
      vertex -30 0 4
      vertex -29.9408 -1.88372 0
      vertex -29.9408 -1.88372 4
    endloop
  endfacet
  facet normal -0.995562 -0.0941084 0
    outer loop
      vertex -29.9408 -1.88372 0
      vertex -29.7634 -3.76 0
      vertex -29.9408 -1.88372 4
    endloop
  endfacet
  facet normal -0.995562 -0.0941084 0
    outer loop
      vertex -29.9408 -1.88372 4
      vertex -29.7634 -3.76 0
      vertex -29.7634 -3.76 4
    endloop
  endfacet
  facet normal -0.987688 -0.156434 0
    outer loop
      vertex -29.7634 -3.76 0
      vertex -29.4686 -5.62144 0
      vertex -29.7634 -3.76 4
    endloop
  endfacet
  facet normal -0.987688 -0.156434 0
    outer loop
      vertex -29.7634 -3.76 4
      vertex -29.4686 -5.62144 0
      vertex -29.4686 -5.62144 4
    endloop
  endfacet
  facet normal -0.975917 -0.218143 0
    outer loop
      vertex -29.4686 -5.62144 0
      vertex -29.0575 -7.4607 0
      vertex -29.4686 -5.62144 4
    endloop
  endfacet
  facet normal -0.975917 -0.218143 0
    outer loop
      vertex -29.4686 -5.62144 4
      vertex -29.0575 -7.4607 0
      vertex -29.0575 -7.4607 4
    endloop
  endfacet
  facet normal -0.960294 -0.278991 0
    outer loop
      vertex -29.0575 -7.4607 0
      vertex -28.5317 -9.27051 0
      vertex -29.0575 -7.4607 4
    endloop
  endfacet
  facet normal -0.960294 -0.278991 0
    outer loop
      vertex -29.0575 -7.4607 4
      vertex -28.5317 -9.27051 0
      vertex -28.5317 -9.27051 4
    endloop
  endfacet
  facet normal -0.940881 -0.338737 0
    outer loop
      vertex -28.5317 -9.27051 0
      vertex -27.8933 -11.0437 0
      vertex -28.5317 -9.27051 4
    endloop
  endfacet
  facet normal -0.940881 -0.338737 0
    outer loop
      vertex -28.5317 -9.27051 4
      vertex -27.8933 -11.0437 0
      vertex -27.8933 -11.0437 4
    endloop
  endfacet
  facet normal -0.917755 -0.397148 0
    outer loop
      vertex -27.8933 -11.0437 0
      vertex -27.1448 -12.7734 0
      vertex -27.8933 -11.0437 4
    endloop
  endfacet
  facet normal -0.917755 -0.397148 0
    outer loop
      vertex -27.8933 -11.0437 4
      vertex -27.1448 -12.7734 0
      vertex -27.1448 -12.7734 4
    endloop
  endfacet
  facet normal -0.891006 -0.453991 0
    outer loop
      vertex -27.1448 -12.7734 0
      vertex -26.2892 -14.4526 0
      vertex -27.1448 -12.7734 4
    endloop
  endfacet
  facet normal -0.891006 -0.453991 0
    outer loop
      vertex -27.1448 -12.7734 4
      vertex -26.2892 -14.4526 0
      vertex -26.2892 -14.4526 4
    endloop
  endfacet
  facet normal -0.860742 -0.509041 0
    outer loop
      vertex -26.2892 -14.4526 0
      vertex -25.3298 -16.0748 0
      vertex -26.2892 -14.4526 4
    endloop
  endfacet
  facet normal -0.860742 -0.509041 0
    outer loop
      vertex -26.2892 -14.4526 4
      vertex -25.3298 -16.0748 0
      vertex -25.3298 -16.0748 4
    endloop
  endfacet
  facet normal -0.827081 -0.562083 0
    outer loop
      vertex -25.3298 -16.0748 0
      vertex -24.2705 -17.6336 0
      vertex -25.3298 -16.0748 4
    endloop
  endfacet
  facet normal -0.827081 -0.562083 0
    outer loop
      vertex -25.3298 -16.0748 4
      vertex -24.2705 -17.6336 0
      vertex -24.2705 -17.6336 4
    endloop
  endfacet
  facet normal -0.790155 -0.612907 0
    outer loop
      vertex -24.2705 -17.6336 0
      vertex -23.1154 -19.1227 0
      vertex -24.2705 -17.6336 4
    endloop
  endfacet
  facet normal -0.790155 -0.612907 0
    outer loop
      vertex -24.2705 -17.6336 4
      vertex -23.1154 -19.1227 0
      vertex -23.1154 -19.1227 4
    endloop
  endfacet
  facet normal -0.750111 -0.661312 0
    outer loop
      vertex -23.1154 -19.1227 0
      vertex -21.8691 -20.5364 0
      vertex -23.1154 -19.1227 4
    endloop
  endfacet
  facet normal -0.750111 -0.661312 0
    outer loop
      vertex -23.1154 -19.1227 4
      vertex -21.8691 -20.5364 0
      vertex -21.8691 -20.5364 4
    endloop
  endfacet
  facet normal -0.707107 -0.707107 0
    outer loop
      vertex -21.8691 -20.5364 4
      vertex -21.8691 -20.5364 0
      vertex -20.5364 -21.8691 0
    endloop
  endfacet
  facet normal -0.707107 -0.707107 0
    outer loop
      vertex -20.5364 -21.8691 4
      vertex -21.8691 -20.5364 4
      vertex -20.5364 -21.8691 0
    endloop
  endfacet
  facet normal -0.661312 -0.750111 0
    outer loop
      vertex -20.5364 -21.8691 4
      vertex -20.5364 -21.8691 0
      vertex -19.1227 -23.1154 0
    endloop
  endfacet
  facet normal -0.661312 -0.750111 0
    outer loop
      vertex -19.1227 -23.1154 4
      vertex -20.5364 -21.8691 4
      vertex -19.1227 -23.1154 0
    endloop
  endfacet
  facet normal -0.612907 -0.790155 0
    outer loop
      vertex -19.1227 -23.1154 4
      vertex -19.1227 -23.1154 0
      vertex -17.6336 -24.2705 0
    endloop
  endfacet
  facet normal -0.612907 -0.790155 0
    outer loop
      vertex -17.6336 -24.2705 4
      vertex -19.1227 -23.1154 4
      vertex -17.6336 -24.2705 0
    endloop
  endfacet
  facet normal -0.562083 -0.827081 0
    outer loop
      vertex -17.6336 -24.2705 4
      vertex -17.6336 -24.2705 0
      vertex -16.0748 -25.3298 0
    endloop
  endfacet
  facet normal -0.562083 -0.827081 0
    outer loop
      vertex -16.0748 -25.3298 4
      vertex -17.6336 -24.2705 4
      vertex -16.0748 -25.3298 0
    endloop
  endfacet
  facet normal -0.509041 -0.860742 0
    outer loop
      vertex -16.0748 -25.3298 4
      vertex -16.0748 -25.3298 0
      vertex -14.4526 -26.2892 0
    endloop
  endfacet
  facet normal -0.509041 -0.860742 0
    outer loop
      vertex -14.4526 -26.2892 4
      vertex -16.0748 -25.3298 4
      vertex -14.4526 -26.2892 0
    endloop
  endfacet
  facet normal -0.453991 -0.891006 0
    outer loop
      vertex -14.4526 -26.2892 4
      vertex -14.4526 -26.2892 0
      vertex -12.7734 -27.1448 0
    endloop
  endfacet
  facet normal -0.453991 -0.891006 0
    outer loop
      vertex -12.7734 -27.1448 4
      vertex -14.4526 -26.2892 4
      vertex -12.7734 -27.1448 0
    endloop
  endfacet
  facet normal -0.397148 -0.917755 0
    outer loop
      vertex -12.7734 -27.1448 4
      vertex -12.7734 -27.1448 0
      vertex -11.0437 -27.8933 0
    endloop
  endfacet
  facet normal -0.397148 -0.917755 0
    outer loop
      vertex -11.0437 -27.8933 4
      vertex -12.7734 -27.1448 4
      vertex -11.0437 -27.8933 0
    endloop
  endfacet
  facet normal -0.338737 -0.940881 0
    outer loop
      vertex -11.0437 -27.8933 4
      vertex -11.0437 -27.8933 0
      vertex -9.27051 -28.5317 0
    endloop
  endfacet
  facet normal -0.338737 -0.940881 0
    outer loop
      vertex -9.27051 -28.5317 4
      vertex -11.0437 -27.8933 4
      vertex -9.27051 -28.5317 0
    endloop
  endfacet
  facet normal -0.278991 -0.960294 0
    outer loop
      vertex -9.27051 -28.5317 4
      vertex -9.27051 -28.5317 0
      vertex -7.4607 -29.0575 0
    endloop
  endfacet
  facet normal -0.278991 -0.960294 0
    outer loop
      vertex -7.4607 -29.0575 4
      vertex -9.27051 -28.5317 4
      vertex -7.4607 -29.0575 0
    endloop
  endfacet
  facet normal -0.218143 -0.975917 0
    outer loop
      vertex -7.4607 -29.0575 4
      vertex -7.4607 -29.0575 0
      vertex -5.62144 -29.4686 0
    endloop
  endfacet
  facet normal -0.218143 -0.975917 0
    outer loop
      vertex -5.62144 -29.4686 4
      vertex -7.4607 -29.0575 4
      vertex -5.62144 -29.4686 0
    endloop
  endfacet
  facet normal -0.156434 -0.987688 0
    outer loop
      vertex -5.62144 -29.4686 4
      vertex -5.62144 -29.4686 0
      vertex -3.76 -29.7634 0
    endloop
  endfacet
  facet normal -0.156434 -0.987688 0
    outer loop
      vertex -3.76 -29.7634 4
      vertex -5.62144 -29.4686 4
      vertex -3.76 -29.7634 0
    endloop
  endfacet
  facet normal -0.0941084 -0.995562 0
    outer loop
      vertex -3.76 -29.7634 4
      vertex -3.76 -29.7634 0
      vertex -1.88372 -29.9408 0
    endloop
  endfacet
  facet normal -0.0941084 -0.995562 0
    outer loop
      vertex -1.88372 -29.9408 4
      vertex -3.76 -29.7634 4
      vertex -1.88372 -29.9408 0
    endloop
  endfacet
  facet normal -0.0314107 -0.999507 0
    outer loop
      vertex -1.88372 -29.9408 4
      vertex -1.88372 -29.9408 0
      vertex 0 -30 0
    endloop
  endfacet
  facet normal -0.0314107 -0.999507 0
    outer loop
      vertex 0 -30 4
      vertex -1.88372 -29.9408 4
      vertex 0 -30 0
    endloop
  endfacet
  facet normal 0.0314107 -0.999507 0
    outer loop
      vertex 0 -30 4
      vertex 0 -30 0
      vertex 1.88372 -29.9408 0
    endloop
  endfacet
  facet normal 0.0314107 -0.999507 0
    outer loop
      vertex 1.88372 -29.9408 4
      vertex 0 -30 4
      vertex 1.88372 -29.9408 0
    endloop
  endfacet
  facet normal 0.0941084 -0.995562 0
    outer loop
      vertex 1.88372 -29.9408 4
      vertex 1.88372 -29.9408 0
      vertex 3.76 -29.7634 0
    endloop
  endfacet
  facet normal 0.0941084 -0.995562 0
    outer loop
      vertex 3.76 -29.7634 4
      vertex 1.88372 -29.9408 4
      vertex 3.76 -29.7634 0
    endloop
  endfacet
  facet normal 0.156434 -0.987688 0
    outer loop
      vertex 3.76 -29.7634 4
      vertex 3.76 -29.7634 0
      vertex 5.62144 -29.4686 0
    endloop
  endfacet
  facet normal 0.156434 -0.987688 0
    outer loop
      vertex 5.62144 -29.4686 4
      vertex 3.76 -29.7634 4
      vertex 5.62144 -29.4686 0
    endloop
  endfacet
  facet normal 0.218143 -0.975917 0
    outer loop
      vertex 5.62144 -29.4686 4
      vertex 5.62144 -29.4686 0
      vertex 7.4607 -29.0575 0
    endloop
  endfacet
  facet normal 0.218143 -0.975917 0
    outer loop
      vertex 7.4607 -29.0575 4
      vertex 5.62144 -29.4686 4
      vertex 7.4607 -29.0575 0
    endloop
  endfacet
  facet normal 0.278991 -0.960294 0
    outer loop
      vertex 7.4607 -29.0575 4
      vertex 7.4607 -29.0575 0
      vertex 9.27051 -28.5317 0
    endloop
  endfacet
  facet normal 0.278991 -0.960294 0
    outer loop
      vertex 9.27051 -28.5317 4
      vertex 7.4607 -29.0575 4
      vertex 9.27051 -28.5317 0
    endloop
  endfacet
  facet normal 0.338737 -0.940881 0
    outer loop
      vertex 9.27051 -28.5317 4
      vertex 9.27051 -28.5317 0
      vertex 11.0437 -27.8933 0
    endloop
  endfacet
  facet normal 0.338737 -0.940881 0
    outer loop
      vertex 11.0437 -27.8933 4
      vertex 9.27051 -28.5317 4
      vertex 11.0437 -27.8933 0
    endloop
  endfacet
  facet normal 0.397148 -0.917755 0
    outer loop
      vertex 11.0437 -27.8933 4
      vertex 11.0437 -27.8933 0
      vertex 12.7734 -27.1448 0
    endloop
  endfacet
  facet normal 0.397148 -0.917755 0
    outer loop
      vertex 12.7734 -27.1448 4
      vertex 11.0437 -27.8933 4
      vertex 12.7734 -27.1448 0
    endloop
  endfacet
  facet normal 0.453991 -0.891006 0
    outer loop
      vertex 12.7734 -27.1448 4
      vertex 12.7734 -27.1448 0
      vertex 14.4526 -26.2892 0
    endloop
  endfacet
  facet normal 0.453991 -0.891006 0
    outer loop
      vertex 14.4526 -26.2892 4
      vertex 12.7734 -27.1448 4
      vertex 14.4526 -26.2892 0
    endloop
  endfacet
  facet normal 0.509041 -0.860742 0
    outer loop
      vertex 14.4526 -26.2892 4
      vertex 14.4526 -26.2892 0
      vertex 16.0748 -25.3298 0
    endloop
  endfacet
  facet normal 0.509041 -0.860742 0
    outer loop
      vertex 16.0748 -25.3298 4
      vertex 14.4526 -26.2892 4
      vertex 16.0748 -25.3298 0
    endloop
  endfacet
  facet normal 0.562083 -0.827081 0
    outer loop
      vertex 16.0748 -25.3298 4
      vertex 16.0748 -25.3298 0
      vertex 17.6336 -24.2705 0
    endloop
  endfacet
  facet normal 0.562083 -0.827081 0
    outer loop
      vertex 17.6336 -24.2705 4
      vertex 16.0748 -25.3298 4
      vertex 17.6336 -24.2705 0
    endloop
  endfacet
  facet normal 0.612907 -0.790155 0
    outer loop
      vertex 17.6336 -24.2705 4
      vertex 17.6336 -24.2705 0
      vertex 19.1227 -23.1154 0
    endloop
  endfacet
  facet normal 0.612907 -0.790155 0
    outer loop
      vertex 19.1227 -23.1154 4
      vertex 17.6336 -24.2705 4
      vertex 19.1227 -23.1154 0
    endloop
  endfacet
  facet normal 0.661312 -0.750111 0
    outer loop
      vertex 19.1227 -23.1154 4
      vertex 19.1227 -23.1154 0
      vertex 20.5364 -21.8691 0
    endloop
  endfacet
  facet normal 0.661312 -0.750111 0
    outer loop
      vertex 20.5364 -21.8691 4
      vertex 19.1227 -23.1154 4
      vertex 20.5364 -21.8691 0
    endloop
  endfacet
  facet normal 0.707107 -0.707107 0
    outer loop
      vertex 20.5364 -21.8691 4
      vertex 20.5364 -21.8691 0
      vertex 21.8691 -20.5364 0
    endloop
  endfacet
  facet normal 0.707107 -0.707107 0
    outer loop
      vertex 21.8691 -20.5364 4
      vertex 20.5364 -21.8691 4
      vertex 21.8691 -20.5364 0
    endloop
  endfacet
  facet normal 0.750111 -0.661312 0
    outer loop
      vertex 21.8691 -20.5364 4
      vertex 21.8691 -20.5364 0
      vertex 23.1154 -19.1227 0
    endloop
  endfacet
  facet normal 0.750111 -0.661312 0
    outer loop
      vertex 23.1154 -19.1227 4
      vertex 21.8691 -20.5364 4
      vertex 23.1154 -19.1227 0
    endloop
  endfacet
  facet normal 0.790155 -0.612907 0
    outer loop
      vertex 23.1154 -19.1227 4
      vertex 23.1154 -19.1227 0
      vertex 24.2705 -17.6336 0
    endloop
  endfacet
  facet normal 0.790155 -0.612907 0
    outer loop
      vertex 24.2705 -17.6336 4
      vertex 23.1154 -19.1227 4
      vertex 24.2705 -17.6336 0
    endloop
  endfacet
  facet normal 0.827081 -0.562083 0
    outer loop
      vertex 24.2705 -17.6336 4
      vertex 24.2705 -17.6336 0
      vertex 25.3298 -16.0748 0
    endloop
  endfacet
  facet normal 0.827081 -0.562083 0
    outer loop
      vertex 25.3298 -16.0748 4
      vertex 24.2705 -17.6336 4
      vertex 25.3298 -16.0748 0
    endloop
  endfacet
  facet normal 0.860742 -0.509041 0
    outer loop
      vertex 25.3298 -16.0748 4
      vertex 25.3298 -16.0748 0
      vertex 26.2892 -14.4526 0
    endloop
  endfacet
  facet normal 0.860742 -0.509041 0
    outer loop
      vertex 26.2892 -14.4526 4
      vertex 25.3298 -16.0748 4
      vertex 26.2892 -14.4526 0
    endloop
  endfacet
  facet normal 0.891006 -0.453991 0
    outer loop
      vertex 26.2892 -14.4526 4
      vertex 26.2892 -14.4526 0
      vertex 27.1448 -12.7734 0
    endloop
  endfacet
  facet normal 0.891006 -0.453991 0
    outer loop
      vertex 27.1448 -12.7734 4
      vertex 26.2892 -14.4526 4
      vertex 27.1448 -12.7734 0
    endloop
  endfacet
  facet normal 0.917755 -0.397148 0
    outer loop
      vertex 27.1448 -12.7734 4
      vertex 27.1448 -12.7734 0
      vertex 27.8933 -11.0437 0
    endloop
  endfacet
  facet normal 0.917755 -0.397148 0
    outer loop
      vertex 27.8933 -11.0437 4
      vertex 27.1448 -12.7734 4
      vertex 27.8933 -11.0437 0
    endloop
  endfacet
  facet normal 0.940881 -0.338737 0
    outer loop
      vertex 27.8933 -11.0437 4
      vertex 27.8933 -11.0437 0
      vertex 28.5317 -9.27051 0
    endloop
  endfacet
  facet normal 0.940881 -0.338737 0
    outer loop
      vertex 28.5317 -9.27051 4
      vertex 27.8933 -11.0437 4
      vertex 28.5317 -9.27051 0
    endloop
  endfacet
  facet normal 0.960294 -0.278991 0
    outer loop
      vertex 28.5317 -9.27051 4
      vertex 28.5317 -9.27051 0
      vertex 29.0575 -7.4607 0
    endloop
  endfacet
  facet normal 0.960294 -0.278991 0
    outer loop
      vertex 29.0575 -7.4607 4
      vertex 28.5317 -9.27051 4
      vertex 29.0575 -7.4607 0
    endloop
  endfacet
  facet normal 0.975917 -0.218143 0
    outer loop
      vertex 29.0575 -7.4607 4
      vertex 29.0575 -7.4607 0
      vertex 29.4686 -5.62144 0
    endloop
  endfacet
  facet normal 0.975917 -0.218143 0
    outer loop
      vertex 29.4686 -5.62144 4
      vertex 29.0575 -7.4607 4
      vertex 29.4686 -5.62144 0
    endloop
  endfacet
  facet normal 0.987688 -0.156434 0
    outer loop
      vertex 29.4686 -5.62144 4
      vertex 29.4686 -5.62144 0
      vertex 29.7634 -3.76 0
    endloop
  endfacet
  facet normal 0.987688 -0.156434 0
    outer loop
      vertex 29.7634 -3.76 4
      vertex 29.4686 -5.62144 4
      vertex 29.7634 -3.76 0
    endloop
  endfacet
  facet normal 0.995562 -0.0941084 0
    outer loop
      vertex 29.7634 -3.76 4
      vertex 29.7634 -3.76 0
      vertex 29.9408 -1.88372 0
    endloop
  endfacet
  facet normal 0.995562 -0.0941084 0
    outer loop
      vertex 29.9408 -1.88372 4
      vertex 29.7634 -3.76 4
      vertex 29.9408 -1.88372 0
    endloop
  endfacet
  facet normal 0.999507 -0.0314107 0
    outer loop
      vertex 29.9408 -1.88372 4
      vertex 29.9408 -1.88372 0
      vertex 30 0 0
    endloop
  endfacet
  facet normal 0.999507 -0.0314107 0
    outer loop
      vertex 30 0 4
      vertex 29.9408 -1.88372 4
      vertex 30 0 0
    endloop
  endfacet
  facet normal 0.999507 0.0314107 0
    outer loop
      vertex 30 0 0
      vertex 29.9408 1.88372 0
      vertex 29.9408 1.88372 4
    endloop
  endfacet
  facet normal 0.999507 0.0314107 0
    outer loop
      vertex 30 0 4
      vertex 30 0 0
      vertex 29.9408 1.88372 4
    endloop
  endfacet
  facet normal 0.995562 0.0941084 0
    outer loop
      vertex 29.9408 1.88372 0
      vertex 29.7634 3.76 0
      vertex 29.7634 3.76 4
    endloop
  endfacet
  facet normal 0.995562 0.0941084 0
    outer loop
      vertex 29.9408 1.88372 4
      vertex 29.9408 1.88372 0
      vertex 29.7634 3.76 4
    endloop
  endfacet
  facet normal 0.987688 0.156434 0
    outer loop
      vertex 29.7634 3.76 0
      vertex 29.4686 5.62144 0
      vertex 29.4686 5.62144 4
    endloop
  endfacet
  facet normal 0.987688 0.156434 0
    outer loop
      vertex 29.7634 3.76 4
      vertex 29.7634 3.76 0
      vertex 29.4686 5.62144 4
    endloop
  endfacet
  facet normal 0.975917 0.218143 0
    outer loop
      vertex 29.4686 5.62144 0
      vertex 29.0575 7.4607 0
      vertex 29.0575 7.4607 4
    endloop
  endfacet
  facet normal 0.975917 0.218143 0
    outer loop
      vertex 29.4686 5.62144 4
      vertex 29.4686 5.62144 0
      vertex 29.0575 7.4607 4
    endloop
  endfacet
  facet normal 0.960294 0.278991 0
    outer loop
      vertex 29.0575 7.4607 0
      vertex 28.5317 9.27051 0
      vertex 28.5317 9.27051 4
    endloop
  endfacet
  facet normal 0.960294 0.278991 0
    outer loop
      vertex 29.0575 7.4607 4
      vertex 29.0575 7.4607 0
      vertex 28.5317 9.27051 4
    endloop
  endfacet
  facet normal 0.940881 0.338737 0
    outer loop
      vertex 28.5317 9.27051 0
      vertex 27.8933 11.0437 0
      vertex 27.8933 11.0437 4
    endloop
  endfacet
  facet normal 0.940881 0.338737 0
    outer loop
      vertex 28.5317 9.27051 4
      vertex 28.5317 9.27051 0
      vertex 27.8933 11.0437 4
    endloop
  endfacet
  facet normal 0.917755 0.397148 0
    outer loop
      vertex 27.8933 11.0437 0
      vertex 27.1448 12.7734 0
      vertex 27.1448 12.7734 4
    endloop
  endfacet
  facet normal 0.917755 0.397148 0
    outer loop
      vertex 27.8933 11.0437 4
      vertex 27.8933 11.0437 0
      vertex 27.1448 12.7734 4
    endloop
  endfacet
  facet normal 0.891006 0.453991 0
    outer loop
      vertex 27.1448 12.7734 0
      vertex 26.2892 14.4526 0
      vertex 26.2892 14.4526 4
    endloop
  endfacet
  facet normal 0.891006 0.453991 0
    outer loop
      vertex 27.1448 12.7734 4
      vertex 27.1448 12.7734 0
      vertex 26.2892 14.4526 4
    endloop
  endfacet
  facet normal 0.860742 0.509041 0
    outer loop
      vertex 26.2892 14.4526 0
      vertex 25.3298 16.0748 0
      vertex 25.3298 16.0748 4
    endloop
  endfacet
  facet normal 0.860742 0.509041 0
    outer loop
      vertex 26.2892 14.4526 4
      vertex 26.2892 14.4526 0
      vertex 25.3298 16.0748 4
    endloop
  endfacet
  facet normal 0.827081 0.562083 0
    outer loop
      vertex 25.3298 16.0748 0
      vertex 24.2705 17.6336 0
      vertex 24.2705 17.6336 4
    endloop
  endfacet
  facet normal 0.827081 0.562083 0
    outer loop
      vertex 25.3298 16.0748 4
      vertex 25.3298 16.0748 0
      vertex 24.2705 17.6336 4
    endloop
  endfacet
  facet normal 0.790155 0.612907 0
    outer loop
      vertex 24.2705 17.6336 0
      vertex 23.1154 19.1227 0
      vertex 23.1154 19.1227 4
    endloop
  endfacet
  facet normal 0.790155 0.612907 0
    outer loop
      vertex 24.2705 17.6336 4
      vertex 24.2705 17.6336 0
      vertex 23.1154 19.1227 4
    endloop
  endfacet
  facet normal 0.750111 0.661312 0
    outer loop
      vertex 23.1154 19.1227 0
      vertex 21.8691 20.5364 0
      vertex 21.8691 20.5364 4
    endloop
  endfacet
  facet normal 0.750111 0.661312 0
    outer loop
      vertex 23.1154 19.1227 4
      vertex 23.1154 19.1227 0
      vertex 21.8691 20.5364 4
    endloop
  endfacet
  facet normal 0.707107 0.707107 0
    outer loop
      vertex 20.5364 21.8691 0
      vertex 20.5364 21.8691 4
      vertex 21.8691 20.5364 0
    endloop
  endfacet
  facet normal 0.707107 0.707107 0
    outer loop
      vertex 21.8691 20.5364 0
      vertex 20.5364 21.8691 4
      vertex 21.8691 20.5364 4
    endloop
  endfacet
  facet normal 0.661312 0.750111 0
    outer loop
      vertex 19.1227 23.1154 0
      vertex 19.1227 23.1154 4
      vertex 20.5364 21.8691 0
    endloop
  endfacet
  facet normal 0.661312 0.750111 0
    outer loop
      vertex 20.5364 21.8691 0
      vertex 19.1227 23.1154 4
      vertex 20.5364 21.8691 4
    endloop
  endfacet
  facet normal 0.612907 0.790155 0
    outer loop
      vertex 17.6336 24.2705 0
      vertex 17.6336 24.2705 4
      vertex 19.1227 23.1154 0
    endloop
  endfacet
  facet normal 0.612907 0.790155 0
    outer loop
      vertex 19.1227 23.1154 0
      vertex 17.6336 24.2705 4
      vertex 19.1227 23.1154 4
    endloop
  endfacet
  facet normal 0.562083 0.827081 0
    outer loop
      vertex 16.0748 25.3298 0
      vertex 16.0748 25.3298 4
      vertex 17.6336 24.2705 0
    endloop
  endfacet
  facet normal 0.562083 0.827081 0
    outer loop
      vertex 17.6336 24.2705 0
      vertex 16.0748 25.3298 4
      vertex 17.6336 24.2705 4
    endloop
  endfacet
  facet normal 0.509041 0.860742 0
    outer loop
      vertex 14.4526 26.2892 0
      vertex 14.4526 26.2892 4
      vertex 16.0748 25.3298 0
    endloop
  endfacet
  facet normal 0.509041 0.860742 0
    outer loop
      vertex 16.0748 25.3298 0
      vertex 14.4526 26.2892 4
      vertex 16.0748 25.3298 4
    endloop
  endfacet
  facet normal 0.453991 0.891006 0
    outer loop
      vertex 12.7734 27.1448 0
      vertex 12.7734 27.1448 4
      vertex 14.4526 26.2892 0
    endloop
  endfacet
  facet normal 0.453991 0.891006 0
    outer loop
      vertex 14.4526 26.2892 0
      vertex 12.7734 27.1448 4
      vertex 14.4526 26.2892 4
    endloop
  endfacet
  facet normal 0.397148 0.917755 0
    outer loop
      vertex 11.0437 27.8933 0
      vertex 11.0437 27.8933 4
      vertex 12.7734 27.1448 0
    endloop
  endfacet
  facet normal 0.397148 0.917755 0
    outer loop
      vertex 12.7734 27.1448 0
      vertex 11.0437 27.8933 4
      vertex 12.7734 27.1448 4
    endloop
  endfacet
  facet normal 0.338737 0.940881 0
    outer loop
      vertex 9.27051 28.5317 0
      vertex 9.27051 28.5317 4
      vertex 11.0437 27.8933 0
    endloop
  endfacet
  facet normal 0.338737 0.940881 0
    outer loop
      vertex 11.0437 27.8933 0
      vertex 9.27051 28.5317 4
      vertex 11.0437 27.8933 4
    endloop
  endfacet
  facet normal 0.278991 0.960294 0
    outer loop
      vertex 7.4607 29.0575 0
      vertex 7.4607 29.0575 4
      vertex 9.27051 28.5317 0
    endloop
  endfacet
  facet normal 0.278991 0.960294 0
    outer loop
      vertex 9.27051 28.5317 0
      vertex 7.4607 29.0575 4
      vertex 9.27051 28.5317 4
    endloop
  endfacet
  facet normal 0.218143 0.975917 0
    outer loop
      vertex 5.62144 29.4686 0
      vertex 5.62144 29.4686 4
      vertex 7.4607 29.0575 0
    endloop
  endfacet
  facet normal 0.218143 0.975917 0
    outer loop
      vertex 7.4607 29.0575 0
      vertex 5.62144 29.4686 4
      vertex 7.4607 29.0575 4
    endloop
  endfacet
  facet normal 0.156434 0.987688 0
    outer loop
      vertex 3.76 29.7634 0
      vertex 3.76 29.7634 4
      vertex 5.62144 29.4686 0
    endloop
  endfacet
  facet normal 0.156434 0.987688 0
    outer loop
      vertex 5.62144 29.4686 0
      vertex 3.76 29.7634 4
      vertex 5.62144 29.4686 4
    endloop
  endfacet
  facet normal 0.0941084 0.995562 0
    outer loop
      vertex 1.88372 29.9408 0
      vertex 1.88372 29.9408 4
      vertex 3.76 29.7634 0
    endloop
  endfacet
  facet normal 0.0941084 0.995562 0
    outer loop
      vertex 3.76 29.7634 0
      vertex 1.88372 29.9408 4
      vertex 3.76 29.7634 4
    endloop
  endfacet
  facet normal 0.0314107 0.999507 0
    outer loop
      vertex 0 30 0
      vertex 0 30 4
      vertex 1.88372 29.9408 0
    endloop
  endfacet
  facet normal 0.0314107 0.999507 0
    outer loop
      vertex 1.88372 29.9408 0
      vertex 0 30 4
      vertex 1.88372 29.9408 4
    endloop
  endfacet
  facet normal -0.0314107 0.999507 0
    outer loop
      vertex -1.88372 29.9408 0
      vertex -1.88372 29.9408 4
      vertex 0 30 0
    endloop
  endfacet
  facet normal -0.0314107 0.999507 0
    outer loop
      vertex 0 30 0
      vertex -1.88372 29.9408 4
      vertex 0 30 4
    endloop
  endfacet
  facet normal -0.0941084 0.995562 0
    outer loop
      vertex -3.76 29.7634 0
      vertex -3.76 29.7634 4
      vertex -1.88372 29.9408 0
    endloop
  endfacet
  facet normal -0.0941084 0.995562 0
    outer loop
      vertex -1.88372 29.9408 0
      vertex -3.76 29.7634 4
      vertex -1.88372 29.9408 4
    endloop
  endfacet
  facet normal -0.156434 0.987688 0
    outer loop
      vertex -5.62144 29.4686 0
      vertex -5.62144 29.4686 4
      vertex -3.76 29.7634 0
    endloop
  endfacet
  facet normal -0.156434 0.987688 0
    outer loop
      vertex -3.76 29.7634 0
      vertex -5.62144 29.4686 4
      vertex -3.76 29.7634 4
    endloop
  endfacet
  facet normal -0.218143 0.975917 0
    outer loop
      vertex -7.4607 29.0575 0
      vertex -7.4607 29.0575 4
      vertex -5.62144 29.4686 0
    endloop
  endfacet
  facet normal -0.218143 0.975917 0
    outer loop
      vertex -5.62144 29.4686 0
      vertex -7.4607 29.0575 4
      vertex -5.62144 29.4686 4
    endloop
  endfacet
  facet normal -0.278991 0.960294 0
    outer loop
      vertex -9.27051 28.5317 0
      vertex -9.27051 28.5317 4
      vertex -7.4607 29.0575 0
    endloop
  endfacet
  facet normal -0.278991 0.960294 0
    outer loop
      vertex -7.4607 29.0575 0
      vertex -9.27051 28.5317 4
      vertex -7.4607 29.0575 4
    endloop
  endfacet
  facet normal -0.338737 0.940881 0
    outer loop
      vertex -11.0437 27.8933 0
      vertex -11.0437 27.8933 4
      vertex -9.27051 28.5317 0
    endloop
  endfacet
  facet normal -0.338737 0.940881 0
    outer loop
      vertex -9.27051 28.5317 0
      vertex -11.0437 27.8933 4
      vertex -9.27051 28.5317 4
    endloop
  endfacet
  facet normal -0.397148 0.917755 0
    outer loop
      vertex -12.7734 27.1448 0
      vertex -12.7734 27.1448 4
      vertex -11.0437 27.8933 0
    endloop
  endfacet
  facet normal -0.397148 0.917755 0
    outer loop
      vertex -11.0437 27.8933 0
      vertex -12.7734 27.1448 4
      vertex -11.0437 27.8933 4
    endloop
  endfacet
  facet normal -0.453991 0.891006 0
    outer loop
      vertex -14.4526 26.2892 0
      vertex -14.4526 26.2892 4
      vertex -12.7734 27.1448 0
    endloop
  endfacet
  facet normal -0.453991 0.891006 0
    outer loop
      vertex -12.7734 27.1448 0
      vertex -14.4526 26.2892 4
      vertex -12.7734 27.1448 4
    endloop
  endfacet
  facet normal -0.509041 0.860742 0
    outer loop
      vertex -16.0748 25.3298 0
      vertex -16.0748 25.3298 4
      vertex -14.4526 26.2892 0
    endloop
  endfacet
  facet normal -0.509041 0.860742 0
    outer loop
      vertex -14.4526 26.2892 0
      vertex -16.0748 25.3298 4
      vertex -14.4526 26.2892 4
    endloop
  endfacet
  facet normal -0.562083 0.827081 0
    outer loop
      vertex -17.6336 24.2705 0
      vertex -17.6336 24.2705 4
      vertex -16.0748 25.3298 0
    endloop
  endfacet
  facet normal -0.562083 0.827081 0
    outer loop
      vertex -16.0748 25.3298 0
      vertex -17.6336 24.2705 4
      vertex -16.0748 25.3298 4
    endloop
  endfacet
  facet normal -0.612907 0.790155 0
    outer loop
      vertex -19.1227 23.1154 0
      vertex -19.1227 23.1154 4
      vertex -17.6336 24.2705 0
    endloop
  endfacet
  facet normal -0.612907 0.790155 0
    outer loop
      vertex -17.6336 24.2705 0
      vertex -19.1227 23.1154 4
      vertex -17.6336 24.2705 4
    endloop
  endfacet
  facet normal -0.661312 0.750111 0
    outer loop
      vertex -20.5364 21.8691 0
      vertex -20.5364 21.8691 4
      vertex -19.1227 23.1154 0
    endloop
  endfacet
  facet normal -0.661312 0.750111 0
    outer loop
      vertex -19.1227 23.1154 0
      vertex -20.5364 21.8691 4
      vertex -19.1227 23.1154 4
    endloop
  endfacet
  facet normal -0.707107 0.707107 0
    outer loop
      vertex -21.8691 20.5364 0
      vertex -21.8691 20.5364 4
      vertex -20.5364 21.8691 0
    endloop
  endfacet
  facet normal -0.707107 0.707107 0
    outer loop
      vertex -20.5364 21.8691 0
      vertex -21.8691 20.5364 4
      vertex -20.5364 21.8691 4
    endloop
  endfacet
  facet normal -0.750111 0.661312 0
    outer loop
      vertex -23.1154 19.1227 0
      vertex -23.1154 19.1227 4
      vertex -21.8691 20.5364 0
    endloop
  endfacet
  facet normal -0.750111 0.661312 0
    outer loop
      vertex -21.8691 20.5364 0
      vertex -23.1154 19.1227 4
      vertex -21.8691 20.5364 4
    endloop
  endfacet
  facet normal -0.790155 0.612907 0
    outer loop
      vertex -24.2705 17.6336 0
      vertex -24.2705 17.6336 4
      vertex -23.1154 19.1227 0
    endloop
  endfacet
  facet normal -0.790155 0.612907 0
    outer loop
      vertex -23.1154 19.1227 0
      vertex -24.2705 17.6336 4
      vertex -23.1154 19.1227 4
    endloop
  endfacet
  facet normal -0.827081 0.562083 0
    outer loop
      vertex -25.3298 16.0748 0
      vertex -25.3298 16.0748 4
      vertex -24.2705 17.6336 0
    endloop
  endfacet
  facet normal -0.827081 0.562083 0
    outer loop
      vertex -24.2705 17.6336 0
      vertex -25.3298 16.0748 4
      vertex -24.2705 17.6336 4
    endloop
  endfacet
  facet normal -0.860742 0.509041 0
    outer loop
      vertex -26.2892 14.4526 0
      vertex -26.2892 14.4526 4
      vertex -25.3298 16.0748 0
    endloop
  endfacet
  facet normal -0.860742 0.509041 0
    outer loop
      vertex -25.3298 16.0748 0
      vertex -26.2892 14.4526 4
      vertex -25.3298 16.0748 4
    endloop
  endfacet
  facet normal -0.891006 0.453991 0
    outer loop
      vertex -27.1448 12.7734 0
      vertex -27.1448 12.7734 4
      vertex -26.2892 14.4526 0
    endloop
  endfacet
  facet normal -0.891006 0.453991 0
    outer loop
      vertex -26.2892 14.4526 0
      vertex -27.1448 12.7734 4
      vertex -26.2892 14.4526 4
    endloop
  endfacet
  facet normal -0.917755 0.397148 0
    outer loop
      vertex -27.8933 11.0437 0
      vertex -27.8933 11.0437 4
      vertex -27.1448 12.7734 0
    endloop
  endfacet
  facet normal -0.917755 0.397148 0
    outer loop
      vertex -27.1448 12.7734 0
      vertex -27.8933 11.0437 4
      vertex -27.1448 12.7734 4
    endloop
  endfacet
  facet normal -0.940881 0.338737 0
    outer loop
      vertex -28.5317 9.27051 0
      vertex -28.5317 9.27051 4
      vertex -27.8933 11.0437 0
    endloop
  endfacet
  facet normal -0.940881 0.338737 0
    outer loop
      vertex -27.8933 11.0437 0
      vertex -28.5317 9.27051 4
      vertex -27.8933 11.0437 4
    endloop
  endfacet
  facet normal -0.960294 0.278991 0
    outer loop
      vertex -29.0575 7.4607 0
      vertex -29.0575 7.4607 4
      vertex -28.5317 9.27051 0
    endloop
  endfacet
  facet normal -0.960294 0.278991 0
    outer loop
      vertex -28.5317 9.27051 0
      vertex -29.0575 7.4607 4
      vertex -28.5317 9.27051 4
    endloop
  endfacet
  facet normal -0.975917 0.218143 0
    outer loop
      vertex -29.4686 5.62144 0
      vertex -29.4686 5.62144 4
      vertex -29.0575 7.4607 0
    endloop
  endfacet
  facet normal -0.975917 0.218143 0
    outer loop
      vertex -29.0575 7.4607 0
      vertex -29.4686 5.62144 4
      vertex -29.0575 7.4607 4
    endloop
  endfacet
  facet normal -0.987688 0.156434 0
    outer loop
      vertex -29.7634 3.76 0
      vertex -29.7634 3.76 4
      vertex -29.4686 5.62144 0
    endloop
  endfacet
  facet normal -0.987688 0.156434 0
    outer loop
      vertex -29.4686 5.62144 0
      vertex -29.7634 3.76 4
      vertex -29.4686 5.62144 4
    endloop
  endfacet
  facet normal -0.995562 0.0941084 0
    outer loop
      vertex -29.9408 1.88372 0
      vertex -29.9408 1.88372 4
      vertex -29.7634 3.76 0
    endloop
  endfacet
  facet normal -0.995562 0.0941084 0
    outer loop
      vertex -29.7634 3.76 0
      vertex -29.9408 1.88372 4
      vertex -29.7634 3.76 4
    endloop
  endfacet
  facet normal 0.992709 0.120536 0
    outer loop
      vertex -8 0 4
      vertex -7.76753 -1.91452 4
      vertex -7.76753 -1.91452 0
    endloop
  endfacet
  facet normal 0.992709 0.120536 0
    outer loop
      vertex -8 0 0
      vertex -8 0 4
      vertex -7.76753 -1.91452 0
    endloop
  endfacet
  facet normal 0.992709 -0.120536 0
    outer loop
      vertex -7.76753 1.91452 0
      vertex -7.76753 1.91452 4
      vertex -8 0 4
    endloop
  endfacet
  facet normal 0.992709 -0.120536 0
    outer loop
      vertex -8 0 0
      vertex -7.76753 1.91452 0
      vertex -8 0 4
    endloop
  endfacet
  facet normal 0.935016 -0.354605 0
    outer loop
      vertex -7.08365 3.71778 0
      vertex -7.08365 3.71778 4
      vertex -7.76753 1.91452 4
    endloop
  endfacet
  facet normal 0.935016 -0.354605 0
    outer loop
      vertex -7.76753 1.91452 0
      vertex -7.08365 3.71778 0
      vertex -7.76753 1.91452 4
    endloop
  endfacet
  facet normal 0.822984 -0.568065 0
    outer loop
      vertex -5.98809 5.30498 0
      vertex -5.98809 5.30498 4
      vertex -7.08365 3.71778 4
    endloop
  endfacet
  facet normal 0.822984 -0.568065 0
    outer loop
      vertex -7.08365 3.71778 0
      vertex -5.98809 5.30498 0
      vertex -7.08365 3.71778 4
    endloop
  endfacet
  facet normal 0.663123 -0.748511 0
    outer loop
      vertex -4.54452 6.58387 0
      vertex -4.54452 6.58387 4
      vertex -5.98809 5.30498 4
    endloop
  endfacet
  facet normal 0.663123 -0.748511 0
    outer loop
      vertex -5.98809 5.30498 0
      vertex -4.54452 6.58387 0
      vertex -5.98809 5.30498 4
    endloop
  endfacet
  facet normal 0.464723 -0.885456 0
    outer loop
      vertex -2.83684 7.48013 0
      vertex -2.83684 7.48013 4
      vertex -4.54452 6.58387 4
    endloop
  endfacet
  facet normal 0.464723 -0.885456 0
    outer loop
      vertex -4.54452 6.58387 0
      vertex -2.83684 7.48013 0
      vertex -4.54452 6.58387 4
    endloop
  endfacet
  facet normal 0.239316 -0.970942 0
    outer loop
      vertex -0.964293 7.94167 0
      vertex -0.964293 7.94167 4
      vertex -2.83684 7.48013 4
    endloop
  endfacet
  facet normal 0.239316 -0.970942 0
    outer loop
      vertex -2.83684 7.48013 0
      vertex -0.964293 7.94167 0
      vertex -2.83684 7.48013 4
    endloop
  endfacet
  facet normal 0 -1 0
    outer loop
      vertex 0.964293 7.94167 0
      vertex 0.964293 7.94167 4
      vertex -0.964293 7.94167 4
    endloop
  endfacet
  facet normal 0 -1 0
    outer loop
      vertex -0.964293 7.94167 0
      vertex 0.964293 7.94167 0
      vertex -0.964293 7.94167 4
    endloop
  endfacet
  facet normal -0.239316 -0.970942 0
    outer loop
      vertex 2.83684 7.48013 0
      vertex 2.83684 7.48013 4
      vertex 0.964293 7.94167 4
    endloop
  endfacet
  facet normal -0.239316 -0.970942 0
    outer loop
      vertex 0.964293 7.94167 0
      vertex 2.83684 7.48013 0
      vertex 0.964293 7.94167 4
    endloop
  endfacet
  facet normal -0.464723 -0.885456 0
    outer loop
      vertex 4.54452 6.58387 0
      vertex 4.54452 6.58387 4
      vertex 2.83684 7.48013 4
    endloop
  endfacet
  facet normal -0.464723 -0.885456 0
    outer loop
      vertex 2.83684 7.48013 0
      vertex 4.54452 6.58387 0
      vertex 2.83684 7.48013 4
    endloop
  endfacet
  facet normal -0.663123 -0.748511 0
    outer loop
      vertex 5.98809 5.30498 0
      vertex 5.98809 5.30498 4
      vertex 4.54452 6.58387 4
    endloop
  endfacet
  facet normal -0.663123 -0.748511 0
    outer loop
      vertex 4.54452 6.58387 0
      vertex 5.98809 5.30498 0
      vertex 4.54452 6.58387 4
    endloop
  endfacet
  facet normal -0.822984 -0.568065 0
    outer loop
      vertex 7.08365 3.71778 4
      vertex 5.98809 5.30498 4
      vertex 7.08365 3.71778 0
    endloop
  endfacet
  facet normal -0.822984 -0.568065 0
    outer loop
      vertex 7.08365 3.71778 0
      vertex 5.98809 5.30498 4
      vertex 5.98809 5.30498 0
    endloop
  endfacet
  facet normal -0.935016 -0.354605 0
    outer loop
      vertex 7.76753 1.91452 4
      vertex 7.08365 3.71778 4
      vertex 7.76753 1.91452 0
    endloop
  endfacet
  facet normal -0.935016 -0.354605 0
    outer loop
      vertex 7.76753 1.91452 0
      vertex 7.08365 3.71778 4
      vertex 7.08365 3.71778 0
    endloop
  endfacet
  facet normal -0.992709 -0.120536 0
    outer loop
      vertex 8 0 4
      vertex 7.76753 1.91452 4
      vertex 8 0 0
    endloop
  endfacet
  facet normal -0.992709 -0.120536 0
    outer loop
      vertex 8 0 0
      vertex 7.76753 1.91452 4
      vertex 7.76753 1.91452 0
    endloop
  endfacet
  facet normal -0.992709 0.120536 0
    outer loop
      vertex 8 0 4
      vertex 8 0 0
      vertex 7.76753 -1.91452 4
    endloop
  endfacet
  facet normal -0.992709 0.120536 0
    outer loop
      vertex 7.76753 -1.91452 4
      vertex 8 0 0
      vertex 7.76753 -1.91452 0
    endloop
  endfacet
  facet normal -0.935016 0.354605 0
    outer loop
      vertex 7.76753 -1.91452 4
      vertex 7.76753 -1.91452 0
      vertex 7.08365 -3.71778 4
    endloop
  endfacet
  facet normal -0.935016 0.354605 0
    outer loop
      vertex 7.08365 -3.71778 4
      vertex 7.76753 -1.91452 0
      vertex 7.08365 -3.71778 0
    endloop
  endfacet
  facet normal -0.822984 0.568065 0
    outer loop
      vertex 7.08365 -3.71778 4
      vertex 7.08365 -3.71778 0
      vertex 5.98809 -5.30498 4
    endloop
  endfacet
  facet normal -0.822984 0.568065 0
    outer loop
      vertex 5.98809 -5.30498 4
      vertex 7.08365 -3.71778 0
      vertex 5.98809 -5.30498 0
    endloop
  endfacet
  facet normal -0.663123 0.748511 0
    outer loop
      vertex 5.98809 -5.30498 4
      vertex 5.98809 -5.30498 0
      vertex 4.54452 -6.58387 4
    endloop
  endfacet
  facet normal -0.663123 0.748511 0
    outer loop
      vertex 4.54452 -6.58387 4
      vertex 5.98809 -5.30498 0
      vertex 4.54452 -6.58387 0
    endloop
  endfacet
  facet normal -0.464723 0.885456 0
    outer loop
      vertex 4.54452 -6.58387 4
      vertex 4.54452 -6.58387 0
      vertex 2.83684 -7.48013 4
    endloop
  endfacet
  facet normal -0.464723 0.885456 0
    outer loop
      vertex 2.83684 -7.48013 4
      vertex 4.54452 -6.58387 0
      vertex 2.83684 -7.48013 0
    endloop
  endfacet
  facet normal -0.239316 0.970942 0
    outer loop
      vertex 2.83684 -7.48013 4
      vertex 2.83684 -7.48013 0
      vertex 0.964293 -7.94167 4
    endloop
  endfacet
  facet normal -0.239316 0.970942 0
    outer loop
      vertex 0.964293 -7.94167 4
      vertex 2.83684 -7.48013 0
      vertex 0.964293 -7.94167 0
    endloop
  endfacet
  facet normal 0 1 0
    outer loop
      vertex 0.964293 -7.94167 4
      vertex 0.964293 -7.94167 0
      vertex -0.964293 -7.94167 4
    endloop
  endfacet
  facet normal 0 1 0
    outer loop
      vertex -0.964293 -7.94167 4
      vertex 0.964293 -7.94167 0
      vertex -0.964293 -7.94167 0
    endloop
  endfacet
  facet normal 0.239316 0.970942 0
    outer loop
      vertex -0.964293 -7.94167 4
      vertex -0.964293 -7.94167 0
      vertex -2.83684 -7.48013 4
    endloop
  endfacet
  facet normal 0.239316 0.970942 0
    outer loop
      vertex -2.83684 -7.48013 4
      vertex -0.964293 -7.94167 0
      vertex -2.83684 -7.48013 0
    endloop
  endfacet
  facet normal 0.464723 0.885456 0
    outer loop
      vertex -2.83684 -7.48013 4
      vertex -2.83684 -7.48013 0
      vertex -4.54452 -6.58387 4
    endloop
  endfacet
  facet normal 0.464723 0.885456 0
    outer loop
      vertex -4.54452 -6.58387 4
      vertex -2.83684 -7.48013 0
      vertex -4.54452 -6.58387 0
    endloop
  endfacet
  facet normal 0.663123 0.748511 0
    outer loop
      vertex -4.54452 -6.58387 4
      vertex -4.54452 -6.58387 0
      vertex -5.98809 -5.30498 4
    endloop
  endfacet
  facet normal 0.663123 0.748511 0
    outer loop
      vertex -5.98809 -5.30498 4
      vertex -4.54452 -6.58387 0
      vertex -5.98809 -5.30498 0
    endloop
  endfacet
  facet normal 0.822984 0.568065 0
    outer loop
      vertex -7.08365 -3.71778 4
      vertex -5.98809 -5.30498 4
      vertex -5.98809 -5.30498 0
    endloop
  endfacet
  facet normal 0.822984 0.568065 0
    outer loop
      vertex -7.08365 -3.71778 0
      vertex -7.08365 -3.71778 4
      vertex -5.98809 -5.30498 0
    endloop
  endfacet
  facet normal 0.935016 0.354605 0
    outer loop
      vertex -7.76753 -1.91452 4
      vertex -7.08365 -3.71778 4
      vertex -7.08365 -3.71778 0
    endloop
  endfacet
  facet normal 0.935016 0.354605 0
    outer loop
      vertex -7.76753 -1.91452 0
      vertex -7.76753 -1.91452 4
      vertex -7.08365 -3.71778 0
    endloop
  endfacet
  facet normal 0 0 1
    outer loop
      vertex -29.9408 1.88372 4
      vertex -30 0 4
      vertex -29.9408 -1.88372 4
    endloop
  endfacet
  facet normal 0 0 1
    outer loop
      vertex -29.4686 -5.62144 4
      vertex -29.9408 1.88372 4
      vertex -29.7634 -3.76 4
    endloop
  endfacet
  facet normal 0 0 1
    outer loop
      vertex -29.7634 -3.76 4
      vertex -29.9408 1.88372 4
      vertex -29.9408 -1.88372 4
    endloop
  endfacet
  facet normal 0 0 1
    outer loop
      vertex -29.0575 -7.4607 4
      vertex -29.9408 1.88372 4
      vertex -29.4686 -5.62144 4
    endloop
  endfacet
  facet normal 0 0 1
    outer loop
      vertex -28.5317 -9.27051 4
      vertex -29.9408 1.88372 4
      vertex -29.0575 -7.4607 4
    endloop
  endfacet
  facet normal 0 0 1
    outer loop
      vertex -27.8933 -11.0437 4
      vertex -29.9408 1.88372 4
      vertex -28.5317 -9.27051 4
    endloop
  endfacet
  facet normal 0 0 1
    outer loop
      vertex -27.1448 -12.7734 4
      vertex -29.9408 1.88372 4
      vertex -27.8933 -11.0437 4
    endloop
  endfacet
  facet normal 0 0 1
    outer loop
      vertex -26.2892 -14.4526 4
      vertex -29.9408 1.88372 4
      vertex -27.1448 -12.7734 4
    endloop
  endfacet
  facet normal 0 0 1
    outer loop
      vertex -25.3298 -16.0748 4
      vertex -29.9408 1.88372 4
      vertex -26.2892 -14.4526 4
    endloop
  endfacet
  facet normal 0 0 1
    outer loop
      vertex -24.2705 -17.6336 4
      vertex -29.9408 1.88372 4
      vertex -25.3298 -16.0748 4
    endloop
  endfacet
  facet normal 0 0 1
    outer loop
      vertex -23.1154 -19.1227 4
      vertex -29.9408 1.88372 4
      vertex -24.2705 -17.6336 4
    endloop
  endfacet
  facet normal 0 0 1
    outer loop
      vertex -21.8691 -20.5364 4
      vertex -29.9408 1.88372 4
      vertex -23.1154 -19.1227 4
    endloop
  endfacet
  facet normal 0 0 1
    outer loop
      vertex -20.5364 -21.8691 4
      vertex -29.9408 1.88372 4
      vertex -21.8691 -20.5364 4
    endloop
  endfacet
  facet normal 0 0 1
    outer loop
      vertex -19.1227 -23.1154 4
      vertex -29.9408 1.88372 4
      vertex -20.5364 -21.8691 4
    endloop
  endfacet
  facet normal 0 0 1
    outer loop
      vertex -17.6336 -24.2705 4
      vertex -29.9408 1.88372 4
      vertex -19.1227 -23.1154 4
    endloop
  endfacet
  facet normal 0 0 1
    outer loop
      vertex -16.0748 -25.3298 4
      vertex -29.9408 1.88372 4
      vertex -17.6336 -24.2705 4
    endloop
  endfacet
  facet normal 0 0 1
    outer loop
      vertex -14.4526 -26.2892 4
      vertex -29.9408 1.88372 4
      vertex -16.0748 -25.3298 4
    endloop
  endfacet
  facet normal 0 0 1
    outer loop
      vertex -12.7734 -27.1448 4
      vertex -29.9408 1.88372 4
      vertex -14.4526 -26.2892 4
    endloop
  endfacet
  facet normal 0 0 1
    outer loop
      vertex -11.0437 -27.8933 4
      vertex -29.9408 1.88372 4
      vertex -12.7734 -27.1448 4
    endloop
  endfacet
  facet normal 0 0 1
    outer loop
      vertex -9.27051 -28.5317 4
      vertex -29.9408 1.88372 4
      vertex -11.0437 -27.8933 4
    endloop
  endfacet
  facet normal 0 0 1
    outer loop
      vertex -7.4607 -29.0575 4
      vertex -29.9408 1.88372 4
      vertex -9.27051 -28.5317 4
    endloop
  endfacet
  facet normal 0 0 1
    outer loop
      vertex -5.62144 -29.4686 4
      vertex -29.9408 1.88372 4
      vertex -7.4607 -29.0575 4
    endloop
  endfacet
  facet normal 0 0 1
    outer loop
      vertex -3.76 -29.7634 4
      vertex -29.9408 1.88372 4
      vertex -5.62144 -29.4686 4
    endloop
  endfacet
  facet normal 0 0 1
    outer loop
      vertex -1.88372 -29.9408 4
      vertex -29.9408 1.88372 4
      vertex -3.76 -29.7634 4
    endloop
  endfacet
  facet normal 0 0 1
    outer loop
      vertex 0 -30 4
      vertex -29.9408 1.88372 4
      vertex -1.88372 -29.9408 4
    endloop
  endfacet
  facet normal 0 0 1
    outer loop
      vertex 1.88372 -29.9408 4
      vertex -29.9408 1.88372 4
      vertex 0 -30 4
    endloop
  endfacet
  facet normal 0 0 1
    outer loop
      vertex 3.76 -29.7634 4
      vertex -29.9408 1.88372 4
      vertex 1.88372 -29.9408 4
    endloop
  endfacet
  facet normal 0 0 1
    outer loop
      vertex 5.62144 -29.4686 4
      vertex -29.9408 1.88372 4
      vertex 3.76 -29.7634 4
    endloop
  endfacet
  facet normal 0 0 1
    outer loop
      vertex 7.4607 -29.0575 4
      vertex -29.9408 1.88372 4
      vertex 5.62144 -29.4686 4
    endloop
  endfacet
  facet normal 0 0 1
    outer loop
      vertex 9.27051 -28.5317 4
      vertex -29.9408 1.88372 4
      vertex 7.4607 -29.0575 4
    endloop
  endfacet
  facet normal 0 0 1
    outer loop
      vertex 11.0437 -27.8933 4
      vertex -29.9408 1.88372 4
      vertex 9.27051 -28.5317 4
    endloop
  endfacet
  facet normal 0 0 1
    outer loop
      vertex 12.7734 -27.1448 4
      vertex -29.9408 1.88372 4
      vertex 11.0437 -27.8933 4
    endloop
  endfacet
  facet normal 0 0 1
    outer loop
      vertex 14.4526 -26.2892 4
      vertex -29.9408 1.88372 4
      vertex 12.7734 -27.1448 4
    endloop
  endfacet
  facet normal 0 0 1
    outer loop
      vertex 16.0748 -25.3298 4
      vertex -29.9408 1.88372 4
      vertex 14.4526 -26.2892 4
    endloop
  endfacet
  facet normal 0 0 1
    outer loop
      vertex 17.6336 -24.2705 4
      vertex -29.9408 1.88372 4
      vertex 16.0748 -25.3298 4
    endloop
  endfacet
  facet normal 0 0 1
    outer loop
      vertex 19.1227 -23.1154 4
      vertex -29.9408 1.88372 4
      vertex 17.6336 -24.2705 4
    endloop
  endfacet
  facet normal 0 0 1
    outer loop
      vertex 20.5364 -21.8691 4
      vertex -29.9408 1.88372 4
      vertex 19.1227 -23.1154 4
    endloop
  endfacet
  facet normal 0 0 1
    outer loop
      vertex 21.8691 -20.5364 4
      vertex -29.9408 1.88372 4
      vertex 20.5364 -21.8691 4
    endloop
  endfacet
  facet normal 0 0 1
    outer loop
      vertex 23.1154 -19.1227 4
      vertex -29.9408 1.88372 4
      vertex 21.8691 -20.5364 4
    endloop
  endfacet
  facet normal 0 0 1
    outer loop
      vertex 24.2705 -17.6336 4
      vertex -29.9408 1.88372 4
      vertex 23.1154 -19.1227 4
    endloop
  endfacet
  facet normal 0 0 1
    outer loop
      vertex -2.83684 -7.48013 4
      vertex -29.9408 1.88372 4
      vertex 24.2705 -17.6336 4
    endloop
  endfacet
  facet normal 0 0 1
    outer loop
      vertex -5.98809 -5.30498 4
      vertex -7.08365 -3.71778 4
      vertex -29.9408 1.88372 4
    endloop
  endfacet
  facet normal 0 0 1
    outer loop
      vertex 0.964293 -7.94167 4
      vertex -0.964293 -7.94167 4
      vertex 25.3298 -16.0748 4
    endloop
  endfacet
  facet normal 0 0 1
    outer loop
      vertex -8 0 4
      vertex -7.76753 1.91452 4
      vertex -29.9408 1.88372 4
    endloop
  endfacet
  facet normal 0 0 1
    outer loop
      vertex 7.08365 -3.71778 4
      vertex 5.98809 -5.30498 4
      vertex 28.5317 -9.27051 4
    endloop
  endfacet
  facet normal 0 0 1
    outer loop
      vertex 8 0 4
      vertex 29.7634 -3.76 4
      vertex 29.9408 -1.88372 4
    endloop
  endfacet
  facet normal 0 0 1
    outer loop
      vertex -7.76753 1.91452 4
      vertex -7.08365 3.71778 4
      vertex -29.9408 1.88372 4
    endloop
  endfacet
  facet normal 0 0 1
    outer loop
      vertex 7.76753 1.91452 4
      vertex 30 0 4
      vertex 29.9408 1.88372 4
    endloop
  endfacet
  facet normal 0 0 1
    outer loop
      vertex -5.98809 5.30498 4
      vertex -4.54452 6.58387 4
      vertex -29.9408 1.88372 4
    endloop
  endfacet
  facet normal 0 0 1
    outer loop
      vertex 4.54452 6.58387 4
      vertex 5.98809 5.30498 4
      vertex 28.5317 9.27051 4
    endloop
  endfacet
  facet normal 0 0 1
    outer loop
      vertex -0.964293 7.94167 4
      vertex 27.1448 12.7734 4
      vertex 26.2892 14.4526 4
    endloop
  endfacet
  facet normal 0 0 1
    outer loop
      vertex 25.3298 16.0748 4
      vertex -29.9408 1.88372 4
      vertex 26.2892 14.4526 4
    endloop
  endfacet
  facet normal 0 0 1
    outer loop
      vertex 24.2705 17.6336 4
      vertex -29.9408 1.88372 4
      vertex 25.3298 16.0748 4
    endloop
  endfacet
  facet normal 0 0 1
    outer loop
      vertex 23.1154 19.1227 4
      vertex -29.9408 1.88372 4
      vertex 24.2705 17.6336 4
    endloop
  endfacet
  facet normal 0 0 1
    outer loop
      vertex 21.8691 20.5364 4
      vertex -29.9408 1.88372 4
      vertex 23.1154 19.1227 4
    endloop
  endfacet
  facet normal 0 0 1
    outer loop
      vertex 20.5364 21.8691 4
      vertex -29.9408 1.88372 4
      vertex 21.8691 20.5364 4
    endloop
  endfacet
  facet normal 0 0 1
    outer loop
      vertex 19.1227 23.1154 4
      vertex -29.9408 1.88372 4
      vertex 20.5364 21.8691 4
    endloop
  endfacet
  facet normal 0 0 1
    outer loop
      vertex 17.6336 24.2705 4
      vertex -29.9408 1.88372 4
      vertex 19.1227 23.1154 4
    endloop
  endfacet
  facet normal 0 0 1
    outer loop
      vertex 16.0748 25.3298 4
      vertex -29.9408 1.88372 4
      vertex 17.6336 24.2705 4
    endloop
  endfacet
  facet normal 0 0 1
    outer loop
      vertex 14.4526 26.2892 4
      vertex -29.9408 1.88372 4
      vertex 16.0748 25.3298 4
    endloop
  endfacet
  facet normal 0 0 1
    outer loop
      vertex 12.7734 27.1448 4
      vertex -29.9408 1.88372 4
      vertex 14.4526 26.2892 4
    endloop
  endfacet
  facet normal 0 0 1
    outer loop
      vertex 11.0437 27.8933 4
      vertex -29.9408 1.88372 4
      vertex 12.7734 27.1448 4
    endloop
  endfacet
  facet normal 0 0 1
    outer loop
      vertex 9.27051 28.5317 4
      vertex -29.9408 1.88372 4
      vertex 11.0437 27.8933 4
    endloop
  endfacet
  facet normal 0 0 1
    outer loop
      vertex 7.4607 29.0575 4
      vertex -29.9408 1.88372 4
      vertex 9.27051 28.5317 4
    endloop
  endfacet
  facet normal 0 0 1
    outer loop
      vertex 5.62144 29.4686 4
      vertex -29.9408 1.88372 4
      vertex 7.4607 29.0575 4
    endloop
  endfacet
  facet normal 0 0 1
    outer loop
      vertex 3.76 29.7634 4
      vertex -29.9408 1.88372 4
      vertex 5.62144 29.4686 4
    endloop
  endfacet
  facet normal 0 0 1
    outer loop
      vertex 1.88372 29.9408 4
      vertex -29.9408 1.88372 4
      vertex 3.76 29.7634 4
    endloop
  endfacet
  facet normal 0 0 1
    outer loop
      vertex 0 30 4
      vertex -29.9408 1.88372 4
      vertex 1.88372 29.9408 4
    endloop
  endfacet
  facet normal 0 0 1
    outer loop
      vertex -1.88372 29.9408 4
      vertex -29.9408 1.88372 4
      vertex 0 30 4
    endloop
  endfacet
  facet normal 0 0 1
    outer loop
      vertex -3.76 29.7634 4
      vertex -29.9408 1.88372 4
      vertex -1.88372 29.9408 4
    endloop
  endfacet
  facet normal 0 0 1
    outer loop
      vertex -5.62144 29.4686 4
      vertex -29.9408 1.88372 4
      vertex -3.76 29.7634 4
    endloop
  endfacet
  facet normal 0 0 1
    outer loop
      vertex -7.4607 29.0575 4
      vertex -29.9408 1.88372 4
      vertex -5.62144 29.4686 4
    endloop
  endfacet
  facet normal 0 0 1
    outer loop
      vertex -9.27051 28.5317 4
      vertex -29.9408 1.88372 4
      vertex -7.4607 29.0575 4
    endloop
  endfacet
  facet normal 0 0 1
    outer loop
      vertex -11.0437 27.8933 4
      vertex -29.9408 1.88372 4
      vertex -9.27051 28.5317 4
    endloop
  endfacet
  facet normal 0 0 1
    outer loop
      vertex -12.7734 27.1448 4
      vertex -29.9408 1.88372 4
      vertex -11.0437 27.8933 4
    endloop
  endfacet
  facet normal 0 0 1
    outer loop
      vertex -14.4526 26.2892 4
      vertex -29.9408 1.88372 4
      vertex -12.7734 27.1448 4
    endloop
  endfacet
  facet normal 0 0 1
    outer loop
      vertex -16.0748 25.3298 4
      vertex -29.9408 1.88372 4
      vertex -14.4526 26.2892 4
    endloop
  endfacet
  facet normal 0 0 1
    outer loop
      vertex -17.6336 24.2705 4
      vertex -29.9408 1.88372 4
      vertex -16.0748 25.3298 4
    endloop
  endfacet
  facet normal 0 0 1
    outer loop
      vertex -19.1227 23.1154 4
      vertex -29.9408 1.88372 4
      vertex -17.6336 24.2705 4
    endloop
  endfacet
  facet normal 0 0 1
    outer loop
      vertex -20.5364 21.8691 4
      vertex -29.9408 1.88372 4
      vertex -19.1227 23.1154 4
    endloop
  endfacet
  facet normal 0 0 1
    outer loop
      vertex -21.8691 20.5364 4
      vertex -29.9408 1.88372 4
      vertex -20.5364 21.8691 4
    endloop
  endfacet
  facet normal 0 0 1
    outer loop
      vertex -23.1154 19.1227 4
      vertex -29.9408 1.88372 4
      vertex -21.8691 20.5364 4
    endloop
  endfacet
  facet normal 0 0 1
    outer loop
      vertex -24.2705 17.6336 4
      vertex -29.9408 1.88372 4
      vertex -23.1154 19.1227 4
    endloop
  endfacet
  facet normal 0 0 1
    outer loop
      vertex -25.3298 16.0748 4
      vertex -29.9408 1.88372 4
      vertex -24.2705 17.6336 4
    endloop
  endfacet
  facet normal 0 0 1
    outer loop
      vertex -26.2892 14.4526 4
      vertex -29.9408 1.88372 4
      vertex -25.3298 16.0748 4
    endloop
  endfacet
  facet normal 0 0 1
    outer loop
      vertex -27.1448 12.7734 4
      vertex -29.9408 1.88372 4
      vertex -26.2892 14.4526 4
    endloop
  endfacet
  facet normal 0 0 1
    outer loop
      vertex -27.8933 11.0437 4
      vertex -29.9408 1.88372 4
      vertex -27.1448 12.7734 4
    endloop
  endfacet
  facet normal 0 0 1
    outer loop
      vertex -28.5317 9.27051 4
      vertex -29.9408 1.88372 4
      vertex -27.8933 11.0437 4
    endloop
  endfacet
  facet normal 0 0 1
    outer loop
      vertex -29.0575 7.4607 4
      vertex -29.9408 1.88372 4
      vertex -28.5317 9.27051 4
    endloop
  endfacet
  facet normal 0 0 1
    outer loop
      vertex -29.4686 5.62144 4
      vertex -29.9408 1.88372 4
      vertex -29.0575 7.4607 4
    endloop
  endfacet
  facet normal 0 0 1
    outer loop
      vertex -29.7634 3.76 4
      vertex -29.9408 1.88372 4
      vertex -29.4686 5.62144 4
    endloop
  endfacet
  facet normal 0 0 1
    outer loop
      vertex 7.76753 -1.91452 4
      vertex 7.08365 -3.71778 4
      vertex 29.4686 -5.62144 4
    endloop
  endfacet
  facet normal 0 0 1
    outer loop
      vertex 8 0 4
      vertex 7.76753 -1.91452 4
      vertex 29.7634 -3.76 4
    endloop
  endfacet
  facet normal 0 0 1
    outer loop
      vertex -7.08365 3.71778 4
      vertex -5.98809 5.30498 4
      vertex -29.9408 1.88372 4
    endloop
  endfacet
  facet normal 0 0 1
    outer loop
      vertex 7.08365 3.71778 4
      vertex 7.76753 1.91452 4
      vertex 29.7634 3.76 4
    endloop
  endfacet
  facet normal 0 0 1
    outer loop
      vertex 5.98809 5.30498 4
      vertex 29.4686 5.62144 4
      vertex 29.0575 7.4607 4
    endloop
  endfacet
  facet normal 0 0 1
    outer loop
      vertex -4.54452 6.58387 4
      vertex -2.83684 7.48013 4
      vertex -29.9408 1.88372 4
    endloop
  endfacet
  facet normal 0 0 1
    outer loop
      vertex 2.83684 7.48013 4
      vertex 4.54452 6.58387 4
      vertex 27.8933 11.0437 4
    endloop
  endfacet
  facet normal 0 0 1
    outer loop
      vertex -0.964293 7.94167 4
      vertex 0.964293 7.94167 4
      vertex 27.1448 12.7734 4
    endloop
  endfacet
  facet normal 0 0 1
    outer loop
      vertex 0.964293 7.94167 4
      vertex 27.8933 11.0437 4
      vertex 27.1448 12.7734 4
    endloop
  endfacet
  facet normal 0 0 1
    outer loop
      vertex -0.964293 7.94167 4
      vertex -29.9408 1.88372 4
      vertex -2.83684 7.48013 4
    endloop
  endfacet
  facet normal 0 0 1
    outer loop
      vertex 0.964293 7.94167 4
      vertex 2.83684 7.48013 4
      vertex 27.8933 11.0437 4
    endloop
  endfacet
  facet normal 0 0 1
    outer loop
      vertex 26.2892 14.4526 4
      vertex -29.9408 1.88372 4
      vertex -0.964293 7.94167 4
    endloop
  endfacet
  facet normal 0 0 1
    outer loop
      vertex 5.98809 5.30498 4
      vertex 7.08365 3.71778 4
      vertex 29.4686 5.62144 4
    endloop
  endfacet
  facet normal 0 0 1
    outer loop
      vertex 27.8933 11.0437 4
      vertex 4.54452 6.58387 4
      vertex 28.5317 9.27051 4
    endloop
  endfacet
  facet normal 0 0 1
    outer loop
      vertex 28.5317 9.27051 4
      vertex 5.98809 5.30498 4
      vertex 29.0575 7.4607 4
    endloop
  endfacet
  facet normal 0 0 1
    outer loop
      vertex 29.4686 5.62144 4
      vertex 7.08365 3.71778 4
      vertex 29.7634 3.76 4
    endloop
  endfacet
  facet normal 0 0 1
    outer loop
      vertex 7.76753 1.91452 4
      vertex 8 0 4
      vertex 30 0 4
    endloop
  endfacet
  facet normal 0 0 1
    outer loop
      vertex 29.7634 3.76 4
      vertex 7.76753 1.91452 4
      vertex 29.9408 1.88372 4
    endloop
  endfacet
  facet normal 0 0 1
    outer loop
      vertex 30 0 4
      vertex 8 0 4
      vertex 29.9408 -1.88372 4
    endloop
  endfacet
  facet normal 0 0 1
    outer loop
      vertex 29.7634 -3.76 4
      vertex 7.76753 -1.91452 4
      vertex 29.4686 -5.62144 4
    endloop
  endfacet
  facet normal 0 0 1
    outer loop
      vertex 29.4686 -5.62144 4
      vertex 7.08365 -3.71778 4
      vertex 29.0575 -7.4607 4
    endloop
  endfacet
  facet normal 0 0 1
    outer loop
      vertex 28.5317 -9.27051 4
      vertex 5.98809 -5.30498 4
      vertex 27.8933 -11.0437 4
    endloop
  endfacet
  facet normal 0 0 1
    outer loop
      vertex 7.08365 -3.71778 4
      vertex 28.5317 -9.27051 4
      vertex 29.0575 -7.4607 4
    endloop
  endfacet
  facet normal 0 0 1
    outer loop
      vertex 27.8933 -11.0437 4
      vertex 4.54452 -6.58387 4
      vertex 27.1448 -12.7734 4
    endloop
  endfacet
  facet normal 0 0 1
    outer loop
      vertex 27.1448 -12.7734 4
      vertex 2.83684 -7.48013 4
      vertex 26.2892 -14.4526 4
    endloop
  endfacet
  facet normal 0 0 1
    outer loop
      vertex 26.2892 -14.4526 4
      vertex 0.964293 -7.94167 4
      vertex 25.3298 -16.0748 4
    endloop
  endfacet
  facet normal 0 0 1
    outer loop
      vertex 25.3298 -16.0748 4
      vertex -0.964293 -7.94167 4
      vertex 24.2705 -17.6336 4
    endloop
  endfacet
  facet normal 0 0 1
    outer loop
      vertex -0.964293 -7.94167 4
      vertex -2.83684 -7.48013 4
      vertex 24.2705 -17.6336 4
    endloop
  endfacet
  facet normal 0 0 1
    outer loop
      vertex -4.54452 -6.58387 4
      vertex -5.98809 -5.30498 4
      vertex -29.9408 1.88372 4
    endloop
  endfacet
  facet normal 0 0 1
    outer loop
      vertex -2.83684 -7.48013 4
      vertex -4.54452 -6.58387 4
      vertex -29.9408 1.88372 4
    endloop
  endfacet
  facet normal 0 0 1
    outer loop
      vertex 5.98809 -5.30498 4
      vertex 4.54452 -6.58387 4
      vertex 27.8933 -11.0437 4
    endloop
  endfacet
  facet normal 0 0 1
    outer loop
      vertex 2.83684 -7.48013 4
      vertex 0.964293 -7.94167 4
      vertex 26.2892 -14.4526 4
    endloop
  endfacet
  facet normal 0 0 1
    outer loop
      vertex 4.54452 -6.58387 4
      vertex 2.83684 -7.48013 4
      vertex 27.1448 -12.7734 4
    endloop
  endfacet
  facet normal 0 0 1
    outer loop
      vertex -7.08365 -3.71778 4
      vertex -7.76753 -1.91452 4
      vertex -29.9408 1.88372 4
    endloop
  endfacet
  facet normal 0 0 1
    outer loop
      vertex -7.76753 -1.91452 4
      vertex -8 0 4
      vertex -29.9408 1.88372 4
    endloop
  endfacet
endsolid OpenSCAD_Model
