solid OpenSCAD_Model
  facet normal 0 0 -1
    outer loop
      vertex -36 0 0
      vertex -35.2133 7.48482 0
      vertex -35.2133 -7.48482 0
    endloop
  endfacet
  facet normal 0 0 -1
    outer loop
      vertex -35.2133 -7.48482 0
      vertex -35.2133 7.48482 0
      vertex -32.8876 14.6425 0
    endloop
  endfacet
  facet normal 0 0 -1
    outer loop
      vertex -35.2133 -7.48482 0
      vertex -32.8876 14.6425 0
      vertex -29.1246 21.1603 0
    endloop
  endfacet
  facet normal 0 0 -1
    outer loop
      vertex -35.2133 -7.48482 0
      vertex -29.1246 21.1603 0
      vertex -24.0887 26.7532 0
    endloop
  endfacet
  facet normal 0 0 -1
    outer loop
      vertex -24.2705 17.6336 0
      vertex -24.0887 26.7532 0
      vertex -18 31.1769 0
    endloop
  endfacet
  facet normal 0 0 -1
    outer loop
      vertex -20.0739 22.2943 0
      vertex -18 31.1769 0
      vertex -11.1246 34.238 0
    endloop
  endfacet
  facet normal 0 0 -1
    outer loop
      vertex -9.27051 28.5317 0
      vertex -11.1246 34.238 0
      vertex -3.76302 35.8028 0
    endloop
  endfacet
  facet normal 0 0 -1
    outer loop
      vertex -3.13585 29.8357 0
      vertex -3.76302 35.8028 0
      vertex 3.76302 35.8028 0
    endloop
  endfacet
  facet normal 0 0 -1
    outer loop
      vertex 3.13585 29.8357 0
      vertex 3.76302 35.8028 0
      vertex 11.1246 34.238 0
    endloop
  endfacet
  facet normal 0 0 -1
    outer loop
      vertex 9.27051 28.5317 0
      vertex 11.1246 34.238 0
      vertex 18 31.1769 0
    endloop
  endfacet
  facet normal 0 0 -1
    outer loop
      vertex 15 25.9808 0
      vertex 18 31.1769 0
      vertex 24.0887 26.7532 0
    endloop
  endfacet
  facet normal 0 0 -1
    outer loop
      vertex 20.0739 22.2943 0
      vertex 24.0887 26.7532 0
      vertex 29.1246 21.1603 0
    endloop
  endfacet
  facet normal 0 0 -1
    outer loop
      vertex 24.2705 17.6336 0
      vertex 29.1246 21.1603 0
      vertex 32.8876 14.6425 0
    endloop
  endfacet
  facet normal 0 0 -1
    outer loop
      vertex 29.3444 6.23735 0
      vertex 32.8876 14.6425 0
      vertex 35.2133 7.48482 0
    endloop
  endfacet
  facet normal 0 0 -1
    outer loop
      vertex 30 0 0
      vertex 35.2133 7.48482 0
      vertex 36 0 0
    endloop
  endfacet
  facet normal 0 0 -1
    outer loop
      vertex 29.3444 -6.23735 0
      vertex 36 0 0
      vertex 35.2133 -7.48482 0
    endloop
  endfacet
  facet normal 0 0 -1
    outer loop
      vertex 27.4064 -12.2021 0
      vertex 35.2133 -7.48482 0
      vertex 32.8876 -14.6425 0
    endloop
  endfacet
  facet normal 0 0 -1
    outer loop
      vertex 24.2705 -17.6336 0
      vertex 32.8876 -14.6425 0
      vertex 29.1246 -21.1603 0
    endloop
  endfacet
  facet normal 0 0 -1
    outer loop
      vertex 20.0739 -22.2943 0
      vertex 29.1246 -21.1603 0
      vertex 24.0887 -26.7532 0
    endloop
  endfacet
  facet normal 0 0 -1
    outer loop
      vertex 15 -25.9808 0
      vertex 24.0887 -26.7532 0
      vertex 18 -31.1769 0
    endloop
  endfacet
  facet normal 0 0 -1
    outer loop
      vertex 9.27051 -28.5317 0
      vertex 18 -31.1769 0
      vertex 11.1246 -34.238 0
    endloop
  endfacet
  facet normal 0 0 -1
    outer loop
      vertex -3.13585 -29.8357 0
      vertex 11.1246 -34.238 0
      vertex 3.76302 -35.8028 0
    endloop
  endfacet
  facet normal 0 0 -1
    outer loop
      vertex -9.27051 -28.5317 0
      vertex 3.76302 -35.8028 0
      vertex -3.76302 -35.8028 0
    endloop
  endfacet
  facet normal 0 0 -1
    outer loop
      vertex -20.0739 -22.2943 0
      vertex -3.76302 -35.8028 0
      vertex -11.1246 -34.238 0
    endloop
  endfacet
  facet normal 0 0 -1
    outer loop
      vertex -35.2133 -7.48482 0
      vertex -11.1246 -34.238 0
      vertex -18 -31.1769 0
    endloop
  endfacet
  facet normal 0 0 -1
    outer loop
      vertex -35.2133 -7.48482 0
      vertex -18 -31.1769 0
      vertex -24.0887 -26.7532 0
    endloop
  endfacet
  facet normal 0 0 -1
    outer loop
      vertex -35.2133 -7.48482 0
      vertex -24.0887 -26.7532 0
      vertex -29.1246 -21.1603 0
    endloop
  endfacet
  facet normal 0 0 -1
    outer loop
      vertex -35.2133 -7.48482 0
      vertex -29.1246 -21.1603 0
      vertex -32.8876 -14.6425 0
    endloop
  endfacet
  facet normal 0 0 -1
    outer loop
      vertex -29.3444 -6.23735 0
      vertex -35.2133 -7.48482 0
      vertex -30 0 0
    endloop
  endfacet
  facet normal 0 0 -1
    outer loop
      vertex -27.4064 -12.2021 0
      vertex -35.2133 -7.48482 0
      vertex -29.3444 -6.23735 0
    endloop
  endfacet
  facet normal 0 0 -1
    outer loop
      vertex -24.2705 -17.6336 0
      vertex -35.2133 -7.48482 0
      vertex -27.4064 -12.2021 0
    endloop
  endfacet
  facet normal 0 0 -1
    outer loop
      vertex -9.27051 -28.5317 0
      vertex -3.76302 -35.8028 0
      vertex -15 -25.9808 0
    endloop
  endfacet
  facet normal 0 0 -1
    outer loop
      vertex -35.2133 -7.48482 0
      vertex -24.2705 -17.6336 0
      vertex -11.1246 -34.238 0
    endloop
  endfacet
  facet normal 0 0 -1
    outer loop
      vertex -15 -25.9808 0
      vertex -3.76302 -35.8028 0
      vertex -20.0739 -22.2943 0
    endloop
  endfacet
  facet normal 0 0 -1
    outer loop
      vertex -24.2705 -17.6336 0
      vertex -20.0739 -22.2943 0
      vertex -11.1246 -34.238 0
    endloop
  endfacet
  facet normal 0 0 -1
    outer loop
      vertex 3.13585 -29.8357 0
      vertex 11.1246 -34.238 0
      vertex -3.13585 -29.8357 0
    endloop
  endfacet
  facet normal 0 0 -1
    outer loop
      vertex 9.27051 -28.5317 0
      vertex 11.1246 -34.238 0
      vertex 3.13585 -29.8357 0
    endloop
  endfacet
  facet normal 0 0 -1
    outer loop
      vertex -3.13585 -29.8357 0
      vertex 3.76302 -35.8028 0
      vertex -9.27051 -28.5317 0
    endloop
  endfacet
  facet normal 0 0 -1
    outer loop
      vertex 29.3444 6.23735 0
      vertex 35.2133 7.48482 0
      vertex 30 0 0
    endloop
  endfacet
  facet normal 0 0 -1
    outer loop
      vertex 27.4064 12.2021 0
      vertex 32.8876 14.6425 0
      vertex 29.3444 6.23735 0
    endloop
  endfacet
  facet normal 0 0 -1
    outer loop
      vertex 30 0 0
      vertex 36 0 0
      vertex 29.3444 -6.23735 0
    endloop
  endfacet
  facet normal 0 0 -1
    outer loop
      vertex 29.3444 -6.23735 0
      vertex 35.2133 -7.48482 0
      vertex 27.4064 -12.2021 0
    endloop
  endfacet
  facet normal 0 0 -1
    outer loop
      vertex 27.4064 -12.2021 0
      vertex 32.8876 -14.6425 0
      vertex 24.2705 -17.6336 0
    endloop
  endfacet
  facet normal 0 0 -1
    outer loop
      vertex 24.2705 -17.6336 0
      vertex 29.1246 -21.1603 0
      vertex 20.0739 -22.2943 0
    endloop
  endfacet
  facet normal 0 0 -1
    outer loop
      vertex 20.0739 -22.2943 0
      vertex 24.0887 -26.7532 0
      vertex 15 -25.9808 0
    endloop
  endfacet
  facet normal 0 0 -1
    outer loop
      vertex 15 -25.9808 0
      vertex 18 -31.1769 0
      vertex 9.27051 -28.5317 0
    endloop
  endfacet
  facet normal 0 0 -1
    outer loop
      vertex -15 25.9808 0
      vertex -11.1246 34.238 0
      vertex -9.27051 28.5317 0
    endloop
  endfacet
  facet normal 0 0 -1
    outer loop
      vertex -20.0739 22.2943 0
      vertex -11.1246 34.238 0
      vertex -15 25.9808 0
    endloop
  endfacet
  facet normal 0 0 -1
    outer loop
      vertex -9.27051 28.5317 0
      vertex -3.76302 35.8028 0
      vertex -3.13585 29.8357 0
    endloop
  endfacet
  facet normal 0 0 -1
    outer loop
      vertex -27.4064 12.2021 0
      vertex -24.0887 26.7532 0
      vertex -24.2705 17.6336 0
    endloop
  endfacet
  facet normal 0 0 -1
    outer loop
      vertex -35.2133 -7.48482 0
      vertex -24.0887 26.7532 0
      vertex -27.4064 12.2021 0
    endloop
  endfacet
  facet normal 0 0 -1
    outer loop
      vertex -35.2133 -7.48482 0
      vertex -27.4064 12.2021 0
      vertex -29.3444 6.23735 0
    endloop
  endfacet
  facet normal 0 0 -1
    outer loop
      vertex -3.13585 29.8357 0
      vertex 3.76302 35.8028 0
      vertex 3.13585 29.8357 0
    endloop
  endfacet
  facet normal 0 0 -1
    outer loop
      vertex -30 0 0
      vertex -35.2133 -7.48482 0
      vertex -29.3444 6.23735 0
    endloop
  endfacet
  facet normal 0 0 -1
    outer loop
      vertex -24.2705 17.6336 0
      vertex -18 31.1769 0
      vertex -20.0739 22.2943 0
    endloop
  endfacet
  facet normal 0 0 -1
    outer loop
      vertex 3.13585 29.8357 0
      vertex 11.1246 34.238 0
      vertex 9.27051 28.5317 0
    endloop
  endfacet
  facet normal 0 0 -1
    outer loop
      vertex 9.27051 28.5317 0
      vertex 18 31.1769 0
      vertex 15 25.9808 0
    endloop
  endfacet
  facet normal 0 0 -1
    outer loop
      vertex 15 25.9808 0
      vertex 24.0887 26.7532 0
      vertex 20.0739 22.2943 0
    endloop
  endfacet
  facet normal 0 0 -1
    outer loop
      vertex 20.0739 22.2943 0
      vertex 29.1246 21.1603 0
      vertex 24.2705 17.6336 0
    endloop
  endfacet
  facet normal 0 0 -1
    outer loop
      vertex 24.2705 17.6336 0
      vertex 32.8876 14.6425 0
      vertex 27.4064 12.2021 0
    endloop
  endfacet
  facet normal -0.994522 0.104528 0
    outer loop
      vertex -36 0 0
      vertex -36 0 3
      vertex -35.2133 7.48482 0
    endloop
  endfacet
  facet normal -0.994522 0.104528 0
    outer loop
      vertex -35.2133 7.48482 0
      vertex -36 0 3
      vertex -35.2133 7.48482 3
    endloop
  endfacet
  facet normal -0.994522 -0.104528 0
    outer loop
      vertex -36 0 0
      vertex -35.2133 -7.48482 0
      vertex -36 0 3
    endloop
  endfacet
  facet normal -0.994522 -0.104528 0
    outer loop
      vertex -36 0 3
      vertex -35.2133 -7.48482 0
      vertex -35.2133 -7.48482 3
    endloop
  endfacet
  facet normal -0.951056 -0.309017 0
    outer loop
      vertex -35.2133 -7.48482 0
      vertex -32.8876 -14.6425 0
      vertex -35.2133 -7.48482 3
    endloop
  endfacet
  facet normal -0.951056 -0.309017 0
    outer loop
      vertex -35.2133 -7.48482 3
      vertex -32.8876 -14.6425 0
      vertex -32.8876 -14.6425 3
    endloop
  endfacet
  facet normal -0.866025 -0.5 0
    outer loop
      vertex -32.8876 -14.6425 0
      vertex -29.1246 -21.1603 0
      vertex -32.8876 -14.6425 3
    endloop
  endfacet
  facet normal -0.866025 -0.5 0
    outer loop
      vertex -32.8876 -14.6425 3
      vertex -29.1246 -21.1603 0
      vertex -29.1246 -21.1603 3
    endloop
  endfacet
  facet normal -0.743145 -0.669131 0
    outer loop
      vertex -29.1246 -21.1603 0
      vertex -24.0887 -26.7532 0
      vertex -29.1246 -21.1603 3
    endloop
  endfacet
  facet normal -0.743145 -0.669131 0
    outer loop
      vertex -29.1246 -21.1603 3
      vertex -24.0887 -26.7532 0
      vertex -24.0887 -26.7532 3
    endloop
  endfacet
  facet normal -0.587785 -0.809017 0
    outer loop
      vertex -24.0887 -26.7532 3
      vertex -24.0887 -26.7532 0
      vertex -18 -31.1769 0
    endloop
  endfacet
  facet normal -0.587785 -0.809017 0
    outer loop
      vertex -18 -31.1769 3
      vertex -24.0887 -26.7532 3
      vertex -18 -31.1769 0
    endloop
  endfacet
  facet normal -0.406737 -0.913545 0
    outer loop
      vertex -18 -31.1769 3
      vertex -18 -31.1769 0
      vertex -11.1246 -34.238 0
    endloop
  endfacet
  facet normal -0.406737 -0.913545 0
    outer loop
      vertex -11.1246 -34.238 3
      vertex -18 -31.1769 3
      vertex -11.1246 -34.238 0
    endloop
  endfacet
  facet normal -0.207912 -0.978148 0
    outer loop
      vertex -11.1246 -34.238 3
      vertex -11.1246 -34.238 0
      vertex -3.76302 -35.8028 0
    endloop
  endfacet
  facet normal -0.207912 -0.978148 0
    outer loop
      vertex -3.76302 -35.8028 3
      vertex -11.1246 -34.238 3
      vertex -3.76302 -35.8028 0
    endloop
  endfacet
  facet normal 0 -1 0
    outer loop
      vertex -3.76302 -35.8028 3
      vertex -3.76302 -35.8028 0
      vertex 3.76302 -35.8028 0
    endloop
  endfacet
  facet normal 0 -1 0
    outer loop
      vertex 3.76302 -35.8028 3
      vertex -3.76302 -35.8028 3
      vertex 3.76302 -35.8028 0
    endloop
  endfacet
  facet normal 0.207912 -0.978148 0
    outer loop
      vertex 3.76302 -35.8028 3
      vertex 3.76302 -35.8028 0
      vertex 11.1246 -34.238 0
    endloop
  endfacet
  facet normal 0.207912 -0.978148 0
    outer loop
      vertex 11.1246 -34.238 3
      vertex 3.76302 -35.8028 3
      vertex 11.1246 -34.238 0
    endloop
  endfacet
  facet normal 0.406737 -0.913545 0
    outer loop
      vertex 11.1246 -34.238 3
      vertex 11.1246 -34.238 0
      vertex 18 -31.1769 0
    endloop
  endfacet
  facet normal 0.406737 -0.913545 0
    outer loop
      vertex 18 -31.1769 3
      vertex 11.1246 -34.238 3
      vertex 18 -31.1769 0
    endloop
  endfacet
  facet normal 0.587785 -0.809017 0
    outer loop
      vertex 18 -31.1769 3
      vertex 18 -31.1769 0
      vertex 24.0887 -26.7532 0
    endloop
  endfacet
  facet normal 0.587785 -0.809017 0
    outer loop
      vertex 24.0887 -26.7532 3
      vertex 18 -31.1769 3
      vertex 24.0887 -26.7532 0
    endloop
  endfacet
  facet normal 0.743145 -0.669131 0
    outer loop
      vertex 24.0887 -26.7532 3
      vertex 24.0887 -26.7532 0
      vertex 29.1246 -21.1603 0
    endloop
  endfacet
  facet normal 0.743145 -0.669131 0
    outer loop
      vertex 29.1246 -21.1603 3
      vertex 24.0887 -26.7532 3
      vertex 29.1246 -21.1603 0
    endloop
  endfacet
  facet normal 0.866025 -0.5 0
    outer loop
      vertex 29.1246 -21.1603 3
      vertex 29.1246 -21.1603 0
      vertex 32.8876 -14.6425 0
    endloop
  endfacet
  facet normal 0.866025 -0.5 0
    outer loop
      vertex 32.8876 -14.6425 3
      vertex 29.1246 -21.1603 3
      vertex 32.8876 -14.6425 0
    endloop
  endfacet
  facet normal 0.951056 -0.309017 0
    outer loop
      vertex 32.8876 -14.6425 3
      vertex 32.8876 -14.6425 0
      vertex 35.2133 -7.48482 0
    endloop
  endfacet
  facet normal 0.951056 -0.309017 0
    outer loop
      vertex 35.2133 -7.48482 3
      vertex 32.8876 -14.6425 3
      vertex 35.2133 -7.48482 0
    endloop
  endfacet
  facet normal 0.994522 -0.104528 0
    outer loop
      vertex 35.2133 -7.48482 3
      vertex 35.2133 -7.48482 0
      vertex 36 0 0
    endloop
  endfacet
  facet normal 0.994522 -0.104528 0
    outer loop
      vertex 36 0 3
      vertex 35.2133 -7.48482 3
      vertex 36 0 0
    endloop
  endfacet
  facet normal 0.994522 0.104528 0
    outer loop
      vertex 36 0 0
      vertex 35.2133 7.48482 0
      vertex 35.2133 7.48482 3
    endloop
  endfacet
  facet normal 0.994522 0.104528 0
    outer loop
      vertex 36 0 3
      vertex 36 0 0
      vertex 35.2133 7.48482 3
    endloop
  endfacet
  facet normal 0.951056 0.309017 0
    outer loop
      vertex 35.2133 7.48482 0
      vertex 32.8876 14.6425 0
      vertex 32.8876 14.6425 3
    endloop
  endfacet
  facet normal 0.951056 0.309017 0
    outer loop
      vertex 35.2133 7.48482 3
      vertex 35.2133 7.48482 0
      vertex 32.8876 14.6425 3
    endloop
  endfacet
  facet normal 0.866025 0.5 0
    outer loop
      vertex 32.8876 14.6425 0
      vertex 29.1246 21.1603 0
      vertex 29.1246 21.1603 3
    endloop
  endfacet
  facet normal 0.866025 0.5 0
    outer loop
      vertex 32.8876 14.6425 3
      vertex 32.8876 14.6425 0
      vertex 29.1246 21.1603 3
    endloop
  endfacet
  facet normal 0.743145 0.669131 0
    outer loop
      vertex 29.1246 21.1603 0
      vertex 24.0887 26.7532 0
      vertex 24.0887 26.7532 3
    endloop
  endfacet
  facet normal 0.743145 0.669131 0
    outer loop
      vertex 29.1246 21.1603 3
      vertex 29.1246 21.1603 0
      vertex 24.0887 26.7532 3
    endloop
  endfacet
  facet normal 0.587785 0.809017 0
    outer loop
      vertex 18 31.1769 0
      vertex 18 31.1769 3
      vertex 24.0887 26.7532 0
    endloop
  endfacet
  facet normal 0.587785 0.809017 0
    outer loop
      vertex 24.0887 26.7532 0
      vertex 18 31.1769 3
      vertex 24.0887 26.7532 3
    endloop
  endfacet
  facet normal 0.406737 0.913545 0
    outer loop
      vertex 11.1246 34.238 0
      vertex 11.1246 34.238 3
      vertex 18 31.1769 0
    endloop
  endfacet
  facet normal 0.406737 0.913545 0
    outer loop
      vertex 18 31.1769 0
      vertex 11.1246 34.238 3
      vertex 18 31.1769 3
    endloop
  endfacet
  facet normal 0.207912 0.978148 0
    outer loop
      vertex 3.76302 35.8028 0
      vertex 3.76302 35.8028 3
      vertex 11.1246 34.238 0
    endloop
  endfacet
  facet normal 0.207912 0.978148 0
    outer loop
      vertex 11.1246 34.238 0
      vertex 3.76302 35.8028 3
      vertex 11.1246 34.238 3
    endloop
  endfacet
  facet normal 0 1 0
    outer loop
      vertex -3.76302 35.8028 0
      vertex -3.76302 35.8028 3
      vertex 3.76302 35.8028 0
    endloop
  endfacet
  facet normal 0 1 0
    outer loop
      vertex 3.76302 35.8028 0
      vertex -3.76302 35.8028 3
      vertex 3.76302 35.8028 3
    endloop
  endfacet
  facet normal -0.207912 0.978148 0
    outer loop
      vertex -11.1246 34.238 0
      vertex -11.1246 34.238 3
      vertex -3.76302 35.8028 0
    endloop
  endfacet
  facet normal -0.207912 0.978148 0
    outer loop
      vertex -3.76302 35.8028 0
      vertex -11.1246 34.238 3
      vertex -3.76302 35.8028 3
    endloop
  endfacet
  facet normal -0.406737 0.913545 0
    outer loop
      vertex -18 31.1769 0
      vertex -18 31.1769 3
      vertex -11.1246 34.238 0
    endloop
  endfacet
  facet normal -0.406737 0.913545 0
    outer loop
      vertex -11.1246 34.238 0
      vertex -18 31.1769 3
      vertex -11.1246 34.238 3
    endloop
  endfacet
  facet normal -0.587785 0.809017 0
    outer loop
      vertex -24.0887 26.7532 0
      vertex -24.0887 26.7532 3
      vertex -18 31.1769 0
    endloop
  endfacet
  facet normal -0.587785 0.809017 0
    outer loop
      vertex -18 31.1769 0
      vertex -24.0887 26.7532 3
      vertex -18 31.1769 3
    endloop
  endfacet
  facet normal -0.743145 0.669131 0
    outer loop
      vertex -29.1246 21.1603 0
      vertex -29.1246 21.1603 3
      vertex -24.0887 26.7532 0
    endloop
  endfacet
  facet normal -0.743145 0.669131 0
    outer loop
      vertex -24.0887 26.7532 0
      vertex -29.1246 21.1603 3
      vertex -24.0887 26.7532 3
    endloop
  endfacet
  facet normal -0.866025 0.5 0
    outer loop
      vertex -32.8876 14.6425 0
      vertex -32.8876 14.6425 3
      vertex -29.1246 21.1603 0
    endloop
  endfacet
  facet normal -0.866025 0.5 0
    outer loop
      vertex -29.1246 21.1603 0
      vertex -32.8876 14.6425 3
      vertex -29.1246 21.1603 3
    endloop
  endfacet
  facet normal -0.951056 0.309017 0
    outer loop
      vertex -35.2133 7.48482 0
      vertex -35.2133 7.48482 3
      vertex -32.8876 14.6425 0
    endloop
  endfacet
  facet normal -0.951056 0.309017 0
    outer loop
      vertex -32.8876 14.6425 0
      vertex -35.2133 7.48482 3
      vertex -32.8876 14.6425 3
    endloop
  endfacet
  facet normal 0.994522 0.104528 0
    outer loop
      vertex -30 0 3
      vertex -29.3444 -6.23735 3
      vertex -29.3444 -6.23735 0
    endloop
  endfacet
  facet normal 0.994522 0.104528 0
    outer loop
      vertex -30 0 0
      vertex -30 0 3
      vertex -29.3444 -6.23735 0
    endloop
  endfacet
  facet normal 0.994522 -0.104528 0
    outer loop
      vertex -29.3444 6.23735 0
      vertex -29.3444 6.23735 3
      vertex -30 0 3
    endloop
  endfacet
  facet normal 0.994522 -0.104528 0
    outer loop
      vertex -30 0 0
      vertex -29.3444 6.23735 0
      vertex -30 0 3
    endloop
  endfacet
  facet normal 0.951057 -0.309017 0
    outer loop
      vertex -27.4064 12.2021 0
      vertex -27.4064 12.2021 3
      vertex -29.3444 6.23735 3
    endloop
  endfacet
  facet normal 0.951057 -0.309017 0
    outer loop
      vertex -29.3444 6.23735 0
      vertex -27.4064 12.2021 0
      vertex -29.3444 6.23735 3
    endloop
  endfacet
  facet normal 0.866025 -0.5 0
    outer loop
      vertex -24.2705 17.6336 0
      vertex -24.2705 17.6336 3
      vertex -27.4064 12.2021 3
    endloop
  endfacet
  facet normal 0.866025 -0.5 0
    outer loop
      vertex -27.4064 12.2021 0
      vertex -24.2705 17.6336 0
      vertex -27.4064 12.2021 3
    endloop
  endfacet
  facet normal 0.743145 -0.669131 0
    outer loop
      vertex -20.0739 22.2943 0
      vertex -20.0739 22.2943 3
      vertex -24.2705 17.6336 3
    endloop
  endfacet
  facet normal 0.743145 -0.669131 0
    outer loop
      vertex -24.2705 17.6336 0
      vertex -20.0739 22.2943 0
      vertex -24.2705 17.6336 3
    endloop
  endfacet
  facet normal 0.587785 -0.809017 0
    outer loop
      vertex -15 25.9808 0
      vertex -15 25.9808 3
      vertex -20.0739 22.2943 3
    endloop
  endfacet
  facet normal 0.587785 -0.809017 0
    outer loop
      vertex -20.0739 22.2943 0
      vertex -15 25.9808 0
      vertex -20.0739 22.2943 3
    endloop
  endfacet
  facet normal 0.406737 -0.913545 0
    outer loop
      vertex -9.27051 28.5317 0
      vertex -9.27051 28.5317 3
      vertex -15 25.9808 3
    endloop
  endfacet
  facet normal 0.406737 -0.913545 0
    outer loop
      vertex -15 25.9808 0
      vertex -9.27051 28.5317 0
      vertex -15 25.9808 3
    endloop
  endfacet
  facet normal 0.207912 -0.978148 0
    outer loop
      vertex -3.13585 29.8357 0
      vertex -3.13585 29.8357 3
      vertex -9.27051 28.5317 3
    endloop
  endfacet
  facet normal 0.207912 -0.978148 0
    outer loop
      vertex -9.27051 28.5317 0
      vertex -3.13585 29.8357 0
      vertex -9.27051 28.5317 3
    endloop
  endfacet
  facet normal 0 -1 0
    outer loop
      vertex 3.13585 29.8357 0
      vertex 3.13585 29.8357 3
      vertex -3.13585 29.8357 3
    endloop
  endfacet
  facet normal 0 -1 0
    outer loop
      vertex -3.13585 29.8357 0
      vertex 3.13585 29.8357 0
      vertex -3.13585 29.8357 3
    endloop
  endfacet
  facet normal -0.207912 -0.978148 0
    outer loop
      vertex 9.27051 28.5317 0
      vertex 9.27051 28.5317 3
      vertex 3.13585 29.8357 3
    endloop
  endfacet
  facet normal -0.207912 -0.978148 0
    outer loop
      vertex 3.13585 29.8357 0
      vertex 9.27051 28.5317 0
      vertex 3.13585 29.8357 3
    endloop
  endfacet
  facet normal -0.406737 -0.913545 0
    outer loop
      vertex 15 25.9808 0
      vertex 15 25.9808 3
      vertex 9.27051 28.5317 3
    endloop
  endfacet
  facet normal -0.406737 -0.913545 0
    outer loop
      vertex 9.27051 28.5317 0
      vertex 15 25.9808 0
      vertex 9.27051 28.5317 3
    endloop
  endfacet
  facet normal -0.587785 -0.809017 0
    outer loop
      vertex 20.0739 22.2943 0
      vertex 20.0739 22.2943 3
      vertex 15 25.9808 3
    endloop
  endfacet
  facet normal -0.587785 -0.809017 0
    outer loop
      vertex 15 25.9808 0
      vertex 20.0739 22.2943 0
      vertex 15 25.9808 3
    endloop
  endfacet
  facet normal -0.743145 -0.669131 0
    outer loop
      vertex 24.2705 17.6336 3
      vertex 20.0739 22.2943 3
      vertex 24.2705 17.6336 0
    endloop
  endfacet
  facet normal -0.743145 -0.669131 0
    outer loop
      vertex 24.2705 17.6336 0
      vertex 20.0739 22.2943 3
      vertex 20.0739 22.2943 0
    endloop
  endfacet
  facet normal -0.866025 -0.5 0
    outer loop
      vertex 27.4064 12.2021 3
      vertex 24.2705 17.6336 3
      vertex 27.4064 12.2021 0
    endloop
  endfacet
  facet normal -0.866025 -0.5 0
    outer loop
      vertex 27.4064 12.2021 0
      vertex 24.2705 17.6336 3
      vertex 24.2705 17.6336 0
    endloop
  endfacet
  facet normal -0.951057 -0.309017 0
    outer loop
      vertex 29.3444 6.23735 3
      vertex 27.4064 12.2021 3
      vertex 29.3444 6.23735 0
    endloop
  endfacet
  facet normal -0.951057 -0.309017 0
    outer loop
      vertex 29.3444 6.23735 0
      vertex 27.4064 12.2021 3
      vertex 27.4064 12.2021 0
    endloop
  endfacet
  facet normal -0.994522 -0.104528 0
    outer loop
      vertex 30 0 3
      vertex 29.3444 6.23735 3
      vertex 30 0 0
    endloop
  endfacet
  facet normal -0.994522 -0.104528 0
    outer loop
      vertex 30 0 0
      vertex 29.3444 6.23735 3
      vertex 29.3444 6.23735 0
    endloop
  endfacet
  facet normal -0.994522 0.104528 0
    outer loop
      vertex 30 0 3
      vertex 30 0 0
      vertex 29.3444 -6.23735 3
    endloop
  endfacet
  facet normal -0.994522 0.104528 0
    outer loop
      vertex 29.3444 -6.23735 3
      vertex 30 0 0
      vertex 29.3444 -6.23735 0
    endloop
  endfacet
  facet normal -0.951057 0.309017 0
    outer loop
      vertex 29.3444 -6.23735 3
      vertex 29.3444 -6.23735 0
      vertex 27.4064 -12.2021 3
    endloop
  endfacet
  facet normal -0.951057 0.309017 0
    outer loop
      vertex 27.4064 -12.2021 3
      vertex 29.3444 -6.23735 0
      vertex 27.4064 -12.2021 0
    endloop
  endfacet
  facet normal -0.866025 0.5 0
    outer loop
      vertex 27.4064 -12.2021 3
      vertex 27.4064 -12.2021 0
      vertex 24.2705 -17.6336 3
    endloop
  endfacet
  facet normal -0.866025 0.5 0
    outer loop
      vertex 24.2705 -17.6336 3
      vertex 27.4064 -12.2021 0
      vertex 24.2705 -17.6336 0
    endloop
  endfacet
  facet normal -0.743145 0.669131 0
    outer loop
      vertex 24.2705 -17.6336 3
      vertex 24.2705 -17.6336 0
      vertex 20.0739 -22.2943 3
    endloop
  endfacet
  facet normal -0.743145 0.669131 0
    outer loop
      vertex 20.0739 -22.2943 3
      vertex 24.2705 -17.6336 0
      vertex 20.0739 -22.2943 0
    endloop
  endfacet
  facet normal -0.587785 0.809017 0
    outer loop
      vertex 20.0739 -22.2943 3
      vertex 20.0739 -22.2943 0
      vertex 15 -25.9808 3
    endloop
  endfacet
  facet normal -0.587785 0.809017 0
    outer loop
      vertex 15 -25.9808 3
      vertex 20.0739 -22.2943 0
      vertex 15 -25.9808 0
    endloop
  endfacet
  facet normal -0.406737 0.913545 0
    outer loop
      vertex 15 -25.9808 3
      vertex 15 -25.9808 0
      vertex 9.27051 -28.5317 3
    endloop
  endfacet
  facet normal -0.406737 0.913545 0
    outer loop
      vertex 9.27051 -28.5317 3
      vertex 15 -25.9808 0
      vertex 9.27051 -28.5317 0
    endloop
  endfacet
  facet normal -0.207912 0.978148 0
    outer loop
      vertex 9.27051 -28.5317 3
      vertex 9.27051 -28.5317 0
      vertex 3.13585 -29.8357 3
    endloop
  endfacet
  facet normal -0.207912 0.978148 0
    outer loop
      vertex 3.13585 -29.8357 3
      vertex 9.27051 -28.5317 0
      vertex 3.13585 -29.8357 0
    endloop
  endfacet
  facet normal 0 1 0
    outer loop
      vertex 3.13585 -29.8357 3
      vertex 3.13585 -29.8357 0
      vertex -3.13585 -29.8357 3
    endloop
  endfacet
  facet normal 0 1 0
    outer loop
      vertex -3.13585 -29.8357 3
      vertex 3.13585 -29.8357 0
      vertex -3.13585 -29.8357 0
    endloop
  endfacet
  facet normal 0.207912 0.978148 0
    outer loop
      vertex -3.13585 -29.8357 3
      vertex -3.13585 -29.8357 0
      vertex -9.27051 -28.5317 3
    endloop
  endfacet
  facet normal 0.207912 0.978148 0
    outer loop
      vertex -9.27051 -28.5317 3
      vertex -3.13585 -29.8357 0
      vertex -9.27051 -28.5317 0
    endloop
  endfacet
  facet normal 0.406737 0.913545 0
    outer loop
      vertex -9.27051 -28.5317 3
      vertex -9.27051 -28.5317 0
      vertex -15 -25.9808 3
    endloop
  endfacet
  facet normal 0.406737 0.913545 0
    outer loop
      vertex -15 -25.9808 3
      vertex -9.27051 -28.5317 0
      vertex -15 -25.9808 0
    endloop
  endfacet
  facet normal 0.587785 0.809017 0
    outer loop
      vertex -15 -25.9808 3
      vertex -15 -25.9808 0
      vertex -20.0739 -22.2943 3
    endloop
  endfacet
  facet normal 0.587785 0.809017 0
    outer loop
      vertex -20.0739 -22.2943 3
      vertex -15 -25.9808 0
      vertex -20.0739 -22.2943 0
    endloop
  endfacet
  facet normal 0.743145 0.669131 0
    outer loop
      vertex -24.2705 -17.6336 3
      vertex -20.0739 -22.2943 3
      vertex -20.0739 -22.2943 0
    endloop
  endfacet
  facet normal 0.743145 0.669131 0
    outer loop
      vertex -24.2705 -17.6336 0
      vertex -24.2705 -17.6336 3
      vertex -20.0739 -22.2943 0
    endloop
  endfacet
  facet normal 0.866025 0.5 0
    outer loop
      vertex -27.4064 -12.2021 3
      vertex -24.2705 -17.6336 3
      vertex -24.2705 -17.6336 0
    endloop
  endfacet
  facet normal 0.866025 0.5 0
    outer loop
      vertex -27.4064 -12.2021 0
      vertex -27.4064 -12.2021 3
      vertex -24.2705 -17.6336 0
    endloop
  endfacet
  facet normal 0.951057 0.309017 0
    outer loop
      vertex -29.3444 -6.23735 3
      vertex -27.4064 -12.2021 3
      vertex -27.4064 -12.2021 0
    endloop
  endfacet
  facet normal 0.951057 0.309017 0
    outer loop
      vertex -29.3444 -6.23735 0
      vertex -29.3444 -6.23735 3
      vertex -27.4064 -12.2021 0
    endloop
  endfacet
  facet normal 0 0 1
    outer loop
      vertex -35.2133 7.48482 3
      vertex -36 0 3
      vertex -35.2133 -7.48482 3
    endloop
  endfacet
  facet normal 0 0 1
    outer loop
      vertex -29.1246 -21.1603 3
      vertex -35.2133 7.48482 3
      vertex -32.8876 -14.6425 3
    endloop
  endfacet
  facet normal 0 0 1
    outer loop
      vertex -32.8876 -14.6425 3
      vertex -35.2133 7.48482 3
      vertex -35.2133 -7.48482 3
    endloop
  endfacet
  facet normal 0 0 1
    outer loop
      vertex -24.0887 -26.7532 3
      vertex -35.2133 7.48482 3
      vertex -29.1246 -21.1603 3
    endloop
  endfacet
  facet normal 0 0 1
    outer loop
      vertex -29.3444 -6.23735 3
      vertex -35.2133 7.48482 3
      vertex -24.0887 -26.7532 3
    endloop
  endfacet
  facet normal 0 0 1
    outer loop
      vertex 24.2705 -17.6336 3
      vertex 20.0739 -22.2943 3
      vertex 29.1246 -21.1603 3
    endloop
  endfacet
  facet normal 0 0 1
    outer loop
      vertex -29.3444 6.23735 3
      vertex -27.4064 12.2021 3
      vertex -35.2133 7.48482 3
    endloop
  endfacet
  facet normal 0 0 1
    outer loop
      vertex -3.13585 -29.8357 3
      vertex -9.27051 -28.5317 3
      vertex -3.76302 -35.8028 3
    endloop
  endfacet
  facet normal 0 0 1
    outer loop
      vertex 27.4064 12.2021 3
      vertex 29.3444 6.23735 3
      vertex 35.2133 7.48482 3
    endloop
  endfacet
  facet normal 0 0 1
    outer loop
      vertex 24.2705 17.6336 3
      vertex 27.4064 12.2021 3
      vertex 32.8876 14.6425 3
    endloop
  endfacet
  facet normal 0 0 1
    outer loop
      vertex 20.0739 22.2943 3
      vertex 24.2705 17.6336 3
      vertex 29.1246 21.1603 3
    endloop
  endfacet
  facet normal 0 0 1
    outer loop
      vertex 3.13585 29.8357 3
      vertex 9.27051 28.5317 3
      vertex 11.1246 34.238 3
    endloop
  endfacet
  facet normal 0 0 1
    outer loop
      vertex -9.27051 28.5317 3
      vertex -3.13585 29.8357 3
      vertex 3.76302 35.8028 3
    endloop
  endfacet
  facet normal 0 0 1
    outer loop
      vertex -18 31.1769 3
      vertex -35.2133 7.48482 3
      vertex -11.1246 34.238 3
    endloop
  endfacet
  facet normal 0 0 1
    outer loop
      vertex -24.0887 26.7532 3
      vertex -35.2133 7.48482 3
      vertex -18 31.1769 3
    endloop
  endfacet
  facet normal 0 0 1
    outer loop
      vertex -29.1246 21.1603 3
      vertex -35.2133 7.48482 3
      vertex -24.0887 26.7532 3
    endloop
  endfacet
  facet normal 0 0 1
    outer loop
      vertex -32.8876 14.6425 3
      vertex -35.2133 7.48482 3
      vertex -29.1246 21.1603 3
    endloop
  endfacet
  facet normal 0 0 1
    outer loop
      vertex -27.4064 -12.2021 3
      vertex -29.3444 -6.23735 3
      vertex -24.0887 -26.7532 3
    endloop
  endfacet
  facet normal 0 0 1
    outer loop
      vertex 27.4064 -12.2021 3
      vertex 24.2705 -17.6336 3
      vertex 32.8876 -14.6425 3
    endloop
  endfacet
  facet normal 0 0 1
    outer loop
      vertex 9.27051 28.5317 3
      vertex 15 25.9808 3
      vertex 18 31.1769 3
    endloop
  endfacet
  facet normal 0 0 1
    outer loop
      vertex -11.1246 34.238 3
      vertex -35.2133 7.48482 3
      vertex -24.2705 17.6336 3
    endloop
  endfacet
  facet normal 0 0 1
    outer loop
      vertex -11.1246 34.238 3
      vertex -20.0739 22.2943 3
      vertex -3.76302 35.8028 3
    endloop
  endfacet
  facet normal 0 0 1
    outer loop
      vertex -11.1246 34.238 3
      vertex -24.2705 17.6336 3
      vertex -20.0739 22.2943 3
    endloop
  endfacet
  facet normal 0 0 1
    outer loop
      vertex -20.0739 22.2943 3
      vertex -15 25.9808 3
      vertex -3.76302 35.8028 3
    endloop
  endfacet
  facet normal 0 0 1
    outer loop
      vertex -3.76302 35.8028 3
      vertex -9.27051 28.5317 3
      vertex 3.76302 35.8028 3
    endloop
  endfacet
  facet normal 0 0 1
    outer loop
      vertex -15 25.9808 3
      vertex -9.27051 28.5317 3
      vertex -3.76302 35.8028 3
    endloop
  endfacet
  facet normal 0 0 1
    outer loop
      vertex 3.76302 35.8028 3
      vertex -3.13585 29.8357 3
      vertex 11.1246 34.238 3
    endloop
  endfacet
  facet normal 0 0 1
    outer loop
      vertex -3.13585 29.8357 3
      vertex 3.13585 29.8357 3
      vertex 11.1246 34.238 3
    endloop
  endfacet
  facet normal 0 0 1
    outer loop
      vertex 11.1246 34.238 3
      vertex 9.27051 28.5317 3
      vertex 18 31.1769 3
    endloop
  endfacet
  facet normal 0 0 1
    outer loop
      vertex 29.3444 6.23735 3
      vertex 30 0 3
      vertex 36 0 3
    endloop
  endfacet
  facet normal 0 0 1
    outer loop
      vertex 18 31.1769 3
      vertex 15 25.9808 3
      vertex 24.0887 26.7532 3
    endloop
  endfacet
  facet normal 0 0 1
    outer loop
      vertex -27.4064 12.2021 3
      vertex -24.2705 17.6336 3
      vertex -35.2133 7.48482 3
    endloop
  endfacet
  facet normal 0 0 1
    outer loop
      vertex 24.0887 26.7532 3
      vertex 20.0739 22.2943 3
      vertex 29.1246 21.1603 3
    endloop
  endfacet
  facet normal 0 0 1
    outer loop
      vertex 29.1246 21.1603 3
      vertex 24.2705 17.6336 3
      vertex 32.8876 14.6425 3
    endloop
  endfacet
  facet normal 0 0 1
    outer loop
      vertex 32.8876 14.6425 3
      vertex 27.4064 12.2021 3
      vertex 35.2133 7.48482 3
    endloop
  endfacet
  facet normal 0 0 1
    outer loop
      vertex 35.2133 7.48482 3
      vertex 29.3444 6.23735 3
      vertex 36 0 3
    endloop
  endfacet
  facet normal 0 0 1
    outer loop
      vertex 36 0 3
      vertex 30 0 3
      vertex 35.2133 -7.48482 3
    endloop
  endfacet
  facet normal 0 0 1
    outer loop
      vertex 35.2133 -7.48482 3
      vertex 29.3444 -6.23735 3
      vertex 32.8876 -14.6425 3
    endloop
  endfacet
  facet normal 0 0 1
    outer loop
      vertex 15 25.9808 3
      vertex 20.0739 22.2943 3
      vertex 24.0887 26.7532 3
    endloop
  endfacet
  facet normal 0 0 1
    outer loop
      vertex 29.3444 -6.23735 3
      vertex 27.4064 -12.2021 3
      vertex 32.8876 -14.6425 3
    endloop
  endfacet
  facet normal 0 0 1
    outer loop
      vertex 32.8876 -14.6425 3
      vertex 24.2705 -17.6336 3
      vertex 29.1246 -21.1603 3
    endloop
  endfacet
  facet normal 0 0 1
    outer loop
      vertex 29.1246 -21.1603 3
      vertex 20.0739 -22.2943 3
      vertex 24.0887 -26.7532 3
    endloop
  endfacet
  facet normal 0 0 1
    outer loop
      vertex 24.0887 -26.7532 3
      vertex 15 -25.9808 3
      vertex 18 -31.1769 3
    endloop
  endfacet
  facet normal 0 0 1
    outer loop
      vertex 18 -31.1769 3
      vertex 9.27051 -28.5317 3
      vertex 11.1246 -34.238 3
    endloop
  endfacet
  facet normal 0 0 1
    outer loop
      vertex 11.1246 -34.238 3
      vertex 3.13585 -29.8357 3
      vertex 3.76302 -35.8028 3
    endloop
  endfacet
  facet normal 0 0 1
    outer loop
      vertex 30 0 3
      vertex 29.3444 -6.23735 3
      vertex 35.2133 -7.48482 3
    endloop
  endfacet
  facet normal 0 0 1
    outer loop
      vertex 3.76302 -35.8028 3
      vertex -3.13585 -29.8357 3
      vertex -3.76302 -35.8028 3
    endloop
  endfacet
  facet normal 0 0 1
    outer loop
      vertex -3.76302 -35.8028 3
      vertex -9.27051 -28.5317 3
      vertex -11.1246 -34.238 3
    endloop
  endfacet
  facet normal 0 0 1
    outer loop
      vertex -9.27051 -28.5317 3
      vertex -15 -25.9808 3
      vertex -11.1246 -34.238 3
    endloop
  endfacet
  facet normal 0 0 1
    outer loop
      vertex -11.1246 -34.238 3
      vertex -20.0739 -22.2943 3
      vertex -18 -31.1769 3
    endloop
  endfacet
  facet normal 0 0 1
    outer loop
      vertex -18 -31.1769 3
      vertex -24.2705 -17.6336 3
      vertex -24.0887 -26.7532 3
    endloop
  endfacet
  facet normal 0 0 1
    outer loop
      vertex -24.2705 -17.6336 3
      vertex -27.4064 -12.2021 3
      vertex -24.0887 -26.7532 3
    endloop
  endfacet
  facet normal 0 0 1
    outer loop
      vertex -29.3444 -6.23735 3
      vertex -30 0 3
      vertex -35.2133 7.48482 3
    endloop
  endfacet
  facet normal 0 0 1
    outer loop
      vertex 20.0739 -22.2943 3
      vertex 15 -25.9808 3
      vertex 24.0887 -26.7532 3
    endloop
  endfacet
  facet normal 0 0 1
    outer loop
      vertex 15 -25.9808 3
      vertex 9.27051 -28.5317 3
      vertex 18 -31.1769 3
    endloop
  endfacet
  facet normal 0 0 1
    outer loop
      vertex 9.27051 -28.5317 3
      vertex 3.13585 -29.8357 3
      vertex 11.1246 -34.238 3
    endloop
  endfacet
  facet normal 0 0 1
    outer loop
      vertex 3.13585 -29.8357 3
      vertex -3.13585 -29.8357 3
      vertex 3.76302 -35.8028 3
    endloop
  endfacet
  facet normal 0 0 1
    outer loop
      vertex -20.0739 -22.2943 3
      vertex -24.2705 -17.6336 3
      vertex -18 -31.1769 3
    endloop
  endfacet
  facet normal 0 0 1
    outer loop
      vertex -15 -25.9808 3
      vertex -20.0739 -22.2943 3
      vertex -11.1246 -34.238 3
    endloop
  endfacet
  facet normal 0 0 1
    outer loop
      vertex -30 0 3
      vertex -29.3444 6.23735 3
      vertex -35.2133 7.48482 3
    endloop
  endfacet
endsolid OpenSCAD_Model
