solid OpenSCAD_Model
  facet normal 0 0 -1
    outer loop
      vertex -2.5 0 0
      vertex -1.76777 1.76777 0
      vertex -1.76777 -1.76777 0
    endloop
  endfacet
  facet normal 0 0 -1
    outer loop
      vertex -1.76777 -1.76777 0
      vertex -1.76777 1.76777 0
      vertex 0 2.5 0
    endloop
  endfacet
  facet normal 0 0 -1
    outer loop
      vertex 0 2.5 0
      vertex 0 4.5 0
      vertex 3 4.5 0
    endloop
  endfacet
  facet normal 0 0 -1
    outer loop
      vertex 0 2.5 0
      vertex 3 4.5 0
      vertex -1.76777 -1.76777 0
    endloop
  endfacet
  facet normal 0 0 -1
    outer loop
      vertex 0 -2.5 0
      vertex 3 4.5 0
      vertex 3 -4.5 0
    endloop
  endfacet
  facet normal 0 0 -1
    outer loop
      vertex -1.76777 -1.76777 0
      vertex 3 4.5 0
      vertex 0 -2.5 0
    endloop
  endfacet
  facet normal 0 0 -1
    outer loop
      vertex 0 -2.5 0
      vertex 3 -4.5 0
      vertex 0 -4.5 0
    endloop
  endfacet
  facet normal -0.92388 0.382683 0
    outer loop
      vertex -2.5 0 0
      vertex -2.5 0 12
      vertex -1.76777 1.76777 0
    endloop
  endfacet
  facet normal -0.92388 0.382683 0
    outer loop
      vertex -1.76777 1.76777 0
      vertex -2.5 0 12
      vertex -1.76777 1.76777 12
    endloop
  endfacet
  facet normal -0.92388 -0.382683 0
    outer loop
      vertex -2.5 0 0
      vertex -1.76777 -1.76777 0
      vertex -2.5 0 12
    endloop
  endfacet
  facet normal -0.92388 -0.382683 0
    outer loop
      vertex -2.5 0 12
      vertex -1.76777 -1.76777 0
      vertex -1.76777 -1.76777 12
    endloop
  endfacet
  facet normal -0.382683 -0.92388 0
    outer loop
      vertex -1.76777 -1.76777 12
      vertex -1.76777 -1.76777 0
      vertex 0 -2.5 0
    endloop
  endfacet
  facet normal -0.382683 -0.92388 0
    outer loop
      vertex 0 -2.5 7.2
      vertex -1.76777 -1.76777 12
      vertex 0 -2.5 4.8
    endloop
  endfacet
  facet normal -0.382683 -0.92388 0
    outer loop
      vertex 0 -2.5 4.8
      vertex -1.76777 -1.76777 12
      vertex 0 -2.5 0
    endloop
  endfacet
  facet normal -0.382683 -0.92388 0
    outer loop
      vertex 0 -2.5 12
      vertex -1.76777 -1.76777 12
      vertex 0 -2.5 7.2
    endloop
  endfacet
  facet normal -1 0 0
    outer loop
      vertex 0 -4.5 0
      vertex 0 -4.5 4.8
      vertex 0 -2.5 0
    endloop
  endfacet
  facet normal -1 0 0
    outer loop
      vertex 0 -2.5 0
      vertex 0 -4.5 4.8
      vertex 0 -2.5 4.8
    endloop
  endfacet
  facet normal 0 -1 0
    outer loop
      vertex 0 -4.5 4.8
      vertex 0 -4.5 0
      vertex 3 -4.5 0
    endloop
  endfacet
  facet normal 0 -1 0
    outer loop
      vertex 3 -4.5 4.8
      vertex 0 -4.5 4.8
      vertex 3 -4.5 0
    endloop
  endfacet
  facet normal 1 0 0
    outer loop
      vertex 3 -4.5 4.8
      vertex 3 -4.5 0
      vertex 3 4.5 0
    endloop
  endfacet
  facet normal 1 0 0
    outer loop
      vertex 3 4.5 4.8
      vertex 3 -4.5 4.8
      vertex 3 4.5 0
    endloop
  endfacet
  facet normal 0 1 0
    outer loop
      vertex 0 4.5 0
      vertex 0 4.5 4.8
      vertex 3 4.5 0
    endloop
  endfacet
  facet normal 0 1 0
    outer loop
      vertex 3 4.5 0
      vertex 0 4.5 4.8
      vertex 3 4.5 4.8
    endloop
  endfacet
  facet normal -1 0 0
    outer loop
      vertex 0 2.5 0
      vertex 0 2.5 4.8
      vertex 0 4.5 0
    endloop
  endfacet
  facet normal -1 0 0
    outer loop
      vertex 0 4.5 0
      vertex 0 2.5 4.8
      vertex 0 4.5 4.8
    endloop
  endfacet
  facet normal -0.382683 0.92388 0
    outer loop
      vertex -1.76777 1.76777 0
      vertex -1.76777 1.76777 12
      vertex 0 2.5 0
    endloop
  endfacet
  facet normal -0.382683 0.92388 0
    outer loop
      vertex 0 2.5 7.2
      vertex -1.76777 1.76777 12
      vertex 0 2.5 12
    endloop
  endfacet
  facet normal -0.382683 0.92388 0
    outer loop
      vertex 0 2.5 4.8
      vertex -1.76777 1.76777 12
      vertex 0 2.5 7.2
    endloop
  endfacet
  facet normal -0.382683 0.92388 0
    outer loop
      vertex 0 2.5 0
      vertex -1.76777 1.76777 12
      vertex 0 2.5 4.8
    endloop
  endfacet
  facet normal 0 0 1
    outer loop
      vertex -1.76777 1.76777 12
      vertex -2.5 0 12
      vertex -1.76777 -1.76777 12
    endloop
  endfacet
  facet normal 0 0 1
    outer loop
      vertex 3 -4.5 12
      vertex -1.76777 1.76777 12
      vertex 0 -2.5 12
    endloop
  endfacet
  facet normal 0 0 1
    outer loop
      vertex 0 -2.5 12
      vertex -1.76777 1.76777 12
      vertex -1.76777 -1.76777 12
    endloop
  endfacet
  facet normal 0 0 1
    outer loop
      vertex 3 -4.5 12
      vertex 0 -2.5 12
      vertex 0 -4.5 12
    endloop
  endfacet
  facet normal 0 0 1
    outer loop
      vertex 0 2.5 12
      vertex -1.76777 1.76777 12
      vertex 3 -4.5 12
    endloop
  endfacet
  facet normal 0 0 1
    outer loop
      vertex 3 4.5 12
      vertex 0 2.5 12
      vertex 3 -4.5 12
    endloop
  endfacet
  facet normal 0 0 1
    outer loop
      vertex 0 4.5 12
      vertex 0 2.5 12
      vertex 3 4.5 12
    endloop
  endfacet
  facet normal -1 0 0
    outer loop
      vertex 0 -4.5 7.2
      vertex 0 -4.5 12
      vertex 0 -2.5 7.2
    endloop
  endfacet
  facet normal -1 0 0
    outer loop
      vertex 0 -2.5 7.2
      vertex 0 -4.5 12
      vertex 0 -2.5 12
    endloop
  endfacet
  facet normal 0 0 -1
    outer loop
      vertex 0 -4.5 7.2
      vertex 0 -2.5 7.2
      vertex 3 -4.5 7.2
    endloop
  endfacet
  facet normal 0 0 -1
    outer loop
      vertex 3 -4.5 7.2
      vertex 0 -2.5 7.2
      vertex 1.76777 -1.76777 7.2
    endloop
  endfacet
  facet normal 0 0 -1
    outer loop
      vertex 3 -4.5 7.2
      vertex 1.76777 -1.76777 7.2
      vertex 2.5 0 7.2
    endloop
  endfacet
  facet normal 0 0 -1
    outer loop
      vertex 2.5 0 7.2
      vertex 3 4.5 7.2
      vertex 3 -4.5 7.2
    endloop
  endfacet
  facet normal 0 0 -1
    outer loop
      vertex 1.76777 1.76777 7.2
      vertex 0 2.5 7.2
      vertex 0 4.5 7.2
    endloop
  endfacet
  facet normal 0 0 -1
    outer loop
      vertex 1.76777 1.76777 7.2
      vertex 0 4.5 7.2
      vertex 3 4.5 7.2
    endloop
  endfacet
  facet normal 0 0 -1
    outer loop
      vertex 1.76777 1.76777 7.2
      vertex 3 4.5 7.2
      vertex 2.5 0 7.2
    endloop
  endfacet
  facet normal 0.382683 -0.92388 0
    outer loop
      vertex 0 -2.5 7.2
      vertex 0 -2.5 4.8
      vertex 1.76777 -1.76777 4.8
    endloop
  endfacet
  facet normal 0.382683 -0.92388 0
    outer loop
      vertex 1.76777 -1.76777 7.2
      vertex 0 -2.5 7.2
      vertex 1.76777 -1.76777 4.8
    endloop
  endfacet
  facet normal 0 0 1
    outer loop
      vertex 0 -2.5 4.8
      vertex 0 -4.5 4.8
      vertex 3 -4.5 4.8
    endloop
  endfacet
  facet normal 0 0 1
    outer loop
      vertex 1.76777 -1.76777 4.8
      vertex 0 -2.5 4.8
      vertex 3 -4.5 4.8
    endloop
  endfacet
  facet normal 0 0 1
    outer loop
      vertex 0 4.5 4.8
      vertex 0 2.5 4.8
      vertex 3 4.5 4.8
    endloop
  endfacet
  facet normal 0 0 1
    outer loop
      vertex 0 2.5 4.8
      vertex 1.76777 1.76777 4.8
      vertex 3 4.5 4.8
    endloop
  endfacet
  facet normal 0 0 1
    outer loop
      vertex 3 4.5 4.8
      vertex 2.5 0 4.8
      vertex 3 -4.5 4.8
    endloop
  endfacet
  facet normal 0 0 1
    outer loop
      vertex 2.5 0 4.8
      vertex 1.76777 -1.76777 4.8
      vertex 3 -4.5 4.8
    endloop
  endfacet
  facet normal 0 0 1
    outer loop
      vertex 1.76777 1.76777 4.8
      vertex 2.5 0 4.8
      vertex 3 4.5 4.8
    endloop
  endfacet
  facet normal 0.382683 0.92388 0
    outer loop
      vertex 0 2.5 4.8
      vertex 0 2.5 7.2
      vertex 1.76777 1.76777 4.8
    endloop
  endfacet
  facet normal 0.382683 0.92388 0
    outer loop
      vertex 1.76777 1.76777 4.8
      vertex 0 2.5 7.2
      vertex 1.76777 1.76777 7.2
    endloop
  endfacet
  facet normal -1 0 0
    outer loop
      vertex 0 2.5 7.2
      vertex 0 2.5 12
      vertex 0 4.5 7.2
    endloop
  endfacet
  facet normal -1 0 0
    outer loop
      vertex 0 4.5 7.2
      vertex 0 2.5 12
      vertex 0 4.5 12
    endloop
  endfacet
  facet normal 0 1 0
    outer loop
      vertex 0 4.5 7.2
      vertex 0 4.5 12
      vertex 3 4.5 7.2
    endloop
  endfacet
  facet normal 0 1 0
    outer loop
      vertex 3 4.5 7.2
      vertex 0 4.5 12
      vertex 3 4.5 12
    endloop
  endfacet
  facet normal 1 0 0
    outer loop
      vertex 3 -4.5 12
      vertex 3 -4.5 7.2
      vertex 3 4.5 7.2
    endloop
  endfacet
  facet normal 1 0 0
    outer loop
      vertex 3 4.5 12
      vertex 3 -4.5 12
      vertex 3 4.5 7.2
    endloop
  endfacet
  facet normal 0 -1 0
    outer loop
      vertex 0 -4.5 12
      vertex 0 -4.5 7.2
      vertex 3 -4.5 7.2
    endloop
  endfacet
  facet normal 0 -1 0
    outer loop
      vertex 3 -4.5 12
      vertex 0 -4.5 12
      vertex 3 -4.5 7.2
    endloop
  endfacet
  facet normal 0.92388 0.382683 0
    outer loop
      vertex 2.5 0 4.8
      vertex 1.76777 1.76777 4.8
      vertex 1.76777 1.76777 7.2
    endloop
  endfacet
  facet normal 0.92388 0.382683 0
    outer loop
      vertex 2.5 0 7.2
      vertex 2.5 0 4.8
      vertex 1.76777 1.76777 7.2
    endloop
  endfacet
  facet normal 0.92388 -0.382683 0
    outer loop
      vertex 1.76777 -1.76777 7.2
      vertex 1.76777 -1.76777 4.8
      vertex 2.5 0 4.8
    endloop
  endfacet
  facet normal 0.92388 -0.382683 0
    outer loop
      vertex 2.5 0 7.2
      vertex 1.76777 -1.76777 7.2
      vertex 2.5 0 4.8
    endloop
  endfacet
endsolid OpenSCAD_Model
