solid OpenSCAD_Model
  facet normal 0 0 -1
    outer loop
      vertex -12 0 0
      vertex -11.7378 2.49494 0
      vertex -11.7378 -2.49494 0
    endloop
  endfacet
  facet normal 0 0 -1
    outer loop
      vertex -11.7378 -2.49494 0
      vertex -11.7378 2.49494 0
      vertex -10.9625 4.88084 0
    endloop
  endfacet
  facet normal 0 0 -1
    outer loop
      vertex -11.7378 -2.49494 0
      vertex -10.9625 4.88084 0
      vertex -9.7082 7.05342 0
    endloop
  endfacet
  facet normal 0 0 -1
    outer loop
      vertex -11.7378 -2.49494 0
      vertex -9.7082 7.05342 0
      vertex -8.02957 8.91774 0
    endloop
  endfacet
  facet normal 0 0 -1
    outer loop
      vertex -11.7378 -2.49494 0
      vertex -8.02957 8.91774 0
      vertex -6 10.3923 0
    endloop
  endfacet
  facet normal 0 0 -1
    outer loop
      vertex -11.7378 -2.49494 0
      vertex -6 10.3923 0
      vertex -3.7082 11.4127 0
    endloop
  endfacet
  facet normal 0 0 -1
    outer loop
      vertex -11.7378 -2.49494 0
      vertex -3.7082 11.4127 0
      vertex -1.25434 11.9343 0
    endloop
  endfacet
  facet normal 0 0 -1
    outer loop
      vertex -11.7378 -2.49494 0
      vertex -1.25434 11.9343 0
      vertex 1.25434 11.9343 0
    endloop
  endfacet
  facet normal 0 0 -1
    outer loop
      vertex -11.7378 -2.49494 0
      vertex 1.25434 11.9343 0
      vertex 3.7082 11.4127 0
    endloop
  endfacet
  facet normal 0 0 -1
    outer loop
      vertex -0.495476 5.97951 0
      vertex 3.7082 11.4127 0
      vertex 6 10.3923 0
    endloop
  endfacet
  facet normal 0 0 -1
    outer loop
      vertex 1.47291 5.8164 0
      vertex 6 10.3923 0
      vertex 8.02957 8.91774 0
    endloop
  endfacet
  facet normal 0 0 -1
    outer loop
      vertex 3.28169 5.023 0
      vertex 8.02957 8.91774 0
      vertex 9.7082 7.05342 0
    endloop
  endfacet
  facet normal 0 0 -1
    outer loop
      vertex 4.73484 3.68528 0
      vertex 9.7082 7.05342 0
      vertex 10.9625 4.88084 0
    endloop
  endfacet
  facet normal 0 0 -1
    outer loop
      vertex 5.6749 1.9482 0
      vertex 10.9625 4.88084 0
      vertex 11.7378 2.49494 0
    endloop
  endfacet
  facet normal 0 0 -1
    outer loop
      vertex 6 0 0
      vertex 11.7378 2.49494 0
      vertex 12 0 0
    endloop
  endfacet
  facet normal 0 0 -1
    outer loop
      vertex 5.6749 -1.9482 0
      vertex 12 0 0
      vertex 11.7378 -2.49494 0
    endloop
  endfacet
  facet normal 0 0 -1
    outer loop
      vertex 4.73484 -3.68528 0
      vertex 11.7378 -2.49494 0
      vertex 10.9625 -4.88084 0
    endloop
  endfacet
  facet normal 0 0 -1
    outer loop
      vertex 3.28169 -5.023 0
      vertex 10.9625 -4.88084 0
      vertex 9.7082 -7.05342 0
    endloop
  endfacet
  facet normal 0 0 -1
    outer loop
      vertex 1.47291 -5.8164 0
      vertex 9.7082 -7.05342 0
      vertex 8.02957 -8.91774 0
    endloop
  endfacet
  facet normal 0 0 -1
    outer loop
      vertex -11.7378 -2.49494 0
      vertex 8.02957 -8.91774 0
      vertex 6 -10.3923 0
    endloop
  endfacet
  facet normal 0 0 -1
    outer loop
      vertex -11.7378 -2.49494 0
      vertex 6 -10.3923 0
      vertex 3.7082 -11.4127 0
    endloop
  endfacet
  facet normal 0 0 -1
    outer loop
      vertex -11.7378 -2.49494 0
      vertex 3.7082 -11.4127 0
      vertex 1.25434 -11.9343 0
    endloop
  endfacet
  facet normal 0 0 -1
    outer loop
      vertex -11.7378 -2.49494 0
      vertex 1.25434 -11.9343 0
      vertex -1.25434 -11.9343 0
    endloop
  endfacet
  facet normal 0 0 -1
    outer loop
      vertex -11.7378 -2.49494 0
      vertex -1.25434 -11.9343 0
      vertex -3.7082 -11.4127 0
    endloop
  endfacet
  facet normal 0 0 -1
    outer loop
      vertex -11.7378 -2.49494 0
      vertex -3.7082 -11.4127 0
      vertex -6 -10.3923 0
    endloop
  endfacet
  facet normal 0 0 -1
    outer loop
      vertex -11.7378 -2.49494 0
      vertex -6 -10.3923 0
      vertex -8.02957 -8.91774 0
    endloop
  endfacet
  facet normal 0 0 -1
    outer loop
      vertex -11.7378 -2.49494 0
      vertex -8.02957 -8.91774 0
      vertex -9.7082 -7.05342 0
    endloop
  endfacet
  facet normal 0 0 -1
    outer loop
      vertex -11.7378 -2.49494 0
      vertex -9.7082 -7.05342 0
      vertex -10.9625 -4.88084 0
    endloop
  endfacet
  facet normal 0 0 -1
    outer loop
      vertex -5.91817 -0.987568 0
      vertex -11.7378 -2.49494 0
      vertex -5.91817 0.987568 0
    endloop
  endfacet
  facet normal 0 0 -1
    outer loop
      vertex -5.27684 -2.85568 0
      vertex -11.7378 -2.49494 0
      vertex -5.91817 -0.987568 0
    endloop
  endfacet
  facet normal 0 0 -1
    outer loop
      vertex -4.06369 -4.41434 0
      vertex -11.7378 -2.49494 0
      vertex -5.27684 -2.85568 0
    endloop
  endfacet
  facet normal 0 0 -1
    outer loop
      vertex 1.47291 -5.8164 0
      vertex 8.02957 -8.91774 0
      vertex -0.495476 -5.97951 0
    endloop
  endfacet
  facet normal 0 0 -1
    outer loop
      vertex -11.7378 -2.49494 0
      vertex -4.06369 -4.41434 0
      vertex -2.41017 -5.49464 0
    endloop
  endfacet
  facet normal 0 0 -1
    outer loop
      vertex -11.7378 -2.49494 0
      vertex -2.41017 -5.49464 0
      vertex 8.02957 -8.91774 0
    endloop
  endfacet
  facet normal 0 0 -1
    outer loop
      vertex -2.41017 -5.49464 0
      vertex -0.495476 -5.97951 0
      vertex 8.02957 -8.91774 0
    endloop
  endfacet
  facet normal 0 0 -1
    outer loop
      vertex 3.28169 -5.023 0
      vertex 9.7082 -7.05342 0
      vertex 1.47291 -5.8164 0
    endloop
  endfacet
  facet normal 0 0 -1
    outer loop
      vertex 5.6749 -1.9482 0
      vertex 11.7378 -2.49494 0
      vertex 4.73484 -3.68528 0
    endloop
  endfacet
  facet normal 0 0 -1
    outer loop
      vertex 4.73484 -3.68528 0
      vertex 10.9625 -4.88084 0
      vertex 3.28169 -5.023 0
    endloop
  endfacet
  facet normal 0 0 -1
    outer loop
      vertex 4.73484 3.68528 0
      vertex 10.9625 4.88084 0
      vertex 5.6749 1.9482 0
    endloop
  endfacet
  facet normal 0 0 -1
    outer loop
      vertex 5.6749 1.9482 0
      vertex 11.7378 2.49494 0
      vertex 6 0 0
    endloop
  endfacet
  facet normal 0 0 -1
    outer loop
      vertex 6 0 0
      vertex 12 0 0
      vertex 5.6749 -1.9482 0
    endloop
  endfacet
  facet normal 0 0 -1
    outer loop
      vertex -0.495476 5.97951 0
      vertex 6 10.3923 0
      vertex 1.47291 5.8164 0
    endloop
  endfacet
  facet normal 0 0 -1
    outer loop
      vertex -2.41017 5.49464 0
      vertex 3.7082 11.4127 0
      vertex -0.495476 5.97951 0
    endloop
  endfacet
  facet normal 0 0 -1
    outer loop
      vertex -4.06369 4.41434 0
      vertex 3.7082 11.4127 0
      vertex -2.41017 5.49464 0
    endloop
  endfacet
  facet normal 0 0 -1
    outer loop
      vertex -11.7378 -2.49494 0
      vertex 3.7082 11.4127 0
      vertex -4.06369 4.41434 0
    endloop
  endfacet
  facet normal 0 0 -1
    outer loop
      vertex 1.47291 5.8164 0
      vertex 8.02957 8.91774 0
      vertex 3.28169 5.023 0
    endloop
  endfacet
  facet normal 0 0 -1
    outer loop
      vertex -5.91817 0.987568 0
      vertex -11.7378 -2.49494 0
      vertex -5.27684 2.85568 0
    endloop
  endfacet
  facet normal 0 0 -1
    outer loop
      vertex -5.27684 2.85568 0
      vertex -11.7378 -2.49494 0
      vertex -4.06369 4.41434 0
    endloop
  endfacet
  facet normal 0 0 -1
    outer loop
      vertex 3.28169 5.023 0
      vertex 9.7082 7.05342 0
      vertex 4.73484 3.68528 0
    endloop
  endfacet
  facet normal -0.994522 0.104529 0
    outer loop
      vertex -12 0 0
      vertex -12 0 9.2
      vertex -11.7378 2.49494 0
    endloop
  endfacet
  facet normal -0.994522 0.104529 0
    outer loop
      vertex -11.7378 2.49494 0
      vertex -12 0 9.2
      vertex -11.7378 2.49494 9.2
    endloop
  endfacet
  facet normal -0.994522 -0.104529 0
    outer loop
      vertex -12 0 0
      vertex -11.7378 -2.49494 0
      vertex -12 0 9.2
    endloop
  endfacet
  facet normal -0.994522 -0.104529 0
    outer loop
      vertex -12 0 9.2
      vertex -11.7378 -2.49494 0
      vertex -11.7378 -2.49494 9.2
    endloop
  endfacet
  facet normal -0.951057 -0.309017 0
    outer loop
      vertex -11.7378 -2.49494 0
      vertex -10.9625 -4.88084 0
      vertex -11.7378 -2.49494 9.2
    endloop
  endfacet
  facet normal -0.951057 -0.309017 0
    outer loop
      vertex -11.7378 -2.49494 9.2
      vertex -10.9625 -4.88084 0
      vertex -10.9625 -4.88084 9.2
    endloop
  endfacet
  facet normal -0.866025 -0.5 0
    outer loop
      vertex -10.9625 -4.88084 0
      vertex -9.7082 -7.05342 0
      vertex -10.9625 -4.88084 9.2
    endloop
  endfacet
  facet normal -0.866025 -0.5 0
    outer loop
      vertex -10.9625 -4.88084 9.2
      vertex -9.7082 -7.05342 0
      vertex -9.7082 -7.05342 9.2
    endloop
  endfacet
  facet normal -0.743145 -0.669131 0
    outer loop
      vertex -9.7082 -7.05342 0
      vertex -8.02957 -8.91774 0
      vertex -9.7082 -7.05342 9.2
    endloop
  endfacet
  facet normal -0.743145 -0.669131 0
    outer loop
      vertex -9.7082 -7.05342 9.2
      vertex -8.02957 -8.91774 0
      vertex -8.02957 -8.91774 9.2
    endloop
  endfacet
  facet normal -0.587785 -0.809017 0
    outer loop
      vertex -8.02957 -8.91774 9.2
      vertex -8.02957 -8.91774 0
      vertex -6 -10.3923 0
    endloop
  endfacet
  facet normal -0.587785 -0.809017 0
    outer loop
      vertex -6 -10.3923 9.2
      vertex -8.02957 -8.91774 9.2
      vertex -6 -10.3923 0
    endloop
  endfacet
  facet normal -0.406737 -0.913546 0
    outer loop
      vertex -6 -10.3923 9.2
      vertex -6 -10.3923 0
      vertex -3.7082 -11.4127 0
    endloop
  endfacet
  facet normal -0.406737 -0.913546 0
    outer loop
      vertex -3.7082 -11.4127 9.2
      vertex -6 -10.3923 9.2
      vertex -3.7082 -11.4127 0
    endloop
  endfacet
  facet normal -0.207912 -0.978148 0
    outer loop
      vertex -3.7082 -11.4127 9.2
      vertex -3.7082 -11.4127 0
      vertex -1.25434 -11.9343 0
    endloop
  endfacet
  facet normal -0.207912 -0.978148 0
    outer loop
      vertex -1.25434 -11.9343 9.2
      vertex -3.7082 -11.4127 9.2
      vertex -1.25434 -11.9343 0
    endloop
  endfacet
  facet normal 0 -1 0
    outer loop
      vertex -1.25434 -11.9343 9.2
      vertex -1.25434 -11.9343 0
      vertex 1.25434 -11.9343 0
    endloop
  endfacet
  facet normal 0 -1 0
    outer loop
      vertex 1.25434 -11.9343 9.2
      vertex -1.25434 -11.9343 9.2
      vertex 1.25434 -11.9343 0
    endloop
  endfacet
  facet normal 0.207912 -0.978148 0
    outer loop
      vertex 1.25434 -11.9343 9.2
      vertex 1.25434 -11.9343 0
      vertex 3.7082 -11.4127 0
    endloop
  endfacet
  facet normal 0.207912 -0.978148 0
    outer loop
      vertex 3.7082 -11.4127 9.2
      vertex 1.25434 -11.9343 9.2
      vertex 3.7082 -11.4127 0
    endloop
  endfacet
  facet normal 0.406737 -0.913546 0
    outer loop
      vertex 3.7082 -11.4127 9.2
      vertex 3.7082 -11.4127 0
      vertex 6 -10.3923 0
    endloop
  endfacet
  facet normal 0.406737 -0.913546 0
    outer loop
      vertex 6 -10.3923 9.2
      vertex 3.7082 -11.4127 9.2
      vertex 6 -10.3923 0
    endloop
  endfacet
  facet normal 0.587785 -0.809017 0
    outer loop
      vertex 6 -10.3923 9.2
      vertex 6 -10.3923 0
      vertex 8.02957 -8.91774 0
    endloop
  endfacet
  facet normal 0.587785 -0.809017 0
    outer loop
      vertex 8.02957 -8.91774 9.2
      vertex 6 -10.3923 9.2
      vertex 8.02957 -8.91774 0
    endloop
  endfacet
  facet normal 0.743145 -0.669131 0
    outer loop
      vertex 8.02957 -8.91774 9.2
      vertex 8.02957 -8.91774 0
      vertex 9.7082 -7.05342 0
    endloop
  endfacet
  facet normal 0.743145 -0.669131 0
    outer loop
      vertex 9.7082 -7.05342 9.2
      vertex 8.02957 -8.91774 9.2
      vertex 9.7082 -7.05342 0
    endloop
  endfacet
  facet normal 0.866025 -0.5 0
    outer loop
      vertex 9.7082 -7.05342 9.2
      vertex 9.7082 -7.05342 0
      vertex 10.9625 -4.88084 0
    endloop
  endfacet
  facet normal 0.866025 -0.5 0
    outer loop
      vertex 10.9625 -4.88084 9.2
      vertex 9.7082 -7.05342 9.2
      vertex 10.9625 -4.88084 0
    endloop
  endfacet
  facet normal 0.951057 -0.309017 0
    outer loop
      vertex 10.9625 -4.88084 9.2
      vertex 10.9625 -4.88084 0
      vertex 11.7378 -2.49494 0
    endloop
  endfacet
  facet normal 0.951057 -0.309017 0
    outer loop
      vertex 11.7378 -2.49494 9.2
      vertex 10.9625 -4.88084 9.2
      vertex 11.7378 -2.49494 0
    endloop
  endfacet
  facet normal 0.994522 -0.104529 0
    outer loop
      vertex 11.7378 -2.49494 9.2
      vertex 11.7378 -2.49494 0
      vertex 12 0 0
    endloop
  endfacet
  facet normal 0.994522 -0.104529 0
    outer loop
      vertex 12 0 9.2
      vertex 11.7378 -2.49494 9.2
      vertex 12 0 0
    endloop
  endfacet
  facet normal 0.994522 0.104529 0
    outer loop
      vertex 12 0 0
      vertex 11.7378 2.49494 0
      vertex 11.7378 2.49494 9.2
    endloop
  endfacet
  facet normal 0.994522 0.104529 0
    outer loop
      vertex 12 0 9.2
      vertex 12 0 0
      vertex 11.7378 2.49494 9.2
    endloop
  endfacet
  facet normal 0.951057 0.309017 0
    outer loop
      vertex 11.7378 2.49494 0
      vertex 10.9625 4.88084 0
      vertex 10.9625 4.88084 9.2
    endloop
  endfacet
  facet normal 0.951057 0.309017 0
    outer loop
      vertex 11.7378 2.49494 9.2
      vertex 11.7378 2.49494 0
      vertex 10.9625 4.88084 9.2
    endloop
  endfacet
  facet normal 0.866025 0.5 0
    outer loop
      vertex 10.9625 4.88084 0
      vertex 9.7082 7.05342 0
      vertex 9.7082 7.05342 9.2
    endloop
  endfacet
  facet normal 0.866025 0.5 0
    outer loop
      vertex 10.9625 4.88084 9.2
      vertex 10.9625 4.88084 0
      vertex 9.7082 7.05342 9.2
    endloop
  endfacet
  facet normal 0.743145 0.669131 0
    outer loop
      vertex 9.7082 7.05342 0
      vertex 8.02957 8.91774 0
      vertex 8.02957 8.91774 9.2
    endloop
  endfacet
  facet normal 0.743145 0.669131 0
    outer loop
      vertex 9.7082 7.05342 9.2
      vertex 9.7082 7.05342 0
      vertex 8.02957 8.91774 9.2
    endloop
  endfacet
  facet normal 0.587785 0.809017 0
    outer loop
      vertex 6 10.3923 0
      vertex 6 10.3923 9.2
      vertex 8.02957 8.91774 0
    endloop
  endfacet
  facet normal 0.587785 0.809017 0
    outer loop
      vertex 8.02957 8.91774 0
      vertex 6 10.3923 9.2
      vertex 8.02957 8.91774 9.2
    endloop
  endfacet
  facet normal 0.406737 0.913546 0
    outer loop
      vertex 3.7082 11.4127 0
      vertex 3.7082 11.4127 9.2
      vertex 6 10.3923 0
    endloop
  endfacet
  facet normal 0.406737 0.913546 0
    outer loop
      vertex 6 10.3923 0
      vertex 3.7082 11.4127 9.2
      vertex 6 10.3923 9.2
    endloop
  endfacet
  facet normal 0.207912 0.978148 0
    outer loop
      vertex 1.25434 11.9343 0
      vertex 1.25434 11.9343 9.2
      vertex 3.7082 11.4127 0
    endloop
  endfacet
  facet normal 0.207912 0.978148 0
    outer loop
      vertex 3.7082 11.4127 0
      vertex 1.25434 11.9343 9.2
      vertex 3.7082 11.4127 9.2
    endloop
  endfacet
  facet normal 0 1 0
    outer loop
      vertex -1.25434 11.9343 0
      vertex -1.25434 11.9343 9.2
      vertex 1.25434 11.9343 0
    endloop
  endfacet
  facet normal 0 1 0
    outer loop
      vertex 1.25434 11.9343 0
      vertex -1.25434 11.9343 9.2
      vertex 1.25434 11.9343 9.2
    endloop
  endfacet
  facet normal -0.207912 0.978148 0
    outer loop
      vertex -3.7082 11.4127 0
      vertex -3.7082 11.4127 9.2
      vertex -1.25434 11.9343 0
    endloop
  endfacet
  facet normal -0.207912 0.978148 0
    outer loop
      vertex -1.25434 11.9343 0
      vertex -3.7082 11.4127 9.2
      vertex -1.25434 11.9343 9.2
    endloop
  endfacet
  facet normal -0.406737 0.913546 0
    outer loop
      vertex -6 10.3923 0
      vertex -6 10.3923 9.2
      vertex -3.7082 11.4127 0
    endloop
  endfacet
  facet normal -0.406737 0.913546 0
    outer loop
      vertex -3.7082 11.4127 0
      vertex -6 10.3923 9.2
      vertex -3.7082 11.4127 9.2
    endloop
  endfacet
  facet normal -0.587785 0.809017 0
    outer loop
      vertex -8.02957 8.91774 0
      vertex -8.02957 8.91774 9.2
      vertex -6 10.3923 0
    endloop
  endfacet
  facet normal -0.587785 0.809017 0
    outer loop
      vertex -6 10.3923 0
      vertex -8.02957 8.91774 9.2
      vertex -6 10.3923 9.2
    endloop
  endfacet
  facet normal -0.743145 0.669131 0
    outer loop
      vertex -9.7082 7.05342 0
      vertex -9.7082 7.05342 9.2
      vertex -8.02957 8.91774 0
    endloop
  endfacet
  facet normal -0.743145 0.669131 0
    outer loop
      vertex -8.02957 8.91774 0
      vertex -9.7082 7.05342 9.2
      vertex -8.02957 8.91774 9.2
    endloop
  endfacet
  facet normal -0.866025 0.5 0
    outer loop
      vertex -10.9625 4.88084 0
      vertex -10.9625 4.88084 9.2
      vertex -9.7082 7.05342 0
    endloop
  endfacet
  facet normal -0.866025 0.5 0
    outer loop
      vertex -9.7082 7.05342 0
      vertex -10.9625 4.88084 9.2
      vertex -9.7082 7.05342 9.2
    endloop
  endfacet
  facet normal -0.951057 0.309017 0
    outer loop
      vertex -11.7378 2.49494 0
      vertex -11.7378 2.49494 9.2
      vertex -10.9625 4.88084 0
    endloop
  endfacet
  facet normal -0.951057 0.309017 0
    outer loop
      vertex -10.9625 4.88084 0
      vertex -11.7378 2.49494 9.2
      vertex -10.9625 4.88084 9.2
    endloop
  endfacet
  facet normal 1 0 0
    outer loop
      vertex -5.91817 0.987568 0
      vertex -5.91817 0.987568 4.2
      vertex -5.91817 -0.987568 4.2
    endloop
  endfacet
  facet normal 1 0 0
    outer loop
      vertex -5.91817 -0.987568 0
      vertex -5.91817 0.987568 0
      vertex -5.91817 -0.987568 4.2
    endloop
  endfacet
  facet normal 0.945817 -0.324699 0
    outer loop
      vertex -5.27684 2.85568 0
      vertex -5.27684 2.85568 4.2
      vertex -5.91817 0.987568 4.2
    endloop
  endfacet
  facet normal 0.945817 -0.324699 0
    outer loop
      vertex -5.91817 0.987568 0
      vertex -5.27684 2.85568 0
      vertex -5.91817 0.987568 4.2
    endloop
  endfacet
  facet normal 0.78914 -0.614213 0
    outer loop
      vertex -4.06369 4.41434 0
      vertex -4.06369 4.41434 4.2
      vertex -5.27684 2.85568 4.2
    endloop
  endfacet
  facet normal 0.78914 -0.614213 0
    outer loop
      vertex -5.27684 2.85568 0
      vertex -4.06369 4.41434 0
      vertex -5.27684 2.85568 4.2
    endloop
  endfacet
  facet normal 0.546949 -0.837166 0
    outer loop
      vertex -2.41017 5.49464 0
      vertex -2.41017 5.49464 4.2
      vertex -4.06369 4.41434 4.2
    endloop
  endfacet
  facet normal 0.546949 -0.837166 0
    outer loop
      vertex -4.06369 4.41434 0
      vertex -2.41017 5.49464 0
      vertex -4.06369 4.41434 4.2
    endloop
  endfacet
  facet normal 0.245485 -0.9694 0
    outer loop
      vertex -0.495476 5.97951 0
      vertex -0.495476 5.97951 4.2
      vertex -2.41017 5.49464 4.2
    endloop
  endfacet
  facet normal 0.245485 -0.9694 0
    outer loop
      vertex -2.41017 5.49464 0
      vertex -0.495476 5.97951 0
      vertex -2.41017 5.49464 4.2
    endloop
  endfacet
  facet normal -0.0825792 -0.996585 0
    outer loop
      vertex 1.47291 5.8164 0
      vertex 1.47291 5.8164 4.2
      vertex -0.495476 5.97951 4.2
    endloop
  endfacet
  facet normal -0.0825792 -0.996585 0
    outer loop
      vertex -0.495476 5.97951 0
      vertex 1.47291 5.8164 0
      vertex -0.495476 5.97951 4.2
    endloop
  endfacet
  facet normal -0.401696 -0.915773 0
    outer loop
      vertex 3.28169 5.023 0
      vertex 3.28169 5.023 4.2
      vertex 1.47291 5.8164 4.2
    endloop
  endfacet
  facet normal -0.401696 -0.915773 0
    outer loop
      vertex 1.47291 5.8164 0
      vertex 3.28169 5.023 0
      vertex 1.47291 5.8164 4.2
    endloop
  endfacet
  facet normal -0.677282 -0.735724 0
    outer loop
      vertex 4.73484 3.68528 0
      vertex 4.73484 3.68528 4.2
      vertex 3.28169 5.023 4.2
    endloop
  endfacet
  facet normal -0.677282 -0.735724 0
    outer loop
      vertex 3.28169 5.023 0
      vertex 4.73484 3.68528 0
      vertex 3.28169 5.023 4.2
    endloop
  endfacet
  facet normal -0.879474 -0.475947 0
    outer loop
      vertex 5.6749 1.9482 4.2
      vertex 4.73484 3.68528 4.2
      vertex 5.6749 1.9482 0
    endloop
  endfacet
  facet normal -0.879474 -0.475947 0
    outer loop
      vertex 5.6749 1.9482 0
      vertex 4.73484 3.68528 4.2
      vertex 4.73484 3.68528 0
    endloop
  endfacet
  facet normal -0.986361 -0.164595 0
    outer loop
      vertex 6 0 4.2
      vertex 5.6749 1.9482 4.2
      vertex 6 0 0
    endloop
  endfacet
  facet normal -0.986361 -0.164595 0
    outer loop
      vertex 6 0 0
      vertex 5.6749 1.9482 4.2
      vertex 5.6749 1.9482 0
    endloop
  endfacet
  facet normal -0.986361 0.164595 0
    outer loop
      vertex 6 0 4.2
      vertex 6 0 0
      vertex 5.6749 -1.9482 4.2
    endloop
  endfacet
  facet normal -0.986361 0.164595 0
    outer loop
      vertex 5.6749 -1.9482 4.2
      vertex 6 0 0
      vertex 5.6749 -1.9482 0
    endloop
  endfacet
  facet normal -0.879474 0.475947 0
    outer loop
      vertex 5.6749 -1.9482 4.2
      vertex 5.6749 -1.9482 0
      vertex 4.73484 -3.68528 4.2
    endloop
  endfacet
  facet normal -0.879474 0.475947 0
    outer loop
      vertex 4.73484 -3.68528 4.2
      vertex 5.6749 -1.9482 0
      vertex 4.73484 -3.68528 0
    endloop
  endfacet
  facet normal -0.677282 0.735724 0
    outer loop
      vertex 4.73484 -3.68528 4.2
      vertex 4.73484 -3.68528 0
      vertex 3.28169 -5.023 4.2
    endloop
  endfacet
  facet normal -0.677282 0.735724 0
    outer loop
      vertex 3.28169 -5.023 4.2
      vertex 4.73484 -3.68528 0
      vertex 3.28169 -5.023 0
    endloop
  endfacet
  facet normal -0.401696 0.915773 0
    outer loop
      vertex 3.28169 -5.023 4.2
      vertex 3.28169 -5.023 0
      vertex 1.47291 -5.8164 4.2
    endloop
  endfacet
  facet normal -0.401696 0.915773 0
    outer loop
      vertex 1.47291 -5.8164 4.2
      vertex 3.28169 -5.023 0
      vertex 1.47291 -5.8164 0
    endloop
  endfacet
  facet normal -0.0825792 0.996585 0
    outer loop
      vertex 1.47291 -5.8164 4.2
      vertex 1.47291 -5.8164 0
      vertex -0.495476 -5.97951 4.2
    endloop
  endfacet
  facet normal -0.0825792 0.996585 0
    outer loop
      vertex -0.495476 -5.97951 4.2
      vertex 1.47291 -5.8164 0
      vertex -0.495476 -5.97951 0
    endloop
  endfacet
  facet normal 0.245485 0.9694 0
    outer loop
      vertex -0.495476 -5.97951 4.2
      vertex -0.495476 -5.97951 0
      vertex -2.41017 -5.49464 4.2
    endloop
  endfacet
  facet normal 0.245485 0.9694 0
    outer loop
      vertex -2.41017 -5.49464 4.2
      vertex -0.495476 -5.97951 0
      vertex -2.41017 -5.49464 0
    endloop
  endfacet
  facet normal 0.546949 0.837166 0
    outer loop
      vertex -2.41017 -5.49464 4.2
      vertex -2.41017 -5.49464 0
      vertex -4.06369 -4.41434 4.2
    endloop
  endfacet
  facet normal 0.546949 0.837166 0
    outer loop
      vertex -4.06369 -4.41434 4.2
      vertex -2.41017 -5.49464 0
      vertex -4.06369 -4.41434 0
    endloop
  endfacet
  facet normal 0.78914 0.614213 0
    outer loop
      vertex -5.27684 -2.85568 4.2
      vertex -4.06369 -4.41434 4.2
      vertex -4.06369 -4.41434 0
    endloop
  endfacet
  facet normal 0.78914 0.614213 0
    outer loop
      vertex -5.27684 -2.85568 0
      vertex -5.27684 -2.85568 4.2
      vertex -4.06369 -4.41434 0
    endloop
  endfacet
  facet normal 0.945817 0.324699 0
    outer loop
      vertex -5.91817 -0.987568 4.2
      vertex -5.27684 -2.85568 4.2
      vertex -5.27684 -2.85568 0
    endloop
  endfacet
  facet normal 0.945817 0.324699 0
    outer loop
      vertex -5.91817 -0.987568 0
      vertex -5.91817 -0.987568 4.2
      vertex -5.27684 -2.85568 0
    endloop
  endfacet
  facet normal 0 0 1
    outer loop
      vertex -11.7378 2.49494 9.2
      vertex -12 0 9.2
      vertex -11.7378 -2.49494 9.2
    endloop
  endfacet
  facet normal 0 0 1
    outer loop
      vertex -9.7082 -7.05342 9.2
      vertex -11.7378 2.49494 9.2
      vertex -10.9625 -4.88084 9.2
    endloop
  endfacet
  facet normal 0 0 1
    outer loop
      vertex -10.9625 -4.88084 9.2
      vertex -11.7378 2.49494 9.2
      vertex -11.7378 -2.49494 9.2
    endloop
  endfacet
  facet normal 0 0 1
    outer loop
      vertex -8.02957 -8.91774 9.2
      vertex -11.7378 2.49494 9.2
      vertex -9.7082 -7.05342 9.2
    endloop
  endfacet
  facet normal 0 0 1
    outer loop
      vertex -6 -10.3923 9.2
      vertex -11.7378 2.49494 9.2
      vertex -8.02957 -8.91774 9.2
    endloop
  endfacet
  facet normal 0 0 1
    outer loop
      vertex -3.7082 -11.4127 9.2
      vertex -11.7378 2.49494 9.2
      vertex -6 -10.3923 9.2
    endloop
  endfacet
  facet normal 0 0 1
    outer loop
      vertex -1.25434 -11.9343 9.2
      vertex -11.7378 2.49494 9.2
      vertex -3.7082 -11.4127 9.2
    endloop
  endfacet
  facet normal 0 0 1
    outer loop
      vertex 1.25434 -11.9343 9.2
      vertex -11.7378 2.49494 9.2
      vertex -1.25434 -11.9343 9.2
    endloop
  endfacet
  facet normal 0 0 1
    outer loop
      vertex 3.7082 -11.4127 9.2
      vertex -11.7378 2.49494 9.2
      vertex 1.25434 -11.9343 9.2
    endloop
  endfacet
  facet normal 0 0 1
    outer loop
      vertex 6 -10.3923 9.2
      vertex -11.7378 2.49494 9.2
      vertex 3.7082 -11.4127 9.2
    endloop
  endfacet
  facet normal 0 0 1
    outer loop
      vertex 8.02957 -8.91774 9.2
      vertex -11.7378 2.49494 9.2
      vertex 6 -10.3923 9.2
    endloop
  endfacet
  facet normal 0 0 1
    outer loop
      vertex -0.5 -2.82843 9.2
      vertex -11.7378 2.49494 9.2
      vertex 8.02957 -8.91774 9.2
    endloop
  endfacet
  facet normal 0 0 1
    outer loop
      vertex -0.5 -2.82843 9.2
      vertex -2.82843 -0.5 9.2
      vertex -11.7378 2.49494 9.2
    endloop
  endfacet
  facet normal 0 0 1
    outer loop
      vertex 0.5 2.82843 9.2
      vertex 12 0 9.2
      vertex 11.7378 2.49494 9.2
    endloop
  endfacet
  facet normal 0 0 1
    outer loop
      vertex 9.7082 7.05342 9.2
      vertex -11.7378 2.49494 9.2
      vertex 10.9625 4.88084 9.2
    endloop
  endfacet
  facet normal 0 0 1
    outer loop
      vertex 8.02957 8.91774 9.2
      vertex -11.7378 2.49494 9.2
      vertex 9.7082 7.05342 9.2
    endloop
  endfacet
  facet normal 0 0 1
    outer loop
      vertex 6 10.3923 9.2
      vertex -11.7378 2.49494 9.2
      vertex 8.02957 8.91774 9.2
    endloop
  endfacet
  facet normal 0 0 1
    outer loop
      vertex 3.7082 11.4127 9.2
      vertex -11.7378 2.49494 9.2
      vertex 6 10.3923 9.2
    endloop
  endfacet
  facet normal 0 0 1
    outer loop
      vertex 1.25434 11.9343 9.2
      vertex -11.7378 2.49494 9.2
      vertex 3.7082 11.4127 9.2
    endloop
  endfacet
  facet normal 0 0 1
    outer loop
      vertex -1.25434 11.9343 9.2
      vertex -11.7378 2.49494 9.2
      vertex 1.25434 11.9343 9.2
    endloop
  endfacet
  facet normal 0 0 1
    outer loop
      vertex -3.7082 11.4127 9.2
      vertex -11.7378 2.49494 9.2
      vertex -1.25434 11.9343 9.2
    endloop
  endfacet
  facet normal 0 0 1
    outer loop
      vertex -6 10.3923 9.2
      vertex -11.7378 2.49494 9.2
      vertex -3.7082 11.4127 9.2
    endloop
  endfacet
  facet normal 0 0 1
    outer loop
      vertex -8.02957 8.91774 9.2
      vertex -11.7378 2.49494 9.2
      vertex -6 10.3923 9.2
    endloop
  endfacet
  facet normal 0 0 1
    outer loop
      vertex -9.7082 7.05342 9.2
      vertex -11.7378 2.49494 9.2
      vertex -8.02957 8.91774 9.2
    endloop
  endfacet
  facet normal 0 0 1
    outer loop
      vertex -10.9625 4.88084 9.2
      vertex -11.7378 2.49494 9.2
      vertex -9.7082 7.05342 9.2
    endloop
  endfacet
  facet normal 0 0 1
    outer loop
      vertex 0.5 -2.82843 9.2
      vertex -0.5 -2.82843 9.2
      vertex 9.7082 -7.05342 9.2
    endloop
  endfacet
  facet normal 0 0 1
    outer loop
      vertex -2.82843 0.5 9.2
      vertex -0.5 0.5 9.2
      vertex -11.7378 2.49494 9.2
    endloop
  endfacet
  facet normal 0 0 1
    outer loop
      vertex -2.82843 0.5 9.2
      vertex -11.7378 2.49494 9.2
      vertex -2.82843 5.27139e-016 9.2
    endloop
  endfacet
  facet normal 0 0 1
    outer loop
      vertex 2.82843 -0.5 9.2
      vertex 0.5 -0.5 9.2
      vertex 11.7378 -2.49494 9.2
    endloop
  endfacet
  facet normal 0 0 1
    outer loop
      vertex 0.5 -0.5 9.2
      vertex 9.7082 -7.05342 9.2
      vertex 10.9625 -4.88084 9.2
    endloop
  endfacet
  facet normal 0 0 1
    outer loop
      vertex 0.5 -0.5 9.2
      vertex 10.9625 -4.88084 9.2
      vertex 11.7378 -2.49494 9.2
    endloop
  endfacet
  facet normal 0 0 1
    outer loop
      vertex 10.9625 4.88084 9.2
      vertex -11.7378 2.49494 9.2
      vertex -0.5 2.82843 9.2
    endloop
  endfacet
  facet normal 0 0 1
    outer loop
      vertex 10.9625 4.88084 9.2
      vertex 0.5 2.82843 9.2
      vertex 11.7378 2.49494 9.2
    endloop
  endfacet
  facet normal 0 0 1
    outer loop
      vertex 10.9625 4.88084 9.2
      vertex -0.5 2.82843 9.2
      vertex 0.5 2.82843 9.2
    endloop
  endfacet
  facet normal 0 0 1
    outer loop
      vertex 2.82843 -5.27139e-016 9.2
      vertex 2.82843 -0.5 9.2
      vertex 11.7378 -2.49494 9.2
    endloop
  endfacet
  facet normal 0 0 1
    outer loop
      vertex 0.5 2.82843 9.2
      vertex 0.5 0.5 9.2
      vertex 2.82843 0.5 9.2
    endloop
  endfacet
  facet normal 0 0 1
    outer loop
      vertex 0.5 2.82843 9.2
      vertex 2.82843 0.5 9.2
      vertex 12 0 9.2
    endloop
  endfacet
  facet normal 0 0 1
    outer loop
      vertex 12 0 9.2
      vertex 2.82843 -5.27139e-016 9.2
      vertex 11.7378 -2.49494 9.2
    endloop
  endfacet
  facet normal 0 0 1
    outer loop
      vertex 2.82843 0.5 9.2
      vertex 2.82843 -5.27139e-016 9.2
      vertex 12 0 9.2
    endloop
  endfacet
  facet normal 0 0 1
    outer loop
      vertex 9.7082 -7.05342 9.2
      vertex -0.5 -2.82843 9.2
      vertex 8.02957 -8.91774 9.2
    endloop
  endfacet
  facet normal 0 0 1
    outer loop
      vertex -2.82843 -0.5 9.2
      vertex -2.82843 5.27139e-016 9.2
      vertex -11.7378 2.49494 9.2
    endloop
  endfacet
  facet normal 0 0 1
    outer loop
      vertex -0.5 -2.82843 9.2
      vertex -0.5 -0.5 9.2
      vertex -2.82843 -0.5 9.2
    endloop
  endfacet
  facet normal 0 0 1
    outer loop
      vertex -0.5 0.5 9.2
      vertex -0.5 2.82843 9.2
      vertex -11.7378 2.49494 9.2
    endloop
  endfacet
  facet normal 0 0 1
    outer loop
      vertex 0.5 -0.5 9.2
      vertex 0.5 -2.82843 9.2
      vertex 9.7082 -7.05342 9.2
    endloop
  endfacet
  facet normal 0 0 -1
    outer loop
      vertex -5.27684 2.85568 4.2
      vertex -4.06369 4.41434 4.2
      vertex -5.91817 0.987568 4.2
    endloop
  endfacet
  facet normal 0 0 -1
    outer loop
      vertex -5.91817 0.987568 4.2
      vertex -4.06369 4.41434 4.2
      vertex -2.41017 5.49464 4.2
    endloop
  endfacet
  facet normal 0 0 -1
    outer loop
      vertex -5.91817 0.987568 4.2
      vertex -2.41017 5.49464 4.2
      vertex -0.495476 5.97951 4.2
    endloop
  endfacet
  facet normal 0 0 -1
    outer loop
      vertex -5.91817 0.987568 4.2
      vertex -0.495476 5.97951 4.2
      vertex 1.47291 5.8164 4.2
    endloop
  endfacet
  facet normal 0 0 -1
    outer loop
      vertex -5.91817 0.987568 4.2
      vertex 1.47291 5.8164 4.2
      vertex 3.28169 5.023 4.2
    endloop
  endfacet
  facet normal 0 0 -1
    outer loop
      vertex -5.91817 0.987568 4.2
      vertex 3.28169 5.023 4.2
      vertex 4.73484 3.68528 4.2
    endloop
  endfacet
  facet normal 0 0 -1
    outer loop
      vertex -5.91817 0.987568 4.2
      vertex 4.73484 3.68528 4.2
      vertex 5.6749 1.9482 4.2
    endloop
  endfacet
  facet normal 0 0 -1
    outer loop
      vertex -5.91817 0.987568 4.2
      vertex 5.6749 1.9482 4.2
      vertex 6 0 4.2
    endloop
  endfacet
  facet normal 0 0 -1
    outer loop
      vertex -5.91817 0.987568 4.2
      vertex 6 0 4.2
      vertex 5.6749 -1.9482 4.2
    endloop
  endfacet
  facet normal 0 0 -1
    outer loop
      vertex -5.91817 0.987568 4.2
      vertex 5.6749 -1.9482 4.2
      vertex 4.73484 -3.68528 4.2
    endloop
  endfacet
  facet normal 0 0 -1
    outer loop
      vertex -5.91817 0.987568 4.2
      vertex 4.73484 -3.68528 4.2
      vertex 3.28169 -5.023 4.2
    endloop
  endfacet
  facet normal 0 0 -1
    outer loop
      vertex -5.91817 0.987568 4.2
      vertex 3.28169 -5.023 4.2
      vertex 1.47291 -5.8164 4.2
    endloop
  endfacet
  facet normal 0 0 -1
    outer loop
      vertex -5.91817 0.987568 4.2
      vertex 1.47291 -5.8164 4.2
      vertex -0.495476 -5.97951 4.2
    endloop
  endfacet
  facet normal 0 0 -1
    outer loop
      vertex -5.91817 0.987568 4.2
      vertex -0.495476 -5.97951 4.2
      vertex -2.41017 -5.49464 4.2
    endloop
  endfacet
  facet normal 0 0 -1
    outer loop
      vertex -5.91817 0.987568 4.2
      vertex -2.41017 -5.49464 4.2
      vertex -4.06369 -4.41434 4.2
    endloop
  endfacet
  facet normal 0 0 -1
    outer loop
      vertex -5.91817 0.987568 4.2
      vertex -4.06369 -4.41434 4.2
      vertex -5.27684 -2.85568 4.2
    endloop
  endfacet
  facet normal 0 0 -1
    outer loop
      vertex -5.91817 0.987568 4.2
      vertex -5.27684 -2.85568 4.2
      vertex -5.91817 -0.987568 4.2
    endloop
  endfacet
  facet normal 1.86372e-016 1 -2.93626e-017
    outer loop
      vertex -0.5 -0.5 9.2
      vertex -0.5 -0.5 6.87157
      vertex -2.82843 -0.5 9.2
    endloop
  endfacet
  facet normal 1 0 0
    outer loop
      vertex -0.5 0.5 6.87157
      vertex -0.5 2.82843 9.2
      vertex -0.5 0.5 9.2
    endloop
  endfacet
  facet normal 1 0 0
    outer loop
      vertex -0.5 2.22045e-016 6.37157
      vertex -0.5 2.82843 9.2
      vertex -0.5 0.5 6.87157
    endloop
  endfacet
  facet normal 1 0 0
    outer loop
      vertex -0.5 -2.82843 9.2
      vertex -0.5 2.22045e-016 6.37157
      vertex -0.5 -0.5 6.87157
    endloop
  endfacet
  facet normal 1 0 0
    outer loop
      vertex -0.5 -2.82843 9.2
      vertex -0.5 -0.5 6.87157
      vertex -0.5 -0.5 9.2
    endloop
  endfacet
  facet normal 1 0 0
    outer loop
      vertex -0.5 0.5 6.87157
      vertex -0.5 -0.5 6.87157
      vertex -0.5 2.22045e-016 6.37157
    endloop
  endfacet
  facet normal -1 0 0
    outer loop
      vertex 0.5 -0.5 9.2
      vertex 0.5 -0.5 6.87157
      vertex 0.5 -2.82843 9.2
    endloop
  endfacet
  facet normal -1 0 0
    outer loop
      vertex 0.5 2.22045e-016 6.37157
      vertex 0.5 -0.5 6.87157
      vertex 0.5 0.5 6.87157
    endloop
  endfacet
  facet normal -1 0 0
    outer loop
      vertex 0.5 2.82843 9.2
      vertex 0.5 0.5 6.87157
      vertex 0.5 0.5 9.2
    endloop
  endfacet
  facet normal -1 0 0
    outer loop
      vertex 0.5 2.22045e-016 6.37157
      vertex 0.5 0.5 6.87157
      vertex 0.5 2.82843 9.2
    endloop
  endfacet
  facet normal -1 0 0
    outer loop
      vertex 0.5 -2.82843 9.2
      vertex 0.5 -0.5 6.87157
      vertex 0.5 2.22045e-016 6.37157
    endloop
  endfacet
  facet normal 1.86372e-016 1 -2.93626e-017
    outer loop
      vertex 0.5 -0.5 9.2
      vertex 2.82843 -0.5 9.2
      vertex 0.5 -0.5 6.87157
    endloop
  endfacet
  facet normal -0.707107 1.42922e-016 0.707107
    outer loop
      vertex 2.82843 -0.5 9.2
      vertex 2.82843 -5.27139e-016 9.2
      vertex 2.82843 0.5 9.2
    endloop
  endfacet
  facet normal -0.707107 1.42922e-016 0.707107
    outer loop
      vertex 0.5 -0.5 6.87157
      vertex 2.82843 -0.5 9.2
      vertex 0.5 0.5 6.87157
    endloop
  endfacet
  facet normal -0.707107 1.42922e-016 0.707107
    outer loop
      vertex 0.5 0.5 6.87157
      vertex 2.82843 -0.5 9.2
      vertex 2.82843 0.5 9.2
    endloop
  endfacet
  facet normal -1.86372e-016 -1 2.93626e-017
    outer loop
      vertex 2.82843 0.5 9.2
      vertex 0.5 0.5 9.2
      vertex 0.5 0.5 6.87157
    endloop
  endfacet
  facet normal 0 -0.707107 0.707107
    outer loop
      vertex 0.5 0.5 6.87157
      vertex 0.5 2.82843 9.2
      vertex -0.5 2.82843 9.2
    endloop
  endfacet
  facet normal 0 -0.707107 0.707107
    outer loop
      vertex 0.5 0.5 6.87157
      vertex 1.06561e-031 4.44089e-016 6.37157
      vertex 0.5 2.22045e-016 6.37157
    endloop
  endfacet
  facet normal 0 -0.707107 0.707107
    outer loop
      vertex -0.5 2.22045e-016 6.37157
      vertex -0.5 0.5 6.87157
      vertex -0.5 2.82843 9.2
    endloop
  endfacet
  facet normal 0 -0.707107 0.707107
    outer loop
      vertex 0.5 2.22045e-016 6.37157
      vertex 0.5 2.82843 9.2
      vertex 0.5 0.5 6.87157
    endloop
  endfacet
  facet normal 0 -0.707107 0.707107
    outer loop
      vertex -0.5 2.22045e-016 6.37157
      vertex 1.06561e-031 4.44089e-016 6.37157
      vertex -0.5 0.5 6.87157
    endloop
  endfacet
  facet normal 0 -0.707107 0.707107
    outer loop
      vertex -0.5 2.22045e-016 6.37157
      vertex 0.5 2.22045e-016 6.37157
      vertex 1.06561e-031 4.44089e-016 6.37157
    endloop
  endfacet
  facet normal 0 -0.707107 0.707107
    outer loop
      vertex -0.5 0.5 6.87157
      vertex 0.5 0.5 6.87157
      vertex -0.5 2.82843 9.2
    endloop
  endfacet
  facet normal -1.86372e-016 -1 2.93626e-017
    outer loop
      vertex -0.5 0.5 6.87157
      vertex -0.5 0.5 9.2
      vertex -2.82843 0.5 9.2
    endloop
  endfacet
  facet normal 0.707107 -1.4296e-016 0.707107
    outer loop
      vertex -0.5 -0.5 6.87157
      vertex -0.5 0.5 6.87157
      vertex -2.82843 0.5 9.2
    endloop
  endfacet
  facet normal 0.707107 -1.4296e-016 0.707107
    outer loop
      vertex -2.82843 -0.5 9.2
      vertex -0.5 -0.5 6.87157
      vertex -2.82843 5.27139e-016 9.2
    endloop
  endfacet
  facet normal 0.707107 -1.4296e-016 0.707107
    outer loop
      vertex -2.82843 5.27139e-016 9.2
      vertex -0.5 -0.5 6.87157
      vertex -2.82843 0.5 9.2
    endloop
  endfacet
  facet normal 0 0.707107 0.707107
    outer loop
      vertex 1.67885e-032 -3.48653e-032 6.37157
      vertex 0.5 2.22045e-016 6.37157
      vertex -0.5 2.22045e-016 6.37157
    endloop
  endfacet
  facet normal 0 0.707107 0.707107
    outer loop
      vertex 0.5 -0.5 6.87157
      vertex -0.5 -0.5 6.87157
      vertex 0.5 -2.82843 9.2
    endloop
  endfacet
  facet normal 0 0.707107 0.707107
    outer loop
      vertex 0.5 -0.5 6.87157
      vertex 0.5 2.22045e-016 6.37157
      vertex 1.67885e-032 -3.48653e-032 6.37157
    endloop
  endfacet
  facet normal 0 0.707107 0.707107
    outer loop
      vertex 0.5 -2.82843 9.2
      vertex 0.5 2.22045e-016 6.37157
      vertex 0.5 -0.5 6.87157
    endloop
  endfacet
  facet normal 0 0.707107 0.707107
    outer loop
      vertex -0.5 -2.82843 9.2
      vertex -0.5 -0.5 6.87157
      vertex -0.5 2.22045e-016 6.37157
    endloop
  endfacet
  facet normal 0 0.707107 0.707107
    outer loop
      vertex -0.5 -2.82843 9.2
      vertex 0.5 -2.82843 9.2
      vertex -0.5 -0.5 6.87157
    endloop
  endfacet
  facet normal 0 0.707107 0.707107
    outer loop
      vertex -0.5 -0.5 6.87157
      vertex 1.67885e-032 -3.48653e-032 6.37157
      vertex -0.5 2.22045e-016 6.37157
    endloop
  endfacet
  facet normal 0.707107 -1.4296e-016 0.707107
    outer loop
      vertex 1.06561e-031 4.44089e-016 6.37157
      vertex 1.01075e-016 0.5 6.37157
      vertex -0.5 0.5 6.87157
    endloop
  endfacet
  facet normal -1.86372e-016 -1 2.93626e-017
    outer loop
      vertex 1.01075e-016 0.5 6.37157
      vertex 0.5 0.5 6.87157
      vertex -0.5 0.5 6.87157
    endloop
  endfacet
  facet normal -0.707107 1.42922e-016 0.707107
    outer loop
      vertex 0.5 0.5 6.87157
      vertex 1.01075e-016 0.5 6.37157
      vertex 1.06561e-031 4.44089e-016 6.37157
    endloop
  endfacet
  facet normal 0.707107 -1.4296e-016 0.707107
    outer loop
      vertex -1.01075e-016 -0.5 6.37157
      vertex 1.67885e-032 -3.48653e-032 6.37157
      vertex -0.5 -0.5 6.87157
    endloop
  endfacet
  facet normal -0.707107 1.42922e-016 0.707107
    outer loop
      vertex 0.5 -0.5 6.87157
      vertex 1.67885e-032 -3.48653e-032 6.37157
      vertex -1.01075e-016 -0.5 6.37157
    endloop
  endfacet
  facet normal 1.86372e-016 1 -2.93626e-017
    outer loop
      vertex 0.5 -0.5 6.87157
      vertex -1.01075e-016 -0.5 6.37157
      vertex -0.5 -0.5 6.87157
    endloop
  endfacet
endsolid OpenSCAD_Model
