  0
SECTION
  2
HEADER
  9
$ACADVER
  1
AC1009
  9
$MEASUREMENT
  70
0
  9
$INSUNITS
  70
1
  9
$DIMLFAC
  40
1
  9
$INSBASE
  10
0.0
  20
0.0
  30
0.0
  9
$EXTMIN
  10
-0.000000030037
  20
-0.78740160484
  9
$EXTMAX
  10
5.264252039391
  20
2.379999986784
  9
$LIMMIN
  10
-0.000000030037
  20
-0.78740160484
  9
$LIMMAX
  10
5.264252039391
  20
2.379999986784
  9
$CLAYER
  8
0
  0
ENDSEC
  0
SECTION
  2
TABLES
  0
TABLE
  2
LTYPE
  70
2
  0
LTYPE
  2
CONTINUOUS
  70
65
  3
Solid line
  72
65
  73
0
  40
0
  0
LTYPE
  2
DASHED
  70
65
  3
 _ _ _ _ _ _ _ _ _ _ _ _ _ _ _ _ _ _ _ _ _ _
  72
65
  73
2
  40
0.07874015748
  49
0.03937007874
  49
-0.03937007874
  0
ENDTAB
  0
TABLE
  2
LAYER
  70
1
  0
LAYER
  2
0
  70
0
  62
7
  6
CONTINUOUS
  0
ENDTAB
  0
ENDSEC
  0
SECTION
  2
BLOCKS
  0
ENDSEC
  0
SECTION
  2
ENTITIES
  0
LINE
  8
0
  10
1.999999969963
  20
2.379999986784
  30
0.125
  11
1.999999969963
  21
1.999999986784
  31
0.125
  0
LINE
  8
0
  10
1.999999969963
  20
1.999999969963
  30
0.125
  11
2.379999969963
  21
1.999999969963
  31
0.125
  0
LINE
  8
0
  10
2.379999986784
  20
1.999999969963
  30
0.125
  11
2.379999986784
  21
2.379999969963
  31
0.125
  0
LINE
  8
0
  10
2.379999986784
  20
2.379999986784
  30
0.125
  11
1.999999986784
  21
2.379999986784
  31
0.125
  0
CIRCLE
  8
0
  10
2.120999914455
  20
2.189999978373
  30
0
  40
0.0125
  0
CIRCLE
  8
0
  10
2.259000042292
  20
2.189999978373
  30
0
  40
0.0125
  0
CIRCLE
  8
0
  10
2.189999978373
  20
2.189999978373
  30
0
  40
0.02344488189
  0
TEXT
  8
0
  40
0.1
  72
0
  10
2.052204702783
  20
1.606299182561
  30
0
  1
Top
  50
0
  0
LINE
  8
0
  6
DASHED
  10
2.576850380485
  20
1.999999969963
  30
0.125
  11
2.576850380485
  21
2.379999969963
  31
0.125
  0
LINE
  8
0
  6
DASHED
  10
2.576850380485
  20
2.379999986784
  30
0.125
  11
2.956850380485
  21
2.379999986784
  31
0.125
  0
LINE
  8
0
  6
DASHED
  10
2.956850397305
  20
2.379999986784
  30
0.125
  11
2.956850397305
  21
1.999999986784
  31
0.125
  0
LINE
  8
0
  6
DASHED
  10
2.956850397305
  20
1.999999969963
  30
0.125
  11
2.576850397305
  21
1.999999969963
  31
0.125
  0
CIRCLE
  8
0
  10
2.766850388895
  20
2.189999978373
  30
0.125
  40
0.02344488189
  0
CIRCLE
  8
0
  10
2.697850324976
  20
2.189999978373
  30
0.125
  40
0.0125
  0
CIRCLE
  8
0
  10
2.835850452814
  20
2.189999978373
  30
0.125
  40
0.0125
  0
TEXT
  8
0
  40
0.1
  72
0
  10
2.629055113304
  20
1.606299182561
  30
0
  1
Bottom
  50
0
  0
LINE
  8
0
  10
3.533700807827
  20
2.124999969963
  30
0.380000016821
  11
3.533700807827
  21
1.999999969963
  31
0.380000016821
  0
LINE
  8
0
  10
3.153700791006
  20
1.999999969963
  30
0.380000016821
  11
3.153700791006
  21
2.124999969963
  31
0.380000016821
  0
LINE
  8
0
  10
3.153700791006
  20
2.124999969963
  30
0.380000016821
  11
3.533700807827
  21
2.124999969963
  31
0.380000016821
  0
LINE
  8
0
  10
3.533700807827
  20
1.999999969963
  30
0.380000016821
  11
3.153700791006
  21
1.999999969963
  31
0.380000016821
  0
LINE
  8
0
  6
DASHED
  10
3.367145681306
  20
2.124999969963
  30
0.2134448903
  11
3.367145681306
  21
1.999999969963
  31
0.2134448903
  0
LINE
  8
0
  6
DASHED
  10
3.320255917527
  20
1.999999969963
  30
0.2134448903
  11
3.320255917527
  21
2.124999969963
  31
0.2134448903
  0
LINE
  8
0
  6
DASHED
  10
3.320255917527
  20
2.124999969963
  30
0.2134448903
  11
3.367145681306
  21
2.124999969963
  31
0.2134448903
  0
LINE
  8
0
  6
DASHED
  10
3.367145681306
  20
1.999999969963
  30
0.2134448903
  11
3.320255917527
  21
1.999999969963
  31
0.2134448903
  0
LINE
  8
0
  6
DASHED
  10
3.356200799416
  20
2.124999969963
  30
0.271500072329
  11
3.356200799416
  21
1.999999969963
  31
0.271500072329
  0
LINE
  8
0
  6
DASHED
  10
3.331200799416
  20
1.999999969963
  30
0.271500072329
  11
3.331200799416
  21
2.124999969963
  31
0.271500072329
  0
LINE
  8
0
  6
DASHED
  10
3.331200799416
  20
2.124999969963
  30
0.271500072329
  11
3.356200799416
  21
2.124999969963
  31
0.271500072329
  0
LINE
  8
0
  6
DASHED
  10
3.356200799416
  20
1.999999969963
  30
0.271500072329
  11
3.331200799416
  21
1.999999969963
  31
0.271500072329
  0
LINE
  8
0
  6
DASHED
  10
3.356200799416
  20
2.124999969963
  30
0.133499944492
  11
3.356200799416
  21
1.999999969963
  31
0.133499944492
  0
LINE
  8
0
  6
DASHED
  10
3.331200799416
  20
1.999999969963
  30
0.133499944492
  11
3.331200799416
  21
2.124999969963
  31
0.133499944492
  0
LINE
  8
0
  6
DASHED
  10
3.331200799416
  20
2.124999969963
  30
0.133499944492
  11
3.356200799416
  21
2.124999969963
  31
0.133499944492
  0
LINE
  8
0
  6
DASHED
  10
3.356200799416
  20
1.999999969963
  30
0.133499944492
  11
3.331200799416
  21
1.999999969963
  31
0.133499944492
  0
TEXT
  8
0
  40
0.1
  72
0
  10
3.205905523826
  20
1.606299182561
  30
0
  1
Left
  50
0
  0
LINE
  8
0
  10
3.730551201528
  20
2.124999969963
  30
0.380000016821
  11
3.730551201528
  21
1.999999969963
  31
0.380000016821
  0
LINE
  8
0
  10
4.110551218348
  20
1.999999969963
  30
0.380000016821
  11
4.110551218348
  21
2.124999969963
  31
0.380000016821
  0
LINE
  8
0
  10
4.110551218348
  20
2.124999969963
  30
0.380000016821
  11
3.730551201528
  21
2.124999969963
  31
0.380000016821
  0
LINE
  8
0
  10
3.730551201528
  20
1.999999969963
  30
0.380000016821
  11
4.110551218348
  21
1.999999969963
  31
0.380000016821
  0
LINE
  8
0
  6
DASHED
  10
3.897106328048
  20
2.124999969963
  30
0.2134448903
  11
3.897106328048
  21
1.999999969963
  31
0.2134448903
  0
LINE
  8
0
  6
DASHED
  10
3.943996091828
  20
1.999999969963
  30
0.2134448903
  11
3.943996091828
  21
2.124999969963
  31
0.2134448903
  0
LINE
  8
0
  6
DASHED
  10
3.943996091828
  20
2.124999969963
  30
0.2134448903
  11
3.897106328048
  21
2.124999969963
  31
0.2134448903
  0
LINE
  8
0
  6
DASHED
  10
3.897106328048
  20
1.999999969963
  30
0.2134448903
  11
3.943996091828
  21
1.999999969963
  31
0.2134448903
  0
LINE
  8
0
  6
DASHED
  10
3.908051209938
  20
2.124999969963
  30
0.133499944492
  11
3.908051209938
  21
1.999999969963
  31
0.133499944492
  0
LINE
  8
0
  6
DASHED
  10
3.933051209938
  20
1.999999969963
  30
0.133499944492
  11
3.933051209938
  21
2.124999969963
  31
0.133499944492
  0
LINE
  8
0
  6
DASHED
  10
3.933051209938
  20
2.124999969963
  30
0.133499944492
  11
3.908051209938
  21
2.124999969963
  31
0.133499944492
  0
LINE
  8
0
  6
DASHED
  10
3.908051209938
  20
1.999999969963
  30
0.133499944492
  11
3.933051209938
  21
1.999999969963
  31
0.133499944492
  0
LINE
  8
0
  6
DASHED
  10
3.908051209938
  20
2.124999969963
  30
0.271500072329
  11
3.908051209938
  21
1.999999969963
  31
0.271500072329
  0
LINE
  8
0
  6
DASHED
  10
3.933051209938
  20
1.999999969963
  30
0.271500072329
  11
3.933051209938
  21
2.124999969963
  31
0.271500072329
  0
LINE
  8
0
  6
DASHED
  10
3.933051209938
  20
2.124999969963
  30
0.271500072329
  11
3.908051209938
  21
2.124999969963
  31
0.271500072329
  0
LINE
  8
0
  6
DASHED
  10
3.908051209938
  20
1.999999969963
  30
0.271500072329
  11
3.933051209938
  21
1.999999969963
  31
0.271500072329
  0
TEXT
  8
0
  40
0.1
  72
0
  10
3.782755934347
  20
1.606299182561
  30
0
  1
Right
  50
0
  0
LINE
  8
0
  10
4.307401612049
  20
2.124999969963
  30
0.380000016821
  11
4.307401612049
  21
1.999999969963
  31
0.380000016821
  0
LINE
  8
0
  10
4.68740162887
  20
1.999999969963
  30
0.380000016821
  11
4.68740162887
  21
2.124999969963
  31
0.380000016821
  0
LINE
  8
0
  10
4.68740162887
  20
2.124999969963
  30
0.380000016821
  11
4.307401612049
  21
2.124999969963
  31
0.380000016821
  0
LINE
  8
0
  10
4.307401612049
  20
1.999999969963
  30
0.380000016821
  11
4.68740162887
  21
1.999999969963
  31
0.380000016821
  0
LINE
  8
0
  6
DASHED
  10
4.47395673857
  20
2.124999969963
  30
0.2134448903
  11
4.47395673857
  21
1.999999969963
  31
0.2134448903
  0
LINE
  8
0
  6
DASHED
  10
4.520846502349
  20
1.999999969963
  30
0.2134448903
  11
4.520846502349
  21
2.124999969963
  31
0.2134448903
  0
LINE
  8
0
  6
DASHED
  10
4.520846502349
  20
2.124999969963
  30
0.2134448903
  11
4.47395673857
  21
2.124999969963
  31
0.2134448903
  0
LINE
  8
0
  6
DASHED
  10
4.47395673857
  20
1.999999969963
  30
0.2134448903
  11
4.520846502349
  21
1.999999969963
  31
0.2134448903
  0
LINE
  8
0
  6
DASHED
  10
4.415901556541
  20
2.124999969963
  30
0.20250000841
  11
4.415901556541
  21
1.999999969963
  31
0.20250000841
  0
LINE
  8
0
  6
DASHED
  10
4.440901556541
  20
1.999999969963
  30
0.20250000841
  11
4.440901556541
  21
2.124999969963
  31
0.20250000841
  0
LINE
  8
0
  6
DASHED
  10
4.440901556541
  20
2.124999969963
  30
0.20250000841
  11
4.415901556541
  21
2.124999969963
  31
0.20250000841
  0
LINE
  8
0
  6
DASHED
  10
4.415901556541
  20
1.999999969963
  30
0.20250000841
  11
4.440901556541
  21
1.999999969963
  31
0.20250000841
  0
LINE
  8
0
  6
DASHED
  10
4.553901684378
  20
2.124999969963
  30
0.20250000841
  11
4.553901684378
  21
1.999999969963
  31
0.20250000841
  0
LINE
  8
0
  6
DASHED
  10
4.578901684378
  20
1.999999969963
  30
0.20250000841
  11
4.578901684378
  21
2.124999969963
  31
0.20250000841
  0
LINE
  8
0
  6
DASHED
  10
4.578901684378
  20
2.124999969963
  30
0.20250000841
  11
4.553901684378
  21
2.124999969963
  31
0.20250000841
  0
LINE
  8
0
  6
DASHED
  10
4.553901684378
  20
1.999999969963
  30
0.20250000841
  11
4.578901684378
  21
1.999999969963
  31
0.20250000841
  0
TEXT
  8
0
  40
0.1
  72
0
  10
4.359606344869
  20
1.606299182561
  30
0
  1
Front
  50
0
  0
LINE
  8
0
  10
5.264252039391
  20
2.124999969963
  30
0.380000016821
  11
5.264252039391
  21
1.999999969963
  31
0.380000016821
  0
LINE
  8
0
  10
4.884252022571
  20
1.999999969963
  30
0.380000016821
  11
4.884252022571
  21
2.124999969963
  31
0.380000016821
  0
LINE
  8
0
  10
4.884252022571
  20
2.124999969963
  30
0.380000016821
  11
5.264252039391
  21
2.124999969963
  31
0.380000016821
  0
LINE
  8
0
  10
5.264252039391
  20
1.999999969963
  30
0.380000016821
  11
4.884252022571
  21
1.999999969963
  31
0.380000016821
  0
LINE
  8
0
  6
DASHED
  10
5.097696912871
  20
2.124999969963
  30
0.2134448903
  11
5.097696912871
  21
1.999999969963
  31
0.2134448903
  0
LINE
  8
0
  6
DASHED
  10
5.050807149091
  20
1.999999969963
  30
0.2134448903
  11
5.050807149091
  21
2.124999969963
  31
0.2134448903
  0
LINE
  8
0
  6
DASHED
  10
5.050807149091
  20
2.124999969963
  30
0.2134448903
  11
5.097696912871
  21
2.124999969963
  31
0.2134448903
  0
LINE
  8
0
  6
DASHED
  10
5.097696912871
  20
1.999999969963
  30
0.2134448903
  11
5.050807149091
  21
1.999999969963
  31
0.2134448903
  0
LINE
  8
0
  6
DASHED
  10
5.1557520949
  20
2.124999969963
  30
0.20250000841
  11
5.1557520949
  21
1.999999969963
  31
0.20250000841
  0
LINE
  8
0
  6
DASHED
  10
5.1307520949
  20
1.999999969963
  30
0.20250000841
  11
5.1307520949
  21
2.124999969963
  31
0.20250000841
  0
LINE
  8
0
  6
DASHED
  10
5.1307520949
  20
2.124999969963
  30
0.20250000841
  11
5.1557520949
  21
2.124999969963
  31
0.20250000841
  0
LINE
  8
0
  6
DASHED
  10
5.1557520949
  20
1.999999969963
  30
0.20250000841
  11
5.1307520949
  21
1.999999969963
  31
0.20250000841
  0
LINE
  8
0
  6
DASHED
  10
5.017751967062
  20
2.124999969963
  30
0.20250000841
  11
5.017751967062
  21
1.999999969963
  31
0.20250000841
  0
LINE
  8
0
  6
DASHED
  10
4.992751967062
  20
1.999999969963
  30
0.20250000841
  11
4.992751967062
  21
2.124999969963
  31
0.20250000841
  0
LINE
  8
0
  6
DASHED
  10
4.992751967062
  20
2.124999969963
  30
0.20250000841
  11
5.017751967062
  21
2.124999969963
  31
0.20250000841
  0
LINE
  8
0
  6
DASHED
  10
5.017751967062
  20
1.999999969963
  30
0.20250000841
  11
4.992751967062
  21
1.999999969963
  31
0.20250000841
  0
TEXT
  8
0
  40
0.1
  72
0
  10
4.93645675539
  20
1.606299182561
  30
0
  1
Back
  50
0
  0
LINE
  8
0
  10
-0.000000030037
  20
0.999999969963
  30
0
  11
-0.000000030037
  21
-0.000000030037
  31
0
  0
LINE
  8
0
  10
-0.000000030037
  20
0.999999969963
  30
0
  11
0.999999969963
  21
0.999999969963
  31
0
  0
LINE
  8
0
  10
0.999999969963
  20
-0.000000030037
  30
0
  11
0.999999969963
  21
0.999999969963
  31
0
  0
LINE
  8
0
  10
-0.000000030037
  20
-0.000000030037
  30
0
  11
0.999999969963
  21
-0.000000030037
  31
0
  0
TEXT
  8
0
  40
0.1
  72
0
  10
0.299212568388
  20
0.69291335579
  30
0
  1
1"x1"
  50
0
  0
TEXT
  8
0
  40
0.1
  72
0
  10
0.275590521144
  20
0.433070836105
  30
0
  1
scaling
  50
0
  0
TEXT
  8
0
  40
0.1
  72
0
  10
0.208661387286
  20
0.177165324294
  30
0
  1
reference
  50
0
  0
ENDSEC
  0
EOF
