solid OpenSCAD_Model
  facet normal 0 0 -1
    outer loop
      vertex -5 0 0
      vertex -4.6194 1.91342 0
      vertex -4.6194 -1.91342 0
    endloop
  endfacet
  facet normal 0 0 -1
    outer loop
      vertex -4.6194 -1.91342 0
      vertex -4.6194 1.91342 0
      vertex -3.53553 3.53553 0
    endloop
  endfacet
  facet normal 0 0 -1
    outer loop
      vertex -4.6194 -1.91342 0
      vertex -3.53553 3.53553 0
      vertex -1.91342 4.6194 0
    endloop
  endfacet
  facet normal 0 0 -1
    outer loop
      vertex -1.6 2.77128 0
      vertex -1.91342 4.6194 0
      vertex 0 5 0
    endloop
  endfacet
  facet normal 0 0 -1
    outer loop
      vertex 1.6 2.77128 0
      vertex 1.91342 4.6194 0
      vertex 3.53553 3.53553 0
    endloop
  endfacet
  facet normal 0 0 -1
    outer loop
      vertex 3.2 0 0
      vertex 4.6194 1.91342 0
      vertex 5 0 0
    endloop
  endfacet
  facet normal 0 0 -1
    outer loop
      vertex 1.6 -2.77128 0
      vertex 4.6194 -1.91342 0
      vertex 3.53553 -3.53553 0
    endloop
  endfacet
  facet normal 0 0 -1
    outer loop
      vertex -1.6 -2.77128 0
      vertex 3.53553 -3.53553 0
      vertex 1.91342 -4.6194 0
    endloop
  endfacet
  facet normal 0 0 -1
    outer loop
      vertex -4.6194 -1.91342 0
      vertex 1.91342 -4.6194 0
      vertex 0 -5 0
    endloop
  endfacet
  facet normal 0 0 -1
    outer loop
      vertex -4.6194 -1.91342 0
      vertex 0 -5 0
      vertex -1.91342 -4.6194 0
    endloop
  endfacet
  facet normal 0 0 -1
    outer loop
      vertex -4.6194 -1.91342 0
      vertex -1.91342 -4.6194 0
      vertex -3.53553 -3.53553 0
    endloop
  endfacet
  facet normal 0 0 -1
    outer loop
      vertex -1.6 -2.77128 0
      vertex -4.6194 -1.91342 0
      vertex -3.2 0 0
    endloop
  endfacet
  facet normal 0 0 -1
    outer loop
      vertex 3.2 0 0
      vertex 4.6194 -1.91342 0
      vertex 1.6 -2.77128 0
    endloop
  endfacet
  facet normal 0 0 -1
    outer loop
      vertex -4.6194 -1.91342 0
      vertex -1.6 -2.77128 0
      vertex 1.91342 -4.6194 0
    endloop
  endfacet
  facet normal 0 0 -1
    outer loop
      vertex -4.6194 -1.91342 0
      vertex -1.91342 4.6194 0
      vertex -1.6 2.77128 0
    endloop
  endfacet
  facet normal 0 0 -1
    outer loop
      vertex -3.2 0 0
      vertex -4.6194 -1.91342 0
      vertex -1.6 2.77128 0
    endloop
  endfacet
  facet normal 0 0 -1
    outer loop
      vertex -1.6 2.77128 0
      vertex 0 5 0
      vertex 1.91342 4.6194 0
    endloop
  endfacet
  facet normal 0 0 -1
    outer loop
      vertex -1.6 2.77128 0
      vertex 1.91342 4.6194 0
      vertex 1.6 2.77128 0
    endloop
  endfacet
  facet normal 0 0 -1
    outer loop
      vertex 3.2 0 0
      vertex 5 0 0
      vertex 4.6194 -1.91342 0
    endloop
  endfacet
  facet normal 0 0 -1
    outer loop
      vertex 1.6 2.77128 0
      vertex 3.53553 3.53553 0
      vertex 4.6194 1.91342 0
    endloop
  endfacet
  facet normal 0 0 -1
    outer loop
      vertex 1.6 2.77128 0
      vertex 4.6194 1.91342 0
      vertex 3.2 0 0
    endloop
  endfacet
  facet normal 0 0 -1
    outer loop
      vertex 1.6 -2.77128 0
      vertex 3.53553 -3.53553 0
      vertex -1.6 -2.77128 0
    endloop
  endfacet
  facet normal -0.980785 0.19509 0
    outer loop
      vertex -5 0 0
      vertex -5 0 14
      vertex -4.6194 1.91342 0
    endloop
  endfacet
  facet normal -0.980785 0.19509 0
    outer loop
      vertex -4.6194 1.91342 0
      vertex -5 0 14
      vertex -4.6194 1.91342 14
    endloop
  endfacet
  facet normal -0.980785 -0.19509 0
    outer loop
      vertex -5 0 0
      vertex -4.6194 -1.91342 0
      vertex -5 0 14
    endloop
  endfacet
  facet normal -0.980785 -0.19509 0
    outer loop
      vertex -5 0 14
      vertex -4.6194 -1.91342 0
      vertex -4.6194 -1.91342 14
    endloop
  endfacet
  facet normal -0.83147 -0.55557 0
    outer loop
      vertex -4.6194 -1.91342 0
      vertex -3.53553 -3.53553 0
      vertex -4.6194 -1.91342 14
    endloop
  endfacet
  facet normal -0.83147 -0.55557 0
    outer loop
      vertex -4.6194 -1.91342 14
      vertex -3.53553 -3.53553 0
      vertex -3.53553 -3.53553 14
    endloop
  endfacet
  facet normal -0.55557 -0.83147 0
    outer loop
      vertex -3.53553 -3.53553 14
      vertex -3.53553 -3.53553 0
      vertex -1.91342 -4.6194 0
    endloop
  endfacet
  facet normal -0.55557 -0.83147 0
    outer loop
      vertex -1.91342 -4.6194 14
      vertex -3.53553 -3.53553 14
      vertex -1.91342 -4.6194 0
    endloop
  endfacet
  facet normal -0.19509 -0.980785 0
    outer loop
      vertex -1.91342 -4.6194 14
      vertex -1.91342 -4.6194 0
      vertex 0 -5 0
    endloop
  endfacet
  facet normal -0.19509 -0.980785 0
    outer loop
      vertex 0 -5 14
      vertex -1.91342 -4.6194 14
      vertex 0 -5 0
    endloop
  endfacet
  facet normal 0.19509 -0.980785 0
    outer loop
      vertex 0 -5 14
      vertex 0 -5 0
      vertex 1.91342 -4.6194 0
    endloop
  endfacet
  facet normal 0.19509 -0.980785 0
    outer loop
      vertex 1.91342 -4.6194 14
      vertex 0 -5 14
      vertex 1.91342 -4.6194 0
    endloop
  endfacet
  facet normal 0.55557 -0.83147 0
    outer loop
      vertex 1.91342 -4.6194 14
      vertex 1.91342 -4.6194 0
      vertex 3.53553 -3.53553 0
    endloop
  endfacet
  facet normal 0.55557 -0.83147 0
    outer loop
      vertex 3.53553 -3.53553 14
      vertex 1.91342 -4.6194 14
      vertex 3.53553 -3.53553 0
    endloop
  endfacet
  facet normal 0.83147 -0.55557 0
    outer loop
      vertex 3.53553 -3.53553 14
      vertex 3.53553 -3.53553 0
      vertex 4.6194 -1.91342 0
    endloop
  endfacet
  facet normal 0.83147 -0.55557 0
    outer loop
      vertex 4.6194 -1.91342 14
      vertex 3.53553 -3.53553 14
      vertex 4.6194 -1.91342 0
    endloop
  endfacet
  facet normal 0.980785 -0.19509 0
    outer loop
      vertex 4.6194 -1.91342 14
      vertex 4.6194 -1.91342 0
      vertex 5 0 0
    endloop
  endfacet
  facet normal 0.980785 -0.19509 0
    outer loop
      vertex 5 0 14
      vertex 4.6194 -1.91342 14
      vertex 5 0 0
    endloop
  endfacet
  facet normal 0.980785 0.19509 0
    outer loop
      vertex 5 0 0
      vertex 4.6194 1.91342 0
      vertex 4.6194 1.91342 14
    endloop
  endfacet
  facet normal 0.980785 0.19509 0
    outer loop
      vertex 5 0 14
      vertex 5 0 0
      vertex 4.6194 1.91342 14
    endloop
  endfacet
  facet normal 0.83147 0.55557 0
    outer loop
      vertex 4.6194 1.91342 0
      vertex 3.53553 3.53553 0
      vertex 3.53553 3.53553 14
    endloop
  endfacet
  facet normal 0.83147 0.55557 0
    outer loop
      vertex 4.6194 1.91342 14
      vertex 4.6194 1.91342 0
      vertex 3.53553 3.53553 14
    endloop
  endfacet
  facet normal 0.55557 0.83147 0
    outer loop
      vertex 1.91342 4.6194 0
      vertex 1.91342 4.6194 14
      vertex 3.53553 3.53553 0
    endloop
  endfacet
  facet normal 0.55557 0.83147 0
    outer loop
      vertex 3.53553 3.53553 0
      vertex 1.91342 4.6194 14
      vertex 3.53553 3.53553 14
    endloop
  endfacet
  facet normal 0.19509 0.980785 0
    outer loop
      vertex 0 5 0
      vertex 0 5 14
      vertex 1.91342 4.6194 0
    endloop
  endfacet
  facet normal 0.19509 0.980785 0
    outer loop
      vertex 1.91342 4.6194 0
      vertex 0 5 14
      vertex 1.91342 4.6194 14
    endloop
  endfacet
  facet normal -0.19509 0.980785 0
    outer loop
      vertex -1.91342 4.6194 0
      vertex -1.91342 4.6194 14
      vertex 0 5 0
    endloop
  endfacet
  facet normal -0.19509 0.980785 0
    outer loop
      vertex 0 5 0
      vertex -1.91342 4.6194 14
      vertex 0 5 14
    endloop
  endfacet
  facet normal -0.55557 0.83147 0
    outer loop
      vertex -3.53553 3.53553 0
      vertex -3.53553 3.53553 14
      vertex -1.91342 4.6194 0
    endloop
  endfacet
  facet normal -0.55557 0.83147 0
    outer loop
      vertex -1.91342 4.6194 0
      vertex -3.53553 3.53553 14
      vertex -1.91342 4.6194 14
    endloop
  endfacet
  facet normal -0.83147 0.55557 0
    outer loop
      vertex -4.6194 1.91342 0
      vertex -4.6194 1.91342 14
      vertex -3.53553 3.53553 0
    endloop
  endfacet
  facet normal -0.83147 0.55557 0
    outer loop
      vertex -3.53553 3.53553 0
      vertex -4.6194 1.91342 14
      vertex -3.53553 3.53553 14
    endloop
  endfacet
  facet normal 0.866025 -0.5 0
    outer loop
      vertex -1.6 2.77128 0
      vertex -1.6 2.77128 6
      vertex -3.2 0 6
    endloop
  endfacet
  facet normal 0.866025 -0.5 0
    outer loop
      vertex -3.2 0 0
      vertex -1.6 2.77128 0
      vertex -3.2 0 6
    endloop
  endfacet
  facet normal 0.866025 0.5 0
    outer loop
      vertex -3.2 0 6
      vertex -1.6 -2.77128 6
      vertex -1.6 -2.77128 0
    endloop
  endfacet
  facet normal 0.866025 0.5 0
    outer loop
      vertex -3.2 0 0
      vertex -3.2 0 6
      vertex -1.6 -2.77128 0
    endloop
  endfacet
  facet normal 0 -1 0
    outer loop
      vertex 1.6 2.77128 0
      vertex 1.6 2.77128 6
      vertex -1.6 2.77128 6
    endloop
  endfacet
  facet normal 0 -1 0
    outer loop
      vertex -1.6 2.77128 0
      vertex 1.6 2.77128 0
      vertex -1.6 2.77128 6
    endloop
  endfacet
  facet normal -0.866025 -0.5 0
    outer loop
      vertex 3.2 0 6
      vertex 1.6 2.77128 6
      vertex 3.2 0 0
    endloop
  endfacet
  facet normal -0.866025 -0.5 0
    outer loop
      vertex 3.2 0 0
      vertex 1.6 2.77128 6
      vertex 1.6 2.77128 0
    endloop
  endfacet
  facet normal -0.866025 0.5 0
    outer loop
      vertex 3.2 0 6
      vertex 3.2 0 0
      vertex 1.6 -2.77128 6
    endloop
  endfacet
  facet normal -0.866025 0.5 0
    outer loop
      vertex 1.6 -2.77128 6
      vertex 3.2 0 0
      vertex 1.6 -2.77128 0
    endloop
  endfacet
  facet normal 0 1 0
    outer loop
      vertex 1.6 -2.77128 6
      vertex 1.6 -2.77128 0
      vertex -1.6 -2.77128 6
    endloop
  endfacet
  facet normal 0 1 0
    outer loop
      vertex -1.6 -2.77128 6
      vertex 1.6 -2.77128 0
      vertex -1.6 -2.77128 0
    endloop
  endfacet
  facet normal 0 0 1
    outer loop
      vertex -4.6194 1.91342 14
      vertex -5 0 14
      vertex -4.6194 -1.91342 14
    endloop
  endfacet
  facet normal 0 0 1
    outer loop
      vertex -1.91342 -4.6194 14
      vertex -4.6194 1.91342 14
      vertex -3.53553 -3.53553 14
    endloop
  endfacet
  facet normal 0 0 1
    outer loop
      vertex -3.53553 -3.53553 14
      vertex -4.6194 1.91342 14
      vertex -4.6194 -1.91342 14
    endloop
  endfacet
  facet normal 0 0 1
    outer loop
      vertex 0 -5 14
      vertex -4.6194 1.91342 14
      vertex -1.91342 -4.6194 14
    endloop
  endfacet
  facet normal 0 0 1
    outer loop
      vertex 1.91342 -4.6194 14
      vertex -4.6194 1.91342 14
      vertex 0 -5 14
    endloop
  endfacet
  facet normal 0 0 1
    outer loop
      vertex -0.764121 -1.05172 14
      vertex -4.6194 1.91342 14
      vertex 1.91342 -4.6194 14
    endloop
  endfacet
  facet normal 0 0 1
    outer loop
      vertex -0.828651 -1.00167 14
      vertex -0.889911 -0.947659 14
      vertex -4.6194 1.91342 14
    endloop
  endfacet
  facet normal 0 0 1
    outer loop
      vertex 3.53553 3.53553 14
      vertex -4.6194 1.91342 14
      vertex 4.6194 1.91342 14
    endloop
  endfacet
  facet normal 0 0 1
    outer loop
      vertex 1.91342 4.6194 14
      vertex -4.6194 1.91342 14
      vertex 3.53553 3.53553 14
    endloop
  endfacet
  facet normal 0 0 1
    outer loop
      vertex 0 5 14
      vertex -4.6194 1.91342 14
      vertex 1.91342 4.6194 14
    endloop
  endfacet
  facet normal 0 0 1
    outer loop
      vertex -1.91342 4.6194 14
      vertex -4.6194 1.91342 14
      vertex 0 5 14
    endloop
  endfacet
  facet normal 0 0 1
    outer loop
      vertex -3.53553 3.53553 14
      vertex -4.6194 1.91342 14
      vertex -1.91342 4.6194 14
    endloop
  endfacet
  facet normal 0 0 1
    outer loop
      vertex -1.3 0 14
      vertex -4.6194 1.91342 14
      vertex -1.29743 -0.081628 14
    endloop
  endfacet
  facet normal 0 0 1
    outer loop
      vertex -1.29743 0.081628 14
      vertex -4.6194 1.91342 14
      vertex -1.3 0 14
    endloop
  endfacet
  facet normal 0 0 1
    outer loop
      vertex 1.05172 -0.764121 14
      vertex 1.00167 -0.828651 14
      vertex 4.6194 -1.91342 14
    endloop
  endfacet
  facet normal 0 0 1
    outer loop
      vertex -1.28975 0.162933 14
      vertex -4.6194 1.91342 14
      vertex -1.29743 0.081628 14
    endloop
  endfacet
  facet normal 0 0 1
    outer loop
      vertex -1.27697 0.243596 14
      vertex -4.6194 1.91342 14
      vertex -1.28975 0.162933 14
    endloop
  endfacet
  facet normal 0 0 1
    outer loop
      vertex -1.25916 0.323297 14
      vertex -4.6194 1.91342 14
      vertex -1.27697 0.243596 14
    endloop
  endfacet
  facet normal 0 0 1
    outer loop
      vertex -1.23637 0.401722 14
      vertex -4.6194 1.91342 14
      vertex -1.25916 0.323297 14
    endloop
  endfacet
  facet normal 0 0 1
    outer loop
      vertex -1.20871 0.478562 14
      vertex -4.6194 1.91342 14
      vertex -1.23637 0.401722 14
    endloop
  endfacet
  facet normal 0 0 1
    outer loop
      vertex 1.17627 -0.553513 14
      vertex 1.1392 -0.62628 14
      vertex 4.6194 -1.91342 14
    endloop
  endfacet
  facet normal 0 0 1
    outer loop
      vertex -0.696575 1.09763 14
      vertex -0.62628 1.1392 14
      vertex -4.6194 1.91342 14
    endloop
  endfacet
  facet normal 0 0 1
    outer loop
      vertex -1.1392 0.62628 14
      vertex -4.6194 1.91342 14
      vertex -1.17627 0.553513 14
    endloop
  endfacet
  facet normal 0 0 1
    outer loop
      vertex 1.23637 -0.401722 14
      vertex 1.20871 -0.478562 14
      vertex 4.6194 -1.91342 14
    endloop
  endfacet
  facet normal 0 0 1
    outer loop
      vertex -1.09763 0.696575 14
      vertex -4.6194 1.91342 14
      vertex -1.1392 0.62628 14
    endloop
  endfacet
  facet normal 0 0 1
    outer loop
      vertex -1.05172 0.764121 14
      vertex -4.6194 1.91342 14
      vertex -1.09763 0.696575 14
    endloop
  endfacet
  facet normal 0 0 1
    outer loop
      vertex -1.00167 0.828651 14
      vertex -4.6194 1.91342 14
      vertex -1.05172 0.764121 14
    endloop
  endfacet
  facet normal 0 0 1
    outer loop
      vertex 1.20871 0.478562 14
      vertex 1.23637 0.401722 14
      vertex 5 0 14
    endloop
  endfacet
  facet normal 0 0 1
    outer loop
      vertex -0.947659 0.889911 14
      vertex -4.6194 1.91342 14
      vertex -1.00167 0.828651 14
    endloop
  endfacet
  facet normal 0 0 1
    outer loop
      vertex -0.889911 0.947659 14
      vertex -4.6194 1.91342 14
      vertex -0.947659 0.889911 14
    endloop
  endfacet
  facet normal 0 0 1
    outer loop
      vertex -0.828651 1.00167 14
      vertex -4.6194 1.91342 14
      vertex -0.889911 0.947659 14
    endloop
  endfacet
  facet normal 0 0 1
    outer loop
      vertex -0.764121 1.05172 14
      vertex -4.6194 1.91342 14
      vertex -0.828651 1.00167 14
    endloop
  endfacet
  facet normal 0 0 1
    outer loop
      vertex -0.696575 1.09763 14
      vertex -4.6194 1.91342 14
      vertex -0.764121 1.05172 14
    endloop
  endfacet
  facet normal 0 0 1
    outer loop
      vertex 1.09763 0.696575 14
      vertex 1.1392 0.62628 14
      vertex 5 0 14
    endloop
  endfacet
  facet normal 0 0 1
    outer loop
      vertex 1.05172 0.764121 14
      vertex 1.09763 0.696575 14
      vertex 5 0 14
    endloop
  endfacet
  facet normal 0 0 1
    outer loop
      vertex -0.553513 1.17627 14
      vertex -4.6194 1.91342 14
      vertex -0.62628 1.1392 14
    endloop
  endfacet
  facet normal 0 0 1
    outer loop
      vertex -0.478562 1.20871 14
      vertex -4.6194 1.91342 14
      vertex -0.553513 1.17627 14
    endloop
  endfacet
  facet normal 0 0 1
    outer loop
      vertex -0.401722 1.23637 14
      vertex -4.6194 1.91342 14
      vertex -0.478562 1.20871 14
    endloop
  endfacet
  facet normal 0 0 1
    outer loop
      vertex -0.323297 1.25916 14
      vertex -4.6194 1.91342 14
      vertex -0.401722 1.23637 14
    endloop
  endfacet
  facet normal 0 0 1
    outer loop
      vertex -0.243596 1.27697 14
      vertex -4.6194 1.91342 14
      vertex -0.323297 1.25916 14
    endloop
  endfacet
  facet normal 0 0 1
    outer loop
      vertex -0.162933 1.28975 14
      vertex -4.6194 1.91342 14
      vertex -0.243596 1.27697 14
    endloop
  endfacet
  facet normal 0 0 1
    outer loop
      vertex -0.081628 1.29743 14
      vertex 0 1.3 14
      vertex 4.6194 1.91342 14
    endloop
  endfacet
  facet normal 0 0 1
    outer loop
      vertex 4.6194 1.91342 14
      vertex -4.6194 1.91342 14
      vertex -0.162933 1.28975 14
    endloop
  endfacet
  facet normal 0 0 1
    outer loop
      vertex 0 1.3 14
      vertex 0.081628 1.29743 14
      vertex 4.6194 1.91342 14
    endloop
  endfacet
  facet normal 0 0 1
    outer loop
      vertex 0.081628 1.29743 14
      vertex 0.162933 1.28975 14
      vertex 4.6194 1.91342 14
    endloop
  endfacet
  facet normal 0 0 1
    outer loop
      vertex 0.162933 1.28975 14
      vertex 0.243596 1.27697 14
      vertex 4.6194 1.91342 14
    endloop
  endfacet
  facet normal 0 0 1
    outer loop
      vertex 0.243596 1.27697 14
      vertex 0.323297 1.25916 14
      vertex 4.6194 1.91342 14
    endloop
  endfacet
  facet normal 0 0 1
    outer loop
      vertex 1.00167 0.828651 14
      vertex 1.05172 0.764121 14
      vertex 5 0 14
    endloop
  endfacet
  facet normal 0 0 1
    outer loop
      vertex 4.6194 1.91342 14
      vertex 0.323297 1.25916 14
      vertex 5 0 14
    endloop
  endfacet
  facet normal 0 0 1
    outer loop
      vertex 0.323297 1.25916 14
      vertex 0.401722 1.23637 14
      vertex 5 0 14
    endloop
  endfacet
  facet normal 0 0 1
    outer loop
      vertex 0.401722 1.23637 14
      vertex 0.478562 1.20871 14
      vertex 5 0 14
    endloop
  endfacet
  facet normal 0 0 1
    outer loop
      vertex 0.478562 1.20871 14
      vertex 0.553513 1.17627 14
      vertex 5 0 14
    endloop
  endfacet
  facet normal 0 0 1
    outer loop
      vertex 0.553513 1.17627 14
      vertex 0.62628 1.1392 14
      vertex 5 0 14
    endloop
  endfacet
  facet normal 0 0 1
    outer loop
      vertex 0.62628 1.1392 14
      vertex 0.696575 1.09763 14
      vertex 5 0 14
    endloop
  endfacet
  facet normal 0 0 1
    outer loop
      vertex 0.696575 1.09763 14
      vertex 0.764121 1.05172 14
      vertex 5 0 14
    endloop
  endfacet
  facet normal 0 0 1
    outer loop
      vertex 0.764121 1.05172 14
      vertex 0.828651 1.00167 14
      vertex 5 0 14
    endloop
  endfacet
  facet normal 0 0 1
    outer loop
      vertex 0.828651 1.00167 14
      vertex 0.889911 0.947659 14
      vertex 5 0 14
    endloop
  endfacet
  facet normal 0 0 1
    outer loop
      vertex 0.889911 0.947659 14
      vertex 0.947659 0.889911 14
      vertex 5 0 14
    endloop
  endfacet
  facet normal 0 0 1
    outer loop
      vertex 0.947659 0.889911 14
      vertex 1.00167 0.828651 14
      vertex 5 0 14
    endloop
  endfacet
  facet normal 0 0 1
    outer loop
      vertex 1.1392 0.62628 14
      vertex 1.17627 0.553513 14
      vertex 5 0 14
    endloop
  endfacet
  facet normal 0 0 1
    outer loop
      vertex -0.162933 1.28975 14
      vertex -0.081628 1.29743 14
      vertex 4.6194 1.91342 14
    endloop
  endfacet
  facet normal 0 0 1
    outer loop
      vertex 1.17627 0.553513 14
      vertex 1.20871 0.478562 14
      vertex 5 0 14
    endloop
  endfacet
  facet normal 0 0 1
    outer loop
      vertex 1.23637 0.401722 14
      vertex 1.25916 0.323297 14
      vertex 5 0 14
    endloop
  endfacet
  facet normal 0 0 1
    outer loop
      vertex 1.20871 -0.478562 14
      vertex 1.17627 -0.553513 14
      vertex 4.6194 -1.91342 14
    endloop
  endfacet
  facet normal 0 0 1
    outer loop
      vertex 5 0 14
      vertex 1.25916 0.323297 14
      vertex 4.6194 -1.91342 14
    endloop
  endfacet
  facet normal 0 0 1
    outer loop
      vertex 1.25916 0.323297 14
      vertex 1.27697 0.243596 14
      vertex 4.6194 -1.91342 14
    endloop
  endfacet
  facet normal 0 0 1
    outer loop
      vertex 1.27697 0.243596 14
      vertex 1.28975 0.162933 14
      vertex 4.6194 -1.91342 14
    endloop
  endfacet
  facet normal 0 0 1
    outer loop
      vertex 1.28975 0.162933 14
      vertex 1.29743 0.081628 14
      vertex 4.6194 -1.91342 14
    endloop
  endfacet
  facet normal 0 0 1
    outer loop
      vertex 1.29743 0.081628 14
      vertex 1.3 0 14
      vertex 4.6194 -1.91342 14
    endloop
  endfacet
  facet normal 0 0 1
    outer loop
      vertex 1.3 0 14
      vertex 1.29743 -0.081628 14
      vertex 4.6194 -1.91342 14
    endloop
  endfacet
  facet normal 0 0 1
    outer loop
      vertex 1.29743 -0.081628 14
      vertex 1.28975 -0.162933 14
      vertex 4.6194 -1.91342 14
    endloop
  endfacet
  facet normal 0 0 1
    outer loop
      vertex 1.28975 -0.162933 14
      vertex 1.27697 -0.243596 14
      vertex 4.6194 -1.91342 14
    endloop
  endfacet
  facet normal 0 0 1
    outer loop
      vertex 1.27697 -0.243596 14
      vertex 1.25916 -0.323297 14
      vertex 4.6194 -1.91342 14
    endloop
  endfacet
  facet normal 0 0 1
    outer loop
      vertex 1.25916 -0.323297 14
      vertex 1.23637 -0.401722 14
      vertex 4.6194 -1.91342 14
    endloop
  endfacet
  facet normal 0 0 1
    outer loop
      vertex 1.09763 -0.696575 14
      vertex 1.05172 -0.764121 14
      vertex 4.6194 -1.91342 14
    endloop
  endfacet
  facet normal 0 0 1
    outer loop
      vertex 0.243596 -1.27697 14
      vertex 0.162933 -1.28975 14
      vertex 3.53553 -3.53553 14
    endloop
  endfacet
  facet normal 0 0 1
    outer loop
      vertex 0.401722 -1.23637 14
      vertex 0.323297 -1.25916 14
      vertex 3.53553 -3.53553 14
    endloop
  endfacet
  facet normal 0 0 1
    outer loop
      vertex 4.6194 -1.91342 14
      vertex 1.00167 -0.828651 14
      vertex 3.53553 -3.53553 14
    endloop
  endfacet
  facet normal 0 0 1
    outer loop
      vertex 1.00167 -0.828651 14
      vertex 0.947659 -0.889911 14
      vertex 3.53553 -3.53553 14
    endloop
  endfacet
  facet normal 0 0 1
    outer loop
      vertex 0.947659 -0.889911 14
      vertex 0.889911 -0.947659 14
      vertex 3.53553 -3.53553 14
    endloop
  endfacet
  facet normal 0 0 1
    outer loop
      vertex 0.889911 -0.947659 14
      vertex 0.828651 -1.00167 14
      vertex 3.53553 -3.53553 14
    endloop
  endfacet
  facet normal 0 0 1
    outer loop
      vertex 0.828651 -1.00167 14
      vertex 0.764121 -1.05172 14
      vertex 3.53553 -3.53553 14
    endloop
  endfacet
  facet normal 0 0 1
    outer loop
      vertex 0.764121 -1.05172 14
      vertex 0.696575 -1.09763 14
      vertex 3.53553 -3.53553 14
    endloop
  endfacet
  facet normal 0 0 1
    outer loop
      vertex 0.696575 -1.09763 14
      vertex 0.62628 -1.1392 14
      vertex 3.53553 -3.53553 14
    endloop
  endfacet
  facet normal 0 0 1
    outer loop
      vertex 0.62628 -1.1392 14
      vertex 0.553513 -1.17627 14
      vertex 3.53553 -3.53553 14
    endloop
  endfacet
  facet normal 0 0 1
    outer loop
      vertex 0.553513 -1.17627 14
      vertex 0.478562 -1.20871 14
      vertex 3.53553 -3.53553 14
    endloop
  endfacet
  facet normal 0 0 1
    outer loop
      vertex 0.478562 -1.20871 14
      vertex 0.401722 -1.23637 14
      vertex 3.53553 -3.53553 14
    endloop
  endfacet
  facet normal 0 0 1
    outer loop
      vertex 0.323297 -1.25916 14
      vertex 0.243596 -1.27697 14
      vertex 3.53553 -3.53553 14
    endloop
  endfacet
  facet normal 0 0 1
    outer loop
      vertex 3.53553 -3.53553 14
      vertex 0.162933 -1.28975 14
      vertex 1.91342 -4.6194 14
    endloop
  endfacet
  facet normal 0 0 1
    outer loop
      vertex 0.162933 -1.28975 14
      vertex 0.081628 -1.29743 14
      vertex 1.91342 -4.6194 14
    endloop
  endfacet
  facet normal 0 0 1
    outer loop
      vertex -1.25916 -0.323297 14
      vertex -1.27697 -0.243596 14
      vertex -4.6194 1.91342 14
    endloop
  endfacet
  facet normal 0 0 1
    outer loop
      vertex 0.081628 -1.29743 14
      vertex 0 -1.3 14
      vertex 1.91342 -4.6194 14
    endloop
  endfacet
  facet normal 0 0 1
    outer loop
      vertex 0 -1.3 14
      vertex -0.081628 -1.29743 14
      vertex 1.91342 -4.6194 14
    endloop
  endfacet
  facet normal 0 0 1
    outer loop
      vertex -0.081628 -1.29743 14
      vertex -0.162933 -1.28975 14
      vertex 1.91342 -4.6194 14
    endloop
  endfacet
  facet normal 0 0 1
    outer loop
      vertex -0.162933 -1.28975 14
      vertex -0.243596 -1.27697 14
      vertex 1.91342 -4.6194 14
    endloop
  endfacet
  facet normal 0 0 1
    outer loop
      vertex -1.17627 -0.553513 14
      vertex -1.20871 -0.478562 14
      vertex -4.6194 1.91342 14
    endloop
  endfacet
  facet normal 0 0 1
    outer loop
      vertex -0.243596 -1.27697 14
      vertex -0.323297 -1.25916 14
      vertex 1.91342 -4.6194 14
    endloop
  endfacet
  facet normal 0 0 1
    outer loop
      vertex -0.323297 -1.25916 14
      vertex -0.401722 -1.23637 14
      vertex 1.91342 -4.6194 14
    endloop
  endfacet
  facet normal 0 0 1
    outer loop
      vertex -0.401722 -1.23637 14
      vertex -0.478562 -1.20871 14
      vertex 1.91342 -4.6194 14
    endloop
  endfacet
  facet normal 0 0 1
    outer loop
      vertex -0.478562 -1.20871 14
      vertex -0.553513 -1.17627 14
      vertex 1.91342 -4.6194 14
    endloop
  endfacet
  facet normal 0 0 1
    outer loop
      vertex -0.553513 -1.17627 14
      vertex -0.62628 -1.1392 14
      vertex 1.91342 -4.6194 14
    endloop
  endfacet
  facet normal 0 0 1
    outer loop
      vertex -0.62628 -1.1392 14
      vertex -0.696575 -1.09763 14
      vertex 1.91342 -4.6194 14
    endloop
  endfacet
  facet normal 0 0 1
    outer loop
      vertex -0.696575 -1.09763 14
      vertex -0.764121 -1.05172 14
      vertex 1.91342 -4.6194 14
    endloop
  endfacet
  facet normal 0 0 1
    outer loop
      vertex -0.828651 -1.00167 14
      vertex -4.6194 1.91342 14
      vertex -0.764121 -1.05172 14
    endloop
  endfacet
  facet normal 0 0 1
    outer loop
      vertex -0.889911 -0.947659 14
      vertex -0.947659 -0.889911 14
      vertex -4.6194 1.91342 14
    endloop
  endfacet
  facet normal 0 0 1
    outer loop
      vertex -0.947659 -0.889911 14
      vertex -1.00167 -0.828651 14
      vertex -4.6194 1.91342 14
    endloop
  endfacet
  facet normal 0 0 1
    outer loop
      vertex -1.00167 -0.828651 14
      vertex -1.05172 -0.764121 14
      vertex -4.6194 1.91342 14
    endloop
  endfacet
  facet normal 0 0 1
    outer loop
      vertex -1.05172 -0.764121 14
      vertex -1.09763 -0.696575 14
      vertex -4.6194 1.91342 14
    endloop
  endfacet
  facet normal 0 0 1
    outer loop
      vertex -1.09763 -0.696575 14
      vertex -1.1392 -0.62628 14
      vertex -4.6194 1.91342 14
    endloop
  endfacet
  facet normal 0 0 1
    outer loop
      vertex -1.23637 -0.401722 14
      vertex -1.25916 -0.323297 14
      vertex -4.6194 1.91342 14
    endloop
  endfacet
  facet normal 0 0 1
    outer loop
      vertex -1.20871 -0.478562 14
      vertex -1.23637 -0.401722 14
      vertex -4.6194 1.91342 14
    endloop
  endfacet
  facet normal 0 0 1
    outer loop
      vertex -1.1392 -0.62628 14
      vertex -1.17627 -0.553513 14
      vertex -4.6194 1.91342 14
    endloop
  endfacet
  facet normal 0 0 1
    outer loop
      vertex -1.27697 -0.243596 14
      vertex -1.28975 -0.162933 14
      vertex -4.6194 1.91342 14
    endloop
  endfacet
  facet normal 0 0 1
    outer loop
      vertex -1.29743 -0.081628 14
      vertex -4.6194 1.91342 14
      vertex -1.28975 -0.162933 14
    endloop
  endfacet
  facet normal 0 0 1
    outer loop
      vertex 1.1392 -0.62628 14
      vertex 1.09763 -0.696575 14
      vertex 4.6194 -1.91342 14
    endloop
  endfacet
  facet normal 0 0 1
    outer loop
      vertex -1.20871 0.478562 14
      vertex -1.17627 0.553513 14
      vertex -4.6194 1.91342 14
    endloop
  endfacet
  facet normal 0 0 -1
    outer loop
      vertex 1.6 2.77128 6
      vertex 3.2 0 6
      vertex -1.6 2.77128 6
    endloop
  endfacet
  facet normal 0 0 -1
    outer loop
      vertex -1.6 2.77128 6
      vertex 3.2 0 6
      vertex 1.6 -2.77128 6
    endloop
  endfacet
  facet normal 0 0 -1
    outer loop
      vertex -1.6 2.77128 6
      vertex 1.6 -2.77128 6
      vertex -1.6 -2.77128 6
    endloop
  endfacet
  facet normal 0 0 -1
    outer loop
      vertex -1.6 2.77128 6
      vertex -1.6 -2.77128 6
      vertex -3.2 0 6
    endloop
  endfacet
  facet normal 0.999507 0.0314075 0
    outer loop
      vertex -1.3 0 14
      vertex -1.29743 -0.081628 14
      vertex -1.29743 -0.081628 8
    endloop
  endfacet
  facet normal 0.999507 0.0314075 0
    outer loop
      vertex -1.3 0 8
      vertex -1.3 0 14
      vertex -1.29743 -0.081628 8
    endloop
  endfacet
  facet normal 0.995561 0.0941133 0
    outer loop
      vertex -1.29743 -0.081628 14
      vertex -1.28975 -0.162933 14
      vertex -1.28975 -0.162933 8
    endloop
  endfacet
  facet normal 0.995561 0.0941133 0
    outer loop
      vertex -1.29743 -0.081628 8
      vertex -1.29743 -0.081628 14
      vertex -1.28975 -0.162933 8
    endloop
  endfacet
  facet normal 0.987688 0.156437 0
    outer loop
      vertex -1.28975 -0.162933 14
      vertex -1.27697 -0.243596 14
      vertex -1.27697 -0.243596 8
    endloop
  endfacet
  facet normal 0.987688 0.156437 0
    outer loop
      vertex -1.28975 -0.162933 8
      vertex -1.28975 -0.162933 14
      vertex -1.27697 -0.243596 8
    endloop
  endfacet
  facet normal 0.975918 0.21814 0
    outer loop
      vertex -1.27697 -0.243596 14
      vertex -1.25916 -0.323297 14
      vertex -1.25916 -0.323297 8
    endloop
  endfacet
  facet normal 0.975918 0.21814 0
    outer loop
      vertex -1.27697 -0.243596 8
      vertex -1.27697 -0.243596 14
      vertex -1.25916 -0.323297 8
    endloop
  endfacet
  facet normal 0.960292 0.278996 0
    outer loop
      vertex -1.25916 -0.323297 14
      vertex -1.23637 -0.401722 14
      vertex -1.23637 -0.401722 8
    endloop
  endfacet
  facet normal 0.960292 0.278996 0
    outer loop
      vertex -1.25916 -0.323297 8
      vertex -1.25916 -0.323297 14
      vertex -1.23637 -0.401722 8
    endloop
  endfacet
  facet normal 0.940881 0.338737 0
    outer loop
      vertex -1.23637 -0.401722 14
      vertex -1.20871 -0.478562 14
      vertex -1.20871 -0.478562 8
    endloop
  endfacet
  facet normal 0.940881 0.338737 0
    outer loop
      vertex -1.23637 -0.401722 8
      vertex -1.23637 -0.401722 14
      vertex -1.20871 -0.478562 8
    endloop
  endfacet
  facet normal 0.917755 0.397146 0
    outer loop
      vertex -1.20871 -0.478562 14
      vertex -1.17627 -0.553513 14
      vertex -1.17627 -0.553513 8
    endloop
  endfacet
  facet normal 0.917755 0.397146 0
    outer loop
      vertex -1.20871 -0.478562 8
      vertex -1.20871 -0.478562 14
      vertex -1.17627 -0.553513 8
    endloop
  endfacet
  facet normal 0.89101 0.453984 0
    outer loop
      vertex -1.17627 -0.553513 14
      vertex -1.1392 -0.62628 14
      vertex -1.1392 -0.62628 8
    endloop
  endfacet
  facet normal 0.89101 0.453984 0
    outer loop
      vertex -1.17627 -0.553513 8
      vertex -1.17627 -0.553513 14
      vertex -1.1392 -0.62628 8
    endloop
  endfacet
  facet normal 0.860739 0.509047 0
    outer loop
      vertex -1.1392 -0.62628 14
      vertex -1.09763 -0.696575 14
      vertex -1.09763 -0.696575 8
    endloop
  endfacet
  facet normal 0.860739 0.509047 0
    outer loop
      vertex -1.1392 -0.62628 8
      vertex -1.1392 -0.62628 14
      vertex -1.09763 -0.696575 8
    endloop
  endfacet
  facet normal 0.827082 0.562082 0
    outer loop
      vertex -1.09763 -0.696575 14
      vertex -1.05172 -0.764121 14
      vertex -1.05172 -0.764121 8
    endloop
  endfacet
  facet normal 0.827082 0.562082 0
    outer loop
      vertex -1.09763 -0.696575 8
      vertex -1.09763 -0.696575 14
      vertex -1.05172 -0.764121 8
    endloop
  endfacet
  facet normal 0.790153 0.61291 0
    outer loop
      vertex -1.05172 -0.764121 14
      vertex -1.00167 -0.828651 14
      vertex -1.00167 -0.828651 8
    endloop
  endfacet
  facet normal 0.790153 0.61291 0
    outer loop
      vertex -1.05172 -0.764121 8
      vertex -1.05172 -0.764121 14
      vertex -1.00167 -0.828651 8
    endloop
  endfacet
  facet normal 0.750111 0.661312 0
    outer loop
      vertex -1.00167 -0.828651 14
      vertex -0.947659 -0.889911 14
      vertex -0.947659 -0.889911 8
    endloop
  endfacet
  facet normal 0.750111 0.661312 0
    outer loop
      vertex -1.00167 -0.828651 8
      vertex -1.00167 -0.828651 14
      vertex -0.947659 -0.889911 8
    endloop
  endfacet
  facet normal 0.707107 0.707107 0
    outer loop
      vertex -0.889911 -0.947659 14
      vertex -0.889911 -0.947659 8
      vertex -0.947659 -0.889911 14
    endloop
  endfacet
  facet normal 0.707107 0.707107 0
    outer loop
      vertex -0.947659 -0.889911 14
      vertex -0.889911 -0.947659 8
      vertex -0.947659 -0.889911 8
    endloop
  endfacet
  facet normal 0.661312 0.750111 0
    outer loop
      vertex -0.828651 -1.00167 14
      vertex -0.828651 -1.00167 8
      vertex -0.889911 -0.947659 14
    endloop
  endfacet
  facet normal 0.661312 0.750111 0
    outer loop
      vertex -0.889911 -0.947659 14
      vertex -0.828651 -1.00167 8
      vertex -0.889911 -0.947659 8
    endloop
  endfacet
  facet normal 0.61291 0.790153 0
    outer loop
      vertex -0.764121 -1.05172 14
      vertex -0.764121 -1.05172 8
      vertex -0.828651 -1.00167 14
    endloop
  endfacet
  facet normal 0.61291 0.790153 0
    outer loop
      vertex -0.828651 -1.00167 14
      vertex -0.764121 -1.05172 8
      vertex -0.828651 -1.00167 8
    endloop
  endfacet
  facet normal 0.562082 0.827082 0
    outer loop
      vertex -0.696575 -1.09763 14
      vertex -0.696575 -1.09763 8
      vertex -0.764121 -1.05172 14
    endloop
  endfacet
  facet normal 0.562082 0.827082 0
    outer loop
      vertex -0.764121 -1.05172 14
      vertex -0.696575 -1.09763 8
      vertex -0.764121 -1.05172 8
    endloop
  endfacet
  facet normal 0.509047 0.860739 0
    outer loop
      vertex -0.62628 -1.1392 14
      vertex -0.62628 -1.1392 8
      vertex -0.696575 -1.09763 14
    endloop
  endfacet
  facet normal 0.509047 0.860739 0
    outer loop
      vertex -0.696575 -1.09763 14
      vertex -0.62628 -1.1392 8
      vertex -0.696575 -1.09763 8
    endloop
  endfacet
  facet normal 0.453984 0.89101 0
    outer loop
      vertex -0.553513 -1.17627 14
      vertex -0.553513 -1.17627 8
      vertex -0.62628 -1.1392 14
    endloop
  endfacet
  facet normal 0.453984 0.89101 0
    outer loop
      vertex -0.62628 -1.1392 14
      vertex -0.553513 -1.17627 8
      vertex -0.62628 -1.1392 8
    endloop
  endfacet
  facet normal 0.397146 0.917755 0
    outer loop
      vertex -0.478562 -1.20871 14
      vertex -0.478562 -1.20871 8
      vertex -0.553513 -1.17627 14
    endloop
  endfacet
  facet normal 0.397146 0.917755 0
    outer loop
      vertex -0.553513 -1.17627 14
      vertex -0.478562 -1.20871 8
      vertex -0.553513 -1.17627 8
    endloop
  endfacet
  facet normal 0.338737 0.940881 0
    outer loop
      vertex -0.401722 -1.23637 14
      vertex -0.401722 -1.23637 8
      vertex -0.478562 -1.20871 14
    endloop
  endfacet
  facet normal 0.338737 0.940881 0
    outer loop
      vertex -0.478562 -1.20871 14
      vertex -0.401722 -1.23637 8
      vertex -0.478562 -1.20871 8
    endloop
  endfacet
  facet normal 0.278996 0.960292 0
    outer loop
      vertex -0.323297 -1.25916 14
      vertex -0.323297 -1.25916 8
      vertex -0.401722 -1.23637 14
    endloop
  endfacet
  facet normal 0.278996 0.960292 0
    outer loop
      vertex -0.401722 -1.23637 14
      vertex -0.323297 -1.25916 8
      vertex -0.401722 -1.23637 8
    endloop
  endfacet
  facet normal 0.21814 0.975918 0
    outer loop
      vertex -0.243596 -1.27697 14
      vertex -0.243596 -1.27697 8
      vertex -0.323297 -1.25916 14
    endloop
  endfacet
  facet normal 0.21814 0.975918 0
    outer loop
      vertex -0.323297 -1.25916 14
      vertex -0.243596 -1.27697 8
      vertex -0.323297 -1.25916 8
    endloop
  endfacet
  facet normal 0.156437 0.987688 0
    outer loop
      vertex -0.162933 -1.28975 14
      vertex -0.162933 -1.28975 8
      vertex -0.243596 -1.27697 14
    endloop
  endfacet
  facet normal 0.156437 0.987688 0
    outer loop
      vertex -0.243596 -1.27697 14
      vertex -0.162933 -1.28975 8
      vertex -0.243596 -1.27697 8
    endloop
  endfacet
  facet normal 0.0941133 0.995561 0
    outer loop
      vertex -0.081628 -1.29743 14
      vertex -0.081628 -1.29743 8
      vertex -0.162933 -1.28975 14
    endloop
  endfacet
  facet normal 0.0941133 0.995561 0
    outer loop
      vertex -0.162933 -1.28975 14
      vertex -0.081628 -1.29743 8
      vertex -0.162933 -1.28975 8
    endloop
  endfacet
  facet normal 0.0314075 0.999507 0
    outer loop
      vertex 0 -1.3 14
      vertex 0 -1.3 8
      vertex -0.081628 -1.29743 14
    endloop
  endfacet
  facet normal 0.0314075 0.999507 0
    outer loop
      vertex -0.081628 -1.29743 14
      vertex 0 -1.3 8
      vertex -0.081628 -1.29743 8
    endloop
  endfacet
  facet normal -0.0314075 0.999507 0
    outer loop
      vertex 0.081628 -1.29743 14
      vertex 0.081628 -1.29743 8
      vertex 0 -1.3 14
    endloop
  endfacet
  facet normal -0.0314075 0.999507 0
    outer loop
      vertex 0 -1.3 14
      vertex 0.081628 -1.29743 8
      vertex 0 -1.3 8
    endloop
  endfacet
  facet normal -0.0941133 0.995561 0
    outer loop
      vertex 0.162933 -1.28975 14
      vertex 0.162933 -1.28975 8
      vertex 0.081628 -1.29743 14
    endloop
  endfacet
  facet normal -0.0941133 0.995561 0
    outer loop
      vertex 0.081628 -1.29743 14
      vertex 0.162933 -1.28975 8
      vertex 0.081628 -1.29743 8
    endloop
  endfacet
  facet normal -0.156437 0.987688 0
    outer loop
      vertex 0.243596 -1.27697 14
      vertex 0.243596 -1.27697 8
      vertex 0.162933 -1.28975 14
    endloop
  endfacet
  facet normal -0.156437 0.987688 0
    outer loop
      vertex 0.162933 -1.28975 14
      vertex 0.243596 -1.27697 8
      vertex 0.162933 -1.28975 8
    endloop
  endfacet
  facet normal -0.21814 0.975918 0
    outer loop
      vertex 0.323297 -1.25916 14
      vertex 0.323297 -1.25916 8
      vertex 0.243596 -1.27697 14
    endloop
  endfacet
  facet normal -0.21814 0.975918 0
    outer loop
      vertex 0.243596 -1.27697 14
      vertex 0.323297 -1.25916 8
      vertex 0.243596 -1.27697 8
    endloop
  endfacet
  facet normal -0.278996 0.960292 0
    outer loop
      vertex 0.401722 -1.23637 14
      vertex 0.401722 -1.23637 8
      vertex 0.323297 -1.25916 14
    endloop
  endfacet
  facet normal -0.278996 0.960292 0
    outer loop
      vertex 0.323297 -1.25916 14
      vertex 0.401722 -1.23637 8
      vertex 0.323297 -1.25916 8
    endloop
  endfacet
  facet normal -0.338737 0.940881 0
    outer loop
      vertex 0.478562 -1.20871 14
      vertex 0.478562 -1.20871 8
      vertex 0.401722 -1.23637 14
    endloop
  endfacet
  facet normal -0.338737 0.940881 0
    outer loop
      vertex 0.401722 -1.23637 14
      vertex 0.478562 -1.20871 8
      vertex 0.401722 -1.23637 8
    endloop
  endfacet
  facet normal -0.397146 0.917755 0
    outer loop
      vertex 0.553513 -1.17627 14
      vertex 0.553513 -1.17627 8
      vertex 0.478562 -1.20871 14
    endloop
  endfacet
  facet normal -0.397146 0.917755 0
    outer loop
      vertex 0.478562 -1.20871 14
      vertex 0.553513 -1.17627 8
      vertex 0.478562 -1.20871 8
    endloop
  endfacet
  facet normal -0.453984 0.89101 0
    outer loop
      vertex 0.62628 -1.1392 14
      vertex 0.62628 -1.1392 8
      vertex 0.553513 -1.17627 14
    endloop
  endfacet
  facet normal -0.453984 0.89101 0
    outer loop
      vertex 0.553513 -1.17627 14
      vertex 0.62628 -1.1392 8
      vertex 0.553513 -1.17627 8
    endloop
  endfacet
  facet normal -0.509047 0.860739 0
    outer loop
      vertex 0.696575 -1.09763 14
      vertex 0.696575 -1.09763 8
      vertex 0.62628 -1.1392 14
    endloop
  endfacet
  facet normal -0.509047 0.860739 0
    outer loop
      vertex 0.62628 -1.1392 14
      vertex 0.696575 -1.09763 8
      vertex 0.62628 -1.1392 8
    endloop
  endfacet
  facet normal -0.562082 0.827082 0
    outer loop
      vertex 0.764121 -1.05172 14
      vertex 0.764121 -1.05172 8
      vertex 0.696575 -1.09763 14
    endloop
  endfacet
  facet normal -0.562082 0.827082 0
    outer loop
      vertex 0.696575 -1.09763 14
      vertex 0.764121 -1.05172 8
      vertex 0.696575 -1.09763 8
    endloop
  endfacet
  facet normal -0.61291 0.790153 0
    outer loop
      vertex 0.828651 -1.00167 14
      vertex 0.828651 -1.00167 8
      vertex 0.764121 -1.05172 14
    endloop
  endfacet
  facet normal -0.61291 0.790153 0
    outer loop
      vertex 0.764121 -1.05172 14
      vertex 0.828651 -1.00167 8
      vertex 0.764121 -1.05172 8
    endloop
  endfacet
  facet normal -0.661312 0.750111 0
    outer loop
      vertex 0.889911 -0.947659 14
      vertex 0.889911 -0.947659 8
      vertex 0.828651 -1.00167 14
    endloop
  endfacet
  facet normal -0.661312 0.750111 0
    outer loop
      vertex 0.828651 -1.00167 14
      vertex 0.889911 -0.947659 8
      vertex 0.828651 -1.00167 8
    endloop
  endfacet
  facet normal -0.707107 0.707107 0
    outer loop
      vertex 0.947659 -0.889911 14
      vertex 0.947659 -0.889911 8
      vertex 0.889911 -0.947659 14
    endloop
  endfacet
  facet normal -0.707107 0.707107 0
    outer loop
      vertex 0.889911 -0.947659 14
      vertex 0.947659 -0.889911 8
      vertex 0.889911 -0.947659 8
    endloop
  endfacet
  facet normal -0.750111 0.661312 0
    outer loop
      vertex 1.00167 -0.828651 14
      vertex 1.00167 -0.828651 8
      vertex 0.947659 -0.889911 14
    endloop
  endfacet
  facet normal -0.750111 0.661312 0
    outer loop
      vertex 0.947659 -0.889911 14
      vertex 1.00167 -0.828651 8
      vertex 0.947659 -0.889911 8
    endloop
  endfacet
  facet normal -0.790153 0.61291 0
    outer loop
      vertex 1.05172 -0.764121 14
      vertex 1.05172 -0.764121 8
      vertex 1.00167 -0.828651 14
    endloop
  endfacet
  facet normal -0.790153 0.61291 0
    outer loop
      vertex 1.00167 -0.828651 14
      vertex 1.05172 -0.764121 8
      vertex 1.00167 -0.828651 8
    endloop
  endfacet
  facet normal -0.827082 0.562082 0
    outer loop
      vertex 1.09763 -0.696575 14
      vertex 1.09763 -0.696575 8
      vertex 1.05172 -0.764121 14
    endloop
  endfacet
  facet normal -0.827082 0.562082 0
    outer loop
      vertex 1.05172 -0.764121 14
      vertex 1.09763 -0.696575 8
      vertex 1.05172 -0.764121 8
    endloop
  endfacet
  facet normal -0.860739 0.509047 0
    outer loop
      vertex 1.1392 -0.62628 14
      vertex 1.1392 -0.62628 8
      vertex 1.09763 -0.696575 14
    endloop
  endfacet
  facet normal -0.860739 0.509047 0
    outer loop
      vertex 1.09763 -0.696575 14
      vertex 1.1392 -0.62628 8
      vertex 1.09763 -0.696575 8
    endloop
  endfacet
  facet normal -0.89101 0.453984 0
    outer loop
      vertex 1.17627 -0.553513 14
      vertex 1.17627 -0.553513 8
      vertex 1.1392 -0.62628 14
    endloop
  endfacet
  facet normal -0.89101 0.453984 0
    outer loop
      vertex 1.1392 -0.62628 14
      vertex 1.17627 -0.553513 8
      vertex 1.1392 -0.62628 8
    endloop
  endfacet
  facet normal -0.917755 0.397146 0
    outer loop
      vertex 1.20871 -0.478562 14
      vertex 1.20871 -0.478562 8
      vertex 1.17627 -0.553513 14
    endloop
  endfacet
  facet normal -0.917755 0.397146 0
    outer loop
      vertex 1.17627 -0.553513 14
      vertex 1.20871 -0.478562 8
      vertex 1.17627 -0.553513 8
    endloop
  endfacet
  facet normal -0.940881 0.338737 0
    outer loop
      vertex 1.23637 -0.401722 14
      vertex 1.23637 -0.401722 8
      vertex 1.20871 -0.478562 14
    endloop
  endfacet
  facet normal -0.940881 0.338737 0
    outer loop
      vertex 1.20871 -0.478562 14
      vertex 1.23637 -0.401722 8
      vertex 1.20871 -0.478562 8
    endloop
  endfacet
  facet normal -0.960292 0.278996 0
    outer loop
      vertex 1.25916 -0.323297 14
      vertex 1.25916 -0.323297 8
      vertex 1.23637 -0.401722 14
    endloop
  endfacet
  facet normal -0.960292 0.278996 0
    outer loop
      vertex 1.23637 -0.401722 14
      vertex 1.25916 -0.323297 8
      vertex 1.23637 -0.401722 8
    endloop
  endfacet
  facet normal -0.975918 0.21814 0
    outer loop
      vertex 1.27697 -0.243596 14
      vertex 1.27697 -0.243596 8
      vertex 1.25916 -0.323297 14
    endloop
  endfacet
  facet normal -0.975918 0.21814 0
    outer loop
      vertex 1.25916 -0.323297 14
      vertex 1.27697 -0.243596 8
      vertex 1.25916 -0.323297 8
    endloop
  endfacet
  facet normal -0.987688 0.156437 0
    outer loop
      vertex 1.28975 -0.162933 14
      vertex 1.28975 -0.162933 8
      vertex 1.27697 -0.243596 14
    endloop
  endfacet
  facet normal -0.987688 0.156437 0
    outer loop
      vertex 1.27697 -0.243596 14
      vertex 1.28975 -0.162933 8
      vertex 1.27697 -0.243596 8
    endloop
  endfacet
  facet normal -0.995561 0.0941133 0
    outer loop
      vertex 1.29743 -0.081628 14
      vertex 1.29743 -0.081628 8
      vertex 1.28975 -0.162933 14
    endloop
  endfacet
  facet normal -0.995561 0.0941133 0
    outer loop
      vertex 1.28975 -0.162933 14
      vertex 1.29743 -0.081628 8
      vertex 1.28975 -0.162933 8
    endloop
  endfacet
  facet normal -0.999507 0.0314075 0
    outer loop
      vertex 1.3 0 14
      vertex 1.3 0 8
      vertex 1.29743 -0.081628 14
    endloop
  endfacet
  facet normal -0.999507 0.0314075 0
    outer loop
      vertex 1.29743 -0.081628 14
      vertex 1.3 0 8
      vertex 1.29743 -0.081628 8
    endloop
  endfacet
  facet normal -0.999507 -0.0314075 0
    outer loop
      vertex 1.3 0 14
      vertex 1.29743 0.081628 14
      vertex 1.3 0 8
    endloop
  endfacet
  facet normal -0.999507 -0.0314075 0
    outer loop
      vertex 1.3 0 8
      vertex 1.29743 0.081628 14
      vertex 1.29743 0.081628 8
    endloop
  endfacet
  facet normal -0.995561 -0.0941133 0
    outer loop
      vertex 1.29743 0.081628 14
      vertex 1.28975 0.162933 14
      vertex 1.29743 0.081628 8
    endloop
  endfacet
  facet normal -0.995561 -0.0941133 0
    outer loop
      vertex 1.29743 0.081628 8
      vertex 1.28975 0.162933 14
      vertex 1.28975 0.162933 8
    endloop
  endfacet
  facet normal -0.987688 -0.156437 0
    outer loop
      vertex 1.28975 0.162933 14
      vertex 1.27697 0.243596 14
      vertex 1.28975 0.162933 8
    endloop
  endfacet
  facet normal -0.987688 -0.156437 0
    outer loop
      vertex 1.28975 0.162933 8
      vertex 1.27697 0.243596 14
      vertex 1.27697 0.243596 8
    endloop
  endfacet
  facet normal -0.975918 -0.21814 0
    outer loop
      vertex 1.27697 0.243596 14
      vertex 1.25916 0.323297 14
      vertex 1.27697 0.243596 8
    endloop
  endfacet
  facet normal -0.975918 -0.21814 0
    outer loop
      vertex 1.27697 0.243596 8
      vertex 1.25916 0.323297 14
      vertex 1.25916 0.323297 8
    endloop
  endfacet
  facet normal -0.960292 -0.278996 0
    outer loop
      vertex 1.25916 0.323297 14
      vertex 1.23637 0.401722 14
      vertex 1.25916 0.323297 8
    endloop
  endfacet
  facet normal -0.960292 -0.278996 0
    outer loop
      vertex 1.25916 0.323297 8
      vertex 1.23637 0.401722 14
      vertex 1.23637 0.401722 8
    endloop
  endfacet
  facet normal -0.940881 -0.338737 0
    outer loop
      vertex 1.23637 0.401722 14
      vertex 1.20871 0.478562 14
      vertex 1.23637 0.401722 8
    endloop
  endfacet
  facet normal -0.940881 -0.338737 0
    outer loop
      vertex 1.23637 0.401722 8
      vertex 1.20871 0.478562 14
      vertex 1.20871 0.478562 8
    endloop
  endfacet
  facet normal -0.917755 -0.397146 0
    outer loop
      vertex 1.20871 0.478562 14
      vertex 1.17627 0.553513 14
      vertex 1.20871 0.478562 8
    endloop
  endfacet
  facet normal -0.917755 -0.397146 0
    outer loop
      vertex 1.20871 0.478562 8
      vertex 1.17627 0.553513 14
      vertex 1.17627 0.553513 8
    endloop
  endfacet
  facet normal -0.89101 -0.453984 0
    outer loop
      vertex 1.17627 0.553513 14
      vertex 1.1392 0.62628 14
      vertex 1.17627 0.553513 8
    endloop
  endfacet
  facet normal -0.89101 -0.453984 0
    outer loop
      vertex 1.17627 0.553513 8
      vertex 1.1392 0.62628 14
      vertex 1.1392 0.62628 8
    endloop
  endfacet
  facet normal -0.860739 -0.509047 0
    outer loop
      vertex 1.1392 0.62628 14
      vertex 1.09763 0.696575 14
      vertex 1.1392 0.62628 8
    endloop
  endfacet
  facet normal -0.860739 -0.509047 0
    outer loop
      vertex 1.1392 0.62628 8
      vertex 1.09763 0.696575 14
      vertex 1.09763 0.696575 8
    endloop
  endfacet
  facet normal -0.827082 -0.562082 0
    outer loop
      vertex 1.09763 0.696575 14
      vertex 1.05172 0.764121 14
      vertex 1.09763 0.696575 8
    endloop
  endfacet
  facet normal -0.827082 -0.562082 0
    outer loop
      vertex 1.09763 0.696575 8
      vertex 1.05172 0.764121 14
      vertex 1.05172 0.764121 8
    endloop
  endfacet
  facet normal -0.790153 -0.61291 0
    outer loop
      vertex 1.05172 0.764121 14
      vertex 1.00167 0.828651 14
      vertex 1.05172 0.764121 8
    endloop
  endfacet
  facet normal -0.790153 -0.61291 0
    outer loop
      vertex 1.05172 0.764121 8
      vertex 1.00167 0.828651 14
      vertex 1.00167 0.828651 8
    endloop
  endfacet
  facet normal -0.750111 -0.661312 0
    outer loop
      vertex 1.00167 0.828651 14
      vertex 0.947659 0.889911 14
      vertex 1.00167 0.828651 8
    endloop
  endfacet
  facet normal -0.750111 -0.661312 0
    outer loop
      vertex 1.00167 0.828651 8
      vertex 0.947659 0.889911 14
      vertex 0.947659 0.889911 8
    endloop
  endfacet
  facet normal -0.707107 -0.707107 0
    outer loop
      vertex 0.947659 0.889911 8
      vertex 0.947659 0.889911 14
      vertex 0.889911 0.947659 14
    endloop
  endfacet
  facet normal -0.707107 -0.707107 0
    outer loop
      vertex 0.889911 0.947659 8
      vertex 0.947659 0.889911 8
      vertex 0.889911 0.947659 14
    endloop
  endfacet
  facet normal -0.661312 -0.750111 0
    outer loop
      vertex 0.889911 0.947659 8
      vertex 0.889911 0.947659 14
      vertex 0.828651 1.00167 14
    endloop
  endfacet
  facet normal -0.661312 -0.750111 0
    outer loop
      vertex 0.828651 1.00167 8
      vertex 0.889911 0.947659 8
      vertex 0.828651 1.00167 14
    endloop
  endfacet
  facet normal -0.61291 -0.790153 0
    outer loop
      vertex 0.828651 1.00167 8
      vertex 0.828651 1.00167 14
      vertex 0.764121 1.05172 14
    endloop
  endfacet
  facet normal -0.61291 -0.790153 0
    outer loop
      vertex 0.764121 1.05172 8
      vertex 0.828651 1.00167 8
      vertex 0.764121 1.05172 14
    endloop
  endfacet
  facet normal -0.562082 -0.827082 0
    outer loop
      vertex 0.764121 1.05172 8
      vertex 0.764121 1.05172 14
      vertex 0.696575 1.09763 14
    endloop
  endfacet
  facet normal -0.562082 -0.827082 0
    outer loop
      vertex 0.696575 1.09763 8
      vertex 0.764121 1.05172 8
      vertex 0.696575 1.09763 14
    endloop
  endfacet
  facet normal -0.509047 -0.860739 0
    outer loop
      vertex 0.696575 1.09763 8
      vertex 0.696575 1.09763 14
      vertex 0.62628 1.1392 14
    endloop
  endfacet
  facet normal -0.509047 -0.860739 0
    outer loop
      vertex 0.62628 1.1392 8
      vertex 0.696575 1.09763 8
      vertex 0.62628 1.1392 14
    endloop
  endfacet
  facet normal -0.453984 -0.89101 0
    outer loop
      vertex 0.62628 1.1392 8
      vertex 0.62628 1.1392 14
      vertex 0.553513 1.17627 14
    endloop
  endfacet
  facet normal -0.453984 -0.89101 0
    outer loop
      vertex 0.553513 1.17627 8
      vertex 0.62628 1.1392 8
      vertex 0.553513 1.17627 14
    endloop
  endfacet
  facet normal -0.397146 -0.917755 0
    outer loop
      vertex 0.553513 1.17627 8
      vertex 0.553513 1.17627 14
      vertex 0.478562 1.20871 14
    endloop
  endfacet
  facet normal -0.397146 -0.917755 0
    outer loop
      vertex 0.478562 1.20871 8
      vertex 0.553513 1.17627 8
      vertex 0.478562 1.20871 14
    endloop
  endfacet
  facet normal -0.338737 -0.940881 0
    outer loop
      vertex 0.478562 1.20871 8
      vertex 0.478562 1.20871 14
      vertex 0.401722 1.23637 14
    endloop
  endfacet
  facet normal -0.338737 -0.940881 0
    outer loop
      vertex 0.401722 1.23637 8
      vertex 0.478562 1.20871 8
      vertex 0.401722 1.23637 14
    endloop
  endfacet
  facet normal -0.278996 -0.960292 0
    outer loop
      vertex 0.401722 1.23637 8
      vertex 0.401722 1.23637 14
      vertex 0.323297 1.25916 14
    endloop
  endfacet
  facet normal -0.278996 -0.960292 0
    outer loop
      vertex 0.323297 1.25916 8
      vertex 0.401722 1.23637 8
      vertex 0.323297 1.25916 14
    endloop
  endfacet
  facet normal -0.21814 -0.975918 0
    outer loop
      vertex 0.323297 1.25916 8
      vertex 0.323297 1.25916 14
      vertex 0.243596 1.27697 14
    endloop
  endfacet
  facet normal -0.21814 -0.975918 0
    outer loop
      vertex 0.243596 1.27697 8
      vertex 0.323297 1.25916 8
      vertex 0.243596 1.27697 14
    endloop
  endfacet
  facet normal -0.156437 -0.987688 0
    outer loop
      vertex 0.243596 1.27697 8
      vertex 0.243596 1.27697 14
      vertex 0.162933 1.28975 14
    endloop
  endfacet
  facet normal -0.156437 -0.987688 0
    outer loop
      vertex 0.162933 1.28975 8
      vertex 0.243596 1.27697 8
      vertex 0.162933 1.28975 14
    endloop
  endfacet
  facet normal -0.0941133 -0.995561 0
    outer loop
      vertex 0.162933 1.28975 8
      vertex 0.162933 1.28975 14
      vertex 0.081628 1.29743 14
    endloop
  endfacet
  facet normal -0.0941133 -0.995561 0
    outer loop
      vertex 0.081628 1.29743 8
      vertex 0.162933 1.28975 8
      vertex 0.081628 1.29743 14
    endloop
  endfacet
  facet normal -0.0314075 -0.999507 0
    outer loop
      vertex 0.081628 1.29743 8
      vertex 0.081628 1.29743 14
      vertex 0 1.3 14
    endloop
  endfacet
  facet normal -0.0314075 -0.999507 0
    outer loop
      vertex 0 1.3 8
      vertex 0.081628 1.29743 8
      vertex 0 1.3 14
    endloop
  endfacet
  facet normal 0.0314075 -0.999507 0
    outer loop
      vertex 0 1.3 8
      vertex 0 1.3 14
      vertex -0.081628 1.29743 14
    endloop
  endfacet
  facet normal 0.0314075 -0.999507 0
    outer loop
      vertex -0.081628 1.29743 8
      vertex 0 1.3 8
      vertex -0.081628 1.29743 14
    endloop
  endfacet
  facet normal 0.0941133 -0.995561 0
    outer loop
      vertex -0.081628 1.29743 8
      vertex -0.081628 1.29743 14
      vertex -0.162933 1.28975 14
    endloop
  endfacet
  facet normal 0.0941133 -0.995561 0
    outer loop
      vertex -0.162933 1.28975 8
      vertex -0.081628 1.29743 8
      vertex -0.162933 1.28975 14
    endloop
  endfacet
  facet normal 0.156437 -0.987688 0
    outer loop
      vertex -0.162933 1.28975 8
      vertex -0.162933 1.28975 14
      vertex -0.243596 1.27697 14
    endloop
  endfacet
  facet normal 0.156437 -0.987688 0
    outer loop
      vertex -0.243596 1.27697 8
      vertex -0.162933 1.28975 8
      vertex -0.243596 1.27697 14
    endloop
  endfacet
  facet normal 0.21814 -0.975918 0
    outer loop
      vertex -0.243596 1.27697 8
      vertex -0.243596 1.27697 14
      vertex -0.323297 1.25916 14
    endloop
  endfacet
  facet normal 0.21814 -0.975918 0
    outer loop
      vertex -0.323297 1.25916 8
      vertex -0.243596 1.27697 8
      vertex -0.323297 1.25916 14
    endloop
  endfacet
  facet normal 0.278996 -0.960292 0
    outer loop
      vertex -0.323297 1.25916 8
      vertex -0.323297 1.25916 14
      vertex -0.401722 1.23637 14
    endloop
  endfacet
  facet normal 0.278996 -0.960292 0
    outer loop
      vertex -0.401722 1.23637 8
      vertex -0.323297 1.25916 8
      vertex -0.401722 1.23637 14
    endloop
  endfacet
  facet normal 0.338737 -0.940881 0
    outer loop
      vertex -0.401722 1.23637 8
      vertex -0.401722 1.23637 14
      vertex -0.478562 1.20871 14
    endloop
  endfacet
  facet normal 0.338737 -0.940881 0
    outer loop
      vertex -0.478562 1.20871 8
      vertex -0.401722 1.23637 8
      vertex -0.478562 1.20871 14
    endloop
  endfacet
  facet normal 0.397146 -0.917755 0
    outer loop
      vertex -0.478562 1.20871 8
      vertex -0.478562 1.20871 14
      vertex -0.553513 1.17627 14
    endloop
  endfacet
  facet normal 0.397146 -0.917755 0
    outer loop
      vertex -0.553513 1.17627 8
      vertex -0.478562 1.20871 8
      vertex -0.553513 1.17627 14
    endloop
  endfacet
  facet normal 0.453984 -0.89101 0
    outer loop
      vertex -0.553513 1.17627 8
      vertex -0.553513 1.17627 14
      vertex -0.62628 1.1392 14
    endloop
  endfacet
  facet normal 0.453984 -0.89101 0
    outer loop
      vertex -0.62628 1.1392 8
      vertex -0.553513 1.17627 8
      vertex -0.62628 1.1392 14
    endloop
  endfacet
  facet normal 0.509047 -0.860739 0
    outer loop
      vertex -0.62628 1.1392 8
      vertex -0.62628 1.1392 14
      vertex -0.696575 1.09763 14
    endloop
  endfacet
  facet normal 0.509047 -0.860739 0
    outer loop
      vertex -0.696575 1.09763 8
      vertex -0.62628 1.1392 8
      vertex -0.696575 1.09763 14
    endloop
  endfacet
  facet normal 0.562082 -0.827082 0
    outer loop
      vertex -0.696575 1.09763 8
      vertex -0.696575 1.09763 14
      vertex -0.764121 1.05172 14
    endloop
  endfacet
  facet normal 0.562082 -0.827082 0
    outer loop
      vertex -0.764121 1.05172 8
      vertex -0.696575 1.09763 8
      vertex -0.764121 1.05172 14
    endloop
  endfacet
  facet normal 0.61291 -0.790153 0
    outer loop
      vertex -0.764121 1.05172 8
      vertex -0.764121 1.05172 14
      vertex -0.828651 1.00167 14
    endloop
  endfacet
  facet normal 0.61291 -0.790153 0
    outer loop
      vertex -0.828651 1.00167 8
      vertex -0.764121 1.05172 8
      vertex -0.828651 1.00167 14
    endloop
  endfacet
  facet normal 0.661312 -0.750111 0
    outer loop
      vertex -0.828651 1.00167 8
      vertex -0.828651 1.00167 14
      vertex -0.889911 0.947659 14
    endloop
  endfacet
  facet normal 0.661312 -0.750111 0
    outer loop
      vertex -0.889911 0.947659 8
      vertex -0.828651 1.00167 8
      vertex -0.889911 0.947659 14
    endloop
  endfacet
  facet normal 0.707107 -0.707107 0
    outer loop
      vertex -0.889911 0.947659 8
      vertex -0.889911 0.947659 14
      vertex -0.947659 0.889911 14
    endloop
  endfacet
  facet normal 0.707107 -0.707107 0
    outer loop
      vertex -0.947659 0.889911 8
      vertex -0.889911 0.947659 8
      vertex -0.947659 0.889911 14
    endloop
  endfacet
  facet normal 0.750111 -0.661312 0
    outer loop
      vertex -0.947659 0.889911 8
      vertex -0.947659 0.889911 14
      vertex -1.00167 0.828651 14
    endloop
  endfacet
  facet normal 0.750111 -0.661312 0
    outer loop
      vertex -1.00167 0.828651 8
      vertex -0.947659 0.889911 8
      vertex -1.00167 0.828651 14
    endloop
  endfacet
  facet normal 0.790153 -0.61291 0
    outer loop
      vertex -1.00167 0.828651 8
      vertex -1.00167 0.828651 14
      vertex -1.05172 0.764121 14
    endloop
  endfacet
  facet normal 0.790153 -0.61291 0
    outer loop
      vertex -1.05172 0.764121 8
      vertex -1.00167 0.828651 8
      vertex -1.05172 0.764121 14
    endloop
  endfacet
  facet normal 0.827082 -0.562082 0
    outer loop
      vertex -1.05172 0.764121 8
      vertex -1.05172 0.764121 14
      vertex -1.09763 0.696575 14
    endloop
  endfacet
  facet normal 0.827082 -0.562082 0
    outer loop
      vertex -1.09763 0.696575 8
      vertex -1.05172 0.764121 8
      vertex -1.09763 0.696575 14
    endloop
  endfacet
  facet normal 0.860739 -0.509047 0
    outer loop
      vertex -1.09763 0.696575 8
      vertex -1.09763 0.696575 14
      vertex -1.1392 0.62628 14
    endloop
  endfacet
  facet normal 0.860739 -0.509047 0
    outer loop
      vertex -1.1392 0.62628 8
      vertex -1.09763 0.696575 8
      vertex -1.1392 0.62628 14
    endloop
  endfacet
  facet normal 0.89101 -0.453984 0
    outer loop
      vertex -1.1392 0.62628 8
      vertex -1.1392 0.62628 14
      vertex -1.17627 0.553513 14
    endloop
  endfacet
  facet normal 0.89101 -0.453984 0
    outer loop
      vertex -1.17627 0.553513 8
      vertex -1.1392 0.62628 8
      vertex -1.17627 0.553513 14
    endloop
  endfacet
  facet normal 0.917755 -0.397146 0
    outer loop
      vertex -1.17627 0.553513 8
      vertex -1.17627 0.553513 14
      vertex -1.20871 0.478562 14
    endloop
  endfacet
  facet normal 0.917755 -0.397146 0
    outer loop
      vertex -1.20871 0.478562 8
      vertex -1.17627 0.553513 8
      vertex -1.20871 0.478562 14
    endloop
  endfacet
  facet normal 0.940881 -0.338737 0
    outer loop
      vertex -1.20871 0.478562 8
      vertex -1.20871 0.478562 14
      vertex -1.23637 0.401722 14
    endloop
  endfacet
  facet normal 0.940881 -0.338737 0
    outer loop
      vertex -1.23637 0.401722 8
      vertex -1.20871 0.478562 8
      vertex -1.23637 0.401722 14
    endloop
  endfacet
  facet normal 0.960292 -0.278996 0
    outer loop
      vertex -1.23637 0.401722 8
      vertex -1.23637 0.401722 14
      vertex -1.25916 0.323297 14
    endloop
  endfacet
  facet normal 0.960292 -0.278996 0
    outer loop
      vertex -1.25916 0.323297 8
      vertex -1.23637 0.401722 8
      vertex -1.25916 0.323297 14
    endloop
  endfacet
  facet normal 0.975918 -0.21814 0
    outer loop
      vertex -1.25916 0.323297 8
      vertex -1.25916 0.323297 14
      vertex -1.27697 0.243596 14
    endloop
  endfacet
  facet normal 0.975918 -0.21814 0
    outer loop
      vertex -1.27697 0.243596 8
      vertex -1.25916 0.323297 8
      vertex -1.27697 0.243596 14
    endloop
  endfacet
  facet normal 0.987688 -0.156437 0
    outer loop
      vertex -1.27697 0.243596 8
      vertex -1.27697 0.243596 14
      vertex -1.28975 0.162933 14
    endloop
  endfacet
  facet normal 0.987688 -0.156437 0
    outer loop
      vertex -1.28975 0.162933 8
      vertex -1.27697 0.243596 8
      vertex -1.28975 0.162933 14
    endloop
  endfacet
  facet normal 0.995561 -0.0941133 0
    outer loop
      vertex -1.28975 0.162933 8
      vertex -1.28975 0.162933 14
      vertex -1.29743 0.081628 14
    endloop
  endfacet
  facet normal 0.995561 -0.0941133 0
    outer loop
      vertex -1.29743 0.081628 8
      vertex -1.28975 0.162933 8
      vertex -1.29743 0.081628 14
    endloop
  endfacet
  facet normal 0.999507 -0.0314075 0
    outer loop
      vertex -1.29743 0.081628 8
      vertex -1.29743 0.081628 14
      vertex -1.3 0 14
    endloop
  endfacet
  facet normal 0.999507 -0.0314075 0
    outer loop
      vertex -1.3 0 8
      vertex -1.29743 0.081628 8
      vertex -1.3 0 14
    endloop
  endfacet
  facet normal 0 0 1
    outer loop
      vertex -1.29743 0.081628 8
      vertex -1.3 0 8
      vertex -1.29743 -0.081628 8
    endloop
  endfacet
  facet normal 0 0 1
    outer loop
      vertex -1.27697 -0.243596 8
      vertex -1.29743 0.081628 8
      vertex -1.28975 -0.162933 8
    endloop
  endfacet
  facet normal 0 0 1
    outer loop
      vertex -1.28975 -0.162933 8
      vertex -1.29743 0.081628 8
      vertex -1.29743 -0.081628 8
    endloop
  endfacet
  facet normal 0 0 1
    outer loop
      vertex -1.25916 -0.323297 8
      vertex -1.29743 0.081628 8
      vertex -1.27697 -0.243596 8
    endloop
  endfacet
  facet normal 0 0 1
    outer loop
      vertex -1.23637 -0.401722 8
      vertex -1.29743 0.081628 8
      vertex -1.25916 -0.323297 8
    endloop
  endfacet
  facet normal 0 0 1
    outer loop
      vertex -1.20871 -0.478562 8
      vertex -1.29743 0.081628 8
      vertex -1.23637 -0.401722 8
    endloop
  endfacet
  facet normal 0 0 1
    outer loop
      vertex -1.17627 -0.553513 8
      vertex -1.29743 0.081628 8
      vertex -1.20871 -0.478562 8
    endloop
  endfacet
  facet normal 0 0 1
    outer loop
      vertex -1.1392 -0.62628 8
      vertex -1.29743 0.081628 8
      vertex -1.17627 -0.553513 8
    endloop
  endfacet
  facet normal 0 0 1
    outer loop
      vertex -1.09763 -0.696575 8
      vertex -1.29743 0.081628 8
      vertex -1.1392 -0.62628 8
    endloop
  endfacet
  facet normal 0 0 1
    outer loop
      vertex -1.05172 -0.764121 8
      vertex -1.29743 0.081628 8
      vertex -1.09763 -0.696575 8
    endloop
  endfacet
  facet normal 0 0 1
    outer loop
      vertex -1.00167 -0.828651 8
      vertex -1.29743 0.081628 8
      vertex -1.05172 -0.764121 8
    endloop
  endfacet
  facet normal 0 0 1
    outer loop
      vertex -0.947659 -0.889911 8
      vertex -1.29743 0.081628 8
      vertex -1.00167 -0.828651 8
    endloop
  endfacet
  facet normal 0 0 1
    outer loop
      vertex -0.889911 -0.947659 8
      vertex -1.29743 0.081628 8
      vertex -0.947659 -0.889911 8
    endloop
  endfacet
  facet normal 0 0 1
    outer loop
      vertex -0.828651 -1.00167 8
      vertex -1.29743 0.081628 8
      vertex -0.889911 -0.947659 8
    endloop
  endfacet
  facet normal 0 0 1
    outer loop
      vertex -0.764121 -1.05172 8
      vertex -1.29743 0.081628 8
      vertex -0.828651 -1.00167 8
    endloop
  endfacet
  facet normal 0 0 1
    outer loop
      vertex -0.696575 -1.09763 8
      vertex -1.29743 0.081628 8
      vertex -0.764121 -1.05172 8
    endloop
  endfacet
  facet normal 0 0 1
    outer loop
      vertex -0.62628 -1.1392 8
      vertex -1.29743 0.081628 8
      vertex -0.696575 -1.09763 8
    endloop
  endfacet
  facet normal 0 0 1
    outer loop
      vertex -0.553513 -1.17627 8
      vertex -1.29743 0.081628 8
      vertex -0.62628 -1.1392 8
    endloop
  endfacet
  facet normal 0 0 1
    outer loop
      vertex -0.478562 -1.20871 8
      vertex -1.29743 0.081628 8
      vertex -0.553513 -1.17627 8
    endloop
  endfacet
  facet normal 0 0 1
    outer loop
      vertex -0.401722 -1.23637 8
      vertex -1.29743 0.081628 8
      vertex -0.478562 -1.20871 8
    endloop
  endfacet
  facet normal 0 0 1
    outer loop
      vertex -0.323297 -1.25916 8
      vertex -1.29743 0.081628 8
      vertex -0.401722 -1.23637 8
    endloop
  endfacet
  facet normal 0 0 1
    outer loop
      vertex -0.243596 -1.27697 8
      vertex -1.29743 0.081628 8
      vertex -0.323297 -1.25916 8
    endloop
  endfacet
  facet normal 0 0 1
    outer loop
      vertex -0.162933 -1.28975 8
      vertex -1.29743 0.081628 8
      vertex -0.243596 -1.27697 8
    endloop
  endfacet
  facet normal 0 0 1
    outer loop
      vertex -0.081628 -1.29743 8
      vertex -1.29743 0.081628 8
      vertex -0.162933 -1.28975 8
    endloop
  endfacet
  facet normal 0 0 1
    outer loop
      vertex 0 -1.3 8
      vertex -1.29743 0.081628 8
      vertex -0.081628 -1.29743 8
    endloop
  endfacet
  facet normal 0 0 1
    outer loop
      vertex 0.081628 -1.29743 8
      vertex -1.29743 0.081628 8
      vertex 0 -1.3 8
    endloop
  endfacet
  facet normal 0 0 1
    outer loop
      vertex 0.162933 -1.28975 8
      vertex -1.29743 0.081628 8
      vertex 0.081628 -1.29743 8
    endloop
  endfacet
  facet normal 0 0 1
    outer loop
      vertex 0.243596 -1.27697 8
      vertex -1.29743 0.081628 8
      vertex 0.162933 -1.28975 8
    endloop
  endfacet
  facet normal 0 0 1
    outer loop
      vertex 0.323297 -1.25916 8
      vertex -1.29743 0.081628 8
      vertex 0.243596 -1.27697 8
    endloop
  endfacet
  facet normal 0 0 1
    outer loop
      vertex 0.401722 -1.23637 8
      vertex -1.29743 0.081628 8
      vertex 0.323297 -1.25916 8
    endloop
  endfacet
  facet normal 0 0 1
    outer loop
      vertex 0.478562 -1.20871 8
      vertex -1.29743 0.081628 8
      vertex 0.401722 -1.23637 8
    endloop
  endfacet
  facet normal 0 0 1
    outer loop
      vertex 0.553513 -1.17627 8
      vertex -1.29743 0.081628 8
      vertex 0.478562 -1.20871 8
    endloop
  endfacet
  facet normal 0 0 1
    outer loop
      vertex 0.62628 -1.1392 8
      vertex -1.29743 0.081628 8
      vertex 0.553513 -1.17627 8
    endloop
  endfacet
  facet normal 0 0 1
    outer loop
      vertex 0.696575 -1.09763 8
      vertex -1.29743 0.081628 8
      vertex 0.62628 -1.1392 8
    endloop
  endfacet
  facet normal 0 0 1
    outer loop
      vertex 0.764121 -1.05172 8
      vertex -1.29743 0.081628 8
      vertex 0.696575 -1.09763 8
    endloop
  endfacet
  facet normal 0 0 1
    outer loop
      vertex 0.828651 -1.00167 8
      vertex -1.29743 0.081628 8
      vertex 0.764121 -1.05172 8
    endloop
  endfacet
  facet normal 0 0 1
    outer loop
      vertex 0.889911 -0.947659 8
      vertex -1.29743 0.081628 8
      vertex 0.828651 -1.00167 8
    endloop
  endfacet
  facet normal 0 0 1
    outer loop
      vertex 0.947659 -0.889911 8
      vertex -1.29743 0.081628 8
      vertex 0.889911 -0.947659 8
    endloop
  endfacet
  facet normal 0 0 1
    outer loop
      vertex 1.00167 -0.828651 8
      vertex -1.29743 0.081628 8
      vertex 0.947659 -0.889911 8
    endloop
  endfacet
  facet normal 0 0 1
    outer loop
      vertex 1.05172 -0.764121 8
      vertex -1.29743 0.081628 8
      vertex 1.00167 -0.828651 8
    endloop
  endfacet
  facet normal 0 0 1
    outer loop
      vertex 1.09763 -0.696575 8
      vertex -1.29743 0.081628 8
      vertex 1.05172 -0.764121 8
    endloop
  endfacet
  facet normal 0 0 1
    outer loop
      vertex 1.1392 -0.62628 8
      vertex -1.29743 0.081628 8
      vertex 1.09763 -0.696575 8
    endloop
  endfacet
  facet normal 0 0 1
    outer loop
      vertex 1.17627 -0.553513 8
      vertex -1.29743 0.081628 8
      vertex 1.1392 -0.62628 8
    endloop
  endfacet
  facet normal 0 0 1
    outer loop
      vertex 1.20871 -0.478562 8
      vertex -1.29743 0.081628 8
      vertex 1.17627 -0.553513 8
    endloop
  endfacet
  facet normal 0 0 1
    outer loop
      vertex 1.23637 -0.401722 8
      vertex -1.29743 0.081628 8
      vertex 1.20871 -0.478562 8
    endloop
  endfacet
  facet normal 0 0 1
    outer loop
      vertex 1.25916 -0.323297 8
      vertex -1.29743 0.081628 8
      vertex 1.23637 -0.401722 8
    endloop
  endfacet
  facet normal 0 0 1
    outer loop
      vertex 1.27697 -0.243596 8
      vertex -1.29743 0.081628 8
      vertex 1.25916 -0.323297 8
    endloop
  endfacet
  facet normal 0 0 1
    outer loop
      vertex 1.28975 -0.162933 8
      vertex -1.29743 0.081628 8
      vertex 1.27697 -0.243596 8
    endloop
  endfacet
  facet normal 0 0 1
    outer loop
      vertex 1.29743 -0.081628 8
      vertex -1.29743 0.081628 8
      vertex 1.28975 -0.162933 8
    endloop
  endfacet
  facet normal 0 0 1
    outer loop
      vertex 1.3 0 8
      vertex -1.29743 0.081628 8
      vertex 1.29743 -0.081628 8
    endloop
  endfacet
  facet normal 0 0 1
    outer loop
      vertex 1.29743 0.081628 8
      vertex -1.29743 0.081628 8
      vertex 1.3 0 8
    endloop
  endfacet
  facet normal 0 0 1
    outer loop
      vertex 1.28975 0.162933 8
      vertex -1.29743 0.081628 8
      vertex 1.29743 0.081628 8
    endloop
  endfacet
  facet normal 0 0 1
    outer loop
      vertex 1.27697 0.243596 8
      vertex -1.29743 0.081628 8
      vertex 1.28975 0.162933 8
    endloop
  endfacet
  facet normal 0 0 1
    outer loop
      vertex 1.25916 0.323297 8
      vertex -1.29743 0.081628 8
      vertex 1.27697 0.243596 8
    endloop
  endfacet
  facet normal 0 0 1
    outer loop
      vertex 1.23637 0.401722 8
      vertex -1.29743 0.081628 8
      vertex 1.25916 0.323297 8
    endloop
  endfacet
  facet normal 0 0 1
    outer loop
      vertex 1.20871 0.478562 8
      vertex -1.29743 0.081628 8
      vertex 1.23637 0.401722 8
    endloop
  endfacet
  facet normal 0 0 1
    outer loop
      vertex 1.17627 0.553513 8
      vertex -1.29743 0.081628 8
      vertex 1.20871 0.478562 8
    endloop
  endfacet
  facet normal 0 0 1
    outer loop
      vertex 1.1392 0.62628 8
      vertex -1.29743 0.081628 8
      vertex 1.17627 0.553513 8
    endloop
  endfacet
  facet normal 0 0 1
    outer loop
      vertex 1.09763 0.696575 8
      vertex -1.29743 0.081628 8
      vertex 1.1392 0.62628 8
    endloop
  endfacet
  facet normal 0 0 1
    outer loop
      vertex 1.05172 0.764121 8
      vertex -1.29743 0.081628 8
      vertex 1.09763 0.696575 8
    endloop
  endfacet
  facet normal 0 0 1
    outer loop
      vertex 1.00167 0.828651 8
      vertex -1.29743 0.081628 8
      vertex 1.05172 0.764121 8
    endloop
  endfacet
  facet normal 0 0 1
    outer loop
      vertex 0.947659 0.889911 8
      vertex -1.29743 0.081628 8
      vertex 1.00167 0.828651 8
    endloop
  endfacet
  facet normal 0 0 1
    outer loop
      vertex 0.889911 0.947659 8
      vertex -1.29743 0.081628 8
      vertex 0.947659 0.889911 8
    endloop
  endfacet
  facet normal 0 0 1
    outer loop
      vertex 0.828651 1.00167 8
      vertex -1.29743 0.081628 8
      vertex 0.889911 0.947659 8
    endloop
  endfacet
  facet normal 0 0 1
    outer loop
      vertex 0.764121 1.05172 8
      vertex -1.29743 0.081628 8
      vertex 0.828651 1.00167 8
    endloop
  endfacet
  facet normal 0 0 1
    outer loop
      vertex 0.696575 1.09763 8
      vertex -1.29743 0.081628 8
      vertex 0.764121 1.05172 8
    endloop
  endfacet
  facet normal 0 0 1
    outer loop
      vertex 0.62628 1.1392 8
      vertex -1.29743 0.081628 8
      vertex 0.696575 1.09763 8
    endloop
  endfacet
  facet normal 0 0 1
    outer loop
      vertex 0.553513 1.17627 8
      vertex -1.29743 0.081628 8
      vertex 0.62628 1.1392 8
    endloop
  endfacet
  facet normal 0 0 1
    outer loop
      vertex 0.478562 1.20871 8
      vertex -1.29743 0.081628 8
      vertex 0.553513 1.17627 8
    endloop
  endfacet
  facet normal 0 0 1
    outer loop
      vertex 0.401722 1.23637 8
      vertex -1.29743 0.081628 8
      vertex 0.478562 1.20871 8
    endloop
  endfacet
  facet normal 0 0 1
    outer loop
      vertex 0.323297 1.25916 8
      vertex -1.29743 0.081628 8
      vertex 0.401722 1.23637 8
    endloop
  endfacet
  facet normal 0 0 1
    outer loop
      vertex 0.243596 1.27697 8
      vertex -1.29743 0.081628 8
      vertex 0.323297 1.25916 8
    endloop
  endfacet
  facet normal 0 0 1
    outer loop
      vertex 0.162933 1.28975 8
      vertex -1.29743 0.081628 8
      vertex 0.243596 1.27697 8
    endloop
  endfacet
  facet normal 0 0 1
    outer loop
      vertex 0.081628 1.29743 8
      vertex -1.29743 0.081628 8
      vertex 0.162933 1.28975 8
    endloop
  endfacet
  facet normal 0 0 1
    outer loop
      vertex 0 1.3 8
      vertex -1.29743 0.081628 8
      vertex 0.081628 1.29743 8
    endloop
  endfacet
  facet normal 0 0 1
    outer loop
      vertex -0.081628 1.29743 8
      vertex -1.29743 0.081628 8
      vertex 0 1.3 8
    endloop
  endfacet
  facet normal 0 0 1
    outer loop
      vertex -0.162933 1.28975 8
      vertex -1.29743 0.081628 8
      vertex -0.081628 1.29743 8
    endloop
  endfacet
  facet normal 0 0 1
    outer loop
      vertex -0.243596 1.27697 8
      vertex -1.29743 0.081628 8
      vertex -0.162933 1.28975 8
    endloop
  endfacet
  facet normal 0 0 1
    outer loop
      vertex -0.323297 1.25916 8
      vertex -1.29743 0.081628 8
      vertex -0.243596 1.27697 8
    endloop
  endfacet
  facet normal 0 0 1
    outer loop
      vertex -0.401722 1.23637 8
      vertex -1.29743 0.081628 8
      vertex -0.323297 1.25916 8
    endloop
  endfacet
  facet normal 0 0 1
    outer loop
      vertex -0.478562 1.20871 8
      vertex -1.29743 0.081628 8
      vertex -0.401722 1.23637 8
    endloop
  endfacet
  facet normal 0 0 1
    outer loop
      vertex -0.553513 1.17627 8
      vertex -1.29743 0.081628 8
      vertex -0.478562 1.20871 8
    endloop
  endfacet
  facet normal 0 0 1
    outer loop
      vertex -0.62628 1.1392 8
      vertex -1.29743 0.081628 8
      vertex -0.553513 1.17627 8
    endloop
  endfacet
  facet normal 0 0 1
    outer loop
      vertex -0.696575 1.09763 8
      vertex -1.29743 0.081628 8
      vertex -0.62628 1.1392 8
    endloop
  endfacet
  facet normal 0 0 1
    outer loop
      vertex -0.764121 1.05172 8
      vertex -1.29743 0.081628 8
      vertex -0.696575 1.09763 8
    endloop
  endfacet
  facet normal 0 0 1
    outer loop
      vertex -0.828651 1.00167 8
      vertex -1.29743 0.081628 8
      vertex -0.764121 1.05172 8
    endloop
  endfacet
  facet normal 0 0 1
    outer loop
      vertex -0.889911 0.947659 8
      vertex -1.29743 0.081628 8
      vertex -0.828651 1.00167 8
    endloop
  endfacet
  facet normal 0 0 1
    outer loop
      vertex -0.947659 0.889911 8
      vertex -1.29743 0.081628 8
      vertex -0.889911 0.947659 8
    endloop
  endfacet
  facet normal 0 0 1
    outer loop
      vertex -1.00167 0.828651 8
      vertex -1.29743 0.081628 8
      vertex -0.947659 0.889911 8
    endloop
  endfacet
  facet normal 0 0 1
    outer loop
      vertex -1.05172 0.764121 8
      vertex -1.29743 0.081628 8
      vertex -1.00167 0.828651 8
    endloop
  endfacet
  facet normal 0 0 1
    outer loop
      vertex -1.09763 0.696575 8
      vertex -1.29743 0.081628 8
      vertex -1.05172 0.764121 8
    endloop
  endfacet
  facet normal 0 0 1
    outer loop
      vertex -1.1392 0.62628 8
      vertex -1.29743 0.081628 8
      vertex -1.09763 0.696575 8
    endloop
  endfacet
  facet normal 0 0 1
    outer loop
      vertex -1.17627 0.553513 8
      vertex -1.29743 0.081628 8
      vertex -1.1392 0.62628 8
    endloop
  endfacet
  facet normal 0 0 1
    outer loop
      vertex -1.20871 0.478562 8
      vertex -1.29743 0.081628 8
      vertex -1.17627 0.553513 8
    endloop
  endfacet
  facet normal 0 0 1
    outer loop
      vertex -1.23637 0.401722 8
      vertex -1.29743 0.081628 8
      vertex -1.20871 0.478562 8
    endloop
  endfacet
  facet normal 0 0 1
    outer loop
      vertex -1.25916 0.323297 8
      vertex -1.29743 0.081628 8
      vertex -1.23637 0.401722 8
    endloop
  endfacet
  facet normal 0 0 1
    outer loop
      vertex -1.27697 0.243596 8
      vertex -1.29743 0.081628 8
      vertex -1.25916 0.323297 8
    endloop
  endfacet
  facet normal 0 0 1
    outer loop
      vertex -1.28975 0.162933 8
      vertex -1.29743 0.081628 8
      vertex -1.27697 0.243596 8
    endloop
  endfacet
endsolid OpenSCAD_Model
