solid OpenSCAD_Model
  facet normal 0 0 -1
    outer loop
      vertex -3.35823 -0.986064 0
      vertex -3.35823 0.986064 0
      vertex -2.29201 -2.64512 0
    endloop
  endfacet
  facet normal 0 0 -1
    outer loop
      vertex -2.29201 -2.64512 0
      vertex -3.35823 0.986064 0
      vertex -2.29201 2.64512 0
    endloop
  endfacet
  facet normal 0 0 -1
    outer loop
      vertex -1.81996 0.876445 0
      vertex -2.29201 2.64512 0
      vertex -0.498102 3.46437 0
    endloop
  endfacet
  facet normal 0 0 -1
    outer loop
      vertex 0 3.39276 0
      vertex 0 4.5 0
      vertex 6 4.5 0
    endloop
  endfacet
  facet normal 0 0 -1
    outer loop
      vertex 1.25945 -1.5793 0
      vertex 6 4.5 0
      vertex 6 -4.5 0
    endloop
  endfacet
  facet normal 0 0 -1
    outer loop
      vertex 0 -3.39276 0
      vertex 6 -4.5 0
      vertex 0 -4.5 0
    endloop
  endfacet
  facet normal 0 0 -1
    outer loop
      vertex -2.29201 -2.64512 0
      vertex 6 -4.5 0
      vertex 0 -3.39276 0
    endloop
  endfacet
  facet normal 0 0 -1
    outer loop
      vertex -2.29201 -2.64512 0
      vertex 0 -3.39276 0
      vertex -0.498102 -3.46437 0
    endloop
  endfacet
  facet normal 0 0 -1
    outer loop
      vertex -2.29201 -2.64512 0
      vertex -2.29201 2.64512 0
      vertex -1.81996 0.876445 0
    endloop
  endfacet
  facet normal 0 0 -1
    outer loop
      vertex -0.449492 -1.96935 0
      vertex -2.29201 -2.64512 0
      vertex -1.81996 -0.876445 0
    endloop
  endfacet
  facet normal 0 0 -1
    outer loop
      vertex -2.29201 -2.64512 0
      vertex -1.81996 0.876445 0
      vertex -1.81996 -0.876445 0
    endloop
  endfacet
  facet normal 0 0 -1
    outer loop
      vertex 1.25945 1.5793 0
      vertex 6 4.5 0
      vertex 2.02 0 0
    endloop
  endfacet
  facet normal 0 0 -1
    outer loop
      vertex -2.29201 -2.64512 0
      vertex -0.449492 -1.96935 0
      vertex 6 -4.5 0
    endloop
  endfacet
  facet normal 0 0 -1
    outer loop
      vertex 2.02 0 0
      vertex 6 4.5 0
      vertex 1.25945 -1.5793 0
    endloop
  endfacet
  facet normal 0 0 -1
    outer loop
      vertex -0.449492 -1.96935 0
      vertex 1.25945 -1.5793 0
      vertex 6 -4.5 0
    endloop
  endfacet
  facet normal 0 0 -1
    outer loop
      vertex 0 3.39276 0
      vertex 6 4.5 0
      vertex 1.25945 1.5793 0
    endloop
  endfacet
  facet normal 0 0 -1
    outer loop
      vertex 0 3.39276 0
      vertex 1.25945 1.5793 0
      vertex -0.449492 1.96935 0
    endloop
  endfacet
  facet normal 0 0 -1
    outer loop
      vertex -1.81996 0.876445 0
      vertex -0.498102 3.46437 0
      vertex 0 3.39276 0
    endloop
  endfacet
  facet normal 0 0 -1
    outer loop
      vertex -1.81996 0.876445 0
      vertex 0 3.39276 0
      vertex -0.449492 1.96935 0
    endloop
  endfacet
  facet normal -1 0 0
    outer loop
      vertex -3.35823 -0.986064 0
      vertex -3.35823 -0.986064 5
      vertex -3.35823 0.986064 0
    endloop
  endfacet
  facet normal -1 0 0
    outer loop
      vertex -3.35823 0.986064 0
      vertex -3.35823 -0.986064 5
      vertex -3.35823 0.986064 5
    endloop
  endfacet
  facet normal -0.841254 -0.54064 0
    outer loop
      vertex -3.35823 -0.986064 0
      vertex -2.29201 -2.64512 0
      vertex -3.35823 -0.986064 5
    endloop
  endfacet
  facet normal -0.841254 -0.54064 0
    outer loop
      vertex -3.35823 -0.986064 5
      vertex -2.29201 -2.64512 0
      vertex -2.29201 -2.64512 5
    endloop
  endfacet
  facet normal -0.415415 -0.909632 0
    outer loop
      vertex -2.29201 -2.64512 5
      vertex -2.29201 -2.64512 0
      vertex -0.498102 -3.46437 0
    endloop
  endfacet
  facet normal -0.415415 -0.909632 0
    outer loop
      vertex -0.498102 -3.46437 5
      vertex -2.29201 -2.64512 5
      vertex -0.498102 -3.46437 0
    endloop
  endfacet
  facet normal 0.142315 -0.989821 0
    outer loop
      vertex -0.498102 -3.46437 5
      vertex -0.498102 -3.46437 0
      vertex 0 -3.39276 0
    endloop
  endfacet
  facet normal 0.142315 -0.989821 0
    outer loop
      vertex 1.45395 -3.18371 4.8
      vertex -0.498102 -3.46437 5
      vertex 0 -3.39276 4.8
    endloop
  endfacet
  facet normal 0.142315 -0.989821 0
    outer loop
      vertex 0 -3.39276 4.8
      vertex -0.498102 -3.46437 5
      vertex 0 -3.39276 0
    endloop
  endfacet
  facet normal 0.142315 -0.989821 0
    outer loop
      vertex 1.45395 -3.18371 5
      vertex -0.498102 -3.46437 5
      vertex 1.45395 -3.18371 4.8
    endloop
  endfacet
  facet normal -1 0 0
    outer loop
      vertex 0 -4.5 0
      vertex 0 -4.5 4.8
      vertex 0 -3.39276 0
    endloop
  endfacet
  facet normal -1 0 0
    outer loop
      vertex 0 -3.39276 0
      vertex 0 -4.5 4.8
      vertex 0 -3.39276 4.8
    endloop
  endfacet
  facet normal 0 -1 0
    outer loop
      vertex 0 -4.5 4.8
      vertex 0 -4.5 0
      vertex 6 -4.5 0
    endloop
  endfacet
  facet normal 0 -1 0
    outer loop
      vertex 6 -4.5 4.8
      vertex 0 -4.5 4.8
      vertex 6 -4.5 0
    endloop
  endfacet
  facet normal 1 0 0
    outer loop
      vertex 6 -4.5 4.8
      vertex 6 -4.5 0
      vertex 6 4.5 0
    endloop
  endfacet
  facet normal 1 0 0
    outer loop
      vertex 6 4.5 4.8
      vertex 6 -4.5 4.8
      vertex 6 4.5 0
    endloop
  endfacet
  facet normal 0 1 0
    outer loop
      vertex 0 4.5 0
      vertex 0 4.5 4.8
      vertex 6 4.5 0
    endloop
  endfacet
  facet normal 0 1 0
    outer loop
      vertex 6 4.5 0
      vertex 0 4.5 4.8
      vertex 6 4.5 4.8
    endloop
  endfacet
  facet normal -1 0 0
    outer loop
      vertex 0 3.39276 0
      vertex 0 3.39276 4.8
      vertex 0 4.5 0
    endloop
  endfacet
  facet normal -1 0 0
    outer loop
      vertex 0 4.5 0
      vertex 0 3.39276 4.8
      vertex 0 4.5 4.8
    endloop
  endfacet
  facet normal 0.142315 0.989821 0
    outer loop
      vertex -0.498102 3.46437 0
      vertex -0.498102 3.46437 5
      vertex 0 3.39276 0
    endloop
  endfacet
  facet normal 0.142315 0.989821 0
    outer loop
      vertex 0 3.39276 4.8
      vertex -0.498102 3.46437 5
      vertex 1.45395 3.18371 5
    endloop
  endfacet
  facet normal 0.142315 0.989821 0
    outer loop
      vertex 0 3.39276 0
      vertex -0.498102 3.46437 5
      vertex 0 3.39276 4.8
    endloop
  endfacet
  facet normal 0.142315 0.989821 0
    outer loop
      vertex 0 3.39276 4.8
      vertex 1.45395 3.18371 5
      vertex 1.45395 3.18371 4.8
    endloop
  endfacet
  facet normal -0.415415 0.909632 0
    outer loop
      vertex -2.29201 2.64512 0
      vertex -2.29201 2.64512 5
      vertex -0.498102 3.46437 0
    endloop
  endfacet
  facet normal -0.415415 0.909632 0
    outer loop
      vertex -0.498102 3.46437 0
      vertex -2.29201 2.64512 5
      vertex -0.498102 3.46437 5
    endloop
  endfacet
  facet normal -0.841254 0.54064 0
    outer loop
      vertex -3.35823 0.986064 0
      vertex -3.35823 0.986064 5
      vertex -2.29201 2.64512 0
    endloop
  endfacet
  facet normal -0.841254 0.54064 0
    outer loop
      vertex -2.29201 2.64512 0
      vertex -3.35823 0.986064 5
      vertex -2.29201 2.64512 5
    endloop
  endfacet
  facet normal 1 0 0
    outer loop
      vertex -1.81996 0.876445 0
      vertex -1.81996 0.876445 5
      vertex -1.81996 -0.876445 5
    endloop
  endfacet
  facet normal 1 0 0
    outer loop
      vertex -1.81996 -0.876445 0
      vertex -1.81996 0.876445 0
      vertex -1.81996 -0.876445 5
    endloop
  endfacet
  facet normal 0.62349 -0.781832 0
    outer loop
      vertex -0.449492 1.96935 0
      vertex -0.449492 1.96935 5
      vertex -1.81996 0.876445 5
    endloop
  endfacet
  facet normal 0.62349 -0.781832 0
    outer loop
      vertex -1.81996 0.876445 0
      vertex -0.449492 1.96935 0
      vertex -1.81996 0.876445 5
    endloop
  endfacet
  facet normal -0.222521 -0.974928 0
    outer loop
      vertex 1.25945 1.5793 0
      vertex 1.25945 1.5793 5
      vertex -0.449492 1.96935 5
    endloop
  endfacet
  facet normal -0.222521 -0.974928 0
    outer loop
      vertex -0.449492 1.96935 0
      vertex 1.25945 1.5793 0
      vertex -0.449492 1.96935 5
    endloop
  endfacet
  facet normal -0.900969 -0.433884 0
    outer loop
      vertex 2.02 0 5
      vertex 1.25945 1.5793 5
      vertex 2.02 0 0
    endloop
  endfacet
  facet normal -0.900969 -0.433884 0
    outer loop
      vertex 2.02 0 0
      vertex 1.25945 1.5793 5
      vertex 1.25945 1.5793 0
    endloop
  endfacet
  facet normal -0.900969 0.433884 0
    outer loop
      vertex 2.02 0 5
      vertex 2.02 0 0
      vertex 1.25945 -1.5793 5
    endloop
  endfacet
  facet normal -0.900969 0.433884 0
    outer loop
      vertex 1.25945 -1.5793 5
      vertex 2.02 0 0
      vertex 1.25945 -1.5793 0
    endloop
  endfacet
  facet normal -0.222521 0.974928 0
    outer loop
      vertex 1.25945 -1.5793 5
      vertex 1.25945 -1.5793 0
      vertex -0.449492 -1.96935 5
    endloop
  endfacet
  facet normal -0.222521 0.974928 0
    outer loop
      vertex -0.449492 -1.96935 5
      vertex 1.25945 -1.5793 0
      vertex -0.449492 -1.96935 0
    endloop
  endfacet
  facet normal 0.62349 0.781832 0
    outer loop
      vertex -0.449492 -1.96935 5
      vertex -0.449492 -1.96935 0
      vertex -1.81996 -0.876445 5
    endloop
  endfacet
  facet normal 0.62349 0.781832 0
    outer loop
      vertex -1.81996 -0.876445 5
      vertex -0.449492 -1.96935 0
      vertex -1.81996 -0.876445 0
    endloop
  endfacet
  facet normal 0 0 1
    outer loop
      vertex -3.35823 0.986064 5
      vertex -3.35823 -0.986064 5
      vertex -2.29201 -2.64512 5
    endloop
  endfacet
  facet normal 0 0 1
    outer loop
      vertex -1.81996 -0.876445 5
      vertex -3.35823 0.986064 5
      vertex -0.498102 -3.46437 5
    endloop
  endfacet
  facet normal 0 0 1
    outer loop
      vertex -0.498102 -3.46437 5
      vertex -3.35823 0.986064 5
      vertex -2.29201 -2.64512 5
    endloop
  endfacet
  facet normal 0 0 1
    outer loop
      vertex -1.81996 0.876445 5
      vertex -0.449492 1.96935 5
      vertex -3.35823 0.986064 5
    endloop
  endfacet
  facet normal 0 0 1
    outer loop
      vertex -0.449492 1.96935 5
      vertex 1.25945 1.5793 5
      vertex 2.94439 1.89224 5
    endloop
  endfacet
  facet normal 0 0 1
    outer loop
      vertex -0.498102 3.46437 5
      vertex -3.35823 0.986064 5
      vertex 1.45395 3.18371 5
    endloop
  endfacet
  facet normal 0 0 1
    outer loop
      vertex -2.29201 2.64512 5
      vertex -3.35823 0.986064 5
      vertex -0.498102 3.46437 5
    endloop
  endfacet
  facet normal 0 0 1
    outer loop
      vertex -0.449492 -1.96935 5
      vertex -1.81996 -0.876445 5
      vertex -0.498102 -3.46437 5
    endloop
  endfacet
  facet normal 0 0 1
    outer loop
      vertex 2.02 0 5
      vertex 1.25945 -1.5793 5
      vertex 2.94439 -1.89224 5
    endloop
  endfacet
  facet normal 0 0 1
    outer loop
      vertex 1.25945 1.5793 5
      vertex 2.02 0 5
      vertex 3.5 0 5
    endloop
  endfacet
  facet normal 0 0 1
    outer loop
      vertex 1.45395 3.18371 5
      vertex -0.449492 1.96935 5
      vertex 2.94439 1.89224 5
    endloop
  endfacet
  facet normal 0 0 1
    outer loop
      vertex 1.45395 3.18371 5
      vertex -3.35823 0.986064 5
      vertex -0.449492 1.96935 5
    endloop
  endfacet
  facet normal 0 0 1
    outer loop
      vertex 1.25945 -1.5793 5
      vertex -0.449492 -1.96935 5
      vertex 1.45395 -3.18371 5
    endloop
  endfacet
  facet normal 0 0 1
    outer loop
      vertex 1.25945 1.5793 5
      vertex 3.5 0 5
      vertex 2.94439 1.89224 5
    endloop
  endfacet
  facet normal 0 0 1
    outer loop
      vertex 3.5 0 5
      vertex 2.02 0 5
      vertex 2.94439 -1.89224 5
    endloop
  endfacet
  facet normal 0 0 1
    outer loop
      vertex 2.94439 -1.89224 5
      vertex 1.25945 -1.5793 5
      vertex 1.45395 -3.18371 5
    endloop
  endfacet
  facet normal 0 0 1
    outer loop
      vertex 1.45395 -3.18371 5
      vertex -0.449492 -1.96935 5
      vertex -0.498102 -3.46437 5
    endloop
  endfacet
  facet normal 0 0 1
    outer loop
      vertex -1.81996 -0.876445 5
      vertex -1.81996 0.876445 5
      vertex -3.35823 0.986064 5
    endloop
  endfacet
  facet normal 0.654861 -0.755749 0
    outer loop
      vertex 1.45395 -3.18371 5
      vertex 1.45395 -3.18371 4.8
      vertex 2.94439 -1.89224 4.8
    endloop
  endfacet
  facet normal 0.654861 -0.755749 0
    outer loop
      vertex 2.94439 -1.89224 5
      vertex 1.45395 -3.18371 5
      vertex 2.94439 -1.89224 4.8
    endloop
  endfacet
  facet normal 0 0 1
    outer loop
      vertex 0 -3.39276 4.8
      vertex 0 -4.5 4.8
      vertex 6 -4.5 4.8
    endloop
  endfacet
  facet normal 0 0 1
    outer loop
      vertex 1.45395 -3.18371 4.8
      vertex 0 -3.39276 4.8
      vertex 6 -4.5 4.8
    endloop
  endfacet
  facet normal 0 0 1
    outer loop
      vertex 0 4.5 4.8
      vertex 0 3.39276 4.8
      vertex 6 4.5 4.8
    endloop
  endfacet
  facet normal 0 0 1
    outer loop
      vertex 0 3.39276 4.8
      vertex 1.45395 3.18371 4.8
      vertex 6 4.5 4.8
    endloop
  endfacet
  facet normal 0 0 1
    outer loop
      vertex 1.45395 3.18371 4.8
      vertex 2.94439 1.89224 4.8
      vertex 6 4.5 4.8
    endloop
  endfacet
  facet normal 0 0 1
    outer loop
      vertex 6 4.5 4.8
      vertex 3.5 0 4.8
      vertex 6 -4.5 4.8
    endloop
  endfacet
  facet normal 0 0 1
    outer loop
      vertex 3.5 0 4.8
      vertex 2.94439 -1.89224 4.8
      vertex 6 -4.5 4.8
    endloop
  endfacet
  facet normal 0 0 1
    outer loop
      vertex 2.94439 -1.89224 4.8
      vertex 1.45395 -3.18371 4.8
      vertex 6 -4.5 4.8
    endloop
  endfacet
  facet normal 0 0 1
    outer loop
      vertex 2.94439 1.89224 4.8
      vertex 3.5 0 4.8
      vertex 6 4.5 4.8
    endloop
  endfacet
  facet normal 0.654861 0.755749 0
    outer loop
      vertex 1.45395 3.18371 4.8
      vertex 1.45395 3.18371 5
      vertex 2.94439 1.89224 4.8
    endloop
  endfacet
  facet normal 0.654861 0.755749 0
    outer loop
      vertex 2.94439 1.89224 4.8
      vertex 1.45395 3.18371 5
      vertex 2.94439 1.89224 5
    endloop
  endfacet
  facet normal 0.959493 0.281733 0
    outer loop
      vertex 3.5 0 4.8
      vertex 2.94439 1.89224 4.8
      vertex 2.94439 1.89224 5
    endloop
  endfacet
  facet normal 0.959493 0.281733 0
    outer loop
      vertex 3.5 0 5
      vertex 3.5 0 4.8
      vertex 2.94439 1.89224 5
    endloop
  endfacet
  facet normal 0.959493 -0.281733 0
    outer loop
      vertex 2.94439 -1.89224 5
      vertex 2.94439 -1.89224 4.8
      vertex 3.5 0 4.8
    endloop
  endfacet
  facet normal 0.959493 -0.281733 0
    outer loop
      vertex 3.5 0 5
      vertex 2.94439 -1.89224 5
      vertex 3.5 0 4.8
    endloop
  endfacet
endsolid OpenSCAD_Model
