**ABCDEFGHIJKLMNOPQRSTUVWXYZabcdefghijklmnopqrstuvwxyz**************************
**PARASOLID !"#$%&'()*+,-./:;<=>?@[\]^_`{|}~0123456789**************************
**PART1;
MC=AMD64;
MC_MODEL=Intel64 Family 6 Model 30 Stepping 5, GenuineIntel;
MC_ID=unknown;
OS=Windows_NT;
OS_RELEASE=unknown;
FRU=Parasolid Version 24.1, build 257,  2-12-2013;
APPL=SolidWorks 2013-2013086;
SITE=;
USER=unknown;
FORMAT=text;
GUISE=transmit;
KEY=makeProjectedPlanarWire;
FILE=makeProjectedPlanarWire.x_t;
DATE=Tue Sep 30 13:56:11 2014;
**PART2;
SCH=SCH_2401257_20000;
USFLD_SIZE=0;
**PART3;
**END_OF_HEADER*****************************************************************
T51 : TRANSMIT FILE created by modeller version 240125723 SCH_2401257_20000_1300
6189 0 12 27 CCCCCCCCCCCCCCCCCCCCCCCA16 index_map_offset0 0 1 dA9 index_map82 0
 A17 node_id_index_map82 0 A20 schema_embedding_map82 0 Z1 104 0 2 0 0 0 0 1e3 1
e-8 0 3 0 1 0 3 1 4 5 6 7 8 9 10 0 0 0 0 70 11 CI9 list_type0 0 1 uI10 notransmi
t0 0 1 lCCCDCCDI12 finger_index0 0 1 dI12 finger_block1012 0 CZ2 0 4 T1 0 0 1 20
 1 11 11 13 255 4 100 0 1 0 12 0 0 8 12 50 255 5 2 0 12 0 0 0 +-.0014 .009959292
14352104 -.00979145188432739 0 1 176086316491719e-30 0 -176086316491719e-30 1 30
 255 6 45 0 9 13 0 0 +-.00093969262078591 .00995929214352104 .000342020143325664
5 .342020143325666 1654670122286405e-31 .939692620785909 29 255 7 93 0 10 14 0 .
000434526937884629 .00995929214352104 .0041176573501459 19 255 8 99 0 1 0 0 4 V1
6 255 9 44 0 ?15 0 16 6 0 0 1 18 255 10 91 0 17 0 18 7 ?1 17 255 17 0 0 0 0 10 1
9 20 0 21 +18 18 88 0 22 10 23 14 ?1 17 22 0 24 21 25 18 26 16 0 15 +18 23 85 0
 25 18 27 28 ?1 29 14 90 0 18 28 7 .0014 .00995929214352104 .00677027278739961 2
9 28 87 0 23 29 14 .0014 .00995929214352104 .00979145188432739 29 29 84 0 27 30
 28 -.0014 .00995929214352104 .00979145188432739 18 27 82 0 31 23 32 29 ?1 29 30
 81 0 32 33 29 -.0014 .00995929214352104 .00677027278739961 18 32 79 0 34 27 35
 30 ?1 29 33 78 0 35 36 30 -.000434526937884629 .00995929214352104 .004117657350
1459 18 35 76 0 37 32 38 33 ?1 29 36 75 0 38 39 33 -.0014 .00995929214352104 .00
376625389355006 18 38 73 0 40 35 41 36 ?1 29 39 72 0 41 42 36 -.0014 .0099592921
4352104 -.003766253893550065 18 41 70 0 43 38 44 39 ?1 29 42 69 0 44 45 39 -.000
434526937884628 .00995929214352104 -.004117657350145895 18 44 67 0 46 41 47 42 ?
1 29 45 66 0 47 48 42 -.0014 .00995929214352104 -.00677027278739962 18 47 64 0 4
9 44 50 45 ?1 29 48 63 0 50 51 45 -.0014 .00995929214352104 -.00979145188432739
 18 50 61 0 52 47 53 48 ?1 29 51 60 0 53 54 48 .0014 .00995929214352104 -.009791
45188432739 18 53 58 0 55 50 56 51 ?1 29 54 57 0 56 57 51 .0014 .009959292143521
04 -.00677027278739962 18 56 55 0 58 53 59 54 ?1 29 57 54 0 59 60 54 .0004345269
37884628 .00995929214352104 -.004117657350145895 18 59 52 0 61 56 62 57 ?1 29 60
 51 0 62 63 57 .0014 .00995929214352104 -.003766253893550065 18 62 49 0 64 59 65
 60 ?1 29 63 48 0 65 0 60 .0014 .00995929214352104 .00376625389355006 18 65 46 0
 19 62 0 63 ?1 17 19 0 24 64 21 65 17 20 0 66 -15 255 24 9 0 19 12 0 17 64 0 24
 61 19 62 66 67 0 68 -17 21 0 24 19 22 10 15 9 0 0 -16 20 16 0 ?17 67 69 70 0 0
 1 17 66 0 0 0 0 65 64 67 0 0 +16 67 18 0 ?66 71 20 72 73 73 1 16 71 20 0 ?61 74
 67 75 0 0 1 30 72 19 0 67 70 75 0 +.0014 .00995929214352104 -.00979145188432739
 0 -176086316491719e-30 1 16 73 24 0 ?76 77 74 72 67 67 1 17 76 0 0 0 0 56 55 73
 0 0 +16 77 25 0 ?78 79 73 80 0 0 1 16 74 22 0 ?81 73 71 82 0 0 1 17 81 0 0 0 0
 59 58 74 0 0 +30 82 23 0 74 75 80 0 +-.00093969262078591 .00995929214352104 -.0
003420201433256645 -.342020143325666 -1654670122286405e-31 .939692620785909 30 7
5 21 0 71 72 82 0 +.000434526937884628 .00995929214352104 -.0041176573501459 -.9
39692620785909 602250672041863e-31 -.342020143325666 30 80 26 0 77 82 83 0 +-.00
14 .00995929214352104 -.00979145188432739 1 0 0 30 83 28 0 79 80 84 0 +-.0014 .0
0995929214352104 -.00979145188432739 0 -176086316491719e-30 1 16 79 27 0 ?49 85
 77 83 86 86 1 30 84 30 0 85 83 87 0 +.00093969262078591 .00995929214352104 -.00
03420201433256645 -.342020143325666 1654670122286405e-31 -.939692620785909 16 85
 29 0 ?88 89 79 84 0 0 1 30 87 32 0 89 84 90 0 +-.000434526937884628 .0099592921
4352104 -.0041176573501459 -.939692620785909 -602250672041863e-31 .3420201433256
66 16 89 31 0 ?43 86 85 87 0 0 1 30 90 35 0 91 87 92 0 +-.002313912179456445 .00
995929214352104 .003433617063494565 -.939692620785909 -602250672041863e-31 -.342
020143325666 16 91 34 0 ?93 94 86 90 0 0 1 30 92 37 0 94 90 95 0 +.0009396926207
8591 .00995929214352104 .0003420201433256645 .342020143325666 -1654670122286405e
-31 -.939692620785909 16 94 36 0 ?96 97 91 92 0 0 1 30 95 39 0 97 92 98 0 +-.001
4 .00995929214352104 .00979145188432739 0 -176086316491719e-30 -1 16 97 38 0 ?99
 100 94 95 0 0 1 30 98 41 0 100 95 13 0 +-.0014 .00995929214352104 .009791451884
32739 1 0 0 16 100 40 0 ?25 16 97 98 0 0 1 30 13 43 0 16 98 6 0 +.0014 .00995929
214352104 .00979145188432739 0 -176086316491719e-30 -1 16 16 42 0 ?22 9 100 13 0
 0 1 17 25 0 24 22 31 23 101 100 0 26 +17 31 0 24 25 34 27 99 97 0 101 -17 101 0
 0 0 0 27 25 100 0 0 -17 26 0 0 0 0 23 22 16 0 0 -17 34 0 24 31 37 32 96 94 0 99
 -17 99 0 0 0 0 32 31 97 0 0 +17 37 0 24 34 40 35 93 91 0 96 -17 96 0 0 0 0 35 3
4 94 0 0 +17 40 0 24 37 43 38 102 86 0 93 +17 93 0 0 0 0 38 37 91 0 0 +17 43 0 2
4 40 46 41 103 89 0 102 +17 102 0 0 0 0 41 40 86 0 0 -16 86 33 0 ?40 91 89 83 79
 79 1 17 46 0 24 43 49 44 88 85 0 103 -17 103 0 0 0 0 44 43 89 0 0 -17 49 0 24 4
6 52 47 104 79 0 88 +17 88 0 0 0 0 47 46 85 0 0 +17 52 0 24 49 55 50 78 77 0 104
 -17 104 0 0 0 0 50 49 79 0 0 -17 55 0 24 52 58 53 76 73 0 78 -17 78 0 0 0 0 53
 52 77 0 0 +17 58 0 24 55 61 56 81 74 0 76 -17 61 0 24 58 64 59 68 71 0 81 +17 6
8 0 0 0 0 62 61 71 0 0 -30 70 17 0 20 105 72 0 +.002313912179456445 .00995929214
352104 .003433617063494565 -.939692620785909 602250672041863e-31 .34202014332566
6 31 255 105 15 0 69 106 70 0 +0 .00995929214352104 1753695068417535e-33 0 1 176
086316491719e-30 0 -176086316491719e-30 1 8e-4 16 69 14 0 ?107 20 108 105 0 0 1
 31 106 13 0 108 109 105 0 +0 .00995929214352104 -.00225 0 1 176086316491719e-30
 0 -176086316491719e-30 1 8e-4 16 108 12 0 ?110 69 111 106 0 0 1 31 109 11 0 111
 0 106 0 +0 .00995929214352104 .00225 0 1 176086316491719e-30 0 -176086316491719
e-30 1 8e-4 16 111 10 0 ?112 108 0 109 0 0 1 17 112 0 0 0 0 0 113 111 0 0 +17 11
3 0 114 113 113 0 112 111 0 0 -15 114 6 0 113 12 115 14 255 12 1 116 ?0 0 114 4
 5 +0 0 0 0 4 15 115 7 0 117 12 118 17 117 0 115 117 117 0 110 108 0 0 -15 118 8
 0 119 12 24 17 119 0 118 119 119 0 107 69 0 0 -17 107 0 0 0 0 0 119 69 0 0 +17
 110 0 0 0 0 0 117 108 0 0 +81 255 1 116 104 120 12 0 0 0 0 121 80 255 1 120 122
 123 9000 1 1 1 1 1 1 1 1 0 FFFFTFTFFFFFFF1 82 255 1 121 -2081288327 79 255 14 1
23 SWEntUnchanged17 15 0 0 0 0 18 21 9 0 0 +74 4 CI16 index_map_offset0 0 1 dCCZ
20 11 1 0 0 116 0 0 0 0 0 0 0 0 0 0 0 0 0 0 0 0 0 0 0 1 0 
